<svg xmlns="http://www.w3.org/2000/svg" viewBox="0 0 400 600"><defs><style>.cls-1{fill:#b6c8db;}</style></defs><title>hand_phone</title><g id="hand_phone"><rect x="136.91" y="376.72" width="168.45" height="191" transform="translate(-285.25 596.6) rotate(-78.71)"/><path d="M144.37,371.51l186.32,37.21L297.9,572.92l-186.32-37.2,32.79-164.21m-.79-1.17L110.4,536.5l188.28,37.6,33.18-166.17L143.58,370.34Z"/><path d="M178.93,464.72a4.48,4.48,0,0,1-4-2.43l-77-147.13c-1.22-2.37,4.2-26.86,6.17-27.88l105.32-76.59c.38-.19,2.29-.44,6.29-.44,9.61,0,20.42,1.27,21,2.48l0,.06L344.11,334.3c.95,3.14-11.07,51.22-13.24,52.89l-149.9,77A4.36,4.36,0,0,1,178.93,464.72Z"/><path d="M215.69,209.75v1c9.05,0,19.39,1.14,20.61,2.26l0,.06.09.09L343.64,334.51c.51,4.3-10.76,49.43-13.07,52.27l-149.83,77a3.78,3.78,0,0,1-1.81.44,4,4,0,0,1-3.57-2.17L98.35,315c-1-2.52,4.06-25.59,6-27.24l0,0,.06,0,105.16-76.49c.23-.09,1.44-.41,6.09-.41v-1m0,0c-3.31,0-5.88.17-6.59.54L103.84,286.84c-2.44,1.25-7.64,26.11-6.38,28.55l77,147.12a5,5,0,0,0,4.45,2.71,4.84,4.84,0,0,0,2.27-.55l149.92-77.05c2.44-1.25,14.68-51.15,13.42-53.59L237.17,212.5c-.89-1.73-13.41-2.75-21.49-2.75Z"/><path d="M298.24,399c-14.4,0-27.09-4.77-36.7-13.8-10.3-9.68-16.75-24.15-18.65-41.83-4-37.29,13.16-70.67,47.07-91.58,13.31-8.2,24.55-12.37,33.39-12.37,26.58,0,28.56,37.43,30.15,67.51.23,4.29.45,8.35.72,12.22,1.43,19.91-2.69,39-11.59,53.78-9,14.95-22.21,24.07-37.15,25.67a65.68,65.68,0,0,1-7.23.4Z"/><path d="M323.35,239.87c11.54,0,19.36,7.14,23.91,21.83,4,13.06,4.95,30.14,5.74,45.2.23,4.3.45,8.37.72,12.23,1.43,19.82-2.67,38.81-11.52,53.49s-22,23.85-36.77,25.44a67.46,67.46,0,0,1-7.19.39c-14.27,0-26.85-4.73-36.35-13.66-10.22-9.6-16.62-24-18.5-41.52-4-37.1,13.09-70.3,46.83-91.1,13.24-8.16,24.38-12.3,33.13-12.3m0-1c-8.49,0-19.45,3.69-33.66,12.45-31,19.1-51.67,51.26-47.29,92.06,4,37.61,27.49,56.07,55.84,56.07a67.08,67.08,0,0,0,7.3-.4c31.54-3.38,52.12-39.06,49.18-80-2.27-31.63-.56-80.19-31.37-80.19Z"/><path d="M205.66,241.91a11.52,11.52,0,0,1-8.71-4L90,114.35a11.53,11.53,0,0,1,1.17-16.22l17.73-15.35A11.53,11.53,0,0,1,125.09,84l107,123.6a11.52,11.52,0,0,1-1.17,16.22l-17.73,15.35A11.48,11.48,0,0,1,205.66,241.91Z"/><path d="M116.39,79.49v1a11,11,0,0,1,8.33,3.79l107,123.6a11,11,0,0,1-1.12,15.52l-17.73,15.34a11,11,0,0,1-15.51-1.12L90.35,114a11,11,0,0,1,1.12-15.51L109.2,83.16a11,11,0,0,1,7.19-2.67v-1m0,0a11.94,11.94,0,0,0-7.85,2.92L90.82,97.75a12,12,0,0,0-1.22,16.93l107,123.6a12,12,0,0,0,16.93,1.22l17.73-15.35a12,12,0,0,0,1.22-16.92l-107-123.6a12,12,0,0,0-9.08-4.14Z"/><path d="M163.1,261.66a11.52,11.52,0,0,1-8.44-3.68L65.83,161.93a11.51,11.51,0,0,1,.63-16.25l17.22-15.92a11.53,11.53,0,0,1,16.25.64l88.82,96a11.51,11.51,0,0,1-.63,16.25l-17.21,15.92A11.46,11.46,0,0,1,163.1,261.66Z"/><path d="M91.48,127.22h0a11,11,0,0,1,8.08,3.52l88.83,96a11,11,0,0,1-.61,15.55l-17.21,15.92a11,11,0,0,1-15.55-.61l-88.82-96a11,11,0,0,1,.6-15.55L84,130.13a11,11,0,0,1,7.46-2.91m0-1a11.91,11.91,0,0,0-8.14,3.18L66.12,145.32a12,12,0,0,0-.66,17l88.83,96a12,12,0,0,0,17,.66l17.21-15.92a12,12,0,0,0,.66-17l-88.83-96a12,12,0,0,0-8.81-3.84Z"/><path d="M157.32,306.36a11.47,11.47,0,0,1-7.47-2.76L50.54,218.44a11.55,11.55,0,0,1-1.24-16.22l15.26-17.8a11.56,11.56,0,0,1,16.22-1.24l99.3,85.17a11.5,11.5,0,0,1,1.25,16.21l-15.26,17.8A11.51,11.51,0,0,1,157.32,306.36Z"/><path d="M73.31,179.93v1a11,11,0,0,1,7.14,2.63l99.31,85.16A11.05,11.05,0,0,1,181,284.24L165.69,302a11,11,0,0,1-15.51,1.19L50.87,218.06a11,11,0,0,1-1.19-15.51l15.26-17.8a11,11,0,0,1,8.36-3.82v-1m0,0a12,12,0,0,0-9.12,4.17L48.92,201.9a12,12,0,0,0,1.3,16.92L149.52,304a12,12,0,0,0,16.93-1.3l15.26-17.79a12,12,0,0,0-1.3-16.92L81.1,182.8a11.94,11.94,0,0,0-7.8-2.87Z"/><path d="M157.71,369.81a11.48,11.48,0,0,1-7.53-2.81L51.45,281.17a11.53,11.53,0,0,1-1.13-16.23L65.7,247.25a11.54,11.54,0,0,1,16.23-1.13L180.65,332a11.53,11.53,0,0,1,1.14,16.23L166.4,365.87A11.46,11.46,0,0,1,157.71,369.81Z"/><path d="M74.39,243.81h0a10.94,10.94,0,0,1,7.21,2.69l98.73,85.83a11,11,0,0,1,1.08,15.52L166,365.54a11,11,0,0,1-15.52,1.09L51.78,280.79a11,11,0,0,1-1.08-15.52l15.38-17.69a11,11,0,0,1,8.31-3.77m0-1a12,12,0,0,0-9.06,4.11l-15.39,17.7a12,12,0,0,0,1.19,16.93l98.72,85.83a12,12,0,0,0,16.93-1.18l15.38-17.69A12,12,0,0,0,181,331.58L82.26,245.74a12,12,0,0,0-7.87-2.93Z"/><rect class="cls-1" x="106.56" y="19.89" width="205.02" height="348.6" rx="11.5" ry="11.5"/><path d="M300.08,20.39a11,11,0,0,1,11,11V357a11,11,0,0,1-11,11h-182a11,11,0,0,1-11-11V31.39a11,11,0,0,1,11-11h182m0-1h-182a12,12,0,0,0-12,12V357a12,12,0,0,0,12,12h182a12,12,0,0,0,12-12V31.39a12,12,0,0,0-12-12Z"/><path d="M317.5,309c-2.81,0-4.45-.46-4.5-1.25L298.5,203.93c-.22-3.19,6.12-50.34,8.6-52.44l25.07-1.6h.31a4.51,4.51,0,0,1,4.49,4.19l9.88,144.49a4.49,4.49,0,0,1-4.18,4.79h-.05l-18.14,5.2-1.42.13C321.52,308.83,319.41,309,317.5,309Z"/><path d="M332.48,150.38h0a4,4,0,0,1,4,3.72l9.88,144.5a4,4,0,0,1-3.71,4.26h-.11l-.1,0-18,5.18-1.38.12c-1.53.14-3.62.34-5.51.34-3.78,0-4-.78-4-.79v-.07L299,203.9c-.06-1.32,1.34-13.35,3.21-26,3.12-21.12,4.7-25.16,5.16-25.93l24.84-1.59h.27m0-1h-.34L307,151c-2.74.19-9.19,50.26-9,53l14.5,103.81c.09,1.36,2.38,1.72,5,1.72s5.68-.38,7.07-.47l18.14-5.21a5,5,0,0,0,4.64-5.32L337.46,154a5,5,0,0,0-5-4.65Z"/></g></svg>
