<svg xmlns="http://www.w3.org/2000/svg" viewBox="0 0 800 1080"><defs><style>.cls-1{fill:#c9c9c9;}.cls-2{fill:#939393;}.cls-3{fill:#a09f9f;}.cls-4{fill:#e2e2e2;}</style></defs><title>pige</title><g id="pige"><path class="cls-1" d="M346.38,593.39a11.81,11.81,0,0,1-2.53-.27c-10.34-2.23-17.15-18.06-19.18-44.57-2-26.7,1.06-60.95,8.73-96.44,15.08-69.75,43.72-124.38,65.22-124.38a12.48,12.48,0,0,1,2.53.26c21.56,4.66,26.25,67.92,10.45,141-15.08,69.74-43.72,124.38-65.22,124.38Z"/><path d="M398.62,328.23a11.58,11.58,0,0,1,2.43.25c9.95,2.15,16.8,18.24,18.78,44.12,2,26.65-1.06,60.85-8.72,96.3-7.34,34-18.12,65.41-30.37,88.6-12.05,22.82-24.26,35.39-34.36,35.39a11.59,11.59,0,0,1-2.43-.26c-9.95-2.15-16.8-18.23-18.78-44.12-2-26.65,1.06-60.85,8.72-96.3,7.34-33.94,18.12-65.4,30.37-88.59,12.05-22.83,24.26-35.39,34.36-35.39m0-1c-21.63,0-50.45,54.2-65.71,124.77-15.88,73.49-11,136.89,10.83,141.61a12.33,12.33,0,0,0,2.64.28c21.63,0,50.45-54.2,65.71-124.78,15.88-73.48,11-136.88-10.83-141.6a12.33,12.33,0,0,0-2.64-.28Z"/><rect class="cls-2" x="500.5" y="222.5" width="62" height="92"/><path d="M562,223v91H501V223h61m1-1H500v93h63V222Z"/><ellipse class="cls-1" cx="516.5" cy="156" rx="106" ry="104.5"/><path d="M516.5,52C574.67,52,622,98.65,622,156S574.67,260,516.5,260,411,213.35,411,156,458.33,52,516.5,52m0-1C457.68,51,410,98,410,156s47.68,105,106.5,105S623,214,623,156,575.32,51,516.5,51Z"/><path class="cls-1" d="M407,596.5a1.3,1.3,0,0,1-.91-.45c-2.18-2.19-4.75-12.38-4.6-48.48V546l-6-237c0-.64,2.46-4.32,51.12-13.47,26-4.89,53.12-9,56.38-9h60c3.08,0,25.45,3.87,48.87,9C644,302.58,655.5,307.11,655.5,309l-3,108c0,3-6.28,47-13.87,93C625.19,591.45,621,599.12,620,599.5Z"/><path d="M563,287c3,0,24.88,3.78,47.9,8.81,41.11,9,43.91,12.74,44.1,13.22l-3,108c0,2.94-6.18,46.26-13.66,91.67-13,78.76-17.39,89.13-18.53,90.33L407,596c-.06,0-.25,0-.54-.3-1.74-1.74-4.62-10.3-4.46-48.12V546l-6-236.91c.41-.74,4.93-4.49,51.93-13.28C473.39,291,499.87,287,503,287h60m0-1H503c-6.6,0-108,16.4-108,23l6,237c0,6.6-.6,51,6,51l213,3c6.6,0,33-176.4,33-183l3-108c0-6.6-86.4-23-93-23Z"/><path class="cls-1" d="M338.15,842.49c-.67-.54-3.85-3.59-6.43-6.07-6.19-5.93-6.22-5.93-6.5-5.95a1.8,1.8,0,0,1-1.25-.92c-5.35-7.9-2.42-55.41-.49-61.4l48-126.06V642c0-5.85,29-44.5,35.5-44.5l209.77-12c36.6,46.49,50.85,87.38,48.67,91.87-.08.16-.14.16-.17.16h0a.37.37,0,0,1-.13,0l-.73-.22L679.5,804.06c0,5.88-22.88,26.44-29.5,26.44Z"/><path d="M616.54,586c20,25.46,32.15,47.66,38.82,61.83,8.06,17.13,10.26,27.21,9.71,29.12l-1.24-.37.18,1.51,15,125.93c-.07,2.63-5.06,8.85-12.19,15.18S652.71,830,650,830L338.32,842c-.87-.76-3.83-3.6-6.25-5.92-6.33-6.06-6.33-6.06-6.82-6.1-.33,0-.65-.39-.86-.7-2.19-3.23-3.26-14.48-2.94-30.86.28-14,1.54-27.06,2.49-30.08l48-126,.07-.18V642c0-2.75,6.58-13.23,15.31-24.36C397.89,604.15,404.94,598,407,598h.06l209.48-12m.46-1L407,597c-6.6,0-36,38.4-36,45L323,768c-2.31,7.17-5.34,62.46,2.18,63,.27,0,12.55,12,12.82,12l312-12c6.6,0,30-20.4,30-27L665,678a.84.84,0,0,0,.27,0c4.63,0-9.34-43.66-48.27-93Z"/><ellipse cx="426.5" cy="787.5" rx="103" ry="100"/><path d="M426.5,688C483,688,529,732.64,529,787.5S483,887,426.5,887,324,842.36,324,787.5,370,688,426.5,688m0-1C369.34,687,323,732,323,787.5S369.34,888,426.5,888,530,843,530,787.5,483.66,687,426.5,687Z"/><ellipse class="cls-3" cx="579.5" cy="814.5" rx="103" ry="100"/><path d="M579.5,715C636,715,682,759.64,682,814.5S636,914,579.5,914,477,869.36,477,814.5,523,715,579.5,715m0-1C522.34,714,476,759,476,814.5S522.34,915,579.5,915,683,870,683,814.5,636.66,714,579.5,714Z"/><path class="cls-3" d="M404.11,386.5c-24.54,0-38.61-15.49-38.61-42.5,0-26,28.25-45.5,53.5-45.5,23.08,0,32.5,12.17,32.5,42C451.5,365.86,430.24,386.5,404.11,386.5Z"/><path d="M419,299c22.73,0,32,12,32,41.5,0,25.09-21,45.5-46.89,45.5-12.49,0-22.15-3.88-28.71-11.52-6.15-7.16-9.4-17.7-9.4-30.48,0-25.76,28-45,53-45m0-1c-26.45,0-54,20.32-54,46s12.66,43,39.11,43S452,366.18,452,340.5,445.45,298,419,298Z"/><path class="cls-1" d="M448.3,499.5c-37.75,0-76.8-20.84-76.8-55.72,0-36.38,46.23-70.64,82.07-70.64,35.43,0,56.59,22.47,56.59,60.1,0,17.73-6.08,34.27-17.14,46.56A59.31,59.31,0,0,1,448.3,499.5Z"/><path d="M453.57,373.64c17.55,0,32,5.69,41.72,16.46,9.4,10.39,14.37,25.31,14.37,43.14,0,17.61-6,34-17,46.23A58.83,58.83,0,0,1,448.3,499c-19,0-37.92-5.26-52-14.43C385.2,477.36,372,464.44,372,443.78c0-16.46,9.84-34.07,27-48.31,16.46-13.67,36.86-21.83,54.56-21.83m0-1c-37.11,0-82.57,35.11-82.57,71.14S411.19,500,448.3,500s62.36-30.72,62.36-66.76-20-60.6-57.09-60.6Z"/><path class="cls-3" d="M641,399.5c-12,0-23.55-6.54-32.41-18.42-8.05-10.81-12.87-24.86-12.87-37.58,0-12.54,3.92-23.09,11.33-30.53s18.18-11.47,31-11.47c12.06,0,24.83,7,35,19.19,9.69,11.58,15.47,25.9,15.47,38.31C688.5,382.85,669,399.5,641,399.5Z"/><path d="M638,302c11.91,0,24.54,6.93,34.65,19C682.26,332.5,688,346.7,688,359c0,11.94-4.74,22.09-13.71,29.35C665.81,395.22,654,399,641,399c-11.88,0-23.25-6.47-32-18.22-8-10.72-12.78-24.66-12.78-37.28,0-12.4,3.87-22.84,11.18-30.17S625.37,302,638,302m0-1c-26.45,0-42.78,16.82-42.78,42.5S614.55,400,641,400s48-15.32,48-41-24.55-58-51-58Z"/><path class="cls-1" d="M537.81,504.62c-36.48,0-61-24.25-61-60.35,0-16.38,10.39-33.6,28.49-47.25,17-12.85,38.06-20.52,56.22-20.52,42.36,0,48.69,42.46,48.69,67.77C610.22,481.55,572.63,504.62,537.81,504.62Z"/><path d="M561.53,377c16.84,0,29.51,6.78,37.65,20.14,6.89,11.3,10.54,27.6,10.54,47.13,0,16.56-7.87,31.89-22.16,43.15-13.46,10.61-31.6,16.7-49.75,16.7-36.18,0-60.49-24.05-60.49-59.85,0-16.22,10.31-33.3,28.29-46.85,17-12.79,37.86-20.42,55.92-20.42m0-1c-37.11,0-85.21,32.23-85.21,68.27s24.38,60.85,61.49,60.85,72.91-24.82,72.91-60.85S598.64,376,561.53,376Z"/><path class="cls-1" d="M394.1,887.18c-37.63,0-80-7.26-122.6-21-108.35-35-184.17-101.64-169-148.61,4.4-13.64,15.86-24.34,34.05-31.81,17.43-7.15,40.73-10.93,67.36-10.93,37.63,0,80,7.26,122.6,21,108.35,35,184.17,101.64,169,148.61-4.4,13.64-15.86,24.34-34.05,31.81C444,883.4,420.73,887.18,394.1,887.18Z"/><path d="M203.91,675.32c37.57,0,79.9,7.26,122.43,21,52.49,17,99,41.76,130.84,69.85,15.46,13.62,26.62,27.27,33.2,40.55,6.74,13.63,8.31,26.28,4.66,37.58-4.36,13.5-15.72,24.09-33.77,31.5-17.37,7.13-40.6,10.9-67.17,10.9-37.57,0-79.91-7.26-122.44-21-52.49-17-99-41.76-130.84-69.85-15.46-13.62-26.62-27.27-33.19-40.55-6.75-13.63-8.32-26.28-4.67-37.58,4.36-13.5,15.72-24.09,33.77-31.5,17.37-7.13,40.6-10.9,67.18-10.9h0m0-1c-53.38,0-92.79,14.9-101.89,43.09-15.27,47.3,60.55,114.12,169.34,149.24,44,14.19,86.56,21,122.75,21,53.38,0,92.79-14.9,101.89-43.09,15.27-47.3-60.55-114.12-169.34-149.24-44-14.19-86.56-21-122.75-21Z"/><path class="cls-1" d="M570.58,904.65c-48.88,0-109.8-17.17-167.11-47.1-54.19-28.3-99.94-64.85-128.82-102.91s-37.36-72.84-24.1-98.22c12.31-23.57,42.61-36.55,85.33-36.55,48.88,0,109.8,17.17,167.11,47.1,54.19,28.3,99.94,64.85,128.82,102.91s37.36,72.84,24.1,98.22C643.6,891.67,613.3,904.65,570.58,904.65Z"/><path d="M335.88,620.37c48.81,0,109.63,17.15,166.88,47,111.51,58.24,180,148.17,152.7,200.46-12.21,23.4-42.36,36.28-84.88,36.28-48.81,0-109.63-17.15-166.88-47C292.19,798.87,223.68,708.94,251,656.65c12.22-23.4,42.36-36.28,84.89-36.28h0m0-1c-41.36,0-72.89,12.15-85.77,36.81C222.5,709.05,291.05,799.41,403.24,858c59.85,31.26,120,47.16,167.34,47.16,41.36,0,72.89-12.15,85.77-36.81,27.61-52.87-41-143.23-153.13-201.81-59.85-31.26-120-47.16-167.34-47.16Z"/><path class="cls-1" d="M307.72,1056.72c-14.82,0-30.77-20.15-44.92-56.74-14.24-36.83-25-86.23-30.38-139.13-11.23-111.1,5-204.06,36.18-207.21a14.64,14.64,0,0,1,1.62-.08c14.82,0,30.77,20.15,44.92,56.73,14.25,36.83,25,86.24,30.38,139.13,5.45,53.91,4.65,105.19-2.26,144.39-6.88,39-18.92,61.31-33.92,62.83C308.81,1056.69,308.26,1056.72,307.72,1056.72Z"/><path d="M270.22,654.06c7.28,0,14.88,5,22.6,14.87s15,23.71,21.86,41.55c14.23,36.78,25,86.15,30.35,139,5.44,53.87,4.64,105.1-2.26,144.25-3.35,19-7.95,34.06-13.66,44.83-5.8,10.93-12.47,16.85-19.82,17.59-.52,0-1,.08-1.57.08-7.27,0-14.88-5-22.6-14.88-7.6-9.72-15-23.7-21.85-41.54-14.23-36.78-25-86.15-30.35-139-5.45-53.86-4.64-105.09,2.26-144.24,3.34-19,7.94-34.06,13.65-44.83,5.81-10.93,12.47-16.85,19.82-17.59a13.76,13.76,0,0,1,1.57-.08h0m0-1a15.56,15.56,0,0,0-1.67.08c-31.5,3.19-47.9,96.2-36.63,207.76,11.08,109.6,44.75,196.32,75.8,196.32a15.43,15.43,0,0,0,1.67-.09C340.9,1054,357.3,960.93,346,849.37c-11.08-109.6-44.75-196.32-75.8-196.31Z"/><path class="cls-1" d="M242.75,1077.45c-15,0-34.55-17.22-55.11-48.48-20.77-31.58-40.74-74.84-56.22-121.81-34.1-103.42-37.13-195.71-6.76-205.73a17.92,17.92,0,0,1,5.59-.88c15,0,34.55,17.22,55.11,48.48,20.77,31.58,40.74,74.84,56.22,121.81,34.1,103.42,37.13,195.71,6.76,205.73A17.92,17.92,0,0,1,242.75,1077.45Z"/><path d="M130.25,701.05c14.8,0,34.23,17.14,54.69,48.26,20.75,31.54,40.7,74.76,56.17,121.69,16.53,50.13,26.3,99.16,27.52,138,.58,18.84-.87,34.25-4.34,45.8-3.51,11.73-8.93,18.88-16.1,21.24a17.26,17.26,0,0,1-5.44.86c-14.8,0-34.22-17.14-54.69-48.26-20.75-31.54-40.7-74.76-56.17-121.69-16.53-50.13-26.3-99.16-27.52-138-.58-18.84.87-34.25,4.34-45.8,3.51-11.73,8.93-18.88,16.1-21.24a17.26,17.26,0,0,1,5.44-.86h0m0-1a18.16,18.16,0,0,0-5.75.91c-30.68,10.11-27.8,102.5,6.44,206.36C163.13,1005,211.57,1078,242.75,1078a18.16,18.16,0,0,0,5.75-.91c30.68-10.11,27.8-102.5-6.44-206.36-32.19-97.63-80.63-170.63-111.81-170.63Z"/><path class="cls-1" d="M697.35,592.76c-10.34,0-22-13.1-33-36.89-11-24-20-56.4-25.41-91.2-5.53-35.89-6.58-70.26-2.94-96.79,3.61-26.34,11.36-41.73,21.81-43.34a12.26,12.26,0,0,1,1.81-.14c10.34,0,22,13.1,33,36.89,11,24,20,56.4,25.41,91.2,5.53,35.89,6.58,70.26,2.94,96.79-3.61,26.34-11.36,41.73-21.81,43.34a11,11,0,0,1-1.81.14Z"/><path d="M659.65,324.9c10.13,0,21.68,13,32.51,36.6,11,24,20,56.31,25.38,91.06,5.52,35.85,6.56,70.17,2.93,96.66-3.52,25.72-11.32,41.36-21.39,42.91a11.1,11.1,0,0,1-1.73.13c-10.13,0-21.68-13-32.51-36.6-11-24-20-56.31-25.38-91.06-5.52-35.85-6.56-70.17-2.93-96.65,3.52-25.72,11.32-41.37,21.39-42.92a11.1,11.1,0,0,1,1.73-.13m0-1a13.11,13.11,0,0,0-1.88.14c-22.11,3.41-30.75,66.41-19.3,140.71C649.6,537,675.6,593.26,697.35,593.26a13.11,13.11,0,0,0,1.88-.14c22.11-3.41,30.75-66.41,19.3-140.71C707.4,380.21,681.4,323.9,659.65,323.9Z"/><path class="cls-1" d="M384.5,627.5c-32,0-58-26.59-58-59.27,0-33,28.14-35.73,59.5-35.73,6.64,0,14-.5,21.72-1,8-.55,16.33-1.11,24.11-1.11,17.54,0,37.67,2.57,37.67,22.63,0,14.91-11.39,33.41-30.46,49.5C420.76,617.92,399.86,627.5,384.5,627.5Z"/><path d="M431.83,530.87c12.06,0,20.47,1.37,26.46,4.3C465.5,538.69,469,544.53,469,553c0,14.76-11.32,33.12-30.28,49.11-18.2,15.35-39,24.89-54.22,24.89-31.71,0-57.5-26.36-57.5-58.77S354.91,533,386,533c6.65,0,14-.5,21.75-1,8-.55,16.32-1.11,24.08-1.11m0-1c-15.18,0-32.22,2.13-45.83,2.13-32.31,0-60,3.22-60,36.23S352.19,628,384.5,628,470,586,470,553c0-19.11-17.32-23.13-38.17-23.13Z"/><path class="cls-1" d="M651,618.5c-30.2,0-117.5-17.36-117.5-50.5,0-32.94,94.53-35.5,123.5-35.5,35.27,0,55.5,17.4,55.5,47.73,0,15-6.08,25.23-18.6,31.31C684.13,616.29,670.49,618.5,651,618.5Z"/><path d="M657,533c16.37,0,30,4,39.49,11.52,10.29,8.19,15.51,20.2,15.51,35.71,0,14.78-6,24.88-18.32,30.86C684,615.81,670.42,618,651,618c-16,0-45.46-4.49-70.79-13.07-13.87-4.69-24.87-10-32.72-15.84-9-6.63-13.49-13.73-13.49-21.09,0-32.48,94.15-35,123-35m0-1c-32.31,0-124,3-124,36s85.69,51,118,51,62-5.76,62-38.77S689.31,532,657,532Z"/><path class="cls-4" d="M462.64,569.11a11.61,11.61,0,0,1-11.35-9.59L430.94,438.21A11.51,11.51,0,0,1,440.37,425l65.09-10.92a11.08,11.08,0,0,1,1.9-.16,11.61,11.61,0,0,1,11.35,9.59l20.35,121.31A11.51,11.51,0,0,1,529.63,558L464.54,569A11.08,11.08,0,0,1,462.64,569.11Z"/><path d="M507.36,414.39a11.11,11.11,0,0,1,10.86,9.18l20.35,121.3a11,11,0,0,1-9,12.67l-65.09,10.92a11,11,0,0,1-12.67-9l-20.35-121.3a11,11,0,0,1,9-12.67l65.09-10.92a11.05,11.05,0,0,1,1.81-.15m0-1a12.19,12.19,0,0,0-2,.16l-65.09,10.92a12.05,12.05,0,0,0-9.85,13.83L450.8,559.6a12,12,0,0,0,11.84,10,12.19,12.19,0,0,0,2-.16l65.09-10.92a12.05,12.05,0,0,0,9.85-13.83L519.2,423.4a12,12,0,0,0-11.84-10Z"/><path class="cls-1" d="M544.14,591.5c-26.67,0-48.37-16.6-48.37-37s21.7-37,48.37-37,48.36,16.6,48.36,37S570.8,591.5,544.14,591.5Z"/><path d="M544.14,518c26.39,0,47.86,16.37,47.86,36.5S570.53,591,544.14,591s-47.87-16.37-47.87-36.5S517.74,518,544.14,518m0-1c-27,0-48.87,16.79-48.87,37.5S517.15,592,544.14,592,593,575.21,593,554.5,571.12,517,544.14,517Z"/><path class="cls-1" d="M451.14,588.5c-26.67,0-48.37-16.6-48.37-37s21.7-37,48.37-37,48.36,16.6,48.36,37S477.8,588.5,451.14,588.5Z"/><path d="M451.14,515c26.39,0,47.86,16.37,47.86,36.5S477.53,588,451.14,588s-47.87-16.37-47.87-36.5S424.74,515,451.14,515m0-1c-27,0-48.87,16.79-48.87,37.5S424.15,589,451.14,589,500,572.21,500,551.5,478.12,514,451.14,514Z"/></g></svg>
