<svg xmlns="http://www.w3.org/2000/svg" viewBox="0 0 350 350"><defs><style>.cls-1{fill:#771f47;}</style></defs><title>point0</title><g id="point"><path class="cls-1" d="M170.86,296.12,84.42,186l167,2.37c5.32.11,13.61-.88,10.66,3.55Z"/><path class="cls-1" d="M180.33,128.57c0,35.81,10.94,110.71-24.87,110.71S56,165,56,129.16s23.7-65.42,59.5-65.42A64.84,64.84,0,0,1,180.33,128.57Z"/><path class="cls-1" d="M294,129.16c0,35.81-69.58,116-105.38,116S167.9,164.38,167.9,128.57a64.83,64.83,0,0,1,64.82-64.83C268.53,63.74,294,93.36,294,129.16Z"/><rect x="151.92" y="94.45" width="5.24" height="62.95" transform="translate(123.7 -71.02) rotate(41.92)"/><rect x="165.7" y="185.37" width="2.05" height="65.73" transform="translate(150.43 -55.91) rotate(33.98)"/><rect x="158.43" y="242.78" width="1.58" height="55" transform="translate(-91.19 81.34) rotate(-22.46)"/><rect x="156.17" y="134.73" width="5.24" height="68.37" transform="translate(390.61 166.92) rotate(132.73)"/></g></svg>
