<svg xmlns="http://www.w3.org/2000/svg" viewBox="0 0 350 350"><defs><style>.cls-1{fill:#a0286d;}</style></defs><title>point1</title><g id="point"><path class="cls-1" d="M170.86,296.12,84.42,186l167,2.37c5.32.11,13.61-.88,10.66,3.55Z"/><path class="cls-1" d="M180.33,128.57c0,35.81,10.94,110.71-24.87,110.71S56,165,56,129.16s23.7-65.42,59.5-65.42A64.84,64.84,0,0,1,180.33,128.57Z"/><path class="cls-1" d="M294,129.16c0,35.81-69.58,116-105.38,116S167.9,164.38,167.9,128.57a64.83,64.83,0,0,1,64.82-64.83C268.53,63.74,294,93.36,294,129.16Z"/><rect x="159.45" y="95.76" width="3.32" height="39.87" transform="translate(118.55 -78.03) rotate(41.92)"/><rect x="168.18" y="153.35" width="1.3" height="41.63" transform="translate(126.17 -64.62) rotate(33.98)"/><rect x="163.58" y="189.71" width="1" height="34.84" transform="translate(-66.69 78.4) rotate(-22.46)"/><rect x="162.14" y="121.28" width="3.32" height="43.3" transform="translate(379.94 119.61) rotate(132.73)"/></g></svg>
