<svg xmlns="http://www.w3.org/2000/svg" viewBox="0 0 600 900"><title>MC</title><g id="MC"><path d="M61,587.5c-70.92,0-137.6-26.16-187.75-73.67S-204.5,403.17-204.5,336s27.61-130.33,77.75-177.83S-9.92,84.5,61,84.5s137.6,26.16,187.75,73.67S326.5,268.83,326.5,336s-27.61,130.33-77.75,177.83S131.92,587.5,61,587.5Z"/><path d="M61,85a276.17,276.17,0,0,1,103.17,19.73,265.42,265.42,0,0,1,84.23,53.81,249.65,249.65,0,0,1,56.78,79.78,239.55,239.55,0,0,1,0,195.36,249.65,249.65,0,0,1-56.78,79.78,265.42,265.42,0,0,1-84.23,53.81A276.17,276.17,0,0,1,61,587,276.17,276.17,0,0,1-42.17,567.27a265.42,265.42,0,0,1-84.23-53.81,249.65,249.65,0,0,1-56.78-79.78,239.55,239.55,0,0,1,0-195.36,249.65,249.65,0,0,1,56.78-79.78,265.42,265.42,0,0,1,84.23-53.81A276.17,276.17,0,0,1,61,85m0-1C-85.91,84-205,196.82-205,336S-85.91,588,61,588,327,475.18,327,336,207.91,84,61,84Z"/><rect x="-60.5" y="487.5" width="207" height="215"/><path d="M146,488V702H-60V488H146m1-1H-61V703H147V487Z"/><polygon points="-60.5 917.5 -60.5 658.57 526.61 730.46 578.34 917.5 -60.5 917.5"/><path d="M-60,659.13l586.21,71.78L577.69,917H-60V659.13M-61,658V918H579L527,730-61,658Z"/></g></svg>
