<svg xmlns="http://www.w3.org/2000/svg" xmlns:xlink="http://www.w3.org/1999/xlink" width="473" height="839" viewBox="0 0 473 839"><defs><style>.cls-1,.cls-3{fill:#fff;}.cls-1,.cls-12{stroke:#000;}.cls-1,.cls-10,.cls-12,.cls-4,.cls-7{stroke-miterlimit:10;}.cls-1,.cls-10,.cls-4,.cls-7{stroke-width:3px;}.cls-1{opacity:0.65;}.cls-2{fill:#29a9e0;}.cls-10,.cls-12,.cls-4,.cls-7,.cls-8{fill:none;}.cls-4,.cls-8{stroke:#29a9e0;}.cls-10,.cls-4,.cls-7,.cls-8{stroke-linecap:round;}.cls-5{fill:#e4e4e4;}.cls-6{fill:#b1b1b1;}.cls-7{stroke:#fff;}.cls-8{stroke-linejoin:round;stroke-width:4px;}.cls-9{fill:#4d4d4d;}.cls-10{stroke:#666;}.cls-11{fill:#666;}.cls-13{fill:#cacaca;}.cls-14{fill:#979797;}.cls-15{fill:#ffe0bd;}.cls-16{fill:#fdffb9;}.cls-17{fill:#ffc787;}.cls-18{fill:#ffbb8e;}.cls-19{fill:#c9b29b;}.cls-20{fill:url(#radial-gradient);}.cls-21{fill:url(#radial-gradient-5);}.cls-22{fill:url(#radial-gradient-6);}.cls-23{fill:url(#radial-gradient-9);}.cls-24{fill:#1d6a89;}.cls-25{fill:#bc7777;}.cls-26{fill:#6b4747;}.cls-27{fill:#50a072;}.cls-28{fill:#d836d8;}.cls-29{fill:#b79191;}.cls-30{fill:#e8c77e;}.cls-31{fill:#434d91;}.cls-32{fill:#20561e;}.cls-33{fill:#3a2514;}.cls-34{fill:#020000;}.cls-35{fill:#dbd6a2;}.cls-36{fill:#ad4040;}.cls-37{fill:#5b1e1e;}.cls-38{fill:#7314a5;}.cls-39{fill:#d3b226;}.cls-40{fill:#8c6141;}.cls-41{fill:#1b213a;}</style><radialGradient id="radial-gradient" cx="151.63" cy="512.9" r="3.22" gradientUnits="userSpaceOnUse"><stop offset="0" stop-color="#035500"/><stop offset="0.56" stop-color="#017b0d"/><stop offset="1" stop-color="#009416"/></radialGradient><radialGradient id="radial-gradient-5" cx="151.63" cy="512.9" r="3.22" xlink:href="#radial-gradient"/><radialGradient id="radial-gradient-6" cx="181.8" cy="517.85" r="3.22" xlink:href="#radial-gradient"/><radialGradient id="radial-gradient-9" cx="181.8" cy="517.85" r="3.22" xlink:href="#radial-gradient"/></defs><title>besked 5</title><g id="Layer_1" data-name="Layer 1"><rect class="cls-1" x="2.5" y="1.5" width="470" height="836"/><circle class="cls-2" cx="43.5" cy="797.5" r="5"/><circle class="cls-2" cx="28.5" cy="797.5" r="5"/><circle class="cls-2" cx="28.5" cy="812.5" r="5"/><circle class="cls-2" cx="43.5" cy="812.5" r="5"/><path class="cls-2" d="M81,818.31l20.58.39a5.73,5.73,0,0,0,5.82-5.6l.21-11.58a5.73,5.73,0,0,0-4.49-5.68,5.6,5.6,0,0,1-2.19-1l-3.09-2.35a5,5,0,0,0-3-1H88.6a3.83,3.83,0,0,0-2,.58l-4.08,2.57a5.51,5.51,0,0,1-2,.74,5.72,5.72,0,0,0-4.84,5.53l-.22,11.58A5.73,5.73,0,0,0,81,818.31Z"/><circle class="cls-2" cx="91.5" cy="806.5" r="7"/><path class="cls-3" d="M91.5,800.5a6,6,0,1,1-6,6,6,6,0,0,1,6-6m0-2a8,8,0,1,0,8,8,8,8,0,0,0-8-8Z"/><path class="cls-2" d="M155.83,794.5a1.69,1.69,0,0,1,1.67,1.67v17.66a1.69,1.69,0,0,1-1.67,1.67H138.17a1.69,1.69,0,0,1-1.67-1.67V796.17a1.69,1.69,0,0,1,1.67-1.67h17.66m0-3H138.17a4.68,4.68,0,0,0-4.67,4.67v17.66a4.68,4.68,0,0,0,4.67,4.67h17.66a4.68,4.68,0,0,0,4.67-4.67V796.17a4.68,4.68,0,0,0-4.67-4.67Z"/><path class="cls-2" d="M143.5,805.5h5c3,0,11,5,11,8l-1-1.5a5.51,5.51,0,0,1-5.5,5.5H140a5.51,5.51,0,0,1-5.5-5.5v-.5C134.5,808.47,140.47,805.5,143.5,805.5Z"/><circle class="cls-2" cx="141.5" cy="799.5" r="3"/><line class="cls-4" x1="196" y1="819" x2="207" y2="819"/><path class="cls-4" d="M192,805s9,21,20,0"/><rect class="cls-2" x="196" y="790.5" width="11.5" height="20.5" rx="5"/><rect class="cls-5" x="236" y="784" width="163" height="43" rx="20.48"/><line class="cls-4" x1="249" y1="791" x2="249" y2="818"/><path class="cls-6" d="M265.38,812l-1.95-5h-6.3l-1.93,5h-1.85l6.21-15.77h1.54L267.27,812Zm-2.52-6.64L261,800.5c-.24-.61-.48-1.37-.73-2.26a19.77,19.77,0,0,1-.68,2.26l-1.84,4.87Z"/><path class="cls-6" d="M276.4,812l-.35-1.68H276a4.88,4.88,0,0,1-1.75,1.5,5.43,5.43,0,0,1-2.19.39,3.92,3.92,0,0,1-2.74-.9,3.27,3.27,0,0,1-1-2.57c0-2.38,1.9-3.62,5.71-3.74l2-.06v-.73a3,3,0,0,0-.59-2.05,2.47,2.47,0,0,0-1.91-.66,7.79,7.79,0,0,0-3.33.9l-.55-1.36a8.64,8.64,0,0,1,4-1,4.51,4.51,0,0,1,3.12.93,3.91,3.91,0,0,1,1,3v8Zm-4-1.26a3.61,3.61,0,0,0,2.61-.91,3.4,3.4,0,0,0,.95-2.56v-1.06l-1.78.07a6.51,6.51,0,0,0-3.07.66,2,2,0,0,0-.94,1.82,1.86,1.86,0,0,0,.59,1.48A2.45,2.45,0,0,0,272.38,810.75Z"/><ellipse class="cls-2" cx="379.5" cy="805.25" rx="15" ry="14.75"/><ellipse class="cls-3" cx="374.75" cy="802.5" rx="1.75" ry="2.5"/><ellipse class="cls-3" cx="384.75" cy="802.5" rx="1.75" ry="2.5"/><path class="cls-7" d="M372.5,811.5s8,6,14,0"/><path class="cls-2" d="M431,815v-9.73a3.55,3.55,0,0,1,.81-2.25l3.08-3.69a6.1,6.1,0,0,0,1.36-3.22,24.79,24.79,0,0,0,0-6,1.14,1.14,0,0,1,1-1.34c2.18-.16,6.19.88,4.71,11.26,0,0,13,0,9,5,0,0,3,4,0,6a3.1,3.1,0,0,1-2,4s3,3-8,4S431,815,431,815Z"/><path class="cls-2" d="M426.24,804h1.06a1.71,1.71,0,0,1,1.71,1.71v12.59a1.71,1.71,0,0,1-1.71,1.71h-1a3.22,3.22,0,0,1-3.22-3.22v-9.63a3.16,3.16,0,0,1,3.16-3.16Z"/><polyline class="cls-8" points="40.5 71.5 28.5 59.5 40.5 47.5"/><rect class="cls-6" x="27.5" y="8.5" width="4" height="12" rx="2"/><rect class="cls-6" x="21.5" y="10.5" width="4" height="10" rx="2"/><rect class="cls-9" x="15.5" y="12.5" width="4" height="8" rx="2"/><rect class="cls-9" x="9.5" y="14.5" width="4" height="6" rx="2"/><path d="M40,19.71H38.77v-9.6H35.38V9h8v1.1H40Z"/><path d="M51,19.71H45V9h6v1.1H46.26v3.45H50.7v1.1H46.26V18.6H51Z"/><path d="M53.36,19.71V9h1.25v9.58h4.72v1.12Z"/><path d="M65.88,19.71l-3.63-9.49h-.06c.07.75.11,1.65.11,2.68v6.81H61.15V9H63l3.39,8.83h.06L69.89,9h1.86v10.7H70.51v-6.9c0-.79,0-1.65.1-2.57h-.06l-3.66,9.47Z"/><path d="M84,14.35a5.87,5.87,0,0,1-1.3,4,5.24,5.24,0,0,1-7.26,0,5.91,5.91,0,0,1-1.29-4.08,5.86,5.86,0,0,1,1.29-4.05,4.66,4.66,0,0,1,3.66-1.44,4.6,4.6,0,0,1,3.61,1.46A5.93,5.93,0,0,1,84,14.35Zm-8.53,0a5,5,0,0,0,.93,3.29,3.78,3.78,0,0,0,5.38,0,5.19,5.19,0,0,0,.9-3.3,5.11,5.11,0,0,0-.9-3.28A3.23,3.23,0,0,0,79.08,10a3.29,3.29,0,0,0-2.7,1.13A5,5,0,0,0,75.45,14.35Z"/><path d="M87.62,15.26v4.45H86.37V9h2.94a4.65,4.65,0,0,1,2.91.75A2.72,2.72,0,0,1,93.16,12,2.84,2.84,0,0,1,91,14.9l2.9,4.81H92.44l-2.59-4.45Zm0-1.07h1.7a3,3,0,0,0,1.94-.52,2,2,0,0,0,.61-1.57,1.8,1.8,0,0,0-.62-1.53,3.36,3.36,0,0,0-2-.47H87.62Z"/><path d="M101.61,19.71h-6V9h6v1.1H96.89v3.45h4.44v1.1H96.89V18.6h4.72Z"/><path class="cls-10" d="M115.5,11.5s6-6,14,0"/><path class="cls-10" d="M118.5,14.5s3.32-3.75,7.75,0"/><path class="cls-11" d="M122.5,19.5h0a8.26,8.26,0,0,1-2-2v-.75a.41.41,0,0,1,.23-.36h0a3.94,3.94,0,0,1,3.54,0h0a.41.41,0,0,1,.23.36v.75A8.26,8.26,0,0,1,122.5,19.5Z"/><path d="M227.84,19.64h-7v-1l2.82-2.84a20.45,20.45,0,0,0,1.7-1.86,4.65,4.65,0,0,0,.62-1.08,3,3,0,0,0,.2-1.14,1.8,1.8,0,0,0-.52-1.36,2,2,0,0,0-1.44-.5,3.52,3.52,0,0,0-1.26.22,5,5,0,0,0-1.33.8l-.65-.83a5,5,0,0,1,3.23-1.23,3.42,3.42,0,0,1,2.36.77,2.68,2.68,0,0,1,.86,2.08,4,4,0,0,1-.57,2,12.62,12.62,0,0,1-2.14,2.52l-2.35,2.3v.06h5.51Z"/><path d="M233.89,19.64H232.7V12q0-.94.06-1.8l-.35.32c-.12.11-.7.59-1.74,1.43l-.64-.84,2.83-2.18h1Z"/><path d="M238.34,12.4c0-.66.29-1,.86-1s.9.33.9,1a1,1,0,0,1-.24.73.87.87,0,0,1-.66.26.9.9,0,0,1-.62-.23A1,1,0,0,1,238.34,12.4Zm0,6.47a1.1,1.1,0,0,1,.22-.75.83.83,0,0,1,.64-.25.91.91,0,0,1,.67.25,1.1,1.1,0,0,1,.23.75,1,1,0,0,1-.24.73.94.94,0,0,1-1.28,0A1,1,0,0,1,238.34,18.87Z"/><path d="M248.58,11.46a2.43,2.43,0,0,1-.57,1.67,2.81,2.81,0,0,1-1.63.87v.06a3.06,3.06,0,0,1,1.91.82,2.4,2.4,0,0,1,.62,1.73A2.81,2.81,0,0,1,247.85,19a4.82,4.82,0,0,1-3,.82,8.3,8.3,0,0,1-1.55-.13,4.89,4.89,0,0,1-1.37-.45V18.05a6.5,6.5,0,0,0,1.48.53,6.65,6.65,0,0,0,1.49.18c1.85,0,2.77-.73,2.77-2.18q0-1.95-3.06-1.95h-1.05v-1h1.07a3.21,3.21,0,0,0,2-.56,1.8,1.8,0,0,0,.74-1.53,1.52,1.52,0,0,0-.54-1.23,2.22,2.22,0,0,0-1.46-.45A4.46,4.46,0,0,0,244,10a6,6,0,0,0-1.42.7L242,9.89a5.39,5.39,0,0,1,1.52-.81,5.51,5.51,0,0,1,1.82-.3,3.68,3.68,0,0,1,2.42.72A2.37,2.37,0,0,1,248.58,11.46Z"/><path d="M257.56,19.64h-7v-1l2.82-2.84A19.88,19.88,0,0,0,255,13.9a4.65,4.65,0,0,0,.62-1.08,3,3,0,0,0,.21-1.14,1.84,1.84,0,0,0-.52-1.36,2,2,0,0,0-1.45-.5,3.56,3.56,0,0,0-1.26.22,5,5,0,0,0-1.33.8l-.64-.83a4.92,4.92,0,0,1,3.22-1.23,3.42,3.42,0,0,1,2.36.77,2.68,2.68,0,0,1,.86,2.08,4,4,0,0,1-.57,2,12.28,12.28,0,0,1-2.14,2.52l-2.34,2.3v.06h5.5Z"/><rect x="435.5" y="9.5" width="9" height="10" rx="1.99"/><rect class="cls-12" x="434" y="8.25" width="27" height="12.5" rx="1.99"/><path d="M462.5,11.5s2.74,2.65,0,5"/><path d="M402.87,11.53a2.39,2.39,0,0,1-.58,1.67,2.78,2.78,0,0,1-1.63.87v.06a3.11,3.11,0,0,1,1.92.82,2.44,2.44,0,0,1,.62,1.73A2.84,2.84,0,0,1,402.14,19a4.84,4.84,0,0,1-3,.82,8.34,8.34,0,0,1-1.56-.13,4.89,4.89,0,0,1-1.37-.45V18.12a6.88,6.88,0,0,0,3,.71c1.85,0,2.78-.73,2.78-2.18q0-1.95-3.06-1.95h-1.06v-1h1.07a3.22,3.22,0,0,0,2-.56,1.82,1.82,0,0,0,.73-1.53,1.52,1.52,0,0,0-.54-1.23,2.22,2.22,0,0,0-1.46-.45,4.8,4.8,0,0,0-1.33.19,5.84,5.84,0,0,0-1.42.71l-.61-.83a5.25,5.25,0,0,1,1.52-.81,5.41,5.41,0,0,1,1.81-.3,3.66,3.66,0,0,1,2.42.72A2.39,2.39,0,0,1,402.87,11.53Z"/><path d="M411.85,19.71h-7v-1l2.82-2.84a22.13,22.13,0,0,0,1.7-1.86,4.58,4.58,0,0,0,.61-1.08,3,3,0,0,0,.21-1.14,1.84,1.84,0,0,0-.52-1.36,2,2,0,0,0-1.44-.5,3.57,3.57,0,0,0-1.27.22,5,5,0,0,0-1.33.8l-.64-.83a4.92,4.92,0,0,1,3.22-1.23,3.45,3.45,0,0,1,2.37.77,2.67,2.67,0,0,1,.85,2.08,4,4,0,0,1-.57,2,12.28,12.28,0,0,1-2.14,2.52l-2.34,2.3v.06h5.51Z"/><path d="M417.78,12.2a4.66,4.66,0,0,1-.56,2.52,1.84,1.84,0,0,1-1.65.86A1.79,1.79,0,0,1,414,14.7a4.56,4.56,0,0,1-.57-2.5A4.72,4.72,0,0,1,414,9.69a1.79,1.79,0,0,1,1.61-.84,1.85,1.85,0,0,1,1.64.87A4.53,4.53,0,0,1,417.78,12.2Zm-3.36,0a4.73,4.73,0,0,0,.28,1.87.91.91,0,0,0,.87.62c.81,0,1.21-.83,1.21-2.49s-.4-2.48-1.21-2.48a.91.91,0,0,0-.87.62A4.65,4.65,0,0,0,414.42,12.2ZM422.34,9l-5.94,10.7h-1.07L421.27,9Zm1.89,7.48a4.66,4.66,0,0,1-.56,2.52,1.83,1.83,0,0,1-1.64.85,1.78,1.78,0,0,1-1.6-.87,4.56,4.56,0,0,1-.56-2.5,4.66,4.66,0,0,1,.54-2.5,1.8,1.8,0,0,1,1.62-.85,1.86,1.86,0,0,1,1.62.86A4.45,4.45,0,0,1,424.23,16.49Zm-3.36,0a4.89,4.89,0,0,0,.27,1.87A.91.91,0,0,0,422,19a1,1,0,0,0,.91-.61,4.66,4.66,0,0,0,.29-1.88,4.62,4.62,0,0,0-.29-1.86A1,1,0,0,0,422,14a.92.92,0,0,0-.89.6A4.87,4.87,0,0,0,420.87,16.49Z"/><rect class="cls-2" x="418.5" y="47.5" width="24" height="24" rx="6.42"/><path class="cls-2" d="M447.59,53.82l2.7-1.16a2,2,0,0,1,2.76,1.82v9a2,2,0,0,1-2.82,1.86L447.06,64A3.46,3.46,0,0,1,445,60.76V57.82A4.36,4.36,0,0,1,447.59,53.82Z"/><path class="cls-2" d="M375.8,64.81C373.87,64,371.24,62.1,369,58a5,5,0,0,1,.6-5.52c.76-.94,1.32-2,.87-2.94-1-2-4-5-5-5s-7,2-5,8,7.77,17.55,21.21,20.82a5,5,0,0,0,1.8.1c1.85-.24,6-1.92,5-4.92-1.41-4.24-2-4-4.55-5.26-.62-.31-1.37.22-2,.53l-1.83.91C378.5,66.5,377.19,65.41,375.8,64.81Z"/><path d="M133.59,66.16h-3.33V53.23H126V50.46h11.86v2.77h-4.27Z"/><path d="M151.1,66.16h-3.28v-7c0-1.74-.64-2.6-1.93-2.6a2.21,2.21,0,0,0-2,.93,5.78,5.78,0,0,0-.61,3v5.65H140V49.45h3.28v3.4c0,.27,0,.89-.07,1.87l-.08,1h.17a3.78,3.78,0,0,1,3.48-1.76A4.24,4.24,0,0,1,150,55.06a4.49,4.49,0,0,1,1.1,3.27Z"/><path d="M159.91,66.38a6.21,6.21,0,0,1-4.53-1.6,6.07,6.07,0,0,1-1.64-4.54,6.71,6.71,0,0,1,1.51-4.67,5.38,5.38,0,0,1,4.18-1.64,5.29,5.29,0,0,1,4,1.45,5.49,5.49,0,0,1,1.42,4V61h-7.75a3.15,3.15,0,0,0,.83,2.18,2.89,2.89,0,0,0,2.17.79,9,9,0,0,0,2.05-.23,10,10,0,0,0,2-.72v2.54a7.85,7.85,0,0,1-1.84.64A11.48,11.48,0,0,1,159.91,66.38Zm-.46-10.12a2.1,2.1,0,0,0-1.64.66,3,3,0,0,0-.67,1.87h4.6a2.74,2.74,0,0,0-.64-1.87A2.15,2.15,0,0,0,159.45,56.26Z"/><path d="M173.44,50.46h4.89a9.33,9.33,0,0,1,4.85.95,3.29,3.29,0,0,1,1.51,3,3.81,3.81,0,0,1-.66,2.31,2.64,2.64,0,0,1-1.76,1.08v.11a3.45,3.45,0,0,1,2.16,1.25,4.07,4.07,0,0,1,.66,2.43A4,4,0,0,1,183.54,65a6.74,6.74,0,0,1-4.22,1.2h-5.88Zm3.33,6.22h1.94a3.54,3.54,0,0,0,2-.42,1.58,1.58,0,0,0,.61-1.39,1.37,1.37,0,0,0-.67-1.29,4.1,4.1,0,0,0-2.08-.4h-1.76Zm0,2.64v4.09h2.17a3.14,3.14,0,0,0,2-.53,1.92,1.92,0,0,0,.66-1.61q0-2-2.79-2Z"/><path d="M198.88,60.13a6.41,6.41,0,0,1-1.55,4.59,5.6,5.6,0,0,1-4.3,1.66,6.05,6.05,0,0,1-3.05-.76,5,5,0,0,1-2-2.18,7.21,7.21,0,0,1-.71-3.31,6.42,6.42,0,0,1,1.53-4.57,5.65,5.65,0,0,1,4.32-1.63,6.08,6.08,0,0,1,3,.75,5,5,0,0,1,2,2.16A7.12,7.12,0,0,1,198.88,60.13Zm-8.3,0a5.06,5.06,0,0,0,.58,2.7,2.45,2.45,0,0,0,3.8,0,5.18,5.18,0,0,0,.57-2.71,4.92,4.92,0,0,0-.58-2.67,2.11,2.11,0,0,0-1.9-.89,2.07,2.07,0,0,0-1.89.88A4.94,4.94,0,0,0,190.58,60.13Z"/><path d="M199.87,54.15h3.59l2.26,6.76a8.93,8.93,0,0,1,.4,2.08h.07a9.15,9.15,0,0,1,.46-2.08l2.22-6.76h3.51L207.3,67.7a5.83,5.83,0,0,1-2,2.81,5,5,0,0,1-3,.94,7.77,7.77,0,0,1-1.67-.19v-2.6a5.32,5.32,0,0,0,1.29.14,2.29,2.29,0,0,0,1.52-.53,3.52,3.52,0,0,0,1-1.6l.19-.6Z"/><path d="M222.46,66.16H213V64.23l5.56-7.58h-5.23v-2.5h9v2.13l-5.42,7.38h5.61Z"/><path d="M224.37,64.62a1.77,1.77,0,0,1,.49-1.36,1.94,1.94,0,0,1,1.4-.46,1.91,1.91,0,0,1,1.38.47,2.09,2.09,0,0,1,0,2.69,1.86,1.86,0,0,1-1.38.49,1.91,1.91,0,0,1-1.39-.48A1.78,1.78,0,0,1,224.37,64.62ZM227.58,61H225l-.54-10.49h3.71Z"/><rect class="cls-13" x="65.5" y="328.5" width="248" height="111" rx="18.79"/><path class="cls-3" d="M76.46,353.69V338.52h2.15v6.39h7.22v-6.39H88v15.17H85.83v-7.17H78.61v7.17Z"/><path class="cls-3" d="M100.11,353.33a12.31,12.31,0,0,1-3.47.62,5.31,5.31,0,0,1-4-1.64,5.92,5.92,0,0,1-1.55-4.24,6.22,6.22,0,0,1,1.37-4.15,4.38,4.38,0,0,1,3.5-1.62,3.71,3.71,0,0,1,3.12,1.43,6.57,6.57,0,0,1,1.11,4.09v.62h-7c.3,2.65,1.59,4,3.89,4a9.28,9.28,0,0,0,3.09-.68Zm-6.89-6.41h4.92c0-2.07-.78-3.1-2.32-3.1S93.4,344.85,93.22,346.92Z"/><path class="cls-3" d="M104.3,357.74l1.8-4.05-4.3-11.14H104l3.19,8.39,3.4-8.39h1.91l-6.08,15.19Z"/><path class="cls-3" d="M121.27,353.81V337.5h2v7.15a4,4,0,0,1,3.72-2.34,3.8,3.8,0,0,1,3.16,1.47,6.29,6.29,0,0,1,1.16,4,7.12,7.12,0,0,1-1.31,4.46,4.33,4.33,0,0,1-6.73.18l-.25,1.38Zm2-2.77a4.63,4.63,0,0,0,3,1.39q2.91,0,2.91-4.44,0-3.92-2.58-3.92a4.47,4.47,0,0,0-3.3,1.84Z"/><path class="cls-3" d="M138.84,354a4.86,4.86,0,0,1-3.81-1.59,7,7,0,0,1,0-8.49,5.62,5.62,0,0,1,7.77,0,7,7,0,0,1,0,8.52A5.1,5.1,0,0,1,138.84,354Zm0-1.52q3.21,0,3.21-4.33t-3.16-4.27q-3.16,0-3.16,4.29T138.87,352.43Z"/><path class="cls-3" d="M147.38,340.54v-2h2v2Zm0,13.15V342.55h2v11.14Z"/><path class="cls-3" d="M152.7,353.69v-1.52l6.89-8.1H153v-1.52h9.07v1.52l-6.89,8.1h7v1.52Z"/><path class="cls-3" d="M166,349.64l-.26-8.09v-3h2v3l-.25,8.09Zm-.26,4.05v-2h2v2Z"/><path class="cls-3" d="M178.72,353.69V338.52h4.13a6.53,6.53,0,0,1,4,.92,3.63,3.63,0,0,1,1.2,3.05,4.7,4.7,0,0,1-1.64,3.8,6.9,6.9,0,0,1-4.55,1.37h-1v6Zm2.13-7.66h.88a4.47,4.47,0,0,0,3-.88,3.07,3.07,0,0,0,1-2.49,2.22,2.22,0,0,0-.82-2,4.82,4.82,0,0,0-2.73-.59h-1.33Z"/><path class="cls-3" d="M190.39,353.69V342.55h2v2.1a3.77,3.77,0,0,1,3.49-2.34,4.85,4.85,0,0,1,.64.05v1.89a2.86,2.86,0,0,0-.92-.18q-1.92,0-3.21,2.28v7.34Z"/><path class="cls-3" d="M198.1,354l1.33-1.7,0,0a6,6,0,0,1-1.3-4.06,6.11,6.11,0,0,1,1.43-4.27,5,5,0,0,1,3.88-1.57,5.45,5.45,0,0,1,3.12.87l.7-.87h1.49L207.4,344l0,0a6.32,6.32,0,0,1,1.3,4.07,6.11,6.11,0,0,1-1.42,4.26,5,5,0,0,1-3.88,1.58,5.53,5.53,0,0,1-3.11-.87l-.69.87Zm2.59-3.32,4.75-6a2.84,2.84,0,0,0-2-.76q-3.18,0-3.18,4.25A6.73,6.73,0,0,0,200.69,350.63Zm5.45-5-4.75,6.06a2.79,2.79,0,0,0,2,.75q3.2,0,3.19-4.26A7.18,7.18,0,0,0,206.14,345.62Z"/><path class="cls-3" d="M214.19,353.69l-4.14-11.14h2l3.24,8.67,3.41-8.67h1.89l-4.4,11.14Z"/><path class="cls-3" d="M229.4,353.69V337.5h2v16.19Z"/><path class="cls-3" d="M235.47,340.54v-2h2v2Zm0,13.15V342.55h2v11.14Z"/><path class="cls-3" d="M241.58,357.39l.23-1.75a8.09,8.09,0,0,0,3.46.83q3.4,0,3.41-3.62V351.1a3.78,3.78,0,0,1-3.67,2.33,3.89,3.89,0,0,1-3.18-1.45,6.1,6.1,0,0,1-1.18-3.93,6.19,6.19,0,0,1,1.35-4.14,4.3,4.3,0,0,1,3.47-1.6,4.11,4.11,0,0,1,3.21,1.52v-1.28h2v8.11a20.15,20.15,0,0,1-.27,3.87,4.23,4.23,0,0,1-1,2.05,5.38,5.38,0,0,1-4.11,1.41A11.61,11.61,0,0,1,241.58,357.39Zm7.1-7.55v-4.63a4,4,0,0,0-2.9-1.38,2.52,2.52,0,0,0-2.18,1.11,5.23,5.23,0,0,0-.79,3.07q0,3.66,2.57,3.66A4.36,4.36,0,0,0,248.68,349.84Z"/><path class="cls-3" d="M262.79,353.33a12.31,12.31,0,0,1-3.47.62,5.31,5.31,0,0,1-4-1.64,5.92,5.92,0,0,1-1.55-4.24,6.22,6.22,0,0,1,1.37-4.15,4.38,4.38,0,0,1,3.5-1.62,3.71,3.71,0,0,1,3.12,1.43,6.57,6.57,0,0,1,1.1,4.09v.62h-7q.44,4,3.89,4a9.28,9.28,0,0,0,3.09-.68Zm-6.89-6.41h4.91c0-2.07-.77-3.1-2.31-3.1S256.08,344.85,255.9,346.92Z"/><path class="cls-3" d="M278.72,352.28a5.33,5.33,0,0,1-3.5,1.67,3.21,3.21,0,0,1-2.3-.87,2.89,2.89,0,0,1-.91-2.19,3.12,3.12,0,0,1,1.53-2.8,8.15,8.15,0,0,1,4.4-1h.48v-1.35a1.73,1.73,0,0,0-2-1.93,7.4,7.4,0,0,0-3.46,1v-1.67a10.27,10.27,0,0,1,3.83-.83,3.88,3.88,0,0,1,2.75.84,3.45,3.45,0,0,1,.89,2.61v5.05c0,1.15.35,1.73,1.07,1.73a2.51,2.51,0,0,0,.39,0l.14,1.12a3.46,3.46,0,0,1-1.52.33C279.58,354,279,353.39,278.72,352.28Zm-.3-1.1V348.3l-.68,0a5.06,5.06,0,0,0-2.68.63,1.88,1.88,0,0,0-1,1.65,1.64,1.64,0,0,0,.51,1.23,1.72,1.72,0,0,0,1.25.51A4.23,4.23,0,0,0,278.42,351.18Z"/><path class="cls-3" d="M287.91,354a3.21,3.21,0,0,1-2.39-.88,3.35,3.35,0,0,1-.87-2.45v-6.55h-1.39v-1.52h1.39v-2l2-.2v2.21h2.92v1.52h-2.92v6.18c0,1.45.63,2.18,1.89,2.18a4.91,4.91,0,0,0,1-.13v1.39A6.28,6.28,0,0,1,287.91,354Z"/><path class="cls-3" d="M83.67,378.89V376.8A4,4,0,0,1,80,379.15a3.82,3.82,0,0,1-3.17-1.47,6.31,6.31,0,0,1-1.15-4A7.07,7.07,0,0,1,77,369.2a4.32,4.32,0,0,1,6.72-.17V362.7h2v16.19Zm0-8.48a4.65,4.65,0,0,0-3-1.38q-2.89,0-2.9,4.44,0,3.9,2.59,3.9a4.51,4.51,0,0,0,3.29-1.83Z"/><path class="cls-3" d="M90.38,382.94l1.81-4.05-4.31-11.13h2.19l3.18,8.38,3.41-8.38h1.91l-6.08,15.18Z"/><path class="cls-3" d="M100.71,378.89V367.76h2v2.09a3.77,3.77,0,0,1,3.49-2.34,4.85,4.85,0,0,1,.64.05v1.89a2.86,2.86,0,0,0-.92-.18q-1.92,0-3.21,2.28v7.34Z"/><path class="cls-3" d="M109.3,378.89V362.7h2v10.46l4.72-5.4h2.17l-4.5,5.19,5.44,5.94h-2.59l-5.24-5.71v5.71Z"/><path class="cls-3" d="M135.37,378.89V376.8a4,4,0,0,1-3.71,2.35,3.82,3.82,0,0,1-3.17-1.47,6.31,6.31,0,0,1-1.15-4,7.07,7.07,0,0,1,1.31-4.47,4.32,4.32,0,0,1,6.72-.17V362.7h2v16.19Zm0-8.48a4.65,4.65,0,0,0-3-1.38q-2.89,0-2.9,4.44,0,3.9,2.59,3.9a4.51,4.51,0,0,0,3.29-1.83Z"/><path class="cls-3" d="M149.6,378.53a12.31,12.31,0,0,1-3.48.62,5.29,5.29,0,0,1-4-1.64,5.88,5.88,0,0,1-1.55-4.24,6.21,6.21,0,0,1,1.36-4.15,4.39,4.39,0,0,1,3.51-1.62,3.73,3.73,0,0,1,3.12,1.43,6.64,6.64,0,0,1,1.1,4.09v.62h-7c.29,2.65,1.59,4,3.88,4a9.33,9.33,0,0,0,3.1-.68Zm-6.89-6.41h4.91c0-2.07-.77-3.1-2.32-3.1S142.89,370.05,142.71,372.12Z"/><path class="cls-3" d="M156.48,379.15a3.22,3.22,0,0,1-2.4-.88,3.4,3.4,0,0,1-.86-2.46v-6.54h-1.4v-1.51h1.4v-2l2-.2v2.22h2.91v1.51h-2.91v6.18c0,1.45.63,2.18,1.89,2.18a4.33,4.33,0,0,0,1-.13v1.39A6.28,6.28,0,0,1,156.48,379.15Z"/><path class="cls-3" d="M167.64,378.89V362.7h2v7.15a4.65,4.65,0,0,1,3.91-2.34,3,3,0,0,1,2.31.92,3.46,3.46,0,0,1,.86,2.46v8h-2v-7.34a3.25,3.25,0,0,0-.36-1.77,1.38,1.38,0,0,0-1.21-.53c-1.23,0-2.4.81-3.49,2.43v7.21Z"/><path class="cls-3" d="M188.83,378.53a12.31,12.31,0,0,1-3.48.62,5.29,5.29,0,0,1-4-1.64,5.92,5.92,0,0,1-1.55-4.24,6.16,6.16,0,0,1,1.37-4.15,4.38,4.38,0,0,1,3.5-1.62,3.73,3.73,0,0,1,3.12,1.43,6.64,6.64,0,0,1,1.1,4.09v.62h-7c.29,2.65,1.59,4,3.88,4a9.28,9.28,0,0,0,3.1-.68Zm-6.89-6.41h4.91c0-2.07-.77-3.1-2.32-3.1S182.12,370.05,181.94,372.12Z"/><path class="cls-3" d="M192.37,378.89V367.76h2v2.09a3.77,3.77,0,0,1,3.49-2.34,4.85,4.85,0,0,1,.64.05v1.89a2.91,2.91,0,0,0-.92-.18q-1.92,0-3.21,2.28v7.34Z"/><path class="cls-3" d="M207.61,379V362.7h2v7.15a4,4,0,0,1,3.72-2.34,3.8,3.8,0,0,1,3.16,1.47,6.28,6.28,0,0,1,1.16,4,7.13,7.13,0,0,1-1.31,4.47,4.33,4.33,0,0,1-6.73.18l-.25,1.38Zm2-2.77a4.58,4.58,0,0,0,3,1.39q2.91,0,2.91-4.44,0-3.92-2.58-3.92a4.47,4.47,0,0,0-3.3,1.84Z"/><path class="cls-3" d="M220.82,365.74v-2h2v2Zm0,13.15V367.76h2v11.13Z"/><path class="cls-3" d="M226.89,378.89V362.7h2v16.19Z"/><path class="cls-3" d="M233,378.89V362.7h2v16.19Z"/><path class="cls-3" d="M247.2,378.53a12.43,12.43,0,0,1-3.48.62,5.28,5.28,0,0,1-4-1.64,5.88,5.88,0,0,1-1.56-4.24,6.22,6.22,0,0,1,1.37-4.15,4.38,4.38,0,0,1,3.5-1.62,3.74,3.74,0,0,1,3.13,1.43,6.64,6.64,0,0,1,1.1,4.09v.62h-7c.3,2.65,1.59,4,3.89,4a9.38,9.38,0,0,0,3.1-.68Zm-6.89-6.41h4.91c0-2.07-.78-3.1-2.32-3.1S240.48,370.05,240.31,372.12Z"/><path class="cls-3" d="M257.88,378.89V376.8a4,4,0,0,1-3.71,2.35,3.78,3.78,0,0,1-3.16-1.47,6.31,6.31,0,0,1-1.16-4,7.13,7.13,0,0,1,1.31-4.47,4.32,4.32,0,0,1,6.72-.17V362.7h2v16.19Zm0-8.48a4.65,4.65,0,0,0-3-1.38c-1.94,0-2.9,1.48-2.9,4.44q0,3.9,2.58,3.9a4.49,4.49,0,0,0,3.29-1.83Z"/><path class="cls-3" d="M272.11,378.53a12.31,12.31,0,0,1-3.47.62,5.31,5.31,0,0,1-4-1.64,5.92,5.92,0,0,1-1.55-4.24,6.22,6.22,0,0,1,1.37-4.15,4.38,4.38,0,0,1,3.5-1.62,3.71,3.71,0,0,1,3.12,1.43,6.57,6.57,0,0,1,1.1,4.09v.62h-7q.44,4,3.89,4a9.28,9.28,0,0,0,3.09-.68Zm-6.89-6.41h4.91c0-2.07-.77-3.1-2.31-3.1S265.4,370.05,265.22,372.12Z"/><path class="cls-3" d="M79.43,404.47a14.82,14.82,0,0,1-3.9-.67v-2.13a10.61,10.61,0,0,0,4.21,1.19,3,3,0,0,0,2.05-.67,2.2,2.2,0,0,0,.77-1.75,2.35,2.35,0,0,0-.51-1.52,6.82,6.82,0,0,0-1.87-1.39l-1.05-.61a9.77,9.77,0,0,1-2.73-2.08,3.54,3.54,0,0,1-.79-2.29,3.68,3.68,0,0,1,1.27-2.88,4.67,4.67,0,0,1,3.24-1.13,12.85,12.85,0,0,1,3.7.58v2a11,11,0,0,0-3.58-.94,2.78,2.78,0,0,0-1.84.59,1.86,1.86,0,0,0-.73,1.5,2,2,0,0,0,.53,1.34,8.37,8.37,0,0,0,2,1.39l1.09.62A9.43,9.43,0,0,1,84,397.7a3.77,3.77,0,0,1,.78,2.39,3.89,3.89,0,0,1-1.46,3.18A5.89,5.89,0,0,1,79.43,404.47Z"/><path class="cls-3" d="M92.19,404.35a4.89,4.89,0,0,1-3.82-1.59,7,7,0,0,1,0-8.49,5.61,5.61,0,0,1,7.76,0,6.05,6.05,0,0,1,1.43,4.23,6.12,6.12,0,0,1-1.43,4.29A5.11,5.11,0,0,1,92.19,404.35Zm0-1.52q3.21,0,3.21-4.33t-3.17-4.27q-3.17,0-3.16,4.29T92.22,402.83Z"/><path class="cls-3" d="M103.14,394.47v9.62h-2v-9.62H99.53V393h1.58v-1.34q0-4,3.63-4a9.55,9.55,0,0,1,2.31.34v1.6a7.89,7.89,0,0,0-2.19-.42,1.63,1.63,0,0,0-1.36.48,3.09,3.09,0,0,0-.36,1.77V393h2.78v1.51Z"/><path class="cls-3" d="M108.45,390.94v-2h2v2Zm0,13.15V393h2v11.13Z"/><path class="cls-3" d="M122.68,403.73a12.31,12.31,0,0,1-3.47.62,5.31,5.31,0,0,1-4-1.64,5.92,5.92,0,0,1-1.55-4.24,6.22,6.22,0,0,1,1.37-4.15,4.38,4.38,0,0,1,3.5-1.62,3.71,3.71,0,0,1,3.12,1.43,6.56,6.56,0,0,1,1.1,4.08v.63h-7q.43,4,3.89,4a9.28,9.28,0,0,0,3.09-.68Zm-6.89-6.41h4.91c0-2.07-.77-3.1-2.31-3.1S116,395.25,115.79,397.32Z"/><path class="cls-3" d="M132.87,404.09V387.9h2v16.19Z"/><path class="cls-3" d="M138.94,390.94v-2h2v2Zm0,13.15V393h2v11.13Z"/><path class="cls-3" d="M145.05,407.79l.23-1.75a8.09,8.09,0,0,0,3.46.83q3.4,0,3.41-3.62V401.5a3.8,3.8,0,0,1-3.67,2.33,3.89,3.89,0,0,1-3.18-1.45,6.1,6.1,0,0,1-1.18-3.93,6.21,6.21,0,0,1,1.35-4.14,4.3,4.3,0,0,1,3.47-1.6,4.11,4.11,0,0,1,3.21,1.52V393h2v8.1a20.15,20.15,0,0,1-.27,3.87,4.23,4.23,0,0,1-1,2.05,5.38,5.38,0,0,1-4.11,1.41A11.61,11.61,0,0,1,145.05,407.79Zm7.1-7.55v-4.63a4,4,0,0,0-2.9-1.38,2.52,2.52,0,0,0-2.18,1.11,5.23,5.23,0,0,0-.79,3.07q0,3.66,2.57,3.66A4.36,4.36,0,0,0,152.15,400.24Z"/><path class="cls-3" d="M166.26,403.73a12.31,12.31,0,0,1-3.47.62,5.31,5.31,0,0,1-4-1.64,5.92,5.92,0,0,1-1.55-4.24,6.16,6.16,0,0,1,1.37-4.15,4.38,4.38,0,0,1,3.5-1.62,3.71,3.71,0,0,1,3.12,1.43,6.56,6.56,0,0,1,1.1,4.08v.63h-7q.43,4,3.89,4a9.28,9.28,0,0,0,3.09-.68Zm-6.89-6.41h4.91c0-2.07-.77-3.1-2.31-3.1S159.55,395.25,159.37,397.32Z"/><path class="cls-3" d="M176.44,404.09V387.9h2v7.15a4.68,4.68,0,0,1,3.92-2.34,3,3,0,0,1,2.31.92,3.46,3.46,0,0,1,.86,2.46v8h-2v-7.34a3.25,3.25,0,0,0-.36-1.77,1.38,1.38,0,0,0-1.21-.53c-1.24,0-2.4.81-3.5,2.43v7.21Z"/><path class="cls-3" d="M195.22,402.68a5.33,5.33,0,0,1-3.5,1.67,3.17,3.17,0,0,1-2.29-.87,2.9,2.9,0,0,1-.92-2.19,3.11,3.11,0,0,1,1.54-2.8,8.09,8.09,0,0,1,4.39-1h.48v-1.35a1.73,1.73,0,0,0-2-1.93,7.36,7.36,0,0,0-3.45,1v-1.67a10.22,10.22,0,0,1,3.82-.83,3.87,3.87,0,0,1,2.75.84,3.41,3.41,0,0,1,.89,2.61v5c0,1.16.36,1.73,1.07,1.73a2.31,2.31,0,0,0,.39,0l.14,1.12a3.46,3.46,0,0,1-1.52.33C196.08,404.35,195.48,403.79,195.22,402.68Zm-.3-1.1V398.7l-.67,0a5.08,5.08,0,0,0-2.69.63,1.89,1.89,0,0,0-1,1.65,1.62,1.62,0,0,0,.52,1.23,1.69,1.69,0,0,0,1.25.51A4.23,4.23,0,0,0,194.92,401.58Z"/><path class="cls-3" d="M201.07,404.09V393h2v2.09a3.78,3.78,0,0,1,3.49-2.34,5,5,0,0,1,.65.05v1.89a2.92,2.92,0,0,0-.93-.18q-1.91,0-3.21,2.28v7.34Z"/><path class="cls-3" d="M219.26,404.35a11.22,11.22,0,0,1-3.36-.65v-1.85a8.07,8.07,0,0,0,3.45,1,2.21,2.21,0,0,0,1.44-.47,1.46,1.46,0,0,0,.58-1.18c0-.69-.54-1.26-1.61-1.71l-1.18-.51c-1.75-.72-2.62-1.76-2.62-3.12a2.83,2.83,0,0,1,1-2.3,4.42,4.42,0,0,1,2.83-.83,13,13,0,0,1,2.31.25l.42.09v1.68a9.89,9.89,0,0,0-2.69-.5q-2,0-2,1.41c0,.61.49,1.12,1.48,1.54l1,.41a6.46,6.46,0,0,1,2.34,1.47,2.8,2.8,0,0,1,.69,1.93,3,3,0,0,1-1.16,2.41A4.54,4.54,0,0,1,219.26,404.35Z"/><path class="cls-3" d="M235.18,403.73a12.31,12.31,0,0,1-3.48.62,5.28,5.28,0,0,1-4-1.64,5.88,5.88,0,0,1-1.56-4.24,6.22,6.22,0,0,1,1.37-4.15A4.39,4.39,0,0,1,231,392.7a3.73,3.73,0,0,1,3.12,1.43,6.62,6.62,0,0,1,1.1,4.08v.63h-7c.29,2.65,1.59,4,3.88,4a9.33,9.33,0,0,0,3.1-.68Zm-6.89-6.41h4.91c0-2.07-.77-3.1-2.32-3.1S228.47,395.25,228.29,397.32Z"/><path class="cls-3" d="M238.72,404.09V393h2v2.09a4.65,4.65,0,0,1,3.91-2.34,3,3,0,0,1,2.31.92,3.46,3.46,0,0,1,.86,2.46v8h-2v-7.34a3.25,3.25,0,0,0-.36-1.77,1.38,1.38,0,0,0-1.21-.53c-1.23,0-2.4.81-3.49,2.43v7.21Z"/><path class="cls-3" d="M258.9,404.09V402a4,4,0,0,1-3.72,2.35,3.8,3.8,0,0,1-3.16-1.47,6.31,6.31,0,0,1-1.15-4,7.13,7.13,0,0,1,1.3-4.47,4.33,4.33,0,0,1,6.73-.17V387.9h2v16.19Zm0-8.48a4.65,4.65,0,0,0-3-1.38q-2.89,0-2.9,4.44,0,3.9,2.58,3.9a4.51,4.51,0,0,0,3.3-1.83Z"/><path class="cls-3" d="M268.31,404.35a3.18,3.18,0,0,1-2.4-.89,3.35,3.35,0,0,1-.86-2.45v-6.54h-1.4V393h1.4v-2l2-.2V393H270v1.51h-2.91v6.18c0,1.45.63,2.18,1.89,2.18a4.33,4.33,0,0,0,1-.13v1.39A6.28,6.28,0,0,1,268.31,404.35Z"/><path class="cls-3" d="M76.52,429.29V418.16h2v2.09a4.37,4.37,0,0,1,3.79-2.34,3.05,3.05,0,0,1,3,2.34,4.26,4.26,0,0,1,3.73-2.35,3,3,0,0,1,2.29.87,3.39,3.39,0,0,1,.81,2.42v8.1h-2v-7.78c0-1.27-.5-1.91-1.51-1.91s-2.14.74-3.29,2.23v7.46h-2v-7.78c0-1.28-.51-1.92-1.54-1.92s-2.11.75-3.27,2.24v7.46Z"/><path class="cls-3" d="M96.13,416.13v-2h2v2Zm0,13.16V418.16h2v11.13Z"/><path class="cls-3" d="M102.24,433l.23-1.75a8.09,8.09,0,0,0,3.46.83q3.41,0,3.41-3.62V426.7a3.79,3.79,0,0,1-3.67,2.34,3.89,3.89,0,0,1-3.18-1.46,6.1,6.1,0,0,1-1.18-3.93,6.21,6.21,0,0,1,1.35-4.14,4.3,4.3,0,0,1,3.47-1.6,4.14,4.14,0,0,1,3.21,1.52v-1.27h2v8.1a20.15,20.15,0,0,1-.27,3.87,4.23,4.23,0,0,1-1,2.05,5.38,5.38,0,0,1-4.11,1.41A11.61,11.61,0,0,1,102.24,433Zm7.1-7.55v-4.63a4,4,0,0,0-2.9-1.38,2.52,2.52,0,0,0-2.18,1.11,5.23,5.23,0,0,0-.79,3.07q0,3.66,2.57,3.66A4.36,4.36,0,0,0,109.34,425.44Z"/><path class="cls-3" d="M115.83,425.24l-.25-8.09v-3h2v3l-.25,8.09Zm-.25,4.05v-2h2v2Z"/><path class="cls-3" d="M135.54,429.29V427.2a4.67,4.67,0,0,1-3.91,2.35,3,3,0,0,1-2.31-.92,3.45,3.45,0,0,1-.86-2.48v-8h2v7.34a3.32,3.32,0,0,0,.36,1.78,1.37,1.37,0,0,0,1.22.52q1.84,0,3.48-2.43v-7.21h2v11.13Z"/><path class="cls-3" d="M144.66,433.07v-1.6a6.13,6.13,0,0,0,2.15.6,1.59,1.59,0,0,0,1.42-.55,4.78,4.78,0,0,0,.34-2.23V418.16h2v11.13q0,4.31-3.63,4.3A5.93,5.93,0,0,1,144.66,433.07Zm3.91-16.94v-2h2v2Z"/><path class="cls-3" d="M162.81,428.93a12.43,12.43,0,0,1-3.48.62,5.28,5.28,0,0,1-4-1.64,5.88,5.88,0,0,1-1.56-4.24,6.22,6.22,0,0,1,1.37-4.15,4.38,4.38,0,0,1,3.5-1.62,3.74,3.74,0,0,1,3.13,1.43,6.64,6.64,0,0,1,1.1,4.09V424h-7c.3,2.65,1.59,4,3.89,4a9.38,9.38,0,0,0,3.1-.68Zm-6.89-6.41h4.91c0-2.07-.77-3.1-2.32-3.1S156.09,420.45,155.92,422.52Z"/><path class="cls-3" d="M166.34,429.29V413.1h2v16.19Z"/><path class="cls-3" d="M172.41,429.29V413.1h2v16.19Z"/><path class="cls-3" d="M179.13,433.34l1.81-4-4.31-11.13h2.18l3.19,8.38,3.41-8.38h1.9l-6.08,15.18Z"/><path class="cls-3" d="M190,425.24v-.55a5.46,5.46,0,0,1,1.51-3.68l.64-.75a5.2,5.2,0,0,0,1.61-3,1.69,1.69,0,0,0-.7-1.44,3.09,3.09,0,0,0-1.91-.54,8.51,8.51,0,0,0-3.33.76V414.3a12.29,12.29,0,0,1,3.54-.57,5.4,5.4,0,0,1,3.33.93,3,3,0,0,1,1.23,2.54,3.14,3.14,0,0,1-.36,1.55,7,7,0,0,1-1.36,1.61l-.63.6a5.77,5.77,0,0,0-1.25,1.51,3.72,3.72,0,0,0-.3,1.64v1.13Zm0,4.05v-2h2v2Z"/><rect class="cls-14" x="65.5" y="448.5" width="195" height="291" rx="12"/><path class="cls-14" d="M260.5,460.5v267c0,6.6-4.25,12-9.44,12H74.94c-5.19,0-9.44-5.4-9.44-12v-267c0-6.6,4.25-12,9.44-12H251.06C256.25,448.5,260.5,453.9,260.5,460.5Z"/><path class="cls-14" d="M75.77,322.25l-3.64-9.5h0c.06.76.1,1.65.1,2.68v6.82H71V311.54H72.9l3.39,8.83h.06l3.42-8.83h1.86v10.71H80.39v-6.9c0-.79,0-1.65.1-2.58h-.06l-3.66,9.48Z"/><path class="cls-14" d="M84.28,312a.81.81,0,0,1,.21-.61.72.72,0,0,1,.51-.19.69.69,0,0,1,.51.2.78.78,0,0,1,.21.6.83.83,0,0,1-.21.62.75.75,0,0,1-1,0A.83.83,0,0,1,84.28,312Zm1.32,10.21H84.39v-8H85.6Z"/><path class="cls-14" d="M89.38,318.14a14.91,14.91,0,0,1,1-1.18l2.59-2.74h1.45l-3.25,3.42,3.47,4.61H93.13l-2.83-3.8-.92.79v3h-1.2v-11.4h1.2v6c0,.27,0,.69-.06,1.25Z"/><path class="cls-14" d="M97.26,318.14a14.91,14.91,0,0,1,1-1.18l2.59-2.74h1.44L99,317.64l3.48,4.61H101l-2.84-3.8-.91.79v3H96.05v-11.4h1.21v6c0,.27,0,.69-.06,1.25Z"/><path class="cls-14" d="M107.32,322.39a3.7,3.7,0,0,1-2.81-1.08,4.18,4.18,0,0,1-1-3,4.66,4.66,0,0,1,1-3.09,3.16,3.16,0,0,1,2.56-1.14,3,3,0,0,1,2.39,1,3.81,3.81,0,0,1,.88,2.62v.77h-5.53a3.19,3.19,0,0,0,.72,2.15,2.44,2.44,0,0,0,1.9.73,6.52,6.52,0,0,0,2.57-.54v1.08a6.18,6.18,0,0,1-1.22.4A7,7,0,0,1,107.32,322.39Zm-.33-7.3a2,2,0,0,0-1.54.63,2.87,2.87,0,0,0-.68,1.74H109a2.64,2.64,0,0,0-.52-1.76A1.79,1.79,0,0,0,107,315.09Z"/><path class="cls-14" d="M113.56,322.25h-1.22v-11.4h1.22Z"/></g><g id="Selfier"><path class="cls-15" d="M219.5,548.93c1.74-1.52,3.51-3,5.3-4.43,2.71-2.17,5.48-4.27,8.32-6.25l.12-.08,0-.14c.76-4.86,1.68-9.7,2.82-14.48.58-2.39,1.21-4.77,2-7.09.38-1.17.79-2.32,1.25-3.45a20.74,20.74,0,0,1,1.62-3.23,30.65,30.65,0,0,1,2.13-2.95c.76-.95,1.56-1.87,2.39-2.78s1.65-1.81,2.5-2.69l2.55-2.67c1.72-1.77,3.41-3.57,5-5.44.41-.46.8-.93,1.2-1.41s.77-1,1.13-1.48a18,18,0,0,0,1.93-3.17q-.31,9.75-.42,19.5c-.05,3.25-.06,6.5-.09,9.75l0,9.75,0,9.75c0,3.25,0,6.5.09,9.75q.11,9.76.42,19.5c-1.71,1.77-3.41,3.54-5.16,5.27s-3.49,3.45-5.25,5.16c-3.54,3.4-7.12,6.75-10.83,10-1.84,1.62-3.73,3.18-5.63,4.72s-3.87,3-5.85,4.44-4,2.79-6.12,4a53.89,53.89,0,0,1-5.29,2.85c.29-.5.57-1,.85-1.53.59-1.11,1.18-2.22,1.73-3.35,1.12-2.25,2.18-4.54,3.09-6.88-1.31,2.14-2.58,4.31-3.83,6.48s-2.51,4.34-3.78,6.5-2.55,4.3-3.89,6.41c-.67,1-1.36,2.09-2.09,3.1a21.9,21.9,0,0,1-2.37,2.9,16.13,16.13,0,0,0,2.79-2.56c.84-1,1.63-1.94,2.37-3s1.45-2.07,2.14-3.12,1.34-2.14,2-3.23l.91-1.58.13-.06a50.61,50.61,0,0,0,5.51-2.51l0,0c-.25,1.84-.54,3.67-.94,5.48a56.2,56.2,0,0,1-1.7,6c-.32,1-.69,1.94-1,2.91l-1.16,2.87-1.26,2.84-1.34,2.79c-1.87,3.69-3.81,7.34-5.9,10.91-1,1.8-2.12,3.56-3.17,5.34l-3.29,5.27-1.59,2.7-.8,1.34-.39.68-.36.69-1.43,2.78-.71,1.39-.63,1.44-1.25,2.86c-.39,1-.73,2-1.1,2.94l-.54,1.46c-.18.49-.31,1-.47,1.5l-.89,3a72.56,72.56,0,0,0-2.13,12.31l-.1,1.56c0,.51,0,1,0,1.56s0,1,0,1.56l0,1.56a35.69,35.69,0,0,0,.72,6.18,36.1,36.1,0,0,1,5.85,4.2,47.59,47.59,0,0,1,5,5.15,70.07,70.07,0,0,1,8,11.93,111.7,111.7,0,0,1,6,13.06q1.29,3.36,2.39,6.78c.67,2.07,1.31,4.16,1.87,6.25l-30.12,0q-15.4,0-30.8.1l-30.79.14-8.53.07v0c-.18-.6-.39-1.17-.58-1.75l-.32-1c-.11-.32-.22-.63-.31-1q-.61-1.92-1.11-3.84c-.32-1.29-.59-2.59-.82-3.9a37.54,37.54,0,0,1-.43-4,12.8,12.8,0,0,0-.41,4.09,21.48,21.48,0,0,0,.6,4.08c.19.67.36,1.33.6,2a18.48,18.48,0,0,0,.78,1.9,19.63,19.63,0,0,0,.93,1.83c.32.53.66,1,1,1.55L96.46,739c-.25-1.64-.43-3.28-.54-4.93a49.51,49.51,0,0,1,0-5.31,52.74,52.74,0,0,1,1.48-10.47,56.38,56.38,0,0,1,3.49-10,50.56,50.56,0,0,1,2.45-4.67q.67-1.14,1.41-2.22c.25-.36.5-.71.77-1.06.12-.16.25-.32.38-.47l5.26,7.66-4.77-8.88h0a26.22,26.22,0,0,1-3-6.25,44.07,44.07,0,0,1-1.78-6.91c-.41-2.35-.68-4.73-.87-7.12s-.24-4.79-.25-7.19a141.6,141.6,0,0,1,.73-14.41c.45-4.63,1.06-9.26,1.86-13.85a4.65,4.65,0,0,0,.52.2,11.12,11.12,0,0,0,2.52.65,13.23,13.23,0,0,0,2.59.13,15.53,15.53,0,0,0,2.55-.38,19.45,19.45,0,0,0,4.74-1.88,29.17,29.17,0,0,0,4.21-2.82,35.11,35.11,0,0,1-4.34,2.57A19.94,19.94,0,0,1,111,643a14.58,14.58,0,0,1-2.46.27,12.53,12.53,0,0,1-2.45-.2,11.74,11.74,0,0,1-2.35-.68c-.39-.14-.75-.33-1.12-.5s-.72-.39-1.06-.62A21,21,0,0,1,95,634,14.7,14.7,0,0,1,93,625.82a17.73,17.73,0,0,0,2.3,1.73,10.2,10.2,0,0,0,3,1.32,4.55,4.55,0,0,0,1.69.12,2.87,2.87,0,0,0,1.6-.73,3.52,3.52,0,0,0,1-1.45,7.63,7.63,0,0,0,.26-.81c0-.27.11-.54.15-.82a8.34,8.34,0,0,0,.05-1.66,4.26,4.26,0,0,0-.43-1.66,3,3,0,0,0-1.21-1.28,4,4,0,0,0-1.63-.5,9.24,9.24,0,0,0-3.24.36,17.64,17.64,0,0,0-2.57,1c.16-.51.34-1,.54-1.51a26.83,26.83,0,0,1,2.27-4.39,28.19,28.19,0,0,1,3.06-3.91,34.43,34.43,0,0,1,3.69-3.34,25.91,25.91,0,0,0,3.74-3.51c.27-.33.56-.65.81-1l.39-.51.35-.54c.25-.35.45-.73.67-1.1s.41-.76.57-1.16a11.82,11.82,0,0,0,1-5,9.55,9.55,0,0,0-1.38-4.85,8.78,8.78,0,0,1,.85,2.36,10.47,10.47,0,0,1,.24,2.49,11.36,11.36,0,0,1-1.22,4.78,16.27,16.27,0,0,1-2.83,4.06,26,26,0,0,1-3.72,3.3A30.71,30.71,0,0,0,98,612.12c0-1.9,0-3.79,0-5.68s.07-3.94.16-5.91c.16-3.94.43-7.87.69-11.81l.19-3c.07-1,.1-2,.2-2.94a19.21,19.21,0,0,1,1.35-5.59,20.56,20.56,0,0,1,7.11-8.89,21.79,21.79,0,0,1,5.09-2.7,22.48,22.48,0,0,1,5.62-1.28,23.33,23.33,0,0,1,5.78.16,26.63,26.63,0,0,1,5.6,1.5l1.38.53.7.27.71.24.72.23.73.19c.24.06.48.13.73.18l.74.13.37.07.38,0,.75.08c.25,0,.51,0,.76,0h.38l.38,0c.25,0,.51,0,.76-.07l.75-.12.74-.2c.25-.06.48-.17.72-.25A8.11,8.11,0,0,0,144,565.7a9.85,9.85,0,0,0,1.8-2.41,14,14,0,0,0,1.41-4.67l.18.24a11.15,11.15,0,0,0,.93,1.11,12.42,12.42,0,0,0,2.21,1.88,12.69,12.69,0,0,0,5.38,2,13.4,13.4,0,0,0,2.9,0,19.32,19.32,0,0,0,2.82-.48,19.88,19.88,0,0,0,5.25-2.2c.81-.49,1.59-1,2.34-1.6s1.47-1.12,2.22-1.67l4.47-3.29c3-2.2,6-4.42,8.76-6.91a47.37,47.37,0,0,0,3.91-4c.47-.54.92-1.1,1.35-1.67l-.39.76c-.35.69-.7,1.38-1,2.07l-.91,2.14a20.29,20.29,0,0,0-.81,2.18c-.25.73-.52,1.46-.7,2.22l-.29,1.13a10.88,10.88,0,0,0-.26,1.13l-.21,1.15c-.06.39-.16.76-.19,1.15l-.11,1.17a11.11,11.11,0,0,0-.08,1.16l0,1.17v.59l0,.58.08,1.17c0,.39.1.77.16,1.16l.09.57c0,.2.09.38.13.57.09.38.17.77.28,1.14a15.81,15.81,0,0,0,1.78,4h0a37.7,37.7,0,0,0-3.52,4.17c1.89-1.86,3.84-3.63,5.87-5.29a67.88,67.88,0,0,1,6.34-4.66c1.1-.71,2.21-1.4,3.36-2,.57-.34,1.15-.62,1.74-.91l.88-.44.89-.39a34.16,34.16,0,0,1,7.33-2.31l-.9,1.05a48.87,48.87,0,0,0-3.1,4.2,27,27,0,0,0-2.46,4.59,36.43,36.43,0,0,1,5.73-8.65,86.53,86.53,0,0,1,7.25-7.46C217.75,550.47,218.62,549.7,219.5,548.93ZM193,607.64l-1.13,5.82-.72,2.86-.36,1.44c-.06.24-.12.48-.19.71l-.22.71c-.6,1.87-1.1,3.78-1.85,5.59l-.53,1.38c-.18.46-.33.93-.54,1.37l-1.23,2.67a51.67,51.67,0,0,1-6.22,9.92l-.94,1.12c-.3.38-.66.72-1,1.08s-.66.71-1,1l-1.07,1a24.57,24.57,0,0,1-4.7,3.35c-.21.12-.42.21-.62.3l-.7.29-1.36.56-1.35.55-1.39.45c-.91.34-1.87.53-2.81.78l-.35.08-.36.07-.71.12L161,651l-.36.06-.36,0-1.45.13c-.48,0-1,0-1.44,0h-.73l-.72-.06-.72-.06-.36,0-.35-.06-1.43-.26-1.39-.38a19.52,19.52,0,0,1-2.69-1.06,23.49,23.49,0,0,1-8.7-7.61A36.56,36.56,0,0,1,135,631.23a33.11,33.11,0,0,0,2,5.59,35.73,35.73,0,0,0,2.88,5.21,24.12,24.12,0,0,0,8.77,8,18.62,18.62,0,0,0,5.72,1.9l.38.07.38,0,.75.08.75.07h.76c.5,0,1,0,1.51,0l1.51-.12.38,0,.37-.05.75-.12.74-.13.37-.06.37-.09c1-.25,2-.44,2.9-.78l1.43-.47,1.39-.55,1.39-.56.67-.28a5.85,5.85,0,0,0,.71-.34,25.44,25.44,0,0,0,4.92-3.52l1.1-1c.36-.35.69-.72,1-1.08s.7-.72,1-1.11l1-1.16A49.71,49.71,0,0,0,187,630.55l1.17-2.74c.21-.45.35-.93.52-1.4l.49-1.4c.72-1.86,1.18-3.79,1.72-5.69l.2-.72c.06-.24.11-.48.16-.73l.3-1.45.6-2.91C192.49,611.56,192.75,609.6,193,607.64ZM170.89,630.5a1.69,1.69,0,0,0,0-.23,3.23,3.23,0,0,0-.53-1.53,4.39,4.39,0,0,0-1.33-1.28,7.07,7.07,0,0,0-7.2-.11,4.45,4.45,0,0,0-1.39,1.31,3.12,3.12,0,0,0,0,3.68,4.45,4.45,0,0,0,1.39,1.31,7.07,7.07,0,0,0,7.2-.11,4.39,4.39,0,0,0,1.33-1.28,3.23,3.23,0,0,0,.53-1.53A1.69,1.69,0,0,0,170.89,630.5Zm-2.41-51.57c2.23-.56,4.49-1,6.77-1.4a69.18,69.18,0,0,0-6.88.88,48.46,48.46,0,0,0-6.76,1.7,24.64,24.64,0,0,0-3.25,1.33l-.79.41-.76.49a10,10,0,0,0-1.43,1.09,18.5,18.5,0,0,0-2.34,2.68c-.35.46-.68.93-1,1.36a5.42,5.42,0,0,1-1.11,1.09,1.56,1.56,0,0,1-1.24.28,3.75,3.75,0,0,1-1.37-.63A16.11,16.11,0,0,1,145.8,586c-.39-.41-.77-.83-1.15-1.26-.18-.21-.39-.43-.6-.65a7.58,7.58,0,0,0-.65-.62,33.51,33.51,0,0,0-2.71-2.21,138.38,138.38,0,0,0-11.52-7.71c1.85,1.39,3.72,2.73,5.55,4.14s3.67,2.79,5.45,4.23c.89.73,1.77,1.47,2.59,2.24a8.14,8.14,0,0,1,.58.6c.19.2.37.4.56.63l1.15,1.32a16.51,16.51,0,0,0,2.65,2.4,4.9,4.9,0,0,0,1.76.8l.26,0H150a2.48,2.48,0,0,0,.54-.06,2.75,2.75,0,0,0,1-.42,6.5,6.5,0,0,0,1.34-1.33c.38-.47.71-.94,1.06-1.4a18.54,18.54,0,0,1,2.18-2.55,17.83,17.83,0,0,1,5.82-3.29A58.69,58.69,0,0,1,168.48,578.93ZM135.34,713.22a12.23,12.23,0,0,0,1.85-7.52l-.1-1a8.47,8.47,0,0,0-.19-1l-.11-.48a3.92,3.92,0,0,0-.13-.49l-.32-.94a6.14,6.14,0,0,0-.38-.92l-.42-.9c-.32-.59-.68-1.14-1-1.71s-.79-1.06-1.19-1.58-.82-1-1.23-1.49-.81-1-1.21-1.48l-1.18-1.52c-.77-1-1.52-2.05-2.21-3.13a16.81,16.81,0,0,1-1-1.65,8.59,8.59,0,0,1-.4-.87,3,3,0,0,1-.24-.92,5.06,5.06,0,0,0,.36,1.91c.11.3.22.61.36.91s.27.59.41.88a32.18,32.18,0,0,0,2,3.36c.71,1.09,1.49,2.13,2.28,3.16.39.5.82,1,1.2,1.51s.76,1,1.12,1.52l0,.05a3.58,3.58,0,0,0-.11.35c-.05.14-.09.29-.13.43-.18.6-.28,1.22-.4,1.83a18.63,18.63,0,0,0-.27,3.74,11.74,11.74,0,0,0,.75,3.74,7,7,0,0,0,.43.87c.09.14.17.28.26.41l.3.38a4.09,4.09,0,0,0,.72.66,2.36,2.36,0,0,0,.51.3l.16.06A13.41,13.41,0,0,1,135.34,713.22Z"/><path class="cls-16" d="M219.34,548.48c-.91.82-1.82,1.65-2.71,2.5-2.18,2.08-4.27,4.24-6.23,6.52h0a23.64,23.64,0,0,0-7.64,1.55l-.95.35-.91.41c-.62.27-1.23.54-1.82.86-1.2.6-2.34,1.3-3.47,2-.55.38-1.11.75-1.65,1.13l-1.61,1.2-1.55,1.27c-.51.43-1,.88-1.49,1.33s-1.2,1.14-1.78,1.74a19.78,19.78,0,0,1-1.3-4.15c-.07-.37-.12-.75-.18-1.12,0-.18-.06-.37-.08-.56l0-.56c0-.38-.07-.75-.09-1.13l0-1.13a33,33,0,0,1,1.34-8.93c.17-.73.42-1.45.66-2.16s.46-1.45.75-2.15l.83-2.12.94-2.08.46-1,.52-1,1-2.05c.33-.69.73-1.34,1.09-2l1.08-2a6.19,6.19,0,0,0,2.33.66,8.28,8.28,0,0,0,1.22,0,7,7,0,0,0,1.22-.18,9.77,9.77,0,0,0,4.35-2.31,3.47,3.47,0,0,0,.45-.41l.44-.44.44-.43c.14-.16.26-.32.39-.48l.78-1,.68-1a21.15,21.15,0,0,0,1.27-2.09c.39-.71.74-1.45,1.07-2.2.24-.56.46-1.13.65-1.72v.54a40.17,40.17,0,0,0,.43,5.46,24.83,24.83,0,0,0,1.42,5.33,24.08,24.08,0,0,0,2.67,4.79c1.05,1.47,2.12,2.89,3,4.42A25,25,0,0,1,219.34,548.48Z"/><path class="cls-16" d="M197.39,471.59a27.56,27.56,0,0,1,2.53,2.54,29.16,29.16,0,0,0-2.15-2.43,13.28,13.28,0,0,1,2.12.82,17,17,0,0,1,2.3,1.33,18.77,18.77,0,0,1,3.86,3.58,24.55,24.55,0,0,1,4.58,9.37,43.76,43.76,0,0,1,1.24,10.46,71,71,0,0,1-.79,10.59c-.45,3.2-.87,6.45-1.12,9.7a2.88,2.88,0,0,0-1.9-1.51,5.12,5.12,0,0,0-2.59.13,11.19,11.19,0,0,0-2.29.92,24,24,0,0,0-4,2.67,1.53,1.53,0,0,1-.67.23,1.1,1.1,0,0,1-.36,0,.85.85,0,0,1-.32-.18h-.15c0-.18,0-.36,0-.54a17.14,17.14,0,0,1,.18-2.48,32.14,32.14,0,0,1,1.06-4.86c.12-.4.24-.8.37-1.19a11.25,11.25,0,0,1,.42-1.15c.08-.19.16-.37.25-.56s.18-.4.26-.6a9.22,9.22,0,0,0,.4-1.26,9.07,9.07,0,0,0-.19-5.26,10.44,10.44,0,0,0-3-4.29,18.48,18.48,0,0,0-2.09-1.52,22.15,22.15,0,0,1-2-1.45,10.61,10.61,0,0,1-3-3.75,6,6,0,0,1-.54-3,3.86,3.86,0,0,1,.06-.49,7.46,7.46,0,0,0,.35-.69,6.27,6.27,0,0,0,.35-1.14,4.27,4.27,0,0,0,.06-1.25,3.86,3.86,0,0,0-.85.92l0,.06a4.88,4.88,0,0,0,.15-1.34,4.61,4.61,0,0,0-.93,1h0a4,4,0,0,0,.21-1,4.48,4.48,0,0,1-.75,1.82,6.08,6.08,0,0,1-.47.66h0a7.86,7.86,0,0,1-.77.87,14.21,14.21,0,0,1-3.23,2.26,31.59,31.59,0,0,1-7.46,2.6,83,83,0,0,1-15.81,1.72l-2,.05h-2c-1.32,0-2.69,0-4,.1a25.07,25.07,0,0,0-7.91,1.89,21.79,21.79,0,0,0-3.58,2,22.89,22.89,0,0,0-3.12,2.6,25,25,0,0,0-4.45,6.36,17.21,17.21,0,0,0-2.33-2.59,6.2,6.2,0,0,0-2.53-1.47,2.53,2.53,0,0,0-1.62.14,3,3,0,0,0-1.21,1,8.16,8.16,0,0,0-1.06,2.75,18.15,18.15,0,0,0-.38,2.83c-.07.94-.1,1.87-.1,2.81s0,1.87.09,2.8v.06a36.91,36.91,0,0,0,.9,3.94,32.68,32.68,0,0,0,1.32,3.83,17.17,17.17,0,0,0,.89,1.83,12,12,0,0,0,1,1.54.09.09,0,0,0,0,0,73.41,73.41,0,0,0-.38,9.84,100.86,100.86,0,0,0,.81,10.42c.46,3.46,1.06,6.9,1.83,10.3a95.85,95.85,0,0,0,2.7,9.58l-.56-.19-.68-.25-.68-.28-1.37-.57a25.13,25.13,0,0,0-11.79-1.91,22.76,22.76,0,0,0-8.6,2.51,14.68,14.68,0,0,1-.08-2.65A19.4,19.4,0,0,1,110,560a20,20,0,0,1,2.35-6,23.41,23.41,0,0,1,4-5,35.08,35.08,0,0,1,3.23-2.71q1.38,4.1,3,8.09c-.93-2.77-1.81-5.56-2.61-8.37.5-.37,1-.72,1.52-1.06q-.8.39-1.59.84c-1.07-3.76-2-7.56-2.73-11.39-.18-.85-.3-1.7-.44-2.55s-.3-1.69-.42-2.55l-.31-2.56-.15-1.28c0-.42-.07-.85-.11-1.28l-.2-2.57c-.06-.86-.06-1.71-.09-2.57-.09-1.72,0-3.43,0-5.14a66.28,66.28,0,0,1,1.28-10.15A47.29,47.29,0,0,1,120,494a41.1,41.1,0,0,1,5.22-8.68,36.51,36.51,0,0,1,3.42-3.72c.31-.29.62-.57.94-.83s.64-.55,1-.81l1-.75c.33-.23.7-.47,1-.65l.08-.05,0,0a93.11,93.11,0,0,1,15.61-10.39l2.1-1,1.05-.51,1.08-.45,2.16-.91c.72-.27,1.46-.52,2.2-.78l1.1-.38c.37-.12.75-.22,1.12-.33l2.25-.63,2.28-.48.58-.13c.19,0,.38-.05.57-.08l1.16-.17a41.41,41.41,0,0,1,9.31-.28,37.63,37.63,0,0,1,9.12,2,40.1,40.1,0,0,1,8.41,4.15,43,43,0,0,1,3.78,2.81Zm-6.24,4.32a23.85,23.85,0,0,0,2.24-3.23,27.7,27.7,0,0,1-2.54,3c-.22.24-.46.47-.69.69s-.45.46-.7.68c-.48.43-1,.88-1.46,1.28a35.45,35.45,0,0,1-6.41,4.28,18.39,18.39,0,0,1-1.73.84l-.88.38-.44.2-.45.16-1.8.65-1.85.51a60.66,60.66,0,0,1-7.61,1.39c-2.57.35-5.17.61-7.76.89s-5.21.58-7.8,1.07a36.83,36.83,0,0,0-7.62,2.11,17.6,17.6,0,0,0-6.5,4.4,19.39,19.39,0,0,1,6.75-3.73,28.51,28.51,0,0,1,3.73-1c1.26-.27,2.54-.49,3.82-.67,2.57-.34,5.15-.59,7.75-.82s5.21-.47,7.82-.81c1.3-.17,2.6-.38,3.9-.62a37.33,37.33,0,0,0,3.87-.89l1.91-.58,1.86-.72.46-.18.46-.22.9-.43a19.63,19.63,0,0,0,1.75-.94,32.25,32.25,0,0,0,9-7.65Zm-42.49-1.61a35.26,35.26,0,0,1,8.81-2.71,34,34,0,0,0-8.95,2.38,41.41,41.41,0,0,0-8.11,4.55,39,39,0,0,0-6.8,6.36,43.33,43.33,0,0,0-5.16,7.77l-.53,1c-.17.34-.35.69-.5,1.06l-.91,2.14c-.3.72-.53,1.46-.8,2.19l-.39,1.1c-.12.37-.22.74-.33,1.12l-.64,2.24-.51,2.27c-.38,1.5-.56,3.05-.81,4.58l-.09.57-.06.58-.12,1.16-.23,2.31c-.08,1.54-.16,3.09-.22,4.64s0,3.09.06,4.63.17,3.09.27,4.63c0-1.54,0-3.08-.08-4.63s.07-3.08.11-4.62.2-3.08.31-4.61l.29-2.3.13-1.14.08-.57.1-.57.4-2.27c.08-.38.12-.76.21-1.13l.26-1.13.52-2.24.65-2.21c.12-.37.22-.74.34-1.1l.39-1.08c.27-.72.5-1.46.8-2.16l.92-2.11a8.91,8.91,0,0,1,.5-1l.52-1a43.28,43.28,0,0,1,5-7.67,40,40,0,0,1,14.55-11Z"/><path class="cls-15" d="M209.18,518.21a5,5,0,0,1,.19,2.15,15.42,15.42,0,0,1-1.24,4.44,29.73,29.73,0,0,1-2.2,4.18l-.62,1-.71.94-.36.46-.39.44-.39.43a5.29,5.29,0,0,1-.41.41,9.86,9.86,0,0,1-3.93,2.42,8.14,8.14,0,0,1-2.3.38,6.91,6.91,0,0,1-2.34-.37c-.45.62-.9,1.25-1.34,1.88l-.66.95c-.22.31-.44.63-.63,1l-1.19,2-.19.32c-.22.28-.45.55-.68.82-.46.55-.93,1.08-1.42,1.61a46.58,46.58,0,0,1-4.06,3.76c-2.83,2.38-5.87,4.49-8.89,6.63-1.52,1.06-3,2.12-4.54,3.21-.76.54-1.51,1.1-2.26,1.64a23.39,23.39,0,0,1-2.26,1.51,19.06,19.06,0,0,1-5,2.06,17,17,0,0,1-2.66.44,11.73,11.73,0,0,1-2.65-.05,11.54,11.54,0,0,1-4.94-1.84,11.87,11.87,0,0,1-2-1.71,9.27,9.27,0,0,1-.87-1l-.8-1.12c-.57-.77-1.19-1.49-1.79-2.19s-1.19-1.4-1.76-2.11q-1.71-2.18-3.28-4.46a56.19,56.19,0,0,1-5.55-9.55,39.21,39.21,0,0,1-1.92-5.18c-.13-.45-.24-.9-.36-1.34s-.21-.9-.29-1.35a19.46,19.46,0,0,1-.4-2.74h0l0-.15c.05-1.38.07-2.74.08-4.09,0-.68,0-1.36,0-2s0-1.35.06-2c0-1.34.12-2.69.26-4a29.4,29.4,0,0,1,.66-4,12.41,12.41,0,0,0-1.5,3.87,22.1,22.1,0,0,0-.51,4.12c0,.35,0,.69,0,1s0,.69,0,1c0,.69.07,1.38.15,2.06a22.2,22.2,0,0,0,.76,4.06v.14a2.81,2.81,0,0,1-1.82-.55,5.46,5.46,0,0,1-1.31-1.4,15.71,15.71,0,0,1-1.69-3.53,37.48,37.48,0,0,1-1.11-3.79c-.31-1.27-.57-2.56-.79-3.84-.06-1.83-.09-3.65,0-5.46a23.8,23.8,0,0,1,.32-2.69,6.85,6.85,0,0,1,.84-2.44,2.07,2.07,0,0,1,.81-.8,1.7,1.7,0,0,1,1.1-.14,5.73,5.73,0,0,1,2.31,1.16,17.56,17.56,0,0,1,2,1.83c.64.66,1.26,1.35,1.84,2.07-.36-.6-.75-1.18-1.16-1.75a34.1,34.1,0,0,1,2.1-3.08,24.11,24.11,0,0,1,2.7-2.91,21.58,21.58,0,0,1,6.65-4.16,25.41,25.41,0,0,1,7.66-1.65c.4,0,.8,0,1.2-.06-.83.17-1.66.35-2.47.57a29.86,29.86,0,0,0-3.19,1.07,18.82,18.82,0,0,0-3,1.53,12.16,12.16,0,0,0-2.6,2.14,8.38,8.38,0,0,0-1.72,2.86A16.27,16.27,0,0,1,144.7,500a16.84,16.84,0,0,1,2.25-1.12,16.4,16.4,0,0,1,2.38-.74,14.56,14.56,0,0,1,2.46-.34,15.8,15.8,0,0,1,2.48.05,20.1,20.1,0,0,1,4.83,1.14l.1,0h.08a3.53,3.53,0,0,0,1-.16,2,2,0,0,0,1-.6,1.38,1.38,0,0,0,.29-.58,1.06,1.06,0,0,0,0-.31v-.15l0-.14a2.51,2.51,0,0,0,0-.27l-.08-.24a2.13,2.13,0,0,0-.2-.46,3.23,3.23,0,0,0-1-1.11h.34c2.69-.09,5.37-.23,8-.54a59.69,59.69,0,0,0,7.95-1.44,30,30,0,0,0,7.52-3,14.9,14.9,0,0,0,3.18-2.52c.26-.3.51-.61.74-.93a4.57,4.57,0,0,0-.24.74,4.51,4.51,0,0,0-.16,1.35,4.43,4.43,0,0,0,.94-1c.09-.13.17-.26.25-.39,0,.05,0,.09,0,.14a4,4,0,0,0-.06,1.25,3.67,3.67,0,0,0,.77-.81,6.17,6.17,0,0,0,.27,3.24,10.56,10.56,0,0,0,3,4.2,17.31,17.31,0,0,0,2,1.6,18,18,0,0,1,1.93,1.5,9.43,9.43,0,0,1,2.69,3.88,8.21,8.21,0,0,1,.23,4.66,9.45,9.45,0,0,1-.34,1.15c-.07.19-.14.36-.22.56a5.36,5.36,0,0,0-.24.6,11.08,11.08,0,0,0-.41,1.23c-.11.41-.22.82-.32,1.23a27.79,27.79,0,0,0-.77,5,16.71,16.71,0,0,0,0,2.55,9.28,9.28,0,0,0,.23,1.26,2.6,2.6,0,0,0,.55,1.13,2.43,2.43,0,0,1-.39-1.17,5.35,5.35,0,0,1-.07-.7h.15a.81.81,0,0,0,.3.22,1,1,0,0,0,.38.09,1.69,1.69,0,0,0,.77-.16h0a31.49,31.49,0,0,1,4.2-2.26,11.83,11.83,0,0,1,2.2-.73,4.56,4.56,0,0,1,2.17,0l.24.09.22.1a2.24,2.24,0,0,1,.38.29A2.06,2.06,0,0,1,209.18,518.21Zm-3.27,4.36a3.44,3.44,0,0,0-.67-1.78,2.06,2.06,0,0,0-.8-.62,2.33,2.33,0,0,0-1-.16,4.58,4.58,0,0,0-1.86.64,9.75,9.75,0,0,0-1.56,1.14,6.47,6.47,0,0,0-2.21,3.2,3.28,3.28,0,0,0,.15,2,3.63,3.63,0,0,0,1.07,1.41c-.76,1.29-1.5,2.6-2.19,3.93,1-1.25,1.88-2.54,2.78-3.84l.13-.2-.21-.17a3.5,3.5,0,0,1-1-1.37,2.92,2.92,0,0,1-.08-1.63,6.11,6.11,0,0,1,1.78-2.65l.22,0,.54.1a9.34,9.34,0,0,1,1,.26,4.5,4.5,0,0,1,1.73,1.12,1.86,1.86,0,0,0-.46-1.11,2.5,2.5,0,0,0-1-.69,2.9,2.9,0,0,0-1.2-.15,3.06,3.06,0,0,0-.4.07,9.65,9.65,0,0,1,1.25-1,3.94,3.94,0,0,1,1.59-.69A1.74,1.74,0,0,1,205,521,3.87,3.87,0,0,1,205.91,522.57Zm-9.58-15.13c.38.29.74.53,1,.79a24.49,24.49,0,0,0-3-4.37,22.36,22.36,0,0,0-4-3.63,14.84,14.84,0,0,0-4.9-2.32c-.22-.07-.45-.1-.68-.15s-.45-.08-.68-.11a6,6,0,0,0-1.42-.07,5.31,5.31,0,0,0-2.75.92,2.35,2.35,0,0,0-.61.58,1.41,1.41,0,0,0-.22.51,1.13,1.13,0,0,0,.07.63,1.67,1.67,0,0,0,.64.71l.34.2.33.15a15.44,15.44,0,0,0,2.64.74c1.73.37,3.46.7,5.13,1.15a19.08,19.08,0,0,1,4.76,2.05c.38.22.74.46,1.11.69l1.09.75C195.62,506.92,196,507.16,196.33,507.44ZM190,519.69a3.06,3.06,0,0,0,.08-.91,3.59,3.59,0,0,0,0-.46,3.84,3.84,0,0,0-.11-.46h0l0,0a13.55,13.55,0,0,0-2.82-3,8.72,8.72,0,0,0-3.8-1.78,6.88,6.88,0,0,0-4.2.51,7.49,7.49,0,0,0-3.11,2.67l-.8,2h0a1.28,1.28,0,0,0,.15,1.22,4.56,4.56,0,0,0,.42.44c.14.13.27.25.39.38a8.71,8.71,0,0,0,.79.86,7.51,7.51,0,0,0,1,.72,10.81,10.81,0,0,0,4.46,1.45,12.21,12.21,0,0,0,4.66-.36,5.3,5.3,0,0,0,2.13-1.1,3.09,3.09,0,0,0,.7-1,2.73,2.73,0,0,0,.19-1.15Zm-18.4,27.36a7.84,7.84,0,0,1-2.05,0,6.61,6.61,0,0,1-1.89-.52,8.7,8.7,0,0,1-1.68-1c-.26-.2-.5-.4-.74-.61a6.63,6.63,0,0,1-.65-.65l-.35-.42-.63.23c-.21.08-.41.17-.62.24s-.41.12-.62.15a3.59,3.59,0,0,1-1.18,0,3.11,3.11,0,0,1-1.07-.44,2.67,2.67,0,0,1-.46-.37l-.21-.21-.16-.19-.45-.55-.56.17a12.91,12.91,0,0,1-2.43.48,19.82,19.82,0,0,1-2.56,0,35,35,0,0,1-5.27-.75,13.37,13.37,0,0,0,2.45,1.23,15.9,15.9,0,0,0,2.65.8,14.46,14.46,0,0,0,2.8.3,10.89,10.89,0,0,0,2.27-.25l.22.24a5.08,5.08,0,0,0,.72.58,4.56,4.56,0,0,0,1.74.7c.16,0,.31,0,.47.05l.24,0,.23,0c.15,0,.31,0,.46,0l.45-.09a2.09,2.09,0,0,0,.43-.11l.42-.14.27-.13c.14.12.28.22.43.33a9.7,9.7,0,0,0,1,.61,8.21,8.21,0,0,0,2.1.8,6.91,6.91,0,0,0,1.11.16h.83l.28,0A5.81,5.81,0,0,0,171.62,547.05Zm-2.7-16.79c0-.73,0-1.47-.07-2.2-.1-1.46-.25-2.92-.46-4.36-.11-.72-.21-1.45-.34-2.17s-.25-1.43-.41-2.15a42.09,42.09,0,0,0-1.1-4.25c0,1.47.12,2.93.26,4.38.06.73.16,1.45.23,2.18l.29,2.16c.2,1.44.44,2.88.69,4.31l.38,2.15.1.53a5,5,0,0,0,.08.54,3.91,3.91,0,0,1,0,1.08,2.72,2.72,0,0,1-1.11,1,4.23,4.23,0,0,1-1.43.39,11.28,11.28,0,0,1-3.05-.23c-1-.2-2-.47-3.07-.76a3.33,3.33,0,0,1-1.31-.63,2.18,2.18,0,0,1-.7-1.33,9,9,0,0,1,1.29-2.41c.53-.74,1.1-1.45,1.68-2.15l1.76-2.13c.59-.73,1.18-1.45,1.73-2.24a13.12,13.12,0,0,0-2.34,1.64,16.69,16.69,0,0,0-2,2,11.17,11.17,0,0,0-1.57,2.42,7.49,7.49,0,0,0-.5,1.37,3.61,3.61,0,0,0-.06,1.46,2,2,0,0,0,.3,1.68,3.21,3.21,0,0,0,1.41,1.08,13.81,13.81,0,0,0,3.17,1,7.8,7.8,0,0,0,3.4,0,3.91,3.91,0,0,0,1.58-.78,2.39,2.39,0,0,0,.81-1.49,3.1,3.1,0,0,0,.3-1.09C168.9,531,168.91,530.63,168.92,530.26ZM167.27,550c-.75,0-1.47,0-2.18,0s-1.41,0-2.1,0l-1,0h-.51l-.5,0-1-.07-1-.15a15.49,15.49,0,0,1-3.82-1.11,12.52,12.52,0,0,1-3.44-2.29,6.94,6.94,0,0,0,2.73,3.52,10.39,10.39,0,0,0,4.24,1.67c.37.05.75.11,1.13.14l1.13,0h.56l.56-.07,1.1-.14c.73-.16,1.44-.36,2.14-.58A20.3,20.3,0,0,0,167.27,550Zm-9.68-34.68.24-1.24a7.64,7.64,0,0,0-1.72-3.77,7.15,7.15,0,0,0-3.58-2.32,9,9,0,0,0-4.26-.1,13.75,13.75,0,0,0-3.9,1.44l0,0h0a3.38,3.38,0,0,0-.31.37c-.09.13-.17.26-.25.39a3.8,3.8,0,0,0-.32.85h0a2.65,2.65,0,0,0-.33,1.25,3.06,3.06,0,0,0,.32,1.32,4.79,4.79,0,0,0,.77,1.11,9.15,9.15,0,0,0,1,.91,12.59,12.59,0,0,0,4.67,2.33,10.82,10.82,0,0,0,2.61.38,7,7,0,0,0,2.63-.43l.31-.13.27-.12.58-.2.3-.09a1.42,1.42,0,0,0,.35-.17,1.15,1.15,0,0,0,.45-.55,3.36,3.36,0,0,0,.15-.65Zm-25.59-2a5.4,5.4,0,0,0,0-.9,10.78,10.78,0,0,0-.31-1.73l-.27-.83c-.09-.28-.22-.55-.33-.81a8.62,8.62,0,0,0-.44-.78c-.08-.12-.18-.24-.27-.36l-.14-.17-.16-.16a2.46,2.46,0,0,0-1.62-.75,2.41,2.41,0,0,0-1.63.55,3.21,3.21,0,0,1,.79-.27,2.83,2.83,0,0,1,.41,0h.2l.2,0a2.2,2.2,0,0,1,1.3.8l.13.15.11.17.22.33c.11.25.24.48.33.74,0,.08.07.16.09.23A2.85,2.85,0,0,0,130,509a2.58,2.58,0,0,0-1.15-.35,1.57,1.57,0,0,0-1.13.32,4,4,0,0,1,1,.23,7.43,7.43,0,0,1,.9.43c.29.16.57.36.87.54l.41.26.1.36.16.8a7.5,7.5,0,0,1,.11.81c0,.13,0,.27,0,.4v.39c0,.13,0,.25-.06.37l0,.19-.06.17a1.59,1.59,0,0,1-.91,1,2.78,2.78,0,0,1-1.49.11l-.33,0v.3c0,.69,0,1.38,0,2.06s0,1.38.06,2.07c.11-.69.19-1.37.27-2s.13-1.16.18-1.74a3,3,0,0,0,1.54-.09l.23-.09.22-.13a1.44,1.44,0,0,0,.39-.31,2.31,2.31,0,0,0,.31-.39,1.82,1.82,0,0,0,.2-.45l.09-.22,0-.23C132,513.56,132,513.41,132,513.26Z"/><path class="cls-16" d="M197.38,508.23c-.36-.3-.67-.63-1-.92s-.65-.6-1-.89-.68-.57-1-.85l-1.07-.8a19.79,19.79,0,0,0-2.3-1.39,19.28,19.28,0,0,0-2.5-1c-1.71-.57-3.45-.91-5.15-1.34a15.49,15.49,0,0,1-2.44-.71l-.27-.13-.23-.14c-.12-.09-.25-.2-.25-.24v0a.19.19,0,0,1,0-.08,1.39,1.39,0,0,1,.35-.31,4.3,4.3,0,0,1,2.19-.76,6.35,6.35,0,0,1,1.22.06,6.17,6.17,0,0,1,.62.09c.21.05.42.07.63.13a14.78,14.78,0,0,1,4.67,2,23.86,23.86,0,0,1,4,3.29A31.86,31.86,0,0,1,197.38,508.23Z"/><path class="cls-16" d="M196.42,507.31c.29.29.6.62,1,.92-.31-.26-.67-.5-1-.79s-.71-.52-1.07-.78l-1.09-.75c-.37-.23-.73-.47-1.11-.69a19.08,19.08,0,0,0-4.76-2.05c-1.67-.45-3.4-.78-5.13-1.15a15.44,15.44,0,0,1-2.64-.74l-.33-.15-.34-.2a1.67,1.67,0,0,1-.64-.71,1.13,1.13,0,0,1-.07-.63,1.41,1.41,0,0,1,.22-.51,2.35,2.35,0,0,1,.61-.58,5.31,5.31,0,0,1,2.75-.92,6,6,0,0,1,1.42.07c.23,0,.46.06.68.11s.46.08.68.15a14.84,14.84,0,0,1,4.9,2.32,22.36,22.36,0,0,1,4,3.63,24.49,24.49,0,0,1,3,4.37,31.86,31.86,0,0,0-3.41-4,23.86,23.86,0,0,0-4-3.29,14.78,14.78,0,0,0-4.67-2c-.21-.06-.42-.08-.63-.13a6.17,6.17,0,0,0-.62-.09,6.35,6.35,0,0,0-1.22-.06,4.3,4.3,0,0,0-2.19.76,1.39,1.39,0,0,0-.35.31.19.19,0,0,0,0,.08v0s.13.15.25.24l.23.14.27.13a15.49,15.49,0,0,0,2.44.71c1.7.43,3.44.77,5.15,1.34a19.28,19.28,0,0,1,2.5,1,19.79,19.79,0,0,1,2.3,1.39l1.07.8c.34.28.69.56,1,.85S196.11,507,196.42,507.31Z"/><path class="cls-17" d="M190.1,518.78a3.06,3.06,0,0,1-.08.91,4.19,4.19,0,0,0-.17-.87c0-.13-.09-.27-.14-.4l-.16-.33a23.47,23.47,0,0,0-3-2.48,10.43,10.43,0,0,0-3.45-1.53,7.4,7.4,0,0,0-.93-.12,7.07,7.07,0,0,0-.92,0,8,8,0,0,0-1.85.35,10.25,10.25,0,0,0-3.4,1.93,7.49,7.49,0,0,1,3.11-2.67,6.88,6.88,0,0,1,4.2-.51,8.72,8.72,0,0,1,3.8,1.78,13.55,13.55,0,0,1,2.82,3l0,0h0a3.84,3.84,0,0,1,.11.46A3.59,3.59,0,0,1,190.1,518.78Z"/><path class="cls-3" d="M190,519.69h0a3,3,0,0,1-.45,1,2.89,2.89,0,0,1-.76.72,5.66,5.66,0,0,1-2,.69,15,15,0,0,1-4.34.09A14.27,14.27,0,0,1,181,522l.16-.77.35,0h.58a.61.61,0,0,0,.13,0l.16,0,.13,0,.15,0,.13,0,.14-.07.12-.06.14-.08.12-.07.13-.09.11-.08.12-.11.1-.1.12-.11.09-.11.11-.13a.76.76,0,0,1,.08-.11.71.71,0,0,1,.1-.14l.07-.12.09-.16a.67.67,0,0,1,.06-.12c0-.06.05-.12.07-.17a1.12,1.12,0,0,0,0-.13l.06-.19s0-.08,0-.12a2.25,2.25,0,0,0,.05-.22l0-.11c0-.11,0-.22,0-.34s0-.23,0-.34v0a4.32,4.32,0,0,0-.05-.62c0-.12-.05-.24-.08-.36a3.52,3.52,0,0,0-.56-1.13,2.92,2.92,0,0,0-.41-.45,2.84,2.84,0,0,0-1.33-.69l-.3,0,0-.5a7.4,7.4,0,0,1,.93.12,10.43,10.43,0,0,1,3.45,1.53,23.47,23.47,0,0,1,3,2.48l.16.33c0,.13.1.27.14.4A4.19,4.19,0,0,1,190,519.69Z"/><path class="cls-3" d="M182.14,514l0,.5h-.58l-.13,0-.16,0-.13,0-.15.05-.13,0-.14.06-.12.06-.15.08-.11.07-.13.09-.11.09-.12.1-.11.1-.11.12-.09.1-.11.13a.76.76,0,0,0-.08.11l-.1.14-.07.12-.09.16-.06.12c0,.06-.05.12-.07.17a1.12,1.12,0,0,0-.05.13,1.06,1.06,0,0,0-.06.19.56.56,0,0,0,0,.12c0,.07,0,.15-.05.22a.43.43,0,0,0,0,.11c0,.11,0,.22-.05.33h0a1.93,1.93,0,0,0,0,.34,3.63,3.63,0,0,0,.51,1.87,3.08,3.08,0,0,0,.37.5,2.18,2.18,0,0,0,.22.21,1.31,1.31,0,0,0,.32.25,2.6,2.6,0,0,0,.62.32l.34.11L181,522c-.22,0-.44-.1-.66-.16a11,11,0,0,1-2-.75,6.58,6.58,0,0,1-.92-.55c-.29-.2-.53-.42-.86-.7a5.09,5.09,0,0,0-.47-.34c-.16-.11-.34-.2-.44-.29a1.11,1.11,0,0,1-.31-.91l.65-2a10.25,10.25,0,0,1,3.4-1.93,8,8,0,0,1,1.85-.35A7.07,7.07,0,0,1,182.14,514Z"/><path class="cls-17" d="M170.88,630.27a2.65,2.65,0,0,1,0,.46,3.29,3.29,0,0,1-.55,1.51A4.6,4.6,0,0,1,169,633.5a6.89,6.89,0,0,1-7-.11,4.21,4.21,0,0,1-1.28-1.24,2.88,2.88,0,0,1,0-3.3,4.1,4.1,0,0,1,1.28-1.24,6.89,6.89,0,0,1,7-.11,4.6,4.6,0,0,1,1.34,1.26A3.25,3.25,0,0,1,170.88,630.27Zm-4,.36h0a1.31,1.31,0,0,0-.61-1,2.31,2.31,0,0,0-1.2-.39,2.39,2.39,0,0,0-1.27.28,1.41,1.41,0,0,0-.73,1.14,1.39,1.39,0,0,0,.73,1.14,2.39,2.39,0,0,0,1.27.28,2.31,2.31,0,0,0,1.2-.39A1.31,1.31,0,0,0,166.9,630.63Z"/><path class="cls-18" d="M166.9,630.61h0a1.18,1.18,0,0,1-.64,1,2.26,2.26,0,0,1-2.27-.11,1.11,1.11,0,0,1-.53-.88,1.08,1.08,0,0,1,.53-.87,2.19,2.19,0,0,1,1.1-.37,2.1,2.1,0,0,1,1.17.26A1.15,1.15,0,0,1,166.9,630.61Z"/><path class="cls-16" d="M160.46,497.15a.53.53,0,0,1-.08.38,1.53,1.53,0,0,1-1,.37,19,19,0,0,0-5-1.06,15.4,15.4,0,0,0-2.63,0,14.13,14.13,0,0,0-2.58.48,15.44,15.44,0,0,0-6.69,3.86,12.46,12.46,0,0,0-1.67,2,8.91,8.91,0,0,1,2-2.62,12.88,12.88,0,0,1,2.65-1.88,24.5,24.5,0,0,1,6.12-2.22,44.29,44.29,0,0,1,6.48-1,2.3,2.3,0,0,1,1.33.22,2.21,2.21,0,0,1,.94.9,1.11,1.11,0,0,1,.12.3l.05.15A.61.61,0,0,1,160.46,497.15Z"/><path class="cls-3" d="M157.83,514l-.33,1.22-.17.61a1.41,1.41,0,0,1-.23.56,1,1,0,0,1-.42.33.86.86,0,0,1-.25.07l-.32,0-.65.11-.32.09-.29.07a9.36,9.36,0,0,1-4.27-.18l.19-.77.18,0h.11l.18,0h.2l.39,0h0a3.06,3.06,0,0,0,.41-.1l.09,0a2.71,2.71,0,0,0,.39-.17l0,0a2.5,2.5,0,0,0,.35-.21l.08-.06.34-.28.05-.06a4.12,4.12,0,0,0,.28-.31s0,0,0-.06.18-.25.26-.38l.05-.1a3,3,0,0,0,.21-.44,5.46,5.46,0,0,0,.19-.66,3.55,3.55,0,0,0,.06-.64v0c0-.11,0-.22,0-.33s0-.21,0-.31a3.18,3.18,0,0,0-.14-.53,1.67,1.67,0,0,0-.08-.2,3.16,3.16,0,0,0-.58-.9,2.71,2.71,0,0,0-1-.67l.17-.49a6.92,6.92,0,0,1,1,.44,8.09,8.09,0,0,1,1.55,1.13A10.75,10.75,0,0,1,157.83,514Z"/><path class="cls-3" d="M153,509.24l-.17.49h0l-.27-.09-.09,0-.19,0h-.1l-.18,0h-.21a2.43,2.43,0,0,0-.38,0h-.05l-.41.11-.09,0a2.71,2.71,0,0,0-.39.17h0c-.12.07-.24.14-.35.22l-.08.06-.34.28-.06.06-.27.31-.05.06c-.09.12-.17.25-.25.38l-.05.1a3,3,0,0,0-.21.44,4.1,4.1,0,0,0-.19.66,3.68,3.68,0,0,0-.06.66,3.4,3.4,0,0,0,.21,1.24,2.55,2.55,0,0,0,.13.29,1.68,1.68,0,0,0,.2.34,2.38,2.38,0,0,0,.31.4l.22.21a2.77,2.77,0,0,0,.78.46h0l.27.09.09,0-.19.77-.49-.12a16,16,0,0,1-4.41-2,9.93,9.93,0,0,1-1-.74,4.3,4.3,0,0,1-.8-.85,2.81,2.81,0,0,1-.48-2.29h0a4.6,4.6,0,0,1,.53-.7c.1-.11.2-.2.31-.3l.29-.23a22.2,22.2,0,0,1,3.86-.89c.32,0,.65-.08,1-.08s.64,0,1,0a9.16,9.16,0,0,1,1.89.26A7.13,7.13,0,0,1,153,509.24Z"/><path class="cls-16" d="M147,558.28l.2.28v.05a14.71,14.71,0,0,1-.46,1.85,12.86,12.86,0,0,1-1.16,2.69,9,9,0,0,1-1.82,2.25,7.59,7.59,0,0,1-2.44,1.46c-.23.07-.45.17-.68.22l-.7.16-.71.1a5.79,5.79,0,0,1-.72,0l-.36,0-.36,0-.72,0-.71-.1-.36,0-.36-.07-.71-.15c-.23-.05-.46-.13-.7-.19l-.69-.2-.09,0v0c-.82-3.22-1.54-6.45-2.18-9.7-.66-3.41-1.23-6.83-1.67-10.27s-.78-6.89-1-10.36c-.17-3.26-.23-6.53-.13-9.81l.09.11a5.57,5.57,0,0,0,1.55,1.35,2.8,2.8,0,0,0,2,.34,25,25,0,0,0,.77,5.5,39.75,39.75,0,0,0,1.72,5.32,44.85,44.85,0,0,0,2.4,5.05c.89,1.65,1.91,3.21,2.93,4.76s2.09,3.09,3.22,4.57c.57.74,1.17,1.47,1.77,2.18s1.18,1.4,1.71,2.14C146.72,557.9,146.84,558.09,147,558.28Z"/><path class="cls-19" d="M136.35,705.79a14.52,14.52,0,0,1-.45,5.85l-.13-.12a2.6,2.6,0,0,1-.36-.38,3.9,3.9,0,0,1-.48-.74l-.2-.39c-.06-.13-.11-.27-.16-.41a8,8,0,0,1-.26-.83,18.66,18.66,0,0,1-.48-3.51v-.9c0-.3,0-.6,0-.9,0-.6,0-1.21,0-1.81,0-.31,0-.61,0-.92s0-.61,0-.92c0-.13,0-.26,0-.39A16.28,16.28,0,0,1,136.35,705.79Z"/><path class="cls-15" d="M105.25,699l-.18.2c-.16.18-.3.36-.44.54-.28.36-.54.73-.79,1.11-.51.74-1,1.51-1.44,2.29A50,50,0,0,0,100,707.9a51.69,51.69,0,0,0-2.6,7.21,62.88,62.88,0,0,1-2.48-8.8,93.51,93.51,0,0,1-1.5-9.7c-.33-3.26-.52-6.53-.59-9.8s-.06-6.55.07-9.82.32-6.55.59-9.82.62-6.53,1-9.79.85-6.51,1.36-9.75c.44-2.94,1-5.87,1.51-8.79a18.92,18.92,0,0,0,1.7,1.65,15.67,15.67,0,0,0,2.11,1.52c.37.23.76.43,1.14.63l.65.29c-.51,2.19-.94,4.41-1.32,6.64s-.8,4.76-1.09,7.16a142.43,142.43,0,0,0-1.07,14.46c0,2.42,0,4.85.17,7.27a67.5,67.5,0,0,0,.83,7.23,44.62,44.62,0,0,0,1.79,7.09A28.31,28.31,0,0,0,105.25,699Z"/><path class="cls-17" d="M102.22,623.57a7.06,7.06,0,0,1-.06,1.52c0,.25-.09.5-.13.75s-.12.49-.22.72a3.1,3.1,0,0,1-.75,1.2,2.3,2.3,0,0,1-1.24.6,4.35,4.35,0,0,1-1.48,0,11,11,0,0,1-2.91-1.08A22.38,22.38,0,0,1,93,625.79l0,0c0-.38.06-.76.11-1.13a17.69,17.69,0,0,1,.75-3.16h0a19,19,0,0,1,2.64-.68,9.5,9.5,0,0,1,3.09-.15,3.78,3.78,0,0,1,1.38.48,2.5,2.5,0,0,1,.92,1A3.69,3.69,0,0,1,102.22,623.57Zm-3.52.52h0a1.29,1.29,0,0,0-.62-1,2.31,2.31,0,0,0-1.2-.39,2.24,2.24,0,0,0-1.26.28,1.26,1.26,0,0,0,0,2.28,2.42,2.42,0,0,0,2.46-.11,1.29,1.29,0,0,0,.62-1Z"/><path class="cls-18" d="M98.7,624.09h0a1.21,1.21,0,0,1-.65,1,2.18,2.18,0,0,1-1.17.25,2.28,2.28,0,0,1-1.1-.36,1.13,1.13,0,0,1-.53-.88,1.12,1.12,0,0,1,.53-.88,2.28,2.28,0,0,1,1.1-.36,2.1,2.1,0,0,1,1.17.26,1.18,1.18,0,0,1,.65,1Z"/><path d="M150.4,516.07a2.77,2.77,0,0,1-.78-.46A2.77,2.77,0,0,0,150.4,516.07Z"/><path d="M151.06,514.38a.92.92,0,0,0,.33.06,1.59,1.59,0,0,0,1.37-1.1,1.45,1.45,0,0,0-.56-1.92.92.92,0,0,0-.33-.06,1.62,1.62,0,0,0-1.38,1.1,1.88,1.88,0,0,0,0,1.28A1.09,1.09,0,0,0,151.06,514.38Z"/><path class="cls-15" d="M151.39,516.26h0Z"/><path class="cls-20" d="M151.39,516.26h0Z"/><path class="cls-15" d="M151.87,509.54h0Z"/><path class="cls-20" d="M151.87,509.54h0Z"/><path class="cls-15" d="M149.4,515.4a2.38,2.38,0,0,1-.31-.4A2.38,2.38,0,0,0,149.4,515.4Z"/><path class="cls-20" d="M149.4,515.4a2.38,2.38,0,0,1-.31-.4A2.38,2.38,0,0,0,149.4,515.4Z"/><path class="cls-15" d="M154.65,513.33a5.46,5.46,0,0,1-.19.66A5.46,5.46,0,0,0,154.65,513.33Z"/><path class="cls-20" d="M154.65,513.33a5.46,5.46,0,0,1-.19.66A5.46,5.46,0,0,0,154.65,513.33Z"/><path d="M149.09,515a2.38,2.38,0,0,0,.31.4l.22.21a2.77,2.77,0,0,0,.78.46h0l.27.08.09,0,.18,0h.11l.18,0h.2l.39,0h0a3.06,3.06,0,0,0,.41-.1l.09,0a3.29,3.29,0,0,0,.39-.17l0,0a2.5,2.5,0,0,0,.35-.21l.08-.06.34-.28.05-.06a4.12,4.12,0,0,0,.28-.31l0-.06c.09-.12.18-.25.26-.38a.41.41,0,0,1,.05-.09c.07-.15.15-.29.21-.45a5.46,5.46,0,0,0,.19-.66,3.55,3.55,0,0,0,.06-.64v0c0-.11,0-.22,0-.32a3.11,3.11,0,0,0,0-.32,3.18,3.18,0,0,0-.14-.53,1.08,1.08,0,0,0-.08-.19,2.88,2.88,0,0,0-.58-.91,2.79,2.79,0,0,0-1-.67h0l-.27-.08-.09,0-.19,0-.1,0h-.39l-.38,0h-.05a3.06,3.06,0,0,0-.41.1l-.09,0a2.71,2.71,0,0,0-.39.17l0,0-.36.21-.07.06a3,3,0,0,0-.34.28l-.05.06a4.12,4.12,0,0,0-.28.31l0,.06a3.19,3.19,0,0,0-.26.38l-.05.09a3.68,3.68,0,0,0-.21.45,4.1,4.1,0,0,0-.19.66,3.68,3.68,0,0,0-.06.66,3.37,3.37,0,0,0,.21,1.24c0,.1.08.19.13.29A1.68,1.68,0,0,0,149.09,515Zm4.59-2.61.69.23-.34,1-.69-.23Zm-3.19.07a1.62,1.62,0,0,1,1.38-1.1.92.92,0,0,1,.33.06,1.45,1.45,0,0,1,.56,1.92,1.59,1.59,0,0,1-1.37,1.1.92.92,0,0,1-.33-.06,1.09,1.09,0,0,1-.6-.64A1.88,1.88,0,0,1,150.49,512.46Z"/><path class="cls-21" d="M149.09,515a2.38,2.38,0,0,0,.31.4l.22.21a2.77,2.77,0,0,0,.78.46h0l.27.08.09,0,.18,0h.11l.18,0h.2l.39,0h0a3.06,3.06,0,0,0,.41-.1l.09,0a3.29,3.29,0,0,0,.39-.17l0,0a2.5,2.5,0,0,0,.35-.21l.08-.06.34-.28.05-.06a4.12,4.12,0,0,0,.28-.31l0-.06c.09-.12.18-.25.26-.38a.41.41,0,0,1,.05-.09c.07-.15.15-.29.21-.45a5.46,5.46,0,0,0,.19-.66,3.55,3.55,0,0,0,.06-.64v0c0-.11,0-.22,0-.32a3.11,3.11,0,0,0,0-.32,3.18,3.18,0,0,0-.14-.53,1.08,1.08,0,0,0-.08-.19,2.88,2.88,0,0,0-.58-.91,2.79,2.79,0,0,0-1-.67h0l-.27-.08-.09,0-.19,0-.1,0h-.39l-.38,0h-.05a3.06,3.06,0,0,0-.41.1l-.09,0a2.71,2.71,0,0,0-.39.17l0,0-.36.21-.07.06a3,3,0,0,0-.34.28l-.05.06a4.12,4.12,0,0,0-.28.31l0,.06a3.19,3.19,0,0,0-.26.38l-.05.09a3.68,3.68,0,0,0-.21.45,4.1,4.1,0,0,0-.19.66,3.68,3.68,0,0,0-.06.66,3.37,3.37,0,0,0,.21,1.24c0,.1.08.19.13.29A1.68,1.68,0,0,0,149.09,515Zm4.59-2.61.69.23-.34,1-.69-.23Zm-3.19.07a1.62,1.62,0,0,1,1.38-1.1.92.92,0,0,1,.33.06,1.45,1.45,0,0,1,.56,1.92,1.59,1.59,0,0,1-1.37,1.1.92.92,0,0,1-.33-.06,1.09,1.09,0,0,1-.6-.64A1.88,1.88,0,0,1,150.49,512.46Z"/><rect class="cls-3" x="153.31" y="512.66" width="1.09" height="0.73" transform="translate(-381.54 498.16) rotate(-71.72)"/><path d="M200.6,700.44a69.76,69.76,0,0,1,8,11.94,109.22,109.22,0,0,1,6,13q1.29,3.36,2.4,6.78c.66,2.07,1.31,4.16,1.85,6.25l-30.11,0q-15.4,0-30.8.1l-30.79.14-8.53.07c-.18-.6-.4-1.18-.59-1.77l-.32-1c-.11-.32-.22-.63-.31-1q-.61-1.92-1.11-3.84t-.81-3.9a35.37,35.37,0,0,1-.44-4,12.8,12.8,0,0,0-.41,4.09,21.6,21.6,0,0,0,.6,4.08c.19.67.36,1.33.6,2a18.48,18.48,0,0,0,.78,1.9,19.63,19.63,0,0,0,.93,1.83c.32.53.66,1,1,1.55L96.47,739c-.26-1.64-.44-3.28-.55-4.93a49.51,49.51,0,0,1,0-5.31,52.74,52.74,0,0,1,1.48-10.47,56.38,56.38,0,0,1,3.49-10,50.56,50.56,0,0,1,2.45-4.67q.67-1.14,1.41-2.22c.25-.36.5-.71.77-1.06.12-.16.25-.32.38-.47l5.26,7.66-4.77-8.88h0a26.4,26.4,0,0,1-3-6.25,45.2,45.2,0,0,1-1.78-6.91c-.41-2.35-.68-4.73-.87-7.12s-.24-4.79-.25-7.19a141.6,141.6,0,0,1,.73-14.41c.45-4.63,1.06-9.26,1.86-13.85l.52.2a11.53,11.53,0,0,0,2.52.65,13.23,13.23,0,0,0,2.59.13,15.53,15.53,0,0,0,2.55-.38,19.86,19.86,0,0,0,4.74-1.88,28.37,28.37,0,0,0,4.21-2.82,33.91,33.91,0,0,1-4.34,2.57A19.5,19.5,0,0,1,111,643a14.58,14.58,0,0,1-2.46.27,12.47,12.47,0,0,1-2.45-.2,12,12,0,0,1-2.36-.68c-.38-.14-.74-.33-1.11-.5s-.72-.39-1.06-.62A21,21,0,0,1,95,634,14.6,14.6,0,0,1,93,625.82a17.73,17.73,0,0,0,2.3,1.73,10.2,10.2,0,0,0,3,1.32,4.55,4.55,0,0,0,1.69.12,2.87,2.87,0,0,0,1.6-.73,3.52,3.52,0,0,0,1-1.45,7.63,7.63,0,0,0,.26-.81c0-.27.11-.54.15-.82a8.34,8.34,0,0,0,.05-1.66,4.09,4.09,0,0,0-.43-1.66,3,3,0,0,0-1.21-1.28,4,4,0,0,0-1.63-.5,9.24,9.24,0,0,0-3.24.36,17.64,17.64,0,0,0-2.57,1c.16-.51.35-1,.54-1.51a26.07,26.07,0,0,1,2.27-4.39,27.52,27.52,0,0,1,3.06-3.9,33.49,33.49,0,0,1,3.69-3.35,25.88,25.88,0,0,0,3.74-3.51c.27-.33.56-.65.81-1l.39-.51.35-.54c.25-.35.45-.73.67-1.1s.41-.76.57-1.16a12,12,0,0,0,1-5,9.67,9.67,0,0,0-1.38-4.85,8.78,8.78,0,0,1,.85,2.36,10.47,10.47,0,0,1,.24,2.49,11.36,11.36,0,0,1-1.22,4.78,16.27,16.27,0,0,1-2.83,4.06,25.38,25.38,0,0,1-3.72,3.3A31.12,31.12,0,0,0,98,612.11c0-1.89,0-3.78,0-5.67s.08-3.94.17-5.91c.15-3.94.42-7.87.68-11.81l.19-3c.07-1,.1-2,.2-2.94a19.21,19.21,0,0,1,1.35-5.59,20.72,20.72,0,0,1,7.11-8.89,21.79,21.79,0,0,1,5.09-2.7,22.48,22.48,0,0,1,5.62-1.28,23.22,23.22,0,0,1,5.77.16,26.56,26.56,0,0,1,5.61,1.5l1.38.53.7.27c.23.09.48.16.71.24l.72.23.73.19c.24.06.48.13.73.18l.74.13.37.07.38,0,.75.08c.26,0,.51,0,.76,0h.38l.38,0a6.48,6.48,0,0,0,.76-.06l.75-.12.74-.2c.25-.06.48-.17.72-.25A8.11,8.11,0,0,0,144,565.7a9.56,9.56,0,0,0,1.79-2.41,13.76,13.76,0,0,0,1.43-4.67l.17.25a12.28,12.28,0,0,0,.93,1.1,12.58,12.58,0,0,0,10.49,3.95,18.06,18.06,0,0,0,2.82-.48,19.88,19.88,0,0,0,5.25-2.2c.81-.49,1.59-1,2.34-1.6s1.47-1.12,2.22-1.67l4.47-3.29c3-2.2,6-4.42,8.75-6.91a46,46,0,0,0,3.92-4c.47-.54.92-1.1,1.36-1.67l-.4.76c-.35.69-.7,1.38-1,2.07l-.91,2.14a20.29,20.29,0,0,0-.81,2.18c-.25.73-.52,1.46-.7,2.22l-.29,1.13a10.88,10.88,0,0,0-.26,1.13l-.21,1.15a11.44,11.44,0,0,0-.18,1.15l-.12,1.17a11.3,11.3,0,0,0-.08,1.16l0,1.17c0,.2,0,.39,0,.59l0,.58.08,1.17c0,.39.1.77.16,1.16l.09.57c0,.2.09.38.13.57.09.38.17.76.28,1.14a15.56,15.56,0,0,0,1.79,4,37.7,37.7,0,0,0-3.52,4.17c1.89-1.86,3.84-3.63,5.87-5.29a69.73,69.73,0,0,1,6.34-4.66c1.1-.71,2.21-1.39,3.36-2,.57-.34,1.15-.62,1.74-.91l.88-.44.89-.39a34.84,34.84,0,0,1,7.34-2.32c-.31.36-.61.7-.91,1.06a46.84,46.84,0,0,0-3.1,4.2,27,27,0,0,0-2.46,4.59,36.43,36.43,0,0,1,5.73-8.65,88,88,0,0,1,7.25-7.46c.86-.79,1.73-1.57,2.61-2.33h0c1.74-1.52,3.51-3,5.3-4.43,2.71-2.16,5.48-4.27,8.32-6.25l.12-.08,0-.14c.76-4.86,1.68-9.7,2.82-14.48.58-2.39,1.21-4.77,2-7.1.38-1.16.79-2.31,1.25-3.44a20.74,20.74,0,0,1,1.62-3.23,30.65,30.65,0,0,1,2.13-2.95c.76-.95,1.56-1.87,2.39-2.78s1.65-1.81,2.5-2.7l2.55-2.66c1.72-1.77,3.41-3.57,5-5.43.4-.47.81-.94,1.2-1.42s.76-1,1.13-1.48a18,18,0,0,0,1.93-3.17,23.67,23.67,0,0,1-2.23,2.94c-.4.46-.82.91-1.24,1.35s-.84.89-1.27,1.33c-1.71,1.76-3.52,3.44-5.26,5.18-.88.87-1.76,1.74-2.62,2.63s-1.71,1.78-2.54,2.71a38.21,38.21,0,0,0-4.52,5.95,32.56,32.56,0,0,0-2.9,6.91c-.74,2.37-1.35,4.77-1.9,7.17-1.09,4.78-2,9.59-2.67,14.44-2.8,2-5.51,4.1-8.17,6.27q-2.6,2.13-5.08,4.37a21.89,21.89,0,0,0-1.63-4.62c-.79-1.64-1.79-3.16-2.71-4.68a22.43,22.43,0,0,1-2.31-4.72,23.9,23.9,0,0,1-1.12-5.11,57.52,57.52,0,0,1,0-10.58c.16-1.78.32-3.55.54-5.32s.49-3.52.73-5.31a67.94,67.94,0,0,0,.71-10.86A42.26,42.26,0,0,0,212,486.42a29.28,29.28,0,0,0-2.09-5.09,21.41,21.41,0,0,0-3.18-4.48,18.25,18.25,0,0,0-4.27-3.42,14.69,14.69,0,0,0-4.72-1.78,38.54,38.54,0,0,0-4.72-4,40,40,0,0,0-8.38-4.56,38.63,38.63,0,0,0-9.3-2.31,41.19,41.19,0,0,0-9.61.05l-1.19.15c-.2,0-.4,0-.6.08l-.59.11-2.36.45c-.78.19-1.56.4-2.33.6-.39.11-.78.2-1.16.32l-1.14.38c-.76.26-1.53.5-2.28.77l-2.22.9-1.12.45-1.08.52-2.17,1c-.36.16-.71.36-1.06.55l-1,.58c-.7.38-1.41.75-2.1,1.15-1.35.85-2.72,1.68-4.06,2.55s-2.62,1.81-3.91,2.75L131.57,477c-.41.24-.75.47-1.1.72s-.73.52-1.08.8-.7.55-1,.85-.67.59-1,.9a37,37,0,0,0-3.59,3.92,42.82,42.82,0,0,0-5.41,9.08,49,49,0,0,0-3.13,10.07,64.14,64.14,0,0,0-1.15,10.43,86.88,86.88,0,0,0,2.24,20.73c.89,3.87,2,7.69,3.23,11.45a23.8,23.8,0,0,0-3.53,2.55,21.13,21.13,0,0,0-2.36,2.37,22,22,0,0,0-1.94,2.72,18.24,18.24,0,0,0-2.27,6.27,15.44,15.44,0,0,0,.16,6,20.61,20.61,0,0,0-2.57,1.58,21.42,21.42,0,0,0-7.43,9.39,19.94,19.94,0,0,0-1.35,5.89c-.13,2-.19,4-.28,5.93-.15,3.94-.33,7.88-.38,11.84s.11,7.75.35,11.61A27,27,0,0,0,95.8,615a26.42,26.42,0,0,0-2.4,4.56,22,22,0,0,0-1.41,5,15.43,15.43,0,0,0,2.17,10,26.17,26.17,0,0,0,3,4.16l.1.1A189.71,189.71,0,0,0,91.78,677a125.53,125.53,0,0,0,.76,19.76,67.62,67.62,0,0,0,4.81,18.47c-.27,1-.51,1.94-.73,2.92a50.07,50.07,0,0,0-1.21,10.63,48.9,48.9,0,0,0,1,10.25h0c0,.12,0,.24.08.36,0-.12,0-.24,0-.36l30.66.24,30.79.14q15.41.07,30.8.1l30.79,0h.67l-.16-.64a110,110,0,0,0-4.49-13.8,107.41,107.41,0,0,0-6.17-13.12A70.49,70.49,0,0,0,201,700.07c-.8-.91-1.65-1.78-2.52-2.62s-1.77-1.65-2.71-2.4a35.94,35.94,0,0,0-2.92-2.15,32.56,32.56,0,0,0-3.13-1.81,35.59,35.59,0,0,1,5.84,4.2A46.76,46.76,0,0,1,200.6,700.44Zm-53.9-140a13.09,13.09,0,0,1-1.16,2.69,9.22,9.22,0,0,1-1.82,2.25,7.59,7.59,0,0,1-2.44,1.46c-.23.07-.45.17-.68.22l-.7.16-.71.1a5.79,5.79,0,0,1-.72,0l-.36,0-.36,0-.72,0-.71-.09-.36,0-.36-.07-.7-.15c-.24-.05-.47-.13-.71-.19l-.69-.2-.09,0c-.82-3.22-1.54-6.46-2.18-9.72-.66-3.41-1.23-6.83-1.67-10.27s-.78-6.89-1-10.36c-.17-3.26-.23-6.53-.13-9.81l.09.11a5.41,5.41,0,0,0,1.55,1.35,2.75,2.75,0,0,0,2,.34,25,25,0,0,0,.77,5.5,41.19,41.19,0,0,0,1.71,5.32,46.72,46.72,0,0,0,2.41,5.05c.89,1.64,1.91,3.21,2.93,4.76s2.08,3.09,3.22,4.57c.58.74,1.17,1.47,1.77,2.18s1.18,1.4,1.71,2.14c.13.18.25.37.38.56l.2.28A15.5,15.5,0,0,1,146.7,560.46Zm-37.1,2.73A20.55,20.55,0,0,1,110,560a19.9,19.9,0,0,1,2.35-6,23.35,23.35,0,0,1,4-5,33.93,33.93,0,0,1,3.24-2.71q1.36,4.1,3,8.09c-.93-2.77-1.81-5.56-2.61-8.37.5-.37,1-.72,1.52-1.06-.53.26-1.06.54-1.58.84-1.08-3.76-2-7.56-2.74-11.39-.18-.85-.3-1.7-.44-2.55s-.3-1.7-.42-2.55l-.31-2.56-.15-1.28c0-.42-.07-.85-.11-1.28l-.2-2.57c0-.86-.06-1.71-.09-2.57-.09-1.72,0-3.43,0-5.14a66.28,66.28,0,0,1,1.28-10.15A47.29,47.29,0,0,1,120,494a40.85,40.85,0,0,1,5.22-8.68,35.37,35.37,0,0,1,3.42-3.71c.31-.3.62-.58.94-.85s.64-.53,1-.8.66-.51,1-.75.69-.47,1-.65l.08-.05,0,0a93.11,93.11,0,0,1,15.61-10.39l2.1-1,1.05-.52,1.08-.45,2.16-.91c.72-.27,1.46-.52,2.2-.78l1.1-.38c.37-.12.75-.22,1.12-.32.75-.21,1.5-.44,2.25-.64l2.29-.48.57-.13.57-.08,1.16-.17a42,42,0,0,1,9.31-.28,37.63,37.63,0,0,1,9.12,2,40.1,40.1,0,0,1,8.41,4.15,41.58,41.58,0,0,1,3.78,2.81l.87.75h0a27.46,27.46,0,0,1,2.53,2.53,29.16,29.16,0,0,0-2.15-2.43,13.28,13.28,0,0,1,2.12.82,16,16,0,0,1,2.3,1.34,18.45,18.45,0,0,1,3.86,3.57,24.55,24.55,0,0,1,4.58,9.37,43.76,43.76,0,0,1,1.24,10.46,69.73,69.73,0,0,1-.8,10.59c-.44,3.2-.86,6.45-1.1,9.7a2.93,2.93,0,0,0-1.91-1.51,5.24,5.24,0,0,0-2.59.13,11.19,11.19,0,0,0-2.29.92,24,24,0,0,0-4,2.67,1.58,1.58,0,0,1-.67.23,1.1,1.1,0,0,1-.36,0,.85.85,0,0,1-.32-.18.84.84,0,0,0,.31.22.78.78,0,0,0,.37.09,1.69,1.69,0,0,0,.77-.16h0a31.47,31.47,0,0,1,4.19-2.26,12,12,0,0,1,2.22-.73,4.52,4.52,0,0,1,2.16,0,.92.92,0,0,1,.23.09l.23.1a1.82,1.82,0,0,1,.38.29,2.06,2.06,0,0,1,.52.82,5,5,0,0,1,.19,2.15,15.6,15.6,0,0,1-1.25,4.45,29.07,29.07,0,0,1-2.19,4.17l-.62,1-.71.93-.36.46-.39.43-.39.44a4.07,4.07,0,0,1-.42.41,9.75,9.75,0,0,1-3.92,2.42,8.14,8.14,0,0,1-2.3.38,6.91,6.91,0,0,1-2.34-.37,6.39,6.39,0,0,0,2.32.66,8.07,8.07,0,0,0,2.46-.17,9.79,9.79,0,0,0,4.34-2.31,3.55,3.55,0,0,0,.46-.41l.43-.44.44-.43c.14-.16.26-.32.39-.48l.78-1,.68-1a19.31,19.31,0,0,0,1.26-2.09c.4-.71.74-1.45,1.08-2.2.24-.56.46-1.13.65-1.72v.54a40.17,40.17,0,0,0,.43,5.46,24.83,24.83,0,0,0,1.42,5.33,23.8,23.8,0,0,0,2.67,4.79c1.05,1.47,2.12,2.89,3,4.42a25,25,0,0,1,2,4.43c-.91.82-1.82,1.65-2.71,2.5a89.19,89.19,0,0,0-6.23,6.52,23.55,23.55,0,0,0-7.67,1.55l-.95.35-.92.41c-.61.27-1.22.54-1.81.86-1.19.6-2.34,1.3-3.47,2l-1.66,1.13-1.6,1.2-1.55,1.27c-.5.43-1,.88-1.49,1.33s-1.2,1.14-1.78,1.74a19.78,19.78,0,0,1-1.3-4.15c-.07-.37-.12-.75-.18-1.12,0-.18-.06-.37-.08-.56l0-.56c0-.38-.07-.75-.09-1.13V560.7a32.49,32.49,0,0,1,1.33-8.92c.17-.74.42-1.46.66-2.18s.46-1.44.76-2.14l.82-2.12c.32-.69.63-1.39.94-2.08l.46-1,.52-1,1-2.05c.33-.69.73-1.34,1.09-2l1.08-2c-.45.62-.9,1.25-1.34,1.88l-.66.95c-.22.32-.44.63-.63,1l-1.19,2-.19.32q-1,1.25-2.1,2.43a46.58,46.58,0,0,1-4.06,3.76c-2.83,2.38-5.87,4.49-8.89,6.63-1.52,1.06-3,2.12-4.55,3.21l-2.25,1.64a24.16,24.16,0,0,1-2.27,1.51,18.85,18.85,0,0,1-5,2.06,18.22,18.22,0,0,1-2.66.44,11.83,11.83,0,0,1-2.66-.05,11.55,11.55,0,0,1-4.93-1.84,11.43,11.43,0,0,1-2-1.71,9.27,9.27,0,0,1-.87-1l-.8-1.12c-.56-.77-1.18-1.49-1.79-2.18s-1.19-1.4-1.77-2.13c-1.13-1.44-2.22-2.93-3.27-4.45a56.19,56.19,0,0,1-5.55-9.55,39.21,39.21,0,0,1-1.92-5.18c-.13-.45-.24-.89-.36-1.34s-.21-.9-.3-1.35a19.62,19.62,0,0,1-.38-2.74h0l0-.15v.14a2.81,2.81,0,0,1-1.82-.55,5.63,5.63,0,0,1-1.31-1.4,15.71,15.71,0,0,1-1.69-3.53,37.48,37.48,0,0,1-1.11-3.79c-.31-1.27-.57-2.56-.79-3.84-.06-1.83-.09-3.65,0-5.46a23.8,23.8,0,0,1,.32-2.69,7.05,7.05,0,0,1,.84-2.44,2.14,2.14,0,0,1,.81-.8,1.7,1.7,0,0,1,1.1-.14,5.86,5.86,0,0,1,2.31,1.16,17.56,17.56,0,0,1,2,1.83c.64.66,1.26,1.35,1.84,2.07-.36-.6-.75-1.18-1.16-1.75a30.94,30.94,0,0,1,2.1-3.08,24.88,24.88,0,0,1,2.7-2.91,21.47,21.47,0,0,1,6.65-4.16,25.48,25.48,0,0,1,7.66-1.65q.6,0,1.2-.06c-.83.17-1.65.35-2.47.57a29.86,29.86,0,0,0-3.19,1.07,20.22,20.22,0,0,0-3,1.52,12.72,12.72,0,0,0-2.59,2.15,8.38,8.38,0,0,0-1.72,2.86,8.78,8.78,0,0,1,2-2.62,12.26,12.26,0,0,1,2.65-1.88,24.5,24.5,0,0,1,6.12-2.22,44.38,44.38,0,0,1,6.47-1,2.42,2.42,0,0,1,1.34.23,2.21,2.21,0,0,1,.94.9,1.25,1.25,0,0,1,.12.3l.06.15s0,.09,0,.13a.48.48,0,0,1-.08.38,1.53,1.53,0,0,1-1,.37,19,19,0,0,0-5-1.06,15.39,15.39,0,0,0-2.63,0,14.13,14.13,0,0,0-2.58.48,15.44,15.44,0,0,0-6.69,3.86,12.46,12.46,0,0,0-1.67,2A16.31,16.31,0,0,1,144.7,500a16.14,16.14,0,0,1,2.24-1.12,16.92,16.92,0,0,1,2.39-.74,13.61,13.61,0,0,1,2.46-.34,15.78,15.78,0,0,1,2.48.05,20.1,20.1,0,0,1,4.83,1.14l.1,0h.08a3.53,3.53,0,0,0,1-.16,2,2,0,0,0,1-.6,1.38,1.38,0,0,0,.29-.58,1,1,0,0,0,0-.3v-.16l0-.13a2.36,2.36,0,0,0,0-.28l-.08-.24a2.46,2.46,0,0,0-.2-.47,3.2,3.2,0,0,0-1-1.1h.34c2.69-.1,5.37-.24,8-.55a59.69,59.69,0,0,0,7.95-1.44,29.67,29.67,0,0,0,7.52-3,14.9,14.9,0,0,0,3.18-2.52c.26-.3.51-.61.74-.93a6.23,6.23,0,0,0-.24.73,4.61,4.61,0,0,0-.16,1.36,4.65,4.65,0,0,0,.94-1c.09-.12.16-.26.24-.39l0,.14a4,4,0,0,0-.06,1.25,3.67,3.67,0,0,0,.77-.81,6.17,6.17,0,0,0,.27,3.24,10.56,10.56,0,0,0,3,4.2,16.51,16.51,0,0,0,2,1.6,18,18,0,0,1,1.93,1.5,9.43,9.43,0,0,1,2.69,3.88,8.29,8.29,0,0,1,.23,4.66,9.45,9.45,0,0,1-.34,1.15c-.07.19-.14.36-.22.56s-.17.4-.24.6a11.08,11.08,0,0,0-.41,1.23c-.11.41-.22.82-.32,1.24a27.55,27.55,0,0,0-.77,5,16.71,16.71,0,0,0,0,2.55,8.86,8.86,0,0,0,.23,1.25,2.58,2.58,0,0,0,.55,1.14,2.5,2.5,0,0,1-.39-1.17,8.52,8.52,0,0,1-.09-1.24,17.14,17.14,0,0,1,.18-2.48,32.53,32.53,0,0,1,1.06-4.87c.12-.39.24-.79.37-1.19a12,12,0,0,1,.42-1.14c.08-.19.16-.37.25-.56s.18-.4.26-.6a10.9,10.9,0,0,0,.41-1.26,9.16,9.16,0,0,0-.2-5.26,10.44,10.44,0,0,0-3-4.29,17.73,17.73,0,0,0-2.1-1.52,21.49,21.49,0,0,1-2-1.45,10.7,10.7,0,0,1-3-3.75,6,6,0,0,1-.48-3.51,7.46,7.46,0,0,0,.35-.69,6.27,6.27,0,0,0,.35-1.14,4.27,4.27,0,0,0,.06-1.25,4.06,4.06,0,0,0-.85.92l0,.06a4.88,4.88,0,0,0,.15-1.34,4.59,4.59,0,0,0-.93,1h0a4,4,0,0,0,.21-1,4.48,4.48,0,0,1-.75,1.82,8.36,8.36,0,0,1-1.25,1.53,14.21,14.21,0,0,1-3.23,2.26,31.59,31.59,0,0,1-7.46,2.6,83,83,0,0,1-15.82,1.72l-2,.05h-2c-1.32,0-2.69,0-4,.1a25.07,25.07,0,0,0-7.91,1.89,22.2,22.2,0,0,0-3.58,2,22.89,22.89,0,0,0-3.12,2.6,25,25,0,0,0-4.45,6.36,17.27,17.27,0,0,0-2.33-2.59,6.2,6.2,0,0,0-2.53-1.47,2.6,2.6,0,0,0-1.62.14,2.91,2.91,0,0,0-1.21,1.06,8,8,0,0,0-1.06,2.74,19.64,19.64,0,0,0-.39,2.83c-.06.94-.09,1.87-.09,2.81s0,1.87.09,2.8v.06a38.24,38.24,0,0,0,.9,3.95,33.17,33.17,0,0,0,1.32,3.82,17.17,17.17,0,0,0,.89,1.83,12,12,0,0,0,1,1.54,72.43,72.43,0,0,0-.39,9.88,101.05,101.05,0,0,0,.81,10.43q.67,5.19,1.83,10.3a96.8,96.8,0,0,0,2.7,9.59l-.56-.2-.69-.25-.67-.28-1.37-.57a25.15,25.15,0,0,0-11.79-1.91,23,23,0,0,0-8.61,2.51A16.86,16.86,0,0,1,109.6,563.19ZM93.07,624.64a17.69,17.69,0,0,1,.75-3.16,18.19,18.19,0,0,1,2.68-.69,9.5,9.5,0,0,1,3.09-.15,3.62,3.62,0,0,1,1.38.49,2.41,2.41,0,0,1,.92,1,3.69,3.69,0,0,1,.33,1.41,7.06,7.06,0,0,1-.06,1.52c0,.25-.09.5-.13.75s-.12.49-.22.72a3.1,3.1,0,0,1-.75,1.2,2.3,2.3,0,0,1-1.24.6,4.29,4.29,0,0,1-1.47,0,11,11,0,0,1-2.92-1.08A21.42,21.42,0,0,1,93,625.77C93,625.39,93,625,93.07,624.64Zm1.82,81.67a93.51,93.51,0,0,1-1.5-9.7c-.33-3.26-.52-6.53-.59-9.8s-.06-6.55.07-9.83.32-6.54.59-9.81.62-6.53,1-9.79.85-6.51,1.36-9.75c.44-2.94,1-5.87,1.51-8.79a18.92,18.92,0,0,0,1.7,1.65,14.29,14.29,0,0,0,2.11,1.52c.37.23.76.42,1.14.63l.66.29c-.52,2.19-1,4.41-1.33,6.64s-.8,4.76-1.09,7.16a142.43,142.43,0,0,0-1.07,14.46c0,2.42,0,4.84.16,7.27s.43,4.83.83,7.23a45.75,45.75,0,0,0,1.8,7.09,28.31,28.31,0,0,0,3,6.19l-.18.2c-.16.18-.3.36-.44.54-.28.37-.54.73-.79,1.11-.51.74-1,1.51-1.44,2.29A48.92,48.92,0,0,0,100,707.9a51.69,51.69,0,0,0-2.6,7.21A63.26,63.26,0,0,1,94.89,706.31Z"/><path d="M260.21,506.69q-.1-9.75-.43-19.5-.31,9.75-.42,19.5c-.05,3.25-.06,6.5-.09,9.75l0,9.75,0,9.75c0,3.25,0,6.5.09,9.75q.11,9.75.42,19.5.32-9.75.42-19.5c.05-3.25.07-6.5.1-9.75l0-9.75,0-9.75C260.27,513.19,260.26,509.94,260.21,506.69Z"/><path d="M249.37,575.62c-3.54,3.4-7.12,6.75-10.83,10-1.84,1.62-3.73,3.18-5.64,4.71s-3.86,3-5.84,4.45-4,2.79-6.12,4a55,55,0,0,1-5.29,2.86c.29-.51.57-1,.85-1.54.59-1.11,1.18-2.22,1.73-3.35,1.12-2.25,2.18-4.54,3.09-6.88-1.31,2.14-2.58,4.31-3.83,6.48s-2.51,4.34-3.78,6.5-2.55,4.3-3.89,6.41c-.67,1-1.36,2.09-2.09,3.1a22.56,22.56,0,0,1-2.37,2.9,16.5,16.5,0,0,0,2.79-2.56c.84-1,1.63-1.94,2.37-3s1.45-2.07,2.15-3.12,1.33-2.14,2-3.22l.91-1.6a50.05,50.05,0,0,0,5.64-2.56l0,0c-.25,1.84-.54,3.67-.94,5.48a56.88,56.88,0,0,1-1.7,6c-.32,1-.69,1.94-1,2.91l-1.16,2.88-1.26,2.83-1.35,2.79c-1.86,3.69-3.8,7.35-5.89,10.91-1,1.8-2.12,3.56-3.17,5.34l-3.29,5.27-1.59,2.69-.8,1.35-.39.67-.36.7-1.43,2.78c-.24.47-.48.93-.71,1.4l-.63,1.43-1.25,2.87c-.39,1-.73,1.95-1.1,2.93l-.54,1.46c-.18.49-.31,1-.47,1.49l-.89,3a71.39,71.39,0,0,0-2.12,12.31l-.11,1.56c0,.51,0,1,0,1.56s0,1,0,1.56l0,1.56a34.74,34.74,0,0,0,.72,6.18,47.87,47.87,0,0,1-.07-12.37,71.51,71.51,0,0,1,2.39-12.13,92.15,92.15,0,0,1,10.28-22.42,201.12,201.12,0,0,0,12.19-21.74l1.28-2.84,1.2-2.88,1.1-2.92c.33-1,.69-2,1-3a57.5,57.5,0,0,0,1.47-6.06,49.66,49.66,0,0,0,.69-5.56,68.49,68.49,0,0,0,6.27-3.77,119.28,119.28,0,0,0,11.71-9c1.86-1.62,3.69-3.27,5.47-5s3.54-3.42,5.25-5.2c3.43-3.53,6.72-7.19,9.81-11-1.71,1.77-3.41,3.54-5.16,5.27S251.13,573.91,249.37,575.62Z"/><path d="M132.18,521.92c0-.68,0-1.36.06-2,0-1.34.12-2.69.26-4a29.65,29.65,0,0,1,.66-4,12.17,12.17,0,0,0-1.5,3.87,22.1,22.1,0,0,0-.51,4.12c0,.35,0,.69,0,1s0,.69,0,1c0,.69.07,1.38.15,2.06a22.36,22.36,0,0,0,.76,4.06c.05-1.38.07-2.74.08-4.09C132.16,523.27,132.15,522.59,132.18,521.92Z"/><path d="M191.18,616.32l-.36,1.44-.18.71-.23.71c-.6,1.87-1.1,3.78-1.85,5.6l-.53,1.37c-.18.46-.33.93-.55,1.37l-1.22,2.67a51.67,51.67,0,0,1-6.22,9.92l-.94,1.12c-.3.38-.66.72-1,1.07s-.66.72-1,1.05l-1.07,1a24.57,24.57,0,0,1-4.7,3.35,6,6,0,0,1-.63.3c-.2.1-.46.2-.69.3l-1.36.55-1.35.55-1.39.45c-.92.34-1.87.53-2.81.78l-.35.09-.36.06-.72.12L161,651l-.36.06-.36,0-1.45.13c-.48,0-1,0-1.44,0h-.73l-.72-.06-.72-.07-.36,0-.35-.06-1.43-.26-1.39-.38a18.38,18.38,0,0,1-2.69-1.07,23.44,23.44,0,0,1-8.7-7.59,36.74,36.74,0,0,1-5.28-10.5,32.81,32.81,0,0,0,2,5.59,35.73,35.73,0,0,0,2.88,5.21,24.12,24.12,0,0,0,8.77,8,18.59,18.59,0,0,0,5.73,1.9l.37.07.37,0,.76.07.75.08h.76c.5,0,1,0,1.51,0l1.51-.12.38,0,.37-.06.74-.12.75-.13.37-.06.37-.09a28.82,28.82,0,0,0,2.9-.78l1.43-.47c.47-.17.93-.37,1.39-.55l1.39-.56.67-.28a6.67,6.67,0,0,0,.71-.34,25.44,25.44,0,0,0,4.92-3.52l1.1-1c.36-.34.69-.72,1-1.08s.7-.72,1-1.11l1-1.16A49.71,49.71,0,0,0,187,630.55l1.17-2.74c.21-.45.35-.93.52-1.4l.49-1.4c.71-1.86,1.18-3.79,1.73-5.69l.19-.72c.06-.24.1-.48.16-.73l.3-1.45.6-2.91c.31-2,.57-3.91.85-5.87l-1.13,5.82Z"/><path d="M140.17,581.91c.89.73,1.77,1.47,2.58,2.25a5.48,5.48,0,0,1,.59.59c.19.2.37.4.56.63.37.44.76.88,1.15,1.32a16.94,16.94,0,0,0,2.65,2.4,4.9,4.9,0,0,0,1.76.8l.26,0H150a2.48,2.48,0,0,0,.54-.06,2.75,2.75,0,0,0,1-.42,6.56,6.56,0,0,0,1.35-1.33c.37-.47.7-.94,1.05-1.4a18.54,18.54,0,0,1,2.18-2.55,17.83,17.83,0,0,1,5.82-3.29,58.69,58.69,0,0,1,6.58-2c2.23-.56,4.49-1,6.77-1.4a69.18,69.18,0,0,0-6.88.88,49.86,49.86,0,0,0-6.76,1.69,24.76,24.76,0,0,0-3.25,1.35c-.26.13-.53.26-.79.41l-.76.48a9.47,9.47,0,0,0-1.43,1.09,19,19,0,0,0-2.34,2.68c-.35.46-.68.92-1,1.36a5.42,5.42,0,0,1-1.11,1.09,1.57,1.57,0,0,1-1.25.28,4,4,0,0,1-1.36-.62A17.22,17.22,0,0,1,145.8,586c-.38-.42-.77-.84-1.15-1.27-.18-.21-.39-.43-.6-.65s-.43-.42-.64-.62c-.87-.8-1.79-1.51-2.71-2.21-3.71-2.79-7.58-5.31-11.53-7.71,1.85,1.38,3.72,2.74,5.55,4.14S138.39,580.47,140.17,581.91Z"/><path d="M137.09,704.71a8.47,8.47,0,0,0-.19-1l-.11-.48a2.72,2.72,0,0,0-.13-.49l-.32-.94a6.14,6.14,0,0,0-.38-.92l-.43-.9c-.31-.59-.67-1.14-1-1.71s-.8-1.06-1.19-1.58-.82-1-1.23-1.49-.81-1-1.21-1.48l-1.18-1.52c-.77-1-1.52-2.05-2.21-3.13q-.51-.8-1-1.65-.21-.42-.39-.87a3,3,0,0,1-.24-.92,5.06,5.06,0,0,0,.36,1.91c.11.3.23.61.36.91s.27.59.41.88a32.18,32.18,0,0,0,2,3.36c.71,1.09,1.49,2.13,2.28,3.16.39.51.82,1,1.2,1.51s.76,1,1.12,1.51l0,.06q-.14.39-.24.78c-.18.6-.28,1.22-.4,1.83a18.63,18.63,0,0,0-.27,3.74,11.8,11.8,0,0,0,.75,3.74,6.4,6.4,0,0,0,.43.87c.09.14.17.28.26.41l.3.39a4,4,0,0,0,.72.65,2.41,2.41,0,0,0,.67.36,14.17,14.17,0,0,1-.54,1.5,12.3,12.3,0,0,0,1.86-7.52Zm-1.19,6.93a3.31,3.31,0,0,1-.49-.5,3.9,3.9,0,0,1-.48-.74l-.2-.39c-.06-.13-.1-.27-.16-.41s-.18-.55-.27-.83a19.5,19.5,0,0,1-.47-3.51v-.9c0-.3,0-.6,0-.9,0-.6,0-1.21,0-1.81,0-.31,0-.61,0-.92s0-.61,0-.92c0-.13,0-.26,0-.39a16.28,16.28,0,0,1,2.39,6.37A14.52,14.52,0,0,1,135.9,711.64Z"/><path d="M160.87,526.39l1.76-2.13c.59-.73,1.18-1.45,1.73-2.24a13.12,13.12,0,0,0-2.34,1.64,16.69,16.69,0,0,0-2,2,11.55,11.55,0,0,0-1.57,2.42,7.23,7.23,0,0,0-.5,1.37,3.61,3.61,0,0,0-.06,1.46,8.73,8.73,0,0,1,1.29-2.41C159.72,527.8,160.29,527.09,160.87,526.39Z"/><path d="M158.2,532.63a3.21,3.21,0,0,0,1.41,1.08,14.34,14.34,0,0,0,3.17,1,8,8,0,0,0,3.4,0,3.78,3.78,0,0,0,1.58-.78,2.36,2.36,0,0,0,.81-1.5,2.64,2.64,0,0,1-1.12,1.06,4.11,4.11,0,0,1-1.42.39,11.28,11.28,0,0,1-3.05-.23c-1-.2-2-.47-3.07-.76a3.08,3.08,0,0,1-1.31-.63,2.18,2.18,0,0,1-.7-1.33A2,2,0,0,0,158.2,532.63Z"/><path d="M168.92,530.26c0-.73,0-1.47-.07-2.2-.1-1.46-.25-2.92-.46-4.36-.11-.72-.21-1.45-.34-2.16s-.26-1.44-.41-2.16a42.09,42.09,0,0,0-1.1-4.25c0,1.47.12,2.93.26,4.38.06.73.16,1.45.23,2.18l.29,2.16c.2,1.44.44,2.88.69,4.31l.38,2.15.09.53c0,.18.05.36.08.54a3.49,3.49,0,0,1,0,1.07,3,3,0,0,0,.3-1.07C168.9,531,168.91,530.63,168.92,530.26Z"/><path d="M169.57,547.07a6.61,6.61,0,0,1-1.89-.52,9.19,9.19,0,0,1-2.42-1.57,8,8,0,0,1-.65-.65l-.35-.42-.63.23c-.21.08-.41.17-.62.24s-.41.12-.62.14a3.35,3.35,0,0,1-1.18,0,3.21,3.21,0,0,1-1.53-.81l-.21-.21-.16-.19-.45-.55-.56.17a12.91,12.91,0,0,1-2.43.48,21.79,21.79,0,0,1-2.56,0,34.83,34.83,0,0,1-5.27-.75,13.37,13.37,0,0,0,2.45,1.23,16.9,16.9,0,0,0,2.65.8,14.46,14.46,0,0,0,2.8.3,10.89,10.89,0,0,0,2.27-.25,2.39,2.39,0,0,0,.22.23,4.52,4.52,0,0,0,.72.59,4.35,4.35,0,0,0,1.74.7c.16,0,.31,0,.47.05h.47c.15,0,.31,0,.46,0l.45-.09a2.09,2.09,0,0,0,.43-.11l.42-.14.27-.13c.14.12.28.22.43.33a10.88,10.88,0,0,0,1,.61,8.28,8.28,0,0,0,2.11.8,6.91,6.91,0,0,0,1.11.16h.83l.28,0a5.81,5.81,0,0,0,2.05-.66A7.84,7.84,0,0,1,169.57,547.07Z"/><path d="M165.09,550c-.71,0-1.41,0-2.1,0l-1,0h-.52l-.5,0c-.34,0-.68-.06-1-.08l-1-.15a15.49,15.49,0,0,1-3.82-1.11,12.52,12.52,0,0,1-3.44-2.29,6.94,6.94,0,0,0,2.73,3.52,10.26,10.26,0,0,0,4.24,1.67c.37.05.75.11,1.13.14l1.13,0c.18,0,.37,0,.56,0l.56-.06c.37,0,.74-.09,1.1-.15a21.71,21.71,0,0,0,2.14-.57,20.3,20.3,0,0,0,2-.92C166.52,549.93,165.8,550,165.09,550Z"/><path d="M152.43,518.24a7.19,7.19,0,0,0,2.63-.43l.31-.13.27-.12.58-.2.3-.09a1.14,1.14,0,0,0,.35-.17,1.15,1.15,0,0,0,.45-.55,3.36,3.36,0,0,0,.15-.65l.12-.62.24-1.24-.33,1.22-.17.61a1.41,1.41,0,0,1-.23.56,1,1,0,0,1-.43.33.73.73,0,0,1-.24.07l-.32,0-.65.11-.32.09-.29.07a10,10,0,0,1-4.75-.3,15.66,15.66,0,0,1-4.42-2,8.48,8.48,0,0,1-1-.73,4.42,4.42,0,0,1-.81-.86,2.8,2.8,0,0,1-.46-2.29,2.58,2.58,0,0,0-.34,1.26,3.06,3.06,0,0,0,.32,1.32,4.79,4.79,0,0,0,.77,1.11,9.15,9.15,0,0,0,1,.91,12.59,12.59,0,0,0,4.67,2.33A10.82,10.82,0,0,0,152.43,518.24Z"/><path d="M152.53,508a9,9,0,0,0-4.26-.1,13.75,13.75,0,0,0-3.9,1.44l0,0h0c-.12.13-.21.24-.31.37a4.11,4.11,0,0,0-.24.39,3.06,3.06,0,0,0-.33.85,4.6,4.6,0,0,1,.53-.7c.1-.11.2-.2.31-.3l.29-.23a23.15,23.15,0,0,1,3.86-.89c.32,0,.65-.08,1-.08a7.69,7.69,0,0,1,1,0,9.16,9.16,0,0,1,1.89.26,8,8,0,0,1,1.75.7,8.34,8.34,0,0,1,1.54,1.13,10.75,10.75,0,0,1,2.29,3.23,7.6,7.6,0,0,0-1.72-3.77A7.15,7.15,0,0,0,152.53,508Z"/><path d="M181.94,516.27h-.08a1.5,1.5,0,0,0-1.27,1.48,1.8,1.8,0,0,0,.32,1.24,1.06,1.06,0,0,0,.75.45h.08A1.5,1.5,0,0,0,183,518,1.45,1.45,0,0,0,181.94,516.27Z"/><path d="M181.5,521.24h0a2.31,2.31,0,0,1-.69-.16A2.31,2.31,0,0,0,181.5,521.24Z"/><path class="cls-15" d="M184.83,517.75a4.07,4.07,0,0,0-.05-.61A4.07,4.07,0,0,1,184.83,517.75Z"/><path class="cls-22" d="M184.83,517.75a4.07,4.07,0,0,0-.05-.61A4.07,4.07,0,0,1,184.83,517.75Z"/><path class="cls-15" d="M181.86,514.45h0Z"/><path class="cls-22" d="M181.86,514.45h0Z"/><path class="cls-15" d="M181.74,521.25h0Z"/><path class="cls-22" d="M181.74,521.25h0Z"/><path d="M184.7,516.77a3.52,3.52,0,0,0-.56-1.13,2.92,2.92,0,0,0-.41-.45,2.73,2.73,0,0,0-1.33-.68,1.57,1.57,0,0,0-.3,0h-.58l-.13,0-.16,0-.13,0-.15.05-.13,0-.14.06-.12.06-.14.08-.12.07-.13.09-.11.09-.12.1-.1.1-.12.12-.09.1-.11.13a.76.76,0,0,0-.08.11l-.1.15-.07.11-.09.16-.06.12c0,.06-.05.12-.07.17a1.12,1.12,0,0,0-.05.13l-.06.19a.56.56,0,0,0,0,.12,1.74,1.74,0,0,0-.05.22.43.43,0,0,0,0,.11c0,.11,0,.22-.05.33h0c0,.11,0,.23,0,.34a3.63,3.63,0,0,0,.51,1.87,3.08,3.08,0,0,0,.37.5,2.18,2.18,0,0,0,.22.21,2.42,2.42,0,0,0,.31.25,3.11,3.11,0,0,0,.63.32,2.31,2.31,0,0,0,.69.16h.58l.13,0,.16,0,.13,0,.15,0,.13-.05.14-.06.12-.06.14-.08.12-.07.13-.09.11-.09.12-.1.1-.1a.68.68,0,0,0,.12-.12l.09-.1.11-.13.08-.11.1-.15.07-.11a1.19,1.19,0,0,0,.08-.16.75.75,0,0,0,.07-.12c0-.06.05-.12.07-.17a1.12,1.12,0,0,0,0-.13l.06-.19a.56.56,0,0,0,0-.12c0-.07,0-.15.05-.22a.43.43,0,0,0,0-.11c0-.11,0-.22,0-.33s0-.24,0-.35v0a4.07,4.07,0,0,0-.05-.61C184.76,517,184.73,516.89,184.7,516.77ZM183,518a1.5,1.5,0,0,1-1.27,1.48h-.08a1.06,1.06,0,0,1-.75-.45,1.8,1.8,0,0,1-.32-1.24,1.5,1.5,0,0,1,1.27-1.48h.08A1.45,1.45,0,0,1,183,518Zm1.05,0-.73-.07.1-1.08.72.06Z"/><path class="cls-23" d="M184.7,516.77a3.52,3.52,0,0,0-.56-1.13,2.92,2.92,0,0,0-.41-.45,2.73,2.73,0,0,0-1.33-.68,1.57,1.57,0,0,0-.3,0h-.58l-.13,0-.16,0-.13,0-.15.05-.13,0-.14.06-.12.06-.14.08-.12.07-.13.09-.11.09-.12.1-.1.1-.12.12-.09.1-.11.13a.76.76,0,0,0-.08.11l-.1.15-.07.11-.09.16-.06.12c0,.06-.05.12-.07.17a1.12,1.12,0,0,0-.05.13l-.06.19a.56.56,0,0,0,0,.12,1.74,1.74,0,0,0-.05.22.43.43,0,0,0,0,.11c0,.11,0,.22-.05.33h0c0,.11,0,.23,0,.34a3.63,3.63,0,0,0,.51,1.87,3.08,3.08,0,0,0,.37.5,2.18,2.18,0,0,0,.22.21,2.42,2.42,0,0,0,.31.25,3.11,3.11,0,0,0,.63.32,2.31,2.31,0,0,0,.69.16h.58l.13,0,.16,0,.13,0,.15,0,.13-.05.14-.06.12-.06.14-.08.12-.07.13-.09.11-.09.12-.1.1-.1a.68.68,0,0,0,.12-.12l.09-.1.11-.13.08-.11.1-.15.07-.11a1.19,1.19,0,0,0,.08-.16.75.75,0,0,0,.07-.12c0-.06.05-.12.07-.17a1.12,1.12,0,0,0,0-.13l.06-.19a.56.56,0,0,0,0-.12c0-.07,0-.15.05-.22a.43.43,0,0,0,0-.11c0-.11,0-.22,0-.33s0-.24,0-.35v0a4.07,4.07,0,0,0-.05-.61C184.76,517,184.73,516.89,184.7,516.77ZM183,518a1.5,1.5,0,0,1-1.27,1.48h-.08a1.06,1.06,0,0,1-.75-.45,1.8,1.8,0,0,1-.32-1.24,1.5,1.5,0,0,1,1.27-1.48h.08A1.45,1.45,0,0,1,183,518Zm1.05,0-.73-.07.1-1.08.72.06Z"/><rect class="cls-3" x="183.2" y="516.98" width="1.09" height="0.73" transform="translate(-347.67 655.23) rotate(-84.99)"/><path d="M175.17,518.21a1.31,1.31,0,0,0,.15,1.22,4.56,4.56,0,0,0,.42.44,4.78,4.78,0,0,1,.39.39,10,10,0,0,0,.79.85,8.58,8.58,0,0,0,1,.72,10.81,10.81,0,0,0,4.46,1.45,12.21,12.21,0,0,0,4.66-.36,5.3,5.3,0,0,0,2.13-1.1,3.09,3.09,0,0,0,.7-1,2.71,2.71,0,0,0,.19-1.15,3,3,0,0,1-.45,1,2.89,2.89,0,0,1-.76.72,5.66,5.66,0,0,1-2,.69,15,15,0,0,1-4.34.09,14.15,14.15,0,0,1-2.14-.4,11,11,0,0,1-2-.75,6.58,6.58,0,0,1-.92-.55c-.29-.2-.53-.42-.86-.7-.15-.12-.31-.23-.47-.34a3.68,3.68,0,0,1-.44-.3,1.05,1.05,0,0,1-.3-.91l.64-2-.8,2Z"/><path d="M189.55,518.09l.16.33c0,.13.1.27.14.4a4.19,4.19,0,0,1,.17.87,3.06,3.06,0,0,0,.08-.91,3.59,3.59,0,0,0,0-.46,4.35,4.35,0,0,0-.11-.46h0l0-.05a13.72,13.72,0,0,0-2.82-3,8.72,8.72,0,0,0-3.8-1.78,6.88,6.88,0,0,0-4.2.51,7.5,7.5,0,0,0-3.11,2.67,10.25,10.25,0,0,1,3.4-1.93,8,8,0,0,1,1.85-.35,8.2,8.2,0,0,1,1.85.14,10.64,10.64,0,0,1,3.45,1.53A23.47,23.47,0,0,1,189.55,518.09Z"/><path d="M122.56,524.28c0-1.54.07-3.08.11-4.62s.2-3.08.31-4.61l.28-2.29.14-1.15.08-.57.1-.57.4-2.27c.08-.38.12-.76.21-1.13l.26-1.13.52-2.24.66-2.21c.11-.37.21-.74.33-1.1l.39-1.09c.27-.71.5-1.45.8-2.15l.92-2.11a9.93,9.93,0,0,1,.5-1l.52-1a43.28,43.28,0,0,1,5-7.67,40,40,0,0,1,14.55-11,35.26,35.26,0,0,1,8.81-2.71,34,34,0,0,0-8.95,2.38,40.9,40.9,0,0,0-8.11,4.55,38.67,38.67,0,0,0-6.8,6.36,43.33,43.33,0,0,0-5.16,7.77l-.53,1c-.18.35-.35.69-.5,1.05l-.91,2.15c-.3.72-.53,1.46-.8,2.19l-.39,1.1c-.12.37-.22.74-.33,1.12l-.64,2.24-.51,2.27c-.38,1.5-.56,3.05-.81,4.58l-.09.57-.06.58-.12,1.16-.23,2.31c-.08,1.54-.17,3.09-.22,4.64s0,3.09.06,4.64.17,3.08.27,4.62C122.62,527.37,122.6,525.83,122.56,524.28Z"/><path d="M143.65,490.77a17.52,17.52,0,0,0-6.5,4.4,19.23,19.23,0,0,1,6.75-3.73,30.22,30.22,0,0,1,3.73-1c1.27-.26,2.54-.48,3.82-.66,2.57-.34,5.15-.6,7.75-.81s5.21-.49,7.82-.82c1.3-.17,2.6-.38,3.9-.62s2.59-.51,3.87-.89l1.91-.58,1.86-.72.47-.18.45-.22.9-.43a18.34,18.34,0,0,0,1.75-.94,32.11,32.11,0,0,0,6.34-4.75,30.58,30.58,0,0,0,2.68-2.9,23.85,23.85,0,0,0,2.24-3.23,29.93,29.93,0,0,1-2.54,3c-.22.23-.46.46-.69.68s-.46.46-.7.68c-.48.43-1,.88-1.46,1.28a35.11,35.11,0,0,1-6.41,4.28,18.39,18.39,0,0,1-1.73.84l-.88.38-.44.2-.45.16-1.81.65-1.84.51a60.66,60.66,0,0,1-7.61,1.39c-2.57.36-5.16.61-7.76.89s-5.21.59-7.8,1.07A36.83,36.83,0,0,0,143.65,490.77Z"/><path d="M198,527a3.63,3.63,0,0,0,1.07,1.41c-.76,1.29-1.5,2.6-2.19,3.93,1-1.25,1.88-2.54,2.78-3.84l.13-.2-.21-.18a3.4,3.4,0,0,1-1-1.36,2.83,2.83,0,0,1-.08-1.63,6.11,6.11,0,0,1,1.78-2.65l.23,0,.53.1a9.34,9.34,0,0,1,1,.26,4.62,4.62,0,0,1,1.73,1.12,1.78,1.78,0,0,0-.46-1.11,2.5,2.5,0,0,0-1-.69,2.9,2.9,0,0,0-1.2-.15,3.06,3.06,0,0,0-.4.07,10.28,10.28,0,0,1,1.24-1,4,4,0,0,1,1.6-.69A1.74,1.74,0,0,1,205,521a3.87,3.87,0,0,1,.88,1.59,3.48,3.48,0,0,0-.67-1.78,2,2,0,0,0-.8-.61,2.18,2.18,0,0,0-1-.17,4.58,4.58,0,0,0-1.86.64,9.75,9.75,0,0,0-1.56,1.14,6.64,6.64,0,0,0-2.22,3.19A3.39,3.39,0,0,0,198,527Z"/><path d="M196.42,507.3c-.31-.29-.65-.59-1-.88s-.68-.57-1-.85l-1.07-.8a20.66,20.66,0,0,0-2.3-1.39,19.28,19.28,0,0,0-2.5-1c-1.71-.57-3.45-.92-5.15-1.34a15.49,15.49,0,0,1-2.44-.71l-.27-.13-.23-.14c-.12-.09-.25-.2-.25-.24h0a.2.2,0,0,1,0-.09,1.61,1.61,0,0,1,.35-.32,4.28,4.28,0,0,1,2.19-.74,5.62,5.62,0,0,1,1.22.05,6.17,6.17,0,0,1,.62.09c.21.05.42.07.62.13a15,15,0,0,1,4.68,2,24.29,24.29,0,0,1,4,3.28,32.68,32.68,0,0,1,3.41,4,25,25,0,0,0-3-4.37,21.93,21.93,0,0,0-4-3.62,14.66,14.66,0,0,0-4.9-2.33c-.22-.07-.45-.1-.68-.15s-.45-.08-.68-.11a6,6,0,0,0-1.42-.07,5.31,5.31,0,0,0-2.75.92,2.35,2.35,0,0,0-.61.58,1.41,1.41,0,0,0-.22.51,1.12,1.12,0,0,0,.07.63,1.67,1.67,0,0,0,.64.71l.34.2.34.15a14,14,0,0,0,2.63.74c1.73.37,3.46.7,5.13,1.15a19.08,19.08,0,0,1,4.76,2.05c.37.22.74.46,1.11.69l1.09.75,1.07.78c.38.29.74.53,1,.79C197,507.93,196.71,507.59,196.42,507.3Z"/><path d="M169,627.45a7.08,7.08,0,0,0-7.19-.1,4.45,4.45,0,0,0-1.39,1.31,3.26,3.26,0,0,0-.6,1.84,3.34,3.34,0,0,0,.6,1.84,4.45,4.45,0,0,0,1.39,1.31,7.05,7.05,0,0,0,7.19-.11,4.31,4.31,0,0,0,1.34-1.28,3.17,3.17,0,0,0,.54-1.76,3.18,3.18,0,0,1-.56,1.74A4.6,4.6,0,0,1,169,633.5a6.89,6.89,0,0,1-7-.11,4.18,4.18,0,0,1-1.28-1.23,2.91,2.91,0,0,1,0-3.32,4.18,4.18,0,0,1,1.28-1.23,6.89,6.89,0,0,1,7-.11,4.47,4.47,0,0,1,1.34,1.26,3.18,3.18,0,0,1,.56,1.74,3.17,3.17,0,0,0-.54-1.76A4.46,4.46,0,0,0,169,627.45Z"/><path d="M166.29,629.59a2.31,2.31,0,0,0-1.2-.39,2.39,2.39,0,0,0-1.27.28,1.41,1.41,0,0,0-.73,1.14,1.39,1.39,0,0,0,.73,1.14,2.39,2.39,0,0,0,1.27.28,2.31,2.31,0,0,0,1.2-.39,1.27,1.27,0,0,0,.61-1,1.2,1.2,0,0,1-.64,1,2.26,2.26,0,0,1-2.27-.11,1.11,1.11,0,0,1-.53-.88,1.08,1.08,0,0,1,.53-.87,2.23,2.23,0,0,1,2.27-.12,1.2,1.2,0,0,1,.64,1A1.27,1.27,0,0,0,166.29,629.59Z"/><path d="M96.88,625.51a2.31,2.31,0,0,0,1.2-.39,1.31,1.31,0,0,0,.62-1,1.23,1.23,0,0,1-.65,1,2.26,2.26,0,0,1-2.27-.11,1,1,0,0,1,0-1.76,2.28,2.28,0,0,1,1.1-.36,2.18,2.18,0,0,1,1.17.25,1.23,1.23,0,0,1,.65,1,1.31,1.31,0,0,0-.62-1,2.42,2.42,0,0,0-2.46-.11,1.26,1.26,0,0,0,0,2.28A2.33,2.33,0,0,0,96.88,625.51Z"/><path d="M131.68,510.63l-.27-.83c-.09-.28-.22-.54-.33-.82s-.29-.51-.43-.77l-.28-.36-.14-.17-.16-.16a2.37,2.37,0,0,0-3.25-.2,3.21,3.21,0,0,1,.79-.27,2.83,2.83,0,0,1,.41,0h.2l.2,0a2.2,2.2,0,0,1,1.3.8l.13.15.11.17.22.33c.11.25.24.48.34.74a2.09,2.09,0,0,0,.08.23A3.22,3.22,0,0,0,130,509a2.71,2.71,0,0,0-1.14-.35,1.57,1.57,0,0,0-1.14.32,3.62,3.62,0,0,1,1,.24,6,6,0,0,1,.89.42c.3.16.58.36.88.54l.41.26.1.36.16.8a7.5,7.5,0,0,1,.11.81,2.67,2.67,0,0,1,0,.4v.39c0,.13,0,.25-.06.38l0,.18-.06.17a1.59,1.59,0,0,1-.91,1,2.78,2.78,0,0,1-1.49.11l-.33,0v.3c0,.69,0,1.37,0,2.06s0,1.38.06,2.06q.15-1,.27-2c.06-.58.13-1.16.18-1.74a3,3,0,0,0,1.54-.09l.23-.09.22-.13a1.44,1.44,0,0,0,.39-.31,1.85,1.85,0,0,0,.3-.39,1.54,1.54,0,0,0,.21-.45l.08-.22.05-.23c0-.16.06-.31.07-.46a5.53,5.53,0,0,0,0-.91A10.86,10.86,0,0,0,131.68,510.63Z"/></g><g id="Dreng"><circle class="cls-24" cx="30.91" cy="726.63" r="17.13"/><rect class="cls-25" x="27.57" y="725.77" width="7.45" height="8.96" rx="3.73"/><ellipse class="cls-25" cx="30.91" cy="725.04" rx="6.53" ry="7.31"/><ellipse class="cls-26" cx="33.73" cy="719.33" rx="2.47" ry="5.44" transform="matrix(0.38, -0.93, 0.93, 0.38, -644.85, 478.28)"/><ellipse class="cls-26" cx="27.61" cy="719.34" rx="5.41" ry="2.47" transform="translate(-295.54 76.08) rotate(-24.47)"/><path class="cls-27" d="M18.43,738.48a17.13,17.13,0,0,0,25-.3V735a4.76,4.76,0,0,0-4.74-4.74H23.17A4.76,4.76,0,0,0,18.43,735Z"/><circle class="cls-24" cx="93.48" cy="54" r="12.5"/><rect class="cls-25" x="91.04" y="53.37" width="5.44" height="6.53" rx="1.87"/><ellipse class="cls-25" cx="93.48" cy="52.83" rx="4.77" ry="5.33"/><ellipse class="cls-26" cx="95.54" cy="48.67" rx="1.8" ry="3.97" transform="translate(14.32 118.68) rotate(-67.76)"/><ellipse class="cls-26" cx="91.07" cy="48.68" rx="3.95" ry="1.8" transform="translate(-11.98 42.1) rotate(-24.47)"/><path class="cls-27" d="M84.38,62.64a12.5,12.5,0,0,0,18.26-.21V60.09a3.47,3.47,0,0,0-3.45-3.46H87.83a3.47,3.47,0,0,0-3.45,3.46Z"/><circle class="cls-28" cx="336.63" cy="759" r="17.13"/><rect class="cls-25" x="333.3" y="758.13" width="7.45" height="8.96" rx="3.73"/><ellipse class="cls-29" cx="336.63" cy="757.4" rx="6.53" ry="7.31"/><ellipse class="cls-30" cx="339.46" cy="751.7" rx="2.47" ry="5.44" transform="translate(-484.8 781.38) rotate(-67.76)"/><ellipse class="cls-30" cx="333.34" cy="751.71" rx="5.41" ry="2.47" transform="translate(-281.47 205.64) rotate(-24.47)"/><path class="cls-31" d="M324.16,770.84a17.14,17.14,0,0,0,25-.29v-3.2a4.75,4.75,0,0,0-4.74-4.74H328.9a4.75,4.75,0,0,0-4.74,4.74Z"/><circle class="cls-28" cx="81.07" cy="68.53" r="13.57"/><rect class="cls-25" x="78.43" y="67.84" width="5.9" height="7.09" rx="1.65"/><ellipse class="cls-29" cx="81.07" cy="67.26" rx="5.17" ry="5.79"/><ellipse class="cls-30" cx="83.31" cy="62.75" rx="1.95" ry="4.31" transform="translate(-6.3 116.11) rotate(-67.76)"/><ellipse class="cls-30" cx="78.46" cy="62.75" rx="4.29" ry="1.95" transform="translate(-18.95 38.14) rotate(-24.47)"/><path class="cls-31" d="M71.19,77.91A13.57,13.57,0,0,0,91,77.68V75.14a3.76,3.76,0,0,0-3.75-3.75H74.94a3.76,3.76,0,0,0-3.75,3.75Z"/><circle class="cls-32" cx="372.18" cy="759" r="17.13"/><rect class="cls-25" x="368.85" y="758.13" width="7.45" height="8.96" rx="3.73"/><ellipse class="cls-33" cx="372.18" cy="757.4" rx="6.53" ry="7.31"/><ellipse class="cls-34" cx="375.01" cy="751.7" rx="2.47" ry="5.44" transform="translate(-462.71 814.28) rotate(-67.76)"/><ellipse class="cls-34" cx="368.88" cy="751.71" rx="5.41" ry="2.47" transform="translate(-278.28 220.37) rotate(-24.47)"/><path class="cls-35" d="M359.71,770.84a17.14,17.14,0,0,0,25-.29v-3.2a4.76,4.76,0,0,0-4.74-4.74H364.45a4.75,4.75,0,0,0-4.74,4.74Z"/><circle class="cls-36" cx="406.91" cy="759.37" r="17.13"/><rect class="cls-25" x="403.57" y="758.5" width="7.45" height="8.96" rx="3.73"/><ellipse class="cls-25" cx="406.91" cy="757.77" rx="6.53" ry="7.31"/><ellipse class="cls-37" cx="409.73" cy="752.06" rx="2.47" ry="5.44" transform="translate(-420.77 961.23) rotate(-75.55)"/><ellipse class="cls-37" cx="403.61" cy="752.07" rx="5.41" ry="2.47" transform="translate(-275.31 234.79) rotate(-24.47)"/><path class="cls-38" d="M394.43,771.21a17.13,17.13,0,0,0,25-.3v-3.2a4.75,4.75,0,0,0-4.74-4.73H399.17a4.75,4.75,0,0,0-4.74,4.73Z"/><circle class="cls-39" cx="442.46" cy="759" r="17.13"/><rect class="cls-25" x="439.12" y="758.13" width="7.45" height="8.96" rx="3.73"/><ellipse class="cls-40" cx="442.46" cy="757.4" rx="6.53" ry="7.31"/><ellipse class="cls-34" cx="445.28" cy="751.7" rx="2.47" ry="5.44" transform="translate(-419.03 879.33) rotate(-67.76)"/><ellipse class="cls-34" cx="439.16" cy="751.71" rx="5.41" ry="2.47" transform="translate(-271.96 249.48) rotate(-24.47)"/><path class="cls-41" d="M430,770.84a17.14,17.14,0,0,0,25-.29v-3.2a4.75,4.75,0,0,0-4.74-4.74H434.72a4.75,4.75,0,0,0-4.74,4.74Z"/></g></svg>