<svg xmlns="http://www.w3.org/2000/svg" xmlns:xlink="http://www.w3.org/1999/xlink" width="473" height="839" viewBox="0 0 473 839"><defs><style>.cls-1,.cls-13{fill:#333;stroke:#000;stroke-miterlimit:10;stroke-width:3px;}.cls-2{fill:#ffe0bd;}.cls-3{fill:#510a00;}.cls-4{fill:#fdffb9;}.cls-5{fill:#fff;}.cls-6{fill:#ffc787;}.cls-7{fill:#ffbb8e;}.cls-8{fill:#c9b29b;}.cls-9{fill:url(#radial-gradient);}.cls-10{fill:url(#radial-gradient-5);}.cls-11{fill:url(#radial-gradient-6);}.cls-12{fill:url(#radial-gradient-9);}.cls-13{opacity:0.49;}</style><radialGradient id="radial-gradient" cx="166.4" cy="214.36" r="8.88" gradientTransform="matrix(-1, 0, 0, 1, 467.19, 0)" gradientUnits="userSpaceOnUse"><stop offset="0" stop-color="#035500"/><stop offset="0.56" stop-color="#017b0d"/><stop offset="1" stop-color="#009416"/></radialGradient><radialGradient id="radial-gradient-5" cx="166.4" cy="214.36" r="8.88" xlink:href="#radial-gradient"/><radialGradient id="radial-gradient-6" cx="249.56" cy="228" r="8.88" xlink:href="#radial-gradient"/><radialGradient id="radial-gradient-9" cx="249.56" cy="228" r="8.88" xlink:href="#radial-gradient"/></defs><title>besked 4</title><g id="Selfier"><rect class="cls-1" x="1.5" y="1.5" width="470" height="836"/><path class="cls-2" d="M113.71,313.66q-7.17-6.26-14.61-12.2c-7.47-6-15.1-11.76-22.93-17.22l-.31-.22-.07-.39c-2.08-13.39-4.64-26.74-7.77-39.92-1.59-6.58-3.33-13.13-5.41-19.55q-1.55-4.83-3.44-9.49a58,58,0,0,0-4.46-8.92,87.05,87.05,0,0,0-5.88-8.11c-2.1-2.62-4.3-5.17-6.57-7.67s-4.56-5-6.9-7.43l-7-7.34c-4.73-4.88-9.38-9.86-13.88-15q-1.68-1.92-3.31-3.9T8,152.24a52.44,52.44,0,0,1-5.32-8.74q.87,26.88,1.17,53.75c.14,9,.17,17.92.25,26.87L4.19,251l-.08,26.87c-.09,9-.12,17.92-.25,26.88q-.3,26.88-1.17,53.75c4.71,4.87,9.41,9.75,14.24,14.5s9.6,9.53,14.46,14.24c9.75,9.37,19.63,18.59,29.85,27.43,5.07,4.46,10.28,8.76,15.53,13S87.42,436,92.88,439.91s11.08,7.7,16.87,11.16a153.81,153.81,0,0,0,14.58,7.87c-.79-1.4-1.57-2.8-2.34-4.22-1.62-3.07-3.26-6.12-4.78-9.24-3.09-6.21-6-12.51-8.52-19,3.63,5.92,7.11,11.9,10.57,17.88s6.91,12,10.42,17.9,7,11.85,10.72,17.67c1.85,2.9,3.74,5.77,5.75,8.56a64.77,64.77,0,0,0,6.54,8,45.18,45.18,0,0,1-7.69-7.07q-3.47-3.93-6.53-8.16c-2.08-2.8-4-5.7-5.91-8.6s-3.69-5.89-5.46-8.88q-1.26-2.19-2.51-4.38l-.38-.15A144.88,144.88,0,0,1,109,452.35l-.1-.06c.68,5.07,1.47,10.12,2.58,15.1a160.89,160.89,0,0,0,4.68,16.42c.89,2.7,1.92,5.36,2.88,8l3.2,7.91,3.47,7.81,3.7,7.7c5.14,10.17,10.49,20.24,16.26,30.08,2.84,4.94,5.83,9.8,8.74,14.71l9.05,14.53,4.39,7.42,2.2,3.71,1.09,1.86,1,1.91,3.95,7.67c.65,1.28,1.33,2.55,2,3.84l1.74,4,3.45,7.9c1.07,2.67,2,5.39,3,8.08l1.49,4c.51,1.35.87,2.75,1.3,4.12l2.46,8.26a200.29,200.29,0,0,1,5.85,33.91l.29,4.3c.07,1.43.06,2.87.1,4.3s.08,2.87.05,4.3l-.12,4.3a97.49,97.49,0,0,1-2,17,101.14,101.14,0,0,0-16.11,11.57,130.22,130.22,0,0,0-13.77,14.22,192.87,192.87,0,0,0-22,32.88,304,304,0,0,0-16.55,36q-3.57,9.26-6.61,18.69c-1.84,5.7-3.61,11.45-5.13,17.22l83,.11q42.44,0,84.87.27l84.87.4,23.52.18,0,0c.49-1.64,1.08-3.22,1.61-4.82l.87-2.64c.3-.88.62-1.74.87-2.63,1.13-3.52,2.13-7,3.06-10.59s1.63-7.13,2.24-10.75a97.5,97.5,0,0,0,1.19-11,35.09,35.09,0,0,1,1.13,11.28A56.9,56.9,0,0,1,401.16,817c-.51,1.83-1,3.67-1.65,5.44a51.18,51.18,0,0,1-2.13,5.26c-.73,1.74-1.7,3.38-2.58,5Q393.5,835,392,837l60.83.47c.7-4.51,1.19-9,1.5-13.58a137.32,137.32,0,0,0,.15-14.63,147.15,147.15,0,0,0-4.08-28.88,155.63,155.63,0,0,0-9.63-27.47A139.37,139.37,0,0,0,434,740.06c-1.24-2.08-2.54-4.13-3.9-6.11-.68-1-1.38-2-2.11-2.91-.35-.45-.7-.89-1.06-1.31l-14.5,21.11,13.16-24.46,0,0a73.47,73.47,0,0,0,8.39-17.22,123.85,123.85,0,0,0,4.91-19c1.12-6.49,1.86-13,2.39-19.64s.67-13.2.69-19.82a390.32,390.32,0,0,0-2-39.7q-1.85-19.17-5.14-38.19a14.68,14.68,0,0,1-1.43.57,32.79,32.79,0,0,1-6.94,1.79,37.08,37.08,0,0,1-7.14.34,41.28,41.28,0,0,1-7-1,54,54,0,0,1-13.07-5.17,81.31,81.31,0,0,1-11.61-7.77,94.88,94.88,0,0,0,12,7.06,52.87,52.87,0,0,0,13,4.44,41.76,41.76,0,0,0,6.78.76,35.49,35.49,0,0,0,6.75-.56,33.13,33.13,0,0,0,6.48-1.87c1.06-.38,2.06-.92,3.08-1.39s2-1.07,2.92-1.7c7.61-4.91,13.52-12.18,18.07-20.07a40.21,40.21,0,0,0,5.74-22.56,50.1,50.1,0,0,1-6.33,4.76A28.4,28.4,0,0,1,448,534a12.5,12.5,0,0,1-4.66.33,8.22,8.22,0,0,1-4.42-2,10.09,10.09,0,0,1-2.62-4,19.68,19.68,0,0,1-.7-2.22c-.14-.76-.31-1.51-.41-2.26a22.65,22.65,0,0,1-.15-4.59,11.57,11.57,0,0,1,1.19-4.58,8.53,8.53,0,0,1,3.32-3.52,11.14,11.14,0,0,1,4.5-1.37,25.17,25.17,0,0,1,8.93,1,46.63,46.63,0,0,1,7.1,2.67c-.46-1.4-1-2.79-1.5-4.16a71.25,71.25,0,0,0-6.27-12.11,74.68,74.68,0,0,0-8.43-10.76,94.83,94.83,0,0,0-10.17-9.23,71.39,71.39,0,0,1-10.31-9.66c-.74-.92-1.54-1.79-2.23-2.75l-1.06-1.42-1-1.48c-.69-1-1.24-2-1.85-3s-1.11-2.1-1.55-3.2a32.51,32.51,0,0,1-2.81-13.79,26.44,26.44,0,0,1,3.79-13.36,23.7,23.7,0,0,0-2.34,6.51,28.23,28.23,0,0,0-.66,6.85A31.56,31.56,0,0,0,417,455a46.08,46.08,0,0,0,7.8,11.19,73.45,73.45,0,0,0,10.26,9.11,84.14,84.14,0,0,1,13.59,12.49c0-5.22,0-10.43,0-15.64-.06-5.44-.2-10.87-.45-16.3-.42-10.85-1.16-21.69-1.88-32.55l-.54-8.14c-.19-2.69-.28-5.47-.54-8.1a52.29,52.29,0,0,0-3.73-15.39,56.37,56.37,0,0,0-19.6-24.5,59.11,59.11,0,0,0-14-7.46,62.31,62.31,0,0,0-15.49-3.53,64.39,64.39,0,0,0-15.93.44A74.29,74.29,0,0,0,361,360.81l-3.81,1.46-1.92.75c-.65.24-1.31.43-2,.65l-2,.63c-.66.19-1.34.35-2,.53s-1.34.36-2,.49l-2,.37-1,.19-1,.11-2.08.22c-.69,0-1.39,0-2.09.06l-1.05,0-1-.07c-.7-.07-1.4-.05-2.09-.18l-2.08-.34-2-.53c-.67-.18-1.32-.47-2-.71a22.16,22.16,0,0,1-7-4.57,26.69,26.69,0,0,1-4.94-6.65A38,38,0,0,1,313,340.38l-.48.67a35.43,35.43,0,0,1-8.66,8.22,35,35,0,0,1-14.84,5.6,35.44,35.44,0,0,1-8,.12,50,50,0,0,1-7.78-1.33,54.34,54.34,0,0,1-14.47-6.06,74.16,74.16,0,0,1-6.45-4.42c-2-1.53-4.06-3.08-6.12-4.59l-12.33-9.08c-8.23-6.06-16.48-12.18-24.13-19.05a133,133,0,0,1-10.8-11c-1.29-1.5-2.52-3-3.72-4.61l1.08,2.11c1,1.89,2,3.79,2.88,5.7l2.51,5.89c.89,1.94,1.53,4,2.23,6s1.43,4,1.93,6.12l.8,3.11a30.16,30.16,0,0,1,.71,3.13l.58,3.17c.17,1.06.44,2.1.51,3.17l.31,3.21c.09,1.07.24,2.14.23,3.22l.07,3.22c0,.54,0,1.07,0,1.61l-.1,1.61-.21,3.22c-.12,1.07-.3,2.13-.46,3.19l-.24,1.59c-.1.53-.24,1.05-.36,1.57-.26,1.05-.46,2.1-.76,3.13A44,44,0,0,1,202,370v0a105.17,105.17,0,0,1,9.71,11.49c-5.23-5.12-10.6-10-16.2-14.59A189.19,189.19,0,0,0,178,354.08c-3-1.95-6.1-3.85-9.27-5.55-1.55-.92-3.17-1.71-4.78-2.5l-2.42-1.21-2.47-1.08a95.27,95.27,0,0,0-20.21-6.38c.83,1,1.68,1.92,2.49,2.91a128.81,128.81,0,0,1,8.55,11.57,75.53,75.53,0,0,1,6.78,12.66c-3.85-8.8-9.65-16.55-15.79-23.85a239.36,239.36,0,0,0-20-20.55C118.55,317.91,116.14,315.78,113.71,313.66Zm73,161.84,3.11,16,2,7.91,1,3.95c.17.66.32,1.32.51,2l.61,1.94c1.66,5.17,3,10.42,5.12,15.43l1.44,3.8c.5,1.25.91,2.55,1.51,3.76l3.38,7.38A142.36,142.36,0,0,0,222.49,565l2.57,3.09c.85,1,1.83,2,2.73,3s1.82,2,2.8,2.89l2.95,2.72a67.55,67.55,0,0,0,13,9.24c.58.33,1.15.56,1.72.82s1.28.54,1.91.81l3.75,1.53c1.25.5,2.49,1,3.74,1.51l3.82,1.26c2.52.92,5.15,1.46,7.74,2.13l1,.24,1,.17,2,.33,2,.34,1,.17,1,.09,4,.35c1.33.11,2.66,0,4,.06h2l2-.18,2-.17,1-.09,1-.17,3.92-.72,3.85-1.06a53.53,53.53,0,0,0,7.41-2.92c9.63-4.63,17.7-12.21,24-20.95a101.68,101.68,0,0,0,14.55-28.94,91.34,91.34,0,0,1-5.42,15.42,98,98,0,0,1-7.93,14.36c-6.15,9.06-14.24,17.07-24.16,22.16a51.15,51.15,0,0,1-15.79,5.23l-1,.2-1,.1-2.08.22-2.08.21-2.08,0c-1.39,0-2.79.09-4.17,0l-4.16-.32-1-.08-1-.16-2.06-.33-2.05-.34-1-.17-1-.24c-2.68-.69-5.41-1.23-8-2.17l-3.94-1.28c-1.29-.49-2.56-1-3.84-1.53l-3.82-1.54-1.85-.78a20.84,20.84,0,0,1-2-.92,69.87,69.87,0,0,1-13.54-9.72l-3-2.83c-1-1-1.9-2-2.86-3s-1.93-2-2.8-3l-2.61-3.21a136.19,136.19,0,0,1-17-28.13L200,531.08c-.58-1.24-1-2.56-1.43-3.84l-1.36-3.88c-2-5.11-3.24-10.44-4.75-15.68l-.54-2c-.17-.66-.29-1.33-.43-2l-.83-4-1.66-8C188.16,486.29,187.44,480.89,186.69,475.5Zm61,63c0-.22,0-.43,0-.64a9,9,0,0,1,1.47-4.2,12.22,12.22,0,0,1,3.68-3.55,19.49,19.49,0,0,1,19.83-.3,12.71,12.71,0,0,1,3.84,3.61,8.65,8.65,0,0,1,0,10.16,12.71,12.71,0,0,1-3.84,3.61,19.49,19.49,0,0,1-19.83-.3,12.33,12.33,0,0,1-3.68-3.55,9,9,0,0,1-1.47-4.2C247.7,538.93,247.69,538.72,247.69,538.5Zm6.65-142.13c-6.15-1.55-12.38-2.76-18.65-3.87a189.33,189.33,0,0,1,19,2.43,133.11,133.11,0,0,1,18.62,4.67,65.6,65.6,0,0,1,9,3.69c.72.38,1.46.74,2.17,1.13l2.1,1.33a28,28,0,0,1,3.94,3,51.38,51.38,0,0,1,6.44,7.37c1,1.27,1.9,2.56,2.86,3.75a15,15,0,0,0,3.06,3,4.33,4.33,0,0,0,3.42.77A10.4,10.4,0,0,0,310,422a44.59,44.59,0,0,0,6.86-6.12c1.07-1.14,2.13-2.29,3.17-3.48.5-.58,1.08-1.19,1.66-1.79a21.94,21.94,0,0,1,1.78-1.71c2.39-2.21,4.92-4.16,7.47-6.1,10.21-7.69,20.89-14.63,31.76-21.25-5.09,3.82-10.25,7.54-15.29,11.42s-10.11,7.68-15,11.66c-2.44,2-4.87,4-7.12,6.18a22.61,22.61,0,0,0-1.62,1.63c-.51.55-1,1.1-1.54,1.74-1,1.23-2.1,2.44-3.17,3.64a44.94,44.94,0,0,1-7.3,6.61,13.17,13.17,0,0,1-4.85,2.21l-.72.12c-.24,0-.49,0-.74,0a6.38,6.38,0,0,1-1.5-.16,7.76,7.76,0,0,1-2.67-1.17,17.57,17.57,0,0,1-3.7-3.65c-1-1.29-1.95-2.59-2.9-3.86a51.82,51.82,0,0,0-6-7c-4.44-4.16-10.2-6.79-16-9.06A157.3,157.3,0,0,0,254.34,396.37ZM345.69,766.5a33.68,33.68,0,0,1-5.11-20.72l.29-2.73a22.56,22.56,0,0,1,.52-2.7l.3-1.34a10,10,0,0,1,.36-1.33l.88-2.6a16.56,16.56,0,0,1,1.05-2.54l1.17-2.48c.86-1.62,1.86-3.15,2.79-4.72s2.2-2.9,3.3-4.35,2.24-2.74,3.38-4.09,2.22-2.74,3.34-4.1l3.25-4.17c2.12-2.81,4.2-5.66,6.08-8.63a49.11,49.11,0,0,0,2.64-4.56A25.85,25.85,0,0,0,371,693a8.24,8.24,0,0,0,.68-2.54,13.9,13.9,0,0,1-1,5.27c-.3.84-.62,1.69-1,2.5s-.74,1.64-1.14,2.45a86.73,86.73,0,0,1-5.45,9.26c-2,3-4.11,5.85-6.28,8.69-1.09,1.4-2.26,2.78-3.32,4.18s-2.09,2.76-3.08,4.17a.71.71,0,0,0-.1.14c.1.32.2.64.29,1s.25.8.37,1.2c.48,1.65.77,3.34,1.1,5a52.25,52.25,0,0,1,.75,10.32,31.88,31.88,0,0,1-2.09,10.3,17.8,17.8,0,0,1-1.18,2.4c-.24.38-.46.77-.72,1.13l-.82,1.06a11.63,11.63,0,0,1-2,1.81,7.63,7.63,0,0,1-1.41.82c-.14.06-.3.11-.45.16A36.52,36.52,0,0,0,345.69,766.5Z"/><path class="cls-3" d="M114.16,312.42c2.52,2.27,5,4.56,7.48,6.9,6,5.72,11.76,11.68,17.16,18h.07A65.14,65.14,0,0,1,160,341.57l2.61.95,2.52,1.13c1.69.75,3.38,1.49,5,2.37,3.3,1.67,6.45,3.59,9.57,5.55,1.52,1,3.06,2.06,4.56,3.12l4.43,3.3,4.26,3.5c1.4,1.19,2.76,2.43,4.12,3.66,1.67,1.56,3.31,3.16,4.9,4.8a54.29,54.29,0,0,0,3.58-11.43c.2-1,.33-2.06.49-3.09.08-.51.18-1,.23-1.54l.12-1.56c.07-1,.19-2.07.25-3.1l0-3.12a90.5,90.5,0,0,0-3.67-24.6c-.47-2-1.17-4-1.82-6s-1.28-4-2.09-5.91l-2.27-5.85c-.87-1.91-1.74-3.82-2.59-5.74l-1.28-2.88-1.42-2.82-2.82-5.65c-.9-1.91-2-3.7-3-5.57s-2-3.73-3-5.61a17.55,17.55,0,0,1-6.42,1.81,20.08,20.08,0,0,1-3.38,0,20.29,20.29,0,0,1-3.37-.49,27,27,0,0,1-12-6.35,9.83,9.83,0,0,1-1.26-1.15l-1.21-1.2-1.21-1.2c-.37-.43-.72-.88-1.08-1.31L150.66,263l-1.89-2.8a56.63,56.63,0,0,1-3.48-5.77c-1.08-2-2-4-3-6.07-.65-1.55-1.26-3.12-1.78-4.73,0,.49,0,1,0,1.48a110.32,110.32,0,0,1-1.2,15,66.52,66.52,0,0,1-3.9,14.69A64.53,64.53,0,0,1,128.07,288c-2.88,4.07-5.83,8-8.32,12.2A69,69,0,0,0,114.16,312.42Z"/><path class="cls-3" d="M174.65,100.51a75.27,75.27,0,0,0-7,7,78.2,78.2,0,0,1,5.91-6.7,36.33,36.33,0,0,0-5.82,2.26,44.36,44.36,0,0,0-6.34,3.68,51.21,51.21,0,0,0-10.66,9.85c-6.2,7.47-10.1,16.53-12.62,25.83a121.4,121.4,0,0,0-3.41,28.84,191.89,191.89,0,0,0,2.19,29.18c1.22,8.83,2.38,17.77,3.06,26.74a8,8,0,0,1,5.25-4.17,14.51,14.51,0,0,1,7.14.36,31.16,31.16,0,0,1,6.32,2.54,66.35,66.35,0,0,1,11.12,7.36,4.39,4.39,0,0,0,1.85.64,2.58,2.58,0,0,0,1-.1,2.53,2.53,0,0,0,.9-.48l.4,0c0-.5.05-1,.05-1.49a48.94,48.94,0,0,0-.48-6.84,90.19,90.19,0,0,0-2.93-13.4c-.32-1.1-.67-2.2-1-3.28s-.72-2.12-1.16-3.16c-.22-.51-.44-1-.68-1.54s-.5-1.1-.72-1.66a28.06,28.06,0,0,1-1.12-3.47,25.2,25.2,0,0,1,.55-14.51,28.45,28.45,0,0,1,8.35-11.81,51.85,51.85,0,0,1,5.76-4.2,58.61,58.61,0,0,0,5.49-4,29.3,29.3,0,0,0,8.4-10.35,16.71,16.71,0,0,0,1.49-8.33c0-.45-.1-.89-.18-1.34a16.24,16.24,0,0,1-1-1.91,16.46,16.46,0,0,1-1-3.13,10.91,10.91,0,0,1-.16-3.45,10.9,10.9,0,0,1,2.33,2.55.67.67,0,0,1,.09.14,13,13,0,0,1-.42-3.69,12.81,12.81,0,0,1,2.57,2.76l0,0a10.38,10.38,0,0,1-.6-2.8,13.14,13.14,0,0,0,2.07,5,19.36,19.36,0,0,0,1.31,1.81h0a24.06,24.06,0,0,0,2.14,2.39,39.1,39.1,0,0,0,8.9,6.22,87,87,0,0,0,20.57,7.19c14.26,3.18,28.94,4.32,43.58,4.73l5.5.13,5.51,0c3.63,0,7.43,0,11.15.28a69.52,69.52,0,0,1,21.79,5.22,58.2,58.2,0,0,1,9.86,5.4,59.69,59.69,0,0,1,8.6,7.17A68.14,68.14,0,0,1,351,197.64a47.66,47.66,0,0,1,6.42-7.15,16.91,16.91,0,0,1,7-4,7,7,0,0,1,4.46.37,8.19,8.19,0,0,1,3.34,2.91,22.25,22.25,0,0,1,2.93,7.58,52.86,52.86,0,0,1,1.05,7.78c.19,2.59.27,5.17.26,7.76s-.12,5.15-.25,7.72v.16a109.82,109.82,0,0,1-2.49,10.87A86.55,86.55,0,0,1,370,242.15a48.76,48.76,0,0,1-2.45,5,31.82,31.82,0,0,1-2.77,4.24.66.66,0,0,1,0,.14,202.7,202.7,0,0,1,1.07,27.11,279.08,279.08,0,0,1-2.24,28.74c-1.26,9.53-2.92,19-5.06,28.38a259.51,259.51,0,0,1-7.44,26.42l1.56-.54c.63-.23,1.26-.43,1.88-.68l1.86-.77,3.77-1.57a68.77,68.77,0,0,1,32.5-5.26,62.9,62.9,0,0,1,23.72,6.91,44.82,44.82,0,0,0,.22-7.32,56.28,56.28,0,0,0-1.12-8.89A55.2,55.2,0,0,0,409,327.56a64.89,64.89,0,0,0-11.17-13.89,95.22,95.22,0,0,0-8.92-7.46q-3.79,11.28-8.26,22.29,3.87-11.46,7.21-23.08c-1.38-1-2.78-2-4.21-2.92q2.22,1.08,4.38,2.33c2.95-10.38,5.53-20.84,7.54-31.41.48-2.33.81-4.68,1.22-7s.81-4.67,1.14-7l.86-7.06.42-3.53c.14-1.17.19-2.36.29-3.54l.55-7.08c.16-2.36.16-4.72.25-7.08.25-4.73,0-9.45-.07-14.17a184.86,184.86,0,0,0-3.54-28,131.34,131.34,0,0,0-8.64-26.7,113.16,113.16,0,0,0-14.4-23.92,96.43,96.43,0,0,0-9.43-10.25q-1.26-1.2-2.58-2.31c-.87-.78-1.77-1.49-2.67-2.21s-1.82-1.42-2.75-2.07-1.92-1.31-2.77-1.81l-.22-.13-.14-.11a257.66,257.66,0,0,0-43-28.64l-5.79-2.85-2.9-1.42-3-1.25-5.95-2.49c-2-.76-4-1.43-6.07-2.15l-3-1.06c-1-.33-2.06-.59-3.09-.89-2.07-.58-4.13-1.19-6.2-1.74l-6.29-1.34-1.58-.34c-.52-.11-1.06-.16-1.58-.24l-3.19-.46a114.09,114.09,0,0,0-25.66-.77,104.36,104.36,0,0,0-25.14,5.45,110.27,110.27,0,0,0-23.17,11.45,115.44,115.44,0,0,0-10.44,7.74C176.24,99.11,175.44,99.8,174.65,100.51Zm17.21,11.89a63.9,63.9,0,0,1-6.17-8.9,78.1,78.1,0,0,0,7,8.17c.6.66,1.26,1.28,1.89,1.9s1.26,1.27,1.93,1.86c1.34,1.18,2.62,2.43,4,3.53a98.92,98.92,0,0,0,17.66,11.81c1.58.81,3.13,1.65,4.78,2.3l2.42,1.06,1.21.54c.41.17.83.3,1.24.45l5,1.78,5.1,1.41a166.86,166.86,0,0,0,21,3.84c7.08,1,14.23,1.67,21.39,2.44s14.35,1.62,21.49,2.95a103.52,103.52,0,0,1,21,5.82c6.71,2.8,13.1,6.71,17.9,12.14a53.08,53.08,0,0,0-18.59-10.3,84.35,84.35,0,0,0-10.29-2.76q-5.22-1.08-10.53-1.82c-7.08-.94-14.2-1.65-21.37-2.26s-14.34-1.32-21.53-2.24q-5.38-.72-10.75-1.72c-3.58-.67-7.15-1.41-10.67-2.44l-5.27-1.6-5.14-2c-.42-.17-.85-.32-1.27-.51l-1.25-.59-2.48-1.18c-1.67-.75-3.25-1.69-4.84-2.59a90,90,0,0,1-17.48-13.09A87.2,87.2,0,0,1,191.86,112.4ZM309,108a98,98,0,0,0-24.28-7.46,93.38,93.38,0,0,1,24.67,6.57,112,112,0,0,1,22.35,12.53,106.44,106.44,0,0,1,18.76,17.54,120.92,120.92,0,0,1,14.22,21.4l1.45,2.87c.48,1,1,1.91,1.37,2.91l2.52,5.91c.82,2,1.46,4,2.2,6l1.07,3c.33,1,.6,2,.91,3.08l1.77,6.17,1.41,6.26c1.05,4.15,1.54,8.41,2.24,12.62l.25,1.59.16,1.59.32,3.19.64,6.37c.21,4.26.45,8.53.59,12.79,0,4.26,0,8.53-.15,12.78s-.48,8.51-.75,12.76q.09-6.39.22-12.76c0-4.26-.2-8.51-.3-12.75s-.56-8.48-.86-12.71L379,214l-.38-3.16-.2-1.57-.28-1.57L377,201.4c-.2-1-.32-2.09-.58-3.12l-.71-3.1L374.26,189l-1.79-6.09c-.31-1-.59-2-.92-3l-1.08-3c-.74-2-1.39-4-2.21-5.95l-2.53-5.81c-.4-1-.88-1.92-1.37-2.85l-1.45-2.82a118.28,118.28,0,0,0-13.84-21.15A110,110,0,0,0,309,108Z"/><path class="cls-2" d="M142.16,229a14.14,14.14,0,0,0-.53,5.92,43.24,43.24,0,0,0,3.44,12.25,81.89,81.89,0,0,0,6,11.51l1.73,2.74,1.95,2.58c.33.42.65.86,1,1.28l1.08,1.19,1.08,1.19a11.06,11.06,0,0,0,1.13,1.14,27.09,27.09,0,0,0,10.81,6.67,22.7,22.7,0,0,0,6.36,1,19,19,0,0,0,6.45-1c1.24,1.71,2.48,3.43,3.69,5.17l1.81,2.62c.6.87,1.21,1.74,1.75,2.66l3.28,5.46.51.87c.62.77,1.24,1.52,1.88,2.27q1.9,2.26,3.91,4.42a130.58,130.58,0,0,0,11.18,10.38c7.8,6.54,16.18,12.36,24.52,18.26,4.19,2.93,8.38,5.86,12.52,8.86,2.09,1.49,4.14,3,6.21,4.52a69.88,69.88,0,0,0,6.25,4.16,53,53,0,0,0,13.74,5.67,46.7,46.7,0,0,0,7.33,1.21,32.54,32.54,0,0,0,7.32-.13,32,32,0,0,0,13.61-5.07,32.37,32.37,0,0,0,5.6-4.71,30.2,30.2,0,0,0,2.38-2.79l2.22-3.1c1.55-2.11,3.26-4.08,4.92-6s3.3-3.86,4.87-5.84c3.14-4,6.13-8.1,9-12.28a154.76,154.76,0,0,0,15.29-26.32,106,106,0,0,0,5.29-14.29c.36-1.22.66-2.46,1-3.69s.59-2.47.81-3.73a53.07,53.07,0,0,0,1.08-7.54h0v0l.08-.4c-.16-3.8-.19-7.55-.24-11.29-.06-1.88,0-3.74-.1-5.6s-.06-3.72-.16-5.58c-.13-3.71-.33-7.41-.72-11.09a83.6,83.6,0,0,0-1.83-11,33.55,33.55,0,0,1,4.14,10.66,59.81,59.81,0,0,1,1.4,11.36c0,1,0,1.91,0,2.86s0,1.9,0,2.85c-.09,1.9-.18,3.8-.4,5.68a63.59,63.59,0,0,1-2.09,11.19l0,.37a7.67,7.67,0,0,0,5-1.51,15.38,15.38,0,0,0,3.63-3.87,43.66,43.66,0,0,0,4.64-9.72,103.39,103.39,0,0,0,3.07-10.44c.85-3.5,1.57-7.07,2.16-10.58.19-5,.26-10.08,0-15.07a66.92,66.92,0,0,0-.87-7.41,19.47,19.47,0,0,0-2.32-6.72,5.9,5.9,0,0,0-2.23-2.21,4.74,4.74,0,0,0-3-.38,15.89,15.89,0,0,0-6.37,3.19,50.36,50.36,0,0,0-5.62,5.05c-1.77,1.81-3.47,3.72-5.09,5.7,1-1.64,2.07-3.25,3.21-4.81a89.67,89.67,0,0,0-5.8-8.5,65.82,65.82,0,0,0-7.44-8,59.12,59.12,0,0,0-18.33-11.46,69.63,69.63,0,0,0-21.11-4.55c-1.1-.08-2.2-.12-3.3-.16,2.28.46,4.56,1,6.81,1.56a81,81,0,0,1,8.79,2.95,53.69,53.69,0,0,1,8.28,4.21,34.47,34.47,0,0,1,7.16,5.91,23.34,23.34,0,0,1,4.73,7.87,45.48,45.48,0,0,0-10.79-8.84,48.33,48.33,0,0,0-6.2-3.08,44.55,44.55,0,0,0-6.57-2,37.89,37.89,0,0,0-6.78-.94,43.41,43.41,0,0,0-6.84.13,56.24,56.24,0,0,0-13.32,3.13l-.26.1h-.24a9.35,9.35,0,0,1-2.7-.43,5.49,5.49,0,0,1-2.61-1.66,3.9,3.9,0,0,1-.79-1.59,2.77,2.77,0,0,1-.12-.85l0-.42,0-.38c0-.25.07-.52.12-.75l.21-.68a6.61,6.61,0,0,1,.56-1.27,8.73,8.73,0,0,1,2.75-3l-.94,0c-7.39-.25-14.79-.66-22.16-1.5a165.14,165.14,0,0,1-21.9-4,82.24,82.24,0,0,1-20.73-8.18,40.23,40.23,0,0,1-8.75-6.94,26.43,26.43,0,0,1-2-2.57,20.17,20.17,0,0,1,.65,2,12.59,12.59,0,0,1,.43,3.74,12.56,12.56,0,0,1-2.57-2.76c-.25-.35-.47-.71-.69-1.07,0,.13.07.25.1.38a10.91,10.91,0,0,1,.16,3.45,10.08,10.08,0,0,1-2.11-2.24,17.15,17.15,0,0,1-.75,8.94,29.35,29.35,0,0,1-8.23,11.57,48.93,48.93,0,0,1-5.57,4.4,48.15,48.15,0,0,0-5.33,4.14A26.13,26.13,0,0,0,169.28,185a22.74,22.74,0,0,0-.62,12.85,26.57,26.57,0,0,0,.92,3.16c.19.53.39,1,.62,1.54s.45,1.1.67,1.66c.42,1.11.81,2.26,1.12,3.4s.6,2.27.88,3.4A77.35,77.35,0,0,1,175,224.89a45.7,45.7,0,0,1-.15,7,24,24,0,0,1-.63,3.47,6.93,6.93,0,0,1-1.53,3.12,6.8,6.8,0,0,0,1.09-3.22,17.76,17.76,0,0,0,.19-1.93l-.4,0a2.71,2.71,0,0,1-.85.61,2.92,2.92,0,0,1-1.05.24,4.46,4.46,0,0,1-2.11-.45h0A85.69,85.69,0,0,0,158,227.48a33.41,33.41,0,0,0-6.09-2,12.44,12.44,0,0,0-6-.05,2.54,2.54,0,0,0-.65.24c-.2.09-.42.17-.62.27a5.91,5.91,0,0,0-1,.81A5.59,5.59,0,0,0,142.16,229Zm9,12a9.34,9.34,0,0,1,1.84-4.89,5.53,5.53,0,0,1,2.19-1.7A6.21,6.21,0,0,1,158,234a12.34,12.34,0,0,1,5.14,1.76,28.22,28.22,0,0,1,4.29,3.13c2.63,2.28,5.14,5.11,6.1,8.81a9.14,9.14,0,0,1-.43,5.61,10,10,0,0,1-2.94,3.89c2.09,3.56,4.13,7.15,6,10.83-2.67-3.45-5.18-7-7.64-10.59l-.37-.54.57-.49a9.23,9.23,0,0,0,2.68-3.76,7.84,7.84,0,0,0,.22-4.5,16.77,16.77,0,0,0-4.89-7.29l-.63.1c-.5.11-1,.19-1.47.28a21.9,21.9,0,0,0-2.71.72,12.38,12.38,0,0,0-4.76,3.07,4.92,4.92,0,0,1,1.27-3.05,6.89,6.89,0,0,1,2.82-1.9,8,8,0,0,1,3.31-.41,6.86,6.86,0,0,1,1.1.2,25.6,25.6,0,0,0-3.42-2.67,11.41,11.41,0,0,0-4.4-1.89,4.76,4.76,0,0,0-4.26,1.36A10.16,10.16,0,0,0,151.19,241Zm26.39-41.69c-1,.79-2,1.45-2.89,2.19A66.53,66.53,0,0,1,183,189.45a60.16,60.16,0,0,1,10.88-10A40.93,40.93,0,0,1,207.41,173c.61-.18,1.24-.28,1.86-.41s1.24-.23,1.87-.31a18.12,18.12,0,0,1,3.92-.2,14.89,14.89,0,0,1,7.59,2.54,6.64,6.64,0,0,1,1.68,1.61,3.59,3.59,0,0,1,.61,1.41,3.07,3.07,0,0,1-.2,1.73,4.71,4.71,0,0,1-1.77,2l-.93.54-.92.43a41.64,41.64,0,0,1-7.27,2c-4.77,1-9.53,1.93-14.14,3.17a52.42,52.42,0,0,0-13.11,5.64c-1,.61-2,1.26-3.07,1.91l-3,2.05C179.55,197.87,178.59,198.55,177.58,199.31ZM195,233.07a8.33,8.33,0,0,1-.23-2.5,10.16,10.16,0,0,1,.45-2.55v0l.09-.11a37.82,37.82,0,0,1,7.77-8.22,24.37,24.37,0,0,1,10.49-4.92,18.94,18.94,0,0,1,11.56,1.42,20.45,20.45,0,0,1,8.57,7.34L235.9,229v0a3.55,3.55,0,0,1-.4,3.36,12.5,12.5,0,0,1-1.17,1.21c-.37.36-.74.7-1.07,1.06a24.3,24.3,0,0,1-2.18,2.35,18.75,18.75,0,0,1-2.64,2,29.89,29.89,0,0,1-12.31,4,33.35,33.35,0,0,1-12.84-1,14.62,14.62,0,0,1-5.85-3,8.09,8.09,0,0,1-1.94-2.71,7.46,7.46,0,0,1-.53-3.17Zm50.71,75.43a22.37,22.37,0,0,0,5.66,0,18.3,18.3,0,0,0,5.21-1.44,23.67,23.67,0,0,0,4.61-2.65c.72-.53,1.4-1.09,2.06-1.68A17.61,17.61,0,0,0,265,301l1-1.14,1.73.63c.58.21,1.15.46,1.71.65a16.26,16.26,0,0,0,1.71.41,9.15,9.15,0,0,0,3.26,0,8.09,8.09,0,0,0,2.94-1.2,8.82,8.82,0,0,0,1.29-1c.19-.2.39-.39.56-.59s.38-.45.44-.53l1.26-1.5,1.54.46a34.05,34.05,0,0,0,6.68,1.31,52,52,0,0,0,7.07.09,96.42,96.42,0,0,0,14.53-2.06,38.06,38.06,0,0,1-6.75,3.39,44.36,44.36,0,0,1-7.31,2.2,39.68,39.68,0,0,1-7.73.82,30.88,30.88,0,0,1-6.25-.67c-.19.21-.39.43-.6.64a14.06,14.06,0,0,1-2,1.61,12.24,12.24,0,0,1-4.81,1.92,9.42,9.42,0,0,1-1.29.14l-.65.05-.64,0c-.43,0-.86,0-1.27-.1l-1.24-.23a6.62,6.62,0,0,1-1.18-.32l-1.16-.39-.76-.34c-.38.31-.77.61-1.18.91a27.68,27.68,0,0,1-2.63,1.66,22.37,22.37,0,0,1-5.79,2.22,19.79,19.79,0,0,1-3.06.44c-.51,0-1,0-1.54,0l-.76,0-.76-.09A16.26,16.26,0,0,1,245.69,308.5Zm7.44-46.28c0-2,.06-4.06.2-6.07q.39-6,1.25-12c.32-2,.6-4,.95-6s.7-4,1.14-5.93a115.37,115.37,0,0,1,3-11.73c0,4.07-.32,8.08-.71,12.08-.17,2-.44,4-.65,6l-.78,6c-.55,4-1.21,7.93-1.9,11.88l-1.05,5.92-.27,1.48c-.07.48-.13,1-.22,1.47a9.54,9.54,0,0,0,0,3,7.38,7.38,0,0,0,3.06,2.92,11.13,11.13,0,0,0,3.93,1.05,30.34,30.34,0,0,0,8.4-.63c2.82-.55,5.64-1.29,8.47-2.09a8.86,8.86,0,0,0,3.6-1.72,6,6,0,0,0,1.93-3.67,23.3,23.3,0,0,0-3.56-6.64c-1.44-2-3-4-4.62-6l-4.86-5.87c-1.62-2-3.25-4-4.77-6.16a34.69,34.69,0,0,1,6.45,4.51,45.65,45.65,0,0,1,5.5,5.62A32.63,32.63,0,0,1,282,256.3a20.26,20.26,0,0,1,1.37,3.8,9.59,9.59,0,0,1,.16,4,5.67,5.67,0,0,1-.81,4.63,9,9,0,0,1-3.91,3,37.7,37.7,0,0,1-8.72,2.83,21.66,21.66,0,0,1-9.38,0,10.77,10.77,0,0,1-4.35-2.15,6.42,6.42,0,0,1-2.22-4.12,7.8,7.8,0,0,1-.83-3C253.19,264.26,253.15,263.23,253.13,262.22Zm4.56,54.28a59.16,59.16,0,0,1,6,.13c2,0,3.89,0,5.8.08.95,0,1.9-.07,2.85-.08l1.41,0c.47,0,.93-.08,1.4-.12l2.79-.21c.92-.11,1.82-.28,2.74-.4a42.05,42.05,0,0,0,10.52-3.07,34.19,34.19,0,0,0,9.5-6.31c-1.18,3.95-4.12,7.26-7.54,9.7a28.41,28.41,0,0,1-11.67,4.61c-1,.13-2.08.3-3.12.39l-3.11,0c-.52,0-1,0-1.55,0l-1.54-.18c-1-.11-2-.25-3.05-.4-2-.44-4-1-5.89-1.59A54.26,54.26,0,0,1,257.69,316.5Zm26.67-95.57-.67-3.43a21.14,21.14,0,0,1,4.74-10.39,19.85,19.85,0,0,1,9.89-6.4,24.87,24.87,0,0,1,11.72-.27,38.24,38.24,0,0,1,10.75,4l.13.07,0,0a9.69,9.69,0,0,1,.85,1,11.05,11.05,0,0,1,.68,1.09,8.63,8.63,0,0,1,.89,2.34h0a0,0,0,0,0,0,0,6.92,6.92,0,0,1,.91,3.43,8.57,8.57,0,0,1-.86,3.64,13.86,13.86,0,0,1-2.13,3.06,25,25,0,0,1-2.65,2.5A34.64,34.64,0,0,1,305.79,228a29.52,29.52,0,0,1-7.2,1,19.64,19.64,0,0,1-7.26-1.17l-.85-.37c-.24-.11-.49-.22-.75-.32-.51-.2-1.05-.36-1.6-.55l-.83-.26a3.6,3.6,0,0,1-.95-.45,3.41,3.41,0,0,1-1.24-1.53,9,9,0,0,1-.42-1.78Zm70.53-5.59a15.78,15.78,0,0,1,0-2.48,31.33,31.33,0,0,1,.87-4.77l.74-2.28c.25-.76.61-1.5.92-2.24s.8-1.43,1.19-2.13c.24-.34.5-.66.75-1l.38-.49.46-.43a6.5,6.5,0,0,1,8.95-.55,8.26,8.26,0,0,0-2.18-.74,8.59,8.59,0,0,0-1.12-.09c-.19,0-.37,0-.55,0l-.55.08a6,6,0,0,0-3.59,2.21l-.35.4-.31.47-.6.91c-.3.69-.67,1.32-.93,2-.08.22-.17.44-.25.65a8.32,8.32,0,0,1,1.72-1.27,7.4,7.4,0,0,1,3.16-1,4.5,4.5,0,0,1,3.13.89,10.56,10.56,0,0,0-2.84.65,17.47,17.47,0,0,0-2.47,1.18c-.81.44-1.58,1-2.42,1.48-.35.25-.74.48-1.12.72l-.27,1-.46,2.22a21,21,0,0,0-.28,2.22,6.67,6.67,0,0,0,0,1.09v1.09c0,.35.11.69.15,1l.09.52.17.47a4.32,4.32,0,0,0,2.51,2.75,7.77,7.77,0,0,0,4.1.31l.92-.15,0,.83c0,1.89,0,3.79,0,5.68s-.06,3.79-.17,5.69c-.3-1.88-.53-3.76-.75-5.64-.18-1.6-.35-3.19-.5-4.79a8.23,8.23,0,0,1-4.25-.26l-.63-.24c-.21-.1-.4-.23-.6-.35a4.45,4.45,0,0,1-1.08-.86,4.67,4.67,0,0,1-.84-1.09,4.8,4.8,0,0,1-.56-1.22l-.24-.62-.12-.64C355,216.19,354.92,215.76,354.89,215.34Z"/><path class="cls-3" d="M174.69,201.5c1-.85,1.84-1.76,2.64-2.56s1.8-1.63,2.7-2.44,1.88-1.56,2.82-2.35,2-1.49,3-2.2a54.11,54.11,0,0,1,6.34-3.82,50.31,50.31,0,0,1,6.89-2.82c4.7-1.56,9.5-2.52,14.19-3.7a43.43,43.43,0,0,0,6.73-2l.73-.35.65-.38c.33-.25.68-.56.68-.66s0,0,0,0a.69.69,0,0,0-.13-.23,3.8,3.8,0,0,0-1-.87,12,12,0,0,0-6-2.07,15.21,15.21,0,0,0-3.35.15c-.58.07-1.16.14-1.73.26s-1.15.19-1.71.34a41.06,41.06,0,0,0-12.88,5.6,66.69,66.69,0,0,0-11.11,9.06A86.52,86.52,0,0,0,174.69,201.5Z"/><path class="cls-4" d="M177.33,198.94c-.8.8-1.65,1.71-2.64,2.56.86-.74,1.85-1.4,2.89-2.19s2-1.44,3-2.16l3-2.05c1-.65,2-1.3,3.07-1.91a52.42,52.42,0,0,1,13.11-5.64c4.61-1.24,9.37-2.15,14.14-3.17a41.64,41.64,0,0,0,7.27-2l.92-.43.93-.54a4.71,4.71,0,0,0,1.77-2,3.07,3.07,0,0,0,.2-1.73,3.59,3.59,0,0,0-.61-1.41,6.64,6.64,0,0,0-1.68-1.61,14.89,14.89,0,0,0-7.59-2.54,18.12,18.12,0,0,0-3.92.2c-.63.08-1.25.17-1.87.31s-1.25.23-1.86.41a40.93,40.93,0,0,0-13.51,6.41,60.16,60.16,0,0,0-10.88,10,66.53,66.53,0,0,0-8.33,12.05,86.52,86.52,0,0,1,9.4-11.05,66.69,66.69,0,0,1,11.11-9.06,41.06,41.06,0,0,1,12.88-5.6c.56-.15,1.14-.22,1.71-.34s1.15-.19,1.73-.26a15.21,15.21,0,0,1,3.35-.15,12,12,0,0,1,6,2.07,3.8,3.8,0,0,1,1,.87.69.69,0,0,1,.13.23s0,0,0,0-.35.41-.68.66l-.65.38-.73.35a43.43,43.43,0,0,1-6.73,2c-4.69,1.18-9.49,2.14-14.19,3.7a50.31,50.31,0,0,0-6.89,2.82A54.11,54.11,0,0,0,185.8,192c-1,.71-2,1.46-3,2.2s-1.91,1.54-2.82,2.35S178.18,198.13,177.33,198.94Z"/><path class="cls-5" d="M195,233.07h0a8.16,8.16,0,0,0,1.24,2.78,7.63,7.63,0,0,0,2.11,2,15.11,15.11,0,0,0,5.51,1.91,41.32,41.32,0,0,0,12,.26c1.37-.17,2.74-.37,4.08-.67l-.44-2.13a7.7,7.7,0,0,1-1,.15q-.33,0-.66,0h-.1l-.37,0-.45,0a2.38,2.38,0,0,1-.37-.06l-.43-.08-.36-.1-.42-.13-.35-.13c-.14-.06-.27-.11-.4-.18l-.34-.16-.38-.22-.32-.2-.36-.25-.3-.23-.34-.3a3.45,3.45,0,0,1-.28-.26c-.11-.1-.22-.21-.32-.32l-.25-.29c-.11-.11-.2-.24-.3-.36l-.23-.31-.26-.39c-.07-.11-.14-.22-.2-.33s-.16-.29-.24-.43a3.59,3.59,0,0,0-.17-.34l-.2-.47c-.05-.12-.1-.23-.14-.35s-.12-.34-.17-.52-.07-.22-.1-.34-.1-.4-.14-.6-.05-.2-.07-.3q-.08-.45-.12-.93c0-.32,0-.64,0-.95v-.05a10.64,10.64,0,0,1,.16-1.7,6.73,6.73,0,0,1,.22-1,9.59,9.59,0,0,1,1.52-3.13,8.9,8.9,0,0,1,1.13-1.24,7.79,7.79,0,0,1,3.67-1.89c.27-.05.56-.09.84-.12l-.11-1.38a20.32,20.32,0,0,0-2.57.34,29,29,0,0,0-9.5,4.21,65.36,65.36,0,0,0-8.36,6.83c-.15.28-.3.6-.43.91a11.5,11.5,0,0,0-.4,1.12A11,11,0,0,0,195,233.07Z"/><path class="cls-3" d="M201.07,141.35l-.46.37a26.43,26.43,0,0,0,2,2.57,40.23,40.23,0,0,0,8.75,6.94,82.24,82.24,0,0,0,20.73,8.18,165.14,165.14,0,0,0,21.9,4c7.37.84,14.77,1.25,22.16,1.5l.94,0a8.73,8.73,0,0,0-2.75,3,6.61,6.61,0,0,0-.56,1.27l-.21.68c-.05.23-.08.5-.12.75l0,.38,0,.42a2.77,2.77,0,0,0,.12.85,3.9,3.9,0,0,0,.79,1.59,5.49,5.49,0,0,0,2.61,1.66,9.35,9.35,0,0,0,2.7.43h.24l.26-.1a56.24,56.24,0,0,1,13.32-3.13,43.41,43.41,0,0,1,6.84-.13,37.89,37.89,0,0,1,6.78.94,44.55,44.55,0,0,1,6.57,2,48.33,48.33,0,0,1,6.2,3.08,45.48,45.48,0,0,1,10.79,8.84,34.62,34.62,0,0,0-4.59-5.39,42.7,42.7,0,0,0-5.49-4.54,41.47,41.47,0,0,0-13-6.11,39.9,39.9,0,0,0-7.11-1.3,41.8,41.8,0,0,0-7.25-.08A52.92,52.92,0,0,0,279.48,173a4.24,4.24,0,0,1-2.8-1,1.31,1.31,0,0,1-.22-1.05c0-.12,0-.24.06-.37l.14-.41a3.68,3.68,0,0,1,.35-.82,5.89,5.89,0,0,1,2.59-2.49,6.57,6.57,0,0,1,3.67-.61A121.85,121.85,0,0,1,301.11,169,67.62,67.62,0,0,1,318,175.1a35.6,35.6,0,0,1,7.31,5.18,24.81,24.81,0,0,1,5.39,7.22,23.34,23.34,0,0,0-4.73-7.87,34.47,34.47,0,0,0-7.16-5.91,53.69,53.69,0,0,0-8.28-4.21,81,81,0,0,0-8.79-2.95c-2.25-.6-4.53-1.1-6.81-1.56,1.1,0,2.2.08,3.3.16a69.63,69.63,0,0,1,21.11,4.55,59.12,59.12,0,0,1,18.33,11.46,65.82,65.82,0,0,1,7.44,8,89.67,89.67,0,0,1,5.8,8.5l.05-.05a68.14,68.14,0,0,0-12.27-17.53,59.69,59.69,0,0,0-8.6-7.17,58.2,58.2,0,0,0-9.86-5.4,69.52,69.52,0,0,0-21.79-5.22c-3.72-.33-7.52-.27-11.15-.28l-5.51,0-5.5-.13c-14.64-.41-29.32-1.55-43.58-4.73A87,87,0,0,1,212.12,150a39.1,39.1,0,0,1-8.9-6.22,24.06,24.06,0,0,1-2.14-2.39Z"/><path class="cls-5" d="M216.7,217.28l.11,1.38q.33,0,.66,0h.1l.38,0,.44,0,.37.05.44.09.36.1.42.13.34.13.41.18.33.16.39.22.31.2.37.25.3.23.34.3.28.25.31.33c.09.1.18.19.26.29s.2.24.29.36a3.55,3.55,0,0,1,.23.31l.26.39.21.33.23.43c.06.11.12.23.17.34a3.9,3.9,0,0,1,.2.47l.15.35c.06.17.11.34.16.51s.08.23.11.35.09.39.13.59.05.2.07.31a9.25,9.25,0,0,1,.12.92h0a7.63,7.63,0,0,1,0,.95,9.93,9.93,0,0,1-1.42,5.16,8.41,8.41,0,0,1-1,1.36,6.67,6.67,0,0,1-.6.59,6.52,6.52,0,0,1-.88.69,8.16,8.16,0,0,1-1.71.89,9.31,9.31,0,0,1-.94.28l.44,2.13c.6-.12,1.21-.27,1.8-.44a28.26,28.26,0,0,0,5.55-2.08,16.46,16.46,0,0,0,2.53-1.49c.81-.57,1.47-1.18,2.37-1.93.43-.34.86-.66,1.31-.95a12.33,12.33,0,0,0,1.2-.81,2.94,2.94,0,0,0,.85-2.51l-1.79-5.62a28.12,28.12,0,0,0-9.37-5.3,20.88,20.88,0,0,0-5.09-1A19.4,19.4,0,0,0,216.7,217.28Z"/><path class="cls-6" d="M247.72,537.86c0,.21,0,.42,0,.64s0,.43,0,.64a9,9,0,0,0,1.53,4.16,12.38,12.38,0,0,0,3.7,3.47,19,19,0,0,0,19.29-.3,11.73,11.73,0,0,0,3.53-3.41,8,8,0,0,0,0-9.12,11.84,11.84,0,0,0-3.53-3.41,19,19,0,0,0-19.29-.3,12.38,12.38,0,0,0-3.7,3.47A9,9,0,0,0,247.72,537.86Zm11,1v0a3.58,3.58,0,0,1,1.7-2.81,6.68,6.68,0,0,1,6.79-.31,3.46,3.46,0,0,1,0,6.28,6.44,6.44,0,0,1-3.49.78,6.51,6.51,0,0,1-3.3-1.08,3.59,3.59,0,0,1-1.7-2.82Z"/><path class="cls-7" d="M258.69,538.83v0a3.31,3.31,0,0,0,1.78,2.7,6.16,6.16,0,0,0,6.25-.3,3.06,3.06,0,0,0,1.47-2.42,3,3,0,0,0-1.47-2.41,6.16,6.16,0,0,0-6.25-.3,3.31,3.31,0,0,0-1.78,2.69Z"/><path class="cls-3" d="M276.46,171a1.31,1.31,0,0,0,.22,1.05,4.24,4.24,0,0,0,2.8,1,52.92,52.92,0,0,1,13.81-2.94,41.8,41.8,0,0,1,7.25.08,39.9,39.9,0,0,1,7.11,1.3,41.47,41.47,0,0,1,13,6.11,42.7,42.7,0,0,1,5.49,4.54,34.62,34.62,0,0,1,4.59,5.39,24.81,24.81,0,0,0-5.39-7.22A35.6,35.6,0,0,0,318,175.1a67.62,67.62,0,0,0-16.88-6.1,121.85,121.85,0,0,0-17.84-2.75,6.57,6.57,0,0,0-3.67.61,5.89,5.89,0,0,0-2.59,2.49,3.68,3.68,0,0,0-.35.82l-.14.41C276.49,170.71,276.49,170.83,276.46,171Z"/><path class="cls-5" d="M283.69,217.5l.92,3.37.47,1.68a4,4,0,0,0,.63,1.53,3,3,0,0,0,1.17.93,2.42,2.42,0,0,0,.68.17l.88.1c.59.07,1.18.18,1.78.31.3.06.6.14.9.23l.8.21a26,26,0,0,0,11.76-.5l-.51-2.12a4.76,4.76,0,0,1-.52.1l-.28,0-.5,0h-.57a7.58,7.58,0,0,1-1.06-.09l-.14,0a7.34,7.34,0,0,1-1.12-.28l-.25-.09a8.68,8.68,0,0,1-1.09-.46l-.08,0a8.18,8.18,0,0,1-1-.6l-.21-.15a11.3,11.3,0,0,1-.93-.78c-.05-.05-.1-.11-.16-.16-.26-.27-.51-.55-.75-.85l-.12-.16a9.79,9.79,0,0,1-.71-1.06l-.14-.26a9.72,9.72,0,0,1-.57-1.22,10.52,10.52,0,0,1-.53-1.83,9.65,9.65,0,0,1-.17-1.77v-.05a6.68,6.68,0,0,1,0-.89,8.62,8.62,0,0,1,.11-.87,9,9,0,0,1,.39-1.46q.09-.27.21-.54a8.14,8.14,0,0,1,1.61-2.49,7.53,7.53,0,0,1,2.76-1.86l-.49-1.34a20.44,20.44,0,0,0-2.65,1.22,22.43,22.43,0,0,0-4.25,3.12A29.37,29.37,0,0,0,283.69,217.5Z"/><path class="cls-5" d="M296.92,204.27l.49,1.34h0a5.43,5.43,0,0,1,.75-.24l.24-.06a4.76,4.76,0,0,1,.52-.1l.28,0,.51,0h.41l.15,0a6.23,6.23,0,0,1,1.06.09h.14a9.38,9.38,0,0,1,1.13.29l.24.09a8.68,8.68,0,0,1,1.09.46l.08,0a9.84,9.84,0,0,1,1,.61l.21.15a11.3,11.3,0,0,1,.93.78l.16.16c.26.27.51.55.75.85,0,0,.09.1.13.16a11.43,11.43,0,0,1,.7,1.06l.14.26a9.72,9.72,0,0,1,.57,1.22,10.52,10.52,0,0,1,.53,1.83,11.21,11.21,0,0,1,.18,1.81,9.52,9.52,0,0,1-.6,3.43,6.81,6.81,0,0,1-.34.78,9,9,0,0,1-.55,1,8.34,8.34,0,0,1-.86,1.1,8.22,8.22,0,0,1-.61.57,7.47,7.47,0,0,1-2.16,1.29h0c-.25.1-.5.17-.74.24l-.25.06.51,2.12,1.34-.34a43.67,43.67,0,0,0,12.17-5.55,26.34,26.34,0,0,0,2.67-2,13,13,0,0,0,2.22-2.36,7.71,7.71,0,0,0,1.3-6.29,0,0,0,0,1,0,0h0A11.32,11.32,0,0,0,321.9,207c-.27-.29-.56-.56-.85-.82a8.71,8.71,0,0,0-.79-.63,61.62,61.62,0,0,0-10.65-2.46,26.69,26.69,0,0,0-2.67-.22,23.63,23.63,0,0,0-2.66,0,25,25,0,0,0-5.19.71A20.42,20.42,0,0,0,296.92,204.27Z"/><path class="cls-3" d="M313.63,339.44l-.55.76,0,.15a42.19,42.19,0,0,0,1.26,5.1,36.38,36.38,0,0,0,3.2,7.41,25.5,25.5,0,0,0,5,6.2,21.07,21.07,0,0,0,6.74,4c.63.19,1.24.46,1.88.61l1.92.45,2,.26a18.6,18.6,0,0,0,2,.12l1,0c.33,0,.67,0,1,0l2-.1,2-.26,1-.14,1-.2,2-.41c.64-.14,1.28-.35,1.93-.52s1.28-.36,1.92-.56l.23-.08,0-.06c2.25-8.86,4.23-17.77,6-26.72,1.82-9.4,3.39-18.83,4.6-28.31s2.14-19,2.67-28.55c.48-9,.63-18,.35-27l-.23.3a15.39,15.39,0,0,1-4.27,3.72,7.76,7.76,0,0,1-5.45.93,67.65,67.65,0,0,1-2.12,15.16,106.08,106.08,0,0,1-4.72,14.66,124.13,124.13,0,0,1-6.63,13.93c-2.45,4.53-5.26,8.85-8.07,13.12s-5.75,8.51-8.89,12.59c-1.57,2-3.21,4-4.86,6s-3.26,3.88-4.71,5.91C314.32,338.4,314,338.92,313.63,339.44Z"/><path class="cls-8" d="M342.91,746a40.11,40.11,0,0,0,1.23,16.13c.13-.1.25-.21.37-.32a8.83,8.83,0,0,0,1-1,12.68,12.68,0,0,0,1.32-2l.55-1.08c.16-.37.29-.76.43-1.13a18.66,18.66,0,0,0,.74-2.3,51,51,0,0,0,1.3-9.67l0-2.48c0-.82.06-1.65,0-2.48-.07-1.66,0-3.33-.12-5,0-.84-.1-1.67-.11-2.52s0-1.69-.11-2.53c0-.36,0-.72-.05-1.08A44.84,44.84,0,0,0,342.91,746Z"/><path class="cls-2" d="M428.62,727.22c.18.19.35.37.51.56.42.49.81,1,1.2,1.49.77,1,1.49,2,2.19,3.05,1.41,2,2.72,4.16,4,6.31a138.93,138.93,0,0,1,6.71,13.22,142.91,142.91,0,0,1,7.15,19.86,175.22,175.22,0,0,0,6.84-24.26,259.07,259.07,0,0,0,4.14-26.73q1.35-13.47,1.62-27c.22-9,.18-18.05-.19-27.07s-.88-18-1.63-27-1.7-18-2.77-27-2.36-17.94-3.76-26.88c-1.22-8.1-2.65-16.17-4.15-24.24a49.6,49.6,0,0,1-4.71,4.57,42.16,42.16,0,0,1-5.81,4.18c-1,.64-2.08,1.17-3.14,1.73l-1.8.79c1.41,6.06,2.6,12.17,3.66,18.3,1.13,6.56,2.19,13.14,3,19.75a387.11,387.11,0,0,1,3,39.85c.06,6.68-.06,13.36-.46,20a194,194,0,0,1-2.29,20,125.14,125.14,0,0,1-4.95,19.54A76.94,76.94,0,0,1,428.62,727.22Z"/><path class="cls-6" d="M437,519.41a20.28,20.28,0,0,0,.18,4.18c.09.69.24,1.38.35,2.07a18,18,0,0,0,.6,2,8.42,8.42,0,0,0,2.08,3.32,6.38,6.38,0,0,0,3.41,1.66,11.91,11.91,0,0,0,4.07-.12,30.56,30.56,0,0,0,8-3,59.82,59.82,0,0,0,6.74-4l.06,0c-.05-1.05-.15-2.09-.29-3.13a49.64,49.64,0,0,0-2.07-8.69l-.12,0a51.77,51.77,0,0,0-7.27-1.88,26.05,26.05,0,0,0-8.51-.4,10.3,10.3,0,0,0-3.8,1.33,6.67,6.67,0,0,0-2.53,2.86A10.11,10.11,0,0,0,437,519.41Zm9.72,1.42v0a3.58,3.58,0,0,1,1.7-2.81,6.68,6.68,0,0,1,6.79-.31,3.46,3.46,0,0,1,0,6.28,6.44,6.44,0,0,1-3.49.78,6.51,6.51,0,0,1-3.3-1.08,3.59,3.59,0,0,1-1.7-2.82Z"/><path class="cls-7" d="M446.69,520.83v0a3.31,3.31,0,0,0,1.78,2.7,6.16,6.16,0,0,0,6.25-.3,3.06,3.06,0,0,0,1.47-2.42,3,3,0,0,0-1.47-2.41,6.16,6.16,0,0,0-6.25-.3,3.31,3.31,0,0,0-1.78,2.69Z"/><path d="M304.17,223.11a7.47,7.47,0,0,0,2.16-1.29A7.47,7.47,0,0,1,304.17,223.11Z"/><path d="M302.37,218.44a2.39,2.39,0,0,1-.92.17,4.43,4.43,0,0,1-3.79-3c-.85-2.22-.14-4.64,1.55-5.3a2.63,2.63,0,0,1,.92-.17,4.44,4.44,0,0,1,3.79,3.05,5.07,5.07,0,0,1,.09,3.51A2.91,2.91,0,0,1,302.37,218.44Z"/><path class="cls-2" d="M301.45,223.61h0Z"/><path class="cls-9" d="M301.45,223.61h0Z"/><path class="cls-2" d="M300.13,205.1l.15,0h-.15Z"/><path class="cls-9" d="M300.13,205.1l.15,0h-.15Z"/><path class="cls-2" d="M306.94,221.25a8.34,8.34,0,0,0,.86-1.1A8.34,8.34,0,0,1,306.94,221.25Z"/><path class="cls-9" d="M306.94,221.25a8.34,8.34,0,0,0,.86-1.1A8.34,8.34,0,0,1,306.94,221.25Z"/><path class="cls-2" d="M292.47,215.54a10.52,10.52,0,0,0,.53,1.83A10.52,10.52,0,0,1,292.47,215.54Z"/><path class="cls-9" d="M292.47,215.54a10.52,10.52,0,0,0,.53,1.83A10.52,10.52,0,0,1,292.47,215.54Z"/><path d="M308.35,219.2a6.81,6.81,0,0,0,.34-.78,9.52,9.52,0,0,0,.6-3.43,11.21,11.21,0,0,0-.18-1.81,10.52,10.52,0,0,0-.53-1.83,9.72,9.72,0,0,0-.57-1.22l-.14-.26a9.79,9.79,0,0,0-.71-1.06l-.12-.16a10.24,10.24,0,0,0-.76-.85l-.15-.16a11.3,11.3,0,0,0-.93-.78l-.21-.15a9.84,9.84,0,0,0-1-.61l-.08,0a8.68,8.68,0,0,0-1.09-.46l-.24-.09a9.38,9.38,0,0,0-1.13-.29h-.14a6.32,6.32,0,0,0-1.06-.09h-.56l-.51,0-.28,0a4.76,4.76,0,0,0-.52.1l-.24.06a5.43,5.43,0,0,0-.75.24h0a7.53,7.53,0,0,0-2.76,1.86A8.14,8.14,0,0,0,293,210q-.12.27-.21.54a9,9,0,0,0-.39,1.46,8.62,8.62,0,0,0-.11.87c0,.3,0,.6,0,.89a.43.43,0,0,0,0,.05,9.65,9.65,0,0,0,.17,1.77,10.52,10.52,0,0,0,.53,1.83,9.72,9.72,0,0,0,.57,1.22l.14.26a9.79,9.79,0,0,0,.71,1.06l.12.16c.24.3.49.58.75.85.06.05.11.11.16.16a11.3,11.3,0,0,0,.93.78l.21.15a8.18,8.18,0,0,0,1,.6l.08,0a8.68,8.68,0,0,0,1.09.46l.25.09a7.34,7.34,0,0,0,1.12.28l.14,0a7.58,7.58,0,0,0,1.06.09h.56l.51,0,.28,0a4.76,4.76,0,0,0,.52-.1l.25-.06c.24-.07.49-.14.74-.24h0a7.47,7.47,0,0,0,2.16-1.29c.21-.18.41-.37.61-.57a8.34,8.34,0,0,0,.86-1.1A9,9,0,0,0,308.35,219.2Zm-12.26-3.4-1.9.63-.95-2.85,1.9-.62Zm7.92.86a2.91,2.91,0,0,1-1.64,1.78,2.39,2.39,0,0,1-.92.17,4.43,4.43,0,0,1-3.79-3c-.85-2.22-.14-4.64,1.55-5.3a2.63,2.63,0,0,1,.92-.17,4.44,4.44,0,0,1,3.79,3.05A5.07,5.07,0,0,1,304,216.66Z"/><path class="cls-10" d="M308.35,219.2a6.81,6.81,0,0,0,.34-.78,9.52,9.52,0,0,0,.6-3.43,11.21,11.21,0,0,0-.18-1.81,10.52,10.52,0,0,0-.53-1.83,9.72,9.72,0,0,0-.57-1.22l-.14-.26a9.79,9.79,0,0,0-.71-1.06l-.12-.16a10.24,10.24,0,0,0-.76-.85l-.15-.16a11.3,11.3,0,0,0-.93-.78l-.21-.15a9.84,9.84,0,0,0-1-.61l-.08,0a8.68,8.68,0,0,0-1.09-.46l-.24-.09a9.38,9.38,0,0,0-1.13-.29h-.14a6.32,6.32,0,0,0-1.06-.09h-.56l-.51,0-.28,0a4.76,4.76,0,0,0-.52.1l-.24.06a5.43,5.43,0,0,0-.75.24h0a7.53,7.53,0,0,0-2.76,1.86A8.14,8.14,0,0,0,293,210q-.12.27-.21.54a9,9,0,0,0-.39,1.46,8.62,8.62,0,0,0-.11.87c0,.3,0,.6,0,.89a.43.43,0,0,0,0,.05,9.65,9.65,0,0,0,.17,1.77,10.52,10.52,0,0,0,.53,1.83,9.72,9.72,0,0,0,.57,1.22l.14.26a9.79,9.79,0,0,0,.71,1.06l.12.16c.24.3.49.58.75.85.06.05.11.11.16.16a11.3,11.3,0,0,0,.93.78l.21.15a8.18,8.18,0,0,0,1,.6l.08,0a8.68,8.68,0,0,0,1.09.46l.25.09a7.34,7.34,0,0,0,1.12.28l.14,0a7.58,7.58,0,0,0,1.06.09h.56l.51,0,.28,0a4.76,4.76,0,0,0,.52-.1l.25-.06c.24-.07.49-.14.74-.24h0a7.47,7.47,0,0,0,2.16-1.29c.21-.18.41-.37.61-.57a8.34,8.34,0,0,0,.86-1.1A9,9,0,0,0,308.35,219.2Zm-12.26-3.4-1.9.63-.95-2.85,1.9-.62Zm7.92.86a2.91,2.91,0,0,1-1.64,1.78,2.39,2.39,0,0,1-.92.17,4.43,4.43,0,0,1-3.79-3c-.85-2.22-.14-4.64,1.55-5.3a2.63,2.63,0,0,1,.92-.17,4.44,4.44,0,0,1,3.79,3.05A5.07,5.07,0,0,1,304,216.66Z"/><rect class="cls-5" x="293.66" y="213.19" width="2" height="3" transform="translate(-52.48 103.28) rotate(-18.28)"/><path d="M179.58,717.07a101.14,101.14,0,0,1,16.11-11.57,91.54,91.54,0,0,0-8.63,5,99,99,0,0,0-8,5.92c-2.59,2.09-5.08,4.31-7.48,6.63s-4.73,4.7-6.93,7.22a194.59,194.59,0,0,0-23,32.7,298.72,298.72,0,0,0-17,36.18,302.51,302.51,0,0,0-12.37,38l-.43,1.77h1.83l84.87-.12q42.45,0,84.88-.27l84.87-.4,84.53-.65-.15,1c.07-.33.13-.67.21-1h0a133.79,133.79,0,0,0,2.86-28.24,138.61,138.61,0,0,0-3.35-29.32c-.6-2.69-1.28-5.38-2-8,7.05-16.1,11-33.48,13.26-50.92a342.93,342.93,0,0,0,2.09-54.46,502.08,502.08,0,0,0-5.08-54.23,511.89,511.89,0,0,0-10.09-50.94l.27-.28a72.64,72.64,0,0,0,8.37-11.46,42.58,42.58,0,0,0,6-27.67,60.42,60.42,0,0,0-3.89-13.74,70.35,70.35,0,0,0-6.62-12.56,73.53,73.53,0,0,0-5.94-7.77q1-16,.95-32c-.12-10.9-.61-21.77-1-32.64-.25-5.45-.39-10.83-.76-16.33a55.37,55.37,0,0,0-3.73-16.24,59,59,0,0,0-20.48-25.88,61.09,61.09,0,0,0-7.07-4.37,42.8,42.8,0,0,0,.43-16.58,49.88,49.88,0,0,0-6.26-17.28,56.19,56.19,0,0,0-11.84-14,67.55,67.55,0,0,0-9.73-7c3.45-10.36,6.45-20.88,8.9-31.55a239.83,239.83,0,0,0,6.17-57.15A175.07,175.07,0,0,0,401.08,188a133.63,133.63,0,0,0-8.61-27.74,118.16,118.16,0,0,0-14.92-25,101.17,101.17,0,0,0-9.89-10.82c-.88-.85-1.79-1.67-2.72-2.47s-1.88-1.58-2.84-2.35-2-1.5-3-2.21-1.91-1.31-3-2l-10.29-7.91c-3.55-2.58-7.2-5-10.79-7.56s-7.45-4.68-11.17-7c-1.91-1.09-3.86-2.12-5.79-3.19l-2.9-1.58c-1-.52-1.92-1.07-2.93-1.52l-6-2.84-3-1.42-3.06-1.24-6.14-2.48c-2.07-.76-4.18-1.42-6.27-2.13l-3.14-1c-1.06-.33-2.14-.58-3.2-.87-2.14-.55-4.27-1.14-6.42-1.66l-6.52-1.24-1.62-.31c-.55-.1-1.1-.15-1.65-.22L262,70.79a112.76,112.76,0,0,0-26.48-.15A105.54,105.54,0,0,0,209.84,77a108.31,108.31,0,0,0-23.1,12.57,105.15,105.15,0,0,0-13,11.08,40.62,40.62,0,0,0-13,4.9A51.23,51.23,0,0,0,148.94,115a59.27,59.27,0,0,0-8.76,12.36,80,80,0,0,0-5.76,14A116.5,116.5,0,0,0,130,171.19a188.4,188.4,0,0,0,2,29.95c.67,4.92,1.43,9.75,2,14.64s1.07,9.76,1.49,14.64a157.15,157.15,0,0,1,0,29.18,67.08,67.08,0,0,1-3.11,14.07,63.2,63.2,0,0,1-6.35,13c-2.54,4.19-5.31,8.38-7.49,12.89A61.77,61.77,0,0,0,114,312.31q-6.86-6.17-14-12c-7.34-6-14.81-11.78-22.53-17.29-2-13.35-4.36-26.62-7.35-39.79C68.65,236.56,67,230,64.92,223.42s-4.39-13-8-19A107.22,107.22,0,0,0,44.48,188c-2.27-2.56-4.64-5-7-7.47s-4.78-4.86-7.21-7.23c-4.81-4.8-9.78-9.43-14.5-14.28q-1.77-1.81-3.5-3.68c-1.17-1.22-2.31-2.47-3.43-3.73a65.45,65.45,0,0,1-6.14-8.09A52.44,52.44,0,0,0,8,152.24q1.51,2.07,3.12,4.07c1.08,1.32,2.19,2.62,3.31,3.9,4.5,5.13,9.15,10.11,13.88,15l7,7.34C37.7,185,40,187.47,42.26,190s4.47,5.05,6.57,7.67a87.05,87.05,0,0,1,5.88,8.11,57.09,57.09,0,0,1,4.45,8.92c1.28,3.1,2.42,6.27,3.45,9.49,2.08,6.42,3.82,13,5.41,19.55,3.13,13.18,5.69,26.53,7.77,39.92l.07.39.31.22C84,289.7,91.63,295.49,99.1,301.46q7.43,5.94,14.61,12.2h0c2.43,2.12,4.84,4.25,7.2,6.44a239.36,239.36,0,0,1,20,20.55c6.14,7.3,11.94,15.05,15.79,23.85a75.53,75.53,0,0,0-6.78-12.66,128.81,128.81,0,0,0-8.55-11.57c-.81-1-1.66-1.94-2.49-2.91a95.27,95.27,0,0,1,20.21,6.38l2.47,1.08L164,346c1.61.79,3.23,1.58,4.78,2.5,3.17,1.7,6.24,3.6,9.27,5.55a189.19,189.19,0,0,1,17.47,12.83c5.6,4.6,11,9.47,16.2,14.59A105.17,105.17,0,0,0,202,370a44.17,44.17,0,0,0,4.94-11.14c.3-1,.5-2.08.76-3.13.12-.52.26-1,.36-1.57l.24-1.59c.16-1.06.34-2.12.46-3.19l.21-3.22.1-1.61c0-.54,0-1.07,0-1.61l-.07-3.22c0-1.08-.14-2.15-.23-3.22l-.31-3.21c-.07-1.07-.34-2.11-.51-3.17l-.58-3.17a30.16,30.16,0,0,0-.71-3.13l-.8-3.11c-.5-2.09-1.25-4.1-1.93-6.12s-1.34-4.07-2.23-6l-2.51-5.89c-.93-1.91-1.91-3.81-2.88-5.7l-1.08-2.11c1.2,1.57,2.43,3.11,3.72,4.61a133,133,0,0,0,10.8,11c7.65,6.87,15.9,13,24.13,19.05l12.33,9.08c2.06,1.51,4.08,3.06,6.12,4.59a74.16,74.16,0,0,0,6.45,4.42,54.34,54.34,0,0,0,14.47,6.06A50,50,0,0,0,281,355a35.44,35.44,0,0,0,8-.12,35,35,0,0,0,14.84-5.6,35.43,35.43,0,0,0,8.66-8.22l.48-.67a38,38,0,0,0,3.91,12.86,26.69,26.69,0,0,0,4.94,6.65,22.16,22.16,0,0,0,7,4.57c.66.24,1.31.53,2,.71l2,.53,2.08.34c.69.13,1.39.11,2.09.18l1,.07,1.05,0c.7,0,1.4,0,2.09-.06l2.08-.22,1-.11,1-.19,2-.37c.68-.13,1.35-.33,2-.49s1.35-.34,2-.53l2-.63c.66-.22,1.32-.41,2-.65l1.92-.75,3.81-1.46a74.29,74.29,0,0,1,15.45-4.15,64.39,64.39,0,0,1,15.93-.44,62.31,62.31,0,0,1,15.49,3.53,58.86,58.86,0,0,1,14,7.46,56.29,56.29,0,0,1,19.61,24.5,52.29,52.29,0,0,1,3.73,15.39c.26,2.63.35,5.41.54,8.1l.54,8.14c.72,10.86,1.46,21.7,1.88,32.55.25,5.43.39,10.86.45,16.3,0,5.21,0,10.42,0,15.64a84.14,84.14,0,0,0-13.59-12.49,73.45,73.45,0,0,1-10.26-9.11A46.08,46.08,0,0,1,417,455a31.56,31.56,0,0,1-3.35-13.18,28.23,28.23,0,0,1,.66-6.85,23.7,23.7,0,0,1,2.34-6.51,26.44,26.44,0,0,0-3.79,13.36,32.51,32.51,0,0,0,2.81,13.79c.44,1.1,1,2.13,1.55,3.2s1.16,2.06,1.85,3l1,1.48,1.06,1.42c.69,1,1.49,1.83,2.23,2.75a71.39,71.39,0,0,0,10.31,9.66,94.83,94.83,0,0,1,10.17,9.23,74.68,74.68,0,0,1,8.43,10.76,71.25,71.25,0,0,1,6.27,12.11c.54,1.37,1,2.76,1.5,4.16a46.63,46.63,0,0,0-7.1-2.67,25.17,25.17,0,0,0-8.93-1,11.14,11.14,0,0,0-4.5,1.37,8.53,8.53,0,0,0-3.32,3.52,11.57,11.57,0,0,0-1.19,4.58,22.65,22.65,0,0,0,.15,4.59c.1.75.27,1.5.41,2.26a17.83,17.83,0,0,0,.7,2.22,10,10,0,0,0,2.62,4,8.22,8.22,0,0,0,4.42,2A12.5,12.5,0,0,0,448,534a28.4,28.4,0,0,0,8.19-3.65,50.1,50.1,0,0,0,6.33-4.76,40.13,40.13,0,0,1-5.75,22.56c-4.54,7.89-10.45,15.16-18.06,20.07-.93.63-1.94,1.15-2.92,1.7s-2,1-3.08,1.39a33.13,33.13,0,0,1-6.48,1.87,35.49,35.49,0,0,1-6.75.56,41.76,41.76,0,0,1-6.78-.76,52.87,52.87,0,0,1-13-4.44,94.88,94.88,0,0,1-12-7.06,81.31,81.31,0,0,0,11.61,7.77,54,54,0,0,0,13.07,5.17,41.28,41.28,0,0,0,7,1,37.08,37.08,0,0,0,7.14-.34,32.79,32.79,0,0,0,6.94-1.79,14.68,14.68,0,0,0,1.43-.57q3.33,19,5.14,38.19a390.32,390.32,0,0,1,2,39.7c0,6.62-.22,13.23-.69,19.82s-1.27,13.15-2.39,19.64a123.85,123.85,0,0,1-4.91,19,73.47,73.47,0,0,1-8.39,17.22l0,0-13.16,24.46L427,729.73c.36.42.71.86,1.06,1.31.73.94,1.43,1.92,2.11,2.91,1.36,2,2.66,4,3.9,6.11a139.37,139.37,0,0,1,6.74,12.88,155.63,155.63,0,0,1,9.63,27.47,147.15,147.15,0,0,1,4.08,28.88,137.32,137.32,0,0,1-.15,14.63c-.31,4.54-.8,9.07-1.5,13.58L392,837q1.49-2.07,2.79-4.26c.88-1.66,1.85-3.3,2.58-5a51.18,51.18,0,0,0,2.13-5.26c.67-1.77,1.14-3.61,1.65-5.44a56.9,56.9,0,0,0,1.66-11.25,35.09,35.09,0,0,0-1.13-11.28,97.5,97.5,0,0,1-1.19,11c-.61,3.62-1.37,7.2-2.24,10.75s-1.93,7.07-3.06,10.59c-.25.89-.57,1.75-.87,2.63l-.87,2.64c-.54,1.62-1.13,3.21-1.63,4.87l-23.52-.18-84.87-.4q-42.43-.19-84.88-.27l-83-.11c1.52-5.77,3.29-11.52,5.13-17.22q3-9.44,6.61-18.69a304,304,0,0,1,16.55-36,192.87,192.87,0,0,1,22-32.88A130.22,130.22,0,0,1,179.58,717.07ZM313.08,340.2l.55-.76c.35-.52.69-1,1.06-1.54,1.44-2,3.06-3.95,4.71-5.91s3.29-4,4.86-6c3.14-4.08,6.07-8.31,8.89-12.59s5.62-8.59,8.07-13.12a124.13,124.13,0,0,0,6.63-13.93,106.08,106.08,0,0,0,4.72-14.66,67.65,67.65,0,0,0,2.12-15.16,7.76,7.76,0,0,0,5.45-.93,15.39,15.39,0,0,0,4.27-3.72l.23-.3c.28,9,.13,18-.35,27q-.8,14.31-2.67,28.55c-1.21,9.48-2.78,18.91-4.6,28.31q-2.65,13.45-6,26.78l-.23.08c-.64.2-1.28.37-1.92.56s-1.29.38-1.94.52l-2,.41-1,.2-1,.14-2,.26-2,.1c-.34,0-.67,0-1,0l-1,0a18.6,18.6,0,0,1-2-.12l-2-.26-1.92-.45c-.64-.15-1.25-.42-1.88-.61a21.07,21.07,0,0,1-6.74-4,25.5,25.5,0,0,1-5-6.2,36.38,36.38,0,0,1-3.2-7.41A42.78,42.78,0,0,1,313.08,340.2ZM416.4,360.31a62.9,62.9,0,0,0-23.72-6.91,68.77,68.77,0,0,0-32.5,5.26l-3.77,1.57-1.86.77c-.62.25-1.26.45-1.88.68l-1.56.54a259.51,259.51,0,0,0,7.44-26.42c2.14-9.37,3.8-18.85,5.06-28.38a279.08,279.08,0,0,0,2.24-28.74,204.8,204.8,0,0,0-1.08-27.25,31.82,31.82,0,0,0,2.77-4.24,48.76,48.76,0,0,0,2.45-5,86.55,86.55,0,0,0,3.65-10.55,109.82,109.82,0,0,0,2.49-10.87v-.16c.13-2.57.24-5.14.25-7.72s-.07-5.17-.26-7.76a52.86,52.86,0,0,0-1.05-7.78,22.25,22.25,0,0,0-2.93-7.58,8.19,8.19,0,0,0-3.34-2.91,7,7,0,0,0-4.46-.37,16.91,16.91,0,0,0-7,4,47.66,47.66,0,0,0-6.42,7.15,68.14,68.14,0,0,0-12.27-17.53,59.69,59.69,0,0,0-8.6-7.17,58.2,58.2,0,0,0-9.86-5.4,69.52,69.52,0,0,0-21.79-5.22c-3.72-.33-7.52-.27-11.15-.28l-5.51,0-5.5-.13c-14.64-.41-29.32-1.55-43.58-4.73A87,87,0,0,1,212.12,150a39.1,39.1,0,0,1-8.9-6.22,24.39,24.39,0,0,1-3.46-4.2,13.14,13.14,0,0,1-2.07-5,10.38,10.38,0,0,0,.6,2.8l0,0a12.81,12.81,0,0,0-2.57-2.76,13,13,0,0,0,.42,3.69.67.67,0,0,0-.09-.14,10.9,10.9,0,0,0-2.33-2.55,10.91,10.91,0,0,0,.16,3.45,16.46,16.46,0,0,0,1,3.13,16.24,16.24,0,0,0,1,1.91,16.51,16.51,0,0,1-1.31,9.67,29.3,29.3,0,0,1-8.4,10.35,58.61,58.61,0,0,1-5.49,4,51.85,51.85,0,0,0-5.76,4.2A28.45,28.45,0,0,0,166.46,184a25.2,25.2,0,0,0-.55,14.51A28.06,28.06,0,0,0,167,202c.22.56.48,1.14.72,1.66s.46,1,.68,1.54c.44,1,.82,2.08,1.16,3.16s.7,2.18,1,3.28a90.19,90.19,0,0,1,2.93,13.4,48.94,48.94,0,0,1,.48,6.84,23,23,0,0,1-.24,3.42,6.8,6.8,0,0,1-1.09,3.22,6.93,6.93,0,0,0,1.53-3.12,24,24,0,0,0,.63-3.47,45.7,45.7,0,0,0,.15-7A76.48,76.48,0,0,0,172.86,211c-.27-1.13-.56-2.27-.87-3.4s-.7-2.29-1.12-3.4c-.22-.56-.44-1.11-.67-1.66s-.43-1-.62-1.54a26.57,26.57,0,0,1-.92-3.16,22.74,22.74,0,0,1,.62-12.85,26.13,26.13,0,0,1,7.42-10.69,48.15,48.15,0,0,1,5.33-4.14,48.93,48.93,0,0,0,5.57-4.4,29.35,29.35,0,0,0,8.23-11.57,17.26,17.26,0,0,0,.75-8.94,10.08,10.08,0,0,0,2.11,2.24,10.91,10.91,0,0,0-.16-3.45c0-.13-.07-.25-.1-.38.22.36.44.72.69,1.07a12.56,12.56,0,0,0,2.57,2.76,12.59,12.59,0,0,0-.43-3.74,20.17,20.17,0,0,0-.65-2,26.43,26.43,0,0,0,2,2.57,40.23,40.23,0,0,0,8.75,6.94,82.24,82.24,0,0,0,20.73,8.18,165.14,165.14,0,0,0,21.9,4c7.37.84,14.77,1.25,22.16,1.5l.94,0a8.73,8.73,0,0,0-2.75,3,6.61,6.61,0,0,0-.56,1.27l-.21.68c-.05.23-.08.5-.12.75l0,.38,0,.42a2.77,2.77,0,0,0,.12.85,3.9,3.9,0,0,0,.79,1.59,5.49,5.49,0,0,0,2.61,1.66,9.35,9.35,0,0,0,2.7.43h.24l.26-.1a56.24,56.24,0,0,1,13.32-3.13,43.41,43.41,0,0,1,6.84-.13,37.89,37.89,0,0,1,6.78.94,44.55,44.55,0,0,1,6.57,2,48.33,48.33,0,0,1,6.2,3.08,45.48,45.48,0,0,1,10.79,8.84,34.62,34.62,0,0,0-4.59-5.39,42.7,42.7,0,0,0-5.49-4.54,41.47,41.47,0,0,0-13-6.11,39.9,39.9,0,0,0-7.11-1.3,41.8,41.8,0,0,0-7.25-.08A52.92,52.92,0,0,0,279.48,173a4.24,4.24,0,0,1-2.8-1,1.31,1.31,0,0,1-.22-1.05c0-.12,0-.24.06-.37l.14-.41a3.68,3.68,0,0,1,.35-.82,5.89,5.89,0,0,1,2.59-2.49,6.57,6.57,0,0,1,3.67-.61A121.85,121.85,0,0,1,301.11,169,67.62,67.62,0,0,1,318,175.1a35.6,35.6,0,0,1,7.31,5.18,24.81,24.81,0,0,1,5.39,7.22,23.5,23.5,0,0,0-4.73-7.87,34.47,34.47,0,0,0-7.16-5.91,53.69,53.69,0,0,0-8.28-4.21,81,81,0,0,0-8.79-2.95c-2.25-.6-4.53-1.1-6.81-1.56,1.1,0,2.2.08,3.3.16a69.63,69.63,0,0,1,21.11,4.55,59.12,59.12,0,0,1,18.33,11.46,65.82,65.82,0,0,1,7.44,8,89.67,89.67,0,0,1,5.8,8.5c-1.14,1.56-2.21,3.17-3.21,4.81,1.62-2,3.32-3.89,5.09-5.7a50.36,50.36,0,0,1,5.62-5.05,15.89,15.89,0,0,1,6.37-3.19,4.74,4.74,0,0,1,3,.38,5.9,5.9,0,0,1,2.23,2.21,19.47,19.47,0,0,1,2.32,6.72,66.92,66.92,0,0,1,.87,7.41c.28,5,.21,10,0,15.07-.59,3.51-1.31,7.08-2.16,10.58A103.39,103.39,0,0,1,368,241.37a43.66,43.66,0,0,1-4.64,9.72,15.38,15.38,0,0,1-3.63,3.87,7.67,7.67,0,0,1-5,1.51l0-.37-.08.4v0h0a53.07,53.07,0,0,1-1.08,7.54c-.22,1.26-.54,2.49-.81,3.73s-.64,2.47-1,3.69a106,106,0,0,1-5.29,14.29,154.76,154.76,0,0,1-15.29,26.32c-2.9,4.18-5.89,8.29-9,12.28-1.57,2-3.2,3.92-4.87,5.84s-3.37,3.9-4.92,6l-2.22,3.1a30.2,30.2,0,0,1-2.38,2.79,32.37,32.37,0,0,1-5.6,4.71,32,32,0,0,1-13.61,5.07,32.54,32.54,0,0,1-7.32.13,46.7,46.7,0,0,1-7.33-1.21,53,53,0,0,1-13.74-5.67A69.88,69.88,0,0,1,254,341c-2.07-1.5-4.12-3-6.21-4.52-4.14-3-8.33-5.93-12.52-8.86-8.34-5.9-16.72-11.72-24.52-18.26A130.58,130.58,0,0,1,199.52,299c-2-2.16-3.93-4.39-5.79-6.69l-.51-.87L189.94,286c-.54-.92-1.15-1.79-1.75-2.66l-1.81-2.62c-1.21-1.74-2.45-3.46-3.69-5.17q1.47,2.82,3,5.61c1,1.87,2.09,3.66,3,5.57l2.82,5.65,1.42,2.82,1.28,2.88c.85,1.92,1.72,3.83,2.59,5.74l2.27,5.85c.81,1.93,1.44,3.92,2.09,5.91s1.35,4,1.82,6a90.5,90.5,0,0,1,3.67,24.6l0,3.12c-.05,1-.17,2.07-.24,3.1l-.12,1.56c-.06.52-.15,1-.23,1.54-.16,1-.29,2.07-.5,3.09A53.69,53.69,0,0,1,201.92,370c-1.59-1.64-3.23-3.24-4.9-4.8-1.36-1.23-2.72-2.47-4.12-3.66l-4.26-3.5-4.43-3.3c-1.5-1.06-3-2.08-4.56-3.12-3.12-2-6.27-3.88-9.57-5.55-1.62-.88-3.31-1.62-5-2.37l-2.52-1.13-2.61-.95a65,65,0,0,0-21.15-4.29c-5.4-6.28-11.17-12.24-17.16-18-2.46-2.34-5-4.63-7.48-6.9a69,69,0,0,1,5.59-12.19c2.49-4.22,5.44-8.13,8.32-12.2a64.53,64.53,0,0,0,7.37-13.21,66.52,66.52,0,0,0,3.9-14.69,110.32,110.32,0,0,0,1.2-15c0-.5,0-1,0-1.48.52,1.61,1.13,3.18,1.78,4.73.92,2.06,1.88,4.1,3,6.07a56.63,56.63,0,0,0,3.48,5.77l1.89,2.8,2.13,2.65c.36.43.71.88,1.08,1.31l1.21,1.2,1.21,1.2a9.83,9.83,0,0,0,1.26,1.15,27,27,0,0,0,12,6.35,20.29,20.29,0,0,0,3.37.49,20.08,20.08,0,0,0,3.38,0,17.55,17.55,0,0,0,6.42-1.81,19,19,0,0,1-6.45,1,22.7,22.7,0,0,1-6.36-1,27.09,27.09,0,0,1-10.81-6.67,11.06,11.06,0,0,1-1.13-1.14l-1.08-1.19-1.08-1.19c-.34-.42-.66-.86-1-1.28l-1.95-2.58-1.73-2.74a81.89,81.89,0,0,1-6-11.51,43.24,43.24,0,0,1-3.44-12.25,14.14,14.14,0,0,1,.53-5.92,5.59,5.59,0,0,1,1.44-2.26,5.91,5.91,0,0,1,1-.81c.2-.1.42-.18.62-.27a2.54,2.54,0,0,1,.65-.24,12.44,12.44,0,0,1,6,.05,33.41,33.41,0,0,1,6.09,2,85.69,85.69,0,0,1,11.57,6.24h0a4.46,4.46,0,0,0,2.11.45,2.82,2.82,0,0,0,1-.24,2.64,2.64,0,0,0,.86-.61,2.53,2.53,0,0,1-.9.48,2.58,2.58,0,0,1-1,.1,4.39,4.39,0,0,1-1.85-.64,66.35,66.35,0,0,0-11.12-7.36,31.25,31.25,0,0,0-6.33-2.54,14.46,14.46,0,0,0-7.13-.36,8,8,0,0,0-5.25,4.17c-.68-9-1.84-17.91-3.06-26.74a191.89,191.89,0,0,1-2.19-29.18,121.4,121.4,0,0,1,3.41-28.84c2.52-9.3,6.42-18.36,12.62-25.83a51.41,51.41,0,0,1,10.65-9.85,45,45,0,0,1,6.35-3.68,36.33,36.33,0,0,1,5.82-2.26,78.2,78.2,0,0,0-5.91,6.7,75.27,75.27,0,0,1,7-7h0c.79-.71,1.59-1.4,2.4-2.08a115.44,115.44,0,0,1,10.44-7.74,110.27,110.27,0,0,1,23.17-11.45,104.36,104.36,0,0,1,25.14-5.45,114.09,114.09,0,0,1,25.66.77l3.19.46c.52.08,1.06.13,1.58.24l1.58.34,6.29,1.34c2.07.55,4.13,1.16,6.2,1.74,1,.3,2.07.56,3.09.89l3,1.06c2,.72,4.07,1.39,6.07,2.15l5.95,2.49,3,1.25,2.9,1.42,5.79,2.85a257.66,257.66,0,0,1,43,28.64l.14.11.22.13c.85.5,1.86,1.16,2.77,1.81s1.85,1.36,2.75,2.07,1.8,1.43,2.67,2.21,1.74,1.51,2.58,2.31a96.43,96.43,0,0,1,9.43,10.25,113.58,113.58,0,0,1,14.4,23.92,131.34,131.34,0,0,1,8.64,26.7,184.86,184.86,0,0,1,3.54,28c.05,4.72.32,9.44.07,14.17-.09,2.36-.09,4.72-.25,7.08l-.55,7.08c-.1,1.18-.15,2.37-.29,3.54l-.42,3.53-.86,7.06c-.33,2.35-.76,4.68-1.14,7s-.74,4.69-1.22,7c-2,10.57-4.59,21-7.54,31.41q-2.16-1.24-4.38-2.33c1.43.94,2.83,1.92,4.21,2.92q-3.33,11.61-7.21,23.08,4.47-11,8.25-22.29a94.08,94.08,0,0,1,8.93,7.46A64.89,64.89,0,0,1,409,327.56a55.2,55.2,0,0,1,6.46,16.54,56.28,56.28,0,0,1,1.12,8.89A44.82,44.82,0,0,1,416.4,360.31Zm46.09,165.16a60.92,60.92,0,0,1-6.8,4,30.56,30.56,0,0,1-8,3,11.91,11.91,0,0,1-4.07.12,6.38,6.38,0,0,1-3.41-1.66,8.42,8.42,0,0,1-2.08-3.32,18,18,0,0,1-.6-2c-.12-.69-.26-1.38-.35-2.07a20.28,20.28,0,0,1-.18-4.18,10.11,10.11,0,0,1,.93-3.89,6.67,6.67,0,0,1,2.53-2.86,10.3,10.3,0,0,1,3.8-1.33,26.05,26.05,0,0,1,8.51.4,52.14,52.14,0,0,1,7.39,1.92,50.56,50.56,0,0,1,2.07,8.69C462.34,523.38,462.44,524.42,462.49,525.47ZM450.34,771.71a142.91,142.91,0,0,0-7.15-19.86,138.93,138.93,0,0,0-6.71-13.22c-1.24-2.15-2.55-4.26-4-6.31-.7-1-1.42-2.05-2.19-3.05-.39-.5-.78-1-1.2-1.49-.16-.19-.33-.37-.51-.56a76.94,76.94,0,0,0,8.27-17.05,125.14,125.14,0,0,0,4.95-19.54,194,194,0,0,0,2.29-20c.4-6.67.52-13.35.46-20a387.11,387.11,0,0,0-3-39.85c-.8-6.61-1.86-13.19-3-19.75-1.06-6.13-2.25-12.24-3.66-18.3l1.8-.79c1.06-.56,2.14-1.09,3.14-1.73a42.16,42.16,0,0,0,5.81-4.18,49.6,49.6,0,0,0,4.71-4.57c1.5,8.07,2.93,16.14,4.15,24.24q2.1,13.41,3.76,26.88c1.07,9,2,18,2.77,27s1.32,18,1.63,27,.41,18,.19,27.07-.72,18-1.62,27a259.07,259.07,0,0,1-4.14,26.73A175.22,175.22,0,0,1,450.34,771.71Z"/><path d="M1.52,197.25q.3-26.88,1.17-53.75.87,26.88,1.17,53.75c.14,9,.17,17.92.25,26.87L4.19,251l-.08,26.87c-.09,9-.12,17.92-.25,26.88q-.3,26.88-1.17,53.75-.87-26.88-1.17-53.75c-.13-9-.17-17.92-.25-26.88L1.19,251l.08-26.88C1.35,215.17,1.38,206.21,1.52,197.25Z"/><path d="M31.39,387.24c9.75,9.37,19.63,18.59,29.85,27.43,5.07,4.46,10.28,8.76,15.53,13S87.42,436,92.88,439.91s11.08,7.7,16.87,11.16a153.81,153.81,0,0,0,14.58,7.87c-.79-1.4-1.57-2.8-2.34-4.22-1.62-3.07-3.26-6.12-4.78-9.24-3.09-6.21-6-12.51-8.52-19,3.63,5.92,7.11,11.9,10.57,17.88s6.91,12,10.42,17.9,7,11.85,10.72,17.67c1.85,2.9,3.74,5.77,5.75,8.56a64.77,64.77,0,0,0,6.54,8,45.18,45.18,0,0,1-7.69-7.07q-3.47-3.93-6.53-8.16c-2.08-2.8-4-5.7-5.91-8.6s-3.69-5.89-5.46-8.88q-1.26-2.19-2.51-4.38A144.94,144.94,0,0,1,109,452.35l-.1-.06c.67,5.07,1.47,10.12,2.58,15.1a160.89,160.89,0,0,0,4.68,16.42c.89,2.7,1.92,5.36,2.88,8l3.2,7.91,3.47,7.81,3.7,7.7c5.14,10.17,10.49,20.24,16.26,30.08,2.84,4.94,5.83,9.8,8.74,14.71l9.05,14.53,4.39,7.42,2.2,3.71,1.09,1.86,1,1.91,3.95,7.67c.65,1.28,1.33,2.55,2,3.84l1.74,4,3.45,7.9c1.07,2.67,2,5.39,3,8.08l1.49,4c.51,1.35.87,2.75,1.3,4.12l2.46,8.26a200.29,200.29,0,0,1,5.85,33.91l.29,4.3c.07,1.43.06,2.87.1,4.3s.08,2.87.05,4.3l-.12,4.3a97.49,97.49,0,0,1-2,17,132.85,132.85,0,0,0,.2-34.1,198.91,198.91,0,0,0-6.6-33.43A253.08,253.08,0,0,0,161,576.19c-12.19-19.36-23.82-39.16-33.58-59.93l-3.54-7.83-3.3-7.95-3-8.05c-.89-2.73-1.89-5.42-2.69-8.17a160.9,160.9,0,0,1-4.06-16.72,143.22,143.22,0,0,1-1.91-15.31,187.93,187.93,0,0,1-17.28-10.4,328.68,328.68,0,0,1-32.27-24.9c-5.11-4.48-10.16-9-15.08-13.71s-9.76-9.44-14.46-14.33c-9.46-9.73-18.54-19.83-27-30.39,4.71,4.87,9.41,9.75,14.24,14.5S26.53,382.53,31.39,387.24Z"/><path d="M354.4,239.21c0-1.86-.06-3.72-.16-5.58-.13-3.71-.33-7.41-.72-11.09a83.6,83.6,0,0,0-1.83-11,33.55,33.55,0,0,1,4.14,10.66,59.81,59.81,0,0,1,1.4,11.36c0,1,0,1.91,0,2.86s0,1.9,0,2.85c-.09,1.9-.18,3.8-.4,5.68a63.59,63.59,0,0,1-2.09,11.19c-.16-3.8-.19-7.55-.24-11.29C354.44,242.93,354.47,241.07,354.4,239.21Z"/><path d="M191.78,499.43l1,3.95c.17.66.32,1.32.51,2l.61,1.94c1.66,5.17,3,10.42,5.12,15.43l1.44,3.8c.5,1.25.91,2.55,1.51,3.76l3.38,7.38A142.36,142.36,0,0,0,222.49,565l2.57,3.09c.85,1,1.83,2,2.73,3s1.82,2,2.8,2.89l2.95,2.72a67.55,67.55,0,0,0,13,9.24c.58.33,1.15.56,1.72.82s1.28.54,1.91.81l3.75,1.53c1.25.5,2.49,1,3.74,1.51l3.82,1.26c2.52.92,5.15,1.46,7.74,2.13l1,.24,1,.17,2,.33,2,.34,1,.17,1,.09,4,.35c1.33.11,2.66,0,4,.06h2l2-.18,2-.17,1-.09,1-.17,3.92-.72,3.85-1.06a53.53,53.53,0,0,0,7.41-2.92c9.63-4.63,17.7-12.21,24-20.95a101.68,101.68,0,0,0,14.55-28.94,91.34,91.34,0,0,1-5.42,15.42,98,98,0,0,1-7.93,14.36c-6.15,9.06-14.24,17.07-24.16,22.16a51.24,51.24,0,0,1-15.79,5.23l-1,.2-1,.1-2.08.22-2.08.21-2.08,0c-1.39,0-2.79.09-4.17,0l-4.16-.32-1-.08-1-.16-2.06-.33-2.05-.34-1-.17-1-.24c-2.68-.69-5.41-1.23-8-2.17l-3.94-1.28c-1.29-.49-2.56-1-3.84-1.53l-3.82-1.54-1.85-.78a20.84,20.84,0,0,1-2-.92,69.87,69.87,0,0,1-13.54-9.72l-3-2.83c-1-1-1.9-2-2.86-3s-1.93-2-2.8-3l-2.61-3.21a136.19,136.19,0,0,1-17-28.13L200,531.08c-.58-1.24-1-2.56-1.43-3.84l-1.36-3.88c-2-5.11-3.24-10.44-4.75-15.68l-.54-2c-.17-.66-.29-1.33-.43-2l-.83-4-1.66-8c-.86-5.39-1.58-10.79-2.33-16.18l3.11,16Z"/><path d="M332.37,404.58c-2.44,2-4.87,4-7.12,6.18a22.61,22.61,0,0,0-1.62,1.63c-.51.55-1,1.1-1.54,1.74-1,1.23-2.1,2.44-3.17,3.64a44.94,44.94,0,0,1-7.3,6.61,13.17,13.17,0,0,1-4.85,2.21l-.72.12c-.24,0-.49,0-.74,0a6.38,6.38,0,0,1-1.5-.16,7.76,7.76,0,0,1-2.67-1.17,17.57,17.57,0,0,1-3.7-3.65c-1-1.29-1.95-2.59-2.9-3.86a51.82,51.82,0,0,0-6-7c-4.44-4.16-10.2-6.79-16-9.06a157.3,157.3,0,0,0-18.14-5.43c-6.15-1.55-12.38-2.76-18.65-3.87a189.33,189.33,0,0,1,19,2.43,133.11,133.11,0,0,1,18.62,4.67,65.6,65.6,0,0,1,9,3.69c.72.38,1.46.74,2.17,1.13l2.1,1.33a28,28,0,0,1,3.94,3,51.38,51.38,0,0,1,6.44,7.37c1,1.27,1.9,2.56,2.86,3.75a15,15,0,0,0,3.06,3,4.33,4.33,0,0,0,3.42.77A10.4,10.4,0,0,0,310,422a44.59,44.59,0,0,0,6.86-6.12c1.07-1.14,2.13-2.29,3.17-3.48.5-.58,1.08-1.19,1.66-1.79a21.94,21.94,0,0,1,1.78-1.71c2.39-2.21,4.92-4.16,7.47-6.1,10.21-7.69,20.89-14.63,31.76-21.25-5.09,3.82-10.25,7.54-15.29,11.42S337.29,400.6,332.37,404.58Z"/><path d="M340.58,745.78a33.68,33.68,0,0,0,5.11,20.72,36.52,36.52,0,0,1-1.49-4.14,6.92,6.92,0,0,0,1.86-1,11.63,11.63,0,0,0,2-1.81l.82-1.06c.26-.36.48-.75.71-1.13a16.74,16.74,0,0,0,1.19-2.4,31.88,31.88,0,0,0,2.09-10.3,51.51,51.51,0,0,0-.76-10.32c-.32-1.69-.61-3.38-1.09-5-.21-.73-.43-1.45-.66-2.17a.71.71,0,0,1,.1-.14c1-1.41,2.05-2.78,3.08-4.17s2.23-2.78,3.32-4.18c2.16-2.84,4.31-5.7,6.28-8.69a86.73,86.73,0,0,0,5.45-9.26c.4-.81.79-1.61,1.14-2.45s.69-1.66,1-2.5a13.9,13.9,0,0,0,1-5.27A8.53,8.53,0,0,1,371,693a25.85,25.85,0,0,1-1.08,2.4,49.11,49.11,0,0,1-2.64,4.56c-1.88,3-4,5.82-6.08,8.63L358,712.8c-1.12,1.36-2.2,2.75-3.34,4.1s-2.26,2.69-3.38,4.09-2.24,2.87-3.3,4.35-1.93,3.1-2.79,4.72L344,732.54a16.56,16.56,0,0,0-1.05,2.54l-.88,2.6a10,10,0,0,0-.36,1.33l-.3,1.34a22.56,22.56,0,0,0-.52,2.7Zm2.32.23a45,45,0,0,1,6.59-17.54c0,.36,0,.72.05,1.08.07.84.09,1.69.1,2.53s.08,1.68.12,2.52c.11,1.67.05,3.34.12,5,.05.83,0,1.66,0,2.48l0,2.48a51,51,0,0,1-1.3,9.67,18.66,18.66,0,0,1-.74,2.3c-.14.37-.27.76-.43,1.13l-.55,1.08a12.68,12.68,0,0,1-1.32,2,9.71,9.71,0,0,1-1.36,1.36A40.29,40.29,0,0,1,342.9,746Z"/><path d="M275.32,251.53l-4.86-5.87c-1.62-2-3.25-4-4.77-6.16a34.69,34.69,0,0,1,6.45,4.51,45.65,45.65,0,0,1,5.5,5.62A32.63,32.63,0,0,1,282,256.3a20.26,20.26,0,0,1,1.37,3.8,9.59,9.59,0,0,1,.16,4,23.3,23.3,0,0,0-3.56-6.64C278.5,255.44,276.92,253.48,275.32,251.53Z"/><path d="M282.69,268.75a9,9,0,0,1-3.91,3,37.7,37.7,0,0,1-8.72,2.83,21.66,21.66,0,0,1-9.38,0,10.77,10.77,0,0,1-4.35-2.15,6.42,6.42,0,0,1-2.22-4.12,7.38,7.38,0,0,0,3.06,2.92,11.13,11.13,0,0,0,3.93,1.05,30.34,30.34,0,0,0,8.4-.63c2.82-.55,5.64-1.29,8.47-2.09a8.86,8.86,0,0,0,3.6-1.72,6,6,0,0,0,1.93-3.67A5.67,5.67,0,0,1,282.69,268.75Z"/><path d="M253.13,262.22c0-2,.06-4.06.2-6.07q.39-6,1.25-12c.32-2,.6-4,.95-6s.7-4,1.14-5.93a115.37,115.37,0,0,1,3-11.73c0,4.07-.33,8.08-.71,12.08-.17,2-.44,4-.65,6l-.78,6c-.55,4-1.21,7.93-1.9,11.88l-1.05,5.92-.27,1.48c-.07.48-.13,1-.22,1.47a9.54,9.54,0,0,0,0,3,7.8,7.8,0,0,1-.83-3C253.18,264.26,253.15,263.23,253.13,262.22Z"/><path d="M251.35,308.54a18.3,18.3,0,0,0,5.21-1.44,23.67,23.67,0,0,0,4.61-2.65c.72-.53,1.4-1.09,2.06-1.68A16.49,16.49,0,0,0,265,301l1-1.14,1.73.63c.58.21,1.15.46,1.71.65a16.26,16.26,0,0,0,1.71.41,9.15,9.15,0,0,0,3.26,0,8.09,8.09,0,0,0,2.94-1.2,8.82,8.82,0,0,0,1.29-1c.19-.2.39-.39.56-.59s.38-.45.44-.53l1.26-1.5,1.54.46a34.05,34.05,0,0,0,6.68,1.31,52,52,0,0,0,7.07.09,96.42,96.42,0,0,0,14.53-2.06,38.06,38.06,0,0,1-6.75,3.39,44.36,44.36,0,0,1-7.31,2.2,39.68,39.68,0,0,1-7.73.82,30.88,30.88,0,0,1-6.25-.67c-.19.21-.39.43-.6.64a14.06,14.06,0,0,1-2,1.61,12.24,12.24,0,0,1-4.81,1.92,9.42,9.42,0,0,1-1.29.14l-.65.05-.64,0c-.43,0-.86,0-1.27-.1l-1.24-.23a6.62,6.62,0,0,1-1.18-.32l-1.16-.39-.76-.34c-.38.31-.77.61-1.18.91a27.68,27.68,0,0,1-2.63,1.66,22.37,22.37,0,0,1-5.79,2.22,19.79,19.79,0,0,1-3.06.44c-.51,0-1,0-1.54,0l-.76,0-.76-.09a16.26,16.26,0,0,1-5.66-1.8A22.37,22.37,0,0,0,251.35,308.54Z"/><path d="M263.68,316.63c2,0,3.89,0,5.8.08.95,0,1.9-.07,2.85-.08l1.41,0c.47,0,.93-.08,1.4-.12l2.79-.21c.92-.11,1.82-.28,2.74-.4a42.05,42.05,0,0,0,10.52-3.07,34.19,34.19,0,0,0,9.5-6.31c-1.18,3.95-4.12,7.26-7.54,9.7a28.41,28.41,0,0,1-11.67,4.61c-1,.13-2.08.3-3.12.39l-3.11,0c-.52,0-1,0-1.56,0l-1.53-.18c-1-.11-2-.25-3.05-.4-2-.44-4-1-5.89-1.59a54.26,54.26,0,0,1-5.53-2.54A59.16,59.16,0,0,1,263.68,316.63Z"/><path d="M298.59,229.07a19.64,19.64,0,0,1-7.26-1.17l-.85-.37c-.24-.11-.49-.22-.75-.32-.51-.2-1.05-.36-1.6-.55l-.83-.26a3.6,3.6,0,0,1-.95-.45,3.41,3.41,0,0,1-1.24-1.53,9,9,0,0,1-.42-1.78l-.33-1.71-.67-3.43.92,3.37.47,1.68a4,4,0,0,0,.63,1.53,3,3,0,0,0,1.17.93,2.42,2.42,0,0,0,.68.17l.87.1c.6.07,1.19.18,1.79.31.3.06.6.14.9.23l.8.21c4.28,1,8.81.3,13.1-.84a43.67,43.67,0,0,0,12.17-5.55,26.34,26.34,0,0,0,2.67-2,13,13,0,0,0,2.22-2.36,7.7,7.7,0,0,0,1.29-6.32,7,7,0,0,1,.92,3.46,8.57,8.57,0,0,1-.86,3.64,13.86,13.86,0,0,1-2.13,3.06,25,25,0,0,1-2.65,2.5A34.64,34.64,0,0,1,305.79,228,29.52,29.52,0,0,1,298.59,229.07Z"/><path d="M298.32,200.71a24.87,24.87,0,0,1,11.72-.27,38.24,38.24,0,0,1,10.75,4l.13.07,0,0a9.69,9.69,0,0,1,.85,1,11.05,11.05,0,0,1,.68,1.09,8.63,8.63,0,0,1,.89,2.34A11.32,11.32,0,0,0,321.9,207c-.27-.29-.56-.56-.85-.82a8.71,8.71,0,0,0-.79-.63,61.62,61.62,0,0,0-10.65-2.46,26.69,26.69,0,0,0-2.67-.22,23.63,23.63,0,0,0-2.66,0,25,25,0,0,0-5.19.71,20.94,20.94,0,0,0-9.07,5.06,29.37,29.37,0,0,0-6.33,8.89,21.14,21.14,0,0,1,4.74-10.39A19.85,19.85,0,0,1,298.32,200.71Z"/><path d="M217.25,223.64h.22c1.74,0,3.31,1.83,3.5,4.08a5,5,0,0,1-.88,3.4,3,3,0,0,1-2.08,1.26h-.22c-1.73,0-3.3-1.83-3.5-4.08S215.44,223.8,217.25,223.64Z"/><path d="M218.45,237.35h0a7.66,7.66,0,0,0,1.92-.43A7.66,7.66,0,0,1,218.45,237.35Z"/><path class="cls-2" d="M209.27,227.73a10.64,10.64,0,0,1,.16-1.7A10.64,10.64,0,0,0,209.27,227.73Z"/><path class="cls-11" d="M209.27,227.73a10.64,10.64,0,0,1,.16-1.7A10.64,10.64,0,0,0,209.27,227.73Z"/><path class="cls-2" d="M217.47,218.63h.1a6.49,6.49,0,0,0-.76,0Q217.14,218.63,217.47,218.63Z"/><path class="cls-11" d="M217.47,218.63h.1a6.49,6.49,0,0,0-.76,0Q217.14,218.63,217.47,218.63Z"/><path class="cls-2" d="M217.79,237.38h-.1c.25,0,.51,0,.76,0Q218.12,237.38,217.79,237.38Z"/><path class="cls-11" d="M217.79,237.38h-.1c.25,0,.51,0,.76,0Q218.12,237.38,217.79,237.38Z"/><path d="M209.43,226a10.64,10.64,0,0,0-.16,1.7v.05c0,.31,0,.63,0,.95s.07.63.12.93c0,.1,0,.2.07.3s.08.4.13.6.08.23.11.34.11.35.17.52.09.23.14.35l.2.47c.05.11.12.22.17.34s.15.29.24.43.13.22.2.33l.26.39.23.31c.1.12.19.25.29.36l.26.29c.1.11.21.22.32.32a3.45,3.45,0,0,0,.28.26l.34.3.3.23.36.25.32.2.38.22.34.16c.13.07.26.12.4.18l.35.13.42.13.36.1.43.08a2.38,2.38,0,0,0,.37.06l.45,0,.37,0c.25,0,.51,0,.76,0h0a7.66,7.66,0,0,0,1.92-.43,8.16,8.16,0,0,0,1.71-.89,6.52,6.52,0,0,0,.88-.69,6.67,6.67,0,0,0,.6-.59,8.41,8.41,0,0,0,1-1.36,9.93,9.93,0,0,0,1.42-5.16,7.63,7.63,0,0,0,0-.95h0a9.25,9.25,0,0,0-.12-.92c0-.11-.05-.2-.07-.31s-.08-.4-.13-.59-.07-.23-.11-.35-.1-.34-.16-.51l-.15-.35a3.9,3.9,0,0,0-.2-.47c0-.11-.11-.23-.17-.34l-.23-.43-.21-.33-.26-.39a3.55,3.55,0,0,0-.23-.31c-.09-.12-.19-.25-.29-.36s-.17-.19-.26-.29l-.31-.33-.28-.25-.34-.3-.3-.23-.37-.25-.31-.2-.39-.22-.33-.16-.41-.18-.35-.13-.41-.13-.36-.1-.44-.09-.37-.05-.44,0-.38,0a6.49,6.49,0,0,0-.76,0c-.28,0-.57.07-.84.12a7.79,7.79,0,0,0-3.67,1.89,8.9,8.9,0,0,0-1.13,1.24,9.59,9.59,0,0,0-1.52,3.13A6.73,6.73,0,0,0,209.43,226Zm7.82-2.39h.22c1.74,0,3.31,1.83,3.5,4.08a5,5,0,0,1-.88,3.4,3,3,0,0,1-2.08,1.26h-.22c-1.73,0-3.3-1.83-3.5-4.08S215.44,223.8,217.25,223.64Zm-6.1,1.56,2-.17.27,3-2,.17Z"/><path class="cls-12" d="M209.43,226a10.64,10.64,0,0,0-.16,1.7v.05c0,.31,0,.63,0,.95s.07.63.12.93c0,.1,0,.2.07.3s.08.4.13.6.08.23.11.34.11.35.17.52.09.23.14.35l.2.47c.05.11.12.22.17.34s.15.29.24.43.13.22.2.33l.26.39.23.31c.1.12.19.25.29.36l.26.29c.1.11.21.22.32.32a3.45,3.45,0,0,0,.28.26l.34.3.3.23.36.25.32.2.38.22.34.16c.13.07.26.12.4.18l.35.13.42.13.36.1.43.08a2.38,2.38,0,0,0,.37.06l.45,0,.37,0c.25,0,.51,0,.76,0h0a7.66,7.66,0,0,0,1.92-.43,8.16,8.16,0,0,0,1.71-.89,6.52,6.52,0,0,0,.88-.69,6.67,6.67,0,0,0,.6-.59,8.41,8.41,0,0,0,1-1.36,9.93,9.93,0,0,0,1.42-5.16,7.63,7.63,0,0,0,0-.95h0a9.25,9.25,0,0,0-.12-.92c0-.11-.05-.2-.07-.31s-.08-.4-.13-.59-.07-.23-.11-.35-.1-.34-.16-.51l-.15-.35a3.9,3.9,0,0,0-.2-.47c0-.11-.11-.23-.17-.34l-.23-.43-.21-.33-.26-.39a3.55,3.55,0,0,0-.23-.31c-.09-.12-.19-.25-.29-.36s-.17-.19-.26-.29l-.31-.33-.28-.25-.34-.3-.3-.23-.37-.25-.31-.2-.39-.22-.33-.16-.41-.18-.35-.13-.41-.13-.36-.1-.44-.09-.37-.05-.44,0-.38,0a6.49,6.49,0,0,0-.76,0c-.28,0-.57.07-.84.12a7.79,7.79,0,0,0-3.67,1.89,8.9,8.9,0,0,0-1.13,1.24,9.59,9.59,0,0,0-1.52,3.13A6.73,6.73,0,0,0,209.43,226Zm7.82-2.39h.22c1.74,0,3.31,1.83,3.5,4.08a5,5,0,0,1-.88,3.4,3,3,0,0,1-2.08,1.26h-.22c-1.73,0-3.3-1.83-3.5-4.08S215.44,223.8,217.25,223.64Zm-6.1,1.56,2-.17.27,3-2,.17Z"/><rect class="cls-5" x="211.28" y="225.11" width="2" height="3" transform="translate(-18.97 19.39) rotate(-5.01)"/><path d="M235.9,229a3.55,3.55,0,0,1-.4,3.36,12.5,12.5,0,0,1-1.17,1.21c-.37.36-.74.7-1.07,1.06a24.3,24.3,0,0,1-2.18,2.35,18.75,18.75,0,0,1-2.64,2,29.89,29.89,0,0,1-12.31,4,33.35,33.35,0,0,1-12.84-1,14.62,14.62,0,0,1-5.85-3,8.09,8.09,0,0,1-1.94-2.71,7.46,7.46,0,0,1-.53-3.17,8.16,8.16,0,0,0,1.24,2.78,7.63,7.63,0,0,0,2.11,2,15.11,15.11,0,0,0,5.51,1.91,41.32,41.32,0,0,0,12,.26,38.6,38.6,0,0,0,5.88-1.11,28.26,28.26,0,0,0,5.55-2.08,16.46,16.46,0,0,0,2.53-1.49c.81-.57,1.47-1.18,2.37-1.93.43-.34.86-.66,1.31-.95a12.33,12.33,0,0,0,1.2-.81,2.94,2.94,0,0,0,.85-2.51l-1.79-5.62L235.9,229Z"/><path d="M196.27,228.66c-.15.28-.3.6-.43.91a11.5,11.5,0,0,0-.4,1.12,11,11,0,0,0-.46,2.38,8.33,8.33,0,0,1-.23-2.5,10.16,10.16,0,0,1,.45-2.55v0l.09-.11a37.82,37.82,0,0,1,7.77-8.22,24.37,24.37,0,0,1,10.49-4.92,18.94,18.94,0,0,1,11.56,1.42,20.45,20.45,0,0,1,8.57,7.34,28.12,28.12,0,0,0-9.37-5.3,20.88,20.88,0,0,0-5.09-1,21.28,21.28,0,0,0-5.1.38,29,29,0,0,0-9.5,4.21A65.36,65.36,0,0,0,196.27,228.66Z"/><path d="M380.91,245.74c0-4.26-.2-8.51-.3-12.75s-.56-8.48-.86-12.71L379,214l-.38-3.16-.2-1.57-.28-1.57L377,201.4c-.2-1-.32-2.09-.58-3.12l-.71-3.1L374.26,189l-1.79-6.09c-.31-1-.59-2-.92-3l-1.08-3c-.74-2-1.39-4-2.21-5.95l-2.53-5.81c-.4-1-.89-1.92-1.37-2.85l-1.45-2.82a118.28,118.28,0,0,0-13.84-21.15A110,110,0,0,0,309,108a98,98,0,0,0-24.28-7.46,93.38,93.38,0,0,1,24.67,6.57,112,112,0,0,1,22.35,12.53,106.44,106.44,0,0,1,18.76,17.54,120.92,120.92,0,0,1,14.22,21.4l1.45,2.87c.48,1,1,1.91,1.37,2.91l2.52,5.91c.82,2,1.46,4,2.2,6l1.07,3c.33,1,.6,2,.91,3.08l1.77,6.17,1.41,6.26c1.05,4.15,1.54,8.41,2.24,12.62l.25,1.59.16,1.59.32,3.19.64,6.37c.21,4.26.45,8.53.59,12.79,0,4.26,0,8.53-.15,12.78s-.48,8.51-.75,12.76Q380.77,252.11,380.91,245.74Z"/><path d="M322.79,153.36c6.71,2.8,13.1,6.71,17.9,12.14a53.08,53.08,0,0,0-18.59-10.3,84.35,84.35,0,0,0-10.29-2.76q-5.22-1.08-10.53-1.82c-7.08-.94-14.2-1.65-21.37-2.26s-14.34-1.32-21.53-2.24q-5.38-.72-10.76-1.72c-3.57-.67-7.14-1.41-10.66-2.44l-5.27-1.6-5.14-2c-.42-.17-.85-.32-1.27-.51l-1.25-.59-2.48-1.18c-1.67-.75-3.25-1.69-4.84-2.59a90,90,0,0,1-17.48-13.09,87.2,87.2,0,0,1-7.37-8,63.9,63.9,0,0,1-6.17-8.9,78.1,78.1,0,0,0,7,8.17c.6.66,1.26,1.28,1.89,1.9s1.26,1.27,1.93,1.86c1.34,1.18,2.62,2.43,4,3.53a98.92,98.92,0,0,0,17.66,11.81c1.58.81,3.13,1.65,4.78,2.3l2.42,1.06,1.21.54c.41.17.83.3,1.24.45l5,1.78,5.1,1.41a166.86,166.86,0,0,0,21,3.84c7.08,1,14.23,1.67,21.39,2.44s14.35,1.62,21.49,2.95A103.52,103.52,0,0,1,322.79,153.36Z"/><path d="M173.11,253.28a10,10,0,0,1-2.94,3.89c2.09,3.56,4.13,7.15,6,10.83-2.67-3.45-5.18-7-7.64-10.59l-.37-.54.57-.49a9.23,9.23,0,0,0,2.68-3.76,7.84,7.84,0,0,0,.22-4.5,16.77,16.77,0,0,0-4.89-7.29l-.63.1c-.5.11-1,.19-1.47.28a21.9,21.9,0,0,0-2.71.72,12.38,12.38,0,0,0-4.76,3.07,4.92,4.92,0,0,1,1.27-3.05,6.89,6.89,0,0,1,2.82-1.9,8,8,0,0,1,3.31-.41,6.86,6.86,0,0,1,1.1.2,25.6,25.6,0,0,0-3.42-2.67,11.41,11.41,0,0,0-4.4-1.89,4.76,4.76,0,0,0-4.26,1.36,10.16,10.16,0,0,0-2.42,4.36,9.34,9.34,0,0,1,1.84-4.89,5.53,5.53,0,0,1,2.19-1.7A6.21,6.21,0,0,1,158,234a12.34,12.34,0,0,1,5.14,1.76,28.22,28.22,0,0,1,4.29,3.13c2.63,2.28,5.14,5.11,6.1,8.81A9.14,9.14,0,0,1,173.11,253.28Z"/><path d="M177.33,198.94c.85-.81,1.8-1.63,2.7-2.44s1.88-1.56,2.82-2.35,2-1.49,3-2.2a54.11,54.11,0,0,1,6.34-3.82,50.31,50.31,0,0,1,6.89-2.82c4.7-1.56,9.49-2.52,14.19-3.7a43.43,43.43,0,0,0,6.73-2l.73-.35.65-.38c.33-.25.69-.57.68-.66s0,0,0,0a.69.69,0,0,0-.13-.23,3.8,3.8,0,0,0-1-.87,12,12,0,0,0-6-2.07,15.33,15.33,0,0,0-3.36.15c-.57.07-1.15.14-1.72.26s-1.15.19-1.71.34a41.06,41.06,0,0,0-12.88,5.6,66.69,66.69,0,0,0-11.11,9.06,86.52,86.52,0,0,0-9.4,11.05A66.53,66.53,0,0,1,183,189.45a60.16,60.16,0,0,1,10.88-10A40.93,40.93,0,0,1,207.41,173c.61-.18,1.24-.28,1.86-.41s1.24-.23,1.87-.31a18.12,18.12,0,0,1,3.92-.2,14.89,14.89,0,0,1,7.59,2.54,6.64,6.64,0,0,1,1.68,1.61,3.59,3.59,0,0,1,.61,1.41,3.07,3.07,0,0,1-.2,1.73,4.71,4.71,0,0,1-1.77,2l-.93.54-.92.43a41.64,41.64,0,0,1-7.27,2c-4.77,1-9.53,1.93-14.14,3.17a52.42,52.42,0,0,0-13.11,5.64c-1,.61-2,1.26-3.07,1.91l-3,2.05c-1,.72-1.95,1.4-3,2.16s-2,1.45-2.89,2.19C175.68,200.65,176.53,199.74,177.33,198.94Z"/><path d="M252.87,530.11a19.49,19.49,0,0,1,19.83-.3,12.71,12.71,0,0,1,3.84,3.61,8.65,8.65,0,0,1,0,10.16,12.63,12.63,0,0,1-3.85,3.61,19.47,19.47,0,0,1-19.82-.3,12.22,12.22,0,0,1-3.68-3.55,8.8,8.8,0,0,1-1.5-4.84,8.85,8.85,0,0,0,1.56,4.8,12.38,12.38,0,0,0,3.7,3.47,19,19,0,0,0,19.29-.3,11.73,11.73,0,0,0,3.53-3.41,8,8,0,0,0,0-9.12,11.84,11.84,0,0,0-3.53-3.41,19,19,0,0,0-19.29-.3,12.38,12.38,0,0,0-3.7,3.47,8.85,8.85,0,0,0-1.56,4.8,8.8,8.8,0,0,1,1.5-4.84A12.22,12.22,0,0,1,252.87,530.11Z"/><path d="M260.39,536a6.68,6.68,0,0,1,6.79-.31,3.46,3.46,0,0,1,0,6.28,6.44,6.44,0,0,1-3.49.78,6.51,6.51,0,0,1-3.3-1.08,3.56,3.56,0,0,1-1.7-2.84,3.28,3.28,0,0,0,1.78,2.72,6.16,6.16,0,0,0,6.25-.3,3.06,3.06,0,0,0,1.47-2.42,3,3,0,0,0-1.47-2.41,6.16,6.16,0,0,0-6.25-.3,3.28,3.28,0,0,0-1.78,2.71A3.55,3.55,0,0,1,260.39,536Z"/><path d="M451.69,524.75a6.51,6.51,0,0,1-3.3-1.08,3.56,3.56,0,0,1-1.7-2.84,3.28,3.28,0,0,0,1.78,2.72,6.16,6.16,0,0,0,6.25-.3,3.06,3.06,0,0,0,1.47-2.42,3,3,0,0,0-1.47-2.41,6.16,6.16,0,0,0-6.25-.3,3.28,3.28,0,0,0-1.78,2.71,3.55,3.55,0,0,1,1.7-2.83,6.68,6.68,0,0,1,6.79-.31,3.46,3.46,0,0,1,0,6.28A6.44,6.44,0,0,1,451.69,524.75Z"/><path d="M355.78,208.09l.74-2.28c.25-.76.61-1.5.92-2.24s.8-1.43,1.19-2.13c.24-.34.5-.66.75-1l.38-.49.46-.43a6.5,6.5,0,0,1,8.95-.55,8.26,8.26,0,0,0-2.18-.74,8.59,8.59,0,0,0-1.12-.09c-.19,0-.37,0-.56,0l-.54.08a6,6,0,0,0-3.59,2.21l-.35.4-.31.47-.6.91c-.3.69-.67,1.32-.93,2-.08.22-.17.44-.25.65a8.32,8.32,0,0,1,1.72-1.27,7.4,7.4,0,0,1,3.16-1,4.5,4.5,0,0,1,3.13.89,10.56,10.56,0,0,0-2.84.65,17.47,17.47,0,0,0-2.47,1.18c-.81.44-1.58,1-2.42,1.48-.35.25-.74.48-1.12.72l-.27,1-.46,2.22a21,21,0,0,0-.28,2.22,6.67,6.67,0,0,0,0,1.09v1.09c0,.35.11.69.15,1l.09.52.17.47a4.32,4.32,0,0,0,2.51,2.75,7.77,7.77,0,0,0,4.1.31l.92-.15,0,.83c0,1.89,0,3.79,0,5.68s-.06,3.79-.17,5.69c-.3-1.88-.53-3.76-.75-5.64-.18-1.6-.35-3.19-.5-4.79a8.23,8.23,0,0,1-4.25-.26l-.63-.24c-.21-.1-.4-.23-.6-.35a4.45,4.45,0,0,1-1.08-.86,4.67,4.67,0,0,1-.84-1.09,5.21,5.21,0,0,1-.57-1.22l-.23-.62-.12-.64c-.07-.42-.17-.85-.2-1.27a15.78,15.78,0,0,1,0-2.48A31.33,31.33,0,0,1,355.78,208.09Z"/></g><g id="Layer_7" data-name="Layer 7"><rect class="cls-13" x="1.5" y="433.5" width="470" height="30"/><path class="cls-5" d="M141.44,443.74a4.39,4.39,0,0,1-1.63,3.67,7.38,7.38,0,0,1-4.65,1.28h-1.85v6.18h-1.83V439.16h4.08Q141.44,439.16,141.44,443.74Zm-8.13,3.38H135a6.17,6.17,0,0,0,3.52-.78,2.89,2.89,0,0,0,1.08-2.51,2.73,2.73,0,0,0-1-2.33,5.39,5.39,0,0,0-3.18-.76h-2Z"/><path class="cls-5" d="M146.24,454.87h-1.78V438.15h1.78Z"/><path class="cls-5" d="M155,455.08a5.4,5.4,0,0,1-4.12-1.59,6.13,6.13,0,0,1-1.51-4.41,6.83,6.83,0,0,1,1.4-4.52,4.66,4.66,0,0,1,3.77-1.68,4.47,4.47,0,0,1,3.5,1.45,5.62,5.62,0,0,1,1.29,3.85v1.12h-8.11a4.63,4.63,0,0,0,1,3.15,3.63,3.63,0,0,0,2.8,1.08,9.49,9.49,0,0,0,3.76-.8v1.59a9.58,9.58,0,0,1-1.79.59A10.69,10.69,0,0,1,155,455.08Zm-.48-10.71a2.93,2.93,0,0,0-2.27.93,4.23,4.23,0,0,0-1,2.55h6.16a3.93,3.93,0,0,0-.76-2.58A2.62,2.62,0,0,0,154.52,444.37Z"/><path class="cls-5" d="M169.61,454.87l-.36-1.68h-.08a5,5,0,0,1-1.76,1.5,5.35,5.35,0,0,1-2.18.39,3.94,3.94,0,0,1-2.75-.9,3.3,3.3,0,0,1-1-2.57c0-2.37,1.9-3.62,5.7-3.73l2-.07v-.73a3,3,0,0,0-.6-2.05,2.43,2.43,0,0,0-1.9-.66,7.61,7.61,0,0,0-3.33.91l-.55-1.37a8.63,8.63,0,0,1,1.9-.74,8.31,8.31,0,0,1,2.08-.27,4.43,4.43,0,0,1,3.12.94,3.88,3.88,0,0,1,1,3v8Zm-4-1.26a3.63,3.63,0,0,0,2.62-.91,3.4,3.4,0,0,0,1-2.56v-1.06l-1.79.07a6.43,6.43,0,0,0-3.06.66,2,2,0,0,0-.94,1.82,1.85,1.85,0,0,0,.58,1.48A2.47,2.47,0,0,0,165.58,453.61Z"/><path class="cls-5" d="M182.2,451.66a2.94,2.94,0,0,1-1.23,2.53,5.69,5.69,0,0,1-3.43.89,7.44,7.44,0,0,1-3.66-.74v-1.65a9.19,9.19,0,0,0,1.82.67,7.43,7.43,0,0,0,1.88.25,4.34,4.34,0,0,0,2.15-.44,1.54,1.54,0,0,0,.15-2.54,9,9,0,0,0-2.32-1.15,12.87,12.87,0,0,1-2.34-1.07,3.28,3.28,0,0,1-1-1,2.68,2.68,0,0,1-.34-1.39,2.64,2.64,0,0,1,1.17-2.27,5.49,5.49,0,0,1,3.21-.83,9.5,9.5,0,0,1,3.72.77l-.63,1.45a8.7,8.7,0,0,0-3.22-.73,3.75,3.75,0,0,0-1.91.4,1.23,1.23,0,0,0-.64,1.1,1.33,1.33,0,0,0,.24.8,2.38,2.38,0,0,0,.78.64,17.4,17.4,0,0,0,2.06.87,7.63,7.63,0,0,1,2.83,1.53A2.74,2.74,0,0,1,182.2,451.66Z"/><path class="cls-5" d="M190.07,455.08a5.42,5.42,0,0,1-4.12-1.59,6.18,6.18,0,0,1-1.51-4.41,6.83,6.83,0,0,1,1.4-4.52,4.66,4.66,0,0,1,3.77-1.68,4.47,4.47,0,0,1,3.5,1.45,5.62,5.62,0,0,1,1.29,3.85v1.12h-8.11a4.68,4.68,0,0,0,1.05,3.15,3.6,3.6,0,0,0,2.8,1.08,9.52,9.52,0,0,0,3.76-.8v1.59a9.83,9.83,0,0,1-1.79.59A10.81,10.81,0,0,1,190.07,455.08Zm-.48-10.71a2.89,2.89,0,0,0-2.26.93,4.17,4.17,0,0,0-1,2.55h6.16a3.93,3.93,0,0,0-.75-2.58A2.65,2.65,0,0,0,189.59,444.37Z"/><path class="cls-5" d="M203,439.9a1.18,1.18,0,0,1,.3-.89,1.05,1.05,0,0,1,.75-.29,1.08,1.08,0,0,1,.74.29,1.45,1.45,0,0,1,0,1.79,1,1,0,0,1-.74.3,1,1,0,0,1-.75-.3A1.21,1.21,0,0,1,203,439.9Zm1.93,15h-1.78V443.09h1.78Z"/><path class="cls-5" d="M210.48,448.84c.31-.43.78-1,1.41-1.72l3.8-4h2.12l-4.77,5,5.1,6.76H216l-4.16-5.57-1.34,1.16v4.41h-1.76V438.15h1.76V447c0,.39,0,1-.08,1.82Z"/><path class="cls-5" d="M233.58,451.66a2.94,2.94,0,0,1-1.23,2.53,5.69,5.69,0,0,1-3.43.89,7.44,7.44,0,0,1-3.66-.74v-1.65a9.19,9.19,0,0,0,1.82.67,7.43,7.43,0,0,0,1.88.25,4.34,4.34,0,0,0,2.15-.44,1.54,1.54,0,0,0,.15-2.54,9,9,0,0,0-2.32-1.15,12.87,12.87,0,0,1-2.34-1.07,3.18,3.18,0,0,1-1-1,2.68,2.68,0,0,1-.34-1.39,2.64,2.64,0,0,1,1.17-2.27,5.49,5.49,0,0,1,3.21-.83,9.5,9.5,0,0,1,3.72.77l-.63,1.45a8.7,8.7,0,0,0-3.22-.73,3.75,3.75,0,0,0-1.91.4,1.23,1.23,0,0,0-.64,1.1,1.33,1.33,0,0,0,.24.8,2.38,2.38,0,0,0,.78.64,17.4,17.4,0,0,0,2.06.87,7.63,7.63,0,0,1,2.83,1.53A2.74,2.74,0,0,1,233.58,451.66Z"/><path class="cls-5" d="M241.18,455.08a5,5,0,0,1-4-1.57,6.49,6.49,0,0,1-1.4-4.45,6.69,6.69,0,0,1,1.43-4.57,5.12,5.12,0,0,1,4.05-1.61,8.19,8.19,0,0,1,1.7.18,5.76,5.76,0,0,1,1.33.43l-.55,1.52a8.51,8.51,0,0,0-1.29-.4,5.86,5.86,0,0,0-1.23-.15c-2.39,0-3.59,1.52-3.59,4.58a5.43,5.43,0,0,0,.88,3.33,3,3,0,0,0,2.59,1.16,8,8,0,0,0,3-.64v1.58A6.43,6.43,0,0,1,241.18,455.08Z"/><path class="cls-5" d="M252.32,442.88a6.7,6.7,0,0,1,1.41.13l-.25,1.65a6.47,6.47,0,0,0-1.29-.16,3.15,3.15,0,0,0-2.44,1.16,4.24,4.24,0,0,0-1,2.89v6.32H247V443.09h1.47l.21,2.19h.08a5.31,5.31,0,0,1,1.58-1.78A3.6,3.6,0,0,1,252.32,442.88Z"/><path class="cls-5" d="M260.91,455.08a5.4,5.4,0,0,1-4.12-1.59,6.13,6.13,0,0,1-1.51-4.41,6.77,6.77,0,0,1,1.4-4.52,4.64,4.64,0,0,1,3.76-1.68,4.48,4.48,0,0,1,3.51,1.45,5.61,5.61,0,0,1,1.28,3.85v1.12h-8.11a4.68,4.68,0,0,0,1.05,3.15,3.62,3.62,0,0,0,2.8,1.08,9.49,9.49,0,0,0,3.76-.8v1.59a9.83,9.83,0,0,1-1.79.59A10.69,10.69,0,0,1,260.91,455.08Zm-.49-10.71a2.9,2.9,0,0,0-2.26.93,4.23,4.23,0,0,0-1,2.55h6.15a3.93,3.93,0,0,0-.75-2.58A2.65,2.65,0,0,0,260.42,444.37Z"/><path class="cls-5" d="M273.25,455.08a5.4,5.4,0,0,1-4.12-1.59,6.13,6.13,0,0,1-1.51-4.41,6.83,6.83,0,0,1,1.4-4.52,4.66,4.66,0,0,1,3.77-1.68,4.47,4.47,0,0,1,3.5,1.45,5.62,5.62,0,0,1,1.29,3.85v1.12h-8.11a4.63,4.63,0,0,0,1,3.15,3.63,3.63,0,0,0,2.8,1.08,9.49,9.49,0,0,0,3.76-.8v1.59a9.58,9.58,0,0,1-1.79.59A10.69,10.69,0,0,1,273.25,455.08Zm-.48-10.71a2.93,2.93,0,0,0-2.27.93,4.23,4.23,0,0,0-1,2.55h6.16a3.93,3.93,0,0,0-.76-2.58A2.62,2.62,0,0,0,272.77,444.37Z"/><path class="cls-5" d="M288.67,454.87v-7.62a3.07,3.07,0,0,0-.65-2.15,2.68,2.68,0,0,0-2-.71,3.41,3.41,0,0,0-2.71,1,5.08,5.08,0,0,0-.86,3.3v6.18h-1.78V443.09h1.45l.29,1.62h.08a3.69,3.69,0,0,1,1.54-1.35,5,5,0,0,1,2.2-.48,4.43,4.43,0,0,1,3.2,1,4.33,4.33,0,0,1,1.08,3.28v7.68Z"/><path class="cls-5" d="M301.72,451.66a2.94,2.94,0,0,1-1.23,2.53,5.72,5.72,0,0,1-3.44.89,7.39,7.39,0,0,1-3.65-.74v-1.65a9,9,0,0,0,1.82.67,7.37,7.37,0,0,0,1.88.25,4.3,4.3,0,0,0,2.14-.44,1.53,1.53,0,0,0,.16-2.54,9.09,9.09,0,0,0-2.33-1.15,13,13,0,0,1-2.33-1.07,3.18,3.18,0,0,1-1-1,2.68,2.68,0,0,1-.34-1.39,2.64,2.64,0,0,1,1.17-2.27,5.49,5.49,0,0,1,3.21-.83,9.5,9.5,0,0,1,3.72.77l-.64,1.45a8.65,8.65,0,0,0-3.21-.73,3.75,3.75,0,0,0-1.91.4,1.23,1.23,0,0,0-.64,1.1,1.33,1.33,0,0,0,.24.8,2.38,2.38,0,0,0,.78.64,16.66,16.66,0,0,0,2.06.87,7.63,7.63,0,0,1,2.83,1.53A2.74,2.74,0,0,1,301.72,451.66Z"/><path class="cls-5" d="M312.67,454.87v-7.62a3.12,3.12,0,0,0-.65-2.15,2.68,2.68,0,0,0-2-.71,3.39,3.39,0,0,0-2.72,1,5.13,5.13,0,0,0-.85,3.31v6.16h-1.78V438.15h1.78v5.06a10.59,10.59,0,0,1-.09,1.52h.11a3.63,3.63,0,0,1,1.5-1.34,4.83,4.83,0,0,1,2.22-.49,4.52,4.52,0,0,1,3.24,1,4.31,4.31,0,0,1,1.08,3.26v7.68Z"/><path class="cls-5" d="M328.28,449a6.49,6.49,0,0,1-1.45,4.5,5.13,5.13,0,0,1-4,1.61,5.26,5.26,0,0,1-2.8-.74,4.8,4.8,0,0,1-1.89-2.13,7.44,7.44,0,0,1-.67-3.24,6.47,6.47,0,0,1,1.44-4.48,5.1,5.1,0,0,1,4-1.61,5,5,0,0,1,3.93,1.64A6.48,6.48,0,0,1,328.28,449Zm-9,0a5.62,5.62,0,0,0,.9,3.44,3.59,3.59,0,0,0,5.32,0,5.58,5.58,0,0,0,.9-3.44,5.5,5.5,0,0,0-.9-3.41,3.64,3.64,0,0,0-5.33,0A5.58,5.58,0,0,0,319.31,449Z"/><path class="cls-5" d="M335.21,453.61a5.41,5.41,0,0,0,.91-.07,4.74,4.74,0,0,0,.7-.14v1.36a3.35,3.35,0,0,1-.85.23,6.61,6.61,0,0,1-1,.09c-2.28,0-3.41-1.2-3.41-3.6v-7h-1.69v-.86l1.69-.74.75-2.51h1v2.72h3.41v1.39h-3.41v6.93a2.41,2.41,0,0,0,.5,1.63A1.77,1.77,0,0,0,335.21,453.61Z"/></g></svg>