<svg xmlns="http://www.w3.org/2000/svg" width="473" height="839" viewBox="0 0 473 839"><defs><style>.cls-1,.cls-11{fill:#fff;}.cls-1,.cls-7{stroke:#000;}.cls-1,.cls-12,.cls-14,.cls-5,.cls-7{stroke-miterlimit:10;}.cls-1,.cls-12,.cls-14,.cls-5{stroke-width:3px;}.cls-1{opacity:0.65;}.cls-12,.cls-14,.cls-2,.cls-5,.cls-7{fill:none;}.cls-12,.cls-2{stroke:#29a9e0;}.cls-12,.cls-14,.cls-2,.cls-5{stroke-linecap:round;}.cls-2{stroke-linejoin:round;stroke-width:4px;}.cls-3{fill:#b1b1b1;}.cls-4{fill:#4d4d4d;}.cls-5{stroke:#666;}.cls-6{fill:#666;}.cls-8{fill:#29a9e0;}.cls-9{fill:#979797;}.cls-10{fill:#cacaca;}.cls-13{fill:#e4e4e4;}.cls-14{stroke:#fff;}.cls-15{fill:#d836d8;}.cls-16{fill:#bc7777;}.cls-17{fill:#b79191;}.cls-18{fill:#e8c77e;}.cls-19{fill:#434d91;}</style></defs><title>besked 2</title><g id="Layer_1" data-name="Layer 1"><rect class="cls-1" x="1.5" y="1.5" width="470" height="836"/><polyline class="cls-2" points="39.5 71.5 27.5 59.5 39.5 47.5"/><rect class="cls-3" x="26.5" y="8.5" width="4" height="12" rx="2"/><rect class="cls-3" x="20.5" y="10.5" width="4" height="10" rx="2"/><rect class="cls-4" x="14.5" y="12.5" width="4" height="8" rx="2"/><rect class="cls-4" x="8.5" y="14.5" width="4" height="6" rx="2"/><path d="M39,19.71H37.77v-9.6H34.38V9h8v1.1H39Z"/><path d="M50,19.71H44V9h6v1.1H45.26v3.45H49.7v1.1H45.26V18.6H50Z"/><path d="M52.36,19.71V9h1.25v9.58h4.72v1.12Z"/><path d="M64.88,19.71l-3.63-9.49h-.06c.07.75.11,1.65.11,2.68v6.81H60.15V9H62l3.39,8.83h.06L68.89,9h1.86v10.7H69.51v-6.9c0-.79,0-1.65.1-2.57h-.06l-3.66,9.47Z"/><path d="M83,14.35a5.87,5.87,0,0,1-1.3,4,5.24,5.24,0,0,1-7.26,0,5.91,5.91,0,0,1-1.29-4.08,5.86,5.86,0,0,1,1.29-4.05,4.66,4.66,0,0,1,3.66-1.44,4.6,4.6,0,0,1,3.61,1.46A5.93,5.93,0,0,1,83,14.35Zm-8.53,0a5,5,0,0,0,.93,3.29,3.78,3.78,0,0,0,5.38,0,5.19,5.19,0,0,0,.9-3.3,5.11,5.11,0,0,0-.9-3.28A3.23,3.23,0,0,0,78.08,10a3.29,3.29,0,0,0-2.7,1.13A5,5,0,0,0,74.45,14.35Z"/><path d="M86.62,15.26v4.45H85.37V9h2.94a4.65,4.65,0,0,1,2.91.75A2.72,2.72,0,0,1,92.16,12,2.84,2.84,0,0,1,90,14.9l2.9,4.81H91.44l-2.59-4.45Zm0-1.07h1.7a3,3,0,0,0,1.94-.52,2,2,0,0,0,.61-1.57,1.8,1.8,0,0,0-.62-1.53,3.36,3.36,0,0,0-2-.47H86.62Z"/><path d="M100.61,19.71h-6V9h6v1.1H95.89v3.45h4.44v1.1H95.89V18.6h4.72Z"/><path class="cls-5" d="M114.5,11.5s6-6,14,0"/><path class="cls-5" d="M117.5,14.5s3.32-3.75,7.75,0"/><path class="cls-6" d="M121.5,19.5h0a8.26,8.26,0,0,1-2-2v-.75a.41.41,0,0,1,.23-.36h0a3.94,3.94,0,0,1,3.54,0h0a.41.41,0,0,1,.23.36v.75A8.26,8.26,0,0,1,121.5,19.5Z"/><path d="M224.31,19.64h-1.19V12q0-.94.06-1.8l-.34.32L221.09,12l-.64-.83,2.83-2.19h1Z"/><path d="M235.92,17.18h-1.58v2.46h-1.17V17.18H228V16.12l5.09-7.24h1.29v7.2h1.58Zm-2.75-1.1V12.52c0-.7,0-1.49.07-2.37h-.05q-.36.7-.66,1.17l-3.35,4.76Z"/><path d="M237.34,18.87a1.1,1.1,0,0,1,.22-.75.83.83,0,0,1,.64-.25.91.91,0,0,1,.67.25,1.1,1.1,0,0,1,.23.75,1,1,0,0,1-.24.73.94.94,0,0,1-1.28,0A1,1,0,0,1,237.34,18.87Z"/><path d="M245.45,19.64h-1.18V12q0-.94.06-1.8l-.35.32L242.24,12l-.65-.83,2.84-2.19h1Z"/><path d="M256.56,19.64h-7v-1l2.82-2.84A19.88,19.88,0,0,0,254,13.9a4.65,4.65,0,0,0,.62-1.08,3,3,0,0,0,.21-1.14,1.84,1.84,0,0,0-.52-1.36,2,2,0,0,0-1.45-.5,3.79,3.79,0,0,0-1.26.22,5,5,0,0,0-1.33.8l-.64-.83a4.92,4.92,0,0,1,3.22-1.23,3.42,3.42,0,0,1,2.36.77,2.68,2.68,0,0,1,.86,2.08,4.05,4.05,0,0,1-.57,2,12.56,12.56,0,0,1-2.14,2.51l-2.34,2.3v.06h5.5Z"/><rect x="434.5" y="9.5" width="19" height="10" rx="1.99"/><rect class="cls-7" x="433" y="8.25" width="27" height="12.5" rx="1.99"/><path d="M461.5,11.5s2.74,2.65,0,5"/><path d="M395.36,15.14a7.61,7.61,0,0,1,1.22-4.72,4.32,4.32,0,0,1,3.63-1.57,5,5,0,0,1,1.31.14v1a4.28,4.28,0,0,0-1.29-.18,3.23,3.23,0,0,0-2.63,1.07,5.47,5.47,0,0,0-1,3.37h.09A2.81,2.81,0,0,1,399.24,13a3,3,0,0,1,2.27.87,3.26,3.26,0,0,1,.83,2.37,3.62,3.62,0,0,1-.91,2.62,3.24,3.24,0,0,1-2.46,1,3.18,3.18,0,0,1-2.64-1.25A5.51,5.51,0,0,1,395.36,15.14ZM399,18.83a2,2,0,0,0,1.62-.66,2.79,2.79,0,0,0,.57-1.89,2.46,2.46,0,0,0-.53-1.67A2,2,0,0,0,399,14a2.72,2.72,0,0,0-1.21.27,2.26,2.26,0,0,0-.87.75,1.73,1.73,0,0,0-.33,1,3.44,3.44,0,0,0,.29,1.4,2.55,2.55,0,0,0,.84,1A2.06,2.06,0,0,0,399,18.83Z"/><path d="M405.16,19.71l4.44-9.58h-5.84V9h7.13v1l-4.38,9.73Z"/><path d="M420.68,12.2a4.66,4.66,0,0,1-.56,2.52,1.87,1.87,0,0,1-1.65.86,1.79,1.79,0,0,1-1.59-.88,4.56,4.56,0,0,1-.57-2.5,4.63,4.63,0,0,1,.55-2.51,1.79,1.79,0,0,1,1.61-.84,1.83,1.83,0,0,1,1.63.87A4.44,4.44,0,0,1,420.68,12.2Zm-3.36,0a5,5,0,0,0,.27,1.87.92.92,0,0,0,.88.62q1.2,0,1.2-2.49c0-1.65-.4-2.48-1.2-2.48a.92.92,0,0,0-.88.62A4.87,4.87,0,0,0,417.32,12.2ZM425.24,9l-5.94,10.7h-1.08L424.16,9Zm1.89,7.48a4.66,4.66,0,0,1-.56,2.52,1.85,1.85,0,0,1-1.65.85,1.8,1.8,0,0,1-1.6-.87,4.65,4.65,0,0,1-.56-2.5,4.66,4.66,0,0,1,.55-2.5,1.78,1.78,0,0,1,1.61-.85,1.87,1.87,0,0,1,1.63.86A4.54,4.54,0,0,1,427.13,16.49Zm-3.36,0a4.89,4.89,0,0,0,.27,1.87.9.9,0,0,0,.88.62,1,1,0,0,0,.91-.61,4.49,4.49,0,0,0,.29-1.88,4.45,4.45,0,0,0-.29-1.86,1,1,0,0,0-.91-.6.91.91,0,0,0-.88.6A4.87,4.87,0,0,0,423.77,16.49Z"/><rect class="cls-8" x="417.5" y="47.5" width="24" height="24" rx="6.42"/><path class="cls-8" d="M446.59,53.82l2.7-1.16a2,2,0,0,1,2.76,1.82v9a2,2,0,0,1-2.82,1.86L446.06,64A3.46,3.46,0,0,1,444,60.76V57.82A4.36,4.36,0,0,1,446.59,53.82Z"/><path class="cls-8" d="M374.8,64.81C372.87,64,370.24,62.1,368,58a5,5,0,0,1,.6-5.52c.76-.94,1.32-2,.87-2.94-1-2-4-5-5-5s-7,2-5,8,7.77,17.55,21.21,20.82a5,5,0,0,0,1.8.1c1.85-.24,6-1.92,5-4.92-1.41-4.24-2-4-4.55-5.26-.62-.31-1.37.22-2,.53l-1.83.91C377.5,66.5,376.19,65.41,374.8,64.81Z"/><path class="cls-9" d="M132.76,77.25l-1.33-3.41h-4.3l-1.31,3.41h-1.26l4.23-10.76h1.05l4.21,10.76ZM131,72.72l-1.25-3.32c-.16-.42-.32-.93-.5-1.54a12.27,12.27,0,0,1-.46,1.54l-1.26,3.32Z"/><path class="cls-9" d="M138.54,77.39a3.38,3.38,0,0,1-2.69-1.07,4.42,4.42,0,0,1-1-3,4.53,4.53,0,0,1,1-3.11,3.51,3.51,0,0,1,2.77-1.1,5,5,0,0,1,1.15.13,3.75,3.75,0,0,1,.91.29l-.37,1a8.36,8.36,0,0,0-.88-.27,4,4,0,0,0-.84-.1c-1.63,0-2.45,1-2.45,3.12a3.7,3.7,0,0,0,.6,2.27,2.05,2.05,0,0,0,1.77.79,5.35,5.35,0,0,0,2-.43V77A4.47,4.47,0,0,1,138.54,77.39Z"/><path class="cls-9" d="M145.07,76.39a4.1,4.1,0,0,0,.62,0,3,3,0,0,0,.48-.1v.93a2,2,0,0,1-.58.16,4.6,4.6,0,0,1-.69.06c-1.56,0-2.33-.82-2.33-2.45V70.16h-1.15v-.58l1.15-.51.51-1.71h.7v1.86h2.33v.94h-2.33v4.73a1.62,1.62,0,0,0,.35,1.11A1.19,1.19,0,0,0,145.07,76.39Z"/><path class="cls-9" d="M147.67,67a.81.81,0,0,1,.21-.61.69.69,0,0,1,.51-.19.68.68,0,0,1,.5.2.75.75,0,0,1,.22.6.8.8,0,0,1-.22.62.72.72,0,0,1-.5.2.69.69,0,0,1-.51-.2A.83.83,0,0,1,147.67,67ZM149,77.25h-1.22v-8H149Z"/><path class="cls-9" d="M153.33,77.25l-3.05-8h1.3L153.31,74c.39,1.11.62,1.84.69,2.17h.06a14.11,14.11,0,0,1,.51-1.61c.28-.81.92-2.59,1.92-5.32h1.3l-3,8Z"/><path class="cls-9" d="M162.47,77.39a3.71,3.71,0,0,1-2.81-1.08,4.22,4.22,0,0,1-1-3,4.66,4.66,0,0,1,1-3.09,3.18,3.18,0,0,1,2.57-1.14,3,3,0,0,1,2.39,1,3.85,3.85,0,0,1,.87,2.62v.77H159.9a3.19,3.19,0,0,0,.71,2.15,2.47,2.47,0,0,0,1.91.73,6.47,6.47,0,0,0,2.56-.54v1.08a6.18,6.18,0,0,1-1.22.4A6.84,6.84,0,0,1,162.47,77.39Zm-.33-7.3a2,2,0,0,0-1.54.63,2.93,2.93,0,0,0-.68,1.74h4.2a2.7,2.7,0,0,0-.51-1.76A1.8,1.8,0,0,0,162.14,70.09Z"/><path class="cls-9" d="M176.89,77.25v-5.2a2.08,2.08,0,0,0-.45-1.46,1.83,1.83,0,0,0-1.4-.49,2.28,2.28,0,0,0-1.84.69,3.42,3.42,0,0,0-.59,2.24v4.22h-1.22v-8h1l.2,1.1h.06a2.48,2.48,0,0,1,1.05-.92,3.37,3.37,0,0,1,1.5-.33,3.09,3.09,0,0,1,2.18.7A3,3,0,0,1,178.1,72v5.24Z"/><path class="cls-9" d="M187.53,73.23a4.42,4.42,0,0,1-1,3.06,3.46,3.46,0,0,1-2.73,1.1,3.65,3.65,0,0,1-1.91-.5,3.32,3.32,0,0,1-1.29-1.45,5.1,5.1,0,0,1-.46-2.21,4.4,4.4,0,0,1,1-3.06,3.84,3.84,0,0,1,5.4,0A4.43,4.43,0,0,1,187.53,73.23Zm-6.12,0a3.81,3.81,0,0,0,.62,2.34,2.45,2.45,0,0,0,3.62,0,4.71,4.71,0,0,0,0-4.67,2.47,2.47,0,0,0-3.63,0A3.8,3.8,0,0,0,181.41,73.23Z"/><path class="cls-9" d="M196.22,77.25l-1.48-4.71c-.09-.29-.26-1-.52-2h-.05c-.2.86-.37,1.52-.52,2l-1.51,4.7h-1.41l-2.19-8h1.27c.52,2,.92,3.55,1.19,4.61a18.32,18.32,0,0,1,.46,2.13h.06c0-.28.14-.64.26-1.08s.22-.8.31-1l1.47-4.61h1.32l1.44,4.61a16.55,16.55,0,0,1,.56,2.11h.05c0-.17.08-.44.16-.81s.6-2.34,1.53-5.91h1.26l-2.22,8Z"/><path d="M133.18,58.16,129.4,45.84h-.1c.14,2.51.21,4.18.21,5v7.3h-3V42.46h4.54l3.71,12h.07l3.94-12h4.53v15.7h-3.1V50.73c0-.35,0-.76,0-1.22s.06-1.67.15-3.65h-.1l-4.05,12.3Z"/><path d="M157.93,52.13a6.41,6.41,0,0,1-1.55,4.59,5.6,5.6,0,0,1-4.3,1.66,6.05,6.05,0,0,1-3.05-.76,5,5,0,0,1-2-2.18,7.18,7.18,0,0,1-.71-3.31,6.42,6.42,0,0,1,1.53-4.57,5.65,5.65,0,0,1,4.32-1.63,6.08,6.08,0,0,1,3.05.75,5,5,0,0,1,2,2.16A7.09,7.09,0,0,1,157.93,52.13Zm-8.3,0a5.06,5.06,0,0,0,.58,2.7,2.45,2.45,0,0,0,3.8,0,5.18,5.18,0,0,0,.57-2.71,4.92,4.92,0,0,0-.58-2.67,2.11,2.11,0,0,0-1.9-.89,2.07,2.07,0,0,0-1.89.88A4.94,4.94,0,0,0,149.63,52.13Z"/><path d="M167.34,45.93a5.71,5.71,0,0,1,1.11.09l-.25,3.07a3.86,3.86,0,0,0-1-.1,3.5,3.5,0,0,0-2.44.8,2.93,2.93,0,0,0-.87,2.26v6.11h-3.28v-12h2.48l.48,2h.16a4.72,4.72,0,0,1,1.51-1.63A3.76,3.76,0,0,1,167.34,45.93Z"/><path d="M175.69,55.77a7.14,7.14,0,0,0,2.06-.38v2.44a7.46,7.46,0,0,1-3,.55,3.69,3.69,0,0,1-2.86-1,4.3,4.3,0,0,1-.9-3V48.61h-1.56V47.23l1.8-1.1.95-2.54h2.09v2.56h3.36v2.46h-3.36V54.4a1.27,1.27,0,0,0,.39,1A1.57,1.57,0,0,0,175.69,55.77Z"/><path d="M185.61,58.38a6.19,6.19,0,0,1-4.53-1.61,6,6,0,0,1-1.63-4.53A6.66,6.66,0,0,1,181,47.57a5.38,5.38,0,0,1,4.17-1.64,5.26,5.26,0,0,1,4,1.45,5.45,5.45,0,0,1,1.42,4V53h-7.74a3.14,3.14,0,0,0,.82,2.18,2.89,2.89,0,0,0,2.17.79,9.09,9.09,0,0,0,2.06-.23,10.5,10.5,0,0,0,2-.72v2.54a8.18,8.18,0,0,1-1.84.64A11.58,11.58,0,0,1,185.61,58.38Zm-.46-10.12a2.07,2.07,0,0,0-1.63.66,3.08,3.08,0,0,0-.68,1.87h4.6a2.73,2.73,0,0,0-.63-1.87A2.15,2.15,0,0,0,185.15,48.26Z"/><path d="M204.26,58.16H201v-7a3.34,3.34,0,0,0-.47-1.95,1.64,1.64,0,0,0-1.47-.65,2.2,2.2,0,0,0-2,.91,5.7,5.7,0,0,0-.62,3v5.65h-3.27v-12h2.5l.44,1.54h.18a3.52,3.52,0,0,1,1.51-1.32,5.1,5.1,0,0,1,2.19-.44,4.2,4.2,0,0,1,3.18,1.13,4.54,4.54,0,0,1,1.08,3.27Z"/><path d="M226.48,58.16h-3.32V51.38h-6.22v6.78h-3.33V42.46h3.33v6.15h6.22V42.46h3.32Z"/><path d="M237.81,58.16l-.63-1.63h-.09a4.9,4.9,0,0,1-1.7,1.44,5.5,5.5,0,0,1-2.28.41,3.69,3.69,0,0,1-2.73-1,3.81,3.81,0,0,1-1-2.82,3.16,3.16,0,0,1,1.34-2.82,7.73,7.73,0,0,1,4-1l2.08-.07v-.52A1.63,1.63,0,0,0,235,48.33a8.52,8.52,0,0,0-3.38.87L230.51,47a9.78,9.78,0,0,1,4.59-1.09A5.7,5.7,0,0,1,238.81,47a3.89,3.89,0,0,1,1.29,3.2v8Zm-1-5.56-1.26,0a4.1,4.1,0,0,0-2.13.51,1.62,1.62,0,0,0-.7,1.44c0,.93.53,1.39,1.59,1.39a2.5,2.5,0,0,0,1.82-.66,2.26,2.26,0,0,0,.68-1.74Z"/><path d="M254.56,58.16h-3.28v-7a3.34,3.34,0,0,0-.46-1.95,1.67,1.67,0,0,0-1.47-.65,2.22,2.22,0,0,0-2,.91,5.71,5.71,0,0,0-.61,3v5.65h-3.28v-12H246l.45,1.54h.18a3.47,3.47,0,0,1,1.51-1.32,5.09,5.09,0,0,1,2.18-.44,4.17,4.17,0,0,1,3.18,1.13,4.5,4.5,0,0,1,1.09,3.27Z"/><path d="M266.31,54.59A3.33,3.33,0,0,1,265,57.41a6.39,6.39,0,0,1-3.84,1A11.93,11.93,0,0,1,259,58.2a8.49,8.49,0,0,1-1.73-.52V55a11,11,0,0,0,2.06.72,8.45,8.45,0,0,0,2,.29c1.19,0,1.79-.34,1.79-1a.85.85,0,0,0-.24-.63,3.67,3.67,0,0,0-.82-.55c-.38-.2-.9-.44-1.54-.71a9.62,9.62,0,0,1-2-1.08,2.94,2.94,0,0,1-.94-1.13,3.7,3.7,0,0,1-.3-1.57,2.84,2.84,0,0,1,1.24-2.48,6.08,6.08,0,0,1,3.52-.87,10,10,0,0,1,4.22.94l-1,2.36q-.9-.37-1.68-.63a5.51,5.51,0,0,0-1.6-.25c-1,0-1.45.26-1.45.79a.91.91,0,0,0,.46.76,14,14,0,0,0,2.05,1A9.52,9.52,0,0,1,265,51.92a3.15,3.15,0,0,1,1,1.14A3.45,3.45,0,0,1,266.31,54.59Z"/><path d="M274.3,58.38a6.19,6.19,0,0,1-4.53-1.61,6,6,0,0,1-1.63-4.53,6.66,6.66,0,0,1,1.51-4.67,5.38,5.38,0,0,1,4.17-1.64,5.26,5.26,0,0,1,4,1.45,5.45,5.45,0,0,1,1.42,4V53h-7.74a3.14,3.14,0,0,0,.82,2.18,2.89,2.89,0,0,0,2.17.79,8.94,8.94,0,0,0,2.05-.23,10,10,0,0,0,2-.72v2.54a7.93,7.93,0,0,1-1.83.64A11.65,11.65,0,0,1,274.3,58.38Zm-.46-10.12a2.07,2.07,0,0,0-1.63.66,3,3,0,0,0-.68,1.87h4.6a2.74,2.74,0,0,0-.64-1.87A2.13,2.13,0,0,0,273.84,48.26Z"/><path d="M293,58.16h-3.28v-7a3.34,3.34,0,0,0-.46-1.95,1.67,1.67,0,0,0-1.47-.65,2.22,2.22,0,0,0-2,.91,5.71,5.71,0,0,0-.61,3v5.65h-3.28v-12h2.51l.44,1.54H285a3.52,3.52,0,0,1,1.51-1.32,5.1,5.1,0,0,1,2.19-.44,4.2,4.2,0,0,1,3.18,1.13A4.54,4.54,0,0,1,293,50.33Z"/><rect class="cls-10" x="61.5" y="614.5" width="248" height="137" rx="18.79"/><path class="cls-11" d="M72.46,639.69V624.52h2.15v6.39h7.22v-6.39H84v15.17H81.83v-7.17H74.61v7.17Z"/><path class="cls-11" d="M96.11,639.33a12.31,12.31,0,0,1-3.47.62,5.31,5.31,0,0,1-4-1.64,5.92,5.92,0,0,1-1.55-4.24,6.22,6.22,0,0,1,1.37-4.15,4.38,4.38,0,0,1,3.5-1.62,3.71,3.71,0,0,1,3.12,1.43,6.57,6.57,0,0,1,1.11,4.09v.62h-7c.3,2.65,1.59,4,3.89,4a9.28,9.28,0,0,0,3.09-.68Zm-6.89-6.41h4.92c0-2.07-.78-3.1-2.32-3.1S89.4,630.85,89.22,632.92Z"/><path class="cls-11" d="M100.3,643.74l1.8-4-4.3-11.14H100l3.19,8.39,3.4-8.39h1.91l-6.08,15.19Z"/><path class="cls-11" d="M124.42,639.69V637.6A4,4,0,0,1,120.7,640a3.8,3.8,0,0,1-3.16-1.47,6.31,6.31,0,0,1-1.15-4,7.13,7.13,0,0,1,1.3-4.47,4.33,4.33,0,0,1,6.73-.17V623.5h2v16.19Zm0-8.48a4.65,4.65,0,0,0-3-1.38q-2.89,0-2.9,4.44,0,3.9,2.58,3.9a4.52,4.52,0,0,0,3.3-1.83Z"/><path class="cls-11" d="M137.45,639.69V637.6a4.7,4.7,0,0,1-3.91,2.35,3,3,0,0,1-2.32-.92,3.5,3.5,0,0,1-.86-2.48v-8h2v7.35a3.21,3.21,0,0,0,.37,1.78,1.35,1.35,0,0,0,1.21.52c1.23,0,2.39-.81,3.49-2.43v-7.22h2v11.14Z"/><path class="cls-11" d="M150.67,639.69V637.6A4,4,0,0,1,147,640a3.8,3.8,0,0,1-3.16-1.47,6.31,6.31,0,0,1-1.15-4,7.13,7.13,0,0,1,1.3-4.47,4.33,4.33,0,0,1,6.73-.17V623.5h2v16.19Zm0-8.48a4.65,4.65,0,0,0-3-1.38q-2.9,0-2.9,4.44,0,3.9,2.58,3.9a4.52,4.52,0,0,0,3.3-1.83Z"/><path class="cls-11" d="M164.9,639.33a12.37,12.37,0,0,1-3.48.62,5.28,5.28,0,0,1-4-1.64,5.88,5.88,0,0,1-1.56-4.24,6.22,6.22,0,0,1,1.37-4.15,4.39,4.39,0,0,1,3.5-1.62,3.74,3.74,0,0,1,3.13,1.43,6.64,6.64,0,0,1,1.1,4.09v.62h-7c.3,2.65,1.59,4,3.89,4a9.38,9.38,0,0,0,3.1-.68ZM158,632.92h4.91c0-2.07-.77-3.1-2.32-3.1S158.18,630.85,158,632.92Z"/><path class="cls-11" d="M169,635.64l-.26-8.09v-3h2v3l-.24,8.09Zm-.26,4.05v-2h2v2Z"/><path class="cls-11" d="M184.64,640.07a15,15,0,0,1-3.91-.67v-2.13a10.65,10.65,0,0,0,4.21,1.19,3,3,0,0,0,2.05-.67,2.17,2.17,0,0,0,.77-1.75,2.4,2.4,0,0,0-.5-1.52,6.91,6.91,0,0,0-1.88-1.39l-1-.61a9.77,9.77,0,0,1-2.73-2.08,3.54,3.54,0,0,1-.8-2.28,3.72,3.72,0,0,1,1.27-2.89,4.67,4.67,0,0,1,3.24-1.13,12.8,12.8,0,0,1,3.7.58v2a10.94,10.94,0,0,0-3.57-.94,2.81,2.81,0,0,0-1.85.59,1.88,1.88,0,0,0-.73,1.5,1.93,1.93,0,0,0,.54,1.34,8.31,8.31,0,0,0,1.94,1.4l1.09.61a9.65,9.65,0,0,1,2.75,2.11,3.77,3.77,0,0,1,.78,2.39,3.92,3.92,0,0,1-1.46,3.18A5.93,5.93,0,0,1,184.64,640.07Z"/><path class="cls-11" d="M193,639.69V623.5h2V634l4.72-5.41h2.17l-4.5,5.2,5.44,5.94h-2.59L195.05,634v5.71Z"/><path class="cls-11" d="M211.05,638.28a5.33,5.33,0,0,1-3.5,1.67,3.19,3.19,0,0,1-2.29-.87,2.9,2.9,0,0,1-.92-2.19,3.11,3.11,0,0,1,1.54-2.8,8.09,8.09,0,0,1,4.39-1h.48v-1.35a1.73,1.73,0,0,0-2-1.93,7.39,7.39,0,0,0-3.45,1v-1.67a10.22,10.22,0,0,1,3.82-.83,3.91,3.91,0,0,1,2.76.84,3.45,3.45,0,0,1,.88,2.61v5c0,1.15.36,1.73,1.07,1.73a2.31,2.31,0,0,0,.39,0l.14,1.12a3.46,3.46,0,0,1-1.52.33C211.91,640,211.31,639.39,211.05,638.28Zm-.3-1.1V634.3l-.67,0a5.08,5.08,0,0,0-2.69.63,1.89,1.89,0,0,0-1,1.65,1.65,1.65,0,0,0,.52,1.23,1.71,1.71,0,0,0,1.25.51A4.23,4.23,0,0,0,210.75,637.18Z"/><path class="cls-11" d="M216.91,639.69V623.5h2v16.19Z"/><path class="cls-11" d="M236.77,639.69V637.6a4,4,0,0,1-3.71,2.35,3.82,3.82,0,0,1-3.17-1.47,6.31,6.31,0,0,1-1.15-4,7.07,7.07,0,0,1,1.31-4.47,4.32,4.32,0,0,1,6.72-.17V623.5h2v16.19Zm0-8.48a4.65,4.65,0,0,0-3-1.38q-2.89,0-2.9,4.44,0,3.9,2.59,3.9a4.51,4.51,0,0,0,3.29-1.83Z"/><path class="cls-11" d="M249.8,639.69V637.6a4.68,4.68,0,0,1-3.91,2.35,3,3,0,0,1-2.31-.92,3.46,3.46,0,0,1-.87-2.48v-8h2v7.35a3.3,3.3,0,0,0,.37,1.78,1.37,1.37,0,0,0,1.21.52c1.23,0,2.4-.81,3.49-2.43v-7.22h2v11.14Z"/><path class="cls-11" d="M262.51,639.69V623.5h2v16.19Z"/><path class="cls-11" d="M268.58,626.54v-2h2v2Zm0,13.15V628.55h2v11.14Z"/><path class="cls-11" d="M274.7,643.39l.23-1.75a8.09,8.09,0,0,0,3.46.83q3.41,0,3.41-3.62V637.1a3.78,3.78,0,0,1-3.67,2.33A3.89,3.89,0,0,1,275,638a6.1,6.1,0,0,1-1.18-3.93,6.19,6.19,0,0,1,1.35-4.14,4.3,4.3,0,0,1,3.47-1.6,4.11,4.11,0,0,1,3.21,1.52v-1.28h2v8.11a20.15,20.15,0,0,1-.27,3.87,4.23,4.23,0,0,1-1,2.05,5.38,5.38,0,0,1-4.11,1.41A11.61,11.61,0,0,1,274.7,643.39Zm7.1-7.55v-4.63a4,4,0,0,0-2.9-1.38,2.52,2.52,0,0,0-2.18,1.11,5.23,5.23,0,0,0-.79,3.07c0,2.44.85,3.66,2.57,3.66A4.36,4.36,0,0,0,281.8,635.84Z"/><path class="cls-11" d="M295.91,639.33a12.31,12.31,0,0,1-3.47.62,5.3,5.3,0,0,1-4-1.64,5.92,5.92,0,0,1-1.55-4.24,6.16,6.16,0,0,1,1.37-4.15,4.38,4.38,0,0,1,3.5-1.62,3.72,3.72,0,0,1,3.12,1.43,6.57,6.57,0,0,1,1.1,4.09v.62h-7c.29,2.65,1.59,4,3.88,4a9.28,9.28,0,0,0,3.1-.68ZM289,632.92h4.91c0-2.07-.77-3.1-2.31-3.1S289.2,630.85,289,632.92Z"/><path class="cls-11" d="M75.47,665.15a11.22,11.22,0,0,1-3.36-.65v-1.85a8.07,8.07,0,0,0,3.45,1,2.21,2.21,0,0,0,1.44-.47,1.49,1.49,0,0,0,.58-1.18c0-.69-.54-1.26-1.61-1.71l-1.18-.51C73,659,72.17,658,72.17,656.64a2.77,2.77,0,0,1,1-2.29,4.36,4.36,0,0,1,2.83-.84,12.11,12.11,0,0,1,2.3.26l.42.08v1.68a9.77,9.77,0,0,0-2.68-.5q-1.95,0-1.95,1.41c0,.61.49,1.12,1.48,1.54l1,.41a6.74,6.74,0,0,1,2.34,1.47,2.8,2.8,0,0,1,.69,1.93,3,3,0,0,1-1.16,2.41A4.56,4.56,0,0,1,75.47,665.15Z"/><path class="cls-11" d="M91.39,664.53a12.37,12.37,0,0,1-3.48.62,5.28,5.28,0,0,1-4-1.64,5.88,5.88,0,0,1-1.56-4.24,6.22,6.22,0,0,1,1.37-4.15,4.38,4.38,0,0,1,3.5-1.62,3.74,3.74,0,0,1,3.13,1.43,6.64,6.64,0,0,1,1.1,4.09v.62h-7c.3,2.65,1.59,4,3.89,4a9.38,9.38,0,0,0,3.1-.68Zm-6.89-6.41h4.91c0-2.07-.77-3.1-2.32-3.1S84.67,656.05,84.5,658.12Z"/><path class="cls-11" d="M101.57,664.89V653.76h2v2.09a4.66,4.66,0,0,1,3.92-2.34,3,3,0,0,1,2.3.92,3.42,3.42,0,0,1,.86,2.46v8h-2v-7.34a3.25,3.25,0,0,0-.36-1.77,1.35,1.35,0,0,0-1.2-.53c-1.24,0-2.41.81-3.5,2.43v7.21Z"/><path class="cls-11" d="M119,665.15a4.86,4.86,0,0,1-3.81-1.59,7,7,0,0,1,0-8.49,5.61,5.61,0,0,1,7.76,0,6,6,0,0,1,1.43,4.23,6.12,6.12,0,0,1-1.43,4.29A5.11,5.11,0,0,1,119,665.15Zm0-1.52q3.21,0,3.21-4.33T119,655c-2.1,0-3.16,1.43-3.16,4.29S116.91,663.63,119,663.63Z"/><path class="cls-11" d="M127.54,668.59l.24-1.75a8.08,8.08,0,0,0,3.45.83q3.42,0,3.42-3.62V662.3a3.79,3.79,0,0,1-3.67,2.33,3.86,3.86,0,0,1-3.18-1.45,6,6,0,0,1-1.18-3.93,6.26,6.26,0,0,1,1.34-4.14,4.33,4.33,0,0,1,3.48-1.6,4.17,4.17,0,0,1,3.21,1.52v-1.27h2v8.1a20.15,20.15,0,0,1-.27,3.87,4.23,4.23,0,0,1-1,2,5.42,5.42,0,0,1-4.12,1.41A11.66,11.66,0,0,1,127.54,668.59Zm7.11-7.55v-4.63a4,4,0,0,0-2.9-1.38,2.55,2.55,0,0,0-2.19,1.11,5.3,5.3,0,0,0-.79,3.07q0,3.66,2.58,3.66A4.36,4.36,0,0,0,134.65,661Z"/><path class="cls-11" d="M140.6,664.89V648.7h2v16.19Z"/><path class="cls-11" d="M154.83,664.53a12.37,12.37,0,0,1-3.48.62,5.28,5.28,0,0,1-4-1.64,5.88,5.88,0,0,1-1.56-4.24,6.22,6.22,0,0,1,1.37-4.15,4.39,4.39,0,0,1,3.5-1.62,3.74,3.74,0,0,1,3.13,1.43,6.64,6.64,0,0,1,1.1,4.09v.62h-7q.43,4,3.88,4a9.38,9.38,0,0,0,3.1-.68Zm-6.89-6.41h4.91c0-2.07-.77-3.1-2.32-3.1S148.12,656.05,147.94,658.12Z"/><path class="cls-11" d="M165,665V648.7h2v7.15a4,4,0,0,1,3.72-2.34,3.82,3.82,0,0,1,3.17,1.47,6.34,6.34,0,0,1,1.15,4,7.13,7.13,0,0,1-1.31,4.47,4.33,4.33,0,0,1-6.73.18l-.25,1.38Zm2-2.77a4.58,4.58,0,0,0,3,1.39q2.92,0,2.92-4.44c0-2.61-.87-3.92-2.59-3.92a4.47,4.47,0,0,0-3.3,1.84Z"/><path class="cls-11" d="M178.23,651.74v-2h2v2Zm0,13.15V653.76h2v11.13Z"/><path class="cls-11" d="M184.3,664.89V648.7h2v16.19Z"/><path class="cls-11" d="M190.37,664.89V648.7h2v16.19Z"/><path class="cls-11" d="M204.6,664.53a12.31,12.31,0,0,1-3.48.62,5.29,5.29,0,0,1-4-1.64,5.88,5.88,0,0,1-1.55-4.24,6.16,6.16,0,0,1,1.37-4.15,4.38,4.38,0,0,1,3.5-1.62,3.73,3.73,0,0,1,3.12,1.43,6.64,6.64,0,0,1,1.1,4.09v.62h-7c.29,2.65,1.59,4,3.88,4a9.33,9.33,0,0,0,3.1-.68Zm-6.89-6.41h4.91c0-2.07-.77-3.1-2.32-3.1S197.89,656.05,197.71,658.12Z"/><path class="cls-11" d="M215.29,664.89V662.8a4,4,0,0,1-3.72,2.35,3.8,3.8,0,0,1-3.16-1.47,6.31,6.31,0,0,1-1.15-4,7.13,7.13,0,0,1,1.3-4.47,4.33,4.33,0,0,1,6.73-.17V648.7h2v16.19Zm0-8.48a4.65,4.65,0,0,0-3-1.38q-2.9,0-2.9,4.44,0,3.9,2.58,3.9a4.52,4.52,0,0,0,3.3-1.83Z"/><path class="cls-11" d="M229.52,664.53a12.37,12.37,0,0,1-3.48.62,5.28,5.28,0,0,1-4-1.64,5.88,5.88,0,0,1-1.56-4.24,6.22,6.22,0,0,1,1.37-4.15,4.39,4.39,0,0,1,3.5-1.62,3.74,3.74,0,0,1,3.13,1.43,6.64,6.64,0,0,1,1.1,4.09v.62h-7c.3,2.65,1.59,4,3.89,4a9.38,9.38,0,0,0,3.1-.68Zm-6.89-6.41h4.91c0-2.07-.77-3.1-2.32-3.1S222.8,656.05,222.63,658.12Z"/><path class="cls-11" d="M233.06,664.89V653.76h2v2.09a3.77,3.77,0,0,1,3.48-2.34,5,5,0,0,1,.65,0v1.89a2.92,2.92,0,0,0-.93-.18c-1.27,0-2.34.76-3.2,2.28v7.34Z"/><path class="cls-11" d="M244.69,668.67v-1.59a6.33,6.33,0,0,0,2.16.59,1.54,1.54,0,0,0,1.41-.55,4.74,4.74,0,0,0,.35-2.23V653.76h2v11.13q0,4.3-3.63,4.3A6,6,0,0,1,244.69,668.67Zm3.92-16.93v-2h2v2Z"/><path class="cls-11" d="M262.84,664.53a12.31,12.31,0,0,1-3.47.62,5.31,5.31,0,0,1-4-1.64,5.92,5.92,0,0,1-1.55-4.24,6.22,6.22,0,0,1,1.37-4.15,4.38,4.38,0,0,1,3.5-1.62,3.71,3.71,0,0,1,3.12,1.43,6.57,6.57,0,0,1,1.1,4.09v.62h-7q.43,4,3.89,4a9.28,9.28,0,0,0,3.09-.68ZM256,658.12h4.91c0-2.07-.77-3.1-2.31-3.1S256.13,656.05,256,658.12Z"/><path class="cls-11" d="M266.42,668.59l.24-1.75a8.08,8.08,0,0,0,3.45.83q3.42,0,3.42-3.62V662.3a3.79,3.79,0,0,1-3.67,2.33,3.86,3.86,0,0,1-3.18-1.45,6,6,0,0,1-1.18-3.93,6.26,6.26,0,0,1,1.34-4.14,4.33,4.33,0,0,1,3.48-1.6,4.17,4.17,0,0,1,3.21,1.52v-1.27h2v8.1a20.15,20.15,0,0,1-.27,3.87,4.41,4.41,0,0,1-1,2,5.42,5.42,0,0,1-4.12,1.41A11.61,11.61,0,0,1,266.42,668.59Zm7.11-7.55v-4.63a4,4,0,0,0-2.9-1.38,2.55,2.55,0,0,0-2.19,1.11,5.3,5.3,0,0,0-.79,3.07q0,3.66,2.58,3.66A4.38,4.38,0,0,0,273.53,661Z"/><path class="cls-11" d="M75.86,690.35a3.21,3.21,0,0,1-2.4-.89A3.35,3.35,0,0,1,72.6,687v-6.54H71.21V679H72.6v-2l2-.2V679h2.91v1.51H74.62v6.18c0,1.45.63,2.18,1.89,2.18a4.26,4.26,0,0,0,1-.13v1.39A6.28,6.28,0,0,1,75.86,690.35Z"/><path class="cls-11" d="M84.73,690.35a4.86,4.86,0,0,1-3.81-1.59,7,7,0,0,1,0-8.49,5.62,5.62,0,0,1,7.77,0,7,7,0,0,1,0,8.52A5.1,5.1,0,0,1,84.73,690.35Zm0-1.52q3.21,0,3.21-4.33c0-2.85-1-4.27-3.17-4.27s-3.15,1.43-3.15,4.29S82.69,688.83,84.76,688.83Z"/><path class="cls-11" d="M93.31,693.79l.24-1.75a8.09,8.09,0,0,0,3.46.83q3.4,0,3.41-3.62V687.5a3.8,3.8,0,0,1-3.67,2.33,3.89,3.89,0,0,1-3.18-1.45,6.1,6.1,0,0,1-1.18-3.93,6.21,6.21,0,0,1,1.35-4.14,4.3,4.3,0,0,1,3.47-1.6,4.11,4.11,0,0,1,3.21,1.52V679h2v8.1a20.15,20.15,0,0,1-.27,3.87,4.23,4.23,0,0,1-1,2.05,5.38,5.38,0,0,1-4.11,1.41A11.67,11.67,0,0,1,93.31,693.79Zm7.11-7.55v-4.63a4,4,0,0,0-2.9-1.38,2.55,2.55,0,0,0-2.19,1.11,5.3,5.3,0,0,0-.78,3.07c0,2.44.85,3.66,2.57,3.66A4.36,4.36,0,0,0,100.42,686.24Z"/><path class="cls-11" d="M118.75,688.68a5.31,5.31,0,0,1-3.49,1.67,3.21,3.21,0,0,1-2.3-.87,2.89,2.89,0,0,1-.91-2.19,3.12,3.12,0,0,1,1.53-2.8,8.13,8.13,0,0,1,4.4-1h.48v-1.35a1.73,1.73,0,0,0-2-1.93,7.4,7.4,0,0,0-3.46,1v-1.67a10.27,10.27,0,0,1,3.83-.83,3.88,3.88,0,0,1,2.75.84,3.45,3.45,0,0,1,.89,2.61v5.05c0,1.16.35,1.73,1.06,1.73a2.31,2.31,0,0,0,.39,0l.15,1.12a3.49,3.49,0,0,1-1.52.33C119.62,690.35,119,689.79,118.75,688.68Zm-.29-1.1V684.7l-.68,0a5.1,5.1,0,0,0-2.69.63,1.88,1.88,0,0,0-1,1.65,1.64,1.64,0,0,0,.51,1.23,1.71,1.71,0,0,0,1.25.51A4.26,4.26,0,0,0,118.46,687.58Z"/><path class="cls-11" d="M127,680.47v9.62h-2v-9.62h-1.58V679H125v-1.34q0-4,3.63-4a9.55,9.55,0,0,1,2.31.34v1.6a7.89,7.89,0,0,0-2.19-.42,1.63,1.63,0,0,0-1.36.48,3.09,3.09,0,0,0-.36,1.77V679h2.78v1.51Z"/><path class="cls-11" d="M138.91,690.09V674.92h2v7.46l6.15-7.46h2.16l-6,7.23,7,7.94h-2.73l-6.64-7.69v7.69Z"/><path class="cls-11" d="M158.43,688.68a5.33,5.33,0,0,1-3.5,1.67,3.21,3.21,0,0,1-2.3-.87,2.93,2.93,0,0,1-.91-2.19,3.12,3.12,0,0,1,1.53-2.8,8.15,8.15,0,0,1,4.4-1h.48v-1.35a1.73,1.73,0,0,0-2-1.93,7.33,7.33,0,0,0-3.45,1v-1.67a10.22,10.22,0,0,1,3.82-.83,3.88,3.88,0,0,1,2.75.84,3.45,3.45,0,0,1,.89,2.61v5.05c0,1.16.36,1.73,1.07,1.73a2.31,2.31,0,0,0,.39,0l.14,1.12a3.46,3.46,0,0,1-1.52.33C159.29,690.35,158.69,689.79,158.43,688.68Zm-.3-1.1V684.7l-.68,0a5.06,5.06,0,0,0-2.68.63,1.88,1.88,0,0,0-1,1.65,1.64,1.64,0,0,0,.51,1.23,1.72,1.72,0,0,0,1.25.51A4.23,4.23,0,0,0,158.13,687.58Z"/><path class="cls-11" d="M167.62,690.35a3.18,3.18,0,0,1-2.39-.89,3.32,3.32,0,0,1-.87-2.45v-6.54H163V679h1.39v-2l2-.2V679h2.92v1.51h-2.92v6.18c0,1.45.63,2.18,1.89,2.18a4.41,4.41,0,0,0,1-.13v1.39A6.41,6.41,0,0,1,167.62,690.35Z"/><path class="cls-11" d="M172.14,690.09V679h2v2.09a3.77,3.77,0,0,1,3.48-2.34,5,5,0,0,1,.65,0v1.89a2.91,2.91,0,0,0-.92-.18q-1.92,0-3.21,2.28v7.34Z"/><path class="cls-11" d="M180.73,676.94v-2h2v2Zm0,13.15V679h2v11.13Z"/><path class="cls-11" d="M186.8,690.09V679h2v2.09a4.66,4.66,0,0,1,3.92-2.34,3,3,0,0,1,2.3.92,3.42,3.42,0,0,1,.87,2.46v8h-2v-7.34a3.24,3.24,0,0,0-.37-1.77,1.35,1.35,0,0,0-1.2-.53c-1.24,0-2.41.81-3.5,2.43v7.21Z"/><path class="cls-11" d="M208,689.73a12.31,12.31,0,0,1-3.47.62,5.31,5.31,0,0,1-4-1.64,5.92,5.92,0,0,1-1.55-4.24,6.22,6.22,0,0,1,1.37-4.15,4.38,4.38,0,0,1,3.5-1.62,3.71,3.71,0,0,1,3.12,1.43,6.56,6.56,0,0,1,1.11,4.08v.63h-7c.3,2.65,1.59,4,3.89,4a9.28,9.28,0,0,0,3.09-.68Zm-6.89-6.41H206c0-2.07-.78-3.1-2.32-3.1S201.28,681.25,201.1,683.32Z"/><path class="cls-11" d="M214.58,693.88v-1.6a6.29,6.29,0,0,0,2.15.59,1.57,1.57,0,0,0,1.42-.55,4.78,4.78,0,0,0,.34-2.23V679h2v11.13q0,4.3-3.62,4.3A6.1,6.1,0,0,1,214.58,693.88Zm3.91-16.94v-2h2v2Z"/><path class="cls-11" d="M232.73,689.73a12.43,12.43,0,0,1-3.48.62,5.28,5.28,0,0,1-4-1.64,5.88,5.88,0,0,1-1.56-4.24,6.22,6.22,0,0,1,1.37-4.15,4.38,4.38,0,0,1,3.5-1.62,3.74,3.74,0,0,1,3.13,1.43,6.62,6.62,0,0,1,1.1,4.08v.63h-7c.3,2.65,1.59,4,3.89,4a9.38,9.38,0,0,0,3.1-.68Zm-6.89-6.41h4.91c0-2.07-.77-3.1-2.32-3.1S226,681.25,225.84,683.32Z"/><path class="cls-11" d="M236.31,693.79l.23-1.75a8.09,8.09,0,0,0,3.46.83q3.41,0,3.41-3.62V687.5a3.8,3.8,0,0,1-3.67,2.33,3.89,3.89,0,0,1-3.18-1.45,6.1,6.1,0,0,1-1.18-3.93,6.21,6.21,0,0,1,1.35-4.14,4.3,4.3,0,0,1,3.47-1.6,4.11,4.11,0,0,1,3.21,1.52V679h2v8.1a20.15,20.15,0,0,1-.27,3.87,4.23,4.23,0,0,1-1,2.05,5.38,5.38,0,0,1-4.11,1.41A11.61,11.61,0,0,1,236.31,693.79Zm7.1-7.55v-4.63a4,4,0,0,0-2.9-1.38,2.52,2.52,0,0,0-2.18,1.11,5.23,5.23,0,0,0-.79,3.07c0,2.44.85,3.66,2.57,3.66A4.36,4.36,0,0,0,243.41,686.24Z"/><path class="cls-11" d="M258.31,690.09,254.17,679h2l3.24,8.66,3.41-8.66h1.89l-4.4,11.13Z"/><path class="cls-11" d="M272.61,688.68a5.31,5.31,0,0,1-3.49,1.67,3.21,3.21,0,0,1-2.3-.87,2.89,2.89,0,0,1-.91-2.19,3.12,3.12,0,0,1,1.53-2.8,8.13,8.13,0,0,1,4.4-1h.48v-1.35a1.73,1.73,0,0,0-2-1.93,7.4,7.4,0,0,0-3.46,1v-1.67a10.27,10.27,0,0,1,3.83-.83,3.88,3.88,0,0,1,2.75.84,3.45,3.45,0,0,1,.89,2.61v5.05c0,1.16.35,1.73,1.06,1.73a2.31,2.31,0,0,0,.39,0l.15,1.12a3.49,3.49,0,0,1-1.52.33C273.48,690.35,272.87,689.79,272.61,688.68Zm-.29-1.1V684.7l-.68,0a5.1,5.1,0,0,0-2.69.63,1.88,1.88,0,0,0-1,1.65,1.64,1.64,0,0,0,.51,1.23,1.71,1.71,0,0,0,1.25.51A4.26,4.26,0,0,0,272.32,687.58Z"/><path class="cls-11" d="M278.47,690.09V679h2v2.09a3.77,3.77,0,0,1,3.49-2.34,4.85,4.85,0,0,1,.64,0v1.89a2.86,2.86,0,0,0-.92-.18q-1.92,0-3.21,2.28v7.34Z"/><path class="cls-11" d="M75.47,715.55a11.22,11.22,0,0,1-3.36-.65V713a8,8,0,0,0,3.45,1,2.21,2.21,0,0,0,1.44-.47,1.49,1.49,0,0,0,.58-1.18c0-.69-.54-1.26-1.61-1.71l-1.18-.51c-1.75-.72-2.62-1.76-2.62-3.12a2.77,2.77,0,0,1,1-2.29,4.36,4.36,0,0,1,2.83-.84,12.11,12.11,0,0,1,2.3.26l.42.08v1.68a9.77,9.77,0,0,0-2.68-.5q-1.95,0-1.95,1.41c0,.61.49,1.12,1.48,1.54l1,.41a6.59,6.59,0,0,1,2.34,1.47,2.8,2.8,0,0,1,.69,1.93,3,3,0,0,1-1.16,2.41A4.56,4.56,0,0,1,75.47,715.55Z"/><path class="cls-11" d="M89,713.88a5.33,5.33,0,0,1-3.5,1.67,3.21,3.21,0,0,1-2.3-.87,2.93,2.93,0,0,1-.91-2.19,3.13,3.13,0,0,1,1.53-2.8,8.24,8.24,0,0,1,4.4-1h.48v-1.34a1.73,1.73,0,0,0-2-1.94,7.33,7.33,0,0,0-3.45,1v-1.67a10.22,10.22,0,0,1,3.82-.83,3.88,3.88,0,0,1,2.75.84,3.46,3.46,0,0,1,.89,2.62v5c0,1.15.36,1.73,1.07,1.73a2.31,2.31,0,0,0,.39,0l.14,1.12a3.46,3.46,0,0,1-1.52.33C89.83,715.55,89.23,715,89,713.88Zm-.3-1.1V709.9l-.68,0a5.06,5.06,0,0,0-2.68.63,1.88,1.88,0,0,0-1,1.65,1.64,1.64,0,0,0,.51,1.23,1.72,1.72,0,0,0,1.25.51A4.23,4.23,0,0,0,88.67,712.78Z"/><path class="cls-11" d="M94.82,715.29V704.16h2v2.09a4.39,4.39,0,0,1,3.8-2.34,3,3,0,0,1,3,2.34,4.26,4.26,0,0,1,3.73-2.35,3,3,0,0,1,2.29.87,3.39,3.39,0,0,1,.81,2.42v8.1h-2v-7.78c0-1.27-.5-1.91-1.51-1.91s-2.14.74-3.29,2.23v7.46h-2v-7.78c0-1.28-.51-1.92-1.54-1.92s-2.11.75-3.27,2.24v7.46Z"/><path class="cls-11" d="M114.43,715.29V704.16h2v2.09a4.37,4.37,0,0,1,3.79-2.34,3.05,3.05,0,0,1,3.05,2.34A4.25,4.25,0,0,1,127,703.9a3,3,0,0,1,2.29.87,3.39,3.39,0,0,1,.81,2.42v8.1h-2v-7.78c0-1.27-.51-1.91-1.51-1.91s-2.14.74-3.29,2.23v7.46h-2v-7.78c0-1.28-.52-1.92-1.54-1.92s-2.11.75-3.27,2.24v7.46Z"/><path class="cls-11" d="M142.2,714.93a12.43,12.43,0,0,1-3.48.62,5.31,5.31,0,0,1-4-1.64,5.92,5.92,0,0,1-1.55-4.24,6.22,6.22,0,0,1,1.37-4.15,4.38,4.38,0,0,1,3.5-1.62,3.71,3.71,0,0,1,3.12,1.43,6.57,6.57,0,0,1,1.11,4.09V710h-7c.3,2.65,1.59,4,3.89,4a9.38,9.38,0,0,0,3.1-.68Zm-6.9-6.41h4.92c0-2.07-.78-3.1-2.32-3.1S135.48,706.45,135.3,708.52Z"/><path class="cls-11" d="M145.73,715.29V704.16h2v2.09a4.66,4.66,0,0,1,3.92-2.34,3,3,0,0,1,2.31.92,3.46,3.46,0,0,1,.86,2.46v8h-2V708a3.15,3.15,0,0,0-.37-1.77,1.35,1.35,0,0,0-1.2-.53c-1.24,0-2.4.81-3.5,2.43v7.21Z"/><path class="cls-11" d="M165.41,715.29V704.16h2v2.09a4.37,4.37,0,0,1,3.79-2.34,3.05,3.05,0,0,1,3.05,2.34A4.26,4.26,0,0,1,178,703.9a3,3,0,0,1,2.29.87,3.39,3.39,0,0,1,.81,2.42v8.1h-2v-7.78c0-1.27-.5-1.91-1.51-1.91s-2.14.74-3.29,2.23v7.46h-2v-7.78c0-1.28-.51-1.92-1.54-1.92s-2.11.75-3.27,2.24v7.46Z"/><path class="cls-11" d="M193.18,714.93a12.37,12.37,0,0,1-3.48.62,5.28,5.28,0,0,1-4-1.64,5.88,5.88,0,0,1-1.56-4.24,6.22,6.22,0,0,1,1.37-4.15,4.39,4.39,0,0,1,3.5-1.62,3.74,3.74,0,0,1,3.13,1.43,6.64,6.64,0,0,1,1.1,4.09V710h-7c.3,2.65,1.59,4,3.89,4a9.38,9.38,0,0,0,3.1-.68Zm-6.89-6.41h4.91c0-2.07-.77-3.1-2.32-3.1S186.46,706.45,186.29,708.52Z"/><path class="cls-11" d="M203.86,715.29V713.2a4,4,0,0,1-3.71,2.35,3.8,3.8,0,0,1-3.16-1.47,6.31,6.31,0,0,1-1.16-4,7.13,7.13,0,0,1,1.31-4.47,4.32,4.32,0,0,1,6.72-.17V699.1h2v16.19Zm0-8.48a4.61,4.61,0,0,0-3-1.38c-1.94,0-2.9,1.48-2.9,4.44q0,3.9,2.58,3.9a4.49,4.49,0,0,0,3.29-1.83Z"/><path class="cls-11" d="M216.58,702.13v-2h2v2Zm0,13.16V704.16h2v11.13Z"/><path class="cls-11" d="M229.33,719l.24-1.75a8.08,8.08,0,0,0,3.45.83q3.42,0,3.42-3.62V712.7a3.8,3.8,0,0,1-3.67,2.34,3.89,3.89,0,0,1-3.18-1.46,6,6,0,0,1-1.18-3.93,6.26,6.26,0,0,1,1.34-4.14,4.33,4.33,0,0,1,3.48-1.6,4.17,4.17,0,0,1,3.21,1.52v-1.27h2v8.1a20.15,20.15,0,0,1-.27,3.87,4.23,4.23,0,0,1-1,2,5.4,5.4,0,0,1-4.11,1.41A11.67,11.67,0,0,1,229.33,719Zm7.11-7.55v-4.63a4,4,0,0,0-2.9-1.38,2.55,2.55,0,0,0-2.19,1.11,5.3,5.3,0,0,0-.79,3.07q0,3.66,2.58,3.66A4.36,4.36,0,0,0,236.44,711.44Z"/><path class="cls-11" d="M248.13,713.88a5.33,5.33,0,0,1-3.5,1.67,3.21,3.21,0,0,1-2.3-.87,2.93,2.93,0,0,1-.91-2.19,3.12,3.12,0,0,1,1.54-2.8,8.18,8.18,0,0,1,4.39-1h.48v-1.34a1.73,1.73,0,0,0-2-1.94,7.36,7.36,0,0,0-3.45,1v-1.67a10.22,10.22,0,0,1,3.82-.83,3.87,3.87,0,0,1,2.75.84,3.42,3.42,0,0,1,.89,2.62v5c0,1.15.36,1.73,1.07,1.73a2.31,2.31,0,0,0,.39,0l.14,1.12a3.46,3.46,0,0,1-1.52.33C249,715.55,248.39,715,248.13,713.88Zm-.3-1.1V709.9l-.68,0a5.06,5.06,0,0,0-2.68.63,1.88,1.88,0,0,0-1,1.65,1.62,1.62,0,0,0,.52,1.23,1.69,1.69,0,0,0,1.25.51A4.23,4.23,0,0,0,247.83,712.78Zm-1.63-10.65a2.15,2.15,0,0,1-1.62-.68,2.24,2.24,0,0,1-.68-1.64,2.28,2.28,0,0,1,.68-1.65,2.25,2.25,0,0,1,1.65-.68,2.28,2.28,0,0,1,1.65.68,2.34,2.34,0,0,1,0,3.3A2.31,2.31,0,0,1,246.2,702.13Zm0-.88a1.42,1.42,0,0,0,1-.42,1.44,1.44,0,0,0,0-2.05,1.44,1.44,0,0,0-2.46,1,1.42,1.42,0,0,0,.42,1A1.36,1.36,0,0,0,246.21,701.25Z"/><path class="cls-11" d="M254,715.29V704.16h2v2.09a3.78,3.78,0,0,1,3.49-2.34,5.13,5.13,0,0,1,.65.05v1.89a2.92,2.92,0,0,0-.93-.18q-1.92,0-3.21,2.28v7.34Z"/><path class="cls-11" d="M263.12,711.24v-.55a5.46,5.46,0,0,1,1.51-3.68l.64-.75a5.2,5.2,0,0,0,1.61-3,1.69,1.69,0,0,0-.7-1.44,3.09,3.09,0,0,0-1.91-.54,8.51,8.51,0,0,0-3.33.76V700.3a12.29,12.29,0,0,1,3.54-.57,5.4,5.4,0,0,1,3.33.93A3,3,0,0,1,269,703.2a3.14,3.14,0,0,1-.36,1.55,7,7,0,0,1-1.36,1.61l-.63.6a5.77,5.77,0,0,0-1.25,1.51,3.72,3.72,0,0,0-.3,1.64v1.13Zm0,4v-2h2v2Z"/><path class="cls-11" d="M272,711.24l-.26-8.09v-3h2v3l-.24,8.09Zm-.26,4v-2h2v2Z"/><path class="cls-11" d="M72.46,740.49V725.31h5a10.81,10.81,0,0,1,3.65.51,5.56,5.56,0,0,1,2.4,1.7,7.49,7.49,0,0,1,1.61,5,8.1,8.1,0,0,1-2,5.87,7.43,7.43,0,0,1-5.63,2.08Zm2.15-1.61h2.76c2,0,3.36-.53,4.18-1.59a7.13,7.13,0,0,0,1.33-4.54,6.28,6.28,0,0,0-1.31-4.21,4,4,0,0,0-1.88-1.27,11.72,11.72,0,0,0-3.3-.35H74.61Z"/><path class="cls-11" d="M96.41,740.13a12.31,12.31,0,0,1-3.47.62,5.3,5.3,0,0,1-4-1.64,5.92,5.92,0,0,1-1.55-4.24,6.16,6.16,0,0,1,1.37-4.15,4.38,4.38,0,0,1,3.5-1.62,3.72,3.72,0,0,1,3.12,1.43,6.57,6.57,0,0,1,1.1,4.09v.62h-7c.29,2.65,1.59,4,3.88,4a9.28,9.28,0,0,0,3.1-.68Zm-6.89-6.41h4.91c0-2.07-.77-3.1-2.31-3.1S89.7,731.65,89.52,733.72Z"/><path class="cls-11" d="M103.29,740.75a3.25,3.25,0,0,1-2.4-.88,3.4,3.4,0,0,1-.86-2.46v-6.54H98.64v-1.51H100v-2l2-.19v2.22H105v1.51h-2.91V737q0,2.19,1.89,2.19a4.33,4.33,0,0,0,1-.13v1.39A6.28,6.28,0,0,1,103.29,740.75Z"/><path class="cls-11" d="M122.61,740.13a12.31,12.31,0,0,1-3.48.62,5.29,5.29,0,0,1-4-1.64,5.88,5.88,0,0,1-1.55-4.24,6.16,6.16,0,0,1,1.37-4.15,4.38,4.38,0,0,1,3.5-1.62,3.73,3.73,0,0,1,3.12,1.43,6.64,6.64,0,0,1,1.1,4.09v.62h-7c.29,2.65,1.59,4,3.88,4a9.33,9.33,0,0,0,3.1-.68Zm-6.89-6.41h4.91c0-2.07-.77-3.1-2.32-3.1S115.9,731.65,115.72,733.72Z"/><path class="cls-11" d="M126.15,740.49V729.36h2v2.09a3.77,3.77,0,0,1,3.48-2.34,5,5,0,0,1,.65,0v1.89a2.91,2.91,0,0,0-.92-.18q-1.92,0-3.21,2.28v7.34Z"/><path class="cls-11" d="M141.39,740.49V729.36h2v2.09a4.36,4.36,0,0,1,3.79-2.34,3,3,0,0,1,3,2.34A4.28,4.28,0,0,1,154,729.1a3,3,0,0,1,2.28.86,3.43,3.43,0,0,1,.81,2.43v8.1h-2v-7.78c0-1.27-.5-1.91-1.5-1.91s-2.15.74-3.3,2.23v7.46h-2v-7.78q0-1.92-1.53-1.92c-1,0-2.11.75-3.27,2.24v7.46Z"/><path class="cls-11" d="M169.15,740.13a12.31,12.31,0,0,1-3.47.62,5.31,5.31,0,0,1-4-1.64,5.92,5.92,0,0,1-1.55-4.24,6.22,6.22,0,0,1,1.37-4.15,4.38,4.38,0,0,1,3.5-1.62,3.71,3.71,0,0,1,3.12,1.43,6.57,6.57,0,0,1,1.1,4.09v.62h-7q.44,4,3.89,4a9.28,9.28,0,0,0,3.09-.68Zm-6.89-6.41h4.91c0-2.07-.77-3.1-2.31-3.1S162.44,731.65,162.26,733.72Z"/><path class="cls-11" d="M172.73,744.19l.24-1.75a8.08,8.08,0,0,0,3.45.83q3.42,0,3.42-3.62V737.9a3.79,3.79,0,0,1-3.67,2.33,3.86,3.86,0,0,1-3.18-1.45,6,6,0,0,1-1.18-3.93,6.26,6.26,0,0,1,1.34-4.14,4.33,4.33,0,0,1,3.48-1.6,4.17,4.17,0,0,1,3.21,1.52v-1.27h2v8.1a20.15,20.15,0,0,1-.27,3.87,4.41,4.41,0,0,1-1,2,5.42,5.42,0,0,1-4.12,1.41A11.66,11.66,0,0,1,172.73,744.19Zm7.11-7.56V732a4,4,0,0,0-2.9-1.38,2.55,2.55,0,0,0-2.19,1.11,5.3,5.3,0,0,0-.79,3.07q0,3.66,2.58,3.66A4.36,4.36,0,0,0,179.84,736.63Z"/><path class="cls-11" d="M191.53,739.08a5.33,5.33,0,0,1-3.5,1.67,3.21,3.21,0,0,1-2.3-.87,2.89,2.89,0,0,1-.91-2.19,3.12,3.12,0,0,1,1.53-2.8,8.15,8.15,0,0,1,4.4-1h.48v-1.35a1.73,1.73,0,0,0-2-1.93,7.52,7.52,0,0,0-3.46,1v-1.67a10.31,10.31,0,0,1,3.83-.83,3.88,3.88,0,0,1,2.75.84,3.45,3.45,0,0,1,.89,2.61v5.05c0,1.15.35,1.73,1.07,1.73a2.51,2.51,0,0,0,.39,0l.14,1.12a3.46,3.46,0,0,1-1.52.33C192.39,740.75,191.79,740.19,191.53,739.08Zm-.3-1.1V735.1l-.68,0a5.06,5.06,0,0,0-2.68.63,1.88,1.88,0,0,0-1,1.65,1.64,1.64,0,0,0,.51,1.23,1.72,1.72,0,0,0,1.25.51A4.23,4.23,0,0,0,191.23,738Z"/><path class="cls-11" d="M206.44,730.87v9.62h-2v-9.62h-1.58v-1.51h1.58V728q0-4,3.63-4a9.48,9.48,0,0,1,2.3.34V726a7.83,7.83,0,0,0-2.18-.42,1.62,1.62,0,0,0-1.36.48,3.12,3.12,0,0,0-.36,1.77v1.55h2.77v1.51Z"/><path class="cls-11" d="M211.75,740.49V729.36h2v2.09a3.77,3.77,0,0,1,3.48-2.34,5,5,0,0,1,.65,0v1.89a2.91,2.91,0,0,0-.92-.18q-1.92,0-3.21,2.28v7.34Z"/><path class="cls-11" d="M226.62,738.51a5.48,5.48,0,0,1-4,2.24,3.19,3.19,0,0,1-2.3-.87,2.89,2.89,0,0,1-.91-2.19,3.12,3.12,0,0,1,1.53-2.8,8.11,8.11,0,0,1,4.39-1h.49v-1.35a2,2,0,0,0-.5-1.45,2.07,2.07,0,0,0-1.49-.48,7.52,7.52,0,0,0-3.46,1v-1.67a10.27,10.27,0,0,1,3.83-.83,4,4,0,0,1,3.14,1.24,4.25,4.25,0,0,1,3.11-1.24,3.65,3.65,0,0,1,3.21,1.53,8,8,0,0,1,1.08,4.6h-6.89a4.72,4.72,0,0,0,1.07,3,3.46,3.46,0,0,0,2.67,1,8.07,8.07,0,0,0,3.15-.73v1.61a11.94,11.94,0,0,1-3.69.64,5.61,5.61,0,0,1-2.56-.56A4.69,4.69,0,0,1,226.62,738.51Zm-.83-.53V735.1l-.68,0a5.1,5.1,0,0,0-2.69.63,1.88,1.88,0,0,0-1,1.65,1.64,1.64,0,0,0,.51,1.23,1.71,1.71,0,0,0,1.25.51A4.26,4.26,0,0,0,225.79,738Zm2.09-4.13h4.67a4.29,4.29,0,0,0-.55-2.42,1.84,1.84,0,0,0-1.64-.81,2.06,2.06,0,0,0-1.74.81A4.53,4.53,0,0,0,227.88,733.85Z"/><path class="cls-11" d="M238.21,740.49V724.3h2v10.46l4.72-5.4h2.17l-4.5,5.19,5.44,5.94h-2.59l-5.24-5.71v5.71Z"/><path class="cls-11" d="M253.83,740.75a3.22,3.22,0,0,1-2.4-.88,3.4,3.4,0,0,1-.86-2.46v-6.54h-1.4v-1.51h1.4v-2l2-.19v2.22h2.91v1.51h-2.91V737q0,2.19,1.89,2.19a4.33,4.33,0,0,0,1-.13v1.39A6.28,6.28,0,0,1,253.83,740.75Z"/><path class="cls-11" d="M258.88,736.44l-.25-8.09v-3h2v3l-.25,8.09Zm-.25,4v-2h2v2Z"/><circle class="cls-8" cx="42.5" cy="797.5" r="5"/><circle class="cls-8" cx="27.5" cy="797.5" r="5"/><circle class="cls-8" cx="27.5" cy="812.5" r="5"/><circle class="cls-8" cx="42.5" cy="812.5" r="5"/><path class="cls-8" d="M80,818.31l20.58.39a5.73,5.73,0,0,0,5.82-5.6l.21-11.58a5.73,5.73,0,0,0-4.49-5.68,5.6,5.6,0,0,1-2.19-1l-3.09-2.35a5,5,0,0,0-3-1H87.6a3.83,3.83,0,0,0-2,.58l-4.08,2.57a5.51,5.51,0,0,1-2,.74,5.72,5.72,0,0,0-4.84,5.53l-.22,11.58A5.73,5.73,0,0,0,80,818.31Z"/><circle class="cls-8" cx="90.5" cy="806.5" r="7"/><path class="cls-11" d="M90.5,800.5a6,6,0,1,1-6,6,6,6,0,0,1,6-6m0-2a8,8,0,1,0,8,8,8,8,0,0,0-8-8Z"/><path class="cls-8" d="M154.83,794.5a1.69,1.69,0,0,1,1.67,1.67v17.66a1.69,1.69,0,0,1-1.67,1.67H137.17a1.69,1.69,0,0,1-1.67-1.67V796.17a1.69,1.69,0,0,1,1.67-1.67h17.66m0-3H137.17a4.68,4.68,0,0,0-4.67,4.67v17.66a4.68,4.68,0,0,0,4.67,4.67h17.66a4.68,4.68,0,0,0,4.67-4.67V796.17a4.68,4.68,0,0,0-4.67-4.67Z"/><path class="cls-8" d="M142.5,805.5h5c3,0,11,5,11,8l-1-1.5a5.51,5.51,0,0,1-5.5,5.5H139a5.51,5.51,0,0,1-5.5-5.5v-.5C133.5,808.47,139.47,805.5,142.5,805.5Z"/><circle class="cls-8" cx="140.5" cy="799.5" r="3"/><line class="cls-12" x1="195" y1="819" x2="206" y2="819"/><path class="cls-12" d="M191,805s9,21,20,0"/><rect class="cls-8" x="195" y="790.5" width="11.5" height="20.5" rx="5"/><rect class="cls-13" x="235" y="784" width="163" height="43" rx="20.48"/><line class="cls-12" x1="248" y1="791" x2="248" y2="818"/><path class="cls-3" d="M264.38,812l-1.95-5h-6.3l-1.93,5h-1.85l6.21-15.77h1.54L266.27,812Zm-2.52-6.64L260,800.5c-.24-.61-.48-1.37-.73-2.26a19.77,19.77,0,0,1-.68,2.26l-1.84,4.87Z"/><path class="cls-3" d="M275.4,812l-.35-1.68H275a4.88,4.88,0,0,1-1.75,1.5,5.43,5.43,0,0,1-2.19.39,3.92,3.92,0,0,1-2.74-.9,3.27,3.27,0,0,1-1-2.57c0-2.38,1.9-3.62,5.71-3.74l2-.06v-.73a3,3,0,0,0-.59-2.05,2.47,2.47,0,0,0-1.91-.66,7.79,7.79,0,0,0-3.33.9l-.55-1.36a8.64,8.64,0,0,1,4-1,4.51,4.51,0,0,1,3.12.93,3.91,3.91,0,0,1,1,3v8Zm-4-1.26a3.61,3.61,0,0,0,2.61-.91,3.4,3.4,0,0,0,.95-2.56v-1.06l-1.78.07a6.51,6.51,0,0,0-3.07.66,2,2,0,0,0-.94,1.82,1.86,1.86,0,0,0,.59,1.48A2.45,2.45,0,0,0,271.38,810.75Z"/><ellipse class="cls-8" cx="378.5" cy="805.25" rx="15" ry="14.75"/><ellipse class="cls-11" cx="373.75" cy="802.5" rx="1.75" ry="2.5"/><ellipse class="cls-11" cx="383.75" cy="802.5" rx="1.75" ry="2.5"/><path class="cls-14" d="M371.5,811.5s8,6,14,0"/><path class="cls-8" d="M430,815v-9.73a3.55,3.55,0,0,1,.81-2.25l3.08-3.69a6.1,6.1,0,0,0,1.36-3.22,24.79,24.79,0,0,0,0-6,1.14,1.14,0,0,1,1-1.34c2.18-.16,6.19.88,4.71,11.26,0,0,13,0,9,5,0,0,3,4,0,6a3.1,3.1,0,0,1-2,4s3,3-8,4S430,815,430,815Z"/><path class="cls-8" d="M425.24,804h1.06a1.71,1.71,0,0,1,1.71,1.71v12.59a1.71,1.71,0,0,1-1.71,1.71h-1a3.22,3.22,0,0,1-3.22-3.22v-9.63a3.16,3.16,0,0,1,3.16-3.16Z"/></g><g id="Dreng"><ellipse class="cls-15" cx="30.11" cy="734.95" rx="16.61" ry="16.69"/><rect class="cls-16" x="26.87" y="734.1" width="7.22" height="8.72" rx="3.61"/><ellipse class="cls-17" cx="30.11" cy="733.39" rx="6.33" ry="7.12"/><ellipse class="cls-18" cx="32.84" cy="727.84" rx="2.4" ry="5.28" transform="translate(-652.58 480.81) rotate(-67.6)"/><ellipse class="cls-18" cx="26.91" cy="727.84" rx="5.25" ry="2.4" transform="translate(-301.11 77.55) rotate(-24.65)"/><path class="cls-19" d="M18,746.49a16.55,16.55,0,0,0,24.26-.29v-3.12a4.61,4.61,0,0,0-4.59-4.61H22.61A4.61,4.61,0,0,0,18,743.08Z"/><circle class="cls-15" cx="93.56" cy="62.71" r="23.79"/><rect class="cls-16" x="88.93" y="61.5" width="10.35" height="12.44" rx="5.17"/><ellipse class="cls-17" cx="93.56" cy="60.49" rx="9.07" ry="10.15"/><ellipse class="cls-18" cx="97.49" cy="52.57" rx="3.43" ry="7.55" transform="translate(11.93 122.91) rotate(-67.76)"/><ellipse class="cls-18" cx="88.99" cy="52.58" rx="7.51" ry="3.43" transform="translate(-13.79 41.59) rotate(-24.47)"/><path class="cls-19" d="M76.24,79.15A23.79,23.79,0,0,0,111,78.74V74.3a6.6,6.6,0,0,0-6.58-6.58H82.82a6.6,6.6,0,0,0-6.58,6.58Z"/></g></svg>