<svg xmlns="http://www.w3.org/2000/svg" width="473" height="839" viewBox="0 0 473 839"><defs><style>.cls-1,.cls-11{fill:#fff;}.cls-1,.cls-7{stroke:#000;}.cls-1,.cls-12,.cls-14,.cls-5,.cls-7{stroke-miterlimit:10;}.cls-1,.cls-12,.cls-14,.cls-5{stroke-width:3px;}.cls-1{opacity:0.65;}.cls-12,.cls-14,.cls-2,.cls-5,.cls-7{fill:none;}.cls-12,.cls-2{stroke:#29a9e0;}.cls-12,.cls-14,.cls-2,.cls-5{stroke-linecap:round;}.cls-2{stroke-linejoin:round;stroke-width:4px;}.cls-3{fill:#b1b1b1;}.cls-4{fill:#4d4d4d;}.cls-5{stroke:#666;}.cls-6{fill:#666;}.cls-8{fill:#29a9e0;}.cls-9{fill:#979797;}.cls-10{fill:#cacaca;}.cls-13{fill:#e4e4e4;}.cls-14{stroke:#fff;}.cls-15{fill:#65c0db;}.cls-16{fill:#e8c77e;}.cls-17{fill:#bc7777;}.cls-18{fill:#e85ddb;}</style></defs><title>besked 3</title><g id="Layer_1" data-name="Layer 1"><rect class="cls-1" x="1.5" y="1.5" width="470" height="836"/><polyline class="cls-2" points="39.5 71.5 27.5 59.5 39.5 47.5"/><rect class="cls-3" x="26.5" y="8.5" width="4" height="12" rx="2"/><rect class="cls-3" x="20.5" y="10.5" width="4" height="10" rx="2"/><rect class="cls-4" x="14.5" y="12.5" width="4" height="8" rx="2"/><rect class="cls-4" x="8.5" y="14.5" width="4" height="6" rx="2"/><path d="M39,19.71H37.77v-9.6H34.38V9h8v1.1H39Z"/><path d="M50,19.71H44V9h6v1.1H45.26v3.45H49.7v1.1H45.26V18.6H50Z"/><path d="M52.36,19.71V9h1.25v9.58h4.72v1.12Z"/><path d="M64.88,19.71l-3.63-9.49h-.06c.07.75.11,1.65.11,2.68v6.81H60.15V9H62l3.39,8.83h.06L68.89,9h1.86v10.7H69.51v-6.9c0-.79,0-1.65.1-2.57h-.06l-3.66,9.47Z"/><path d="M83,14.35a5.87,5.87,0,0,1-1.3,4,5.24,5.24,0,0,1-7.26,0,5.91,5.91,0,0,1-1.29-4.08,5.86,5.86,0,0,1,1.29-4.05,4.66,4.66,0,0,1,3.66-1.44,4.6,4.6,0,0,1,3.61,1.46A5.93,5.93,0,0,1,83,14.35Zm-8.53,0a5,5,0,0,0,.93,3.29,3.78,3.78,0,0,0,5.38,0,5.19,5.19,0,0,0,.9-3.3,5.11,5.11,0,0,0-.9-3.28A3.23,3.23,0,0,0,78.08,10a3.29,3.29,0,0,0-2.7,1.13A5,5,0,0,0,74.45,14.35Z"/><path d="M86.62,15.26v4.45H85.37V9h2.94a4.65,4.65,0,0,1,2.91.75A2.72,2.72,0,0,1,92.16,12,2.84,2.84,0,0,1,90,14.9l2.9,4.81H91.44l-2.59-4.45Zm0-1.07h1.7a3,3,0,0,0,1.94-.52,2,2,0,0,0,.61-1.57,1.8,1.8,0,0,0-.62-1.53,3.36,3.36,0,0,0-2-.47H86.62Z"/><path d="M100.61,19.71h-6V9h6v1.1H95.89v3.45h4.44v1.1H95.89V18.6h4.72Z"/><path class="cls-5" d="M114.5,11.5s6-6,14,0"/><path class="cls-5" d="M117.5,14.5s3.32-3.75,7.75,0"/><path class="cls-6" d="M121.5,19.5h0a8.26,8.26,0,0,1-2-2v-.75a.41.41,0,0,1,.23-.36h0a3.94,3.94,0,0,1,3.54,0h0a.41.41,0,0,1,.23.36v.75A8.26,8.26,0,0,1,121.5,19.5Z"/><path d="M224.31,19.64h-1.19V12q0-.94.06-1.8l-.34.32L221.09,12l-.64-.83,2.83-2.19h1Z"/><path d="M235.92,17.18h-1.58v2.46h-1.17V17.18H228V16.12l5.09-7.24h1.29v7.2h1.58Zm-2.75-1.1V12.52c0-.7,0-1.49.07-2.37h-.05q-.36.7-.66,1.17l-3.35,4.76Z"/><path d="M237.34,18.87a1.1,1.1,0,0,1,.22-.75.83.83,0,0,1,.64-.25.91.91,0,0,1,.67.25,1.1,1.1,0,0,1,.23.75,1,1,0,0,1-.24.73.94.94,0,0,1-1.28,0A1,1,0,0,1,237.34,18.87Z"/><path d="M245.45,19.64h-1.18V12q0-.94.06-1.8l-.35.32L242.24,12l-.65-.83,2.84-2.19h1Z"/><path d="M256.56,19.64h-7v-1l2.82-2.84A19.88,19.88,0,0,0,254,13.9a4.65,4.65,0,0,0,.62-1.08,3,3,0,0,0,.21-1.14,1.84,1.84,0,0,0-.52-1.36,2,2,0,0,0-1.45-.5,3.79,3.79,0,0,0-1.26.22,5,5,0,0,0-1.33.8l-.64-.83a4.92,4.92,0,0,1,3.22-1.23,3.42,3.42,0,0,1,2.36.77,2.68,2.68,0,0,1,.86,2.08,4.05,4.05,0,0,1-.57,2,12.56,12.56,0,0,1-2.14,2.51l-2.34,2.3v.06h5.5Z"/><rect x="434.5" y="9.5" width="19" height="10" rx="1.99"/><rect class="cls-7" x="433" y="8.25" width="27" height="12.5" rx="1.99"/><path d="M461.5,11.5s2.74,2.65,0,5"/><path d="M395.36,15.14a7.61,7.61,0,0,1,1.22-4.72,4.32,4.32,0,0,1,3.63-1.57,5,5,0,0,1,1.31.14v1a4.28,4.28,0,0,0-1.29-.18,3.23,3.23,0,0,0-2.63,1.07,5.47,5.47,0,0,0-1,3.37h.09A2.81,2.81,0,0,1,399.24,13a3,3,0,0,1,2.27.87,3.26,3.26,0,0,1,.83,2.37,3.62,3.62,0,0,1-.91,2.62,3.24,3.24,0,0,1-2.46,1,3.18,3.18,0,0,1-2.64-1.25A5.51,5.51,0,0,1,395.36,15.14ZM399,18.83a2,2,0,0,0,1.62-.66,2.79,2.79,0,0,0,.57-1.89,2.46,2.46,0,0,0-.53-1.67A2,2,0,0,0,399,14a2.72,2.72,0,0,0-1.21.27,2.26,2.26,0,0,0-.87.75,1.73,1.73,0,0,0-.33,1,3.44,3.44,0,0,0,.29,1.4,2.55,2.55,0,0,0,.84,1A2.06,2.06,0,0,0,399,18.83Z"/><path d="M405.16,19.71l4.44-9.58h-5.84V9h7.13v1l-4.38,9.73Z"/><path d="M420.68,12.2a4.66,4.66,0,0,1-.56,2.52,1.87,1.87,0,0,1-1.65.86,1.79,1.79,0,0,1-1.59-.88,4.56,4.56,0,0,1-.57-2.5,4.63,4.63,0,0,1,.55-2.51,1.79,1.79,0,0,1,1.61-.84,1.83,1.83,0,0,1,1.63.87A4.44,4.44,0,0,1,420.68,12.2Zm-3.36,0a5,5,0,0,0,.27,1.87.92.92,0,0,0,.88.62q1.2,0,1.2-2.49c0-1.65-.4-2.48-1.2-2.48a.92.92,0,0,0-.88.62A4.87,4.87,0,0,0,417.32,12.2ZM425.24,9l-5.94,10.7h-1.08L424.16,9Zm1.89,7.48a4.66,4.66,0,0,1-.56,2.52,1.85,1.85,0,0,1-1.65.85,1.8,1.8,0,0,1-1.6-.87,4.65,4.65,0,0,1-.56-2.5,4.66,4.66,0,0,1,.55-2.5,1.78,1.78,0,0,1,1.61-.85,1.87,1.87,0,0,1,1.63.86A4.54,4.54,0,0,1,427.13,16.49Zm-3.36,0a4.89,4.89,0,0,0,.27,1.87.9.9,0,0,0,.88.62,1,1,0,0,0,.91-.61,4.49,4.49,0,0,0,.29-1.88,4.45,4.45,0,0,0-.29-1.86,1,1,0,0,0-.91-.6.91.91,0,0,0-.88.6A4.87,4.87,0,0,0,423.77,16.49Z"/><rect class="cls-8" x="417.5" y="47.5" width="24" height="24" rx="6.42"/><path class="cls-8" d="M446.59,53.82l2.7-1.16a2,2,0,0,1,2.76,1.82v9a2,2,0,0,1-2.82,1.86L446.06,64A3.46,3.46,0,0,1,444,60.76V57.82A4.36,4.36,0,0,1,446.59,53.82Z"/><path class="cls-8" d="M374.8,64.81C372.87,64,370.24,62.1,368,58a5,5,0,0,1,.6-5.52c.76-.94,1.32-2,.87-2.94-1-2-4-5-5-5s-7,2-5,8,7.77,17.55,21.21,20.82a5,5,0,0,0,1.8.1c1.85-.24,6-1.92,5-4.92-1.41-4.24-2-4-4.55-5.26-.62-.31-1.37.22-2,.53l-1.83.91C377.5,66.5,376.19,65.41,374.8,64.81Z"/><path class="cls-9" d="M132.76,77.25l-1.33-3.41h-4.3l-1.31,3.41h-1.26l4.23-10.76h1.05l4.21,10.76ZM131,72.72l-1.25-3.32c-.16-.42-.32-.93-.5-1.54a12.27,12.27,0,0,1-.46,1.54l-1.26,3.32Z"/><path class="cls-9" d="M138.54,77.39a3.38,3.38,0,0,1-2.69-1.07,4.42,4.42,0,0,1-1-3,4.53,4.53,0,0,1,1-3.11,3.51,3.51,0,0,1,2.77-1.1,5,5,0,0,1,1.15.13,3.75,3.75,0,0,1,.91.29l-.37,1a8.36,8.36,0,0,0-.88-.27,4,4,0,0,0-.84-.1c-1.63,0-2.45,1-2.45,3.12a3.7,3.7,0,0,0,.6,2.27,2.05,2.05,0,0,0,1.77.79,5.35,5.35,0,0,0,2-.43V77A4.47,4.47,0,0,1,138.54,77.39Z"/><path class="cls-9" d="M145.07,76.39a4.1,4.1,0,0,0,.62,0,3,3,0,0,0,.48-.1v.93a2,2,0,0,1-.58.16,4.6,4.6,0,0,1-.69.06c-1.56,0-2.33-.82-2.33-2.45V70.16h-1.15v-.58l1.15-.51.51-1.71h.7v1.86h2.33v.94h-2.33v4.73a1.62,1.62,0,0,0,.35,1.11A1.19,1.19,0,0,0,145.07,76.39Z"/><path class="cls-9" d="M147.67,67a.81.81,0,0,1,.21-.61.69.69,0,0,1,.51-.19.68.68,0,0,1,.5.2.75.75,0,0,1,.22.6.8.8,0,0,1-.22.62.72.72,0,0,1-.5.2.69.69,0,0,1-.51-.2A.83.83,0,0,1,147.67,67ZM149,77.25h-1.22v-8H149Z"/><path class="cls-9" d="M153.33,77.25l-3.05-8h1.3L153.31,74c.39,1.11.62,1.84.69,2.17h.06a14.11,14.11,0,0,1,.51-1.61c.28-.81.92-2.59,1.92-5.32h1.3l-3,8Z"/><path class="cls-9" d="M162.47,77.39a3.71,3.71,0,0,1-2.81-1.08,4.22,4.22,0,0,1-1-3,4.66,4.66,0,0,1,1-3.09,3.18,3.18,0,0,1,2.57-1.14,3,3,0,0,1,2.39,1,3.85,3.85,0,0,1,.87,2.62v.77H159.9a3.19,3.19,0,0,0,.71,2.15,2.47,2.47,0,0,0,1.91.73,6.47,6.47,0,0,0,2.56-.54v1.08a6.18,6.18,0,0,1-1.22.4A6.84,6.84,0,0,1,162.47,77.39Zm-.33-7.3a2,2,0,0,0-1.54.63,2.93,2.93,0,0,0-.68,1.74h4.2a2.7,2.7,0,0,0-.51-1.76A1.8,1.8,0,0,0,162.14,70.09Z"/><path class="cls-9" d="M176.89,77.25v-5.2a2.08,2.08,0,0,0-.45-1.46,1.83,1.83,0,0,0-1.4-.49,2.28,2.28,0,0,0-1.84.69,3.42,3.42,0,0,0-.59,2.24v4.22h-1.22v-8h1l.2,1.1h.06a2.48,2.48,0,0,1,1.05-.92,3.37,3.37,0,0,1,1.5-.33,3.09,3.09,0,0,1,2.18.7A3,3,0,0,1,178.1,72v5.24Z"/><path class="cls-9" d="M187.53,73.23a4.42,4.42,0,0,1-1,3.06,3.46,3.46,0,0,1-2.73,1.1,3.65,3.65,0,0,1-1.91-.5,3.32,3.32,0,0,1-1.29-1.45,5.1,5.1,0,0,1-.46-2.21,4.4,4.4,0,0,1,1-3.06,3.84,3.84,0,0,1,5.4,0A4.43,4.43,0,0,1,187.53,73.23Zm-6.12,0a3.81,3.81,0,0,0,.62,2.34,2.45,2.45,0,0,0,3.62,0,4.71,4.71,0,0,0,0-4.67,2.47,2.47,0,0,0-3.63,0A3.8,3.8,0,0,0,181.41,73.23Z"/><path class="cls-9" d="M196.22,77.25l-1.48-4.71c-.09-.29-.26-1-.52-2h-.05c-.2.86-.37,1.52-.52,2l-1.51,4.7h-1.41l-2.19-8h1.27c.52,2,.92,3.55,1.19,4.61a18.32,18.32,0,0,1,.46,2.13h.06c0-.28.14-.64.26-1.08s.22-.8.31-1l1.47-4.61h1.32l1.44,4.61a16.55,16.55,0,0,1,.56,2.11h.05c0-.17.08-.44.16-.81s.6-2.34,1.53-5.91h1.26l-2.22,8Z"/><path d="M136.15,58.16,135,54.42h-5.73l-1.14,3.74h-3.58l5.54-15.77h4.07l5.56,15.77Zm-1.94-6.53c-1.05-3.39-1.64-5.3-1.77-5.75s-.23-.79-.29-1.05c-.24.92-.91,3.18-2,6.8Z"/><path d="M152.21,58.16h-3.28v-7a3.52,3.52,0,0,0-.44-1.95,1.51,1.51,0,0,0-1.37-.65,2,2,0,0,0-1.82.92,6.07,6.07,0,0,0-.57,3v5.65h-3.28v-12H144l.44,1.54h.18a3.33,3.33,0,0,1,1.4-1.3,4.5,4.5,0,0,1,2.09-.46c1.8,0,3,.58,3.65,1.76H152a3.24,3.24,0,0,1,1.43-1.3,4.69,4.69,0,0,1,2.12-.46,4.19,4.19,0,0,1,3.09,1,4.65,4.65,0,0,1,1,3.36v7.83h-3.28v-7A3.52,3.52,0,0,0,156,49.2a1.52,1.52,0,0,0-1.37-.65,2,2,0,0,0-1.8.86,4.84,4.84,0,0,0-.59,2.72Z"/><path d="M170.68,58.16l-.63-1.63H170a4.9,4.9,0,0,1-1.7,1.44,5.44,5.44,0,0,1-2.28.41,3.7,3.7,0,0,1-2.73-1,3.81,3.81,0,0,1-1-2.82,3.19,3.19,0,0,1,1.34-2.82,7.73,7.73,0,0,1,4-1l2.09-.07v-.52a1.64,1.64,0,0,0-1.87-1.83,8.56,8.56,0,0,0-3.39.87L163.38,47A9.79,9.79,0,0,1,168,45.9a5.67,5.67,0,0,1,3.7,1.06,3.89,3.89,0,0,1,1.29,3.2v8Zm-1-5.56-1.27,0a4.16,4.16,0,0,0-2.13.51,1.65,1.65,0,0,0-.7,1.44c0,.93.53,1.39,1.59,1.39a2.5,2.5,0,0,0,1.82-.66,2.27,2.27,0,0,0,.69-1.74Z"/><path d="M187.43,58.16h-3.28v-7a3.34,3.34,0,0,0-.46-1.95,1.67,1.67,0,0,0-1.47-.65,2.22,2.22,0,0,0-2,.91,5.71,5.71,0,0,0-.61,3v5.65h-3.28v-12h2.51l.44,1.54h.18A3.47,3.47,0,0,1,181,46.37a5.1,5.1,0,0,1,2.19-.44,4.16,4.16,0,0,1,3.17,1.13,4.5,4.5,0,0,1,1.09,3.27Z"/><path d="M194.61,58.38a3.9,3.9,0,0,1-3.33-1.65,7.57,7.57,0,0,1-1.21-4.55,7.59,7.59,0,0,1,1.23-4.61,4,4,0,0,1,3.39-1.64,3.9,3.9,0,0,1,3.46,1.76h.11a13.05,13.05,0,0,1-.25-2.4V41.45h3.29V58.16h-2.52l-.63-1.56H198A3.75,3.75,0,0,1,194.61,58.38Zm1.14-2.61A2.23,2.23,0,0,0,197.6,55a4.25,4.25,0,0,0,.64-2.48V52.2a4.88,4.88,0,0,0-.6-2.77,2.21,2.21,0,0,0-1.94-.84,1.91,1.91,0,0,0-1.7.93,4.91,4.91,0,0,0-.61,2.7,4.77,4.77,0,0,0,.61,2.66A2,2,0,0,0,195.75,55.77Z"/><path d="M212.35,58.16l-.63-1.63h-.09a4.9,4.9,0,0,1-1.7,1.44,5.47,5.47,0,0,1-2.28.41,3.7,3.7,0,0,1-2.73-1,3.81,3.81,0,0,1-1-2.82,3.19,3.19,0,0,1,1.34-2.82,7.73,7.73,0,0,1,4-1l2.08-.07v-.52a1.63,1.63,0,0,0-1.86-1.83,8.56,8.56,0,0,0-3.39.87L205.05,47a9.78,9.78,0,0,1,4.59-1.09A5.68,5.68,0,0,1,213.35,47a3.89,3.89,0,0,1,1.29,3.2v8Zm-1-5.56-1.26,0a4.13,4.13,0,0,0-2.13.51,1.62,1.62,0,0,0-.7,1.44c0,.93.53,1.39,1.59,1.39a2.5,2.5,0,0,0,1.82-.66,2.26,2.26,0,0,0,.68-1.74Z"/><path d="M239.28,58.16h-3.79l-2.13-8.25c-.08-.29-.21-.9-.4-1.82s-.3-1.54-.33-1.85c0,.38-.15,1-.32,1.86s-.3,1.47-.4,1.83l-2.11,8.23H226l-4-15.7h3.28l2,8.57c.35,1.58.61,2.95.77,4.11,0-.41.14-1,.29-1.89s.3-1.52.44-2l2.29-8.79h3.14l2.29,8.79c.1.4.23,1,.38,1.81s.26,1.5.34,2.08c.07-.56.19-1.25.34-2.09s.31-1.51.43-2l2-8.57h3.28Z"/><path d="M252.62,58.16,252,56.53h-.09A4.81,4.81,0,0,1,250.2,58a5.44,5.44,0,0,1-2.28.41,3.68,3.68,0,0,1-2.72-1,3.78,3.78,0,0,1-1-2.82,3.19,3.19,0,0,1,1.34-2.82,7.76,7.76,0,0,1,4-1l2.09-.07v-.52a1.64,1.64,0,0,0-1.87-1.83,8.56,8.56,0,0,0-3.39.87L245.32,47a9.79,9.79,0,0,1,4.6-1.09,5.67,5.67,0,0,1,3.7,1.06,3.89,3.89,0,0,1,1.29,3.2v8Zm-1-5.56-1.27,0a4.16,4.16,0,0,0-2.13.51,1.65,1.65,0,0,0-.7,1.44c0,.93.53,1.39,1.59,1.39a2.54,2.54,0,0,0,1.83-.66,2.3,2.3,0,0,0,.68-1.74Z"/><path d="M256.57,46.15h3.58l2.27,6.76a9.48,9.48,0,0,1,.4,2.08h.06a9.71,9.71,0,0,1,.46-2.08l2.23-6.76h3.51L264,59.7a5.9,5.9,0,0,1-2,2.81,5.07,5.07,0,0,1-3,.94,7.68,7.68,0,0,1-1.66-.19v-2.6a5.21,5.21,0,0,0,1.29.14,2.31,2.31,0,0,0,1.52-.53,3.43,3.43,0,0,0,1-1.6l.2-.6Z"/><rect class="cls-10" x="61.5" y="614.5" width="248" height="137" rx="18.79"/><path class="cls-11" d="M72.46,639.69V624.52h2.15v6.39h7.22v-6.39H84v15.17H81.83v-7.17H74.61v7.17Z"/><path class="cls-11" d="M96.11,639.33a12.31,12.31,0,0,1-3.47.62,5.31,5.31,0,0,1-4-1.64,5.92,5.92,0,0,1-1.55-4.24,6.22,6.22,0,0,1,1.37-4.15,4.38,4.38,0,0,1,3.5-1.62,3.71,3.71,0,0,1,3.12,1.43,6.57,6.57,0,0,1,1.11,4.09v.62h-7c.3,2.65,1.59,4,3.89,4a9.28,9.28,0,0,0,3.09-.68Zm-6.89-6.41h4.92c0-2.07-.78-3.1-2.32-3.1S89.4,630.85,89.22,632.92Z"/><path class="cls-11" d="M100.3,643.74l1.8-4-4.3-11.14H100l3.19,8.39,3.4-8.39h1.91l-6.08,15.19Z"/><path class="cls-11" d="M110.65,643v-.76c.66-.18,1-1,1-2.32v-.21h-1v-2.53h2.54v2.19Q113.19,642.73,110.65,643Z"/><path class="cls-11" d="M127.26,640a3.22,3.22,0,0,1-2.4-.88,3.35,3.35,0,0,1-.87-2.45v-6.55H122.6v-1.52H124v-2l2-.2v2.21h2.92v1.52H126v6.18c0,1.45.63,2.18,1.89,2.18a5.09,5.09,0,0,0,1-.13v1.39A6.41,6.41,0,0,1,127.26,640Z"/><path class="cls-11" d="M138,637.71a5.46,5.46,0,0,1-4,2.24,3.17,3.17,0,0,1-2.29-.87,2.9,2.9,0,0,1-.92-2.19,3.11,3.11,0,0,1,1.54-2.8,8.09,8.09,0,0,1,4.39-1h.48v-1.35a1.92,1.92,0,0,0-.5-1.45,2.05,2.05,0,0,0-1.49-.48,7.36,7.36,0,0,0-3.45,1v-1.67a10.22,10.22,0,0,1,3.82-.83,4.08,4.08,0,0,1,3.15,1.24,4.25,4.25,0,0,1,3.11-1.24,3.65,3.65,0,0,1,3.21,1.53,8,8,0,0,1,1.07,4.6h-6.89a4.84,4.84,0,0,0,1.08,3,3.48,3.48,0,0,0,2.66,1,8,8,0,0,0,3.15-.73v1.61a11.88,11.88,0,0,1-3.68.64,5.66,5.66,0,0,1-2.57-.56A4.76,4.76,0,0,1,138,637.71Zm-.83-.53V634.3l-.67,0a5.08,5.08,0,0,0-2.69.63,1.89,1.89,0,0,0-1,1.65,1.62,1.62,0,0,0,.52,1.23,1.69,1.69,0,0,0,1.25.51A4.23,4.23,0,0,0,137.21,637.18Zm2.09-4.13H144a4.29,4.29,0,0,0-.55-2.42,1.85,1.85,0,0,0-1.64-.81,2.06,2.06,0,0,0-1.74.81A4.53,4.53,0,0,0,139.3,633.05Z"/><path class="cls-11" d="M149.64,639.69V628.55h2v2.1a4.66,4.66,0,0,1,3.92-2.34,3,3,0,0,1,2.3.92,3.42,3.42,0,0,1,.87,2.46v8h-2v-7.34a3.24,3.24,0,0,0-.37-1.77,1.35,1.35,0,0,0-1.2-.53c-1.24,0-2.41.81-3.5,2.43v7.21Z"/><path class="cls-11" d="M162.67,639.69V623.5h2V634l4.72-5.41h2.17l-4.5,5.2,5.44,5.94h-2.59L164.69,634v5.71Z"/><path class="cls-11" d="M178.29,640a3.22,3.22,0,0,1-2.4-.88,3.39,3.39,0,0,1-.86-2.45v-6.55h-1.4v-1.52H175v-2l2-.2v2.21H180v1.52h-2.91v6.18c0,1.45.63,2.18,1.89,2.18a5,5,0,0,0,1-.13v1.39A6.28,6.28,0,0,1,178.29,640Z"/><path class="cls-11" d="M191,639.33a12.31,12.31,0,0,1-3.47.62,5.31,5.31,0,0,1-4-1.64,5.92,5.92,0,0,1-1.55-4.24,6.22,6.22,0,0,1,1.37-4.15,4.38,4.38,0,0,1,3.5-1.62,3.71,3.71,0,0,1,3.12,1.43,6.57,6.57,0,0,1,1.1,4.09v.62h-7q.44,4,3.89,4a9.28,9.28,0,0,0,3.09-.68Zm-6.89-6.41H189c0-2.07-.77-3.1-2.31-3.1S184.25,630.85,184.07,632.92Z"/><path class="cls-11" d="M201.15,643.74V628.55h2v2.1a4,4,0,0,1,3.72-2.34,3.8,3.8,0,0,1,3.16,1.47,6.29,6.29,0,0,1,1.15,4,7.12,7.12,0,0,1-1.3,4.46,4.33,4.33,0,0,1-6.73.18v5.31Zm2-6.7a4.61,4.61,0,0,0,3,1.39q2.91,0,2.91-4.44,0-3.91-2.58-3.92a4.47,4.47,0,0,0-3.3,1.84Z"/><path class="cls-11" d="M220.1,638.28a5.31,5.31,0,0,1-3.49,1.67,3.21,3.21,0,0,1-2.3-.87,2.89,2.89,0,0,1-.91-2.19,3.12,3.12,0,0,1,1.53-2.8,8.13,8.13,0,0,1,4.4-1h.48v-1.35a1.73,1.73,0,0,0-2-1.93,7.4,7.4,0,0,0-3.46,1v-1.67a10.27,10.27,0,0,1,3.83-.83,3.88,3.88,0,0,1,2.75.84,3.45,3.45,0,0,1,.89,2.61v5c0,1.15.35,1.73,1.06,1.73a2.31,2.31,0,0,0,.39,0l.15,1.12a3.49,3.49,0,0,1-1.52.33C221,640,220.36,639.39,220.1,638.28Zm-.29-1.1V634.3l-.68,0a5.1,5.1,0,0,0-2.69.63,1.88,1.88,0,0,0-1,1.65,1.64,1.64,0,0,0,.51,1.23,1.71,1.71,0,0,0,1.25.51A4.26,4.26,0,0,0,219.81,637.18Zm-1.63-10.64a2.19,2.19,0,0,1-1.63-.69,2.23,2.23,0,0,1-.67-1.64,2.33,2.33,0,0,1,4-1.65,2.32,2.32,0,0,1,0,3.3A2.28,2.28,0,0,1,218.18,626.54Zm0-.89a1.43,1.43,0,0,0,1-.42,1.46,1.46,0,0,0,0-2.05,1.42,1.42,0,0,0-1-.42,1.43,1.43,0,0,0-1.45,1.45,1.42,1.42,0,0,0,.42,1A1.38,1.38,0,0,0,218.19,625.65Z"/><path class="cls-11" d="M237,640a4.86,4.86,0,0,1-3.81-1.59,7,7,0,0,1,0-8.49,5.62,5.62,0,0,1,7.77,0,7,7,0,0,1,0,8.52A5.1,5.1,0,0,1,237,640Zm0-1.52q3.21,0,3.21-4.33c0-2.85-1-4.27-3.17-4.27s-3.15,1.43-3.15,4.29S234.91,638.43,237,638.43Z"/><path class="cls-11" d="M245.5,639.69V628.55h2v2.1a4.39,4.39,0,0,1,3.8-2.34,3,3,0,0,1,3,2.34,4.27,4.27,0,0,1,3.74-2.35,3,3,0,0,1,2.28.87,3.39,3.39,0,0,1,.81,2.42v8.1h-2v-7.78c0-1.27-.5-1.91-1.51-1.91s-2.14.74-3.29,2.23v7.46h-2v-7.78c0-1.28-.51-1.92-1.54-1.92s-2.1.75-3.27,2.24v7.46Z"/><path class="cls-11" d="M278.9,639.69V637.6a4,4,0,0,1-3.71,2.35,3.78,3.78,0,0,1-3.16-1.47,6.31,6.31,0,0,1-1.16-4,7.13,7.13,0,0,1,1.31-4.47,4.32,4.32,0,0,1,6.72-.17V623.5h2v16.19Zm0-8.48a4.65,4.65,0,0,0-3-1.38q-2.91,0-2.91,4.44c0,2.6.87,3.9,2.59,3.9a4.49,4.49,0,0,0,3.29-1.83Z"/><path class="cls-11" d="M291.93,639.69V637.6A4.67,4.67,0,0,1,288,640a3,3,0,0,1-2.32-.92,3.45,3.45,0,0,1-.86-2.48v-8h2v7.35a3.32,3.32,0,0,0,.36,1.78,1.37,1.37,0,0,0,1.22.52q1.85,0,3.48-2.43v-7.22h2v11.14Z"/><path class="cls-11" d="M72.52,664.89V653.76h2v2.09a4.66,4.66,0,0,1,3.92-2.34,3,3,0,0,1,2.3.92,3.42,3.42,0,0,1,.87,2.46v8h-2v-7.34a3.24,3.24,0,0,0-.37-1.77,1.35,1.35,0,0,0-1.2-.53c-1.24,0-2.41.81-3.5,2.43v7.21Z"/><path class="cls-11" d="M91.29,663.48a5.31,5.31,0,0,1-3.49,1.67,3.21,3.21,0,0,1-2.3-.87,2.89,2.89,0,0,1-.91-2.19,3.13,3.13,0,0,1,1.53-2.8,8.13,8.13,0,0,1,4.4-1H91V657A1.73,1.73,0,0,0,89,655a7.52,7.52,0,0,0-3.46,1v-1.67a10.27,10.27,0,0,1,3.83-.83,3.88,3.88,0,0,1,2.75.84A3.45,3.45,0,0,1,93,657v5c0,1.16.35,1.73,1.06,1.73a2.31,2.31,0,0,0,.39,0l.15,1.12a3.49,3.49,0,0,1-1.52.33C92.16,665.15,91.55,664.59,91.29,663.48Zm-.29-1.1V659.5l-.68,0a5.1,5.1,0,0,0-2.69.63,1.88,1.88,0,0,0-1,1.65,1.64,1.64,0,0,0,.51,1.23,1.71,1.71,0,0,0,1.25.51A4.26,4.26,0,0,0,91,662.38Zm-1.63-10.64a2.19,2.19,0,0,1-1.63-.69,2.23,2.23,0,0,1-.67-1.64,2.28,2.28,0,0,1,.68-1.65,2.33,2.33,0,0,1,3.29,0,2.32,2.32,0,0,1,0,3.3A2.28,2.28,0,0,1,89.37,651.74Zm0-.89a1.43,1.43,0,0,0,1-.42,1.46,1.46,0,0,0,0-2,1.42,1.42,0,0,0-1-.42A1.43,1.43,0,0,0,88,649.41a1.42,1.42,0,0,0,.42,1A1.38,1.38,0,0,0,89.38,650.85Z"/><path class="cls-11" d="M97.15,664.89V653.76h2v2.09a3.77,3.77,0,0,1,3.49-2.34,4.85,4.85,0,0,1,.64,0v1.89a2.86,2.86,0,0,0-.92-.18q-1.92,0-3.21,2.28v7.34Z"/><path class="cls-11" d="M114.69,664.89l-4.14-11.13h2l3.24,8.66,3.42-8.66h1.88l-4.4,11.13Z"/><path class="cls-11" d="M123.26,651.74v-2h2v2Zm0,13.15V653.76h2v11.13Z"/><path class="cls-11" d="M136,664.89V653.76h2v2.09a4.66,4.66,0,0,1,3.92-2.34,3,3,0,0,1,2.31.92,3.46,3.46,0,0,1,.86,2.46v8h-2v-7.34a3.15,3.15,0,0,0-.37-1.77,1.35,1.35,0,0,0-1.2-.53c-1.24,0-2.41.81-3.5,2.43v7.21Z"/><path class="cls-11" d="M156,664.89V662.8a4.67,4.67,0,0,1-3.91,2.35,3,3,0,0,1-2.32-.92,3.5,3.5,0,0,1-.86-2.48v-8h2v7.34a3.21,3.21,0,0,0,.37,1.78,1.35,1.35,0,0,0,1.21.52c1.23,0,2.39-.81,3.49-2.43v-7.21h2v11.13Z"/><path class="cls-11" d="M176.84,664.53a12.31,12.31,0,0,1-3.47.62,5.31,5.31,0,0,1-4-1.64,5.92,5.92,0,0,1-1.55-4.24,6.22,6.22,0,0,1,1.37-4.15,4.38,4.38,0,0,1,3.5-1.62,3.71,3.71,0,0,1,3.12,1.43,6.57,6.57,0,0,1,1.1,4.09v.62h-7q.44,4,3.89,4a9.28,9.28,0,0,0,3.09-.68ZM170,658.12h4.91c0-2.07-.77-3.1-2.31-3.1S170.13,656.05,170,658.12Z"/><path class="cls-11" d="M180.38,664.89V653.76h2v2.09a3.77,3.77,0,0,1,3.49-2.34,4.85,4.85,0,0,1,.64,0v1.89a2.86,2.86,0,0,0-.92-.18q-1.92,0-3.21,2.28v7.34Z"/><path class="cls-11" d="M198.57,665.15a11.22,11.22,0,0,1-3.36-.65v-1.85a8.07,8.07,0,0,0,3.44,1,2.23,2.23,0,0,0,1.45-.47,1.48,1.48,0,0,0,.57-1.18c0-.69-.53-1.26-1.61-1.71l-1.18-.51q-2.61-1.08-2.61-3.12a2.77,2.77,0,0,1,1-2.29,4.35,4.35,0,0,1,2.82-.84,12.12,12.12,0,0,1,2.31.26l.42.08v1.68a9.83,9.83,0,0,0-2.68-.5q-1.95,0-1.95,1.41c0,.61.49,1.12,1.47,1.54l1,.41a6.74,6.74,0,0,1,2.34,1.47,2.84,2.84,0,0,1,.68,1.93,2.94,2.94,0,0,1-1.16,2.41A4.53,4.53,0,0,1,198.57,665.15Z"/><path class="cls-11" d="M206.32,664.89V648.7h2v16.19Z"/><path class="cls-11" d="M218.14,663.48a5.33,5.33,0,0,1-3.5,1.67,3.21,3.21,0,0,1-2.3-.87,2.89,2.89,0,0,1-.91-2.19,3.13,3.13,0,0,1,1.53-2.8,8.13,8.13,0,0,1,4.4-1h.48V657a1.73,1.73,0,0,0-2-1.93,7.52,7.52,0,0,0-3.46,1v-1.67a10.27,10.27,0,0,1,3.83-.83,3.88,3.88,0,0,1,2.75.84,3.45,3.45,0,0,1,.89,2.61v5c0,1.16.35,1.73,1.06,1.73a2.31,2.31,0,0,0,.39,0l.15,1.12a3.49,3.49,0,0,1-1.52.33C219,665.15,218.4,664.59,218.14,663.48Zm-.3-1.1V659.5l-.68,0a5,5,0,0,0-2.68.63,1.88,1.88,0,0,0-1,1.65A1.64,1.64,0,0,0,214,663a1.71,1.71,0,0,0,1.25.51A4.26,4.26,0,0,0,217.84,662.38Zm-1.63-10.64a2.19,2.19,0,0,1-1.63-.69,2.23,2.23,0,0,1-.67-1.64,2.28,2.28,0,0,1,.68-1.65,2.33,2.33,0,0,1,3.29,0,2.32,2.32,0,0,1,0,3.3A2.28,2.28,0,0,1,216.21,651.74Zm0-.89a1.42,1.42,0,0,0,1-.42,1.45,1.45,0,0,0-1-2.47,1.41,1.41,0,0,0-1,.42,1.4,1.4,0,0,0-.42,1,1.42,1.42,0,0,0,.42,1A1.38,1.38,0,0,0,216.22,650.85Z"/><path class="cls-11" d="M232.15,664.53a12.31,12.31,0,0,1-3.47.62,5.31,5.31,0,0,1-4-1.64,5.92,5.92,0,0,1-1.55-4.24,6.22,6.22,0,0,1,1.37-4.15,4.38,4.38,0,0,1,3.5-1.62,3.71,3.71,0,0,1,3.12,1.43,6.57,6.57,0,0,1,1.1,4.09v.62h-7q.44,4,3.89,4a9.28,9.28,0,0,0,3.09-.68Zm-6.89-6.41h4.91c0-2.07-.77-3.1-2.31-3.1S225.44,656.05,225.26,658.12Z"/><path class="cls-11" d="M239,665.15a3.25,3.25,0,0,1-2.4-.88,3.4,3.4,0,0,1-.86-2.46v-6.54h-1.39v-1.51h1.39v-2l2-.2v2.22h2.91v1.51h-2.91v6.18c0,1.45.63,2.18,1.89,2.18a4.26,4.26,0,0,0,1-.13v1.39A6.28,6.28,0,0,1,239,665.15Z"/><path class="cls-11" d="M254.55,665.15a4.87,4.87,0,0,1-3.82-1.59,7,7,0,0,1,0-8.49,5.61,5.61,0,0,1,7.76,0,7.06,7.06,0,0,1,0,8.52A5.11,5.11,0,0,1,254.55,665.15Zm0-1.52q3.21,0,3.21-4.33T254.62,655q-3.17,0-3.16,4.29T254.58,663.63Z"/><path class="cls-11" d="M263.09,668.94V653.76h2v2.09a4,4,0,0,1,3.72-2.34A3.78,3.78,0,0,1,272,655a6.28,6.28,0,0,1,1.16,4,7.13,7.13,0,0,1-1.31,4.47,4.33,4.33,0,0,1-6.73.18v5.31Zm2-6.7a4.58,4.58,0,0,0,3,1.39q2.91,0,2.91-4.44,0-3.91-2.58-3.92a4.47,4.47,0,0,0-3.3,1.84Z"/><path class="cls-11" d="M72.52,690.09V673.9h2v10.46l4.72-5.4h2.17l-4.5,5.19,5.43,5.94H79.78l-5.24-5.71v5.71Z"/><path class="cls-11" d="M90.54,688.68a5.33,5.33,0,0,1-3.5,1.67,3.21,3.21,0,0,1-2.3-.87,2.89,2.89,0,0,1-.91-2.19,3.12,3.12,0,0,1,1.53-2.8,8.13,8.13,0,0,1,4.4-1h.48v-1.35a1.73,1.73,0,0,0-2-1.93,7.4,7.4,0,0,0-3.46,1v-1.67a10.27,10.27,0,0,1,3.83-.83,3.88,3.88,0,0,1,2.75.84,3.45,3.45,0,0,1,.89,2.61v5.05c0,1.16.35,1.73,1.07,1.73a2.31,2.31,0,0,0,.38,0l.15,1.12a3.49,3.49,0,0,1-1.52.33C91.4,690.35,90.8,689.79,90.54,688.68Zm-.3-1.1V684.7l-.68,0a5,5,0,0,0-2.68.63,1.88,1.88,0,0,0-1,1.65,1.64,1.64,0,0,0,.51,1.23,1.71,1.71,0,0,0,1.25.51A4.26,4.26,0,0,0,90.24,687.58Z"/><path class="cls-11" d="M96.39,690.09V679h2v2.09a4.66,4.66,0,0,1,3.92-2.34,3,3,0,0,1,2.31.92,3.46,3.46,0,0,1,.86,2.46v8h-2v-7.34a3.24,3.24,0,0,0-.37-1.77,1.35,1.35,0,0,0-1.2-.53c-1.24,0-2.41.81-3.5,2.43v7.21Z"/><path class="cls-11" d="M119,690.35a11.22,11.22,0,0,1-3.36-.65v-1.85a8.07,8.07,0,0,0,3.44,1,2.23,2.23,0,0,0,1.45-.47,1.48,1.48,0,0,0,.57-1.18c0-.69-.53-1.26-1.61-1.71l-1.18-.51q-2.61-1.08-2.61-3.12a2.8,2.8,0,0,1,1-2.3,4.42,4.42,0,0,1,2.83-.83,12.86,12.86,0,0,1,2.3.25l.42.09v1.68a9.83,9.83,0,0,0-2.68-.5q-2,0-2,1.41c0,.61.49,1.12,1.47,1.54l1,.41a6.46,6.46,0,0,1,2.34,1.47,2.84,2.84,0,0,1,.68,1.93A2.94,2.94,0,0,1,122,689.4,4.53,4.53,0,0,1,119,690.35Z"/><path class="cls-11" d="M126.77,690.09V673.9h2v16.19Z"/><path class="cls-11" d="M141,689.73a12.43,12.43,0,0,1-3.48.62,5.28,5.28,0,0,1-4-1.64,5.88,5.88,0,0,1-1.56-4.24,6.22,6.22,0,0,1,1.37-4.15,4.38,4.38,0,0,1,3.5-1.62,3.71,3.71,0,0,1,3.12,1.43,6.56,6.56,0,0,1,1.11,4.08v.63h-7c.3,2.65,1.59,4,3.89,4a9.38,9.38,0,0,0,3.1-.68Zm-6.89-6.41H139c0-2.07-.78-3.1-2.32-3.1S134.29,681.25,134.12,683.32Z"/><path class="cls-11" d="M147.89,690.35a3.18,3.18,0,0,1-2.4-.89,3.31,3.31,0,0,1-.86-2.45v-6.54h-1.4V679h1.4v-2l2-.2V679h2.91v1.51h-2.91v6.18c0,1.45.62,2.18,1.88,2.18a4.41,4.41,0,0,0,1-.13v1.39A6.41,6.41,0,0,1,147.89,690.35Z"/><path class="cls-11" d="M155.74,690.35a3.21,3.21,0,0,1-2.4-.89,3.35,3.35,0,0,1-.86-2.45v-6.54h-1.39V679h1.39v-2l2-.2V679h2.91v1.51H154.5v6.18c0,1.45.63,2.18,1.89,2.18a4.33,4.33,0,0,0,1-.13v1.39A6.28,6.28,0,0,1,155.74,690.35Z"/><path class="cls-11" d="M168.41,689.73a12.31,12.31,0,0,1-3.47.62,5.31,5.31,0,0,1-4-1.64,5.92,5.92,0,0,1-1.55-4.24,6.22,6.22,0,0,1,1.37-4.15,4.38,4.38,0,0,1,3.5-1.62,3.71,3.71,0,0,1,3.12,1.43,6.56,6.56,0,0,1,1.11,4.08v.63h-7c.3,2.65,1.59,4,3.89,4a9.28,9.28,0,0,0,3.09-.68Zm-6.89-6.41h4.92c0-2.07-.78-3.1-2.32-3.1S161.7,681.25,161.52,683.32Z"/><path class="cls-11" d="M185.74,690.09V688a4,4,0,0,1-3.71,2.35,3.8,3.8,0,0,1-3.16-1.47,6.31,6.31,0,0,1-1.16-4A7.13,7.13,0,0,1,179,680.4a4.32,4.32,0,0,1,6.72-.17V673.9h2v16.19Zm0-8.48a4.61,4.61,0,0,0-3-1.38q-2.9,0-2.9,4.44,0,3.9,2.58,3.9a4.49,4.49,0,0,0,3.29-1.83Z"/><path class="cls-11" d="M200,689.73a12.43,12.43,0,0,1-3.48.62,5.28,5.28,0,0,1-4-1.64,5.88,5.88,0,0,1-1.56-4.24,6.22,6.22,0,0,1,1.37-4.15,4.38,4.38,0,0,1,3.5-1.62,3.71,3.71,0,0,1,3.12,1.43,6.56,6.56,0,0,1,1.11,4.08v.63h-7c.3,2.65,1.59,4,3.89,4a9.38,9.38,0,0,0,3.1-.68Zm-6.89-6.41H198c0-2.07-.78-3.1-2.32-3.1S193.26,681.25,193.09,683.32Z"/><path class="cls-11" d="M210.16,690.21V673.9h2v7.15a4,4,0,0,1,3.72-2.34,3.8,3.8,0,0,1,3.16,1.47,6.28,6.28,0,0,1,1.16,4,7.13,7.13,0,0,1-1.31,4.47,4.33,4.33,0,0,1-6.73.18l-.25,1.38Zm2-2.77a4.58,4.58,0,0,0,3,1.39q2.91,0,2.91-4.44,0-3.92-2.58-3.92a4.47,4.47,0,0,0-3.3,1.84Z"/><path class="cls-11" d="M223.38,676.94v-2h2v2Zm0,13.15V679h2v11.13Z"/><path class="cls-11" d="M229.45,690.09V673.9h2v16.19Z"/><path class="cls-11" d="M235.52,690.09V673.9h2v16.19Z"/><path class="cls-11" d="M249.75,689.73a12.31,12.31,0,0,1-3.48.62,5.28,5.28,0,0,1-4-1.64,5.88,5.88,0,0,1-1.56-4.24,6.22,6.22,0,0,1,1.37-4.15,4.39,4.39,0,0,1,3.51-1.62,3.73,3.73,0,0,1,3.12,1.43,6.62,6.62,0,0,1,1.1,4.08v.63h-7q.43,4,3.88,4a9.38,9.38,0,0,0,3.1-.68Zm-6.89-6.41h4.91c0-2.07-.77-3.1-2.32-3.1S243,681.25,242.86,683.32Z"/><path class="cls-11" d="M260.43,690.09V688a4,4,0,0,1-3.71,2.35,3.8,3.8,0,0,1-3.16-1.47,6.31,6.31,0,0,1-1.16-4,7.13,7.13,0,0,1,1.31-4.47,4.32,4.32,0,0,1,6.72-.17V673.9h2v16.19Zm0-8.48a4.61,4.61,0,0,0-3-1.38c-1.94,0-2.9,1.48-2.9,4.44q0,3.9,2.58,3.9a4.49,4.49,0,0,0,3.29-1.83Z"/><path class="cls-11" d="M274.67,689.73a12.43,12.43,0,0,1-3.48.62,5.31,5.31,0,0,1-4-1.64,5.92,5.92,0,0,1-1.55-4.24,6.22,6.22,0,0,1,1.37-4.15,4.38,4.38,0,0,1,3.5-1.62,3.71,3.71,0,0,1,3.12,1.43,6.56,6.56,0,0,1,1.11,4.08v.63h-7c.3,2.65,1.59,4,3.89,4a9.38,9.38,0,0,0,3.1-.68Zm-6.9-6.41h4.92c0-2.07-.78-3.1-2.32-3.1S268,681.25,267.77,683.32Z"/><path class="cls-11" d="M278.2,690.09V679h2v2.09a3.78,3.78,0,0,1,3.49-2.34,5.13,5.13,0,0,1,.65,0v1.89a2.92,2.92,0,0,0-.93-.18q-1.92,0-3.21,2.28v7.34Z"/><path class="cls-11" d="M79.67,715.29V713.2A4,4,0,0,1,76,715.55a3.82,3.82,0,0,1-3.17-1.47,6.31,6.31,0,0,1-1.15-4A7.07,7.07,0,0,1,73,705.6a4.32,4.32,0,0,1,6.72-.17V699.1h2v16.19Zm0-8.48a4.65,4.65,0,0,0-3-1.38q-2.89,0-2.9,4.44,0,3.9,2.59,3.9a4.51,4.51,0,0,0,3.29-1.83Z"/><path class="cls-11" d="M92.7,715.29V713.2a4.68,4.68,0,0,1-3.91,2.35,3,3,0,0,1-2.31-.92,3.46,3.46,0,0,1-.87-2.48v-8h2v7.34a3.3,3.3,0,0,0,.37,1.78,1.37,1.37,0,0,0,1.21.52c1.23,0,2.4-.81,3.49-2.43v-7.21h2v11.13Z"/><path class="cls-11" d="M105.41,715.29V699.1h2v7.15a4.68,4.68,0,0,1,3.92-2.34,3,3,0,0,1,2.31.92,3.46,3.46,0,0,1,.86,2.46v8h-2V708a3.25,3.25,0,0,0-.36-1.77,1.38,1.38,0,0,0-1.21-.53c-1.24,0-2.4.81-3.5,2.43v7.21Z"/><path class="cls-11" d="M124.19,713.88a5.33,5.33,0,0,1-3.5,1.67,3.17,3.17,0,0,1-2.29-.87,2.9,2.9,0,0,1-.92-2.19,3.12,3.12,0,0,1,1.54-2.8,8.18,8.18,0,0,1,4.39-1h.48v-1.34a1.73,1.73,0,0,0-2-1.94,7.36,7.36,0,0,0-3.45,1v-1.67a10.22,10.22,0,0,1,3.82-.83,3.87,3.87,0,0,1,2.75.84,3.42,3.42,0,0,1,.89,2.62v5c0,1.15.36,1.73,1.07,1.73a2.31,2.31,0,0,0,.39,0l.14,1.12a3.46,3.46,0,0,1-1.52.33C125.05,715.55,124.45,715,124.19,713.88Zm-.3-1.1V709.9l-.67,0a5.08,5.08,0,0,0-2.69.63,1.89,1.89,0,0,0-1,1.65,1.62,1.62,0,0,0,.52,1.23,1.69,1.69,0,0,0,1.25.51A4.23,4.23,0,0,0,123.89,712.78Z"/><path class="cls-11" d="M130,715.29V704.16h2v2.09a3.78,3.78,0,0,1,3.49-2.34,5,5,0,0,1,.65.05v1.89a2.92,2.92,0,0,0-.93-.18q-1.91,0-3.21,2.28v7.34Z"/><path class="cls-11" d="M151,713.88a5.31,5.31,0,0,1-3.49,1.67,3.19,3.19,0,0,1-2.3-.87,2.89,2.89,0,0,1-.91-2.19,3.13,3.13,0,0,1,1.53-2.8,8.21,8.21,0,0,1,4.39-1h.49v-1.34a1.74,1.74,0,0,0-2-1.94,7.4,7.4,0,0,0-3.46,1v-1.67a10.27,10.27,0,0,1,3.83-.83,3.88,3.88,0,0,1,2.75.84,3.46,3.46,0,0,1,.89,2.62v5c0,1.15.35,1.73,1.06,1.73a2.31,2.31,0,0,0,.39,0l.15,1.12a3.49,3.49,0,0,1-1.52.33C151.89,715.55,151.28,715,151,713.88Zm-.29-1.1V709.9l-.68,0a5.1,5.1,0,0,0-2.69.63,1.88,1.88,0,0,0-1,1.65,1.64,1.64,0,0,0,.51,1.23,1.71,1.71,0,0,0,1.25.51A4.26,4.26,0,0,0,150.73,712.78Z"/><path class="cls-11" d="M159.29,705.67v9.62h-2v-9.62h-1.58v-1.51h1.58v-1.34q0-4,3.63-4a9.62,9.62,0,0,1,2.31.34v1.6a7.89,7.89,0,0,0-2.19-.42,1.63,1.63,0,0,0-1.36.48,3.12,3.12,0,0,0-.36,1.77v1.55h2.78v1.51Z"/><path class="cls-11" d="M171.24,715.29V704.16h2v2.09a4.39,4.39,0,0,1,3.8-2.34,3,3,0,0,1,3,2.34,4.28,4.28,0,0,1,3.74-2.35,3,3,0,0,1,2.28.87,3.39,3.39,0,0,1,.81,2.42v8.1h-2v-7.78c0-1.27-.5-1.91-1.5-1.91s-2.15.74-3.3,2.23v7.46h-2v-7.78q0-1.92-1.53-1.92c-1,0-2.11.75-3.28,2.24v7.46Z"/><path class="cls-11" d="M190.85,702.13v-2h2v2Zm0,13.16V704.16h2v11.13Z"/><path class="cls-11" d="M197,719l.24-1.75a8.08,8.08,0,0,0,3.45.83q3.42,0,3.42-3.62V712.7A3.8,3.8,0,0,1,200.4,715a3.87,3.87,0,0,1-3.18-1.46,6,6,0,0,1-1.18-3.93,6.26,6.26,0,0,1,1.34-4.14,4.33,4.33,0,0,1,3.48-1.6,4.17,4.17,0,0,1,3.21,1.52v-1.27h2v8.1a20.15,20.15,0,0,1-.27,3.87,4.41,4.41,0,0,1-1,2,5.42,5.42,0,0,1-4.12,1.41A11.66,11.66,0,0,1,197,719Zm7.11-7.55v-4.63a4,4,0,0,0-2.9-1.38,2.55,2.55,0,0,0-2.19,1.11,5.3,5.3,0,0,0-.79,3.07q0,3.66,2.58,3.66A4.38,4.38,0,0,0,204.07,711.44Z"/><path class="cls-11" d="M216.66,719.34V704.16h2v2.09a4,4,0,0,1,3.72-2.34,3.78,3.78,0,0,1,3.16,1.47,6.28,6.28,0,0,1,1.16,4,7.13,7.13,0,0,1-1.31,4.47,4.33,4.33,0,0,1-6.73.18v5.31Zm2-6.71a4.6,4.6,0,0,0,3,1.4q2.91,0,2.91-4.44,0-3.92-2.58-3.92a4.51,4.51,0,0,0-3.3,1.84Z"/><path class="cls-11" d="M235.62,713.88a5.33,5.33,0,0,1-3.5,1.67,3.17,3.17,0,0,1-2.29-.87,2.9,2.9,0,0,1-.92-2.19,3.12,3.12,0,0,1,1.54-2.8,8.18,8.18,0,0,1,4.39-1h.48v-1.34a1.73,1.73,0,0,0-2-1.94,7.36,7.36,0,0,0-3.45,1v-1.67a10.22,10.22,0,0,1,3.82-.83,3.87,3.87,0,0,1,2.75.84,3.42,3.42,0,0,1,.89,2.62v5c0,1.15.36,1.73,1.07,1.73a2.31,2.31,0,0,0,.39,0l.14,1.12a3.46,3.46,0,0,1-1.52.33C236.48,715.55,235.88,715,235.62,713.88Zm-.3-1.1V709.9l-.68,0a5.06,5.06,0,0,0-2.68.63,1.88,1.88,0,0,0-1,1.65,1.62,1.62,0,0,0,.52,1.23,1.69,1.69,0,0,0,1.25.51A4.23,4.23,0,0,0,235.32,712.78Zm-1.63-10.65a2.16,2.16,0,0,1-1.62-.68,2.24,2.24,0,0,1-.68-1.64,2.28,2.28,0,0,1,.68-1.65,2.25,2.25,0,0,1,1.65-.68,2.28,2.28,0,0,1,1.65.68,2.34,2.34,0,0,1,0,3.3A2.31,2.31,0,0,1,233.69,702.13Zm0-.88a1.42,1.42,0,0,0,1-.42,1.44,1.44,0,0,0,0-2.05,1.44,1.44,0,0,0-2.46,1,1.42,1.42,0,0,0,.42,1A1.36,1.36,0,0,0,233.7,701.25Z"/><path class="cls-11" d="M255.27,715.29V713.2a4,4,0,0,1-3.72,2.35,3.8,3.8,0,0,1-3.16-1.47,6.31,6.31,0,0,1-1.15-4,7.13,7.13,0,0,1,1.3-4.47,4.33,4.33,0,0,1,6.73-.17V699.1h2v16.19Zm0-8.48a4.65,4.65,0,0,0-3-1.38q-2.89,0-2.9,4.44,0,3.9,2.58,3.9a4.52,4.52,0,0,0,3.3-1.83Z"/><path class="cls-11" d="M261.34,702.13v-2h2v2Zm0,13.16V704.16h2v11.13Z"/><path class="cls-11" d="M267.41,715.29V704.16h2v2.09a4.65,4.65,0,0,1,3.91-2.34,3,3,0,0,1,2.31.92,3.46,3.46,0,0,1,.86,2.46v8h-2V708a3.25,3.25,0,0,0-.36-1.77,1.38,1.38,0,0,0-1.21-.53c-1.23,0-2.4.81-3.49,2.43v7.21Z"/><path class="cls-11" d="M75.86,740.75a3.25,3.25,0,0,1-2.4-.88,3.4,3.4,0,0,1-.86-2.46v-6.54H71.21v-1.51H72.6v-2l2-.19v2.22h2.91v1.51H74.62V737q0,2.19,1.89,2.19a4.26,4.26,0,0,0,1-.13v1.39A6.28,6.28,0,0,1,75.86,740.75Z"/><path class="cls-11" d="M88.54,740.13a12.43,12.43,0,0,1-3.48.62,5.28,5.28,0,0,1-4-1.64,5.88,5.88,0,0,1-1.56-4.24,6.22,6.22,0,0,1,1.37-4.15,4.38,4.38,0,0,1,3.5-1.62,3.74,3.74,0,0,1,3.13,1.43,6.64,6.64,0,0,1,1.1,4.09v.62h-7c.3,2.65,1.59,4,3.89,4a9.38,9.38,0,0,0,3.1-.68Zm-6.89-6.41h4.91c0-2.07-.77-3.1-2.32-3.1S81.82,731.65,81.65,733.72Z"/><path class="cls-11" d="M92.07,740.49V724.3h2v16.19Z"/><path class="cls-11" d="M106.31,740.13a12.43,12.43,0,0,1-3.48.62,5.28,5.28,0,0,1-4-1.64,5.88,5.88,0,0,1-1.56-4.24,6.22,6.22,0,0,1,1.37-4.15,4.38,4.38,0,0,1,3.5-1.62,3.74,3.74,0,0,1,3.13,1.43,6.64,6.64,0,0,1,1.1,4.09v.62h-7c.3,2.65,1.59,4,3.89,4a9.38,9.38,0,0,0,3.1-.68Zm-6.89-6.41h4.91c0-2.07-.77-3.1-2.32-3.1S99.59,731.65,99.42,733.72Z"/><path class="cls-11" d="M112.25,730.87v9.62h-2v-9.62h-1.58v-1.51h1.58V728q0-4,3.63-4a9.49,9.49,0,0,1,2.31.34V726a7.9,7.9,0,0,0-2.18-.42,1.61,1.61,0,0,0-1.36.48,3.1,3.1,0,0,0-.37,1.77v1.55H115v1.51Z"/><path class="cls-11" d="M121.92,740.75a4.86,4.86,0,0,1-3.81-1.59,7,7,0,0,1,0-8.49,5.62,5.62,0,0,1,7.77,0,7,7,0,0,1,0,8.52A5.1,5.1,0,0,1,121.92,740.75Zm0-1.52q3.21,0,3.21-4.33T122,730.63q-3.16,0-3.16,4.29T122,739.23Z"/><path class="cls-11" d="M130.46,740.49V729.36h2v2.09a4.68,4.68,0,0,1,3.92-2.34,3,3,0,0,1,2.31.92,3.46,3.46,0,0,1,.86,2.46v8h-2v-7.34a3.25,3.25,0,0,0-.36-1.77,1.38,1.38,0,0,0-1.21-.53c-1.24,0-2.4.81-3.5,2.43v7.21Z"/><path class="cls-11" d="M143.53,740.49V738h2.53v2.53Z"/><path class="cls-11" d="M150.17,740.49V738h2.54v2.53Z"/><path class="cls-11" d="M156.82,740.49V738h2.53v2.53Z"/><path class="cls-11" d="M170,740.49V725.31h4.14a6.5,6.5,0,0,1,3.94.93,3.63,3.63,0,0,1,1.2,3,4.67,4.67,0,0,1-1.64,3.8,6.9,6.9,0,0,1-4.55,1.37h-.95v6Zm2.14-7.66H173a4.45,4.45,0,0,0,3-.88,3.08,3.08,0,0,0,1.05-2.49,2.25,2.25,0,0,0-.82-2,4.86,4.86,0,0,0-2.74-.59h-1.32Z"/><path class="cls-11" d="M181.68,740.49V724.3h2v16.19Z"/><path class="cls-11" d="M195.92,740.13a12.43,12.43,0,0,1-3.48.62,5.31,5.31,0,0,1-4-1.64,5.92,5.92,0,0,1-1.55-4.24,6.22,6.22,0,0,1,1.37-4.15,4.38,4.38,0,0,1,3.5-1.62,3.71,3.71,0,0,1,3.12,1.43,6.57,6.57,0,0,1,1.11,4.09v.62h-7c.3,2.65,1.59,4,3.89,4a9.38,9.38,0,0,0,3.1-.68Zm-6.9-6.41h4.92c0-2.07-.78-3.1-2.32-3.1S189.2,731.65,189,733.72Z"/><path class="cls-11" d="M205.2,739.08a5.33,5.33,0,0,1-3.5,1.67,3.21,3.21,0,0,1-2.3-.87,2.89,2.89,0,0,1-.91-2.19,3.12,3.12,0,0,1,1.53-2.8,8.13,8.13,0,0,1,4.4-1h.48v-1.35a1.73,1.73,0,0,0-2-1.93,7.52,7.52,0,0,0-3.46,1v-1.67a10.27,10.27,0,0,1,3.83-.83A3.88,3.88,0,0,1,206,730a3.45,3.45,0,0,1,.89,2.61v5.05c0,1.15.35,1.73,1.06,1.73a2.31,2.31,0,0,0,.39,0l.15,1.12a3.49,3.49,0,0,1-1.52.33C206.06,740.75,205.46,740.19,205.2,739.08Zm-.3-1.1V735.1l-.68,0a5.1,5.1,0,0,0-2.69.63,1.88,1.88,0,0,0-1,1.65,1.64,1.64,0,0,0,.51,1.23,1.71,1.71,0,0,0,1.25.51A4.26,4.26,0,0,0,204.9,738Z"/><path class="cls-11" d="M214,740.75a11.22,11.22,0,0,1-3.36-.65v-1.85a8.07,8.07,0,0,0,3.45,1,2.21,2.21,0,0,0,1.44-.47,1.49,1.49,0,0,0,.58-1.18c0-.69-.54-1.26-1.61-1.71l-1.18-.51c-1.75-.72-2.62-1.76-2.62-3.12a2.77,2.77,0,0,1,1-2.29,4.36,4.36,0,0,1,2.83-.84,12.11,12.11,0,0,1,2.3.26l.42.08v1.68a9.77,9.77,0,0,0-2.68-.5q-1.95,0-1.95,1.41c0,.61.49,1.12,1.48,1.54l1,.41a6.74,6.74,0,0,1,2.34,1.47,2.8,2.8,0,0,1,.69,1.93A3,3,0,0,1,217,739.8,4.56,4.56,0,0,1,214,740.75Z"/><path class="cls-11" d="M229.92,740.13a12.37,12.37,0,0,1-3.48.62,5.28,5.28,0,0,1-4-1.64,5.88,5.88,0,0,1-1.56-4.24,6.22,6.22,0,0,1,1.37-4.15,4.39,4.39,0,0,1,3.5-1.62,3.74,3.74,0,0,1,3.13,1.43,6.64,6.64,0,0,1,1.1,4.09v.62h-7c.3,2.65,1.59,4,3.89,4a9.38,9.38,0,0,0,3.1-.68ZM223,733.72h4.91c0-2.07-.77-3.1-2.32-3.1S223.2,731.65,223,733.72Z"/><path class="cls-11" d="M233.49,740.49V738H236v2.53Z"/><path class="cls-11" d="M240.13,740.49V738h2.53v2.53Z"/><path class="cls-11" d="M246.77,740.49V738h2.54v2.53Z"/><circle class="cls-8" cx="42.5" cy="797.5" r="5"/><circle class="cls-8" cx="27.5" cy="797.5" r="5"/><circle class="cls-8" cx="27.5" cy="812.5" r="5"/><circle class="cls-8" cx="42.5" cy="812.5" r="5"/><path class="cls-8" d="M80,818.31l20.58.39a5.73,5.73,0,0,0,5.82-5.6l.21-11.58a5.73,5.73,0,0,0-4.49-5.68,5.6,5.6,0,0,1-2.19-1l-3.09-2.35a5,5,0,0,0-3-1H87.6a3.83,3.83,0,0,0-2,.58l-4.08,2.57a5.51,5.51,0,0,1-2,.74,5.72,5.72,0,0,0-4.84,5.53l-.22,11.58A5.73,5.73,0,0,0,80,818.31Z"/><circle class="cls-8" cx="90.5" cy="806.5" r="7"/><path class="cls-11" d="M90.5,800.5a6,6,0,1,1-6,6,6,6,0,0,1,6-6m0-2a8,8,0,1,0,8,8,8,8,0,0,0-8-8Z"/><path class="cls-8" d="M154.83,794.5a1.69,1.69,0,0,1,1.67,1.67v17.66a1.69,1.69,0,0,1-1.67,1.67H137.17a1.69,1.69,0,0,1-1.67-1.67V796.17a1.69,1.69,0,0,1,1.67-1.67h17.66m0-3H137.17a4.68,4.68,0,0,0-4.67,4.67v17.66a4.68,4.68,0,0,0,4.67,4.67h17.66a4.68,4.68,0,0,0,4.67-4.67V796.17a4.68,4.68,0,0,0-4.67-4.67Z"/><path class="cls-8" d="M142.5,805.5h5c3,0,11,5,11,8l-1-1.5a5.51,5.51,0,0,1-5.5,5.5H139a5.51,5.51,0,0,1-5.5-5.5v-.5C133.5,808.47,139.47,805.5,142.5,805.5Z"/><circle class="cls-8" cx="140.5" cy="799.5" r="3"/><line class="cls-12" x1="195" y1="819" x2="206" y2="819"/><path class="cls-12" d="M191,805s9,21,20,0"/><rect class="cls-8" x="195" y="790.5" width="11.5" height="20.5" rx="5"/><rect class="cls-13" x="235" y="784" width="163" height="43" rx="20.48"/><line class="cls-12" x1="248" y1="791" x2="248" y2="818"/><path class="cls-3" d="M264.38,812l-1.95-5h-6.3l-1.93,5h-1.85l6.21-15.77h1.54L266.27,812Zm-2.52-6.64L260,800.5c-.24-.61-.48-1.37-.73-2.26a19.77,19.77,0,0,1-.68,2.26l-1.84,4.87Z"/><path class="cls-3" d="M275.4,812l-.35-1.68H275a4.88,4.88,0,0,1-1.75,1.5,5.43,5.43,0,0,1-2.19.39,3.92,3.92,0,0,1-2.74-.9,3.27,3.27,0,0,1-1-2.57c0-2.38,1.9-3.62,5.71-3.74l2-.06v-.73a3,3,0,0,0-.59-2.05,2.47,2.47,0,0,0-1.91-.66,7.79,7.79,0,0,0-3.33.9l-.55-1.36a8.64,8.64,0,0,1,4-1,4.51,4.51,0,0,1,3.12.93,3.91,3.91,0,0,1,1,3v8Zm-4-1.26a3.61,3.61,0,0,0,2.61-.91,3.4,3.4,0,0,0,.95-2.56v-1.06l-1.78.07a6.51,6.51,0,0,0-3.07.66,2,2,0,0,0-.94,1.82,1.86,1.86,0,0,0,.59,1.48A2.45,2.45,0,0,0,271.38,810.75Z"/><ellipse class="cls-8" cx="378.5" cy="805.25" rx="15" ry="14.75"/><ellipse class="cls-11" cx="373.75" cy="802.5" rx="1.75" ry="2.5"/><ellipse class="cls-11" cx="383.75" cy="802.5" rx="1.75" ry="2.5"/><path class="cls-14" d="M371.5,811.5s8,6,14,0"/><path class="cls-8" d="M430,815v-9.73a3.55,3.55,0,0,1,.81-2.25l3.08-3.69a6.1,6.1,0,0,0,1.36-3.22,24.79,24.79,0,0,0,0-6,1.14,1.14,0,0,1,1-1.34c2.18-.16,6.19.88,4.71,11.26,0,0,13,0,9,5,0,0,3,4,0,6a3.1,3.1,0,0,1-2,4s3,3-8,4S430,815,430,815Z"/><path class="cls-8" d="M425.24,804h1.06a1.71,1.71,0,0,1,1.71,1.71v12.59a1.71,1.71,0,0,1-1.71,1.71h-1a3.22,3.22,0,0,1-3.22-3.22v-9.63A3.16,3.16,0,0,1,425.24,804Z"/></g><g id="Dreng"><circle class="cls-15" cx="90.18" cy="59.82" r="22.32"/><rect class="cls-16" x="80.48" y="48.21" width="19.17" height="20.6" rx="5.37"/><rect class="cls-17" x="85.83" y="58.69" width="9.71" height="11.67" rx="2.72"/><ellipse class="cls-17" cx="90.18" cy="57.74" rx="8.51" ry="9.52"/><ellipse class="cls-16" cx="93.81" cy="49.88" rx="3.21" ry="5.71" transform="translate(31.43 135.89) rotate(-82.05)"/><ellipse class="cls-16" cx="85.83" cy="49.88" rx="5.71" ry="3.21" transform="translate(-11.61 30.9) rotate(-19.14)"/><path class="cls-18" d="M73.93,75.25a22.33,22.33,0,0,0,32.62-.38V70.7a6.2,6.2,0,0,0-6.18-6.18H80.1a6.19,6.19,0,0,0-6.17,6.18Z"/><circle class="cls-15" cx="30.39" cy="737.03" r="14.11"/><rect class="cls-16" x="24.25" y="729.69" width="12.12" height="13.02" rx="6.06"/><rect class="cls-17" x="27.64" y="736.32" width="6.14" height="7.38" rx="3.07"/><ellipse class="cls-17" cx="30.39" cy="735.71" rx="5.38" ry="6.02"/><ellipse class="cls-16" cx="32.68" cy="730.75" rx="2.03" ry="3.61" transform="matrix(0.14, -0.99, 0.99, 0.14, -695.56, 662.04)"/><ellipse class="cls-16" cx="27.64" cy="730.75" rx="3.61" ry="2.03" transform="translate(-238.04 49.45) rotate(-19.14)"/><path class="cls-18" d="M20.11,746.79a14.13,14.13,0,0,0,20.63-.25v-2.63A3.92,3.92,0,0,0,36.83,740H24a3.92,3.92,0,0,0-3.9,3.91Z"/></g></svg>