<svg xmlns="http://www.w3.org/2000/svg" width="473" height="839" viewBox="0 0 473 839"><defs><style>.cls-1,.cls-11{fill:#fff;}.cls-1,.cls-7{stroke:#000;}.cls-1,.cls-12,.cls-14,.cls-23,.cls-5,.cls-7{stroke-miterlimit:10;}.cls-1,.cls-12,.cls-14,.cls-5{stroke-width:3px;}.cls-1{opacity:0.65;}.cls-12,.cls-14,.cls-2,.cls-23,.cls-5,.cls-7{fill:none;}.cls-12,.cls-2{stroke:#29a9e0;}.cls-12,.cls-14,.cls-2,.cls-5{stroke-linecap:round;}.cls-2{stroke-linejoin:round;stroke-width:4px;}.cls-3{fill:#b1b1b1;}.cls-4{fill:#4d4d4d;}.cls-5{stroke:#666;}.cls-6{fill:#666;}.cls-8{fill:#29a9e0;}.cls-9{fill:#979797;}.cls-10{fill:#cacaca;}.cls-13{fill:#e4e4e4;}.cls-14{stroke:#fff;}.cls-15{fill:#965515;}.cls-16{fill:#8e8e8e;}.cls-17{fill:#8e4f2d;}.cls-18{fill:#3a3a3a;}.cls-19{fill:#4683c6;}.cls-20{fill:#ffe0bd;}.cls-21{fill:#ffc787;}.cls-22{fill:#ffbb8e;}.cls-23{stroke:#42210b;}.cls-24{fill:#d0db7d;}.cls-25{fill:#5b1e1e;}.cls-26{fill:#bc7777;}.cls-27{fill:#8c6141;}.cls-28{fill:#7583c6;}</style></defs><title>besked 1</title><g id="Layer_1" data-name="Layer 1"><rect class="cls-1" x="1.5" y="1.5" width="470" height="836"/><polyline class="cls-2" points="39.5 71.5 27.5 59.5 39.5 47.5"/><rect class="cls-3" x="26.5" y="8.5" width="4" height="12" rx="2"/><rect class="cls-3" x="20.5" y="10.5" width="4" height="10" rx="2"/><rect class="cls-4" x="14.5" y="12.5" width="4" height="8" rx="2"/><rect class="cls-4" x="8.5" y="14.5" width="4" height="6" rx="2"/><path d="M39,19.71H37.77v-9.6H34.38V9h8v1.1H39Z"/><path d="M50,19.71H44V9h6v1.1H45.26v3.45H49.7v1.1H45.26V18.6H50Z"/><path d="M52.36,19.71V9h1.25v9.58h4.72v1.12Z"/><path d="M64.88,19.71l-3.63-9.49h-.06c.07.75.11,1.65.11,2.68v6.81H60.15V9H62l3.39,8.83h.06L68.89,9h1.86v10.7H69.51v-6.9c0-.79,0-1.65.1-2.57h-.06l-3.66,9.47Z"/><path d="M83,14.35a5.87,5.87,0,0,1-1.3,4,5.24,5.24,0,0,1-7.26,0,5.91,5.91,0,0,1-1.29-4.08,5.86,5.86,0,0,1,1.29-4.05,4.66,4.66,0,0,1,3.66-1.44,4.6,4.6,0,0,1,3.61,1.46A5.93,5.93,0,0,1,83,14.35Zm-8.53,0a5,5,0,0,0,.93,3.29,3.78,3.78,0,0,0,5.38,0,5.19,5.19,0,0,0,.9-3.3,5.11,5.11,0,0,0-.9-3.28A3.23,3.23,0,0,0,78.08,10a3.29,3.29,0,0,0-2.7,1.13A5,5,0,0,0,74.45,14.35Z"/><path d="M86.62,15.26v4.45H85.37V9h2.94a4.65,4.65,0,0,1,2.91.75A2.72,2.72,0,0,1,92.16,12,2.84,2.84,0,0,1,90,14.9l2.9,4.81H91.44l-2.59-4.45Zm0-1.07h1.7a3,3,0,0,0,1.94-.52,2,2,0,0,0,.61-1.57,1.8,1.8,0,0,0-.62-1.53,3.36,3.36,0,0,0-2-.47H86.62Z"/><path d="M100.61,19.71h-6V9h6v1.1H95.89v3.45h4.44v1.1H95.89V18.6h4.72Z"/><path class="cls-5" d="M114.5,11.5s6-6,14,0"/><path class="cls-5" d="M117.5,14.5s3.32-3.75,7.75,0"/><path class="cls-6" d="M121.5,19.5h0a8.26,8.26,0,0,1-2-2v-.75a.41.41,0,0,1,.23-.36h0a3.94,3.94,0,0,1,3.54,0h0a.41.41,0,0,1,.23.36v.75A8.26,8.26,0,0,1,121.5,19.5Z"/><path d="M224.31,19.64h-1.19V12q0-.94.06-1.8l-.34.32L221.09,12l-.64-.83,2.83-2.19h1Z"/><path d="M228.51,15.07a7.55,7.55,0,0,1,1.22-4.72,4.32,4.32,0,0,1,3.63-1.57,5,5,0,0,1,1.31.14V10a4.28,4.28,0,0,0-1.29-.18,3.23,3.23,0,0,0-2.63,1.07,5.47,5.47,0,0,0-1,3.37h.09A2.8,2.8,0,0,1,232.39,13a3,3,0,0,1,2.27.87,3.31,3.31,0,0,1,.83,2.37,3.62,3.62,0,0,1-.91,2.62,3.24,3.24,0,0,1-2.46,1,3.18,3.18,0,0,1-2.64-1.25A5.51,5.51,0,0,1,228.51,15.07Zm3.59,3.69a2.05,2.05,0,0,0,1.62-.66,2.79,2.79,0,0,0,.57-1.89,2.46,2.46,0,0,0-.53-1.67,2,2,0,0,0-1.6-.61,2.72,2.72,0,0,0-1.21.27,2.19,2.19,0,0,0-.87.75,1.73,1.73,0,0,0-.33,1,3.44,3.44,0,0,0,.29,1.4,2.55,2.55,0,0,0,.84,1A2.06,2.06,0,0,0,232.1,18.76Z"/><path d="M237.34,12.4c0-.66.29-1,.86-1s.9.33.9,1a1,1,0,0,1-.24.73.87.87,0,0,1-.66.26.9.9,0,0,1-.62-.23A1,1,0,0,1,237.34,12.4Zm0,6.47a1.1,1.1,0,0,1,.22-.75.83.83,0,0,1,.64-.25.91.91,0,0,1,.67.25,1.1,1.1,0,0,1,.23.75,1,1,0,0,1-.24.73.94.94,0,0,1-1.28,0A1,1,0,0,1,237.34,18.87Z"/><path d="M244.3,13.1a4,4,0,0,1,2.66.84,2.88,2.88,0,0,1,1,2.3,3.31,3.31,0,0,1-1.06,2.61,4.22,4.22,0,0,1-2.92.94,5.35,5.35,0,0,1-2.76-.58V18a4.37,4.37,0,0,0,1.27.52,6.56,6.56,0,0,0,1.51.18,3,3,0,0,0,2-.61,2.15,2.15,0,0,0,.71-1.75c0-1.5-.91-2.24-2.74-2.24a10.92,10.92,0,0,0-1.86.21l-.63-.4.4-5h5.32v1.12h-4.28l-.27,3.21A8.7,8.7,0,0,1,244.3,13.1Z"/><path d="M256.56,19.64h-7v-1l2.82-2.84A19.88,19.88,0,0,0,254,13.9a4.65,4.65,0,0,0,.62-1.08,3,3,0,0,0,.21-1.14,1.84,1.84,0,0,0-.52-1.36,2,2,0,0,0-1.45-.5,3.79,3.79,0,0,0-1.26.22,5,5,0,0,0-1.33.8l-.64-.83a4.92,4.92,0,0,1,3.22-1.23,3.42,3.42,0,0,1,2.36.77,2.68,2.68,0,0,1,.86,2.08,4.05,4.05,0,0,1-.57,2,12.56,12.56,0,0,1-2.14,2.51l-2.34,2.3v.06h5.5Z"/><rect x="434.5" y="9.5" width="22" height="10" rx="1.99"/><rect class="cls-7" x="433" y="8.25" width="27" height="12.5" rx="1.99"/><path d="M461.5,11.5s2.74,2.65,0,5"/><path d="M398.78,8.85a3.66,3.66,0,0,1,2.32.68,2.29,2.29,0,0,1,.86,1.89,2.35,2.35,0,0,1-.5,1.44A4.19,4.19,0,0,1,399.9,14a5.43,5.43,0,0,1,1.85,1.31,2.46,2.46,0,0,1,.55,1.59,2.66,2.66,0,0,1-.93,2.13,3.8,3.8,0,0,1-2.55.79,4.11,4.11,0,0,1-2.64-.75,2.6,2.6,0,0,1-.92-2.13c0-1.22.75-2.18,2.24-2.86a4.15,4.15,0,0,1-1.45-1.24,2.63,2.63,0,0,1-.44-1.48,2.28,2.28,0,0,1,.86-1.86A3.61,3.61,0,0,1,398.78,8.85ZM396.46,17a1.68,1.68,0,0,0,.61,1.37,2.67,2.67,0,0,0,1.72.49,2.56,2.56,0,0,0,1.7-.51,1.8,1.8,0,0,0,0-2.67,5.75,5.75,0,0,0-2-1.07,4.32,4.32,0,0,0-1.59,1A2,2,0,0,0,396.46,17Zm2.3-7.17a2.14,2.14,0,0,0-1.43.44,1.44,1.44,0,0,0-.52,1.17,1.67,1.67,0,0,0,.43,1.16,4.67,4.67,0,0,0,1.6,1,4.1,4.1,0,0,0,1.48-.95,1.75,1.75,0,0,0,.43-1.18,1.42,1.42,0,0,0-.53-1.17A2.23,2.23,0,0,0,398.76,9.84Z"/><path d="M407.16,13.17a4,4,0,0,1,2.66.84,2.91,2.91,0,0,1,1,2.3,3.31,3.31,0,0,1-1.06,2.61,4.24,4.24,0,0,1-2.92.94,5.33,5.33,0,0,1-2.76-.58V18.11a4.37,4.37,0,0,0,1.27.52,6.56,6.56,0,0,0,1.51.18,3,3,0,0,0,2-.6,2.19,2.19,0,0,0,.71-1.76c0-1.5-.91-2.24-2.74-2.24a10.92,10.92,0,0,0-1.86.21l-.63-.4.4-5H410v1.12h-4.28l-.27,3.21A8.7,8.7,0,0,1,407.16,13.17Z"/><path d="M420.68,12.2a4.66,4.66,0,0,1-.56,2.52,1.87,1.87,0,0,1-1.65.86,1.79,1.79,0,0,1-1.59-.88,4.56,4.56,0,0,1-.57-2.5,4.63,4.63,0,0,1,.55-2.51,1.79,1.79,0,0,1,1.61-.84,1.83,1.83,0,0,1,1.63.87A4.44,4.44,0,0,1,420.68,12.2Zm-3.36,0a5,5,0,0,0,.27,1.87.92.92,0,0,0,.88.62q1.2,0,1.2-2.49c0-1.65-.4-2.48-1.2-2.48a.92.92,0,0,0-.88.62A4.87,4.87,0,0,0,417.32,12.2ZM425.24,9l-5.94,10.7h-1.08L424.16,9Zm1.89,7.48a4.66,4.66,0,0,1-.56,2.52,1.85,1.85,0,0,1-1.65.85,1.8,1.8,0,0,1-1.6-.87,4.65,4.65,0,0,1-.56-2.5,4.66,4.66,0,0,1,.55-2.5,1.78,1.78,0,0,1,1.61-.85,1.87,1.87,0,0,1,1.63.86A4.54,4.54,0,0,1,427.13,16.49Zm-3.36,0a4.89,4.89,0,0,0,.27,1.87.9.9,0,0,0,.88.62,1,1,0,0,0,.91-.61,4.49,4.49,0,0,0,.29-1.88,4.45,4.45,0,0,0-.29-1.86,1,1,0,0,0-.91-.6.91.91,0,0,0-.88.6A4.87,4.87,0,0,0,423.77,16.49Z"/><rect class="cls-8" x="417.5" y="47.5" width="24" height="24" rx="6.42"/><path class="cls-8" d="M446.59,53.82l2.7-1.16a2,2,0,0,1,2.76,1.82v9a2,2,0,0,1-2.82,1.86L446.06,64A3.46,3.46,0,0,1,444,60.76V57.82A4.36,4.36,0,0,1,446.59,53.82Z"/><path class="cls-8" d="M374.8,64.81C372.87,64,370.24,62.1,368,58a5,5,0,0,1,.6-5.52c.76-.94,1.32-2,.87-2.94-1-2-4-5-5-5s-7,2-5,8,7.77,17.55,21.21,20.82a5,5,0,0,0,1.8.1c1.85-.24,6-1.92,5-4.92-1.41-4.24-2-4-4.55-5.26-.62-.31-1.37.22-2,.53l-1.83.91C377.5,66.5,376.19,65.41,374.8,64.81Z"/><path class="cls-9" d="M132.76,77.25l-1.33-3.41h-4.3l-1.31,3.41h-1.26l4.23-10.76h1.05l4.21,10.76ZM131,72.72l-1.25-3.32c-.16-.42-.33-.93-.5-1.54a12.27,12.27,0,0,1-.46,1.54l-1.26,3.32Z"/><path class="cls-9" d="M138.54,77.39a3.38,3.38,0,0,1-2.69-1.07,4.42,4.42,0,0,1-1-3,4.53,4.53,0,0,1,1-3.11,3.51,3.51,0,0,1,2.76-1.1,5,5,0,0,1,1.16.13,3.75,3.75,0,0,1,.91.29l-.37,1a8.36,8.36,0,0,0-.88-.27,4,4,0,0,0-.84-.1c-1.64,0-2.45,1-2.45,3.12a3.7,3.7,0,0,0,.6,2.27,2.05,2.05,0,0,0,1.77.79,5.35,5.35,0,0,0,2-.43V77A4.47,4.47,0,0,1,138.54,77.39Z"/><path class="cls-9" d="M145.07,76.39a4.1,4.1,0,0,0,.62,0,3,3,0,0,0,.48-.1v.93a2,2,0,0,1-.58.16,4.62,4.62,0,0,1-.7.06c-1.55,0-2.32-.82-2.32-2.45V70.16h-1.15v-.58l1.15-.51.51-1.71h.7v1.86h2.33v.94h-2.33v4.73a1.62,1.62,0,0,0,.35,1.11A1.19,1.19,0,0,0,145.07,76.39Z"/><path class="cls-9" d="M147.67,67a.81.81,0,0,1,.21-.61.69.69,0,0,1,.51-.19.68.68,0,0,1,.5.2.75.75,0,0,1,.22.6.8.8,0,0,1-.22.62.72.72,0,0,1-.5.2.69.69,0,0,1-.51-.2A.83.83,0,0,1,147.67,67ZM149,77.25h-1.22v-8H149Z"/><path class="cls-9" d="M153.33,77.25l-3.05-8h1.3L153.31,74c.39,1.11.62,1.84.69,2.17h.06a14.11,14.11,0,0,1,.51-1.61c.28-.81.92-2.59,1.92-5.32h1.3l-3,8Z"/><path class="cls-9" d="M162.47,77.39a3.71,3.71,0,0,1-2.81-1.08,4.23,4.23,0,0,1-1-3,4.66,4.66,0,0,1,1-3.09,3.18,3.18,0,0,1,2.57-1.14,3,3,0,0,1,2.39,1,3.85,3.85,0,0,1,.87,2.62v.77h-5.53a3.24,3.24,0,0,0,.72,2.15,2.47,2.47,0,0,0,1.91.73,6.47,6.47,0,0,0,2.56-.54v1.08a6.18,6.18,0,0,1-1.22.4A6.84,6.84,0,0,1,162.47,77.39Zm-.33-7.3a2,2,0,0,0-1.54.63,2.93,2.93,0,0,0-.68,1.74h4.2a2.7,2.7,0,0,0-.51-1.76A1.8,1.8,0,0,0,162.14,70.09Z"/><path class="cls-9" d="M176.89,77.25v-5.2a2.08,2.08,0,0,0-.45-1.46,1.83,1.83,0,0,0-1.4-.49,2.28,2.28,0,0,0-1.84.69,3.36,3.36,0,0,0-.59,2.24v4.22h-1.22v-8h1l.2,1.1h.06a2.48,2.48,0,0,1,1.05-.92,3.37,3.37,0,0,1,1.5-.33,3.09,3.09,0,0,1,2.18.7A3,3,0,0,1,178.1,72v5.24Z"/><path class="cls-9" d="M187.53,73.23a4.42,4.42,0,0,1-1,3.06,3.46,3.46,0,0,1-2.73,1.1,3.65,3.65,0,0,1-1.91-.5,3.32,3.32,0,0,1-1.29-1.45,5,5,0,0,1-.46-2.21,4.45,4.45,0,0,1,1-3.06,3.5,3.5,0,0,1,2.73-1.1,3.43,3.43,0,0,1,2.68,1.12A4.43,4.43,0,0,1,187.53,73.23Zm-6.12,0a3.81,3.81,0,0,0,.62,2.34,2.45,2.45,0,0,0,3.62,0,4.71,4.71,0,0,0,0-4.67,2.47,2.47,0,0,0-3.63,0A3.8,3.8,0,0,0,181.41,73.23Z"/><path class="cls-9" d="M196.22,77.25l-1.48-4.71c-.09-.29-.26-1-.52-2h-.05c-.2.86-.37,1.52-.52,2l-1.51,4.7h-1.41l-2.19-8h1.27c.52,2,.92,3.55,1.19,4.61a18.32,18.32,0,0,1,.46,2.13h.06c0-.28.14-.64.26-1.08s.22-.8.31-1l1.47-4.61h1.32l1.44,4.61a16.55,16.55,0,0,1,.56,2.11h.05c0-.17.08-.44.16-.81s.6-2.34,1.53-5.91h1.26l-2.22,8Z"/><path d="M135.8,53.8a4.06,4.06,0,0,1-1.53,3.35A6.63,6.63,0,0,1,130,58.38a10,10,0,0,1-4.44-1V54.34a18.76,18.76,0,0,0,2.69,1,8.05,8.05,0,0,0,2,.29,2.85,2.85,0,0,0,1.68-.42,1.45,1.45,0,0,0,.59-1.25,1.38,1.38,0,0,0-.26-.82,2.73,2.73,0,0,0-.76-.69,18.06,18.06,0,0,0-2-1.07,9.44,9.44,0,0,1-2.16-1.3,4.73,4.73,0,0,1-1.15-1.45,4.53,4.53,0,0,1,1-5.21,5.89,5.89,0,0,1,3.91-1.19,9.35,9.35,0,0,1,2.33.29,15.93,15.93,0,0,1,2.33.82l-1.08,2.59a13.72,13.72,0,0,0-2.08-.72A6.41,6.41,0,0,0,131,45a2.15,2.15,0,0,0-1.45.44,1.46,1.46,0,0,0-.51,1.15,1.39,1.39,0,0,0,.21.77,2.07,2.07,0,0,0,.65.63,18.32,18.32,0,0,0,2.11,1.1,8.49,8.49,0,0,1,3,2.12A4.13,4.13,0,0,1,135.8,53.8Z"/><path d="M143.45,55.77a7.14,7.14,0,0,0,2.06-.38v2.44a7.41,7.41,0,0,1-3,.55,3.71,3.71,0,0,1-2.87-1,4.3,4.3,0,0,1-.89-3V48.61h-1.57V47.23l1.8-1.1,1-2.54H142v2.56h3.36v2.46H142V54.4a1.27,1.27,0,0,0,.39,1A1.59,1.59,0,0,0,143.45,55.77Z"/><path d="M153.38,58.38a6.2,6.2,0,0,1-4.54-1.61,6,6,0,0,1-1.63-4.53,6.66,6.66,0,0,1,1.51-4.67,5.41,5.41,0,0,1,4.17-1.64,5.29,5.29,0,0,1,4,1.45,5.49,5.49,0,0,1,1.42,4V53h-7.75a3.15,3.15,0,0,0,.83,2.18,2.88,2.88,0,0,0,2.17.79,9.07,9.07,0,0,0,2.05-.23,10.27,10.27,0,0,0,2-.72v2.54a8,8,0,0,1-1.84.64A11.55,11.55,0,0,1,153.38,58.38Zm-.46-10.12a2.1,2.1,0,0,0-1.64.66,3,3,0,0,0-.67,1.87h4.59a2.69,2.69,0,0,0-.63-1.87A2.15,2.15,0,0,0,152.92,48.26Z"/><path d="M167.54,58.38a4,4,0,0,1-3.32-1.54H164q.18,1.5.18,1.74v4.87h-3.28V46.15h2.66l.47,1.56h.15a3.77,3.77,0,0,1,3.4-1.78A3.88,3.88,0,0,1,171,47.57a7.6,7.6,0,0,1,1.2,4.56,9,9,0,0,1-.56,3.35A4.66,4.66,0,0,1,170,57.63,4.06,4.06,0,0,1,167.54,58.38Zm-1-9.83a2.08,2.08,0,0,0-1.77.74,4.21,4.21,0,0,0-.58,2.47v.35a5.07,5.07,0,0,0,.57,2.77,2,2,0,0,0,1.82.84c1.47,0,2.2-1.21,2.2-3.63a5.21,5.21,0,0,0-.54-2.66A1.85,1.85,0,0,0,166.57,48.55Z"/><path d="M186,58.16h-3.28v-7c0-1.74-.64-2.6-1.93-2.6a2.21,2.21,0,0,0-2,.93,5.68,5.68,0,0,0-.61,3v5.65h-3.28V41.45h3.28v3.4c0,.27,0,.89-.08,1.87l-.07,1h.17a3.78,3.78,0,0,1,3.48-1.76,4.28,4.28,0,0,1,3.21,1.13,4.54,4.54,0,0,1,1.1,3.27Z"/><path d="M197,58.16l-.64-1.63h-.08a4.9,4.9,0,0,1-1.7,1.44,5.52,5.52,0,0,1-2.29.41,3.68,3.68,0,0,1-2.72-1,3.81,3.81,0,0,1-1-2.82,3.18,3.18,0,0,1,1.33-2.82,7.77,7.77,0,0,1,4-1l2.08-.07v-.52a1.63,1.63,0,0,0-1.87-1.83,8.48,8.48,0,0,0-3.38.87L189.64,47a9.82,9.82,0,0,1,4.6-1.09A5.7,5.7,0,0,1,198,47a3.89,3.89,0,0,1,1.29,3.2v8Zm-1-5.56-1.27,0a4.09,4.09,0,0,0-2.12.51,1.62,1.62,0,0,0-.7,1.44c0,.93.53,1.39,1.59,1.39a2.51,2.51,0,0,0,1.82-.66,2.3,2.3,0,0,0,.68-1.74Z"/><path d="M213.69,58.16h-3.27v-7A3.42,3.42,0,0,0,210,49.2a1.67,1.67,0,0,0-1.48-.65,2.21,2.21,0,0,0-2,.91,5.7,5.7,0,0,0-.62,3v5.65h-3.27v-12h2.5l.44,1.54h.18a3.52,3.52,0,0,1,1.51-1.32,5.1,5.1,0,0,1,2.19-.44,4.17,4.17,0,0,1,3.18,1.13,4.54,4.54,0,0,1,1.08,3.27Z"/><path d="M216.93,43.05c0-1.07.59-1.6,1.78-1.6s1.78.53,1.78,1.6a1.52,1.52,0,0,1-.44,1.18,1.86,1.86,0,0,1-1.34.43C217.52,44.66,216.93,44.12,216.93,43.05Zm3.41,15.11h-3.27v-12h3.27Z"/><path d="M229.22,58.38a6.2,6.2,0,0,1-4.54-1.61,6,6,0,0,1-1.63-4.53,6.66,6.66,0,0,1,1.51-4.67,5.41,5.41,0,0,1,4.17-1.64,5.29,5.29,0,0,1,4,1.45,5.49,5.49,0,0,1,1.42,4V53h-7.75a3.15,3.15,0,0,0,.83,2.18,2.88,2.88,0,0,0,2.17.79,9.07,9.07,0,0,0,2-.23,10.27,10.27,0,0,0,2-.72v2.54a8,8,0,0,1-1.84.64A11.55,11.55,0,0,1,229.22,58.38Zm-.47-10.12a2.09,2.09,0,0,0-1.63.66,3,3,0,0,0-.67,1.87H231a2.69,2.69,0,0,0-.63-1.87A2.15,2.15,0,0,0,228.75,48.26Z"/><path d="M255.38,58.16H251.6l-4.11-6.62-1.41,1v5.61h-3.33V42.46h3.33v7.18l1.31-1.85,4.26-5.33h3.69l-5.48,6.95Z"/><path d="M263.81,45.93a5.6,5.6,0,0,1,1.1.09l-.24,3.07a3.91,3.91,0,0,0-1-.1,3.48,3.48,0,0,0-2.44.8,2.9,2.9,0,0,0-.88,2.26v6.11H257.1v-12h2.48l.49,2h.16a4.63,4.63,0,0,1,1.51-1.63A3.71,3.71,0,0,1,263.81,45.93Z"/><path d="M278,52.13a6.46,6.46,0,0,1-1.55,4.59,5.63,5.63,0,0,1-4.31,1.66,6.08,6.08,0,0,1-3-.76,5,5,0,0,1-2-2.18,7.31,7.31,0,0,1-.71-3.31,6.43,6.43,0,0,1,1.54-4.57,5.62,5.62,0,0,1,4.32-1.63,6.08,6.08,0,0,1,3,.75,5,5,0,0,1,2,2.16A7.22,7.22,0,0,1,278,52.13Zm-8.31,0a5.05,5.05,0,0,0,.59,2.7,2.1,2.1,0,0,0,1.91.91,2.06,2.06,0,0,0,1.88-.9,5.17,5.17,0,0,0,.58-2.71,5,5,0,0,0-.58-2.67,2.48,2.48,0,0,0-3.8,0A5,5,0,0,0,269.7,52.13Z"/><path d="M291.17,46.15v1.67l-1.88.48a3.31,3.31,0,0,1,.51,1.8,3.67,3.67,0,0,1-1.34,3,5.85,5.85,0,0,1-3.75,1.08l-.59,0-.48,0a1.1,1.1,0,0,0-.51.86c0,.47.6.71,1.81.71h2a4.63,4.63,0,0,1,3,.85A3,3,0,0,1,291,59a3.72,3.72,0,0,1-1.76,3.27,9.17,9.17,0,0,1-5,1.16,7,7,0,0,1-3.84-.88,2.76,2.76,0,0,1-1.33-2.45,2.58,2.58,0,0,1,.68-1.82,3.82,3.82,0,0,1,2-1,2.19,2.19,0,0,1-.88-.71,1.65,1.65,0,0,1-.37-1,1.68,1.68,0,0,1,.4-1.15,4.47,4.47,0,0,1,1.14-.89,3.16,3.16,0,0,1-1.49-1.31A4,4,0,0,1,280,50a3.76,3.76,0,0,1,1.28-3,5.5,5.5,0,0,1,3.65-1.07,9.44,9.44,0,0,1,1.2.09c.46.06.76.1.89.13ZM281.9,59.86a1.17,1.17,0,0,0,.65,1.06,3.54,3.54,0,0,0,1.82.39,6.35,6.35,0,0,0,2.76-.49,1.48,1.48,0,0,0,1-1.32.93.93,0,0,0-.59-.93,4.93,4.93,0,0,0-1.83-.26H284a2.54,2.54,0,0,0-1.51.43A1.3,1.3,0,0,0,281.9,59.86Zm1.19-9.78a2.44,2.44,0,0,0,.45,1.55,1.9,1.9,0,0,0,2.71,0,2.57,2.57,0,0,0,.43-1.55c0-1.44-.6-2.17-1.79-2.17S283.09,48.64,283.09,50.08Z"/><rect class="cls-10" x="61.5" y="314.5" width="248" height="137" rx="18.79"/><path class="cls-11" d="M72.46,339.69V324.52h8.48v1.6H74.61V331h5.3v1.58h-5.3v5.5h6.77v1.61Z"/><path class="cls-11" d="M80.3,343.47v-1.59a6.33,6.33,0,0,0,2.16.59,1.54,1.54,0,0,0,1.41-.55,4.74,4.74,0,0,0,.35-2.23V328.56h2v11.13q0,4.31-3.63,4.3A6,6,0,0,1,80.3,343.47Zm3.92-16.93v-2h2v2Z"/><path class="cls-11" d="M96.93,343.74V328.56h2v2.09a4,4,0,0,1,3.72-2.34,3.8,3.8,0,0,1,3.16,1.47,6.28,6.28,0,0,1,1.15,4,7.13,7.13,0,0,1-1.3,4.47,4.33,4.33,0,0,1-6.73.18v5.31Zm2-6.7a4.59,4.59,0,0,0,3,1.39q2.91,0,2.91-4.44,0-3.92-2.58-3.92a4.47,4.47,0,0,0-3.3,1.84Z"/><path class="cls-11" d="M110.15,339.69V328.56h2v2.09a3.77,3.77,0,0,1,3.49-2.34,4.85,4.85,0,0,1,.64.05v1.89a2.81,2.81,0,0,0-.92-.18q-1.92,0-3.21,2.28v7.34Z"/><path class="cls-11" d="M117.86,340l1.34-1.7,0,0a6,6,0,0,1-1.31-4.06,6.11,6.11,0,0,1,1.43-4.27,5,5,0,0,1,3.88-1.57,5.45,5.45,0,0,1,3.12.87l.7-.87h1.5L127.16,330l0,0a6.33,6.33,0,0,1,1.31,4.07,6.11,6.11,0,0,1-1.43,4.26,5,5,0,0,1-3.88,1.58,5.58,5.58,0,0,1-3.11-.87l-.69.87Zm2.6-3.31,4.75-6.05a2.88,2.88,0,0,0-2-.76q-3.18,0-3.18,4.25A6.63,6.63,0,0,0,120.46,336.64Zm5.44-5-4.75,6.06a2.81,2.81,0,0,0,2,.75q3.19,0,3.19-4.26A7,7,0,0,0,125.9,331.62Z"/><path class="cls-11" d="M134,339.69l-4.14-11.13h2l3.24,8.66,3.41-8.66h1.89L136,339.69Z"/><path class="cls-11" d="M149.16,339.69V323.5h2v16.19Z"/><path class="cls-11" d="M155.23,326.54v-2h2v2Zm0,13.15V328.56h2v11.13Z"/><path class="cls-11" d="M161.34,343.39l.24-1.75a8,8,0,0,0,3.45.83q3.42,0,3.42-3.62V337.1a3.8,3.8,0,0,1-3.68,2.33A3.85,3.85,0,0,1,161.6,338a6,6,0,0,1-1.18-3.93,6.21,6.21,0,0,1,1.34-4.14,4.32,4.32,0,0,1,3.48-1.6,4.14,4.14,0,0,1,3.21,1.52v-1.27h2v8.1a20,20,0,0,1-.28,3.87,4.23,4.23,0,0,1-1,2.05,5.38,5.38,0,0,1-4.11,1.41A11.61,11.61,0,0,1,161.34,343.39Zm7.11-7.55v-4.63a4,4,0,0,0-2.91-1.38,2.53,2.53,0,0,0-2.18,1.11,5.23,5.23,0,0,0-.79,3.07q0,3.66,2.57,3.66A4.4,4.4,0,0,0,168.45,335.84Z"/><path class="cls-11" d="M182.55,339.33a12.31,12.31,0,0,1-3.47.62,5.31,5.31,0,0,1-4-1.64,5.92,5.92,0,0,1-1.55-4.24,6.22,6.22,0,0,1,1.37-4.15,4.38,4.38,0,0,1,3.5-1.62,3.71,3.71,0,0,1,3.12,1.43,6.57,6.57,0,0,1,1.11,4.09v.62h-7c.3,2.65,1.59,4,3.89,4a9.28,9.28,0,0,0,3.09-.68Zm-6.89-6.41h4.92c0-2.07-.78-3.1-2.32-3.1S175.84,330.85,175.66,332.92Z"/><path class="cls-11" d="M198.48,338.28A5.33,5.33,0,0,1,195,340a3.17,3.17,0,0,1-2.29-.87,2.9,2.9,0,0,1-.92-2.19,3.11,3.11,0,0,1,1.54-2.8,8.09,8.09,0,0,1,4.39-1h.48v-1.35a1.73,1.73,0,0,0-2-1.93,7.36,7.36,0,0,0-3.45,1v-1.67a10.22,10.22,0,0,1,3.82-.83,3.87,3.87,0,0,1,2.75.84,3.41,3.41,0,0,1,.89,2.61v5.05c0,1.15.36,1.73,1.07,1.73a2.31,2.31,0,0,0,.39,0l.14,1.12a3.46,3.46,0,0,1-1.52.33C199.34,340,198.74,339.39,198.48,338.28Zm-.3-1.1V334.3l-.68,0a5.06,5.06,0,0,0-2.68.63,1.88,1.88,0,0,0-1,1.65,1.62,1.62,0,0,0,.52,1.23,1.69,1.69,0,0,0,1.25.51A4.23,4.23,0,0,0,198.18,337.18Z"/><path class="cls-11" d="M207.68,340a3.22,3.22,0,0,1-2.4-.88,3.35,3.35,0,0,1-.86-2.46v-6.54H203v-1.51h1.4v-2l2-.2v2.22h2.91v1.51h-2.91v6.18c0,1.45.62,2.18,1.88,2.18a4.41,4.41,0,0,0,1-.13v1.39A6.41,6.41,0,0,1,207.68,340Z"/><path class="cls-11" d="M221.79,340a11.22,11.22,0,0,1-3.37-.65v-1.85a8.07,8.07,0,0,0,3.45,1,2.21,2.21,0,0,0,1.44-.47,1.46,1.46,0,0,0,.58-1.18c0-.69-.54-1.26-1.61-1.71l-1.18-.51c-1.74-.72-2.62-1.76-2.62-3.12a2.78,2.78,0,0,1,1-2.29,4.31,4.31,0,0,1,2.82-.84,12.29,12.29,0,0,1,2.31.26l.42.08v1.68a9.89,9.89,0,0,0-2.69-.5q-1.95,0-1.95,1.41c0,.61.49,1.12,1.48,1.54l1,.41a6.59,6.59,0,0,1,2.34,1.47,2.8,2.8,0,0,1,.69,1.93,3,3,0,0,1-1.16,2.41A4.53,4.53,0,0,1,221.79,340Z"/><path class="cls-11" d="M237.7,339.33a12.31,12.31,0,0,1-3.48.62,5.29,5.29,0,0,1-4-1.64,5.88,5.88,0,0,1-1.55-4.24,6.16,6.16,0,0,1,1.37-4.15,4.38,4.38,0,0,1,3.5-1.62,3.73,3.73,0,0,1,3.12,1.43,6.64,6.64,0,0,1,1.1,4.09v.62h-7c.29,2.65,1.59,4,3.88,4a9.33,9.33,0,0,0,3.1-.68Zm-6.89-6.41h4.91c0-2.07-.77-3.1-2.32-3.1S231,330.85,230.81,332.92Z"/><path class="cls-11" d="M255,339.69V337.6a4,4,0,0,1-3.71,2.35,3.82,3.82,0,0,1-3.17-1.47,6.31,6.31,0,0,1-1.15-4,7.13,7.13,0,0,1,1.31-4.47,4.32,4.32,0,0,1,6.72-.17V323.5h2v16.19Zm0-8.48a4.65,4.65,0,0,0-3-1.38q-2.91,0-2.91,4.44c0,2.6.87,3.9,2.59,3.9a4.49,4.49,0,0,0,3.29-1.83Z"/><path class="cls-11" d="M269.26,339.33a12.31,12.31,0,0,1-3.47.62,5.3,5.3,0,0,1-4-1.64,5.92,5.92,0,0,1-1.55-4.24,6.16,6.16,0,0,1,1.37-4.15,4.38,4.38,0,0,1,3.5-1.62,3.71,3.71,0,0,1,3.12,1.43,6.57,6.57,0,0,1,1.1,4.09v.62h-7q.44,4,3.89,4a9.28,9.28,0,0,0,3.09-.68Zm-6.89-6.41h4.91c0-2.07-.77-3.1-2.32-3.1S262.55,330.85,262.37,332.92Z"/><path class="cls-11" d="M276.14,340a3.25,3.25,0,0,1-2.4-.88,3.4,3.4,0,0,1-.86-2.46v-6.54h-1.39v-1.51h1.39v-2l2-.2v2.22h2.91v1.51H274.9v6.18c0,1.45.63,2.18,1.89,2.18a4.33,4.33,0,0,0,1-.13v1.39A6.28,6.28,0,0,1,276.14,340Z"/><path class="cls-11" d="M72.52,364.89V348.7h2v7.15a4.66,4.66,0,0,1,3.92-2.34,3,3,0,0,1,2.3.92,3.42,3.42,0,0,1,.86,2.46v8h-2v-7.34a3.24,3.24,0,0,0-.37-1.77,1.35,1.35,0,0,0-1.2-.53c-1.24,0-2.41.81-3.5,2.43v7.21Z"/><path class="cls-11" d="M93.71,364.53a12.31,12.31,0,0,1-3.47.62,5.31,5.31,0,0,1-4-1.64,5.92,5.92,0,0,1-1.55-4.24A6.22,6.22,0,0,1,86,355.12a4.38,4.38,0,0,1,3.5-1.62,3.71,3.71,0,0,1,3.12,1.43A6.57,6.57,0,0,1,93.77,359v.62h-7c.3,2.65,1.59,4,3.89,4a9.28,9.28,0,0,0,3.09-.68Zm-6.89-6.41h4.92c0-2.07-.78-3.1-2.32-3.1S87,356.05,86.82,358.12Z"/><path class="cls-11" d="M97.25,364.89V353.76h2v2.09a3.77,3.77,0,0,1,3.49-2.34,4.85,4.85,0,0,1,.64.05v1.89a2.81,2.81,0,0,0-.92-.18q-1.92,0-3.21,2.28v7.34Z"/><path class="cls-11" d="M112.49,365V348.7h2v7.15a4,4,0,0,1,3.72-2.34A3.82,3.82,0,0,1,121.4,355a6.34,6.34,0,0,1,1.15,4,7.13,7.13,0,0,1-1.31,4.47,4.33,4.33,0,0,1-6.73.18l-.25,1.38Zm2-2.77a4.58,4.58,0,0,0,3,1.39c1.94,0,2.92-1.48,2.92-4.44,0-2.61-.87-3.92-2.59-3.92a4.47,4.47,0,0,0-3.3,1.84Z"/><path class="cls-11" d="M125.71,351.74v-2h2v2Zm0,13.15V353.76h2v11.13Z"/><path class="cls-11" d="M131.78,364.89V348.7h2v16.19Z"/><path class="cls-11" d="M137.85,364.89V348.7h2v16.19Z"/><path class="cls-11" d="M152.08,364.53a12.31,12.31,0,0,1-3.48.62,5.28,5.28,0,0,1-4-1.64,5.88,5.88,0,0,1-1.55-4.24,6.21,6.21,0,0,1,1.36-4.15,4.39,4.39,0,0,1,3.51-1.62,3.73,3.73,0,0,1,3.12,1.43,6.64,6.64,0,0,1,1.1,4.09v.62h-7c.29,2.65,1.59,4,3.88,4a9.33,9.33,0,0,0,3.1-.68Zm-6.89-6.41h4.91c0-2.07-.77-3.1-2.32-3.1S145.37,356.05,145.19,358.12Z"/><path class="cls-11" d="M162.76,364.89V362.8a4,4,0,0,1-3.71,2.35,3.8,3.8,0,0,1-3.16-1.47,6.31,6.31,0,0,1-1.15-4,7.13,7.13,0,0,1,1.3-4.47,4.32,4.32,0,0,1,6.72-.17V348.7h2v16.19Zm0-8.48a4.61,4.61,0,0,0-3-1.38q-2.89,0-2.9,4.44,0,3.9,2.58,3.9a4.49,4.49,0,0,0,3.29-1.83Z"/><path class="cls-11" d="M177,364.53a12.43,12.43,0,0,1-3.48.62,5.28,5.28,0,0,1-4-1.64,5.88,5.88,0,0,1-1.56-4.24,6.22,6.22,0,0,1,1.37-4.15,4.38,4.38,0,0,1,3.5-1.62,3.74,3.74,0,0,1,3.13,1.43,6.64,6.64,0,0,1,1.1,4.09v.62h-7c.3,2.65,1.59,4,3.89,4a9.38,9.38,0,0,0,3.1-.68Zm-6.89-6.41H175c0-2.07-.77-3.1-2.32-3.1S170.28,356.05,170.11,358.12Z"/><path class="cls-11" d="M195.34,364.53a12.31,12.31,0,0,1-3.47.62,5.3,5.3,0,0,1-4-1.64,5.92,5.92,0,0,1-1.55-4.24,6.16,6.16,0,0,1,1.37-4.15,4.38,4.38,0,0,1,3.5-1.62,3.73,3.73,0,0,1,3.12,1.43,6.57,6.57,0,0,1,1.1,4.09v.62h-7c.29,2.65,1.59,4,3.88,4a9.28,9.28,0,0,0,3.1-.68Zm-6.89-6.41h4.91c0-2.07-.77-3.1-2.32-3.1S188.63,356.05,188.45,358.12Z"/><path class="cls-11" d="M198.88,364.89V353.76h2v2.09a4.65,4.65,0,0,1,3.92-2.34,3,3,0,0,1,2.3.92,3.42,3.42,0,0,1,.86,2.46v8h-2v-7.34a3.25,3.25,0,0,0-.36-1.77,1.35,1.35,0,0,0-1.2-.53c-1.24,0-2.41.81-3.5,2.43v7.21Z"/><path class="cls-11" d="M224.3,363.48a5.33,5.33,0,0,1-3.5,1.67,3.21,3.21,0,0,1-2.3-.87,2.93,2.93,0,0,1-.91-2.19,3.13,3.13,0,0,1,1.53-2.8,8.15,8.15,0,0,1,4.4-1H224V357a1.73,1.73,0,0,0-2-1.93,7.36,7.36,0,0,0-3.45,1v-1.67a10.22,10.22,0,0,1,3.82-.83,3.88,3.88,0,0,1,2.75.84A3.45,3.45,0,0,1,226,357V362c0,1.16.36,1.73,1.07,1.73a2.31,2.31,0,0,0,.39,0l.14,1.12a3.46,3.46,0,0,1-1.52.33C225.16,365.15,224.56,364.59,224.3,363.48Zm-.3-1.1V359.5l-.68,0a5.06,5.06,0,0,0-2.68.63,1.88,1.88,0,0,0-1,1.65,1.64,1.64,0,0,0,.51,1.23,1.73,1.73,0,0,0,1.26.51A4.23,4.23,0,0,0,224,362.38Z"/><path class="cls-11" d="M232.56,355.27v9.62h-2v-9.62H229v-1.51h1.58v-1.34q0-4,3.63-4a9.49,9.49,0,0,1,2.31.34v1.6a7.9,7.9,0,0,0-2.18-.42,1.61,1.61,0,0,0-1.36.48,3,3,0,0,0-.37,1.77v1.55h2.78v1.51Z"/><path class="cls-11" d="M79.67,390.09V388A4,4,0,0,1,76,390.35a3.82,3.82,0,0,1-3.17-1.47,6.31,6.31,0,0,1-1.15-4A7.07,7.07,0,0,1,73,380.4a4.32,4.32,0,0,1,6.72-.17V373.9h2v16.19Zm0-8.48a4.65,4.65,0,0,0-3-1.38q-2.89,0-2.9,4.44,0,3.9,2.59,3.9a4.51,4.51,0,0,0,3.29-1.83Z"/><path class="cls-11" d="M85.74,390.09V379h2v2.09a3.77,3.77,0,0,1,3.48-2.34,5,5,0,0,1,.65.05v1.89a2.91,2.91,0,0,0-.92-.18q-1.92,0-3.21,2.28v7.34Z"/><path class="cls-11" d="M102.49,389.73a12.31,12.31,0,0,1-3.47.62,5.31,5.31,0,0,1-4-1.64,5.92,5.92,0,0,1-1.55-4.24,6.16,6.16,0,0,1,1.37-4.15,4.38,4.38,0,0,1,3.5-1.62,3.71,3.71,0,0,1,3.12,1.43,6.57,6.57,0,0,1,1.1,4.09v.62h-7q.43,4,3.89,4a9.28,9.28,0,0,0,3.09-.68Zm-6.89-6.41h4.91c0-2.07-.77-3.1-2.31-3.1S95.78,381.25,95.6,383.32Z"/><path class="cls-11" d="M106,390.09V379h2v2.09a4.66,4.66,0,0,1,3.92-2.34,3,3,0,0,1,2.3.92,3.42,3.42,0,0,1,.86,2.46v8h-2v-7.34a3.24,3.24,0,0,0-.37-1.77,1.35,1.35,0,0,0-1.2-.53c-1.24,0-2.41.81-3.5,2.43v7.21Z"/><path class="cls-11" d="M119.1,393.79l.24-1.75a8.08,8.08,0,0,0,3.45.83q3.42,0,3.42-3.62V387.5a3.79,3.79,0,0,1-3.67,2.33,3.89,3.89,0,0,1-3.18-1.45,6,6,0,0,1-1.18-3.93,6.26,6.26,0,0,1,1.34-4.14,4.33,4.33,0,0,1,3.48-1.6,4.14,4.14,0,0,1,3.21,1.52V379h2v8.1a20.15,20.15,0,0,1-.27,3.87,4.23,4.23,0,0,1-1,2.05,5.38,5.38,0,0,1-4.11,1.41A11.67,11.67,0,0,1,119.1,393.79Zm7.11-7.55v-4.63a4,4,0,0,0-2.9-1.38,2.55,2.55,0,0,0-2.19,1.11,5.3,5.3,0,0,0-.79,3.07q0,3.66,2.58,3.66A4.36,4.36,0,0,0,126.21,386.24Z"/><path class="cls-11" d="M140.32,389.73a12.37,12.37,0,0,1-3.48.62,5.28,5.28,0,0,1-4-1.64,5.88,5.88,0,0,1-1.55-4.24,6.21,6.21,0,0,1,1.36-4.15,4.39,4.39,0,0,1,3.51-1.62,3.73,3.73,0,0,1,3.12,1.43,6.64,6.64,0,0,1,1.1,4.09v.62h-7c.29,2.65,1.59,4,3.88,4a9.33,9.33,0,0,0,3.1-.68Zm-6.89-6.41h4.91c0-2.07-.77-3.1-2.32-3.1S133.61,381.25,133.43,383.32Z"/><path class="cls-11" d="M143.86,390.09V379h2v2.09a4.65,4.65,0,0,1,3.91-2.34,3,3,0,0,1,2.31.92,3.46,3.46,0,0,1,.86,2.46v8h-2v-7.34a3.25,3.25,0,0,0-.36-1.77,1.38,1.38,0,0,0-1.21-.53c-1.23,0-2.4.81-3.49,2.43v7.21Z"/><path class="cls-11" d="M165.05,389.73a12.31,12.31,0,0,1-3.47.62,5.3,5.3,0,0,1-4-1.64,5.92,5.92,0,0,1-1.55-4.24,6.16,6.16,0,0,1,1.37-4.15,4.38,4.38,0,0,1,3.5-1.62,3.72,3.72,0,0,1,3.12,1.43,6.64,6.64,0,0,1,1.1,4.09v.62h-7q.44,4,3.89,4a9.33,9.33,0,0,0,3.09-.68Zm-6.89-6.41h4.91c0-2.07-.77-3.1-2.32-3.1S158.34,381.25,158.16,383.32Z"/><path class="cls-11" d="M178.58,390.35a3.22,3.22,0,0,1-2.4-.88,3.35,3.35,0,0,1-.86-2.46v-6.54h-1.4V379h1.4v-2l2-.2V379h2.91v1.51h-2.91v6.18c0,1.45.62,2.18,1.88,2.18a4.41,4.41,0,0,0,1-.13v1.39A6.41,6.41,0,0,1,178.58,390.35Z"/><path class="cls-11" d="M187.45,390.35a4.87,4.87,0,0,1-3.82-1.59,7,7,0,0,1,0-8.49,5.61,5.61,0,0,1,7.76,0,7,7,0,0,1,0,8.52A5.08,5.08,0,0,1,187.45,390.35Zm0-1.52q3.21,0,3.21-4.33t-3.17-4.27q-3.17,0-3.16,4.29T187.48,388.83Z"/><path class="cls-11" d="M196,393.79l.23-1.75a8.09,8.09,0,0,0,3.46.83c2.28,0,3.41-1.21,3.41-3.62V387.5a3.77,3.77,0,0,1-3.67,2.33,3.85,3.85,0,0,1-3.17-1.45,6,6,0,0,1-1.18-3.93,6.21,6.21,0,0,1,1.34-4.14,4.3,4.3,0,0,1,3.47-1.6,4.11,4.11,0,0,1,3.21,1.52V379h2v8.1a20.15,20.15,0,0,1-.27,3.87,4.23,4.23,0,0,1-1,2.05,5.38,5.38,0,0,1-4.11,1.41A11.61,11.61,0,0,1,196,393.79Zm7.1-7.55v-4.63a4,4,0,0,0-2.9-1.38,2.52,2.52,0,0,0-2.18,1.11,5.23,5.23,0,0,0-.79,3.07q0,3.66,2.57,3.66A4.36,4.36,0,0,0,203.13,386.24Z"/><path class="cls-11" d="M215.73,376.94v-2h2v2Zm0,13.15V379h2v11.13Z"/><path class="cls-11" d="M221.84,393.79l.23-1.75a8.09,8.09,0,0,0,3.46.83q3.41,0,3.41-3.62V387.5a3.78,3.78,0,0,1-3.67,2.33,3.89,3.89,0,0,1-3.18-1.45,6.1,6.1,0,0,1-1.18-3.93,6.21,6.21,0,0,1,1.35-4.14,4.3,4.3,0,0,1,3.47-1.6,4.11,4.11,0,0,1,3.21,1.52V379h2v8.1a20.15,20.15,0,0,1-.27,3.87,4.23,4.23,0,0,1-1,2.05,5.38,5.38,0,0,1-4.11,1.41A11.61,11.61,0,0,1,221.84,393.79Zm7.1-7.55v-4.63a4,4,0,0,0-2.9-1.38,2.52,2.52,0,0,0-2.18,1.11,5.23,5.23,0,0,0-.79,3.07q0,3.66,2.57,3.66A4.36,4.36,0,0,0,228.94,386.24Z"/><path class="cls-11" d="M240.63,388.68a5.31,5.31,0,0,1-3.49,1.67,3.19,3.19,0,0,1-2.3-.87,2.89,2.89,0,0,1-.91-2.19,3.12,3.12,0,0,1,1.53-2.8,8.11,8.11,0,0,1,4.39-1h.49v-1.35a1.73,1.73,0,0,0-2-1.93,7.4,7.4,0,0,0-3.46,1v-1.67a10.27,10.27,0,0,1,3.82-.83,3.9,3.9,0,0,1,2.76.84,3.45,3.45,0,0,1,.89,2.61v5c0,1.15.35,1.73,1.06,1.73a2.31,2.31,0,0,0,.39,0L244,390a3.49,3.49,0,0,1-1.52.33C241.49,390.35,240.89,389.79,240.63,388.68Zm-.29-1.1V384.7l-.68,0a5.1,5.1,0,0,0-2.69.63,1.88,1.88,0,0,0-1,1.65,1.64,1.64,0,0,0,.51,1.23,1.71,1.71,0,0,0,1.25.51A4.26,4.26,0,0,0,240.34,387.58Zm-1.63-10.64a2.19,2.19,0,0,1-1.63-.69,2.23,2.23,0,0,1-.67-1.64,2.26,2.26,0,0,1,.67-1.65,2.29,2.29,0,0,1,1.66-.68,2.24,2.24,0,0,1,1.64.68,2.34,2.34,0,0,1,0,3.3A2.28,2.28,0,0,1,238.71,376.94Zm0-.89a1.46,1.46,0,0,0,1-.42,1.46,1.46,0,0,0,0-2.05,1.42,1.42,0,0,0-1-.42,1.43,1.43,0,0,0-1.45,1.45,1.42,1.42,0,0,0,.42,1A1.38,1.38,0,0,0,238.71,376.05Z"/><path class="cls-11" d="M246.49,390.09V379h2v2.09a3.77,3.77,0,0,1,3.48-2.34,5,5,0,0,1,.65.05v1.89a2.91,2.91,0,0,0-.92-.18q-1.92,0-3.21,2.28v7.34Z"/><path class="cls-11" d="M261.72,376.94v-2h2v2Zm0,13.15V379h2v11.13Z"/><path class="cls-11" d="M76.88,415.55A4.89,4.89,0,0,1,73.06,414a7,7,0,0,1,0-8.49,5.61,5.61,0,0,1,7.76,0,7.06,7.06,0,0,1,0,8.52A5.11,5.11,0,0,1,76.88,415.55Zm0-1.52q3.21,0,3.21-4.33T77,405.43q-3.17,0-3.16,4.29T76.91,414Z"/><path class="cls-11" d="M85.42,415.29V404.16h2v2.09a4.37,4.37,0,0,1,3.79-2.34,3.05,3.05,0,0,1,3,2.34A4.26,4.26,0,0,1,98,403.9a3,3,0,0,1,2.29.87,3.39,3.39,0,0,1,.81,2.42v8.1h-2v-7.78c0-1.27-.5-1.91-1.51-1.91s-2.14.74-3.29,2.23v7.46h-2v-7.78c0-1.28-.51-1.92-1.54-1.92s-2.11.75-3.27,2.24v7.46Z"/><path class="cls-11" d="M105,415.29V399.1h2v10.46l4.72-5.4h2.18l-4.51,5.19,5.44,5.94h-2.58L107,409.58v5.71Z"/><path class="cls-11" d="M117.3,415.29V399.1h2v16.19Z"/><path class="cls-11" d="M129.64,413.31a5.45,5.45,0,0,1-4,2.24,3.19,3.19,0,0,1-2.3-.87,2.89,2.89,0,0,1-.91-2.19,3.12,3.12,0,0,1,1.53-2.8,8.09,8.09,0,0,1,4.39-1h.48v-1.35a2,2,0,0,0-.49-1.45,2.1,2.1,0,0,0-1.5-.48,7.39,7.39,0,0,0-3.45,1v-1.67a10.22,10.22,0,0,1,3.82-.83,4.05,4.05,0,0,1,3.15,1.24,4.25,4.25,0,0,1,3.11-1.24,3.65,3.65,0,0,1,3.21,1.53,8,8,0,0,1,1.07,4.6h-6.89a4.84,4.84,0,0,0,1.08,3,3.49,3.49,0,0,0,2.67,1,8,8,0,0,0,3.14-.73v1.61a11.84,11.84,0,0,1-3.68.64,5.69,5.69,0,0,1-2.57-.56A4.83,4.83,0,0,1,129.64,413.31Zm-.83-.53V409.9l-.67,0a5.08,5.08,0,0,0-2.69.63,1.88,1.88,0,0,0-1,1.65,1.64,1.64,0,0,0,.51,1.23,1.71,1.71,0,0,0,1.25.51A4.23,4.23,0,0,0,128.81,412.78Zm2.1-4.13h4.67a4.29,4.29,0,0,0-.55-2.42,1.84,1.84,0,0,0-1.64-.81,2.06,2.06,0,0,0-1.74.81A4.53,4.53,0,0,0,130.91,408.65Z"/><path class="cls-11" d="M148.39,415.29V413.2a4,4,0,0,1-3.71,2.35,3.82,3.82,0,0,1-3.17-1.47,6.31,6.31,0,0,1-1.15-4,7.13,7.13,0,0,1,1.31-4.47,4.32,4.32,0,0,1,6.72-.17V399.1h2v16.19Zm0-8.48a4.65,4.65,0,0,0-3-1.38q-2.91,0-2.91,4.44c0,2.6.87,3.9,2.59,3.9a4.49,4.49,0,0,0,3.29-1.83Z"/><path class="cls-11" d="M154.46,415.29V404.16h2v2.09a4.65,4.65,0,0,1,3.92-2.34,3,3,0,0,1,2.3.92,3.42,3.42,0,0,1,.86,2.46v8h-2V408a3.25,3.25,0,0,0-.36-1.77,1.35,1.35,0,0,0-1.2-.53c-1.24,0-2.41.81-3.5,2.43v7.21Z"/><path class="cls-11" d="M167.49,402.14v-2h2v2Zm0,13.15V404.16h2v11.13Z"/><path class="cls-11" d="M173.56,415.29V404.16h2v2.09a4.66,4.66,0,0,1,3.92-2.34,3,3,0,0,1,2.31.92,3.46,3.46,0,0,1,.86,2.46v8h-2V408a3.15,3.15,0,0,0-.37-1.77,1.35,1.35,0,0,0-1.2-.53c-1.24,0-2.4.81-3.5,2.43v7.21Z"/><path class="cls-11" d="M186.64,419l.23-1.75a8.09,8.09,0,0,0,3.46.83q3.4,0,3.41-3.62V412.7a3.78,3.78,0,0,1-3.67,2.33,3.89,3.89,0,0,1-3.18-1.45,6.1,6.1,0,0,1-1.18-3.93,6.21,6.21,0,0,1,1.35-4.14,4.3,4.3,0,0,1,3.47-1.6,4.14,4.14,0,0,1,3.21,1.52v-1.27h2v8.1a20.15,20.15,0,0,1-.27,3.87,4.23,4.23,0,0,1-1,2.05,5.38,5.38,0,0,1-4.11,1.41A11.61,11.61,0,0,1,186.64,419Zm7.1-7.55v-4.63a4,4,0,0,0-2.9-1.38,2.52,2.52,0,0,0-2.18,1.11,5.23,5.23,0,0,0-.79,3.07c0,2.44.85,3.66,2.57,3.66A4.36,4.36,0,0,0,193.74,411.44Z"/><path class="cls-11" d="M207.85,414.93a12.31,12.31,0,0,1-3.47.62,5.3,5.3,0,0,1-4-1.64,5.92,5.92,0,0,1-1.55-4.24,6.16,6.16,0,0,1,1.37-4.15,4.38,4.38,0,0,1,3.5-1.62,3.73,3.73,0,0,1,3.12,1.43,6.57,6.57,0,0,1,1.1,4.09V410h-7c.29,2.65,1.59,4,3.88,4a9.28,9.28,0,0,0,3.1-.68ZM201,408.52h4.91c0-2.07-.77-3.1-2.32-3.1S201.14,406.45,201,408.52Z"/><path class="cls-11" d="M211.39,415.29V404.16h2v2.09a4.65,4.65,0,0,1,3.92-2.34,3,3,0,0,1,2.3.92,3.42,3.42,0,0,1,.86,2.46v8h-2V408a3.25,3.25,0,0,0-.36-1.77,1.35,1.35,0,0,0-1.2-.53c-1.24,0-2.41.81-3.5,2.43v7.21Z"/><path class="cls-11" d="M236.81,413.88a5.33,5.33,0,0,1-3.5,1.67,3.21,3.21,0,0,1-2.3-.87,2.93,2.93,0,0,1-.91-2.19,3.12,3.12,0,0,1,1.53-2.8,8.15,8.15,0,0,1,4.4-1h.48v-1.35a1.73,1.73,0,0,0-2-1.93,7.36,7.36,0,0,0-3.45,1v-1.67a10.22,10.22,0,0,1,3.82-.83,3.88,3.88,0,0,1,2.75.84,3.45,3.45,0,0,1,.89,2.61v5.05c0,1.15.36,1.73,1.07,1.73a2.31,2.31,0,0,0,.39,0l.14,1.12a3.46,3.46,0,0,1-1.52.33C237.67,415.55,237.07,415,236.81,413.88Zm-.3-1.1V409.9l-.68,0a5.06,5.06,0,0,0-2.68.63,1.88,1.88,0,0,0-1,1.65,1.64,1.64,0,0,0,.51,1.23,1.73,1.73,0,0,0,1.26.51A4.23,4.23,0,0,0,236.51,412.78Z"/><path class="cls-11" d="M245.07,405.67v9.62h-2v-9.62h-1.58v-1.51H243v-1.34q0-4,3.63-4a9.49,9.49,0,0,1,2.31.34v1.6a7.89,7.89,0,0,0-2.19-.42,1.6,1.6,0,0,0-1.35.48,3,3,0,0,0-.37,1.77v1.55h2.78v1.51Z"/><path class="cls-11" d="M257,415.29V399.1h2v7.15a4.66,4.66,0,0,1,3.92-2.34,3,3,0,0,1,2.3.92,3.42,3.42,0,0,1,.86,2.46v8h-2V408a3.25,3.25,0,0,0-.36-1.77,1.36,1.36,0,0,0-1.21-.53c-1.23,0-2.4.81-3.49,2.43v7.21Z"/><path class="cls-11" d="M275.8,413.88a5.31,5.31,0,0,1-3.49,1.67,3.19,3.19,0,0,1-2.3-.87,2.89,2.89,0,0,1-.91-2.19,3.12,3.12,0,0,1,1.53-2.8,8.11,8.11,0,0,1,4.39-1h.49v-1.35a1.73,1.73,0,0,0-2-1.93,7.4,7.4,0,0,0-3.46,1v-1.67a10.27,10.27,0,0,1,3.83-.83,3.88,3.88,0,0,1,2.75.84,3.45,3.45,0,0,1,.89,2.61v5.05c0,1.15.35,1.73,1.06,1.73a2.31,2.31,0,0,0,.39,0l.15,1.12a3.49,3.49,0,0,1-1.52.33C276.67,415.55,276.06,415,275.8,413.88Zm-.29-1.1V409.9l-.68,0a5.1,5.1,0,0,0-2.69.63,1.88,1.88,0,0,0-1,1.65,1.64,1.64,0,0,0,.51,1.23,1.71,1.71,0,0,0,1.25.51A4.26,4.26,0,0,0,275.51,412.78Z"/><path class="cls-11" d="M281.66,415.29V404.16h2v2.09a4.37,4.37,0,0,1,3.79-2.34,3.05,3.05,0,0,1,3,2.34,4.25,4.25,0,0,1,3.73-2.35,3,3,0,0,1,2.29.87,3.39,3.39,0,0,1,.81,2.42v8.1h-2v-7.78c0-1.27-.51-1.91-1.51-1.91s-2.14.74-3.29,2.23v7.46h-2v-7.78c0-1.28-.52-1.92-1.54-1.92s-2.11.75-3.27,2.24v7.46Z"/><path class="cls-11" d="M72.52,440.49V429.35h2v2.1a4.66,4.66,0,0,1,3.92-2.34,3,3,0,0,1,2.3.92,3.42,3.42,0,0,1,.86,2.46v8h-2v-7.34a3.24,3.24,0,0,0-.37-1.77,1.35,1.35,0,0,0-1.2-.53c-1.24,0-2.41.81-3.5,2.43v7.21Z"/><path class="cls-11" d="M84.67,440.75,86,439l0,0a6,6,0,0,1-1.3-4.06,6.11,6.11,0,0,1,1.43-4.27A5,5,0,0,1,90,429.11a5.45,5.45,0,0,1,3.12.87l.7-.87h1.49L94,430.8l0,0a6.32,6.32,0,0,1,1.3,4.07,6.11,6.11,0,0,1-1.42,4.26A5,5,0,0,1,90,440.75a5.53,5.53,0,0,1-3.11-.87l-.69.87Zm2.6-3.31L92,431.39a2.84,2.84,0,0,0-2-.76c-2.12,0-3.18,1.41-3.18,4.25A6.62,6.62,0,0,0,87.27,437.44Zm5.44-5L88,438.48a2.81,2.81,0,0,0,2,.75q3.2,0,3.19-4.26A7.18,7.18,0,0,0,92.71,432.42Z"/><path class="cls-11" d="M98.45,440.49V429.35h2v2.1a3.77,3.77,0,0,1,3.49-2.34,4.85,4.85,0,0,1,.64.05v1.89a2.81,2.81,0,0,0-.92-.18q-1.92,0-3.21,2.28v7.34Z"/><path class="cls-11" d="M114.19,440.49V438.4a4,4,0,0,1-3.71,2.35,3.8,3.8,0,0,1-3.16-1.47,6.31,6.31,0,0,1-1.16-4,7.13,7.13,0,0,1,1.31-4.47,4.32,4.32,0,0,1,6.72-.17V424.3h2v16.19Zm0-8.48a4.63,4.63,0,0,0-3-1.38c-1.94,0-2.9,1.48-2.9,4.44q0,3.9,2.58,3.9a4.49,4.49,0,0,0,3.29-1.83Z"/><path class="cls-11" d="M128.42,440.13a12.31,12.31,0,0,1-3.47.62,5.31,5.31,0,0,1-4-1.64,5.92,5.92,0,0,1-1.55-4.24,6.22,6.22,0,0,1,1.37-4.15,4.38,4.38,0,0,1,3.5-1.62,3.71,3.71,0,0,1,3.12,1.43,6.57,6.57,0,0,1,1.11,4.09l0,.62h-7c.3,2.65,1.59,4,3.89,4a9.28,9.28,0,0,0,3.09-.68Zm-6.89-6.41h4.92c0-2.07-.78-3.1-2.32-3.1S121.71,431.65,121.53,433.72Z"/><path class="cls-11" d="M132,440.49V429.35h2v2.1a4.66,4.66,0,0,1,3.92-2.34,3,3,0,0,1,2.31.92,3.46,3.46,0,0,1,.86,2.46v8h-2v-7.34a3.15,3.15,0,0,0-.37-1.77,1.35,1.35,0,0,0-1.2-.53c-1.24,0-2.4.81-3.5,2.43v7.21Z"/><path class="cls-11" d="M145.54,436.44l-.26-8.09v-3h2v3l-.24,8.09Zm-.26,4.05v-2h2v2Z"/><circle class="cls-8" cx="42.5" cy="797.5" r="5"/><circle class="cls-8" cx="27.5" cy="797.5" r="5"/><circle class="cls-8" cx="27.5" cy="812.5" r="5"/><circle class="cls-8" cx="42.5" cy="812.5" r="5"/><path class="cls-8" d="M80,818.31l20.58.39a5.73,5.73,0,0,0,5.82-5.6l.21-11.58a5.73,5.73,0,0,0-4.49-5.68,5.6,5.6,0,0,1-2.19-1l-3.09-2.35a5,5,0,0,0-3-1H87.6a3.83,3.83,0,0,0-2,.58l-4.08,2.57a5.51,5.51,0,0,1-2,.74,5.72,5.72,0,0,0-4.84,5.53l-.22,11.58A5.73,5.73,0,0,0,80,818.31Z"/><circle class="cls-8" cx="90.5" cy="806.5" r="7"/><path class="cls-11" d="M90.5,800.5a6,6,0,1,1-6,6,6,6,0,0,1,6-6m0-2a8,8,0,1,0,8,8,8,8,0,0,0-8-8Z"/><path class="cls-8" d="M154.83,794.5a1.69,1.69,0,0,1,1.67,1.67v17.66a1.69,1.69,0,0,1-1.67,1.67H137.17a1.69,1.69,0,0,1-1.67-1.67V796.17a1.69,1.69,0,0,1,1.67-1.67h17.66m0-3H137.17a4.68,4.68,0,0,0-4.67,4.67v17.66a4.68,4.68,0,0,0,4.67,4.67h17.66a4.68,4.68,0,0,0,4.67-4.67V796.17a4.68,4.68,0,0,0-4.67-4.67Z"/><path class="cls-8" d="M142.5,805.5h5c3,0,11,5,11,8l-1-1.5a5.51,5.51,0,0,1-5.5,5.5H139a5.51,5.51,0,0,1-5.5-5.5v-.5C133.5,808.47,139.47,805.5,142.5,805.5Z"/><circle class="cls-8" cx="140.5" cy="799.5" r="3"/><line class="cls-12" x1="195" y1="819" x2="206" y2="819"/><path class="cls-12" d="M191,805s9,21,20,0"/><rect class="cls-8" x="195" y="790.5" width="11.5" height="20.5" rx="5"/><rect class="cls-13" x="235" y="784" width="163" height="43" rx="20.48"/><line class="cls-12" x1="248" y1="791" x2="248" y2="818"/><path class="cls-3" d="M264.38,812l-1.95-5h-6.3l-1.93,5h-1.85l6.21-15.77h1.54L266.27,812Zm-2.52-6.64L260,800.5c-.24-.61-.48-1.37-.73-2.26a19.77,19.77,0,0,1-.68,2.26l-1.84,4.87Z"/><path class="cls-3" d="M275.4,812l-.35-1.68H275a4.88,4.88,0,0,1-1.75,1.5,5.43,5.43,0,0,1-2.19.39,3.92,3.92,0,0,1-2.74-.9,3.27,3.27,0,0,1-1-2.57c0-2.38,1.9-3.62,5.71-3.74l2-.06v-.73a3,3,0,0,0-.59-2.05,2.46,2.46,0,0,0-1.91-.66,7.79,7.79,0,0,0-3.33.9l-.55-1.36a8.64,8.64,0,0,1,4-1,4.51,4.51,0,0,1,3.12.93,3.91,3.91,0,0,1,1,3v8Zm-4-1.26a3.61,3.61,0,0,0,2.61-.91,3.4,3.4,0,0,0,.95-2.56v-1.06l-1.78.07a6.51,6.51,0,0,0-3.07.66,2,2,0,0,0-.94,1.82,1.86,1.86,0,0,0,.59,1.48A2.45,2.45,0,0,0,271.38,810.75Z"/><ellipse class="cls-8" cx="378.5" cy="805.25" rx="15" ry="14.75"/><ellipse class="cls-11" cx="373.75" cy="802.5" rx="1.75" ry="2.5"/><ellipse class="cls-11" cx="383.75" cy="802.5" rx="1.75" ry="2.5"/><path class="cls-14" d="M371.5,811.5s8,6,14,0"/><path class="cls-8" d="M430,815v-9.73a3.55,3.55,0,0,1,.81-2.25l3.08-3.69a6.1,6.1,0,0,0,1.36-3.22,24.79,24.79,0,0,0,0-6,1.14,1.14,0,0,1,1-1.34c2.18-.16,6.19.88,4.71,11.26,0,0,13,0,9,5,0,0,3,4,0,6a3.1,3.1,0,0,1-2,4s3,3-8,4S430,815,430,815Z"/><path class="cls-8" d="M425.24,804h1.06a1.71,1.71,0,0,1,1.71,1.71v12.59a1.71,1.71,0,0,1-1.71,1.71h-1a3.22,3.22,0,0,1-3.22-3.22v-9.63a3.16,3.16,0,0,1,3.16-3.16Z"/></g><g id="Dreng"><path class="cls-15" d="M248.51,753.37H222.32L265,733.6v3.25A16.52,16.52,0,0,1,248.51,753.37Z"/><path class="cls-15" d="M82.4,753.37a15.41,15.41,0,0,1-14.53-10.28l62-28,1.64-.75c0,.1,0,.2,0,.3-.26,2.14-.56,4.28-.8,6.42s-.44,4.29-.65,6.44l-.32,3.22-.24,3.23-.11,1.46L90.07,753.37Z"/><path class="cls-15" d="M67,738V719.13L84.68,712v16.3l4.21,3.89,7.76-4.59V707.18l29.07-11.71v16.6l3.76,2.11.42.94-62,28A15.55,15.55,0,0,1,67,738Z"/><path class="cls-16" d="M67,584v-7.57c1.16,0,2.32,0,3.47,0s2.3-.14,3.45-.24,2.29-.23,3.43-.39,2.28-.34,3.42-.6c-1.16,0-2.32,0-3.47,0s-2.3.14-3.45.24-2.29.23-3.43.4-2.29.34-3.42.59V568c1.16.06,2.31,0,3.46,0s2.3-.1,3.45-.17,2.29-.19,3.44-.33,2.28-.3,3.42-.53c-1.16-.06-2.32-.06-3.47,0s-2.29.1-3.44.18-2.3.2-3.44.34-2.28.3-3.42.53V485.48a15.92,15.92,0,0,1,15.92-15.92H98.06V625.23l0,.1L67,632.64V590.56c1.17,0,2.33-.12,3.48-.24s2.31-.27,3.46-.43,2.29-.36,3.42-.59,2.28-.47,3.41-.78c-1.17,0-2.33.12-3.48.23s-2.31.28-3.46.44-2.29.36-3.43.59-2.27.46-3.4.78V584c1.16,0,2.32-.08,3.48-.18s2.3-.22,3.45-.36,2.29-.32,3.43-.53,2.28-.42,3.41-.72c-1.17,0-2.33.08-3.48.18s-2.31.22-3.45.37-2.29.32-3.43.52S68.13,583.65,67,584Zm17.65-38.67a6.89,6.89,0,0,0-.53-2.76,3.87,3.87,0,0,0-.78-1.2,2.09,2.09,0,0,0-1.34-.63,2.15,2.15,0,0,0-1.43.53,4.05,4.05,0,0,0-.92,1.19,6.64,6.64,0,0,0,0,5.73,3.93,3.93,0,0,0,.92,1.19,2.21,2.21,0,0,0,1.43.54,2.05,2.05,0,0,0,1.34-.64,3.87,3.87,0,0,0,.78-1.2A6.87,6.87,0,0,0,84.65,545.28Z"/><path class="cls-16" d="M265,484.8V586.05L244,591l-.15-.65V469.56h5.94A15.24,15.24,0,0,1,265,484.8ZM263.79,531a6.86,6.86,0,0,0-.52-2.75,4,4,0,0,0-.78-1.21,2.11,2.11,0,0,0-1.34-.63,2.16,2.16,0,0,0-1.43.53,3.67,3.67,0,0,0-.92,1.2,6.62,6.62,0,0,0,0,5.72,3.67,3.67,0,0,0,.92,1.19,2.19,2.19,0,0,0,1.43.54,2.11,2.11,0,0,0,1.34-.63,4.18,4.18,0,0,0,.78-1.21A6.8,6.8,0,0,0,263.79,531Zm-1.06,23.17c-1.23,0-2.46,0-3.68.07s-2.45.15-3.67.26-2.44.25-3.66.42-2.43.35-3.63.61c1.23,0,2.46,0,3.68-.07s2.45-.15,3.67-.26,2.44-.25,3.66-.41S261.53,554.41,262.73,554.15Zm0-6.24c-1.23,0-2.45,0-3.68,0s-2.44.11-3.66.19-2.45.21-3.66.35-2.43.31-3.64.55c1.23,0,2.45,0,3.68,0s2.44-.11,3.66-.19,2.45-.2,3.66-.35S261.52,548.15,262.73,547.91Zm-3.62,17.37c1.22-.24,2.42-.49,3.62-.82-1.24,0-2.47.14-3.7.27s-2.45.29-3.67.47-2.44.38-3.65.62-2.42.49-3.62.81c1.24,0,2.47-.14,3.7-.27s2.45-.29,3.67-.46S257.9,565.51,259.11,565.28Zm0-4.95c1.21-.21,2.42-.45,3.62-.75-1.23,0-2.47.1-3.69.2s-2.45.25-3.68.4-2.44.34-3.65.55-2.42.45-3.62.75c1.23,0,2.47-.1,3.69-.21s2.45-.24,3.68-.39S257.9,560.54,259.11,560.33Z"/><path d="M180.2,558.86l1,.22a7.39,7.39,0,0,0-.21.75l-.35-.13-.5-.17C180.18,559.31,180.19,559.09,180.2,558.86Z"/><path class="cls-16" d="M220.55,469.56v63.25c-.52-.44-1.06-.86-1.61-1.24A17.62,17.62,0,0,0,216,529.9a20.42,20.42,0,0,0,.12-3.5,23.17,23.17,0,0,0-.5-3.87,23.85,23.85,0,0,0-1.15-3.75,22.15,22.15,0,0,0-1.8-3.49,21.65,21.65,0,0,0-2.47-3.08l-.71-.69c-.24-.22-.49-.43-.74-.64l-.38-.32-.39-.3-.8-.57a21.71,21.71,0,0,0-6.64-2.95c-.26-.35-.54-.69-.83-1a14.25,14.25,0,0,0-3.15-2.52,17.25,17.25,0,0,0-3.71-1.62,24.26,24.26,0,0,0-4-.8l-1-.08-.19,0V469.56Z"/><path d="M140.17,540.72a.15.15,0,0,0,0,.07l-.05,0h0Z"/><path d="M206.8,636.52l-.19-.61-.21-.59c-.14-.39-.26-.8-.41-1.19a50.15,50.15,0,0,0-2-4.66,19.3,19.3,0,0,1,2.79,4.33,31.44,31.44,0,0,1,1.78,4.86c.11.42.19.84.3,1.26s.19.84.26,1.27c.16.84.3,1.69.39,2.55s.17,1.86.19,2.8a22.85,22.85,0,0,1-.06,2.34c-.3-1.69-.61-3.36-1-5-.18-.82-.34-1.65-.54-2.47s-.4-1.64-.62-2.45l-.33-1.22C207.06,637.32,206.91,636.92,206.8,636.52Z"/><path d="M161.67,553.66c.84.1,1.67.22,2.5.34l-2.08.6c0-.1,0-.19,0-.29l-.83,0-.12-.5h0l.45-.09Z"/><path d="M168.74,552.66,164.17,554c-.83-.12-1.66-.24-2.5-.34h0c2.31-.49,4.63-1,6.94-1.51,1.24-.29,2.47-.57,3.7-.88s2.46-.6,3.65-1c-1.16.51-2.37.88-3.58,1.28S170,552.29,168.74,552.66Z"/><path class="cls-17" d="M265,604.76v24.71l-55.36,17.07c0-.94-.09-1.87-.19-2.8s-.23-1.71-.39-2.55c-.07-.43-.16-.85-.26-1.27s-.19-.84-.3-1.26a31.44,31.44,0,0,0-1.78-4.86,19.3,19.3,0,0,0-2.79-4.33,96.57,96.57,0,0,0,3.57-9.34Z"/><path d="M159.89,738.38l3.75-15,1.9-7.51,1.93-7.51q1.86-7.23,3.87-14.43l0,0c-.19.93-.37,1.86-.56,2.79q-1.22,6-2.56,11.87-1.17,5.15-2.42,10.29c-.39,1.59-.79,3.19-1.18,4.79-1.27,5-2.56,10-4,15-.44,1.54-.88,3.08-1.34,4.62-1,3.42-2.11,6.82-3.4,10.15.73-2.49,1.43-5,2-7.48q.49-1.87,1-3.75Z"/><path d="M180.2,558.86c0,.23,0,.45,0,.67l-.81-.28.23-.28-.33.25-1.27-.43c-.89-.33-1.79-.58-2.69-.86l-1.36-.41-.67-.2-.69-.18-2.73-.7c-.92-.23-1.85-.39-2.77-.59l-1.38-.3c-.46-.09-.93-.15-1.39-.22l-1.23-.19-.2-.31a2.47,2.47,0,0,0,.1.29l-1-.15.06-.37,2.08-.6a74.7,74.7,0,0,1,8.78,1.81c2.87.78,5.72,1.66,8.51,2.69l-.22.58Z"/><path d="M140,539.5c.16-.33.34-.66.52-1,.38-.63.77-1.25,1.18-1.86.83-1.21,1.67-2.41,2.57-3.56-.77,1.24-1.55,2.48-2.28,3.74-.36.63-.72,1.26-1.06,1.91-.16.32-.33.64-.47,1a3.49,3.49,0,0,0-.32,1,.06.06,0,0,0,0,0h0l.05,0h0a.15.15,0,0,1,0-.07,1.44,1.44,0,0,0,.34-.16,6.78,6.78,0,0,0,.86-.61c.55-.44,1.09-.93,1.62-1.43l1.56-1.51c.5-.53,1-1,1.49-1.59a67.61,67.61,0,0,0,5.37-6.86c.81-1.2,1.62-2.42,2.37-3.66s1.49-2.51,2.17-3.8a51.42,51.42,0,0,1-4.09,7.77,53.82,53.82,0,0,1-5.3,7c-.49.55-1,1.07-1.52,1.61l-1.6,1.52c-.55.49-1.1,1-1.69,1.42a7.17,7.17,0,0,1-.95.64,1.85,1.85,0,0,1-.63.23h-.12a.34.34,0,0,1-.15,0,.4.4,0,0,1-.23-.23.85.85,0,0,1,0-.43A4.33,4.33,0,0,1,140,539.5Z"/><path d="M196.18,503.92a21,21,0,0,0-7.38-2.09,33.31,33.31,0,0,0-3.87-.17c-.65,0-1.3,0-2,.06l-1,.08c-.33,0-.65,0-1,.08-2.32.23-4.63.62-6.95,1.06h0l-.18-.08a40,40,0,0,1,7-1.8c.66-.12,1.33-.18,2-.26s1.33-.12,2-.14,1.34,0,2,0c.27,0,.54,0,.81,0l.19,0,1,.08a24.26,24.26,0,0,1,4,.8,17.25,17.25,0,0,1,3.71,1.62,14.25,14.25,0,0,1,3.15,2.52c.29.33.57.67.83,1l-.48-.12.58.26a8.61,8.61,0,0,1,1.18,2.22A13.77,13.77,0,0,0,196.18,503.92Z"/><path class="cls-15" d="M180.2,733.33l-20.85,9.89c.46-1.54.9-3.08,1.34-4.62,1.42-5,2.71-10,4-15,.39-1.6.79-3.2,1.18-4.79l11.76-5.37q.31,2.89.65,5.77.53,4.34,1.12,8.64C179.65,729.68,179.92,731.51,180.2,733.33Z"/><path class="cls-15" d="M265,713.48V733.6l-42.71,19.77h-3.18a20.65,20.65,0,0,1-.95-2.74c-.25-.93-.44-1.88-.6-2.83s-.29-1.91-.38-2.87S217,743,217,742.1a49.22,49.22,0,0,0,.81-6.93Z"/><path class="cls-15" d="M265,693.12v20.36L217.8,735.17c.13-2.55.11-5.1.06-7.65-.12-3.9-.39-7.79-.77-11.67Z"/><path class="cls-15" d="M265,673.59v19.53l-47.94,22.73c-.09-1-.19-1.93-.3-2.89-.52-4.84-1.2-9.66-2-14.46-.1-.62-.21-1.25-.31-1.87Z"/><path class="cls-15" d="M265,654.18v19.41l-50.53,23c-.71-4.13-1.49-8.25-2.4-12.33a29.47,29.47,0,0,0,1.35-2.62,31.63,31.63,0,0,0,1.63-4.65c0-.12.07-.25.1-.37l4.89-2.21,2.25,2.67,5.09-4.59v-1.39l22.24-10,.91.83h.12l3-2.66h0Z"/><polygon class="cls-15" points="265.03 639.35 265.03 654.17 253.71 659.28 255.5 657.71 255.5 643.19 265.03 639.35"/><polygon class="cls-15" points="265.03 632.64 265.03 639.35 255.5 643.19 255.5 636.01 265.03 632.64"/><path class="cls-17" d="M227.41,645.92l-5.09,1.8-4.16,1.46h0l-6.8,2.39c-.54-.92-1.13-1.83-1.75-2.7a22.85,22.85,0,0,0,.06-2.34L265,629.47v3.17L255.5,636l-4.82,1.7L247.06,639h0Z"/><path class="cls-16" d="M220.55,596.51,244,591l21-4.94v18.71l-57.5,15.37c.18-.53.35-1.07.52-1.61A115.42,115.42,0,0,0,211,607.2c.38-1.91.74-3.83,1-5.77.13-1,.26-2,.37-3Z"/><path d="M263.27,528.23a6.86,6.86,0,0,1,.52,2.75,6,6,0,0,0-.61-2.71,3.74,3.74,0,0,0-.84-1.08,1.58,1.58,0,0,0-2.3.09,3.59,3.59,0,0,0-.69,1.1,6.76,6.76,0,0,0-.5,2.6,6.84,6.84,0,0,0,.49,2.61,3.91,3.91,0,0,0,.7,1.09,1.78,1.78,0,0,0,1.11.54,1.87,1.87,0,0,0,1.19-.44,3.74,3.74,0,0,0,.84-1.09,6,6,0,0,0,.61-2.71,6.8,6.8,0,0,1-.52,2.75,4.18,4.18,0,0,1-.78,1.21,2.11,2.11,0,0,1-1.34.63,2.19,2.19,0,0,1-1.43-.54,3.67,3.67,0,0,1-.92-1.19,6.62,6.62,0,0,1,0-5.72,3.67,3.67,0,0,1,.92-1.2,2.16,2.16,0,0,1,1.43-.53,2.11,2.11,0,0,1,1.34.63A4,4,0,0,1,263.27,528.23Z"/><path class="cls-18" d="M263.18,528.27a6.32,6.32,0,0,1,0,5.42,3.74,3.74,0,0,1-.84,1.09,1.87,1.87,0,0,1-1.19.44,1.78,1.78,0,0,1-1.11-.54,3.91,3.91,0,0,1-.7-1.09,6.84,6.84,0,0,1-.49-2.61,6.76,6.76,0,0,1,.5-2.6,3.59,3.59,0,0,1,.69-1.1,1.58,1.58,0,0,1,2.3-.09A3.74,3.74,0,0,1,263.18,528.27Z"/><path d="M259.05,554.22c1.22-.06,2.45-.1,3.68-.07-1.2.26-2.42.45-3.63.62s-2.44.3-3.66.41-2.44.21-3.67.26-2.45.1-3.68.07c1.2-.26,2.42-.45,3.63-.61s2.44-.3,3.66-.42S257.82,554.27,259.05,554.22Z"/><path d="M259.05,547.91c1.23,0,2.45,0,3.68,0-1.21.24-2.42.41-3.64.55s-2.43.25-3.66.35-2.44.16-3.66.19-2.45,0-3.68,0c1.21-.24,2.42-.4,3.64-.55s2.43-.25,3.66-.35S257.83,548,259.05,547.91Z"/><path d="M262.73,564.46c-1.2.33-2.4.58-3.62.82s-2.43.43-3.65.62-2.44.34-3.67.46-2.46.24-3.7.27c1.2-.32,2.4-.58,3.62-.81s2.43-.43,3.65-.62,2.44-.34,3.67-.47S261.49,564.5,262.73,564.46Z"/><path d="M262.73,559.58c-1.2.3-2.41.54-3.62.75s-2.44.38-3.65.55-2.45.29-3.68.39-2.46.2-3.69.21c1.2-.3,2.41-.54,3.62-.75s2.44-.38,3.65-.55,2.45-.3,3.68-.4S261.5,559.59,262.73,559.58Z"/><polygon class="cls-17" points="255.5 643.19 255.5 657.71 253.71 659.28 253.7 659.28 250.68 661.94 250.68 637.71 255.5 636.01 255.5 643.19"/><polygon class="cls-17" points="250.68 637.71 250.68 661.94 250.56 661.94 249.65 661.11 247.06 658.76 247.06 646.61 247.06 638.99 247.06 638.98 250.68 637.71"/><polygon class="cls-15" points="249.65 661.11 227.41 671.14 227.41 654.5 247.01 646.61 247.06 646.61 247.06 658.76 249.65 661.11"/><polygon class="cls-15" points="247.06 638.99 247.06 646.61 247.01 646.61 227.41 654.5 227.41 645.92 247.06 638.99"/><path class="cls-16" d="M243.85,590.34l.15.65-23.45,5.52V576.85a4.94,4.94,0,0,0,.15-.64,3.29,3.29,0,0,0,.06-.77,2.38,2.38,0,0,0,0-.38l0-.38a4.88,4.88,0,0,0-.18-.94v-7.61a8.86,8.86,0,0,0,.47-2.7,12.19,12.19,0,0,0-.12-2.26c0-.38-.13-.74-.19-1.11s-.1-.47-.16-.7v-8.67l.19-.1a3.45,3.45,0,0,1,.77-.31c.27-.08.56-.1.84-.16l.55-.12-.18-.46c-.29-.72-.61-1.41-1-2.1s-.72-1.34-1.13-2a.57.57,0,0,0-.08-.13v-5.14c.6-.36,1.21-.71,1.82-1l.53-.23a4.81,4.81,0,0,1,.53-.2,4.44,4.44,0,0,1,.52-.15l.12,0,.36,0,.79-.12-.36-.62-.23-.37c-.32-.5-.65-1-1-1.42l-.69-.83-.72-.8a22.2,22.2,0,0,0-1.66-1.56V469.56h23.3Zm-4.41-33.71c-1.24,0-2.47,0-3.69.06s-2.45.15-3.67.26-2.44.25-3.66.42-2.42.35-3.63.61c1.23,0,2.46,0,3.69-.07s2.44-.15,3.66-.26,2.44-.24,3.66-.41S238.23,556.88,239.44,556.63Zm0-6.25c-1.23,0-2.46,0-3.68,0s-2.45.11-3.67.2-2.44.2-3.66.34-2.43.32-3.64.55c1.23,0,2.45,0,3.68,0s2.45-.11,3.67-.19,2.44-.2,3.65-.35S238.23,550.62,239.44,550.38ZM238.38,531a7,7,0,0,0-.53-2.75,3.8,3.8,0,0,0-.78-1.21,2.09,2.09,0,0,0-1.34-.63,2.18,2.18,0,0,0-1.43.53,4,4,0,0,0-.92,1.2,6.62,6.62,0,0,0,0,5.72,3.81,3.81,0,0,0,.92,1.19,2.19,2.19,0,0,0,1.43.54,2.09,2.09,0,0,0,1.34-.63,3.8,3.8,0,0,0,.78-1.21A7,7,0,0,0,238.38,531Zm-2.56,36.77c1.21-.23,2.42-.49,3.62-.82-1.25,0-2.48.14-3.71.27s-2.45.29-3.67.47-2.44.38-3.65.62-2.42.49-3.62.81c1.24,0,2.47-.14,3.7-.27s2.45-.29,3.68-.46S234.6,568,235.82,567.75Zm0-5c1.21-.21,2.43-.45,3.63-.75-1.24,0-2.47.1-3.7.2s-2.45.25-3.67.4-2.44.34-3.65.55-2.43.45-3.63.75c1.24,0,2.47-.1,3.69-.2s2.46-.25,3.68-.4S234.6,563,235.81,562.8Z"/><path d="M235.75,556.69c1.22-.06,2.45-.1,3.69-.06-1.21.25-2.42.44-3.64.61s-2.43.3-3.66.41-2.44.21-3.66.26-2.46.1-3.69.07c1.21-.26,2.42-.45,3.63-.61s2.44-.3,3.66-.42S234.52,556.75,235.75,556.69Z"/><path d="M235.76,550.38c1.22,0,2.45,0,3.68,0-1.21.24-2.43.41-3.65.55s-2.43.25-3.65.35-2.45.16-3.67.19-2.45,0-3.68,0c1.21-.23,2.42-.4,3.64-.55s2.44-.25,3.66-.34S234.53,550.42,235.76,550.38Z"/><path d="M237.85,528.23a7,7,0,0,1,.53,2.75,6.18,6.18,0,0,0-.62-2.71,3.42,3.42,0,0,0-.84-1.08,1.82,1.82,0,0,0-1.19-.45,1.8,1.8,0,0,0-1.1.54,3.82,3.82,0,0,0-.7,1.1,6.57,6.57,0,0,0-.49,2.6,6.65,6.65,0,0,0,.49,2.61,3.69,3.69,0,0,0,.7,1.09,1.75,1.75,0,0,0,1.1.54,1.85,1.85,0,0,0,1.19-.44,3.58,3.58,0,0,0,.84-1.09,6.12,6.12,0,0,0,.62-2.71,7,7,0,0,1-.53,2.75,3.8,3.8,0,0,1-.78,1.21,2.09,2.09,0,0,1-1.34.63,2.19,2.19,0,0,1-1.43-.54,3.81,3.81,0,0,1-.92-1.19,6.62,6.62,0,0,1,0-5.72,4,4,0,0,1,.92-1.2,2.18,2.18,0,0,1,1.43-.53,2.09,2.09,0,0,1,1.34.63A3.8,3.8,0,0,1,237.85,528.23Z"/><path class="cls-18" d="M237.76,528.27a6.18,6.18,0,0,1,.62,2.71,6.12,6.12,0,0,1-.62,2.71,3.58,3.58,0,0,1-.84,1.09,1.85,1.85,0,0,1-1.19.44,1.75,1.75,0,0,1-1.1-.54,3.69,3.69,0,0,1-.7-1.09,6.65,6.65,0,0,1-.49-2.61,6.57,6.57,0,0,1,.49-2.6,3.82,3.82,0,0,1,.7-1.1,1.8,1.8,0,0,1,1.1-.54,1.82,1.82,0,0,1,1.19.45A3.42,3.42,0,0,1,237.76,528.27Z"/><path d="M239.44,566.93c-1.2.33-2.41.59-3.62.82s-2.44.43-3.65.62-2.45.34-3.68.46-2.46.24-3.7.27c1.2-.32,2.41-.58,3.62-.81s2.43-.43,3.65-.62,2.45-.34,3.67-.47S238.19,567,239.44,566.93Z"/><path d="M239.44,562.05c-1.2.3-2.42.54-3.63.75s-2.43.38-3.65.55-2.45.29-3.68.4-2.45.19-3.69.2c1.2-.3,2.41-.54,3.63-.75s2.43-.38,3.65-.55,2.44-.3,3.67-.4S238.2,562.06,239.44,562.05Z"/><polygon class="cls-17" points="227.41 671.14 227.41 672.53 222.32 677.12 222.32 647.72 227.41 645.92 227.41 654.5 227.41 671.14"/><path d="M224.86,537.79l.36.62-.79.12-.36,0-.06-.28.42-.74.2-.13Z"/><path d="M220.55,532.81a22.2,22.2,0,0,1,1.66,1.56l.72.8.69.83c.36.46.69.92,1,1.42l-.2.13a4.08,4.08,0,0,0-.7.11l-.13,0a24.22,24.22,0,0,0-2.15-2.61,26.76,26.76,0,0,0-3.07-2.76c-.54-.44-1.11-.81-1.68-1.2l-.89-.53-.45-.27-.46-.23a24.48,24.48,0,0,0-3.88-1.59,15.64,15.64,0,0,1,4.13,1c.27.1.54.21.8.33v.4l.06-.37a17.62,17.62,0,0,1,2.92,1.67C219.49,532,220,532.37,220.55,532.81Z"/><path d="M224.43,537.55l-.42.74c-.13-.2-.27-.4-.41-.59l.13,0A4.08,4.08,0,0,1,224.43,537.55Z"/><path d="M224,538.29l.06.28-.12,0a4.44,4.44,0,0,0-.52.15,4.81,4.81,0,0,0-.53.2l-.53.23c-.61.3-1.22.65-1.82,1v-.85h0c.46-.33.94-.63,1.43-.92l.55-.29.59-.25a2.56,2.56,0,0,1,.49-.16C223.74,537.89,223.88,538.09,224,538.29Z"/><path class="cls-19" d="M223.6,537.7a2.56,2.56,0,0,0-.49.16l-.59.25-.55.29c-.49.29-1,.59-1.43.92l-.61.44a30.74,30.74,0,0,0-3.61,3.22c.48-.34,1-.68,1.45-1a20.37,20.37,0,0,1,2.39,3.73c.34.67.66,1.35,1,2,.22.52.43,1,.62,1.58a2.13,2.13,0,0,0-.44.07,4.68,4.68,0,0,0-1,.35,4.35,4.35,0,0,0-.89.57l-.37.38a4.23,4.23,0,0,0-.32.42A5.34,5.34,0,0,0,218,553a6.66,6.66,0,0,0-.11,1,7.17,7.17,0,0,0,0,1v.07l0,.07a29,29,0,0,1,1.53,4,15.84,15.84,0,0,1,.7,4.19,8.47,8.47,0,0,1-.86,4.09,7.37,7.37,0,0,1-3,3,7,7,0,0,0,1.8-1c.19.42.4.81.61,1.21s.38.88.58,1.31c.09.21.15.44.24.66a5.75,5.75,0,0,1,.21.67l.17.67,0,.17,0,.17,0,.35a5.46,5.46,0,0,1-.31,2.68,5.64,5.64,0,0,1-1.56,2.19,20,20,0,0,0-2.57-3,28.85,28.85,0,0,0-3.45-2.87c-.3-.22-.62-.41-.93-.62l-.47-.31-.48-.29-1-.57-1-.51c-.66-.35-1.36-.62-2.05-.92s-1.36-.51-2-.77c-1.6-1-3.22-2-4.87-2.93-.82-.48-1.67-.93-2.5-1.39s-1.69-.88-2.54-1.32c-3.4-1.72-6.89-3.29-10.44-4.69-.79-.32-1.58-.62-2.37-.91-2.79-1-5.64-1.91-8.51-2.69a74.7,74.7,0,0,0-8.78-1.81l4.57-1.34c1.21-.37,2.42-.74,3.63-1.13s2.42-.77,3.58-1.28c-1.19.42-2.42.71-3.65,1s-2.46.59-3.7.88c-2.31.52-4.63,1-6.94,1.51h-.11l-.12,0-.22.06h0c-2.25.69-4.47,1.43-6.69,2.18s-4.6,1.58-6.88,2.43-4.54,1.73-6.78,2.69c-1.12.48-2.23,1-3.32,1.52-.56.29-1.12.58-1.66.9l0,0a3.68,3.68,0,0,1-1.27-.7c-.19-.14-.36-.32-.54-.48s-.32-.37-.48-.55-.28-.4-.42-.59l-.21-.3-.18-.31-.35-.64c-.11-.21-.2-.44-.3-.66l-.22-.48c.34-.57.7-1.13,1.09-1.67l.65-.91.69-.89.34-.44.36-.43.72-.86c.49-.57,1-1.1,1.52-1.66a57.12,57.12,0,0,1,6.66-6,64.78,64.78,0,0,1,15.58-8.71l2.08-.83c.7-.25,1.41-.46,2.12-.7,1.42-.46,2.84-.94,4.28-1.34s2.89-.8,4.34-1.16c.72-.18,1.45-.35,2.18-.49a10.32,10.32,0,0,1,1.07-.17h.13a13.81,13.81,0,0,1-1.87,1.12c-.66.35-1.33.68-2,1-1.35.65-2.71,1.27-4.07,1.89-2.73,1.24-5.49,2.43-8.24,3.63,2.81-1,5.6-2.18,8.37-3.32,1.39-.58,2.76-1.17,4.13-1.79.68-.32,1.37-.63,2-1a14.85,14.85,0,0,0,2-1.14,2.51,2.51,0,0,0,.25-.23.68.68,0,0,0,.12-.23.34.34,0,0,0,0-.24.47.47,0,0,0-.15-.18A.6.6,0,0,0,176,532l-.17,0h-.31a8.39,8.39,0,0,0-1.15.15c-.75.13-1.49.3-2.22.47-1.46.36-2.91.74-4.36,1.15s-2.88.85-4.32,1.31c-.71.23-1.44.45-2.15.69l-2.1.83-2.1.85-2,1c-.68.33-1.37.63-2,1l-2,1.1c-1.34.7-2.58,1.56-3.86,2.36-.64.39-1.23.86-1.85,1.3s-1.22.88-1.8,1.36a58.27,58.27,0,0,0-6.59,6.17c-.48.57-1,1.13-1.46,1.72l-.69.88-.35.45-.33.45a30.38,30.38,0,0,0-2.28,3.57,1.11,1.11,0,0,1-.07-.16l-.24-.69-.25-.68-.19-.71c-.11-.47-.27-.92-.36-1.41l-.29-1.42c-.1-.48-.15-1-.22-1.45s-.17-1-.21-1.44l-.14-1.46c0-.49-.1-1-.11-1.46-.05-1-.12-2-.16-2.92a17,17,0,0,1,.21-2.85,17.36,17.36,0,0,1,1.72-5.44,15,15,0,0,1,3.52-4.46,17.43,17.43,0,0,1,5-2.9,28.07,28.07,0,0,1,5.68-1.48,23,23,0,0,0-5.85,1,16.47,16.47,0,0,0-5.32,2.76,14.94,14.94,0,0,0-3.89,4.62.05.05,0,0,1,0,0,11.45,11.45,0,0,1-1.14-3.7,28.85,28.85,0,0,1-.28-4.36,71,71,0,0,1,.61-8.74c.37-2.9.82-5.79,1.37-8.67l.41-2.15.22-1.08c0-.17.07-.38.11-.52a3.26,3.26,0,0,1,.15-.44,3,3,0,0,1,1.2-1.4,3.11,3.11,0,0,1,.86-.37,3.43,3.43,0,0,1,.48-.08l.54-.05,4.36-.4,4.38-.17c.72,0,1.45,0,2.18,0s1.46,0,2.19.05l2.17.18,1.09.09,1.08.16c.72.12,1.44.21,2.16.34l2.12.48a4.56,4.56,0,0,1,.53.13l.52.16,1,.32a23.54,23.54,0,0,1,5.87,2.83l.88.65c.27.23.54.49.81.73a8.12,8.12,0,0,1,1.41,1.68,10.84,10.84,0,0,0-2.93-3.29,19.8,19.8,0,0,0-3.79-2.31,18.48,18.48,0,0,0-2.05-.86l-1.05-.37-.52-.18-.54-.15-2-.52a22.23,22.23,0,0,1,5.23-1.76c.49-.1,1-.16,1.49-.24s1-.12,1.52-.13a20.44,20.44,0,0,1,3,0,30.75,30.75,0,0,1,6,1,39.85,39.85,0,0,1,5.82,2,20.3,20.3,0,0,0-4.11-2.27c2.32-.44,4.63-.83,6.95-1.06.33-.05.65-.06,1-.08l1-.08c.65,0,1.3-.06,2-.06a33.31,33.31,0,0,1,3.87.17,21,21,0,0,1,7.38,2.09,13.77,13.77,0,0,1,5.66,5.18,8.61,8.61,0,0,0-1.18-2.22,29.52,29.52,0,0,1,6.06,3.48,22.15,22.15,0,0,1,5.08,5.5,25.18,25.18,0,0,1,3,6.87,31.63,31.63,0,0,1,1.11,7.14c-.26-.12-.53-.23-.8-.33a15.64,15.64,0,0,0-4.13-1,24.48,24.48,0,0,1,3.88,1.59l.46.23.45.27.89.53c.57.39,1.14.76,1.68,1.2a26.76,26.76,0,0,1,3.07,2.76A24.22,24.22,0,0,1,223.6,537.7ZM199,533.62l-.06-.07V533c0-.22,0-.44,0-.66l-.09-1.32a31.12,31.12,0,0,0-1-5.23,17.87,17.87,0,0,0-2.26-4.85,12.33,12.33,0,0,0-3.86-3.68,9.77,9.77,0,0,0-5-1.46,10.62,10.62,0,0,1,4.76,1.89c.36.23.68.52,1,.78s.63.58.9.9a13.14,13.14,0,0,1,1.54,2,18.64,18.64,0,0,1,2,4.68,30.7,30.7,0,0,1,.9,5l.09,1.22c-.51-.53-1-1-1.58-1.5a34.72,34.72,0,0,0-3.05-2.38,35.39,35.39,0,0,0-3.27-2,37.75,37.75,0,0,0-3.46-1.65,37.2,37.2,0,0,1,3.32,1.87,33.65,33.65,0,0,1,3.1,2.22,32.09,32.09,0,0,1,2.81,2.53,27.37,27.37,0,0,1,2.21,2.51l0,1.06c0,.43,0,.86,0,1.29s0,.86,0,1.3l-.07,1.29c0,.62-.08,1.25-.13,1.87-1.11-1.38-2.27-2.71-3.45-4-1.43-1.58-2.91-3.12-4.47-4.58a50.75,50.75,0,0,0-4.9-4.11,24.8,24.8,0,0,0-5.53-3.14,25,25,0,0,1,5.37,3.35,51.4,51.4,0,0,1,4.69,4.28c1.48,1.51,2.89,3.09,4.24,4.72s2.67,3.29,3.88,5l0,0c-.32,3.2-.83,6.39-1.35,9.59a71.5,71.5,0,0,0,2.25-10.25l.18-1.31c.06-.43.08-.87.12-1.31l.12-1.31c0-.44,0-.88.06-1.32s0-.88,0-1.32l0-1.33Zm-5.29,25.25a16.57,16.57,0,0,0-.71-1.62c-.13-.26-.26-.53-.4-.79l-.43-.77a26.13,26.13,0,0,0-2-2.93,32.51,32.51,0,0,0-5-5,40.4,40.4,0,0,0-5.85-4,36.81,36.81,0,0,0-6.44-2.9c1.06.51,2.11,1,3.13,1.6s2,1.15,3,1.76a53.24,53.24,0,0,1,5.69,4c.91.73,1.78,1.51,2.61,2.32a33.57,33.57,0,0,1,2.4,2.52A31.86,31.86,0,0,1,193.72,558.87ZM156,521.1c-.68,1.29-1.4,2.56-2.17,3.8s-1.56,2.46-2.37,3.66a67.61,67.61,0,0,1-5.37,6.86c-.48.54-1,1.06-1.49,1.59L143,538.52c-.53.5-1.07,1-1.62,1.43a6.78,6.78,0,0,1-.86.61,1.44,1.44,0,0,1-.34.16.06.06,0,0,1,0,0,3.49,3.49,0,0,1,.32-1c.14-.33.31-.65.47-1,.34-.65.7-1.28,1.06-1.91.73-1.26,1.51-2.5,2.28-3.74-.9,1.15-1.74,2.35-2.57,3.56-.41.61-.8,1.23-1.18,1.86-.18.32-.36.65-.52,1a4.33,4.33,0,0,0-.41,1.1.85.85,0,0,0,0,.43.4.4,0,0,0,.23.23.34.34,0,0,0,.15,0h.12a1.85,1.85,0,0,0,.63-.23,7.17,7.17,0,0,0,.95-.64c.59-.45,1.14-.93,1.69-1.42l1.6-1.52c.51-.54,1-1.06,1.52-1.61a53.82,53.82,0,0,0,5.3-7A51.42,51.42,0,0,0,156,521.1Z"/><path d="M218.92,554.78l0,.13a.13.13,0,0,1,0-.06,28.8,28.8,0,0,1,1.51,4.11l.09.4c.06.23.11.46.16.7s.15.73.19,1.11a12.19,12.19,0,0,1,.12,2.26,8.86,8.86,0,0,1-.47,2.7,7.75,7.75,0,0,1-.77,1.65,7.19,7.19,0,0,1-1.64,1.75l-.06-.07a.36.36,0,0,1,0,.09,7,7,0,0,1-1.8,1,7.37,7.37,0,0,0,3-3,8.47,8.47,0,0,0,.86-4.09,15.84,15.84,0,0,0-.7-4.19,29,29,0,0,0-1.53-4l0-.07v-.07a7.17,7.17,0,0,1,0-1,6.66,6.66,0,0,1,.11-1,5.34,5.34,0,0,1,.75-1.92,4.23,4.23,0,0,1,.32-.42l.37-.38a4.35,4.35,0,0,1,.89-.57,4.68,4.68,0,0,1,1-.35,2.13,2.13,0,0,1,.44-.07l.18.5.38-.57-.56.07c-.19-.53-.4-1.06-.62-1.58-.29-.69-.61-1.37-1-2a20.37,20.37,0,0,0-2.39-3.73h0a14.46,14.46,0,0,1,1.53,1.6,21.29,21.29,0,0,1,1.24,1.75.57.57,0,0,1,.08.13c.41.65.78,1.31,1.13,2s.67,1.38,1,2.1l.18.46-.55.12c-.28.06-.57.08-.84.16a3.45,3.45,0,0,0-.77.31l-.19.1c-.17.11-.32.24-.47.35l-.27.3a3.88,3.88,0,0,0-.23.33,4.31,4.31,0,0,0-.57,1.55,6.38,6.38,0,0,0-.06,1.63Z"/><polygon class="cls-17" points="222.32 647.72 222.32 677.12 220.07 674.45 218.16 672.18 218.16 658.23 218.16 649.19 218.16 649.18 222.32 647.72"/><path d="M222.29,549.26l-.38.57-.18-.5Z"/><path d="M220.77,575.06a2.38,2.38,0,0,1,0,.38,3.29,3.29,0,0,1-.06.77,4.94,4.94,0,0,1-.15.64v-3.11a4.88,4.88,0,0,1,.18.94Z"/><path class="cls-16" d="M220.55,576.85v19.66l-8.17,1.92c.1-.93.18-1.88.24-2.83q.13-2.13.12-4.26a21.73,21.73,0,0,0,1.52-2,28.17,28.17,0,0,0,1.82-2.9,27.58,27.58,0,0,0,1.45-3.12,14.7,14.7,0,0,0,.9-3.32c-.08-.14-.17-.27-.26-.4a4.3,4.3,0,0,0,2.05-2A3.83,3.83,0,0,0,220.55,576.85Z"/><path d="M220.55,573.74v3.11a3.83,3.83,0,0,1-.33.81,4.3,4.3,0,0,1-2.05,2s0,0,0,0a5.64,5.64,0,0,0,1.56-2.19,5.46,5.46,0,0,0,.31-2.68l0-.35,0-.17,0-.17-.17-.67a5.75,5.75,0,0,0-.21-.67c-.09-.22-.15-.45-.24-.66-.2-.43-.37-.88-.58-1.31s-.42-.79-.61-1.21l0,0c.31.34.59.69.88,1.05s.54.83.79,1.25c.12.22.21.45.31.68a4.53,4.53,0,0,1,.28.69C220.45,573.38,220.51,573.56,220.55,573.74Z"/><path class="cls-16" d="M220.55,566.13v7.61c0-.18-.1-.36-.15-.54a4.53,4.53,0,0,0-.28-.69c-.1-.23-.19-.46-.31-.68-.25-.42-.5-.85-.79-1.25s-.57-.71-.88-1.05a7.19,7.19,0,0,0,1.64-1.75A7.75,7.75,0,0,0,220.55,566.13Z"/><path class="cls-16" d="M220.55,550.69v8.67l-.09-.4a28.8,28.8,0,0,0-1.51-4.11,6.38,6.38,0,0,1,.06-1.63,4.31,4.31,0,0,1,.57-1.55,3.88,3.88,0,0,1,.23-.33l.27-.3C220.23,550.93,220.38,550.8,220.55,550.69Z"/><path class="cls-16" d="M220.55,540.18v5.14a21.29,21.29,0,0,0-1.24-1.75,14.46,14.46,0,0,0-1.53-1.6c.84-.57,1.68-1.12,2.53-1.65Z"/><path d="M220.55,539.33v.85l-.24.14c-.85.53-1.69,1.08-2.53,1.65l-.05-.05,0,.06c-.48.32-1,.66-1.45,1a30.74,30.74,0,0,1,3.61-3.22l.61-.44Z"/><path class="cls-15" d="M220.07,674.45l-4.89,2.21a31.89,31.89,0,0,0,.95-9.44,32.31,32.31,0,0,0-.62-4.91c-.15-.81-.37-1.61-.57-2.41,0-.11-.07-.22-.11-.33l3.33-1.34v13.95Z"/><path class="cls-20" d="M219.14,753.37H184.9a68.27,68.27,0,0,1-2-8.46c-.52-2.85-1-5.71-1.38-8.58-.83-5.73-1.56-11.48-2.24-17.23-.25-2-.48-4-.71-6q-.65-5.64-1.27-11.27l-1-8.64-1-8.65c0,.59,0,1.18.08,1.76h-.08a22.85,22.85,0,0,1-1.5,3.3,12.07,12.07,0,0,1-2.09,2.83,5.66,5.66,0,0,1-1.37.94,3.54,3.54,0,0,1-1.56.34c-.13,0-.26,0-.4,0l-.4-.06a5.88,5.88,0,0,1-.78-.25,7.7,7.7,0,0,1-1.48-.82l-.11-.07-.12,0a3.42,3.42,0,0,1-.72-.22,4.52,4.52,0,0,1-.69-.36,4.11,4.11,0,0,1-1.12-1.08,5.28,5.28,0,0,1-.86-3.08,7.85,7.85,0,0,1,0-.84c0-.28.05-.57.1-.85s.09-.57.16-.85.12-.57.19-.85c.29-1.13.68-2.24,1.08-3.35a20.63,20.63,0,0,0-1.57,3.2,11.64,11.64,0,0,0-.8,3.52,6,6,0,0,0,.85,3.66,4.9,4.9,0,0,0,1.38,1.38,5.51,5.51,0,0,0,.86.47,5,5,0,0,0,.83.27h0a7.8,7.8,0,0,0,1.62.85,5.21,5.21,0,0,0,.95.29l.5.07a4.47,4.47,0,0,0,.52,0,4.52,4.52,0,0,0,1.95-.51,5.48,5.48,0,0,0,.52-.31q-2,7.2-3.87,14.43l-1.93,7.51-1.9,7.51-3.75,15-.94,3.76q-.47,1.88-1,3.75c-.61,2.51-1.31,5-2,7.48H128.42c.4-4.3.67-8.6,1.1-12.89l.63-6.44.31-3.21.4-3.21c.26-2.14.52-4.28.76-6.42s.58-4.27.87-6.4c.55-4.27,1.28-8.52,1.93-12.78q2.15-12.74,5-25.35c.48-2.1.95-4.21,1.48-6.29l.78-3.14.82-3.12c1.09-4.17,2.28-8.32,3.62-12.42a5,5,0,0,1-.58-1.39l-.21-.72-.18-.74c-.12-.49-.22-1-.32-1.48l-.15-.75-.12-.75-.26-1.49-.22-1.5c-.16-1-.29-2-.42-3-.5-4-1-8-1.34-12.07l-.31-3-.28-3-.29-3-.28-3c-.36-3.74-.69-7.49-1.12-11.22l0,0a12,12,0,0,0,2.48,2.44,17.2,17.2,0,0,0,1.45.95c.51.26,1,.56,1.54.77a24.42,24.42,0,0,0,6.57,1.72,26.36,26.36,0,0,1-6.35-2.19c-.5-.23-1-.55-1.45-.82a16.17,16.17,0,0,1-1.33-1A12,12,0,0,1,140.7,604a12.24,12.24,0,0,1-1.47-2.91,14.3,14.3,0,0,1-.7-3.19,32.18,32.18,0,0,1,.08-6.65c.09-1.12.2-2.25.21-3.42a32.56,32.56,0,0,0-.25-3.44c-.1-.71-.19-1.43-.3-2.14l.18,0c.07-1.32.19-2.65.31-4s.28-2.65.45-4a69.47,69.47,0,0,1,1.44-7.85,70.09,70.09,0,0,0-2,7.77c-.26,1.31-.5,2.63-.71,4-.07.38-.13.77-.19,1.15-.1-.56-.2-1.11-.31-1.67-.85-4.44-1.89-8.84-3.06-13.21a15.29,15.29,0,0,1,3.2-1.69c1.11-.48,2.24-.92,3.38-1.34,2.27-.83,4.58-1.59,6.88-2.34s4.62-1.47,6.93-2.19q3.13-1,6.27-1.87c0,.85,0,1.71-.06,2.56,0,.57-.06,1.13-.12,1.69a5.54,5.54,0,0,1-.36,1.66,5.84,5.84,0,0,0,.62-1.61c.15-.55.27-1.11.39-1.67.18-.91.34-1.82.48-2.74l1,.15a17.41,17.41,0,0,0,1.11,2.4,18.53,18.53,0,0,0,1.68,2.47,15.25,15.25,0,0,0,2.14,2.11,10.5,10.5,0,0,0,2.68,1.49l.09,0h.07a9.26,9.26,0,0,0,2.61-.41,11.86,11.86,0,0,0,2.39-1,11.05,11.05,0,0,0,1.09-.68l.52-.37c.17-.13.33-.27.49-.41a10.75,10.75,0,0,0,.92-.86c.21-.22.4-.45.59-.68l.81.28c0,.14,0,.29,0,.43,0,.36,0,.71.07,1.07a11.84,11.84,0,0,0,.4,2.07,10.87,10.87,0,0,1,.13-2.06c.05-.34.11-.68.19-1a1.29,1.29,0,0,1,.05-.21l2.3.87q5.26,2.06,10.39,4.51c3.39,1.66,6.76,3.41,10,5.35l0,0,.06,0c.7.23,1.4.44,2.09.69s1.38.5,2,.83l1,.45,1,.51.49.25.47.28,1,.56a28.66,28.66,0,0,1,3.55,2.64,23.63,23.63,0,0,1,2.74,2.83.1.1,0,0,1,0,0l.06,0c.1.12.2.25.29.38-.57,1-1.11,2-1.65,3s-1.1,2-1.63,3-1.08,2-1.59,3c-.28.54-.56,1.09-.83,1.65a40.43,40.43,0,0,0-.65-6.69,61,61,0,0,1,0,8.11c-.07,1.17-.17,2.33-.29,3.5-.1,1-.22,2-.35,2.94s-.27,1.87-.42,2.8c-.3,1.91-.66,3.82-1.05,5.71s-.82,3.78-1.27,5.67-.94,3.76-1.44,5.63c-.19.67-.37,1.34-.56,2-.86,3.06-1.77,6.12-2.74,9.16a50.15,50.15,0,0,1,2,4.66c.15.39.27.8.41,1.19l.21.59.19.61c.11.4.26.8.37,1.2l.33,1.22c.22.81.44,1.63.62,2.45s.36,1.65.54,2.47c.34,1.66.65,3.33,1,5a53.26,53.26,0,0,1,3.78,8.93c.13.39.23.78.34,1.17s.21.77.31,1.16c.17.78.37,1.56.49,2.36s.25,1.58.36,2.38c.05.39.07.8.11,1.19s.06.8.07,1.2a33.59,33.59,0,0,1-.08,4.81,36.44,36.44,0,0,1-.71,4.76,37.79,37.79,0,0,1-1.31,4.65,30.79,30.79,0,0,1-1.95,4.45,17.69,17.69,0,0,0,1.08-1.63q1.05,7.14,2,14.3c.63,4.81,1.21,9.63,1.69,14.45.25,2.42.46,4.83.65,7.25s.34,4.83.43,7.25.14,4.83.09,7.25a52.43,52.43,0,0,1-.59,7.2v.08a43.36,43.36,0,0,0,.88,5.78c.22,1,.47,1.89.77,2.81A17.23,17.23,0,0,0,219.14,753.37Zm-18-155.84a15.83,15.83,0,0,0-.37-4.07,20,20,0,0,1-.15,4,17.28,17.28,0,0,1-.94,3.86,12.52,12.52,0,0,1-4.7,6.06,13.73,13.73,0,0,1-3.5,1.72c-.31.11-.62.22-.93.31l-1,.25-.48.11-.49.09-1,.18a44.86,44.86,0,0,1-8.05.34,28.89,28.89,0,0,0,8.15.48l1-.12.51-.07.51-.11,1-.21,1-.29a14.91,14.91,0,0,0,3.78-1.8,12.93,12.93,0,0,0,3-2.93,13.14,13.14,0,0,0,1.86-3.75A15.69,15.69,0,0,0,201.15,597.53Zm-7.43,5.28a2.65,2.65,0,0,0-.52-1.52,3.55,3.55,0,0,0-1.17-1,5.79,5.79,0,0,0-5.65.21,3.67,3.67,0,0,0-1,1,2.42,2.42,0,0,0-.43,1.33h0v0a2.42,2.42,0,0,0,.43,1.33,3.64,3.64,0,0,0,1,1,5.76,5.76,0,0,0,5.65.22,3.64,3.64,0,0,0,1.17-1A2.64,2.64,0,0,0,193.72,602.81ZM184.9,568a15,15,0,0,0-3.53-1.78,11.49,11.49,0,0,0-4-.68,7.8,7.8,0,0,0-4,1.08c-.15.09-.3.18-.44.28l-.39.26a4.23,4.23,0,0,1-.77.38,2.15,2.15,0,0,1-1.56,0,2.3,2.3,0,0,1-.69-.4,3.5,3.5,0,0,1-.58-.63l-.13-.18-.18-.22a3.54,3.54,0,0,0-.35-.42,5.73,5.73,0,0,0-.81-.68,11.05,11.05,0,0,0-3.74-1.62,15.29,15.29,0,0,0-4-.44,9.66,9.66,0,0,0-3.87.81,11.2,11.2,0,0,1,3.86-.29,17.19,17.19,0,0,1,3.77.71,11.18,11.18,0,0,1,3.36,1.64,6.19,6.19,0,0,1,.67.58c.11.11.18.23.28.34l.13.16a1.7,1.7,0,0,1,.15.22,4.8,4.8,0,0,0,.75.82,3.13,3.13,0,0,0,1,.59,3.25,3.25,0,0,0,2.28,0,4.73,4.73,0,0,0,1-.49l.8-.55a7.44,7.44,0,0,1,3.48-1.11,12.41,12.41,0,0,1,3.78.35A19.61,19.61,0,0,1,184.9,568ZM170,686.68a23,23,0,0,0,.78-5.32c-.48,1.72-1,3.43-1.56,5.07a15.49,15.49,0,0,1-1.07,2.33,4.71,4.71,0,0,1-.71,1,1.13,1.13,0,0,1-.82.36,1.31,1.31,0,0,1-.83-.38,2.94,2.94,0,0,1-.58-.94,9.18,9.18,0,0,1-.5-2.46,39,39,0,0,1,.07-5.29,18.31,18.31,0,0,0-.89,5.32,8.44,8.44,0,0,0,.38,2.78,3.55,3.55,0,0,0,.79,1.32,2.34,2.34,0,0,0,1.53.71h.24l.22,0a2,2,0,0,0,.43-.14,2.74,2.74,0,0,0,.36-.23,3.88,3.88,0,0,0,.31-.26,4.91,4.91,0,0,0,.87-1.19A12.1,12.1,0,0,0,170,686.68Zm-2.26-36a4.42,4.42,0,0,0-1.29-3.55,3.85,3.85,0,0,0-2.66-1.18l-.14.15a8.65,8.65,0,0,1,.71.89,9.7,9.7,0,0,1,.61,1,5.58,5.58,0,0,1,.66,2.12,4.05,4.05,0,0,1-.32,2.17,5.57,5.57,0,0,1-.58,1,7.48,7.48,0,0,1-.73.87l.14.15a3.41,3.41,0,0,0,2.7-1.27,3.93,3.93,0,0,0,.75-1.45A4.4,4.4,0,0,0,167.74,650.71ZM153,602.29a3.06,3.06,0,0,0-.31-1.34,3.23,3.23,0,0,0-.85-1.05,3.59,3.59,0,0,0-2.45-.79,3.52,3.52,0,0,0-2.3,1,3,3,0,0,0-1,2.16v.07a3.08,3.08,0,0,0,1,2.17,3.56,3.56,0,0,0,2.3,1,3.66,3.66,0,0,0,2.46-.78,3.24,3.24,0,0,0,.84-1.06A3.05,3.05,0,0,0,153,602.29Z"/><path d="M219,554.85a.13.13,0,0,0,0,.06l0-.13Z"/><path d="M218.17,579.65c.09.13.18.26.26.4-.09-.13-.19-.26-.29-.38Z"/><path d="M217.8,735.17a49.22,49.22,0,0,1-.81,6.93v0c0,.93.12,1.89.22,2.83s.21,1.92.38,2.87.35,1.9.6,2.83a20.65,20.65,0,0,0,.95,2.74,17.23,17.23,0,0,1-1.14-2.69c-.3-.92-.55-1.86-.77-2.81a43.36,43.36,0,0,1-.88-5.78V742a52.43,52.43,0,0,0,.59-7.2c.05-2.42,0-4.83-.09-7.25s-.24-4.84-.43-7.25-.4-4.83-.65-7.25c-.48-4.82-1.06-9.64-1.69-14.45s-1.28-9.54-2-14.3h0c.91,4.08,1.69,8.2,2.4,12.33.1.62.21,1.25.31,1.87.78,4.8,1.46,9.62,2,14.46.11,1,.21,1.92.3,2.89.38,3.88.65,7.77.77,11.67C217.91,730.07,217.93,732.62,217.8,735.17Z"/><path d="M218.17,579.65l0,0v0l0,0S218.17,579.64,218.17,579.65Z"/><path class="cls-15" d="M218.16,649.19v9l-3.33,1.34c-.2-.68-.4-1.36-.66-2a35.72,35.72,0,0,0-2.81-6Z"/><path d="M218.16,579.63l0,0a23.63,23.63,0,0,0-2.74-2.83,28.66,28.66,0,0,0-3.55-2.64l-1-.56-.47-.28-.49-.25-1-.51-1-.45c-.66-.33-1.36-.56-2-.83s-1.39-.46-2.09-.69l-.06,0,0,0c-3.23-1.94-6.6-3.69-10-5.35s-6.88-3.14-10.39-4.51l-2.3-.87a7.39,7.39,0,0,1,.21-.75l.22-.58c.79.29,1.58.59,2.37.91,3.55,1.4,7,3,10.44,4.69.85.44,1.7.87,2.54,1.32s1.68.91,2.5,1.39c1.65.93,3.27,1.89,4.87,2.93a.13.13,0,0,1-.08,0l.12.06,0,0c.68.26,1.37.49,2,.77s1.39.57,2.05.92l1,.51,1,.57.48.29.47.31c.31.21.63.4.93.62a28.85,28.85,0,0,1,3.45,2.87A20,20,0,0,1,218.16,579.63Z"/><path d="M218.14,569.53l0,0a.36.36,0,0,0,0-.09Z"/><path d="M218.14,579.67l-.06,0a.1.1,0,0,0,0,0Z"/><path d="M217.73,541.92l.05.05h0Z"/><path d="M218.43,580.05a14.7,14.7,0,0,1-.9,3.32,27.58,27.58,0,0,1-1.45,3.12,28.17,28.17,0,0,1-1.82,2.9,21.73,21.73,0,0,1-1.52,2c0-.24,0-.48,0-.72.27-.56.55-1.11.83-1.65.51-1,1.05-2,1.59-3s1.08-2,1.63-3S217.86,581.05,218.43,580.05Z"/><path d="M217,742.06v0Z"/><path d="M216.14,526.4a20.42,20.42,0,0,1-.12,3.5l-.07,0a31.63,31.63,0,0,0-1.11-7.14,25.18,25.18,0,0,0-3-6.87,22.15,22.15,0,0,0-5.08-5.5,29.52,29.52,0,0,0-6.06-3.48l-.1-.14a21.71,21.71,0,0,1,6.64,2.95l.8.57.39.3.38.32c.25.21.5.42.74.64l.71.69a21.65,21.65,0,0,1,2.47,3.08,22.15,22.15,0,0,1,1.8,3.49,23.85,23.85,0,0,1,1.15,3.75A23.17,23.17,0,0,1,216.14,526.4Z"/><path d="M211.36,651.58a35.72,35.72,0,0,1,2.81,6c.26.66.46,1.34.66,2,0,.11.07.22.11.33.2.8.42,1.6.57,2.41a32.31,32.31,0,0,1,.62,4.91,31.89,31.89,0,0,1-.95,9.44c0,.12-.06.25-.1.37a31.63,31.63,0,0,1-1.63,4.65,29.47,29.47,0,0,1-1.35,2.62.5.5,0,0,0,0-.12s0,.08,0,.13a17.69,17.69,0,0,1-1.08,1.63,30.79,30.79,0,0,0,1.95-4.45,37.79,37.79,0,0,0,1.31-4.65,36.44,36.44,0,0,0,.71-4.76,33.59,33.59,0,0,0,.08-4.81c0-.4,0-.8-.07-1.2s-.06-.8-.11-1.19c-.11-.8-.21-1.59-.36-2.38s-.32-1.58-.49-2.36c-.1-.39-.21-.78-.31-1.16s-.21-.78-.34-1.17a53.26,53.26,0,0,0-3.78-8.93C210.23,649.75,210.82,650.66,211.36,651.58Z"/><path d="M216,529.87l.07,0-.06.37Z"/><path d="M212.74,591.34q0,2.13-.12,4.26c-.06.95-.14,1.9-.24,2.83l-.48.12-.46-.07c.13-1,.25-2,.35-2.94.12-1.17.22-2.33.29-3.5C212.31,591.82,212.53,591.58,212.74,591.34Z"/><path d="M212.73,590.62c0,.24,0,.48,0,.72-.21.24-.43.48-.66.7C212.29,591.56,212.51,591.08,212.73,590.62Z"/><path d="M212.73,590.62c-.22.46-.44.94-.65,1.42a61,61,0,0,0,0-8.11A40.43,40.43,0,0,1,212.73,590.62Z"/><path d="M211.9,598.55l.48-.12c-.11,1-.24,2-.37,3-.27,1.94-.63,3.86-1,5.77a115.42,115.42,0,0,1-2.95,11.32c-.17.54-.34,1.08-.52,1.61l-.74.2-.09,0c.19-.68.37-1.35.56-2,.5-1.87,1-3.75,1.44-5.63s.89-3.77,1.27-5.67.75-3.8,1.05-5.71c.15-.93.29-1.86.42-2.8Z"/><path d="M212.08,684.18a.5.5,0,0,1,0,.12h0S212.09,684.22,212.08,684.18Z"/><path d="M206.79,620.33l.74-.2a96.57,96.57,0,0,1-3.57,9.34c1-3,1.88-6.1,2.74-9.16Z"/><path d="M204.22,569.77l-.12-.06a.13.13,0,0,0,.08,0Z"/><path d="M200.78,593.46a16.07,16.07,0,0,1-.31,8.14,13.14,13.14,0,0,1-1.86,3.75,12.93,12.93,0,0,1-3,2.93,14.91,14.91,0,0,1-3.78,1.8l-1,.29-1,.21-.51.11-.51.07-1,.12a28.89,28.89,0,0,1-8.15-.48,44.86,44.86,0,0,0,8.05-.34l1-.18.49-.09.48-.11,1-.25c.31-.09.62-.2.93-.31a13.73,13.73,0,0,0,3.5-1.72,12.52,12.52,0,0,0,4.7-6.06,17.28,17.28,0,0,0,.94-3.86A20,20,0,0,0,200.78,593.46Z"/><path d="M200.66,506.88l-.58-.26.48.12Z"/><path d="M199,533.55l.06.07-.06,0Z"/><path d="M199,533.66l0,1.33c0,.44,0,.88,0,1.32s0,.88-.06,1.32l-.12,1.31c0,.44-.06.88-.12,1.31l-.18,1.31a71.5,71.5,0,0,1-2.25,10.25c.52-3.2,1-6.39,1.35-9.59l.84-.61-.69-.87c.05-.62.1-1.25.13-1.87l.07-1.29c0-.44,0-.87,0-1.3s0-.86,0-1.29l0-1.06.23.32Z"/><path d="M199,533.66l-.79.59-.23-.32v-.23l0-.65c0-.22,0-.43-.05-.65v-.06c.38.38.74.78,1.1,1.21Z"/><path d="M198.94,533v.55c-.36-.43-.72-.83-1.1-1.21l-.09-1.22a30.7,30.7,0,0,0-.9-5,18.64,18.64,0,0,0-2-4.68,13.14,13.14,0,0,0-1.54-2c-.27-.32-.59-.6-.9-.9s-.65-.55-1-.78a10.62,10.62,0,0,0-4.76-1.89,9.77,9.77,0,0,1,5,1.46,12.33,12.33,0,0,1,3.86,3.68,17.87,17.87,0,0,1,2.26,4.85,31.12,31.12,0,0,1,1,5.23l.09,1.32C198.91,532.56,198.93,532.78,198.94,533Z"/><path d="M198.39,541.61l-.84.61c0-.25,0-.5.08-.76s0-.48.07-.72Z"/><path d="M197.92,533.7v.23a27.37,27.37,0,0,0-2.21-2.51,32.09,32.09,0,0,0-2.81-2.53,33.65,33.65,0,0,0-3.1-2.22,37.2,37.2,0,0,0-3.32-1.87,37.75,37.75,0,0,1,3.46,1.65,35.39,35.39,0,0,1,3.27,2,34.72,34.72,0,0,1,3.05,2.38c.54.48,1.07,1,1.58,1.5v.06c0,.22,0,.43.05.65Z"/><path d="M197.7,540.74c0,.24,0,.48-.07.72s0,.51-.08.76l0,0c-1.21-1.71-2.53-3.38-3.88-5s-2.76-3.21-4.24-4.72a51.4,51.4,0,0,0-4.69-4.28,25,25,0,0,0-5.37-3.35,24.8,24.8,0,0,1,5.53,3.14,50.75,50.75,0,0,1,4.9,4.11c1.56,1.46,3,3,4.47,4.58C195.43,538,196.59,539.36,197.7,540.74Z"/><path d="M193.2,601.29a2.51,2.51,0,0,1,0,3.06,3.64,3.64,0,0,1-1.17,1,5.76,5.76,0,0,1-5.65-.22,3.64,3.64,0,0,1-1-1,2.42,2.42,0,0,1-.43-1.33,2.29,2.29,0,0,0,.46,1.31,3.33,3.33,0,0,0,1.06.92,5.43,5.43,0,0,0,5.3-.22,2.23,2.23,0,0,0,0-4.06,5.35,5.35,0,0,0-2.58-.79,5.25,5.25,0,0,0-2.72.58,3.23,3.23,0,0,0-1.06.92,2.29,2.29,0,0,0-.46,1.31,2.42,2.42,0,0,1,.43-1.33,3.67,3.67,0,0,1,1-1,5.79,5.79,0,0,1,5.65-.21A3.55,3.55,0,0,1,193.2,601.29Z"/><path d="M193,557.25a16.57,16.57,0,0,1,.71,1.62,31.86,31.86,0,0,0-4-5.76,33.57,33.57,0,0,0-2.4-2.52c-.83-.81-1.7-1.59-2.61-2.32a53.24,53.24,0,0,0-5.69-4c-1-.61-2-1.2-3-1.76s-2.07-1.09-3.13-1.6a36.81,36.81,0,0,1,6.44,2.9,40.4,40.4,0,0,1,5.85,4,32.51,32.51,0,0,1,5,5,26.13,26.13,0,0,1,2,2.93l.43.77C192.75,556.72,192.88,557,193,557.25Z"/><path class="cls-21" d="M193,602.81a2.55,2.55,0,0,1-1.3,2,5.43,5.43,0,0,1-5.3.22,3.33,3.33,0,0,1-1.06-.92,2.29,2.29,0,0,1-.46-1.31v0h0a2.29,2.29,0,0,1,.46-1.31,3.23,3.23,0,0,1,1.06-.92,5.25,5.25,0,0,1,2.72-.58,5.35,5.35,0,0,1,2.58.79A2.56,2.56,0,0,1,193,602.81ZM190.33,604a1.73,1.73,0,0,0,.57-1.27,1.71,1.71,0,0,0-.58-1.28,1.66,1.66,0,0,0-1.27-.4,1.7,1.7,0,0,0-1.1.58,1.67,1.67,0,0,0-.39.93.91.91,0,0,0,0,.17.86.86,0,0,0,0,.16,1.61,1.61,0,0,0,.39.93,1.7,1.7,0,0,0,1.1.58A1.62,1.62,0,0,0,190.33,604Z"/><path d="M190.9,602.73a1.73,1.73,0,0,1-.57,1.27,1.62,1.62,0,0,1-1.28.4,1.7,1.7,0,0,1-1.1-.58,1.61,1.61,0,0,1-.39-.93,1.33,1.33,0,0,0,.46.86,1.32,1.32,0,0,0,2.17-1,1.33,1.33,0,0,0-1.14-1.33,1.32,1.32,0,0,0-1,.3,1.36,1.36,0,0,0-.46.86,1.67,1.67,0,0,1,.39-.93,1.7,1.7,0,0,1,1.1-.58,1.66,1.66,0,0,1,1.27.4A1.71,1.71,0,0,1,190.9,602.73Z"/><path class="cls-22" d="M190.19,602.73a1.32,1.32,0,0,1-2.63.16.86.86,0,0,1,0-.16.91.91,0,0,1,0-.17,1.36,1.36,0,0,1,.46-.86,1.32,1.32,0,0,1,1-.3A1.33,1.33,0,0,1,190.19,602.73Z"/><path class="cls-16" d="M187.72,469.56v31.12c-.27,0-.54,0-.81,0-.67,0-1.34,0-2,0s-1.33.08-2,.14-1.33.14-2,.26a40,40,0,0,0-7,1.8c-.43-.18-.85-.34-1.28-.49a24.49,24.49,0,0,0-3-.86,25.5,25.5,0,0,0-3.14-.44,18.6,18.6,0,0,0-6.3.61A15.46,15.46,0,0,0,155,504.2h0c-.73-.15-1.46-.26-2.18-.4l-1.1-.19-1.1-.12-2.21-.23c-.74-.06-1.48-.06-2.22-.1s-1.48-.06-2.22-.07l-.65,0V469.56Z"/><path class="cls-15" d="M184.9,753.37h-6.71l5.76-2.65C184.23,751.62,184.55,752.5,184.9,753.37Z"/><path d="M180.2,733.33c-.28-1.82-.55-3.65-.82-5.47q-.6-4.3-1.12-8.64-.33-2.88-.65-5.77l.74-.34.25,0c.23,2,.46,4,.71,6,.68,5.75,1.41,11.5,2.24,17.23.42,2.87.86,5.73,1.38,8.58a68.27,68.27,0,0,0,2,8.46c-.35-.87-.67-1.75-1-2.65-.16-.49-.3-1-.44-1.48-.21-.7-.39-1.41-.57-2.11s-.35-1.41-.51-2.12c-.65-2.83-1.21-5.68-1.7-8.55C180.54,735.42,180.37,734.38,180.2,733.33Z"/><path class="cls-15" d="M184,750.72l-5.76,2.65H156c1.29-3.33,2.38-6.73,3.4-10.15l20.85-9.89c.17,1,.34,2.09.53,3.13.49,2.87,1.05,5.72,1.7,8.55.16.71.32,1.42.51,2.12s.36,1.41.57,2.11C183.65,749.73,183.79,750.23,184,750.72Z"/><path d="M181.37,566.26A15,15,0,0,1,184.9,568a19.61,19.61,0,0,0-3.68-1.29,12.41,12.41,0,0,0-3.78-.35,7.44,7.44,0,0,0-3.48,1.11l-.8.55a4.73,4.73,0,0,1-1,.49,3.25,3.25,0,0,1-2.28,0,3.13,3.13,0,0,1-1-.59,4.8,4.8,0,0,1-.75-.82A1.7,1.7,0,0,0,168,567l-.13-.16c-.1-.11-.17-.23-.28-.34a6.19,6.19,0,0,0-.67-.58,11.18,11.18,0,0,0-3.36-1.64,17.19,17.19,0,0,0-3.77-.71,11.2,11.2,0,0,0-3.86.29,9.66,9.66,0,0,1,3.87-.81,15.29,15.29,0,0,1,4,.44,11.05,11.05,0,0,1,3.74,1.62,5.73,5.73,0,0,1,.81.68,3.54,3.54,0,0,1,.35.42l.18.22.13.18a3.5,3.5,0,0,0,.58.63,2.3,2.3,0,0,0,.69.4,2.15,2.15,0,0,0,1.56,0,4.23,4.23,0,0,0,.77-.38l.39-.26c.14-.1.29-.19.44-.28a7.8,7.8,0,0,1,4-1.08A11.49,11.49,0,0,1,181.37,566.26Z"/><path d="M181,559.83a1.29,1.29,0,0,0-.05.21c-.08.32-.14.66-.19,1a10.87,10.87,0,0,0-.13,2.06,11.84,11.84,0,0,1-.4-2.07c0-.36-.06-.71-.07-1.07,0-.14,0-.29,0-.43l.5.17Z"/><path d="M179.6,559l-.23.28-.1,0Z"/><path d="M179.27,559.22l.1,0c-.19.23-.38.46-.59.68a10.75,10.75,0,0,1-.92.86c-.16.14-.32.28-.49.41l-.52.37a11.05,11.05,0,0,1-1.09.68,11.86,11.86,0,0,1-2.39,1,9.26,9.26,0,0,1-2.61.41h-.07l-.09,0a10.5,10.5,0,0,1-2.68-1.49,15.25,15.25,0,0,1-2.14-2.11,18.53,18.53,0,0,1-1.68-2.47,17.41,17.41,0,0,1-1.11-2.4l.1,0c.47.72,1,1.41,1.47,2.08.14.2.3.38.45.57s.3.37.46.55c.3.38.63.72.95,1.07a17.93,17.93,0,0,0,2.12,1.88,10.76,10.76,0,0,0,2.35,1.29h-.09l.16,0-.07,0a7.92,7.92,0,0,0,1.06-.08,11.46,11.46,0,0,0,1.17-.21,11,11,0,0,0,1.16-.33l.57-.19.56-.23a16.56,16.56,0,0,0,2.17-1.13c.36-.21.68-.46,1-.69Z"/><path class="cls-20" d="M178,558.79l1.27.43-.66.5c-.35.23-.67.48-1,.69a16.56,16.56,0,0,1-2.17,1.13l-.56.23-.57.19a11,11,0,0,1-1.16.33,11.46,11.46,0,0,1-1.17.21,7.92,7.92,0,0,1-1.06.08,10.76,10.76,0,0,1-2.35-1.29,17.93,17.93,0,0,1-2.12-1.88c-.32-.35-.65-.69-.95-1.07-.16-.18-.31-.36-.46-.55s-.31-.37-.45-.57c-.51-.67-1-1.36-1.47-2.08l1.23.19c.46.07.93.13,1.39.22l1.38.3c.92.2,1.85.36,2.77.59l2.73.7.69.18.67.2,1.36.41C176.21,558.21,177.11,558.46,178,558.79Z"/><path d="M175.93,694.36q-.28-4-.48-8.07c0-.58-.06-1.17-.08-1.76l1,8.65,1,8.64q.63,5.64,1.27,11.27l-.25,0-.74.34-.3-2.88c-.28-2.89-.57-5.78-.8-8.67C176.29,699.39,176.1,696.87,175.93,694.36Z"/><path class="cls-15" d="M177.61,713.45l-11.76,5.37q1.25-5.15,2.42-10.29,1.35-5.92,2.56-11.87l5.1-2.3c.17,2.51.36,5,.58,7.54.23,2.89.52,5.78.8,8.67Z"/><path d="M175.67,532.52h.25s0,0,0-.08,0-.09,0-.1h0v0l-.17.15Zm0,0h-.13a10.32,10.32,0,0,0-1.07.17c-.73.14-1.46.31-2.18.49-1.45.36-2.9.76-4.34,1.16s-2.86.88-4.28,1.34c-.71.24-1.42.45-2.12.7l-2.08.83a64.78,64.78,0,0,0-15.58,8.71,57.12,57.12,0,0,0-6.66,6c-.5.56-1,1.09-1.52,1.66l-.72.86-.36.43-.34.44-.69.89-.65.91c-.39.54-.75,1.1-1.09,1.67v0a30.38,30.38,0,0,1,2.28-3.57l.33-.45.35-.45.69-.88c.47-.59,1-1.15,1.46-1.72a58.27,58.27,0,0,1,6.59-6.17c.58-.48,1.2-.91,1.8-1.36s1.21-.91,1.85-1.3c1.28-.8,2.52-1.66,3.86-2.36l2-1.1c.66-.36,1.35-.66,2-1l2-1,2.1-.85,2.1-.83c.71-.24,1.44-.46,2.15-.69,1.44-.46,2.87-.94,4.32-1.31s2.9-.79,4.36-1.15c.73-.17,1.47-.34,2.22-.47a8.39,8.39,0,0,1,1.15-.15h.31l.17,0a.6.6,0,0,1,.24.08.47.47,0,0,1,.15.18.34.34,0,0,1,0,.24.68.68,0,0,1-.12.23,2.51,2.51,0,0,1-.25.23,14.85,14.85,0,0,1-2,1.14c-.67.34-1.36.65-2,1-1.37.62-2.74,1.21-4.13,1.79-2.77,1.14-5.56,2.27-8.37,3.32,2.75-1.2,5.51-2.39,8.24-3.63,1.36-.62,2.72-1.24,4.07-1.89.68-.32,1.35-.65,2-1A13.81,13.81,0,0,0,175.67,532.52Z"/><path d="M175.92,532.53h-.24l.17-.15v0h0s0,0,0,.1S175.92,532.52,175.92,532.53Z"/><path class="cls-15" d="M175.93,694.36l-5.1,2.3c.19-.93.37-1.86.56-2.79a5.75,5.75,0,0,0,1-.86,11.36,11.36,0,0,0,2-3.18,17.12,17.12,0,0,0,1-3.53h.08Q175.65,690.33,175.93,694.36Z"/><path d="M174.08,502.94a20.3,20.3,0,0,1,4.11,2.27,39.85,39.85,0,0,0-5.82-2,30.75,30.75,0,0,0-6-1,20.44,20.44,0,0,0-3,0c-.51,0-1,.08-1.52.13s-1,.14-1.49.24a22.23,22.23,0,0,0-5.23,1.76l-.15,0a15.46,15.46,0,0,1,5.19-2.52,18.6,18.6,0,0,1,6.3-.61,25.5,25.5,0,0,1,3.14.44,24.49,24.49,0,0,1,3,.86c.43.15.85.31,1.28.49l-.65.23.83-.15Z"/><path d="M175.37,686.3a17.12,17.12,0,0,1-1,3.53,11.36,11.36,0,0,1-2,3.18,5.75,5.75,0,0,1-1,.86c0-.17.06-.34.1-.51-.05.18-.11.36-.15.54a5.48,5.48,0,0,1-.52.31,4.52,4.52,0,0,1-1.95.51,4.47,4.47,0,0,1-.52,0l-.5-.07a5.21,5.21,0,0,1-.95-.29,7.8,7.8,0,0,1-1.62-.85l.13,0-.23-.09.09.06a5,5,0,0,1-.83-.27,5.51,5.51,0,0,1-.86-.47,4.9,4.9,0,0,1-1.38-1.38,6,6,0,0,1-.85-3.66,11.64,11.64,0,0,1,.8-3.52,20.63,20.63,0,0,1,1.57-3.2c-.4,1.11-.79,2.22-1.08,3.35-.07.28-.14.56-.19.85s-.11.56-.16.85-.06.57-.1.85a7.85,7.85,0,0,0,0,.84,5.28,5.28,0,0,0,.86,3.08,4.11,4.11,0,0,0,1.12,1.08,4.52,4.52,0,0,0,.69.36,3.42,3.42,0,0,0,.72.22l.12,0,.11.07a7.7,7.7,0,0,0,1.48.82,5.88,5.88,0,0,0,.78.25l.4.06c.14,0,.27,0,.4,0a3.54,3.54,0,0,0,1.56-.34,5.66,5.66,0,0,0,1.37-.94,12.07,12.07,0,0,0,2.09-2.83A22.85,22.85,0,0,0,175.37,686.3Z"/><path d="M173.9,502.86l.18.08-.83.15Z"/><path d="M171.49,693.36c0,.17-.07.34-.1.51l0,0C171.38,693.72,171.44,693.54,171.49,693.36Z"/><path d="M171,562.61l-.16,0h.09Z"/><path d="M170.78,681.36a23,23,0,0,1-.78,5.32,12.1,12.1,0,0,1-1,2.58,4.91,4.91,0,0,1-.87,1.19,3.88,3.88,0,0,1-.31.26,2.74,2.74,0,0,1-.36.23,2,2,0,0,1-.43.14l-.22,0h-.24a2.34,2.34,0,0,1-1.53-.71,3.55,3.55,0,0,1-.79-1.32,8.44,8.44,0,0,1-.38-2.78,18.31,18.31,0,0,1,.89-5.32,39,39,0,0,0-.07,5.29,9.18,9.18,0,0,0,.5,2.46,2.94,2.94,0,0,0,.58.94,1.31,1.31,0,0,0,.83.38,1.13,1.13,0,0,0,.82-.36,4.71,4.71,0,0,0,.71-1,15.49,15.49,0,0,0,1.07-2.33C169.82,684.79,170.3,683.08,170.78,681.36Z"/><path d="M167.74,649.89a4.49,4.49,0,0,1,0,.82,4.4,4.4,0,0,1-.15.82,3.93,3.93,0,0,1-.75,1.45,3.41,3.41,0,0,1-2.7,1.27l-.14-.15a7.48,7.48,0,0,0,.73-.87,5.57,5.57,0,0,0,.58-1,4.05,4.05,0,0,0,.32-2.17A5.58,5.58,0,0,0,165,648a9.7,9.7,0,0,0-.61-1,8.65,8.65,0,0,0-.71-.89l.14-.15a3.85,3.85,0,0,1,2.66,1.18A4.5,4.5,0,0,1,167.74,649.89Z"/><path d="M143.25,503.1l.65,0c.74,0,1.48.05,2.22.07s1.48,0,2.22.1l2.21.23,1.1.12,1.1.19c.72.14,1.45.25,2.18.4h0c-.14.09-.27.2-.41.31l.56-.27,2,.52.54.15.52.18,1.05.37a18.48,18.48,0,0,1,2.05.86,19.8,19.8,0,0,1,3.79,2.31,10.84,10.84,0,0,1,2.93,3.29,8.12,8.12,0,0,0-1.41-1.68c-.27-.24-.54-.5-.81-.73l-.88-.65A23.54,23.54,0,0,0,159,506l-1-.32-.52-.16a4.56,4.56,0,0,0-.53-.13l-2.12-.48c-.72-.13-1.44-.22-2.16-.34l-1.08-.16-1.09-.09-2.17-.18c-.73-.05-1.46,0-2.19-.05s-1.46,0-2.18,0l-4.38.17-4.36.4-.54.05a3.43,3.43,0,0,0-.48.08,3.11,3.11,0,0,0-.86.37,3,3,0,0,0-1.2,1.4,3.26,3.26,0,0,0-.15.44c0,.14-.07.35-.11.52l-.22,1.08-.41,2.15c-.55,2.88-1,5.77-1.37,8.67a71,71,0,0,0-.61,8.74,28.85,28.85,0,0,0,.28,4.36,11.45,11.45,0,0,0,1.14,3.7l0,0a9.14,9.14,0,0,1-.79-1.56,14,14,0,0,1-.61-2.13,28.26,28.26,0,0,1-.52-4.4,62.11,62.11,0,0,1,.31-8.84c.27-2.94.7-5.85,1.2-8.76.12-.72.26-1.45.4-2.17l.21-1.08c0-.19.06-.35.12-.56a3,3,0,0,1,.2-.6,4,4,0,0,1,1.6-1.89,3.85,3.85,0,0,1,1.16-.5,3.26,3.26,0,0,1,.61-.11l.55,0,4.41-.38Z"/><path d="M165.41,693.53l-.13,0h0l-.09-.06Z"/><path d="M162.89,554.83l.2.31-.1,0A2.47,2.47,0,0,1,162.89,554.83Z"/><path d="M162.13,554.31c0,.1,0,.19,0,.29l-.66.19-.13-.53Z"/><path d="M162.09,554.6,162,555l-.39-.06.14,0-.25,0h.11l-.56.17c0-.28,0-.56,0-.83h.23l.13.53Z"/><path d="M161.64,554.91l.39.06c-.14.92-.3,1.83-.48,2.74-.12.56-.24,1.12-.39,1.67a5.84,5.84,0,0,1-.62,1.61,5.54,5.54,0,0,0,.36-1.66c.06-.56.09-1.12.12-1.69,0-.85.06-1.71.06-2.56Z"/><path d="M161.78,554.87l-.14,0h-.11Z"/><path d="M161.66,553.66l-.45.09.22-.06.12,0Z"/><path d="M161.18,553.76l.12.5h-.23c0,.27,0,.55,0,.83q-3.14.92-6.27,1.87c-2.31.72-4.62,1.44-6.93,2.19s-4.61,1.51-6.88,2.34c-1.14.42-2.27.86-3.38,1.34a15.29,15.29,0,0,0-3.2,1.69,10.37,10.37,0,0,1,1.43-1c.54-.32,1.1-.61,1.66-.9,1.09-.54,2.2-1,3.32-1.52q3.36-1.44,6.78-2.69t6.88-2.43C156.71,555.19,158.93,554.45,161.18,553.76Z"/><path d="M161.21,553.75h0Z"/><path d="M155.1,504.24l-.56.27c.14-.11.27-.22.41-.31Z"/><path d="M152.64,601a3,3,0,0,1,0,2.67,3.24,3.24,0,0,1-.84,1.06,3.66,3.66,0,0,1-2.46.78,3.56,3.56,0,0,1-2.3-1,3.08,3.08,0,0,1-1-2.17,2.86,2.86,0,0,0,.28,1.15,2.79,2.79,0,0,0,.76.94,3.3,3.3,0,0,0,2.23.7,3.18,3.18,0,0,0,2-.89,2.61,2.61,0,0,0,0-3.87,3.18,3.18,0,0,0-2-.89,3.3,3.3,0,0,0-2.23.7,2.79,2.79,0,0,0-.76.94,2.86,2.86,0,0,0-.28,1.15,3,3,0,0,1,1-2.16,3.52,3.52,0,0,1,2.3-1,3.59,3.59,0,0,1,2.45.79A3.23,3.23,0,0,1,152.64,601Z"/><path class="cls-21" d="M152.25,602.29a2.64,2.64,0,0,1-.86,1.93,3.18,3.18,0,0,1-2,.89,3.3,3.3,0,0,1-2.23-.7,2.79,2.79,0,0,1-.76-.94,2.86,2.86,0,0,1-.28-1.15v-.07a2.86,2.86,0,0,1,.28-1.15,2.79,2.79,0,0,1,.76-.94,3.3,3.3,0,0,1,2.23-.7,3.18,3.18,0,0,1,2,.89A2.66,2.66,0,0,1,152.25,602.29Zm-1.81,1.36a1.7,1.7,0,0,0,.57-1.28,1.67,1.67,0,0,0-.58-1.27,1.63,1.63,0,0,0-1.27-.4,1.72,1.72,0,0,0-1.1.58,1.68,1.68,0,0,0-.39.93.86.86,0,0,0,0,.16.91.91,0,0,0,0,.17,1.75,1.75,0,0,0,.39.93,1.72,1.72,0,0,0,1.1.58A1.66,1.66,0,0,0,150.44,603.65Z"/><path d="M151,602.37a1.7,1.7,0,0,1-.57,1.28,1.66,1.66,0,0,1-1.28.4,1.72,1.72,0,0,1-1.1-.58,1.75,1.75,0,0,1-.39-.93,1.36,1.36,0,0,0,.46.86,1.32,1.32,0,0,0,1,.3,1.34,1.34,0,0,0,0-2.65,1.32,1.32,0,0,0-1,.3,1.33,1.33,0,0,0-.46.86,1.68,1.68,0,0,1,.39-.93,1.72,1.72,0,0,1,1.1-.58,1.63,1.63,0,0,1,1.27.4A1.67,1.67,0,0,1,151,602.37Z"/><path class="cls-22" d="M150.31,602.37a1.35,1.35,0,0,1-1.15,1.33,1.32,1.32,0,0,1-1-.3,1.36,1.36,0,0,1-.46-.86.91.91,0,0,1,0-.17.86.86,0,0,1,0-.16,1.33,1.33,0,0,1,.46-.86,1.32,1.32,0,0,1,1-.3A1.34,1.34,0,0,1,150.31,602.37Z"/><path d="M145.72,608.21a26.36,26.36,0,0,0,6.35,2.19,24.42,24.42,0,0,1-6.57-1.72c-.53-.21-1-.51-1.54-.77a17.2,17.2,0,0,1-1.45-.95,12,12,0,0,1-2.48-2.44l0,0c0-.3-.07-.6-.1-.9,0,.26,0,.52,0,.77a13.39,13.39,0,0,1-2.36-6.28,32.1,32.1,0,0,1,0-6.86c.1-1.12.21-2.25.23-3.33s-.1-2.21-.22-3.32c-.08-.78-.17-1.55-.27-2.33h.09l.88.08c.11.71.2,1.43.3,2.14a32.56,32.56,0,0,1,.25,3.44c0,1.17-.12,2.3-.21,3.42a32.18,32.18,0,0,0-.08,6.65,14.3,14.3,0,0,0,.7,3.19A12.24,12.24,0,0,0,140.7,604a12,12,0,0,0,2.24,2.38,16.17,16.17,0,0,0,1.33,1C144.75,607.66,145.22,608,145.72,608.21Z"/><path d="M140.27,615.4q-.32-5.52-.37-11.06s.06.08.09.13c.43,3.73.76,7.48,1.12,11.22l.28,3,.29,3,.28,3,.31,3c.38,4,.84,8.05,1.34,12.07.13,1,.26,2,.42,3l.22,1.5.26,1.49.12.75.15.75c.1.49.2,1,.32,1.48l.18.74.21.72a5,5,0,0,0,.58,1.39,5.06,5.06,0,0,1-.73-1.33l-.28-.72-.24-.72c-.17-.49-.3-1-.43-1.47l-.21-.74L144,646l-.35-1.49-.3-1.49c-.22-1-.38-2-.55-3l-.26-1.51-.13-1-.08-.56c-.15-1-.31-2-.43-3-.25-2-.49-4-.68-6.06l-.29-3-.25-3c-.14-2-.3-4.05-.39-6.08C140.28,615.64,140.27,615.52,140.27,615.4Z"/><path class="cls-17" d="M145.34,650.37a5.06,5.06,0,0,0,.73,1.33c-.79,2-1.5,4-2.17,6.1-.35,1-.66,2.05-1,3.08l-.48,1.54L142,664l-.9,3.11-.18.67L67,690.53V657.71l75.41-20.17.13,1,.26,1.51c.17,1,.33,2,.55,3l.3,1.49L144,646l.18.74.21.74c.13.49.26,1,.43,1.47l.24.72Z"/><path d="M129.38,735.44l.11-1.46.24-3.23.32-3.22c.21-2.15.42-4.29.65-6.44s.54-4.28.8-6.42c0-.1,0-.2,0-.3.05-.43.11-.86.17-1.3.21-1.61.42-3.22.69-4.82l1-6.4c1.41-8.22,3-16.41,5-24.5l.21-.87c.53-2.1,1-4.19,1.62-6.27l.67-2.46.18-.67L142,664l.47-1.55.48-1.54c.34-1,.65-2.06,1-3.08.67-2,1.38-4.09,2.17-6.1-1.34,4.1-2.53,8.25-3.62,12.42l-.82,3.12-.78,3.14c-.53,2.08-1,4.19-1.48,6.29q-2.82,12.6-5,25.35c-.65,4.26-1.38,8.51-1.93,12.78-.29,2.13-.6,4.27-.87,6.4s-.5,4.28-.76,6.42l-.4,3.21-.31,3.21-.63,6.44c-.43,4.29-.7,8.59-1.1,12.89.08-2.16.17-4.31.27-6.47l.14-3.23c0-1.08.09-2.16.17-3.23Z"/><path class="cls-16" d="M143.25,469.56V503.1l-3.78.12-4.41.38-.55,0a3.26,3.26,0,0,0-.61.11,3.85,3.85,0,0,0-1.16.5,4,4,0,0,0-1.6,1.89,3,3,0,0,0-.2.6c-.06.21-.08.37-.12.56l-.21,1.08c-.14.72-.28,1.45-.4,2.17-.5,2.91-.93,5.82-1.2,8.76a62.11,62.11,0,0,0-.31,8.84,28.26,28.26,0,0,0,.52,4.4,14,14,0,0,0,.61,2.13,9.14,9.14,0,0,0,.79,1.56,18,18,0,0,0-1.84,5.67,19.32,19.32,0,0,0-.19,3c0,.52.06,1,.09,1.49l.1,1.48c0,.49.09,1,.16,1.48l.18,1.48a6.13,6.13,0,0,0,.11.73l.13.74c.1.49.17,1,.29,1.46a23.61,23.61,0,0,0,2,5.64c.12.22.23.44.36.66l.41.62.21.32.23.29c.17.19.31.4.49.57a4.84,4.84,0,0,0,2.51,1.54l0,0a10.37,10.37,0,0,0-1.43,1c.38,2.23.79,4.45,1.15,6.68s.74,4.45,1.1,6.68c.22,1.45.44,2.9.63,4.35.1.78.19,1.55.27,2.33.12,1.11.21,2.22.22,3.32s-.13,2.21-.23,3.33a32.1,32.1,0,0,0,0,6.86,13.39,13.39,0,0,0,2.36,6.28q.06,5.53.37,11.06l-42.18,9.93,0-.1V469.56ZM125.6,564.51c-1.6,0-3.2,0-4.79.08s-3.18.17-4.77.28-3.18.26-4.76.43-3.17.36-4.74.63c1.59,0,3.19,0,4.78-.08s3.18-.17,4.77-.28,3.18-.25,4.76-.43S124,564.78,125.6,564.51Zm.17-20.82a6.8,6.8,0,0,0-.52-2.75,4,4,0,0,0-.78-1.21,2.14,2.14,0,0,0-1.34-.63,2.11,2.11,0,0,0-1.43.53,3.85,3.85,0,0,0-.93,1.2,6.71,6.71,0,0,0,0,5.72,3.84,3.84,0,0,0,.93,1.19,2.19,2.19,0,0,0,1.43.54,2.14,2.14,0,0,0,1.34-.63,4.18,4.18,0,0,0,.78-1.21A6.86,6.86,0,0,0,125.77,543.69ZM120.87,587c1.58-.29,3.16-.6,4.73-1-1.61.09-3.21.25-4.81.43s-3.18.4-4.78.63-3.17.49-4.75.78-3.16.6-4.72,1c1.6-.09,3.2-.25,4.8-.43s3.19-.4,4.78-.63S119.29,587.32,120.87,587Zm0-6.45c1.58-.25,3.16-.53,4.73-.89-1.61.06-3.21.19-4.8.35s-3.19.34-4.78.54-3.17.43-4.75.7-3.16.54-4.73.88c1.6-.06,3.2-.19,4.8-.34s3.18-.34,4.77-.54S119.29,580.84,120.87,580.58Zm0-7.23c1.58-.2,3.16-.42,4.74-.72-1.61,0-3.2.07-4.79.17s-3.19.23-4.78.36-3.17.32-4.75.53-3.17.42-4.74.71c1.6,0,3.19-.08,4.79-.17s3.18-.22,4.77-.36S119.27,573.55,120.86,573.35Z"/><path class="cls-16" d="M142.33,637l.08.56L67,657.71V632.64l31.09-7.31,42.18-9.93c0,.12,0,.24,0,.35.09,2,.25,4,.39,6.08l.25,3,.29,3c.19,2,.43,4,.68,6.06C142,635,142.18,636,142.33,637Z"/><path class="cls-17" d="M140.87,667.75l-.67,2.46c-.58,2.08-1.09,4.17-1.62,6.27l-.21.87-8.89,3.13-3.76,1.33L96.65,692.07l-7.76,2.74-4.21,1.48L67,702.54v-12Z"/><path d="M145.72,527.8a28.07,28.07,0,0,0-5.68,1.48,17.43,17.43,0,0,0-5,2.9,15,15,0,0,0-3.52,4.46,17.36,17.36,0,0,0-1.72,5.44,17,17,0,0,0-.21,2.85c0,.94.11,2,.16,2.92,0,.49.06,1,.11,1.46l.14,1.46c0,.48.15,1,.21,1.44s.12,1,.22,1.45l.29,1.42c.09.49.25.94.36,1.41l.19.71.25.68.24.69a1.11,1.11,0,0,0,.07.16l-.13.24.13-.22.22.48c.1.22.19.45.3.66l.35.64.18.31.21.3c.14.19.26.41.42.59s.31.37.48.55.35.34.54.48a3.68,3.68,0,0,0,1.27.7,4.84,4.84,0,0,1-2.51-1.54c-.18-.17-.32-.38-.49-.57l-.23-.29-.21-.32-.41-.62c-.13-.22-.24-.44-.36-.66a23.61,23.61,0,0,1-2-5.64c-.12-.48-.19-1-.29-1.46l-.13-.74a6.13,6.13,0,0,1-.11-.73l-.18-1.48c-.07-.49-.13-1-.16-1.48l-.1-1.48c0-.49-.08-1-.09-1.49a19.32,19.32,0,0,1,.19-3,18,18,0,0,1,1.84-5.67c.08.13.18.25.27.38-.09-.14-.17-.28-.25-.42a.05.05,0,0,0,0,0,14.94,14.94,0,0,1,3.89-4.62,16.47,16.47,0,0,1,5.32-2.76A23,23,0,0,1,145.72,527.8Z"/><path d="M140,604.47c0-.05-.07-.09-.09-.13,0-.25,0-.51,0-.77C139.92,603.87,140,604.17,140,604.47Z"/><path d="M140.65,566.52a69.47,69.47,0,0,0-1.44,7.85c-.17,1.32-.32,2.64-.45,4s-.24,2.65-.31,4l-.18,0c-.15-1-.3-1.94-.48-2.9h0c.06-.38.12-.77.19-1.15.21-1.32.45-2.64.71-4A70.09,70.09,0,0,1,140.65,566.52Z"/><path class="cls-17" d="M129.48,680.48l8.89-3.13c-2,8.09-3.58,16.28-5,24.5l-1,6.4c-.27,1.6-.48,3.21-.69,4.82l-2.23,1.11Z"/><path d="M138.27,582.29l-.88-.08c.12-.94.25-1.88.4-2.82C138,580.35,138.12,581.32,138.27,582.29Z"/><path d="M137.79,579.39h0c-.15.94-.28,1.88-.4,2.82h-.09c-.19-1.45-.41-2.9-.63-4.35-.36-2.23-.72-4.46-1.1-6.68s-.77-4.45-1.15-6.68c1.17,4.37,2.21,8.77,3.06,13.21C137.59,578.28,137.69,578.83,137.79,579.39Z"/><path d="M131.86,558.75l-.13.22.13-.24Z"/><path class="cls-15" d="M131.71,713.07c-.06.44-.12.87-.17,1.3l-1.64.75-.42-.94Z"/><path d="M130.64,536.21c.08.14.16.28.25.42-.09-.13-.19-.25-.27-.38Z"/><polygon class="cls-17" points="129.48 680.48 129.48 714.18 125.72 712.07 125.72 695.47 125.72 681.81 129.48 680.48"/><path class="cls-15" d="M129.38,735.44l-.38,5c-.08,1.07-.13,2.15-.17,3.23l-.14,3.23c-.1,2.16-.19,4.31-.27,6.47H90.07Z"/><polygon class="cls-15" points="125.72 681.81 125.72 695.47 96.66 707.18 96.66 692.07 125.72 681.81"/><path d="M120.81,564.59c1.59-.06,3.19-.1,4.79-.08-1.58.27-3.16.46-4.75.63s-3.17.31-4.76.43-3.18.22-4.77.28-3.19.11-4.78.08c1.57-.27,3.15-.46,4.74-.63s3.17-.3,4.76-.43S119.22,564.66,120.81,564.59Z"/><path d="M125.25,540.94a6.8,6.8,0,0,1,.52,2.75,6,6,0,0,0-.61-2.71,3.61,3.61,0,0,0-.84-1.08,1.82,1.82,0,0,0-1.19-.45A1.78,1.78,0,0,0,122,540a3.47,3.47,0,0,0-.69,1.1,7.08,7.08,0,0,0,0,5.2,3.64,3.64,0,0,0,.7,1.09,1.68,1.68,0,0,0,1.11.54,1.76,1.76,0,0,0,1.19-.44,3.57,3.57,0,0,0,.84-1.08,6,6,0,0,0,.61-2.71,6.86,6.86,0,0,1-.52,2.75,4.18,4.18,0,0,1-.78,1.21,2.14,2.14,0,0,1-1.34.63,2.19,2.19,0,0,1-1.43-.54,3.84,3.84,0,0,1-.93-1.19,6.71,6.71,0,0,1,0-5.72,3.85,3.85,0,0,1,.93-1.2,2.11,2.11,0,0,1,1.43-.53,2.14,2.14,0,0,1,1.34.63A4,4,0,0,1,125.25,540.94Z"/><path class="cls-18" d="M125.16,541a6.32,6.32,0,0,1,0,5.42,3.57,3.57,0,0,1-.84,1.08,1.76,1.76,0,0,1-1.19.44,1.68,1.68,0,0,1-1.11-.54,3.64,3.64,0,0,1-.7-1.09,7.08,7.08,0,0,1,0-5.2A3.47,3.47,0,0,1,122,540a1.78,1.78,0,0,1,1.11-.54,1.82,1.82,0,0,1,1.19.45A3.61,3.61,0,0,1,125.16,541Z"/><path d="M125.6,586.05c-1.57.38-3.15.69-4.73,1s-3.17.54-4.75.78-3.18.45-4.78.63-3.2.34-4.8.43c1.56-.38,3.14-.69,4.72-1s3.17-.54,4.75-.78,3.18-.45,4.78-.63S124,586.14,125.6,586.05Z"/><path d="M125.6,579.69c-1.57.36-3.15.64-4.73.89s-3.17.49-4.76.7-3.18.39-4.77.54-3.2.28-4.8.34c1.57-.34,3.14-.63,4.73-.88s3.16-.49,4.75-.7,3.18-.39,4.78-.54S124,579.75,125.6,579.69Z"/><path d="M125.6,572.63c-1.58.3-3.16.52-4.74.72s-3.17.36-4.76.52-3.18.27-4.77.36-3.19.17-4.79.17c1.57-.29,3.15-.52,4.74-.71s3.17-.37,4.75-.53,3.18-.27,4.78-.36S124,572.63,125.6,572.63Z"/><polygon class="cls-17" points="96.66 707.18 96.66 727.6 88.89 732.19 88.89 694.81 96.66 692.07 96.66 707.18"/><polygon class="cls-17" points="88.89 694.81 88.89 732.19 84.69 728.3 84.69 712 84.69 696.29 88.89 694.81"/><polygon class="cls-15" points="84.69 696.29 84.69 712 67 719.13 67 702.53 84.69 696.29"/><path d="M84.12,542.52a6.89,6.89,0,0,1,.53,2.76,6,6,0,0,0-.62-2.71,3.43,3.43,0,0,0-.83-1.08A1.85,1.85,0,0,0,82,541a1.75,1.75,0,0,0-1.1.54,3.69,3.69,0,0,0-.7,1.1,7.14,7.14,0,0,0,0,5.2,3.45,3.45,0,0,0,.7,1.09,1.7,1.7,0,0,0,1.1.54,1.79,1.79,0,0,0,1.2-.44A3.54,3.54,0,0,0,84,548a6,6,0,0,0,.62-2.71,6.87,6.87,0,0,1-.53,2.75,3.87,3.87,0,0,1-.78,1.2,2.05,2.05,0,0,1-1.34.64,2.21,2.21,0,0,1-1.43-.54,3.93,3.93,0,0,1-.92-1.19,6.64,6.64,0,0,1,0-5.73,4.05,4.05,0,0,1,.92-1.19,2.15,2.15,0,0,1,1.43-.53,2.09,2.09,0,0,1,1.34.63A3.87,3.87,0,0,1,84.12,542.52Z"/><path class="cls-18" d="M84,542.57a6,6,0,0,1,.62,2.71A6,6,0,0,1,84,548a3.54,3.54,0,0,1-.83,1.08,1.79,1.79,0,0,1-1.2.44,1.7,1.7,0,0,1-1.1-.54,3.45,3.45,0,0,1-.7-1.09,7.14,7.14,0,0,1,0-5.2,3.69,3.69,0,0,1,.7-1.1A1.75,1.75,0,0,1,82,541a1.85,1.85,0,0,1,1.2.45A3.43,3.43,0,0,1,84,542.57Z"/><path d="M77.3,575.15c1.15-.06,2.31-.08,3.47,0-1.14.26-2.28.44-3.42.6s-2.29.28-3.43.39-2.3.19-3.45.24-2.31.09-3.47,0c1.13-.25,2.27-.44,3.42-.59s2.28-.29,3.43-.4S76.15,575.2,77.3,575.15Z"/><path d="M77.3,567c1.15,0,2.31,0,3.47,0-1.14.23-2.28.39-3.42.53s-2.29.24-3.44.33-2.3.15-3.45.17-2.3.05-3.46,0c1.14-.23,2.28-.4,3.42-.53s2.29-.24,3.44-.34S76.15,567,77.3,567Z"/><path d="M80.77,588.52c-1.13.31-2.27.56-3.41.78s-2.28.41-3.42.59-2.3.32-3.46.43-2.31.21-3.48.24c1.13-.32,2.26-.56,3.4-.78s2.29-.41,3.43-.59,2.3-.32,3.46-.44S79.6,588.54,80.77,588.52Z"/><path d="M80.77,582.16c-1.13.3-2.27.52-3.41.72s-2.28.37-3.43.53-2.3.27-3.45.36-2.32.17-3.48.18c1.13-.3,2.27-.52,3.41-.72s2.28-.37,3.43-.52,2.3-.28,3.45-.37S79.6,582.17,80.77,582.16Z"/><path class="cls-23" d="M67.87,743.09A15.41,15.41,0,0,0,82.4,753.37H248.51A16.52,16.52,0,0,0,265,736.85v-252a15.24,15.24,0,0,0-15.24-15.24H82.92A15.92,15.92,0,0,0,67,485.48V738A15.55,15.55,0,0,0,67.87,743.09Z"/><polyline class="cls-7" points="209.44 646.61 209.67 646.54 265.03 629.47"/><polyline class="cls-7" points="67 690.53 140.87 667.75 141.21 667.65"/><polyline class="cls-7" points="247.06 638.98 250.68 637.71 255.5 636.01 265.03 632.64"/><polyline class="cls-7" points="218.16 649.18 222.32 647.72 227.41 645.92 247.06 638.99"/><polyline class="cls-7" points="211.19 651.64 211.36 651.58 218.16 649.19"/><polyline class="cls-7" points="67 702.53 84.69 696.29 88.89 694.81 96.66 692.07 125.72 681.81 129.48 680.48 138.37 677.35 138.82 677.19"/><polyline class="cls-7" points="206.78 620.33 207.53 620.13 265.03 604.76"/><polyline class="cls-7" points="67 657.71 142.41 637.54 142.84 637.43"/><line class="cls-7" x1="98.06" y1="469.56" x2="98.06" y2="625.23"/><polyline class="cls-7" points="211.9 598.55 212.38 598.43 220.55 596.51 244 590.99 265.03 586.05"/><polyline class="cls-7" points="67 632.64 98.09 625.33 140.27 615.4 140.65 615.31"/><polyline class="cls-7" points="143.25 469.56 143.25 503.11 143.25 503.58"/><polyline class="cls-7" points="187.72 469.56 187.72 500.68 187.72 501.21"/><polyline class="cls-7" points="220.55 565.75 220.55 566.13 220.55 573.74 220.55 576.85 220.55 596.51 220.55 596.85"/><polyline class="cls-7" points="220.55 549.87 220.55 550.69 220.55 559.36 220.55 559.74"/><polyline class="cls-7" points="220.55 539.33 220.55 540.18 220.55 545.32 220.55 545.64"/><polyline class="cls-7" points="220.55 469.56 220.55 532.81 220.55 533.48"/><line class="cls-7" x1="243.85" y1="469.56" x2="243.85" y2="590.34"/><polyline class="cls-7" points="96.66 692.07 96.66 707.18 96.66 727.6 88.89 732.19 88.89 694.81"/><polyline class="cls-7" points="84.69 696.29 84.69 712 84.69 728.3 88.89 732.19"/><polyline class="cls-7" points="125.72 681.81 125.72 695.47 125.72 712.07 129.48 714.18 129.48 680.48"/><polyline class="cls-7" points="132.3 712.77 131.71 713.07 129.48 714.18"/><polyline class="cls-7" points="253.71 659.28 255.5 657.71 255.5 643.19 255.5 636.01"/><polyline class="cls-7" points="250.68 637.71 250.68 661.94 253.7 659.28"/><polyline class="cls-7" points="247.06 638.98 247.06 638.99 247.06 646.61 247.06 658.76 249.65 661.11 250.56 661.94"/><polyline class="cls-7" points="227.41 645.92 227.41 645.92 227.41 654.5 227.41 671.14 227.41 672.53 222.32 677.12 222.32 647.72 222.32 647.61"/><polyline class="cls-7" points="218.16 649.18 218.16 649.19 218.16 658.23 218.16 672.18 220.07 674.45 222.32 677.12"/><polyline class="cls-7" points="214.18 696.77 214.5 696.63 265.03 673.59"/><polyline class="cls-7" points="165.16 719.13 165.84 718.82 177.61 713.45 178.35 713.11"/><polyline class="cls-7" points="90.07 753.37 129.38 735.44 129.67 735.31"/><polyline class="cls-7" points="216.59 716.08 217.09 715.85 265.03 693.12"/><polyline class="cls-7" points="158.97 743.4 159.35 743.22 180.21 733.33 180.63 733.13"/><polyline class="cls-7" points="217.36 735.37 217.8 735.17 265.03 713.48"/><polyline class="cls-7" points="178.19 753.37 183.95 750.72 184.03 750.68"/><line class="cls-7" x1="222.32" y1="753.37" x2="265.03" y2="733.6"/><polyline class="cls-7" points="253.7 659.28 253.71 659.28 265.03 654.17"/><line class="cls-7" x1="227.41" y1="671.14" x2="249.65" y2="661.11"/><polyline class="cls-7" points="214.7 676.87 215.18 676.66 220.07 674.45"/><polyline class="cls-7" points="170.57 696.77 170.83 696.66 175.93 694.36 176.22 694.23"/><polyline class="cls-7" points="67 743.48 67.87 743.09 129.9 715.12 131.54 714.38 131.97 714.18"/><line class="cls-7" x1="255.5" y1="643.19" x2="265.03" y2="639.35"/><line class="cls-7" x1="227.41" y1="654.5" x2="247.01" y2="646.61"/><polyline class="cls-7" points="214.41 659.74 214.83 659.57 218.16 658.23"/><line class="cls-7" x1="96.65" y1="707.18" x2="125.72" y2="695.47"/><line class="cls-7" x1="67" y1="719.13" x2="84.68" y2="712"/><circle class="cls-24" cx="34" cy="737.14" r="17.5"/><rect class="cls-25" x="26.39" y="728.04" width="15.03" height="16.15" rx="6.96"/><rect class="cls-26" x="30.59" y="736.26" width="7.61" height="9.15" rx="3.53"/><ellipse class="cls-27" cx="34" cy="735.51" rx="6.67" ry="7.47"/><ellipse class="cls-25" cx="36.85" cy="729.35" rx="2.52" ry="4.48" transform="translate(-690.59 664.96) rotate(-82.05)"/><ellipse class="cls-25" cx="30.59" cy="729.35" rx="4.48" ry="2.52" transform="translate(-237.42 50.34) rotate(-19.14)"/><path class="cls-28" d="M21.26,749.24a17.5,17.5,0,0,0,25.57-.3v-3.27A4.85,4.85,0,0,0,42,740.83H26.1a4.86,4.86,0,0,0-4.84,4.84Z"/><circle class="cls-24" cx="90.34" cy="62.07" r="24.57"/><rect class="cls-25" x="79.66" y="49.29" width="21.1" height="22.67" rx="10.55"/><rect class="cls-26" x="85.56" y="60.83" width="10.69" height="12.84" rx="5.34"/><ellipse class="cls-27" cx="90.34" cy="59.78" rx="9.37" ry="10.48"/><ellipse class="cls-25" cx="94.34" cy="51.13" rx="3.54" ry="6.29" transform="translate(30.66 137.49) rotate(-82.05)"/><ellipse class="cls-25" cx="85.56" cy="51.13" rx="6.29" ry="3.54" transform="translate(-12.03 30.88) rotate(-19.14)"/><path class="cls-28" d="M72.46,79.06a24.57,24.57,0,0,0,35.9-.43V74a6.81,6.81,0,0,0-6.79-6.79H79.25A6.81,6.81,0,0,0,72.46,74Z"/></g></svg>