<svg xmlns="http://www.w3.org/2000/svg" viewBox="0 0 1920 1080"><defs><style>.cls-1{fill:#42210b;}.cls-2{fill:#ffe0bd;}.cls-3{fill:#d16666;}.cls-4{fill:#603416;}.cls-5{fill:#777;}.cls-6{fill:#31437c;}.cls-7{fill:#0f204c;}.cls-8{fill:#893434;}.cls-10,.cls-11,.cls-9{fill:none;stroke:#000;stroke-miterlimit:10;}.cls-9{stroke-width:3px;}.cls-10{stroke-width:4px;}.cls-11{stroke-width:2px;}</style></defs><title>faceless_girl</title><g id="Pige"><path class="cls-1" d="M591.19,221l.09-.21.06-.13s.06,0,.1,0Z"/><path class="cls-2" d="M591.44,220.6s-.1,0-.1,0l-.06.13-.09.21Zm9.75,53.24-.05.2a1.67,1.67,0,0,0,.05-.18Zm-74.3-63.21c-.92-3-1.86-6.08-2.85-9.09a7.41,7.41,0,0,0,1.42.61,11.48,11.48,0,0,0,5.72.22,22.75,22.75,0,0,0,5.25-1.72c6.64-3,12.19-7.76,17.6-12.22a49.45,49.45,0,0,1,8.91-5.61,31.18,31.18,0,0,1,10-3,22.45,22.45,0,0,1,10.36,1.26A21.63,21.63,0,0,1,592,187a19.72,19.72,0,0,0-1.82-1.95l6.32-.55c-4.17-4.62-7.77-10-9.19-16.08a20.22,20.22,0,0,1,0-9.22,18.14,18.14,0,0,1,4.48-8,22.54,22.54,0,0,1,16.74-6.55,29.75,29.75,0,0,1,17.08,6.22,68.76,68.76,0,0,1,6.8,6.35c1.09,1.12,2.19,2.24,3.36,3.29s2.27,2.18,3.49,3.18a62.94,62.94,0,0,0,15.76,10.38,63.07,63.07,0,0,1,8.35,4,29.77,29.77,0,0,1,6.74,6.14,24.85,24.85,0,0,1,2.62,3.73,9.26,9.26,0,0,1,1.37,4.06,3.7,3.7,0,0,1-1.7,3.32,9,9,0,0,1-4,1.36l-5.77.6,5.7,1,.19,0a73.91,73.91,0,0,1,23.72,8.82,93.88,93.88,0,0,1,10.66,7.14,114.26,114.26,0,0,1,9.76,8.37,125.78,125.78,0,0,1,8.82,9.36c1.39,1.63,2.74,3.3,4,5,.65.85,1.28,1.72,1.89,2.59a12.16,12.16,0,0,1,.8,1.34l.78,1.41,3.13,5.63,3,5.73c1,1.89,1.93,3.85,2.87,5.78s1.9,3.87,2.75,5.84a200.92,200.92,0,0,1,9.3,24,125.93,125.93,0,0,1,5.25,25.13l.16,1.59.08,1.6c0,1.07.12,2.14.14,3.2,0,2.14,0,4.27-.17,6.4a58.92,58.92,0,0,1-2.17,12.53c-2.38,8.11-7.07,15.66-13.92,20.61a29.1,29.1,0,0,1-5.43,3.15c-1,.45-1.93.77-2.93,1.13s-2.09.72-3.1,1.14c-4.06,1.65-7.92,3.61-11.79,5.58-7.69,4-15.28,8.09-22.92,12.11s-15.33,7.92-23.21,11.42a140.47,140.47,0,0,1-24.26,8.65,51.88,51.88,0,0,1-12.68,1.58c-2.11,0-4.22-.33-6.39-.57-1.08-.11-2.16-.26-3.24-.35l-3.24-.24c-8.64-.62-17.29-.7-25.94-.65-16.54.12-33.06.86-49.55,2a42,42,0,0,0-1.46-12.77c-.17-.62-.37-1.23-.57-1.84-.37-1.12-.77-2.23-1.23-3.32A43.25,43.25,0,0,0,539,382.6a37.45,37.45,0,0,0-3.47-4.72,26.72,26.72,0,0,0-2.48-2.51h0c.59-1.79,1.14-3.59,1.67-5.4a185.41,185.41,0,0,0,4.84-21.49c.37-2.28.72-4.57,1-6.87a252.15,252.15,0,0,0,1.86-37.86A328.42,328.42,0,0,0,539.07,266c-1.8-12.49-4.25-24.88-7.23-37.13C530.37,222.75,528.7,216.67,526.89,210.63Zm90.05-45.07a14.83,14.83,0,0,0-5.21,2.94,13.33,13.33,0,0,0-3.07,3.9,29.7,29.7,0,0,1-4-3.36,10.28,10.28,0,0,1-2.25-3.45,5,5,0,0,1-.28-2,4.91,4.91,0,0,1,.6-1.9,9.11,9.11,0,0,1,2.9-3.1,20.65,20.65,0,0,1,3.89-2.13,16.87,16.87,0,0,0-4.17,1.68,10,10,0,0,0-3.46,3,5.78,5.78,0,0,0-.89,2.27,6.12,6.12,0,0,0,.16,2.45,11.1,11.1,0,0,0,2.34,4.13,33.13,33.13,0,0,0,7.08,5.79,79,79,0,0,0,7.91,4.35c1.37.63,2.72,1.28,4.1,1.86l2.06.89a7,7,0,0,0,1.22.42,6,6,0,0,0,1.33.12,6.58,6.58,0,0,0,4.61-2.09c.32-.38.47-.48.68-.71a2.94,2.94,0,0,1,.74-.4,3.93,3.93,0,0,1,1.83-.2,12.33,12.33,0,0,1,4,1.34,31.37,31.37,0,0,1,3.7,2.33,65.68,65.68,0,0,1,6.81,5.72,51.42,51.42,0,0,0-6.21-6.49c-2.31-1.91-4.78-3.83-8-4.44a5.43,5.43,0,0,0-2.58.16,4.19,4.19,0,0,0-1.23.62,11.62,11.62,0,0,0-.91.86,4.74,4.74,0,0,1-3.35,1.41,5.16,5.16,0,0,1-.89-.1,4.72,4.72,0,0,1-.89-.33l-2-.9c-1.36-.58-2.68-1.24-4-1.87a86.28,86.28,0,0,1-7.78-4.15c-.44-.26-.87-.53-1.3-.81a12,12,0,0,1,2.51-3.88,13.64,13.64,0,0,1,4.52-3.08,18.12,18.12,0,0,1,5.48-1.23c1-.07,1.91,0,2.86-.05l2.87.28-2.84-.53c-1-.06-1.93-.19-2.9-.2A19.28,19.28,0,0,0,616.94,165.56Z"/><path d="M1285.21,773.94l8.58-.93-.08.24-8.42,1.31-12.47,1.88c0-.37,0-.73,0-1.09Z"/><path d="M1492.32,351.81a206.38,206.38,0,0,1,7.7,51.49,248.91,248.91,0,0,1-.65,26.05,207.4,207.4,0,0,1-3.47,25.48l-.19-.3.12.66c0-.12.05-.24.07-.36a283.92,283.92,0,0,1,18.55,32.76q4.1,8.58,7.47,17.49a188,188,0,0,1,5.76,18.13,143.83,143.83,0,0,1,4.84,37.67,117.89,117.89,0,0,1-6.38,37.37,124.87,124.87,0,0,1-17.76,33.48,160.91,160.91,0,0,1-26.08,27.49,210.9,210.9,0,0,1-31.15,21.58q-8.24,4.71-16.83,8.75c-4.91,2.29-9.9,4.46-15,6.34h0c5.09-1.92,10.06-4.12,15-6.45q8.55-4.08,16.76-8.84a210.87,210.87,0,0,0,31-21.74,159.32,159.32,0,0,0,25.82-27.55A124,124,0,0,0,1525.25,598a116.59,116.59,0,0,0,6.1-37.08,142.52,142.52,0,0,0-5-37.3,202,202,0,0,0-13.3-35.3,284.31,284.31,0,0,0-18.73-32.8l-.2-.3.08-.36a206.85,206.85,0,0,0,3.4-25.6,245.19,245.19,0,0,0,.56-25.86,203.65,203.65,0,0,0-7.8-51A149.93,149.93,0,0,0,1468,306.18a135.6,135.6,0,0,0-37.45-34.91A172.89,172.89,0,0,0,1383.35,251a258.72,258.72,0,0,0-51-8.1c-34.35-2.16-68.86.9-102.83,6.39l.26-.2-.6.25.34,0c-19.38,14.7-38.26,30.13-56.87,45.83s-37,32-55.11,48.49c-36.09,33.05-70.94,67.46-104.14,103.4q-24.88,27-48.36,55.19c-4,4.67-7.78,9.44-11.62,14.2l-5.76,7.14-5.64,7.23L936.42,538c-1.88,2.41-3.69,4.87-5.53,7.31l-11,14.68a426.77,426.77,0,0,1-49.51,54.47c-9,8.37-18.49,16.18-27.94,24-4.72,3.89-9.45,7.77-14.07,11.75a156.58,156.58,0,0,0-13.18,12.56c-8.2,8.9-15.34,18.93-19.89,30.1a62.28,62.28,0,0,0-4.41,17.39A48.94,48.94,0,0,0,792.3,728a53.12,53.12,0,0,0,7.63,16.16A73.15,73.15,0,0,0,812,757.54a110.44,110.44,0,0,0,14.6,10.78c2.23,1.39,4.49,2.71,6.79,4-.32.67-.64,1.34-1,2q-3.55-1.93-7-4.07a111.8,111.8,0,0,1-14.95-11A74.8,74.8,0,0,1,798,745.49a55.5,55.5,0,0,1-8-16.86A51.86,51.86,0,0,1,788.35,710a64,64,0,0,1,4.55-18.1c4.7-11.56,12-21.82,20.35-30.9a155.15,155.15,0,0,1,13.38-12.78c4.65-4,9.38-7.91,14.1-11.81,9.45-7.79,18.87-15.57,27.79-23.89a423.94,423.94,0,0,0,49.13-54.17l11-14.69c1.85-2.45,3.66-4.92,5.54-7.34l5.64-7.26,3.09-4c.85-.19,1.71-.38,2.56-.59l-2.22.15,2.22-2.85,5.77-7.16c3.84-4.78,7.67-9.56,11.62-14.25q23.46-28.32,48.4-55.35c33.19-36.08,68.14-70.52,104.33-103.56q19-17.36,38.49-34.19,8.34-7.21,16.76-14.31c18.75-15.79,37.74-31.27,57.31-46.08l.27-.2.33,0,.2,0c1.62.55,3.27,1.06,5,1.51l.14-.26-3-1.57c33.5-5.28,67.55-8.18,101.51-6a260.89,260.89,0,0,1,51.46,8.24,173.48,173.48,0,0,1,47.85,20.68,138,138,0,0,1,38,35.64A152.06,152.06,0,0,1,1492.32,351.81Z"/><path d="M774.58,220.9c-.46-.67-1-1.34-1.44-2a21.74,21.74,0,0,0,2,2.09l-.2.23Z"/><path class="cls-2" d="M1529,812.76a67.76,67.76,0,0,1-7.87,15.33L1521,828q-10.35-7.21-20.77-14.35l-1.43-1,.32.58-8.94-7.52c-1.63-1.4-3.37-2.65-5-4l-5.09-3.92c-3.45-2.54-7-5-10.5-7.42l-5.42-3.45-2.72-1.73c-.9-.58-1.85-1.08-2.78-1.62l-5.6-3.19-5.76-2.9c-1.9-1-3.91-1.78-5.87-2.65-1-.42-2-.88-3-1.26l-3-1.12c-1-.35-2-.76-3.05-1.08l-3.1-.93c-2-.68-4.19-1.07-6.3-1.59s-4.27-.77-6.45-.94a28.94,28.94,0,0,0-6.51,0h0l-28.61.68c-9.55.21-19.09.52-28.63.78l-57.25,1.62-1,0-.34.9q-.2.51-.36,1l-8.58.93-12.38,1.41c0-.78,0-1.55,0-2.33,1-9.91,2.2-19.81,3.76-29.63a292.17,292.17,0,0,1,6.79-32.09A104.52,104.52,0,0,1,1288.9,696a43.59,43.59,0,0,1,3.94-6.9,15.53,15.53,0,0,1,5.49-5,7.78,7.78,0,0,1,6.74.11l1.93.82c.66.27,1.32.58,2,.78,1.34.44,2.67.94,4,1.28a148.71,148.71,0,0,0,16.28,3.44c10.91,1.75,21.87,3,32.84,3.87,5.48.47,11,.87,16.46,1.24s11,.63,16.47.89q32.85,1.61,65.74,1.47l-.07,0,.24.06,12,2.89a185.48,185.48,0,0,1,14.75,12.21c4.71,4.31,9.25,8.81,13.54,13.53a143.71,143.71,0,0,1,22,31.07c5.78,11.28,9.44,23.81,9.14,36.46A59.47,59.47,0,0,1,1529,812.76Z"/><path d="M658.92,590.84c-3.78,1.09-7.61,2-11.44,3-2.9.72-5.82,1.35-8.76,1.92A2,2,0,0,1,639,595a2,2,0,0,0-.34.76l-2.78.53c-2,.37-3.91.7-5.89,1s-3.93.5-5.91.66a50.2,50.2,0,0,1-6,.18,18,18,0,0,1-6.17-1.08,6.35,6.35,0,0,1-1.5-.9,4,4,0,0,1-1.13-1.55,4,4,0,0,1-.2-.82,6.36,6.36,0,0,1-.14-.76c-.09-.5-.13-1-.17-1.53a15.67,15.67,0,0,1,.39-4.79l.33-.09a19.61,19.61,0,0,0,.59,4.68c.12.47.25.92.39,1.37.07.23.15.45.23.67s.17.48.22.59a2.85,2.85,0,0,0,1.73,1.27,16.91,16.91,0,0,0,5.45.61c1.9,0,3.82-.23,5.74-.44a231.36,231.36,0,0,0,23-4.39c7.62-1.77,15.22-3.71,22.83-5.64s15.22-3.92,22.87-5.8c-7.3,3-14.75,5.56-22.25,8C666.5,588.65,662.72,589.77,658.92,590.84Z"/><path d="M508.73,366.3c.26-.95.39-1.92.61-2.88q.44-2.13.9-4.26.11.24.21.51c-.08,1.29-.18,2.59-.29,3.88-.08,1-.13,2-.28,3l-.49,2.93-.52,2.93c-.18,1-.32,2-.59,2.92l-1.5,5.76a134.25,134.25,0,0,1-8.66,22.17c-.83,1.8-1.84,3.51-2.76,5.27L494,411.11l-1.51,2.56q-3,5.11-6.41,10A135.73,135.73,0,0,1,471,442c4.63-6.39,9-12.94,13.08-19.6,2-3.37,4.05-6.7,5.91-10.14l1.43-2.55,1.36-2.6c.88-1.74,1.86-3.43,2.66-5.22l2.55-5.27,2.33-5.37c.83-1.76,1.5-3.59,2.19-5.42l1-2.73.54-1.36c.17-.46.31-.93.46-1.39l1.83-5.57c.34-.92.56-1.87.81-2.81l.76-2.84Z"/><path d="M1475.57,875c.79.65,1.58,1.3,2.36,2-.88-.69-1.77-1.38-2.66-2Z"/><path d="M1495.83,455.19l-.12-.66.19.3C1495.88,455,1495.86,455.07,1495.83,455.19Z"/><path d="M771.18,216.19c.67.9,1.32,1.8,2,2.7A22.66,22.66,0,0,1,771.18,216.19Z"/><path class="cls-3" d="M983.23,444c3.28-2.39,6.42-5,9.63-7.44s6.33-5.09,9.47-7.67q9.4-7.75,18.11-16.38c5.7-5.77,11.3-11.61,16.89-17.48s11.11-11.81,16.54-17.83c10.85-12,21.52-24.26,31.44-37.1a229.84,229.84,0,0,0,13.91-20,87.08,87.08,0,0,0,5.68-10.77c.38-.94.78-1.87,1.09-2.84.16-.49.34-1,.48-1.45l.39-1.48a16,16,0,0,0,.45-6,6.74,6.74,0,0,0-2.74-4.88,20.23,20.23,0,0,0-2.51-1.41l-2.5-1.33-1.24-.66-1.22-.73-2.43-1.47c-1.62-1-3.25-1.93-4.84-3-6.41-4-12.77-8.14-19.13-12.25l-38-24.87-38.06-24.87q-19-12.44-38.19-24.65h0l-8.88-8c-3-2.69-6-5.34-9-8q2.63,2.67,5.26,5.31a134.07,134.07,0,0,0-12.14,9.61A69,69,0,0,0,926,202a25.67,25.67,0,0,0-4.49,6.5,25.87,25.87,0,0,1,4.67-6.33,68.16,68.16,0,0,1,5.77-5.37,138.05,138.05,0,0,1,12.54-9.28c.83.84,1.67,1.67,2.51,2.5l8,7.94a34.19,34.19,0,0,0-14.42,5.64,63.2,63.2,0,0,0-12.3,11.08c-7.24,8.38-13,17.92-18,27.74a280.49,280.49,0,0,0-13,30.45c-3.6,9.93-6.82,20-9.52,30.23-2.31-1.51-4.68-2.89-7-4.33L873.41,294l-14.33-10c-2.4-1.65-4.72-3.42-7.09-5.1s-4.72-3.4-7.07-5.12-4.69-3.45-7-5.22-4.7-3.44-7-5.21L803,242.22l-6.95-5.33c-2.31-1.79-4.59-3.61-6.94-5.34-4.7-3.5-9.29-7.11-14-10.57a21.74,21.74,0,0,1-2-2.09c-.64-.9-1.29-1.8-2-2.7a23.12,23.12,0,0,1-3.41-13.2c.14-2.22.37-4.5.65-6.73A118.21,118.21,0,0,1,774.61,170a76.85,76.85,0,0,1,12.94-23.19,55.93,55.93,0,0,1,20.9-15.65,71.2,71.2,0,0,1,25.71-5.36,138.23,138.23,0,0,1,26.67,1.83c17.72,2.84,35.08,8,52,14.2a435.63,435.63,0,0,1,49.7,21.48A252.7,252.7,0,0,1,986,176.66c.91.62,1.86,1.22,2.72,1.88l1.3,1,1.2,1c.39.33.62.63.95.93.46.47,1,1.06,1.47,1.48l1.44,1.17c.48.37,1,.7,1.45,1,3.86,2.69,7.8,5,11.77,7.26,15.9,9,32.11,17.2,48.38,25.35q12.24,6,24.55,11.86l12.32,5.84,12.18,5.61-14.32,10.34.18.24c3.69-2.43,7.4-4.84,11.07-7.3q5.11-3.4,10.2-6.85,1.77,1.78,3.6,3.53c1.41,1.36,2.81,2.73,4.25,4l4.31,4,4.38,3.9.47.41.8.14c2.41.42,4.83.78,7.25,1.13l3,.46-16.06,47.59,19-47.16,1.3.19,3.62.49,1.8.27.89.13a11.89,11.89,0,0,0,1.2.11,24.62,24.62,0,0,0,4-.22c1.27-.16,2.51-.35,3.75-.56s2.45-.43,3.67-.66l3.62-.81c2.41-.54,4.8-1.13,7.18-1.8,4.1-1.1,8.17-2.34,12.18-3.78l-34.75,56.57.26.16,1.48,1.71q-19.48,16.81-38.49,34.19c-36.19,33-71.14,67.48-104.33,103.56q-24.9,27.06-48.4,55.35c-3.95,4.69-7.78,9.47-11.62,14.25l-5.77,7.16-2.22,2.85c-6.5.41-13,.8-19.43.92q-1.35,0-2.7,0l-2.7,0c-1.8,0-3.6.06-5.4,0l-5.4,0-5.4-.14c-1.8,0-3.6-.11-5.4-.16s-3.6-.15-5.4-.24c-3.6-.12-7.2-.38-10.8-.56q-9.78-.6-19.58-1.35C875,515,888.87,506.8,902.58,498.3S930,481,943.46,472,970.25,453.71,983.23,444Z"/><path d="M1356.5,534.46c-1.31,1-2.67,2-4,3l-1.16.87-.69-2.71a2,2,0,0,0,.25-.18Q1353.72,534.91,1356.5,534.46Z"/><path d="M1272.86,773c0,.78,0,1.55,0,2.33l-.2,0C1272.7,774.58,1272.78,773.8,1272.86,773Z"/><path d="M770.56,236.91c-1-5.34-2-10.7-2.6-16.1-.32-2.71-.6-5.42-.72-8.14-.09-1.36-.07-2.73-.06-4.1,0-.45,0-.9,0-1.35a21.9,21.9,0,0,0,.54,2.53c0,.17.09.33.14.49v0c.09.77.19,1.55.32,2.32.35,2.67.85,5.33,1.29,8q.38,2,.72,4l.76,4c.49,2.66,1,5.32,1.54,8l3.1,16c1,5,1.89,10.09,2.73,15.16l-.18-.21q-2.26-7.24-4.07-14.62C772.78,247.54,771.62,242.24,770.56,236.91Z"/><path d="M767.5,204.5c0,1.93.16,3.84.38,5.74,0-.16-.1-.32-.14-.49a21.9,21.9,0,0,1-.54-2.53C767.27,206.31,767.41,205.4,767.5,204.5Z"/><path d="M645.79,403.61A140.47,140.47,0,0,0,670.05,395c7.88-3.5,15.57-7.41,23.21-11.42s15.23-8.14,22.92-12.11c3.87-2,7.73-3.93,11.79-5.58,1-.42,2-.79,3.1-1.14s2-.68,2.93-1.13a29.1,29.1,0,0,0,5.43-3.15c6.85-4.95,11.54-12.5,13.92-20.61a58.92,58.92,0,0,0,2.17-12.53c.18-2.13.16-4.26.17-6.4,0-1.06-.1-2.13-.14-3.2l-.08-1.6-.16-1.59a125.93,125.93,0,0,0-5.25-25.13,200.92,200.92,0,0,0-9.3-24c-.85-2-1.8-3.91-2.75-5.84s-1.85-3.89-2.87-5.78l-3-5.73L729,242.35l-.78-1.41a12.16,12.16,0,0,0-.8-1.34c-.61-.87-1.24-1.74-1.89-2.59-1.29-1.7-2.64-3.37-4-5a125.78,125.78,0,0,0-8.82-9.36,114.26,114.26,0,0,0-9.76-8.37,93.88,93.88,0,0,0-10.66-7.14,73.91,73.91,0,0,0-23.72-8.82v0a11.16,11.16,0,0,0,3.47-.94h0a75.35,75.35,0,0,1,21.09,8.28A95.59,95.59,0,0,1,704,212.88c1.31,1,2.6,2,3.87,3.09-.61-.16-1.22-.31-1.83-.44.73.23,1.46.47,2.18.73q2.94,2.44,5.71,5.09a129.38,129.38,0,0,1,9,9.47c1.42,1.65,2.79,3.35,4.11,5.08.67.86,1.31,1.74,1.94,2.64a13.67,13.67,0,0,1,.87,1.43l.79,1.43,3.18,5.68,3,5.76c1,1.91,2,3.87,2.91,5.81s1.92,3.89,2.79,5.88A203.16,203.16,0,0,1,752,288.78a125.44,125.44,0,0,1,5.28,25.54l.16,1.63.07,1.64c0,1.09.12,2.18.14,3.27,0,2.19,0,4.38-.19,6.56a60.75,60.75,0,0,1-2.28,12.94A43.51,43.51,0,0,1,747.67,355c-.53-.13-1.07-.24-1.63-.33l-.15,2,.36,0a35.24,35.24,0,0,1-5.76,5.21,31.91,31.91,0,0,1-8.88,4.51l-.53.18a20.82,20.82,0,0,1,1.52-1.45,22,22,0,0,0-1.89,1.58c-.7.25-1.39.5-2.08.79-4,1.59-7.81,3.53-11.65,5.47-7.68,3.92-15.27,8.08-23,12-6.73,3.46-13.5,6.85-20.42,10q-1.49.68-3,1.32a142.22,142.22,0,0,1-24.56,8.54,53.39,53.39,0,0,1-13,1.51,32.87,32.87,0,0,1-3.29-.24l-3.21-.38c-1.07-.13-2.13-.28-3.21-.38l-3.22-.26q-3.81-.3-7.64-.49L614,404c-.57.19-1.15.37-1.72.57-6-.3-12-.44-18-.48-16.52-.1-33,.41-49.55,1.29v0c16.49-1.11,33-1.85,49.55-2,8.65-.05,17.3,0,25.94.65l3.24.24c1.08.09,2.16.24,3.24.35,2.17.24,4.28.54,6.39.57A51.88,51.88,0,0,0,645.79,403.61Z"/><path d="M492.7,786.14c3.49.09,7,.35,10.47.24l5.25,0,5.25-.28c3.51-.12,7-.59,10.48-.9,1.75-.14,3.49-.43,5.23-.66l5.22-.73c3.47-.55,6.93-1.17,10.4-1.76-3.43.78-6.85,1.6-10.3,2.35l-5.2,1c-1.73.3-3.46.67-5.21.89-3.49.46-7,1.07-10.5,1.34l-5.27.51-5.3.28c-1.77.09-3.54.17-5.31.12l-5.32,0c-1.77-.07-3.54-.2-5.31-.3l-2.66-.17-2.65-.31-2.65-.31c-.88-.1-1.76-.19-2.64-.37l-5.25-1a105.82,105.82,0,0,1-10.34-2.78,85.42,85.42,0,0,1-19.48-9,79.72,79.72,0,0,1-16.51-13.81c-9.75-10.65-16.47-23.69-20.94-37.22a176.62,176.62,0,0,1-7.77-41.86,283.41,283.41,0,0,1,.46-42.43A383.15,383.15,0,0,1,402.7,597c.2-1,.4-2,.61-3l.69,1-.68-1.06q1.81-8.85,4-17.6C409,569.5,410.83,562.7,413,556q-5.14,20.47-8.36,41.32c-2.22,13.87-3.82,27.82-4.68,41.8a303.81,303.81,0,0,0,.21,41.92c.28,3.48.63,7,1.07,10.4a163.74,163.74,0,0,0,6.72,30.5c4.26,13.16,10.73,25.69,19.94,35.94a76.22,76.22,0,0,0,15.6,13.39,86.92,86.92,0,0,0,18.58,9c3.24,1.2,6.61,2,10,2.91l5.1,1c1.7.36,3.43.54,5.15.82l2.59.39,2.6.24C489.22,785.83,491,786,492.7,786.14Z"/><path d="M1286.32,694.82a43.4,43.4,0,0,1,4.18-7.4,22.4,22.4,0,0,1,2.86-3.33,14.27,14.27,0,0,1,3.72-2.63c.31-.15.63-.28,1-.4a34.2,34.2,0,0,0-2.36,3,51.41,51.41,0,0,0-3.25,4.73,101.78,101.78,0,0,0-5.58,10.08c-1.5,3.54-3.15,7-4.32,10.71-5.19,14.55-7.81,30-8.93,45.43q-.61,9-.73,18c-.08.78-.16,1.56-.23,2.35l-.7.08.63.59c0-.22,0-.45.07-.67l.2,0c0,.36,0,.72,0,1.09l-.75.11-.66.1,0-.69c.57-11,1.73-22,3.19-32.86a260.28,260.28,0,0,1,6.23-32.51A106.63,106.63,0,0,1,1286.32,694.82Z"/><path d="M994.59,222.08,1032.65,247l38,24.87c6.36,4.11,12.72,8.22,19.13,12.25,1.59,1,3.22,2,4.84,3l2.43,1.47,1.22.73,1.24.66,2.5,1.33a20.23,20.23,0,0,1,2.51,1.41,6.74,6.74,0,0,1,2.74,4.88,6.57,6.57,0,0,0-3-4.56c-.78-.49-1.66-.78-2.52-1.22l-2.59-1.2-1.3-.61-1.25-.67-2.52-1.34c-1.67-.89-3.36-1.77-5-2.72-6.62-3.71-13.14-7.6-19.63-11.53l-9.7-6-9.63-6q-9.63-6-19.16-12.25l-9.54-6.19L1012,237q-9.49-6.27-18.92-12.62-18.89-12.68-37.49-25.77l-.05,0,0,0-.2-.2c.22-.06.45-.1.68-.15l0-.3-1,.11L947,190c-.84-.83-1.68-1.66-2.51-2.5l.14-.09-.55-.84-.31.22q-2.64-2.64-5.26-5.31c3,2.64,6,5.29,9,8l8.88,8h0Q975.54,209.69,994.59,222.08Z"/><path class="cls-2" d="M723,607a10,10,0,0,0,12.51-6.21l3.72-11.44q9.3-4.25,18.44-8.82c-6.24,11.1-37.1,64.53-89.5,129.55a34.66,34.66,0,0,1-7,6.59c-3.56,2.5-9.17,6.56-15.13,11.33-10,8-83-56-103-96-7.48-15-17.91-34.55-27.76-55l.06-2.39c-.1.64-.19,1.27-.29,1.91-5.59-11.64-11-23.57-15.55-35.09l21.67-2.08a14.8,14.8,0,0,0,8.72,9l66,20.07c-3.25,2.46-6.46,5-9.5,7.7a68.06,68.06,0,0,0-5.11,4.94,21.31,21.31,0,0,0-4.07,5.78,2.33,2.33,0,0,0-.24,1.72,2.87,2.87,0,0,0,1.1,1.42,10.25,10.25,0,0,0,3.26,1.41,16.1,16.1,0,0,0,7.08.35c4.6-1,9-2.09,13.5-3.19,2.42-.59,4.84-1.2,7.26-1.81a15.67,15.67,0,0,0-.39,4.79c0,.51.08,1,.17,1.53a6.36,6.36,0,0,0,.14.76,4,4,0,0,0,.2.82,4,4,0,0,0,1.13,1.55,6.35,6.35,0,0,0,1.5.9,18,18,0,0,0,6.17,1.08,50.2,50.2,0,0,0,6-.18c2-.16,3.95-.39,5.91-.66a21,21,0,0,1,5,3.73l4-3.4a3.65,3.65,0,0,0,1,1.06,11.87,11.87,0,0,0,3.71,1.86,40.17,40.17,0,0,0,8.12,1.56c5.47.59,10.94.83,16.42,1s10.94.27,16.42.32,10.94,0,16.42,0h.11l.11,0c1.85-.35,3.66-.79,5.44-1.29Z"/><path d="M1286.84,698.87a101.78,101.78,0,0,1,5.58-10.08,51.41,51.41,0,0,1,3.25-4.73,34.2,34.2,0,0,1,2.36-3,10.29,10.29,0,0,1,3.69-.61,11.3,11.3,0,0,1,4.56,1.06l1.87.78a17.58,17.58,0,0,0,1.84.72c1.28.41,2.52.88,3.84,1.2a153.46,153.46,0,0,0,15.94,3.41c21.6,3.47,43.53,5.13,65.42,6.77,8,.57,16.07,1.05,24.11,1.5l-2.49.91c.84-.29,1.68-.6,2.52-.91l8.75.49c10.9.64,21.81,1.1,32.73,1.61h0q-32.86.18-65.74-1.47-8.24-.39-16.47-.89c-5.49-.37-11-.77-16.46-1.24-11-.92-21.93-2.12-32.84-3.87a148.71,148.71,0,0,1-16.28-3.44c-1.35-.34-2.68-.84-4-1.28-.67-.2-1.33-.51-2-.78l-1.93-.82a7.78,7.78,0,0,0-6.74-.11,15.53,15.53,0,0,0-5.49,5,43.59,43.59,0,0,0-3.94,6.9,104.52,104.52,0,0,0-5.49,15.29,292.17,292.17,0,0,0-6.79,32.09c-1.56,9.82-2.78,19.72-3.76,29.63q.12-9,.73-18c1.12-15.46,3.74-30.88,8.93-45.43C1283.69,705.9,1285.34,702.41,1286.84,698.87Z"/><path d="M1576.69,958.43c-17.33-12.48-34.19-25.58-50.77-39s-32.78-27.3-48.78-41.43l-4.18-3.7,2.31.63c.89.66,1.78,1.35,2.66,2-.78-.66-1.57-1.31-2.36-2l2.77.75a60,60,0,0,0,10.05,1.92,42.74,42.74,0,0,0,5,.21,28,28,0,0,0,5-.62,15.52,15.52,0,0,0,8.32-4.77,19.12,19.12,0,0,0,4.14-8.89,40.11,40.11,0,0,0,.64-10.17,72.69,72.69,0,0,0-1.28-10.25c-.65-3.39-1.5-6.76-2.45-10.09s-2-6.61-3.27-9.82v0l-4.85-9-.47-.88.8.64-.84-.72-.32-.58,1.43,1q10.41,7.14,20.77,14.35-9.91-6.32-19.76-12.7l-.87-1.51-.6.56,1.47.95,4.26,7.42v0l0,0a113.45,113.45,0,0,1,6.3,20.07,76.3,76.3,0,0,1,1.5,10.47,42.52,42.52,0,0,1-.5,10.67,21.34,21.34,0,0,1-4.45,9.93,17.93,17.93,0,0,1-9.43,5.65,32.27,32.27,0,0,1-10.8.63q-2.72-.26-5.37-.77l-3.92-3.41-1.2,2.24c1.69.44,3.39.84,5.12,1.17q22.17,19.22,45,37.67c16.52,13.44,33.23,26.66,50.44,39.18,8.61,6.26,17.35,12.33,26.25,18.12,4.46,2.89,9,5.68,13.6,8.29a131.28,131.28,0,0,0,14.18,7.11c4.88,2,9.9,3.72,15.15,3.46,1.32,0,2.63-.07,3.95-.11s2.62-.2,3.91-.44a33.77,33.77,0,0,0,7.6-2,25.11,25.11,0,0,0,12.12-9.63,28.39,28.39,0,0,0,4.49-14.16h0a29.22,29.22,0,0,1-.94,7.08,32.26,32.26,0,0,1-1.27,3.82,25.25,25.25,0,0,1-1.85,3.58,25.81,25.81,0,0,1-12.21,10.29,34.18,34.18,0,0,1-7.78,2.27c-1.32.29-2.67.4-4,.58s-2.69.22-4,.22a37.26,37.26,0,0,1-4.08-.09c-.69-.07-1.36-.19-2-.28l-2-.42a59.74,59.74,0,0,1-7.7-2.52,134.32,134.32,0,0,1-14.52-7c-4.7-2.56-9.31-5.29-13.85-8.11C1594.15,970.74,1585.37,964.65,1576.69,958.43Z"/><path d="M510.45,359.67q-.1-.27-.21-.51c.11-.5.23-1,.34-1.52C510.54,358.32,510.5,359,510.45,359.67Z"/><path class="cls-4" d="M655.14,152.34a402.88,402.88,0,0,1,45.53,28c14.64,10.2,28.81,21.08,42.74,32.24l.18-.24c-3.32-3-6.64-6-10.07-8.85l-5.1-4.35-5.16-4.3q-10.46-8.4-21.25-16.41a348.88,348.88,0,0,0-45.5-28.8,189.54,189.54,0,0,0-24.88-10.79,116.39,116.39,0,0,0-13.2-3.61c-1.13-.21-2.25-.44-3.38-.62s-2.28-.36-3.42-.47a61.61,61.61,0,0,0-6.93-.34,49.45,49.45,0,0,0-7,.53,41.65,41.65,0,0,0-6.83,1.72,28.56,28.56,0,0,0-11.65,7.8,32.17,32.17,0,0,0-6.44,12.19,39.19,39.19,0,0,0-1.46,13.43l.3,0a41.16,41.16,0,0,1,2.11-13.1A30.77,30.77,0,0,1,580.4,145a27,27,0,0,1,11.13-7A38.7,38.7,0,0,1,598,136.5a46.15,46.15,0,0,1,6.65-.32c8.91.17,17.64,2.46,26,5.37A192,192,0,0,1,655.14,152.34Zm9,24.58a63.94,63.94,0,0,0-8.56-4,61.68,61.68,0,0,1-15.53-10.07c-1.21-1-2.32-2.07-3.48-3.11s-2.26-2.14-3.36-3.24a68.28,68.28,0,0,0-7-6.4,30.49,30.49,0,0,0-17.69-6.18,23.21,23.21,0,0,0-17.13,7A18.6,18.6,0,0,0,587,159.1a20.5,20.5,0,0,0,.09,9.38c1.52,6.15,5.21,11.46,9.44,16l-6.32.55a22.23,22.23,0,0,0-6.72-4.32,22.53,22.53,0,0,0-10.56-1.59,31.78,31.78,0,0,0-10.38,2.78,50.72,50.72,0,0,0-9.26,5.48c-1.43,1.07-2.85,2.19-4.22,3.28s-2.81,2.14-4.24,3.16a52.38,52.38,0,0,1-9,5.26,22.42,22.42,0,0,1-4.88,1.53,9.89,9.89,0,0,1-4.82-.23,6.65,6.65,0,0,1-3.22-2.47h0c-.61-1.76-1.23-3.52-1.88-5.27l-2.9-7.82,1,8.24a13,13,0,0,0,1.69,5.11c3.36,10.28,6.13,20.79,8.66,31.31,2.89,12.2,5.25,24.52,7,36.93a332.43,332.43,0,0,1,3.12,37.4,248.89,248.89,0,0,1-1.63,37.43,180.26,180.26,0,0,1-8.27,36.45c-1,2.94-2.14,5.86-3.33,8.74l-.34.81c-.58-1-1.15-2.08-1.71-3.13q-4.38-8.31-8.32-16.86c-5.27-11.38-9.93-23.05-14.05-34.9A261.78,261.78,0,0,1,492,296a241.9,241.9,0,0,0,8.65,36.73c2.77,8.95,6,17.75,9.59,26.43q-.47,2.13-.9,4.26c-.22,1-.35,1.93-.61,2.88l-.78,2.83-.76,2.84c-.25.94-.47,1.89-.81,2.81l-1.83,5.57c-.15.46-.29.93-.46,1.39l-.54,1.36-1,2.73c-.69,1.83-1.36,3.66-2.19,5.42L498,396.62l-2.55,5.27c-.8,1.79-1.78,3.48-2.66,5.22l-1.36,2.6L490,412.26c-1.86,3.44-3.91,6.77-5.91,10.14C480,429.06,475.63,435.61,471,442a135.73,135.73,0,0,0,15-18.33q3.39-4.87,6.41-10l1.51-2.56,1.41-2.62c.92-1.76,1.93-3.47,2.76-5.27a134.25,134.25,0,0,0,8.66-22.17l1.5-5.76c.27-1,.41-1.94.59-2.92l.52-2.93.49-2.93c.15-1,.2-2,.28-3,.11-1.29.21-2.59.29-3.88,1.17,2.81,2.36,5.61,3.59,8.4,2.55,5.76,5.22,11.47,8.08,17.1q1.07,2.11,2.18,4.21l.57,1.05.07.13c-.45.06,4.07-.16,2.17-.11l0-.06.12-.28.24-.54,1-2.17c.64-1.45,1.21-2.93,1.82-4.4l1.65-4.45q.51-1.46,1-2.91a37.45,37.45,0,0,1,3.27,4.85c.52.92,1,1.86,1.48,2.82s1,2.16,1.4,3.26a42.47,42.47,0,0,1,1.94,6.56,44.81,44.81,0,0,1,.93,10.26,48.55,48.55,0,0,1-1.27,10.24,61.42,61.42,0,0,1-3.06,9.92c-.57,1.64-1.34,3.21-2,4.81-.33.81-.78,1.57-1.16,2.35l-1.16,2.36a163.89,163.89,0,0,1-9.47,15.33c-6.23,4.35-12.29,9-18.11,13.89a181.23,181.23,0,0,0-21.93,22,141.75,141.75,0,0,0-9.2,12.55c-.68,1.1-1.41,2.18-2.06,3.3l-2,3.37-1.8,3.46c-.6,1.15-1.12,2.34-1.68,3.51a85.38,85.38,0,0,0-7.81,30,81.75,81.75,0,0,0,.45,15.49A89.7,89.7,0,0,0,463,571l16.75,5.39c-.73,2.27-1.51,4.52-2.31,6.76A164.38,164.38,0,0,1,465.37,609c-1.18,2.07-2.33,4.15-3.66,6.12l-3.84,6-4.15,5.8c-.71,1-1.35,2-2.12,2.87l-2.23,2.77c-1.51,1.84-2.95,3.73-4.51,5.52l-4.79,5.28L437.68,646l-2.4,2.74-1.19,1.38c-.38.48-.72,1-1.07,1.47l-2.12,3c-.62,1.05-1.2,2.12-1.81,3.18-.29.53-.6,1-.88,1.59l-.73,1.68c-.46,1.12-1,2.21-1.4,3.37L425,667.83a54.43,54.43,0,0,0-1.91,14.41c0,2.42.2,4.84.48,7.24l-22.3,2c-.44-3.45-.79-6.92-1.07-10.4a303.81,303.81,0,0,1-.21-41.92c.86-14,2.46-27.93,4.68-41.8S409.57,569.65,413,556c-2.17,6.7-4,13.5-5.7,20.34q-2.16,8.76-4,17.6c-2.69-4.22-5.14-8.6-7.49-13-2.56-4.78-5-9.62-7.3-14.53q-6.91-14.71-12.42-30t-9.89-30.92c-2.91-10.43-5.22-21-7.25-31.62l-1.42-8c-.46-2.66-.8-5.35-1.2-8-.87-5.33-1.4-10.72-2.07-16.08-1-10.75-1.87-21.54-2-32.34a408.78,408.78,0,0,1,3.51-64.66,447,447,0,0,1,13.34-63.4l2.28-7.77.57-1.95.64-1.92,1.28-3.84c.87-2.56,1.68-5.14,2.59-7.68l2.84-7.58c.48-1.27.93-2.54,1.44-3.79l1.56-3.73c1.06-2.49,2.07-5,3.15-7.47,2.27-4.89,4.44-9.84,7-14.6,9.75-19.23,22.11-37.26,37.45-52.47,1.9-1.91,3.92-3.71,5.87-5.57l3.08-2.63c1-.88,2-1.77,3.12-2.58l3.19-2.5c1.08-.81,2.19-1.57,3.29-2.36l1.65-1.18,1.69-1.11c1.14-.73,2.25-1.5,3.41-2.19a112.08,112.08,0,0,1,14.38-7.49q3.72-1.62,7.59-2.9a54.33,54.33,0,0,1,7.86-2,54.26,54.26,0,0,0-7.95,1.76c-2.62.75-5.19,1.64-7.73,2.63L468,137a143.43,143.43,0,0,1,21.51-13.47,163.07,163.07,0,0,1,23.27-9.84c4-1.35,8-2.44,12.1-3.5,2-.46,4.09-1,6.15-1.35s4.12-.82,6.2-1.08a141.13,141.13,0,0,1,50,1.28c2,.46,4.11.83,6.14,1.36l6.09,1.64q6,1.8,12,4C627.14,122,642,130.4,656,140a170.22,170.22,0,0,0-43.47-26.84q-4.59-1.95-9.33-3.57a52.85,52.85,0,0,1,22.67-2,97.3,97.3,0,0,1,23.28,6A174.6,174.6,0,0,1,671,123.85c7.08,3.87,14,8.13,20.67,12.64s13.31,9.22,19.77,14.11,12.8,10,19.08,15.11q18.75,15.54,36.56,32.29l.19,0c-.15,1.64-.26,3.29-.33,4.94a21.74,21.74,0,0,0,.27,4.26c0,.45,0,.9,0,1.35,0,1.37,0,2.74.06,4.1.12,2.72.4,5.43.72,8.14.64,5.4,1.59,10.76,2.6,16.1s2.22,10.63,3.54,15.9q1.8,7.37,4.07,14.62c-.8-.9-1.61-1.8-2.42-2.69-3.22-3.56-6.57-7-10-10.42s-6.93-6.66-10.51-9.87a178.06,178.06,0,0,0-23-17.45,86.78,86.78,0,0,0-24.41-11c-1.27-1.07-2.56-2.09-3.87-3.09a95.59,95.59,0,0,0-10.88-7.24A75.35,75.35,0,0,0,672,197.36a9.33,9.33,0,0,0,1.3-.73,5.64,5.64,0,0,0,1.79-2,5.28,5.28,0,0,0,.55-2.65,11,11,0,0,0-1.6-4.75,27.45,27.45,0,0,0-2.8-3.91A31,31,0,0,0,664.15,176.92ZM499,138a21.16,21.16,0,0,1,1.12,5.42,48.52,48.52,0,0,1-.55,11.15,106.3,106.3,0,0,1-2.33,11c-3.85,14.53-9.54,28.54-15.55,42.34S469,235.26,462.1,248.68s-14,26.76-21.29,40l-11,19.84a207.51,207.51,0,0,0-9.77,20.68,197.55,197.55,0,0,0-12.23,44,187.55,187.55,0,0,0-1.63,45.52,149.53,149.53,0,0,0,3.8,22.45c.9,3.68,2,7.31,3.24,10.9s2.72,7.06,4.27,10.51c-1.37-3.53-2.66-7.07-3.7-10.7s-2-7.26-2.78-10.95a149.17,149.17,0,0,1-2.88-22.36,180,180,0,0,1,.1-22.52,201.51,201.51,0,0,1,2.66-22.33A212.43,212.43,0,0,1,416,351.76a199.92,199.92,0,0,1,7.52-21.16,213.71,213.71,0,0,1,9.71-20.25l11.05-19.78c14.52-26.55,28.5-53.46,40.2-81.45,5.81-14,11.15-28.26,14.59-43.1A106.77,106.77,0,0,0,501,154.76a49.9,49.9,0,0,0,.11-11.46,22.32,22.32,0,0,0-1.4-5.6,14.08,14.08,0,0,0-1.35-2.58,11.82,11.82,0,0,0-2-2.16,10,10,0,0,0-5.31-2.13,13.54,13.54,0,0,0-5.62.67,13.52,13.52,0,0,1,5.58-.37,9.44,9.44,0,0,1,5,2.29,11,11,0,0,1,1.75,2.1A13.12,13.12,0,0,1,499,138Z"/><path d="M612.28,404.57c.57-.2,1.15-.38,1.72-.57l-1.48.58Z"/><path d="M956,198.15c-.23,0-.46.09-.68.15L955,198l1-.11Z"/><path d="M638.66,595.76A2,2,0,0,1,639,595a2,2,0,0,0-.28.74Z"/><path d="M1392,498.8a106.05,106.05,0,0,0,11.73-16.2A62.7,62.7,0,0,0,1411,464a59.75,59.75,0,0,1-6.59,19,108.08,108.08,0,0,1-11.3,16.75,166.06,166.06,0,0,1-13.71,14.85q-7.25,7-15,13.49c-2.56,2.19-5.21,4.26-7.84,6.36l0,0q-2.79.45-5.59,1,6.09-4.49,12-9.19,7.85-6.24,15.19-13.08A170.22,170.22,0,0,0,1392,498.8Z"/><path d="M768.41,209.57a22.64,22.64,0,0,0,2.77,6.62l-.56-.78-.24.18,2.19,3.23a23.13,23.13,0,0,1-4.68-8.56v0c-.22-1.9-.34-3.81-.38-5.74-.09.9-.23,1.81-.3,2.72a21.74,21.74,0,0,1-.27-4.26c.07-1.65.18-3.3.33-4.94q.07-.93.18-1.86a119,119,0,0,1,5.68-26.64A77.88,77.88,0,0,1,786,145.61a57.87,57.87,0,0,1,21.46-16.53,64,64,0,0,1,13-4.2c1.11-.25,2.25-.39,3.37-.59s2.24-.41,3.37-.51l3.41-.31,1.7-.16c.56,0,1.13,0,1.7-.07a141.49,141.49,0,0,1,27.2,1.73c18,2.8,35.53,7.93,52.63,14.09a436.61,436.61,0,0,1,49.93,21.86,256.43,256.43,0,0,1,23.65,13.58c.94.65,1.9,1.26,2.8,2l1.37,1,1.32,1.11c.43.37.81.82,1.22,1.24s.76.8,1.17,1.17l1.31,1.08,1.36,1c3.69,2.63,7.59,5,11.49,7.29,15.68,9.16,31.79,17.58,47.91,25.94s32.33,16.5,48.61,24.53l-.28.2-12.18-5.61-12.32-5.84q-12.3-5.88-24.55-11.86c-16.27-8.15-32.48-16.35-48.38-25.35-4-2.28-7.91-4.57-11.77-7.26-.49-.34-1-.67-1.45-1l-1.44-1.17c-.48-.42-1-1-1.47-1.48-.33-.3-.56-.6-.95-.93l-1.2-1-1.3-1c-.86-.66-1.81-1.26-2.72-1.88a252.7,252.7,0,0,0-23.45-13.31,435.63,435.63,0,0,0-49.7-21.48c-16.94-6.19-34.3-11.36-52-14.2a138.23,138.23,0,0,0-26.67-1.83,71.2,71.2,0,0,0-25.71,5.36,55.93,55.93,0,0,0-20.9,15.65A76.85,76.85,0,0,0,774.61,170a118.21,118.21,0,0,0-6.19,26.22c-.28,2.23-.51,4.51-.65,6.73A22.51,22.51,0,0,0,768.41,209.57Z"/><path class="cls-4" d="M491.9,688a254.14,254.14,0,0,1-13.67,35.52,122.6,122.6,0,0,1-2.54-13.07,148.27,148.27,0,0,1-1.37-18.14A155.83,155.83,0,0,1,475,674a107.73,107.73,0,0,0-2.63,18.26,120.84,120.84,0,0,0,.23,18.54,100.81,100.81,0,0,0,3.31,18.35,84.51,84.51,0,0,0,7,17.39,66.48,66.48,0,0,0,11.26,15.1,42,42,0,0,0,3.48,3.19l1.78,1.56c.61.49,1.26.93,1.89,1.4l1.91,1.38a18,18,0,0,0,2,1.32l4.06,2.37a18.77,18.77,0,0,0,2.1,1.06l2.12,1,2.12,1c.71.32,1.46.54,2.19.82l4.4,1.56c1.5.41,3,.8,4.5,1.19L529,780c.75.19,1.52.28,2.28.42l4.57.76c3.05.42,6.14.55,9.19.78-3.47.59-6.93,1.21-10.4,1.76l-5.22.73c-1.74.23-3.48.52-5.23.66-3.49.31-7,.78-10.48.9l-5.25.28-5.25,0c-3.49.11-7-.15-10.47-.24-1.74-.13-3.48-.31-5.21-.46l-2.6-.24-2.59-.39c-1.72-.28-3.45-.46-5.15-.82l-5.1-1c-3.36-.88-6.73-1.71-10-2.91a86.92,86.92,0,0,1-18.58-9,76.22,76.22,0,0,1-15.6-13.39c-9.21-10.25-15.68-22.78-19.94-35.94a163.74,163.74,0,0,1-6.72-30.5l22.3-2a72,72,0,0,0,1.23,7.14,89.92,89.92,0,0,0,4.42,13.75,131.2,131.2,0,0,0,6.31,13c2.36,4.17,4.92,8.23,7.64,12.17s5.66,7.73,8.71,11.41,6.24,7.25,9.65,10.6A177.53,177.53,0,0,1,444,734.94q-3.94-6-7.35-12.23a129,129,0,0,1-6-12.91,101.33,101.33,0,0,1-4.16-13.55,68.39,68.39,0,0,1-1.58-14,52.42,52.42,0,0,1,1.93-13.88l1.08-3.34c.38-1.1.92-2.15,1.37-3.23l.71-1.6c.27-.52.58-1,.86-1.53l1.75-3,2-2.88c.34-.47.66-1,1-1.43l1.15-1.33,2.3-2.67,2.4-2.68,4.8-5.36c1.56-1.82,3-3.74,4.51-5.6l2.24-2.82c.77-.92,1.41-1.94,2.12-2.91l4.15-5.88c2.55-4.06,5.2-8.06,7.41-12.33a164.52,164.52,0,0,0,11.65-26.25c1.47-4.56,2.85-9.14,3.88-13.82a92.85,92.85,0,0,0,2.26-14.15,104.82,104.82,0,0,1-2.77,14c-.59,2.31-1.26,4.59-2,6.86L463,571a105.62,105.62,0,0,1-2.52-15.16,82.08,82.08,0,0,1,.22-15.28,87,87,0,0,1,8.47-29.12,121.88,121.88,0,0,1,16.77-25.38c.31-.36.62-.73.94-1.09-1.68,14.32,4,34.66,12.58,56.42,4.56,11.52,10,23.45,15.55,35.09q-2.73,18.24-5.87,36.33c-1.15,6.34-2.26,12.68-3.54,19s-2.51,12.63-4,18.9-2.86,12.54-4.51,18.75S493.78,681.86,491.9,688Z"/><path d="M772.57,218.82l-2.19-3.23.24-.18.56.78a22.66,22.66,0,0,0,2,2.7c.49.67,1,1.34,1.44,2A21.9,21.9,0,0,1,772.57,218.82Z"/><path d="M1461,698h-.16l.12-.08c2.5-1.79,5.07-3.48,7.72-5,1.32-.78,2.66-1.53,4-2.23a43.4,43.4,0,0,1,4.22-1.9h.08a98.78,98.78,0,0,1,37.08,6.54,128.24,128.24,0,0,1,33,18.38,111,111,0,0,1,14.07,12.75,64.4,64.4,0,0,1,6,7.46,33.9,33.9,0,0,1,2.43,4.19c.69,1.47,1.28,2.9,1.91,4.35,4.93,11.55,9.71,23.25,16.94,33.37a43,43,0,0,0,13.18,12.61,146.48,146.48,0,0,1,15.9,10.37A330.27,330.27,0,0,1,1646.56,823a281.15,281.15,0,0,1,26,27.58,176.16,176.16,0,0,1,11.23,15.33,110.46,110.46,0,0,1,9,16.81c.6,1.48,1.24,2.95,1.73,4.48l.78,2.28.69,2.29q1.29,4.62,2.14,9.33a114.18,114.18,0,0,1,1.84,19,99.25,99.25,0,0,1-1.53,19.06c-1.22,6.28-3.12,12.57-6.68,18.14a26.7,26.7,0,0,1-3,3.93,20.56,20.56,0,0,1-3.85,3.27,18.94,18.94,0,0,1-4.61,2.19c-.24.08-.49.15-.74.21,0-.28,0-.57,0-.85,0,.29,0,.57,0,.86h0a19.13,19.13,0,0,1-4.25.56,25.53,25.53,0,0,1-9.76-1.91,45.74,45.74,0,0,1-8.57-4.59,73.69,73.69,0,0,1-7.61-5.87c-2.4-2.1-4.72-4.28-6.92-6.57s-4.34-4.63-6.47-6.92l-6.41-6.91c-17.22-18.28-35.09-36-53.34-53.25s-36.79-34.29-55.79-50.73l-.66-.58.5-.72.92-1.35a67.76,67.76,0,0,0,7.87-15.33,59.47,59.47,0,0,0,3.47-18.49c.3-12.65-3.36-25.18-9.14-36.46a143.71,143.71,0,0,0-22-31.07c-4.29-4.72-8.83-9.22-13.54-13.53A185.48,185.48,0,0,0,1473,701a183.25,183.25,0,0,1,15,12q7.21,6.33,13.78,13.35a144.14,144.14,0,0,1,22.6,31,89.54,89.54,0,0,1,7.19,17.87,67.67,67.67,0,0,1,2.54,19.16,61.18,61.18,0,0,1-3.42,19,69.88,69.88,0,0,1-8.39,16.47l-.65-.56.16,1.3c.17-.25.34-.49.49-.74a1454,1454,0,0,1,109.23,103l6.44,6.91c2.16,2.31,4.26,4.62,6.43,6.84s4.44,4.36,6.78,6.39a68.25,68.25,0,0,0,7.33,5.63,42.9,42.9,0,0,0,8,4.29,22.72,22.72,0,0,0,8.64,1.69,15.08,15.08,0,0,0,8.11-2.53,17.47,17.47,0,0,0,3.31-2.84,22.86,22.86,0,0,0,2.71-3.52c3.24-5.06,5-11.06,6.23-17.08a95.15,95.15,0,0,0,1.53-18.48,111.65,111.65,0,0,0-1.74-18.52c-.55-3-1.23-6.08-2.06-9.06l-.65-2.23-.75-2.18c-.46-1.47-1.08-2.89-1.66-4.32a106.38,106.38,0,0,0-8.77-16.4,174.19,174.19,0,0,0-11-15.13,278.73,278.73,0,0,0-25.66-27.37A334.47,334.47,0,0,0,1616,800.76a145.35,145.35,0,0,0-15.59-10.36A45.18,45.18,0,0,1,1586.64,777c-7.35-10.49-12.05-22.34-16.88-33.91-.62-1.44-1.21-2.92-1.86-4.3a29.66,29.66,0,0,0-2.26-4,61.69,61.69,0,0,0-5.75-7.3,108.73,108.73,0,0,0-13.75-12.68,135.88,135.88,0,0,0-15.53-10.49,125,125,0,0,0-16.91-8.12,98.25,98.25,0,0,0-36.64-7h0a39,39,0,0,0-4.16,1.8c-1.37.67-2.72,1.39-4.05,2.14-2.6,1.47-5.12,3.06-7.58,4.74l-.24-.06,0,.2.2-.14,11.73,3-12-2.89-.24-.06.07,0Z"/><path class="cls-5" d="M1697.06,920.14a95.15,95.15,0,0,1-1.53,18.48c-1.18,6-3,12-6.23,17.08a22.86,22.86,0,0,1-2.71,3.52,17.47,17.47,0,0,1-3.31,2.84,15.08,15.08,0,0,1-8.11,2.53,22.72,22.72,0,0,1-8.64-1.69,42.9,42.9,0,0,1-8-4.29,68.25,68.25,0,0,1-7.33-5.63c-2.34-2-4.61-4.15-6.78-6.39s-4.27-4.53-6.43-6.84l-6.44-6.91a1454,1454,0,0,0-109.23-103,69.88,69.88,0,0,0,8.39-16.47,61.18,61.18,0,0,0,3.42-19,67.67,67.67,0,0,0-2.54-19.16,89.54,89.54,0,0,0-7.19-17.87,144.14,144.14,0,0,0-22.6-31q-6.55-7-13.78-13.35a183.25,183.25,0,0,0-15-12l-11.73-3c2.46-1.68,5-3.27,7.58-4.74,1.33-.75,2.68-1.47,4.05-2.14a39,39,0,0,1,4.16-1.8,98.25,98.25,0,0,1,36.64,7,125,125,0,0,1,16.91,8.12,135.88,135.88,0,0,1,15.53,10.49,108.73,108.73,0,0,1,13.75,12.68,61.69,61.69,0,0,1,5.75,7.3,29.66,29.66,0,0,1,2.26,4c.65,1.38,1.24,2.86,1.86,4.3,4.83,11.57,9.53,23.42,16.88,33.91a45.18,45.18,0,0,0,13.78,13.36A145.35,145.35,0,0,1,1616,800.76a334.47,334.47,0,0,1,28.75,24.17,278.73,278.73,0,0,1,25.66,27.37,174.19,174.19,0,0,1,11,15.13,106.38,106.38,0,0,1,8.77,16.4c.58,1.43,1.2,2.85,1.66,4.32l.75,2.18.65,2.23c.83,3,1.51,6,2.06,9.06A111.65,111.65,0,0,1,1697.06,920.14Z"/><path d="M1679.52,966.06c0,.28,0,.57,0,.85h0C1679.51,966.63,1679.52,966.35,1679.52,966.06Z"/><path class="cls-5" d="M1679.49,966.93a28.39,28.39,0,0,1-4.49,14.16,25.11,25.11,0,0,1-12.12,9.63,33.77,33.77,0,0,1-7.6,2c-1.29.24-2.61.3-3.91.44s-2.63.15-3.95.11c-5.25.26-10.27-1.48-15.15-3.46a131.28,131.28,0,0,1-14.18-7.11c-4.61-2.61-9.14-5.4-13.6-8.29-8.9-5.79-17.64-11.86-26.25-18.12-17.21-12.52-33.92-25.74-50.44-39.18q-22.82-18.45-45-37.67,2.65.51,5.37.77a32.27,32.27,0,0,0,10.8-.63,17.93,17.93,0,0,0,9.43-5.65,21.34,21.34,0,0,0,4.45-9.93,42.52,42.52,0,0,0,.5-10.67,76.3,76.3,0,0,0-1.5-10.47,113.45,113.45,0,0,0-6.3-20.07l0,0v0l-4.26-7.42q9.85,6.39,19.76,12.7l.13.09-.92,1.35-.5.72.66.58c19,16.44,37.56,33.43,55.79,50.73s36.12,35,53.34,53.25l6.41,6.91c2.13,2.29,4.25,4.64,6.47,6.92s4.52,4.47,6.92,6.57a73.69,73.69,0,0,0,7.61,5.87,45.74,45.74,0,0,0,8.57,4.59,25.53,25.53,0,0,0,9.76,1.91A19.13,19.13,0,0,0,1679.49,966.93Z"/><path class="cls-6" d="M1526.32,523.57a142.52,142.52,0,0,1,5,37.3,116.59,116.59,0,0,1-6.1,37.08,124,124,0,0,1-17.44,33.36A159.32,159.32,0,0,1,1482,658.86a210.87,210.87,0,0,1-31,21.74q-8.19,4.75-16.76,8.84c-4.91,2.33-9.88,4.53-15,6.45-8-.45-16.08-.93-24.11-1.5-21.89-1.64-43.82-3.3-65.42-6.77a153.46,153.46,0,0,1-15.94-3.41c-1.32-.32-2.56-.79-3.84-1.2a17.58,17.58,0,0,1-1.84-.72l-1.87-.78a11.3,11.3,0,0,0-4.56-1.06,10.29,10.29,0,0,0-3.69.61c.42-.48.84-1,1.24-1.46.6-.74,1.31-1.37,2-2.06l1-1c.34-.33.7-.63,1-.95.71-.63,1.41-1.27,2.16-1.82a21.59,21.59,0,0,1,2.22-1.56l2.76-1.7-3.07-.8c-12.72-3.35-25.49-6.27-38.33-9s-25.71-5.22-38.65-7.4c-25.87-4.36-51.9-7.78-78-10-3.26-.29-6.54-.48-9.81-.73s-6.54-.48-9.82-.65c-6.55-.34-13.11-.62-19.67-.77-13.12-.33-26.25-.26-39.36.31a389.52,389.52,0,0,0-39.18,3.58A292.67,292.67,0,0,0,996,653c25.44-6.36,51.6-9.11,77.73-9.89a661.46,661.46,0,0,1,78.37,2.74c26.05,2.35,52,5.87,77.78,10.33,24.78,4.37,49.53,9.25,73.92,15.41l0,0c-.81.61-1.55,1.28-2.3,2-.37.33-.75.66-1.11,1l-1,1.07c-.68.73-1.43,1.4-2,2.18-1.26,1.53-2.62,3-3.73,4.64s-2.36,3.2-3.35,4.91a104.66,104.66,0,0,0-5.68,10.39,113.35,113.35,0,0,0-4.35,11c-5.1,14.91-7.53,30.54-8.46,46.13l-.38,5.86,0,5.86,0,5.86c0,2,0,3.91,0,5.86.17,7.8.54,15.61,1.33,23.39a91.75,91.75,0,0,0,1.84,11.6,20.69,20.69,0,0,0,2.07,5.58,5.36,5.36,0,0,0,1,1.2,2.78,2.78,0,0,0,.62.44c-5.65.12-11.31,0-17,0q-9.18-.13-18.36-.37-18.36-.45-36.72-1.14-36.7-1.35-73.37-3.38c-48.89-2.73-97.75-6.26-146.44-11.34-24.34-2.59-48.64-5.59-72.77-9.56-12.07-2-24.09-4.26-36-7s-23.73-5.93-34.86-10.75c-1.39-.6-2.74-1.28-4.11-1.92s-2.7-1.39-4-2.13l-1.07-.59c.2-.44.39-.87.58-1.31l-.6,1.3c-2.3-1.27-4.56-2.59-6.79-4A110.44,110.44,0,0,1,812,757.54a73.15,73.15,0,0,1-12.08-13.4A53.12,53.12,0,0,1,792.3,728a48.94,48.94,0,0,1-1.45-17.75,62.28,62.28,0,0,1,4.41-17.39c4.55-11.17,11.69-21.2,19.89-30.1a156.58,156.58,0,0,1,13.18-12.56c4.62-4,9.35-7.86,14.07-11.75,9.45-7.78,18.94-15.59,27.94-24A426.77,426.77,0,0,0,919.85,560l11-14.68c1.84-2.44,3.65-4.9,5.53-7.31l5.64-7.23,5.64-7.23,5.76-7.14c3.84-4.76,7.67-9.53,11.62-14.2Q988.51,474,1013.44,447c33.2-35.94,68-70.35,104.14-103.4q27.09-24.76,55.11-48.49c18.61-15.7,37.49-31.13,56.87-45.83,34-5.49,68.48-8.55,102.83-6.39a258.72,258.72,0,0,1,51,8.1,172.89,172.89,0,0,1,47.21,20.26A135.6,135.6,0,0,1,1468,306.18a149.93,149.93,0,0,1,22.32,46.21,203.65,203.65,0,0,1,7.8,51,245.19,245.19,0,0,1-.56,25.86,206.85,206.85,0,0,1-3.4,25.6l-.08.36.2.3a284.31,284.31,0,0,1,18.73,32.8A202,202,0,0,1,1526.32,523.57ZM1458.07,543l6.93,2-6.88-2.21c-2.29-.72-4.57-1.53-6.91-2.1-4.66-1.22-9.3-2.54-14-3.45a224.56,224.56,0,0,0-28.62-4.3l-7.23-.55-7.25-.27c-4.83-.09-9.67-.1-14.5.12a186.8,186.8,0,0,0-23.07,2.22l0,0c2.63-2.1,5.28-4.17,7.84-6.36q7.79-6.44,15-13.49a166.06,166.06,0,0,0,13.71-14.85,108.08,108.08,0,0,0,11.3-16.75,59.75,59.75,0,0,0,6.59-19,62.7,62.7,0,0,1-7.29,18.6A106.05,106.05,0,0,1,1392,498.8a170.22,170.22,0,0,1-13.88,14.42q-7.33,6.84-15.19,13.08-5.91,4.71-12,9.19l-.28.06,0,.12q-9.95,7.33-20.32,14.05l-8.38,5.52-8.55,5.28c-2.86,1.73-5.66,3.57-8.57,5.22l-8.67,5.07c-23.16,13.47-47,25.84-71,37.65-12,6-24.18,11.61-36.36,17.21s-24.45,11-36.79,16.33c6.3-2.32,12.54-4.79,18.77-7.3l9.32-3.81,9.29-3.88c3.09-1.31,6.15-2.68,9.23-4s6.15-2.69,9.21-4.08l9.18-4.14,9.14-4.24c24.35-11.33,48.26-23.67,71.53-37.13l8.69-5.11c2.92-1.67,5.73-3.53,8.59-5.28l8.57-5.33,8.4-5.6,4.19-2.81c1.4-.92,2.79-1.87,4.15-2.86l8.2-5.89c1-.68,1.94-1.41,2.89-2.14l0,.07a174.33,174.33,0,0,1,28.31-4c4.78-.33,9.58-.45,14.37-.48l7.2.08,7.19.35A223.58,223.58,0,0,1,1437,538c4.75.78,9.41,2,14.09,3.08C1453.47,541.56,1455.75,542.31,1458.07,543Z"/><path d="M1522.28,829.82c-.15.25-.32.49-.49.74l-.16-1.3Z"/><path class="cls-2" d="M1511.49,853.42a40.11,40.11,0,0,1-.64,10.17,19.12,19.12,0,0,1-4.14,8.89,15.52,15.52,0,0,1-8.32,4.77,28,28,0,0,1-5,.62,42.74,42.74,0,0,1-5-.21,60,60,0,0,1-10.05-1.92l-2.77-.75A175.78,175.78,0,0,0,1438,851.67a172.91,172.91,0,0,0-22.32-8.22,190.54,190.54,0,0,0-23.28-5,193.58,193.58,0,0,0-47.56-.72,203.47,203.47,0,0,0-23.5,4c-3.88.88-7.72,1.91-11.54,3.05-3.18,1-6.31,2-9.44,3.16,0-3.79-.2-7.55-.4-11.31-.24-4.44-.62-8.86-1.12-13.29a130.32,130.32,0,0,0-2.13-13.22,48.47,48.47,0,0,0-4.18-12.47c.38-4.12.87-8.26,1.51-12.34.33-2.12.7-4.23,1.15-6.3a52.5,52.5,0,0,1,1.36-5.15l56.24-1.85c9.54-.32,19.08-.59,28.62-1L1410,770h.07l.1,0a25.62,25.62,0,0,1,3-.22c1,.05,2.08,0,3.13.13,2.09.13,4.17.49,6.25.82,2.05.49,4.14.83,6.16,1.47l3.06.88c1,.3,2,.68,3,1l3,1.06c1,.37,2,.8,3,1.2,2,.84,4,1.58,5.84,2.55l5.77,2.76,5.62,3c.93.52,1.89,1,2.8,1.55l2.74,1.66,5.47,3.31c3.55,2.38,7.13,4.71,10.62,7.17s6.92,5,10.32,7.63l9.21,7.3.47.88,4.85,9v0c1.24,3.21,2.31,6.5,3.27,9.82s1.8,6.7,2.45,10.09A72.69,72.69,0,0,1,1511.49,853.42Z"/><path d="M1501.24,815.3l-1.47-.95.6-.56Z"/><polygon points="1499.12 813.25 1499.96 813.97 1499.16 813.33 1499.12 813.25"/><path d="M1410,768h0a28.94,28.94,0,0,1,6.51,0c2.18.17,4.32.56,6.45.94s4.25.91,6.3,1.59l3.1.93c1,.32,2,.73,3.05,1.08l3,1.12c1,.38,2,.84,3,1.26,2,.87,4,1.65,5.87,2.65l5.76,2.9,5.6,3.19c.93.54,1.88,1,2.78,1.62l2.72,1.73,5.42,3.45c3.51,2.47,7,4.88,10.5,7.42l5.09,3.92c1.68,1.32,3.42,2.57,5,4l8.94,7.52,0,.08L1490,806c-3.4-2.6-6.88-5.08-10.32-7.63s-7.07-4.79-10.62-7.17l-5.47-3.31-2.74-1.66c-.91-.56-1.87-1-2.8-1.55l-5.62-3-5.77-2.76c-1.89-1-3.89-1.71-5.84-2.55-1-.4-2-.83-3-1.2l-3-1.06c-1-.34-2-.72-3-1l-3.06-.88c-2-.64-4.11-1-6.16-1.47-2.08-.33-4.16-.69-6.25-.82-1-.13-2.09-.08-3.13-.13a25.62,25.62,0,0,0-3,.22l-.1,0H1410l-28.62,1.07c-9.54.38-19.08.65-28.62,1l-56.24,1.85q.14-.45.3-.9l-1.31.93,1,0a52.5,52.5,0,0,0-1.36,5.15c-.45,2.07-.82,4.18-1.15,6.3-.64,4.08-1.13,8.22-1.51,12.34-.07-.15-.15-.29-.23-.44l.19.87c0-.14,0-.29,0-.43a48.47,48.47,0,0,1,4.18,12.47,130.32,130.32,0,0,1,2.13,13.22c.5,4.43.88,8.85,1.12,13.29.2,3.76.35,7.52.4,11.31-.63.24-1.27.48-1.9.74l1.92,1.27c0-.67,0-1.34,0-2,3.13-1.19,6.26-2.2,9.44-3.16,3.82-1.14,7.66-2.17,11.54-3.05a203.47,203.47,0,0,1,23.5-4,193.58,193.58,0,0,1,47.56.72,190.54,190.54,0,0,1,23.28,5,172.91,172.91,0,0,1,22.32,8.22A175.78,175.78,0,0,1,1475.57,875l-.3-.08a180.09,180.09,0,0,0-37.74-22.17c-3.66-1.45-7.28-3-11-4.2-3.69-1.36-7.49-2.41-11.25-3.53a189.75,189.75,0,0,0-23.11-4.62,194.57,194.57,0,0,0-47-.1,201.76,201.76,0,0,0-23.18,4.07c-3.83.89-7.61,1.93-11.36,3.06s-7.5,2.4-11,3.85l-.18.07.14-.84-.16.85-1.7.7,0-2c0-4.37-.22-8.78-.48-13.16s-.65-8.76-1.17-13.11a123.82,123.82,0,0,0-2.13-12.92,49.74,49.74,0,0,0-3.45-10.74c.19-.61.37-1.22.54-1.84l-.57,1.76c-.21-.42-.43-.84-.66-1.25l-.24-.42,0-.45c.41-4.36.94-8.66,1.63-13,.35-2.16.73-4.31,1.21-6.46.39-1.73.8-3.46,1.36-5.19l4.79-.75-4.71.51q.17-.51.36-1l.34-.9,1,0,57.25-1.62c9.54-.26,19.08-.57,28.63-.78Z"/><path d="M1478.86,876l3.92,3.41c-1.73-.33-3.43-.73-5.12-1.17Z"/><path d="M1477.09,689.26h0Z"/><path d="M1465,545l-6.93-2c-2.32-.66-4.6-1.41-7-1.91-4.68-1.1-9.34-2.3-14.09-3.08a223.58,223.58,0,0,0-28.58-3.55l-7.19-.35-7.2-.08c-4.79,0-9.59.15-14.37.48a174.33,174.33,0,0,0-28.31,4l0-.07,1.16-.87c1.32-1,2.68-2,4-3a186.8,186.8,0,0,1,23.07-2.22c4.83-.22,9.67-.21,14.5-.12l7.25.27,7.23.55a224.56,224.56,0,0,1,28.62,4.3c4.74.91,9.38,2.23,14,3.45,2.34.57,4.62,1.38,6.91,2.1Z"/><path d="M1461.27,698l-.2.14,0-.2Z"/><path d="M1461,698h0Z"/><path d="M1419.3,695.89h0c-.84.31-1.68.62-2.52.91Z"/><path d="M1350.66,535.67l.69,2.71c-.95.73-1.91,1.46-2.89,2.14l-8.2,5.89c-1.36,1-2.75,1.94-4.15,2.86l-4.19,2.81-8.4,5.6L1315,563c-2.86,1.75-5.67,3.61-8.59,5.28l-8.69,5.11c-23.27,13.46-47.18,25.8-71.53,37.13l-9.14,4.24-9.18,4.14q-4.59,2.08-9.21,4.08c-3.08,1.34-6.14,2.71-9.23,4l-9.29,3.88-9.32,3.81c-6.23,2.51-12.47,5-18.77,7.3,12.34-5.29,24.62-10.68,36.79-16.33s24.34-11.25,36.36-17.21c24.07-11.81,47.86-24.18,71-37.65l8.67-5.07c2.91-1.65,5.71-3.49,8.57-5.22l8.55-5.28,8.38-5.52Q1340.71,543,1350.66,535.67Z"/><path d="M1350.91,535.49a2,2,0,0,1-.25.18l0-.12Z"/><path d="M1279.05,820.51l-1,0a2.78,2.78,0,0,1-.62-.44,5.36,5.36,0,0,1-1-1.2,20.69,20.69,0,0,1-2.07-5.58,91.75,91.75,0,0,1-1.84-11.6c-.79-7.78-1.16-15.59-1.33-23.39-.07-2,0-3.9,0-5.86l0-5.86,0-5.86.38-5.86c.93-15.59,3.36-31.22,8.46-46.13a113.35,113.35,0,0,1,4.35-11,104.66,104.66,0,0,1,5.68-10.39c1-1.71,2.19-3.3,3.35-4.91s2.47-3.11,3.73-4.64c.62-.78,1.37-1.45,2-2.18l1-1.07c.36-.35.74-.68,1.11-1,.75-.68,1.49-1.35,2.3-2l0,0,2.85.72-.31-2.5a24.61,24.61,0,0,0-2.54,1.78c-24.39-6.16-49.14-11-73.92-15.41-25.78-4.46-51.73-8-77.78-10.33a661.46,661.46,0,0,0-78.37-2.74c-26.13.78-52.29,3.53-77.73,9.89a292.67,292.67,0,0,1,38.48-8,389.52,389.52,0,0,1,39.18-3.58c13.11-.57,26.24-.64,39.36-.31,6.56.15,13.12.43,19.67.77,3.28.17,6.55.43,9.82.65s6.55.44,9.81.73c26.15,2.24,52.18,5.66,78,10,12.94,2.18,25.82,4.69,38.65,7.4s25.61,5.66,38.33,9l3.07.8-2.76,1.7a21.59,21.59,0,0,0-2.22,1.56c-.75.55-1.45,1.19-2.16,1.82-.35.32-.71.62-1,.95l-1,1c-.65.69-1.36,1.32-2,2.06-.4.49-.82,1-1.24,1.46-.32.12-.64.25-1,.4a14.27,14.27,0,0,0-3.72,2.63,22.4,22.4,0,0,0-2.86,3.33,43.4,43.4,0,0,0-4.18,7.4,106.63,106.63,0,0,0-5.46,15.77,260.28,260.28,0,0,0-6.23,32.51C1273.17,754,1272,765,1271.44,776l0,.69.66-.1.75-.11c0,8.39.26,16.8.87,25.16a88.5,88.5,0,0,0,1.58,11.51,19.64,19.64,0,0,0,1.85,5.39,2.93,2.93,0,0,0,1.92,1.61,2,2,0,0,0,1.21-.29,4.45,4.45,0,0,0,1.08-.83,20.33,20.33,0,0,0,3.24-4.73c.9-1.72,1.71-3.48,2.47-5.28q1.83-4.43,3.32-9l0,.08q-1.34,4.57-3,9c-.71,1.82-1.46,3.62-2.34,5.38a20.65,20.65,0,0,1-3.24,4.94,5.45,5.45,0,0,1-1.21,1,2.61,2.61,0,0,1-1.59.4,2.46,2.46,0,0,1-.85-.25Z"/><path d="M1306.34,669.81l.31,2.5-2.85-.72A24.61,24.61,0,0,1,1306.34,669.81Z"/><path d="M1300.36,848c0,.67,0,1.34,0,2l-1.92-1.27C1299.09,848.47,1299.73,848.23,1300.36,848Z"/><polygon points="1299.5 850.5 1299.36 851.34 1299.34 851.35 1299.5 850.5"/><path d="M1299.34,851.35h0l-7.92,47.74-.06.4-.42,0c-6.47-.39-13-.52-19.5-.5-3.25,0-6.51,0-9.76.1l-4.88.09-4.88.17c-6.5.17-13,.57-19.5.9-3.25.2-6.49.47-9.74.69s-6.49.45-9.73.78c-25.94,2.25-51.75,5.79-77.41,10.11-6.41,1.14-12.83,2.23-19.23,3.41L1097.19,919c-12.77,2.65-25.36,5.67-38.2,8.36a367.72,367.72,0,0,1-38.79,5.84,371.74,371.74,0,0,1-39.2,1.51,365.72,365.72,0,0,1-39.14-2.62,379.55,379.55,0,0,1-38.65-6.63,350.85,350.85,0,0,1-37.74-10.69,268.3,268.3,0,0,1-36.08-15.4,170.34,170.34,0,0,1-16.9-10c-1.36-.93-2.67-1.93-4-2.89s-2.58-2.05-3.87-3.07-2.45-2.23-3.67-3.33l-1.7-1.83-.85-.92c-.28-.31-.51-.66-.77-1a32.56,32.56,0,0,1-6.78-18.55,43.27,43.27,0,0,1,.72-9.91c.37-1.61.67-3.24,1.19-4.81l.73-2.36.87-2.32a86.19,86.19,0,0,1,9.3-17.29c3.67-5.4,7.4-10.73,10.92-16.21s7-11,10.27-16.62c2.66-4.57,5.26-9.19,7.58-14l.07,0c-2.22,4.81-4.72,9.49-7.29,14.12-3.17,5.7-6.54,11.29-10,16.81-6.71,11.16-15.2,21.36-19.57,33.59l-.81,2.27-.67,2.32c-.49,1.53-.75,3.12-1.1,4.69a41.27,41.27,0,0,0-.6,9.54,30.81,30.81,0,0,0,6.59,17.52c.24.31.46.63.73.93l.82.87,1.65,1.73c1.2,1.07,2.34,2.19,3.59,3.2s2.49,2,3.81,3,2.61,1.9,4,2.79a162.91,162.91,0,0,0,16.79,9.74l4.35,2.18,4.41,2c2.92,1.41,5.94,2.6,8.91,3.9s6,2.41,9.06,3.55l4.58,1.66c1.52.57,3,1.1,4.59,1.61a351.88,351.88,0,0,0,37.49,10.49,378.19,378.19,0,0,0,38.39,6.45A363.09,363.09,0,0,0,981,931.8c13,.13,26-.41,38.9-1.53a365.22,365.22,0,0,0,38.5-5.66c12.68-2.62,25.45-5.64,38.21-8.24l19.21-3.76c6.42-1.16,12.85-2.23,19.28-3.36q38.63-6.37,77.69-9.46c3.24-.3,6.5-.47,9.76-.68s6.51-.43,9.76-.6c6.52-.28,13-.61,19.56-.71l4.89-.11h4.9c3.26,0,6.52,0,9.78.05,6.39.09,12.77.31,19.16.79l-.07.4.48-.37-.41,0Z"/><path class="cls-6" d="M1299.34,851.35l-8.71,47.17c-6.39-.48-12.77-.7-19.16-.79-3.26-.07-6.52-.07-9.78-.05h-4.9l-4.89.11c-6.52.1-13,.43-19.56.71-3.25.17-6.51.4-9.76.6s-6.52.38-9.76.68q-39,3.06-77.69,9.46c-6.43,1.13-12.86,2.2-19.28,3.36l-19.21,3.76c-12.76,2.6-25.53,5.62-38.21,8.24a365.22,365.22,0,0,1-38.5,5.66C1007,931.39,994,931.93,981,931.8a363.09,363.09,0,0,1-38.85-2.48,378.19,378.19,0,0,1-38.39-6.45,351.88,351.88,0,0,1-37.49-10.49c-1.54-.51-3.07-1-4.59-1.61l-4.58-1.66c-3-1.14-6-2.35-9.06-3.55s-6-2.49-8.91-3.9l-4.41-2-4.35-2.18a162.91,162.91,0,0,1-16.79-9.74c-1.35-.89-2.64-1.86-4-2.79s-2.53-2-3.81-3-2.39-2.13-3.59-3.2L800.6,877l-.82-.87c-.27-.3-.49-.62-.73-.93a30.81,30.81,0,0,1-6.59-17.52,41.27,41.27,0,0,1,.6-9.54c.35-1.57.61-3.16,1.1-4.69l.67-2.32.81-2.27c4.37-12.23,12.86-22.43,19.57-33.59,3.46-5.52,6.83-11.11,10-16.81,2.57-4.63,5.07-9.31,7.29-14.12l.93.51c1.36.74,2.73,1.43,4.1,2.14s2.8,1.36,4.22,2c11.39,4.88,23.33,8,35.28,10.76s24,4.94,36.13,6.89c24.21,3.9,48.55,6.82,72.92,9.32,48.74,5,97.64,8.15,146.56,10.58q36.69,1.8,73.41,2.93,18.36.57,36.72.92c6.12.11,12.24.21,18.37.26,5.66,0,11.32.09,17-.07a2.46,2.46,0,0,0,.85.25,2.61,2.61,0,0,0,1.59-.4,5.45,5.45,0,0,0,1.21-1,20.65,20.65,0,0,0,3.24-4.94c.88-1.76,1.63-3.56,2.34-5.38q1.71-4.47,3-9a49.74,49.74,0,0,1,3.45,10.74,123.82,123.82,0,0,1,2.13,12.92c.52,4.35.91,8.73,1.17,13.11s.44,8.79.48,13.16l0,2Z"/><path d="M1298.5,772.5l-4.79.75.08-.24Z"/><path d="M1296.85,773q-.16.45-.3.9l-1,0Z"/><path class="cls-7" d="M1285.29,774.56l8.42-1.31c-.56,1.73-1,3.46-1.36,5.19-.48,2.15-.86,4.3-1.21,6.46-.69,4.31-1.22,8.61-1.63,13l0,.45.24.42c.23.41.45.83.66,1.25q-1.48,4.56-3.32,9c-.76,1.8-1.57,3.56-2.47,5.28a20.33,20.33,0,0,1-3.24,4.73,4.45,4.45,0,0,1-1.08.83,2,2,0,0,1-1.21.29,2.93,2.93,0,0,1-1.92-1.61,19.64,19.64,0,0,1-1.85-5.39,88.5,88.5,0,0,1-1.58-11.51c-.61-8.36-.9-16.77-.87-25.16Z"/><path d="M1292.53,797.7c0,.14,0,.29,0,.43l-.19-.87C1292.38,797.41,1292.46,797.55,1292.53,797.7Z"/><path d="M1291,898.55l-.48.37.07-.4Z"/><path d="M1290.93,798.23c-.17.62-.35,1.23-.54,1.84l0-.08Z"/><path d="M1279.05,820.51l-.93,0h0Z"/><path d="M1278.1,820.53h0c-5.66.16-11.32.1-17,.07-6.13-.05-12.25-.15-18.37-.26q-18.36-.35-36.72-.92-36.72-1.11-73.41-2.93c-48.92-2.43-97.82-5.6-146.56-10.58-24.37-2.5-48.71-5.42-72.92-9.32-12.1-2-24.16-4.18-36.13-6.89s-23.89-5.88-35.28-10.76c-1.42-.6-2.81-1.3-4.22-2s-2.74-1.4-4.1-2.14l-.93-.51c.32-.67.63-1.35.92-2l1.07.59c1.33.74,2.69,1.42,4,2.13s2.72,1.32,4.11,1.92c11.13,4.82,23,7.94,34.86,10.75s23.92,5,36,7c24.13,4,48.43,7,72.77,9.56,48.69,5.08,97.55,8.61,146.44,11.34q36.66,2,73.37,3.38,18.36.67,36.72,1.14,9.18.23,18.36.37C1266.79,820.56,1272.45,820.65,1278.1,820.53Z"/><path d="M1272.63,775.37c0,.22-.05.45-.07.67l-.63-.59Z"/><path d="M1234.07,247.87l-.14.26c-1.68-.45-3.33-1-5-1.51l2.07-.32Z"/><path d="M1231.05,246.3l-2.07.32c-1.52-.51-3-1.06-4.49-1.64s-3.07-1.2-4.59-1.84-3-1.29-4.51-2c-3-1.32-5.93-2.82-8.87-4.26l-4.35-2.31-2.16-1.17-.19-.11,1.28-2-3.23.9,2,1.12c-3.52,5.58-7,11.16-10.6,16.7-4,6.22-8,12.46-12,18.64l-6.06,9.29-6.12,9.24q-6.12,9.26-12.4,18.4l-.26-.16,34.75-56.57,1.91-.7-.06-.3-1.43.31,11.24-18.29.13-.2.21.11,8.77,4.45,8.72,4.55Z"/><path d="M1229.82,249.1l-.26.2-.34,0Z"/><path class="cls-3" d="M1229,246.62l-.2,0-.33,0-.27.2c-19.57,14.81-38.56,30.29-57.31,46.08q-8.43,7.09-16.76,14.31l-1.48-1.71q6.27-9.15,12.4-18.4l6.12-9.24,6.06-9.29c4-6.18,8-12.42,12-18.64,3.58-5.54,7.08-11.12,10.6-16.7l.19.11,2.16,1.17,4.35,2.31c2.94,1.44,5.86,2.94,8.87,4.26,1.49.69,3,1.36,4.51,2s3,1.27,4.59,1.84S1227.46,246.11,1229,246.62Z"/><path d="M1201.1,231.29l-1.28,2-2-1.12Z"/><path d="M1189,247.85l.06.3-1.91.7.42-.69Z"/><path d="M1187.54,248.16l-.42.69c-4,1.44-8.08,2.68-12.18,3.78-2.38.67-4.77,1.26-7.18,1.8l-3.62.81c-1.22.23-2.44.45-3.67.66s-2.48.4-3.75.56a24.62,24.62,0,0,1-4,.22,11.89,11.89,0,0,1-1.2-.11l-.89-.13-1.8-.27-3.62-.49-1.3-.19.65-1.62-2.82-1-.75,2.23-3-.46c-2.42-.35-4.84-.71-7.25-1.13l-.8-.14-.47-.41L1125,249l-4.31-4c-1.44-1.31-2.84-2.68-4.25-4q-1.83-1.74-3.6-3.53c.27-.17.54-.36.81-.54l-1.4-.05.59.59q-5.08,3.45-10.2,6.85c-3.67,2.46-7.38,4.87-11.07,7.3l-.18-.24L1105.73,241l.2.09.14-.26-.06,0,6.89-5,.11-.09.1.09,18,14.9H1131l.13.05-.05,0c4.83.64,9.67,1.26,14.49,2l3.63.56,1.82.28a14.25,14.25,0,0,0,1.79.25,47,47,0,0,0,7.27-.55c4.84-.65,9.66-1.52,14.47-2.44Q1181.08,249.56,1187.54,248.16Z"/><path d="M1144.52,253.87l-.65,1.62-2.92-.43.75-2.23Z"/><path d="M1143.87,255.49l-19,47.16L1141,255.06Z"/><path d="M1131.16,250.8l-.13-.05h.08Z"/><path d="M1113.67,236.93c-.27.18-.54.37-.81.54l-.59-.59Z"/><path d="M1107.31,297.51a16,16,0,0,1-.45,6l-.39,1.48c-.14.49-.32,1-.48,1.45-.31,1-.71,1.9-1.09,2.84a87.08,87.08,0,0,1-5.68,10.77,229.84,229.84,0,0,1-13.91,20c-9.92,12.84-20.59,25.06-31.44,37.1q-8.14,9-16.54,17.83c-5.59,5.87-11.19,11.71-16.89,17.48s-11.84,11.21-18.11,16.38c-3.14,2.58-6.24,5.2-9.47,7.67s-6.35,5.05-9.63,7.44c-13,9.75-26.31,19-39.77,28s-27.06,17.85-40.88,26.32S875,515,861.07,523.16L859,523l1.65.4c-6.95,4-13.91,8-20.92,11.83s-14.19,7.81-21.31,11.66c14-8.22,27.92-16.41,41.72-24.88s27.61-16.89,41.22-25.66q5.13-3.24,10.2-6.58l10.18-6.59c6.75-4.46,13.52-8.89,20.19-13.46,13.38-9.09,26.63-18.37,39.5-28.15,3.27-2.37,6.41-4.9,9.62-7.36s6.32-5,9.45-7.57q9.38-7.63,18-16.09c11.41-11.45,22.58-23.17,33.67-34.95s21.87-23.85,32-36.45a229.65,229.65,0,0,0,14.38-19.49,85.86,85.86,0,0,0,5.94-10.53c.41-.92.85-1.83,1.19-2.78.18-.47.37-.94.53-1.42l.44-1.44A15.94,15.94,0,0,0,1107.31,297.51Z"/><path class="cls-2" d="M1107.31,297.51a15.94,15.94,0,0,1-.67,6l-.44,1.44c-.16.48-.35.95-.53,1.42-.34.95-.78,1.86-1.19,2.78a85.86,85.86,0,0,1-5.94,10.53,229.65,229.65,0,0,1-14.38,19.49c-10.12,12.6-21,24.63-32,36.45s-22.26,23.5-33.67,34.95q-8.62,8.43-18,16.09c-3.13,2.55-6.23,5.14-9.45,7.57s-6.35,5-9.62,7.36c-12.87,9.78-26.12,19.06-39.5,28.15-6.67,4.57-13.44,9-20.19,13.46l-10.18,6.59q-5.07,3.33-10.2,6.58c-13.61,8.77-27.4,17.24-41.22,25.66s-27.77,16.66-41.72,24.88l-28.95,14.77Q775,569,760.4,576.12c-9.75,4.7-19.5,9.38-29.42,13.65-5,2.14-9.91,4.27-15,6.13a109.82,109.82,0,0,1-15.2,4.75c-10.86.3-21.74.56-32.61.63-2.73,0-5.46,0-8.19,0s-5.45-.07-8.17-.21a39.3,39.3,0,0,1-8-1.09,12.73,12.73,0,0,1-3.7-1.55,3.28,3.28,0,0,1-1.28-1.48,2,2,0,0,1-.12-1.19c2.94-.57,5.86-1.2,8.76-1.92,3.83-.93,7.66-1.89,11.44-3s7.58-2.19,11.33-3.39c7.5-2.39,15-5,22.25-8-7.65,1.88-15.26,3.86-22.87,5.8s-15.21,3.87-22.83,5.64a231.36,231.36,0,0,1-23,4.39c-1.92.21-3.84.4-5.74.44a16.91,16.91,0,0,1-5.45-.61,2.85,2.85,0,0,1-1.73-1.27c0-.11-.14-.38-.22-.59s-.16-.44-.23-.67c-.14-.45-.27-.9-.39-1.37a19.61,19.61,0,0,1-.59-4.68q9.59-2.46,19.14-5.06l13.3-3.72c4.42-1.29,8.85-2.53,13.26-3.88,8.82-2.64,17.61-5.39,26.33-8.42-9,1.83-18,3.94-27,6.16-4.48,1.08-8.93,2.27-13.39,3.4l-13.34,3.57c-8.88,2.46-17.74,5-26.56,7.61l-13.17,4a15.54,15.54,0,0,1-6.62.26,9.58,9.58,0,0,1-3.18-1,2.54,2.54,0,0,1-1.14-1.13,2.17,2.17,0,0,1,0-1.64,22.43,22.43,0,0,1,4.55-5.31c1.72-1.58,3.54-3.05,5.4-4.48,3.7-2.84,7.51-5.52,11.4-8.11h0c8.72-3.93,17.57-7.65,26.45-11.22,4.46-1.77,8.94-3.53,13.46-5.13s9-3.21,13.62-4.61,9.16-2.55,13.91-3.82a141.93,141.93,0,0,0,13.76-4.83A117.46,117.46,0,0,0,705,525a2.68,2.68,0,0,0,1.6-1,5.22,5.22,0,0,0,.83-1.75l.21-.95c0-.31.06-.63.08-1a12.3,12.3,0,0,0,0-1.92,17.07,17.07,0,0,0-.21-1.89l-.15-.94-.21-.92-.44-1.84-.54-1.8c-.35-1.21-.82-2.37-1.26-3.54s-.91-2.32-1.41-3.47c-1-2.3-2.14-4.5-3.22-6.74l-.19-.4-.48-.23c-3.51-1.64-7-3.59-10.35-5.53-1.69-1-3.36-2-5-3.09s-3.25-2.17-4.79-3.35a34.8,34.8,0,0,1-8.12-8.08,10.68,10.68,0,0,1-1.85-5.22,6.77,6.77,0,0,1,.33-2.79,3.24,3.24,0,0,1,1.91-2,6.89,6.89,0,0,1,3.8.53,20.33,20.33,0,0,1,3.47,1.71,53.89,53.89,0,0,1,6.34,4.5c1,.82,2,1.64,3,2.5a18.33,18.33,0,0,0,1.58,1.31,11.71,11.71,0,0,0,1.85,1.07,30.89,30.89,0,0,0,3.87,1.3c1.27.36,2.55.71,3.83,1a147.22,147.22,0,0,0,31.41,3.9l4,0c1.28,0,2.53,0,3.8.15a48.24,48.24,0,0,1,7.54,1.17A66.23,66.23,0,0,1,760.61,491a97.43,97.43,0,0,1,13.3,8A110.15,110.15,0,0,1,786,509c0,.25.32.3.52.28a2.79,2.79,0,0,0,.65-.14,8.56,8.56,0,0,0,1.19-.55c.78-.41,1.51-.89,2.24-1.37,1.45-1,2.84-2,4.22-3.11,2.72-2.2,5.42-4.38,8-6.81,5.12-4.84,9.76-10,14.49-15.15,9-10.62,17.79-21.43,26.52-32.27s17.35-21.77,25.9-32.75,17-22,25.25-33.27c2.08-2.79,4.11-5.63,6.12-8.48s4-5.77,5.92-8.68c.89-1.54,1.87-3.12,2.68-4.63s1.64-3,2.53-4.42a87.89,87.89,0,0,1,6-8.33c2.15-2.67,4.43-5.24,6.8-7.74s4.85-4.88,7.4-7.2a179.88,179.88,0,0,1,16.12-13,245.5,245.5,0,0,1,35.67-21.06q9.18-4.86,18.66-9.19c3.17-1.41,6.34-2.84,9.55-4.17s6.42-2.67,9.64-4a328.16,328.16,0,0,0-39.18,14.65A252,252,0,0,0,946.73,319c-2,1.41-3.89,2.84-5.8,4.32l-34-21.77,0-.15-.19,0-14.45-9.25q3.5-9.3,7.19-18.48c2.1-5.07,4.16-10.14,6.43-15.12s4.52-9.95,7-14.78,5.06-9.64,7.9-14.25a124.09,124.09,0,0,1,9.24-13.3c1.68-2.09,3.49-4.08,5.36-6a52.34,52.34,0,0,1,6-5.3,35.48,35.48,0,0,1,13.89-6.63l.2.2,0,0,.05,0q18.61,13.08,37.49,25.77,9.4,6.38,18.92,12.62l9.49,6.26,9.54,6.19q9.53,6.19,19.16,12.25l9.63,6,9.7,6c6.49,3.93,13,7.82,19.63,11.53,1.64.95,3.33,1.83,5,2.72l2.52,1.34,1.25.67,1.3.61,2.59,1.2c.86.44,1.74.73,2.52,1.22A6.57,6.57,0,0,1,1107.31,297.51Z"/><path d="M1106.07,240.87l-.14.26-.2-.09.28-.2Z"/><path d="M940.93,323.31c1.91-1.48,3.84-2.91,5.8-4.32a252,252,0,0,1,36.09-21.34A328.16,328.16,0,0,1,1022,283c-3.22,1.33-6.45,2.6-9.64,4s-6.38,2.76-9.55,4.17q-9.48,4.32-18.66,9.19a245.5,245.5,0,0,0-35.67,21.06,179.88,179.88,0,0,0-16.12,13q-3.83,3.48-7.4,7.2c-2.37,2.5-4.65,5.07-6.8,7.74a87.89,87.89,0,0,0-6,8.33c-.89,1.45-1.77,2.91-2.53,4.42s-1.79,3.09-2.68,4.63c-2,2.91-3.87,5.86-5.92,8.68s-4,5.69-6.12,8.48c-8.25,11.23-16.7,22.29-25.25,33.27s-17.17,21.92-25.9,32.75-17.51,21.65-26.52,32.27c-4.73,5.13-9.37,10.31-14.49,15.15-2.54,2.43-5.24,4.61-8,6.81-1.38,1.08-2.77,2.13-4.22,3.11-.73.48-1.46,1-2.24,1.37a8.56,8.56,0,0,1-1.19.55,2.79,2.79,0,0,1-.65.14c-.2,0-.5,0-.52-.28,0,.24.32.26.52.23a2.69,2.69,0,0,0,.61-.19,8.23,8.23,0,0,0,1.12-.63c.73-.47,1.42-1,2.1-1.54,1.35-1.08,2.65-2.23,3.92-3.41,2.53-2.35,5.09-4.73,7.41-7.28,4.67-5.06,9-10.56,13.3-16,9-10.59,17.75-21.38,26.47-32.21s17.33-21.74,25.87-32.71,17-22,25.2-33.2c2.08-2.79,4.09-5.61,6.09-8.44s3.92-5.7,5.84-8.56c.84-1.47,1.71-2.84,2.54-4.4s1.73-3.12,2.66-4.63a89.33,89.33,0,0,1,6.17-8.62c2.21-2.74,4.55-5.38,7-7.93s5-5,7.55-7.35Q935.46,327.51,940.93,323.31Z"/><path d="M892.25,292.16q-2.07,5.46-4.08,11l-.35,0-.11-.07c2.7-10.22,5.92-20.3,9.52-30.23a280.49,280.49,0,0,1,13-30.45c5-9.82,10.79-19.36,18-27.74a63.2,63.2,0,0,1,12.3-11.08A34.19,34.19,0,0,1,955,198l.35.34a35.48,35.48,0,0,0-13.89,6.63,52.34,52.34,0,0,0-6,5.3c-1.87,1.92-3.68,3.91-5.36,6a124.09,124.09,0,0,0-9.24,13.3c-2.84,4.61-5.47,9.38-7.9,14.25s-4.81,9.79-7,14.78-4.33,10.05-6.43,15.12Q895.74,282.86,892.25,292.16Z"/><path d="M945.5,524.5c-.85.21-1.71.4-2.56.59l.34-.44Z"/><path d="M944.07,186.59l.55.84-.14.09-.72-.71Z"/><path d="M943.76,186.81l.72.71a138.05,138.05,0,0,0-12.54,9.28,68.16,68.16,0,0,0-5.77,5.37,25.87,25.87,0,0,0-4.67,6.33A25.67,25.67,0,0,1,926,202a69,69,0,0,1,5.63-5.58A134.07,134.07,0,0,1,943.76,186.81Z"/><path d="M943.28,524.65l-.34.44a139.38,139.38,0,0,1-19,2.81,201,201,0,0,1-21.81.56c-1.82,0-3.63-.15-5.45-.23s-3.63-.16-5.44-.33c-3.62-.29-7.24-.61-10.84-1.06a179.15,179.15,0,0,1-19.79-3.44l.23-.13.19-.11q9.81.74,19.58,1.35c3.6.18,7.2.44,10.8.56,1.8.09,3.6.18,5.4.24s3.6.15,5.4.16l5.4.14,5.4,0c1.8.05,3.6,0,5.4,0l2.7,0q1.35,0,2.7,0C930.32,525.45,936.78,525.06,943.28,524.65Z"/><path class="cls-3" d="M906.91,301.54l34,21.77q-5.46,4.21-10.59,8.85c-2.6,2.36-5.11,4.82-7.55,7.35s-4.76,5.19-7,7.93a89.33,89.33,0,0,0-6.17,8.62c-.93,1.51-1.85,3-2.66,4.63s-1.7,2.93-2.54,4.4c-1.92,2.86-3.79,5.75-5.84,8.56s-4,5.65-6.09,8.44c-8.22,11.18-16.66,22.23-25.2,33.2S850.17,437.18,841.45,448,824,469.62,815,480.21c-4.34,5.41-8.63,10.91-13.3,16-2.32,2.55-4.88,4.93-7.41,7.28-1.27,1.18-2.57,2.33-3.92,3.41-.68.54-1.37,1.07-2.1,1.54a8.23,8.23,0,0,1-1.12.63,2.69,2.69,0,0,1-.61.19c-.2,0-.48,0-.52-.23a83.4,83.4,0,0,0-11.2-11.11c-.85-.7-1.7-1.38-2.58-2a34.75,34.75,0,0,0-2.26-4.37c-.54-.91-1.09-1.83-1.68-2.72l-1.88-2.6a54.63,54.63,0,0,0-9-9.22c-.81-.72-1.69-1.35-2.56-2s-1.75-1.28-2.68-1.83l-2.76-1.71-2.85-1.55a81.81,81.81,0,0,0-12-4.89A99,99,0,0,0,722,462.11,95.91,95.91,0,0,0,709.25,461a89.49,89.49,0,0,0-24.75,2.7c.26-1.4.53-2.79.84-4.17q1.15-5.64,2.67-11.2c1-3.7,2.15-7.36,3.36-11s2.57-7.22,4-10.77c2.91-7.08,6-14.09,9.56-20.86A187.52,187.52,0,0,1,716,387.08c11,1.1,22.07,2.1,33.16,2.53,11.48.49,23,.62,34.51.15,5.75-.21,11.52-.62,17.27-1.22s11.5-1.44,17.21-2.6A92.32,92.32,0,0,0,835,381a52,52,0,0,0,8.06-4.06,34.81,34.81,0,0,0,3.77-2.75c.6-.53,1.2-1.09,1.77-1.7.28-.33.56-.63.83-1a6.23,6.23,0,0,0,.41-.56,3.16,3.16,0,0,0,.21-.33,4.38,4.38,0,0,0,.26-.46l.29-.58,0-.66c-.47-7.64-2.45-14.8-4.73-21.76s-5.09-13.72-8.06-20.35-6.12-13.18-9.51-19.59-6.89-12.75-10.5-19-7.3-12.5-11.06-18.67-7.59-12.31-11.57-18.34c-6.7-10.19-13.47-20.33-20.57-30.25l.34.31c17.61,15.38,35.63,30.29,54.21,44.5q13.92,10.67,28.43,20.54a343.7,343.7,0,0,0,29.85,18.41l.06,0h.06l19.4-3Z"/><path d="M906.91,301.54l0,.15-19.4,3h-.06l-.06,0a343.7,343.7,0,0,1-29.85-18.41q-14.49-9.87-28.43-20.54c-18.58-14.21-36.6-29.12-54.21-44.5l.2-.23c4.74,3.46,9.33,7.07,14,10.57,2.35,1.73,4.63,3.55,6.94,5.34l6.95,5.33,27.86,21.16c2.32,1.77,4.67,3.48,7,5.21s4.65,3.5,7,5.22,4.69,3.45,7.07,5.12,4.69,3.45,7.09,5.1l14.33,10,7.29,4.79c2.33,1.44,4.7,2.82,7,4.33a.19.19,0,0,0,0,.08l-.39,0,.37.06c-.11.39-.22.79-.32,1.18l.3.08c.15-.4.29-.8.44-1.19h0l0,0a1.19,1.19,0,0,1,.08-.2l8.92-.88c3.2-.34,6.4-.6,9.61-.85Z"/><path d="M906.89,301.39l0,.15-.21-.13Z"/><path class="cls-8" d="M892.25,292.16l14.45,9.25c-3.21.25-6.41.51-9.61.85l-8.92.88Q890.18,297.62,892.25,292.16Z"/><path d="M888.17,303.14a1.19,1.19,0,0,0-.08.2l-.27-.17Z"/><path d="M888.12,303.36h0Z"/><path d="M888.09,303.34h0l-.42-.07a.3.3,0,0,1,0-.1h.13Z"/><path d="M888.09,303.35c-.15.39-.29.79-.44,1.19l-.3-.08c.1-.39.21-.79.32-1.18Z"/><path d="M887.71,303.1l.11.07h-.13A.19.19,0,0,1,887.71,303.1Z"/><path d="M887.69,303.18a.3.3,0,0,0,0,.1l-.37-.06Z"/><path d="M861.07,523.16l-.19.11-.23.13L859,523Z"/><path d="M850.58,368.88l0,.66-.29.58a4.38,4.38,0,0,1-.26.46,3.16,3.16,0,0,1-.21.33,6.23,6.23,0,0,1-.41.56c-.27.37-.55.67-.83,1-.57.61-1.17,1.17-1.77,1.7a34.81,34.81,0,0,1-3.77,2.75A52,52,0,0,1,835,381a92.32,92.32,0,0,1-16.89,5c-5.71,1.16-11.46,2-17.21,2.6s-11.52,1-17.27,1.22c-11.52.47-23,.34-34.51-.15-11.09-.43-22.13-1.43-33.16-2.53.18-.25.34-.51.5-.75h0l.34.23,1-1.54c18.25,1.55,36.58,2.57,54.89,2.29,3.61-.05,7.21-.15,10.82-.31q8.57-.36,17.08-1.3a169.54,169.54,0,0,0,16.92-2.65,97.17,97.17,0,0,0,16.39-4.81,49.62,49.62,0,0,0,7.62-3.79A29.17,29.17,0,0,0,845,372a13.28,13.28,0,0,0,2.74-3s0,0,0,.07l0-.13a.08.08,0,0,1,0,0c-.41-7.15-2.27-14.14-4.48-20.95s-4.93-13.54-7.85-20.14c-5.1-11.54-10.84-22.8-16.88-33.89q-1.29-2.37-2.6-4.74c-7-12.62-14.37-25-22-37.29q-10.38-16.74-21.36-33.09a21.9,21.9,0,0,0,2,2.08c7.1,9.92,13.87,20.06,20.57,30.25,4,6,7.79,12.17,11.57,18.34s7.46,12.39,11.06,18.67,7.12,12.61,10.5,19,6.53,13,9.51,19.59,5.73,13.39,8.06,20.35S850.11,361.24,850.58,368.88Z"/><path d="M847.75,368.88l0,.13s0,0,0-.07h0A.08.08,0,0,0,847.75,368.88Z"/><path class="cls-2" d="M847.71,368.92h0a13.28,13.28,0,0,1-2.74,3,29.17,29.17,0,0,1-3.44,2.48,49.62,49.62,0,0,1-7.62,3.79,97.17,97.17,0,0,1-16.39,4.81,169.54,169.54,0,0,1-16.92,2.65q-8.51.93-17.08,1.3c-3.61.16-7.21.26-10.82.31l-.2-11.81A103.11,103.11,0,0,1,783,367.34,64.07,64.07,0,0,1,794.56,361c1-.4,2-.76,3.07-1.08s2.07-.58,3.17-.79c2.17-.47,4.37-.92,6.55-1.51a24.56,24.56,0,0,0,6.43-2.52,12.46,12.46,0,0,0,4.94-5.13c.25-.55.49-1.1.72-1.66l.44-1.72a10.39,10.39,0,0,0,.28-1.73,17.31,17.31,0,0,0,.16-1.74,37.82,37.82,0,0,0-.42-6.83c-.2-1.11-.37-2.24-.58-3.34l-.69-3.27c-.46-2.19-1-4.36-1.48-6.53a229.93,229.93,0,0,0-7.65-25.62l9-3.56c6,11.09,11.78,22.35,16.88,33.89,2.92,6.6,5.6,13.3,7.85,20.14S847.3,361.77,847.71,368.92Z"/><path d="M834,771c-.19.44-.38.87-.58,1.31h0Z"/><path d="M833.4,772.3h0c-.29.68-.6,1.36-.92,2l-.07,0C832.76,773.64,833.08,773,833.4,772.3Z"/><path d="M819.9,336.26a37.82,37.82,0,0,1,.42,6.83,17.31,17.31,0,0,1-.16,1.74,10.39,10.39,0,0,1-.28,1.73l-.44,1.72c-.23.56-.47,1.11-.72,1.66a12.46,12.46,0,0,1-4.94,5.13,24.56,24.56,0,0,1-6.43,2.52c-2.18.59-4.38,1-6.55,1.51-1.1.21-2.12.52-3.17.79s-2.06.68-3.07,1.08A64.07,64.07,0,0,0,783,367.34a103.11,103.11,0,0,0-10.52,8.16,86.31,86.31,0,0,1,10-8.95,59.56,59.56,0,0,1,11.5-7q1.56-.67,3.18-1.23c1.1-.33,2.21-.67,3.29-.9,2.17-.52,4.33-1,6.43-1.62a24.23,24.23,0,0,0,5.93-2.39,10.55,10.55,0,0,0,4.16-4.35,15.45,15.45,0,0,0,1.43-6.05,38.06,38.06,0,0,0-.35-6.47c-.17-1.09-.3-2.17-.5-3.25l-.6-3.28-1.3-6.53c-1.82-8.69-3.78-17.37-6.12-26a229.93,229.93,0,0,1,7.65,25.62c.53,2.17,1,4.34,1.48,6.53l.69,3.27C819.53,334,819.7,335.15,819.9,336.26Z"/><path class="cls-2" d="M815.9,289.2q1.3,2.37,2.6,4.74l-9,3.56c2.34,8.59,4.3,17.27,6.12,26l1.3,6.53.6,3.28c.2,1.08.33,2.16.5,3.25a38.06,38.06,0,0,1,.35,6.47,15.45,15.45,0,0,1-1.43,6.05,10.55,10.55,0,0,1-4.16,4.35,24.23,24.23,0,0,1-5.93,2.39c-2.1.6-4.26,1.1-6.43,1.62-1.08.23-2.19.57-3.29.9s-2.14.78-3.18,1.23a59.56,59.56,0,0,0-11.5,7,86.31,86.31,0,0,0-10,8.95l-5-5c-.65-.91-1.28-1.84-2-2.74s-1.38-1.77-2.16-2.59a39.47,39.47,0,0,0-4.93-4.65,33.94,33.94,0,0,0-5.78-3.65,25.11,25.11,0,0,0-5-1.89,43.51,43.51,0,0,0,7.47-14.62,60.75,60.75,0,0,0,2.28-12.94c.19-2.18.17-4.37.19-6.56,0-1.09-.09-2.18-.14-3.27L757.4,316l-.16-1.63A125.44,125.44,0,0,0,752,288.78a203.16,203.16,0,0,0-9.44-24.25c-.87-2-1.83-3.93-2.79-5.88s-1.87-3.9-2.91-5.81l-3-5.76-3.18-5.68-.79-1.43a13.67,13.67,0,0,0-.87-1.43c-.63-.9-1.27-1.78-1.94-2.64-1.32-1.73-2.69-3.43-4.11-5.08a129.38,129.38,0,0,0-9-9.47q-2.78-2.64-5.71-5.09A79.11,79.11,0,0,1,719.16,221a118.61,118.61,0,0,1,12.28,7.31c3.94,2.68,7.83,5.45,11.54,8.44s7.42,6,11,9.2c7.16,6.31,14,13,20.67,19.85q5,5.16,9.83,10.46c3.26,3.51,6.42,7.11,9.55,10.74-4.88-6.71-10.13-13.15-15.65-19.36-.84-5.07-1.76-10.12-2.73-15.16l-3.1-16c-.52-2.65-1-5.31-1.54-8l-.76-4q-.35-2-.72-4c-.44-2.67-.94-5.33-1.29-8-.13-.77-.23-1.55-.32-2.32a23.13,23.13,0,0,0,4.68,8.56q11,16.32,21.36,33.09C801.53,264.17,808.9,276.58,815.9,289.2Z"/><path d="M706.69,602c-1.78.5-3.59.94-5.44,1.29l-.11,0H701c-5.48.07-10.95.1-16.42,0s-11-.12-16.42-.32-11-.42-16.42-1a40.17,40.17,0,0,1-8.12-1.56,11.87,11.87,0,0,1-3.71-1.86,3.65,3.65,0,0,1-1-1.06,3.37,3.37,0,0,1-.28-.61,2,2,0,0,1,0-1.22l.06,0a2,2,0,0,0,.12,1.19,3.28,3.28,0,0,0,1.28,1.48,12.73,12.73,0,0,0,3.7,1.55,39.3,39.3,0,0,0,8,1.09c2.72.14,5.45.18,8.17.21s5.46,0,8.19,0c10.87-.07,21.75-.33,32.61-.63l-.07,0,.22,0h-.15A109.82,109.82,0,0,0,716,595.9c5.05-1.86,10-4,15-6.13,9.92-4.27,19.67-8.95,29.42-13.65s19.4-9.57,29.07-14.46l28.95-14.77q-6.95,4.22-14,8.29c-4.67,2.75-9.39,5.42-14.12,8.07q-14.22,7.9-28.72,15.29c-1.3.67-2.61,1.33-3.92,2q-9.13,4.56-18.44,8.82c-2.34,1.08-4.69,2.13-7.05,3.17-5,2.13-10,4.24-15.15,6.11C713.63,599.87,710.21,601.07,706.69,602Z"/><path d="M794,287c-3.13-3.63-6.29-7.23-9.55-10.74s-6.51-7-9.83-10.46C768,258.94,761.11,252.26,754,246c-3.55-3.19-7.23-6.23-11-9.2s-7.6-5.76-11.54-8.44A118.61,118.61,0,0,0,719.16,221a79.11,79.11,0,0,0-10.93-4.74,2.34,2.34,0,0,0-.35-.29,86.78,86.78,0,0,1,24.41,11,178.06,178.06,0,0,1,23,17.45c3.58,3.21,7.1,6.49,10.51,9.87s6.74,6.86,10,10.42c.81.89,1.62,1.79,2.42,2.69l.33,1.07-.15-.86C783.87,273.85,789.12,280.29,794,287Z"/><path d="M778.35,267.64l.15.86-.33-1.07Z"/><path d="M774.8,497.89A83.4,83.4,0,0,1,786,509a110.15,110.15,0,0,0-12.09-9.95,97.43,97.43,0,0,0-13.3-8,66.23,66.23,0,0,0-14.44-5.23,48.24,48.24,0,0,0-7.54-1.17c-1.27-.13-2.52-.11-3.8-.15l-4,0a147.22,147.22,0,0,1-31.41-3.9c-1.28-.31-2.56-.66-3.83-1a30.89,30.89,0,0,1-3.87-1.3,11.71,11.71,0,0,1-1.85-1.07,18.33,18.33,0,0,1-1.58-1.31c-1-.86-2-1.68-3-2.5a53.89,53.89,0,0,0-6.34-4.5,20.33,20.33,0,0,0-3.47-1.71,6.89,6.89,0,0,0-3.8-.53,7,7,0,0,1,3.93.1,21.17,21.17,0,0,1,3.73,1.4,39.55,39.55,0,0,1,3.73,2c0,.24-.06.49-.09.73l.29,0,.09-.59c1,.59,1.88,1.21,2.81,1.84s2.15,1.54,3.2,2.35a16.51,16.51,0,0,0,1.51,1.11,10.39,10.39,0,0,0,1.6.8c1.06.4,2.41.68,3.64,1s2.52.58,3.8.83c5.09,1,10.22,1.78,15.4,2.27s10.35.84,15.55.93l3.9.06c1.33.05,2.7,0,4,.19a47.42,47.42,0,0,1,8,1.33A63.78,63.78,0,0,1,761.69,489a80.36,80.36,0,0,1,9.45,6.07l1.44,2.27.25-.15c-.21-.43-.41-.86-.61-1.3C773.1,496.51,774,497.19,774.8,497.89Z"/><path d="M772.83,497.15l-.25.15L771.14,495l1.08.82C772.42,496.29,772.62,496.72,772.83,497.15Z"/><path class="cls-2" d="M772.5,375.5l.2,11.81c-18.31.28-36.64-.74-54.89-2.29,2.06-3.23,4.19-6.43,6.38-9.57,1.28-1.82,2.59-3.62,3.94-5.38,1-1.19,1.9-2.39,3-3.49l.53-.18a31.91,31.91,0,0,0,8.88-4.51,35.24,35.24,0,0,0,5.76-5.21,22.76,22.76,0,0,1,5.82,1.56,33,33,0,0,1,5.8,3.09,38.89,38.89,0,0,1,5.16,4.19c.83.74,1.54,1.6,2.32,2.4s1.43,1.72,2.15,2.58Z"/><path d="M772.22,495.85l-1.08-.82-.24-.37-.84-1.32-.93-1.26c-.62-.83-1.23-1.68-1.87-2.5l-2-2.37a60.14,60.14,0,0,0-9.23-8.38,74.13,74.13,0,0,0-22.32-11,107.74,107.74,0,0,0-24.56-4.44,123.17,123.17,0,0,0-24.66.72l.06-.38a89.49,89.49,0,0,1,24.75-2.7A95.91,95.91,0,0,1,722,462.11,99,99,0,0,1,734.55,465a81.81,81.81,0,0,1,12,4.89l2.85,1.55,2.76,1.71c.93.55,1.8,1.21,2.68,1.83s1.75,1.27,2.56,2a54.63,54.63,0,0,1,9,9.22l1.88,2.6c.59.89,1.14,1.81,1.68,2.72A34.75,34.75,0,0,1,772.22,495.85Z"/><path class="cls-2" d="M770.9,494.66l.24.37a80.36,80.36,0,0,0-9.45-6.07A63.78,63.78,0,0,0,746.83,483a47.42,47.42,0,0,0-8-1.33c-1.34-.15-2.71-.14-4-.19l-3.9-.06c-5.2-.09-10.39-.41-15.55-.93s-10.31-1.27-15.4-2.27c-1.28-.25-2.54-.53-3.8-.83s-2.58-.6-3.64-1a10.39,10.39,0,0,1-1.6-.8,16.51,16.51,0,0,1-1.51-1.11c-1-.81-2.12-1.59-3.2-2.35s-1.86-1.25-2.81-1.84c.31-2.08.64-4.16,1-6.22a123.17,123.17,0,0,1,24.66-.72,107.74,107.74,0,0,1,24.56,4.44,74.13,74.13,0,0,1,22.32,11,60.14,60.14,0,0,1,9.23,8.38l2,2.37c.64.82,1.25,1.67,1.87,2.5l.93,1.26Z"/><path d="M765.55,367.76c.67.9,1.3,1.83,2,2.74-.72-.86-1.41-1.74-2.15-2.58s-1.49-1.66-2.32-2.4a38.89,38.89,0,0,0-5.16-4.19,33,33,0,0,0-5.8-3.09,22.76,22.76,0,0,0-5.82-1.56c.49-.55,1-1.12,1.42-1.7a25.11,25.11,0,0,1,5,1.89,33.94,33.94,0,0,1,5.78,3.65,39.47,39.47,0,0,1,4.93,4.65C764.17,366,764.83,366.9,765.55,367.76Z"/><path d="M750.36,180.13c5.75,5.79,11.41,11.67,16.71,17.87q-17.8-16.74-36.56-32.29c-6.28-5.15-12.59-10.24-19.08-15.11s-13-9.64-19.77-14.11-13.59-8.77-20.67-12.64a174.6,174.6,0,0,0-21.84-10.3,97.3,97.3,0,0,0-23.28-6,52.85,52.85,0,0,0-22.67,2,1.06,1.06,0,0,0-.19-.06c7.11-3.25,15.16-4.3,23-3.91a90.84,90.84,0,0,1,24.18,5c15.61,5.36,30,13.52,43.67,22.55q10.18,6.87,19.86,14.44c6.41,5.08,12.72,10.28,18.79,15.74S744.57,174.38,750.36,180.13Z"/><path d="M746,354.65c.56.09,1.1.2,1.63.33-.45.58-.93,1.15-1.42,1.7l-.36,0Z"/><path d="M743.59,212.38l-.18.24c-13.93-11.16-28.1-22-42.74-32.24a402.88,402.88,0,0,0-45.53-28,192,192,0,0,0-24.44-10.79c-8.4-2.91-17.13-5.2-26-5.37a46.15,46.15,0,0,0-6.65.32,38.7,38.7,0,0,0-6.48,1.46,27,27,0,0,0-11.13,7,30.77,30.77,0,0,0-6.64,11.41,41.16,41.16,0,0,0-2.11,13.1l-.3,0a39.19,39.19,0,0,1,1.46-13.43,32.17,32.17,0,0,1,6.44-12.19,28.56,28.56,0,0,1,11.65-7.8,41.65,41.65,0,0,1,6.83-1.72,49.45,49.45,0,0,1,7-.53,61.61,61.61,0,0,1,6.93.34c1.14.11,2.28.31,3.42.47s2.25.41,3.38.62a116.39,116.39,0,0,1,13.2,3.61,189.54,189.54,0,0,1,24.88,10.79,348.88,348.88,0,0,1,45.5,28.8q10.82,8,21.25,16.41l5.16,4.3,5.1,4.35C737,206.39,740.27,209.4,743.59,212.38Z"/><path class="cls-5" d="M739.23,589.35l-3.72,11.44A10,10,0,0,1,723,607l-16.31-5c3.52-1,6.94-2.17,10.34-3.41,5.13-1.87,10.14-4,15.15-6.11C734.54,591.48,736.89,590.43,739.23,589.35Z"/><path d="M732.6,365.13a20.82,20.82,0,0,0-1.52,1.45l-.37.13A22,22,0,0,1,732.6,365.13Z"/><path d="M730.71,366.71l.37-.13c-1.05,1.1-2,2.3-3,3.49-1.35,1.76-2.66,3.56-3.94,5.38-2.19,3.14-4.32,6.34-6.38,9.57l-2.19-.19c2.53-3.39,5.11-6.72,7.77-10,1.42-1.72,2.87-3.43,4.36-5.09C728.71,368.71,729.68,367.67,730.71,366.71Z"/><path class="cls-4" d="M728.63,367.5c.69-.29,1.38-.54,2.08-.79-1,1-2,2-3,3-1.49,1.66-2.94,3.37-4.36,5.09-2.66,3.27-5.24,6.6-7.77,10l-.6-.05h-.13l-.07.1a185.41,185.41,0,0,0-11.56,20A220,220,0,0,0,694,426.07q-2,5.42-3.76,10.93c-1.13,3.69-2.2,7.39-3.12,11.14a172.63,172.63,0,0,0-4,22,39.55,39.55,0,0,0-3.73-2,21.17,21.17,0,0,0-3.73-1.4,7,7,0,0,0-3.93-.1,3.43,3.43,0,0,0-2.4,1.79,7.53,7.53,0,0,0-.84,3,11.46,11.46,0,0,0,1.37,6.08,23.39,23.39,0,0,0,3.57,5,41.61,41.61,0,0,0,4,3.87l-92.62-32.57.69-2c4.3-1.07,8.61-2.18,12.87-3.47l6.32-2.16,3.15-1.1c1-.39,2.06-.84,3.1-1.26,2.06-.85,4.12-1.7,6.16-2.59s4-1.92,6-2.87c4.05-1.9,7.88-4.21,11.77-6.39,1.91-1.17,3.76-2.42,5.64-3.62s3.71-2.49,5.51-3.82l2.7-2c.9-.67,1.75-1.39,2.62-2.09,1.74-1.4,3.49-2.78,5.12-4.32s3.34-3,4.89-4.58l2.36-2.37,2.26-2.47a74,74,0,0,0,8.06-10.63L673.6,395c6.92-3.11,13.69-6.5,20.42-10,7.69-3.95,15.28-8.11,23-12C720.82,371,724.67,369.09,728.63,367.5Z"/><path d="M717.81,385l-1,1.54-.34-.23.12-.19-.24.11-1.2-.81.45-.61Z"/><path d="M716.61,386.14l-.12.19h0l-.11-.08Z"/><path d="M716.37,386.25l.11.08c-.16.24-.32.5-.5.75l-1.16-.12Z"/><path d="M716.37,386.25l-1.55.71,1.16.12a187.52,187.52,0,0,0-11.06,18.65c-3.55,6.77-6.65,13.78-9.56,20.86-1.42,3.55-2.75,7.15-4,10.77s-2.36,7.3-3.36,11-1.9,7.44-2.67,11.2c-.31,1.38-.58,2.77-.84,4.17l-.44.12.05.3.33,0c-.38,2.06-.71,4.14-1,6.22l-.29-.18a172.63,172.63,0,0,1,4-22c.92-3.75,2-7.45,3.12-11.14s2.42-7.32,3.76-10.93a220,220,0,0,1,9.28-21.17,185.41,185.41,0,0,1,11.56-20l.07-.1H715l.6.05-.45.61Z"/><path d="M707.88,216a2.34,2.34,0,0,1,.35.29c-.72-.26-1.45-.5-2.18-.73C706.66,215.66,707.27,215.81,707.88,216Z"/><path d="M677.43,486.4a41.61,41.61,0,0,1-4-3.87,23.39,23.39,0,0,1-3.57-5,11.46,11.46,0,0,1-1.37-6.08,7.53,7.53,0,0,1,.84-3,3.43,3.43,0,0,1,2.4-1.79,3.24,3.24,0,0,0-1.91,2,6.77,6.77,0,0,0-.33,2.79,10.68,10.68,0,0,0,1.85,5.22,34.8,34.8,0,0,0,8.12,8.08q2.31,1.77,4.79,3.35c1.62,1.08,3.29,2.11,5,3.09,3.39,1.94,6.84,3.89,10.35,5.53l.48.23.19.4c1.08,2.24,2.24,4.44,3.22,6.74.5,1.15,1,2.29,1.41,3.47s.91,2.33,1.26,3.54l.54,1.8.44,1.84.21.92.15.94a17.07,17.07,0,0,1,.21,1.89,12.3,12.3,0,0,1,0,1.92c0,.32,0,.64-.08,1l-.21.95a5.22,5.22,0,0,1-.83,1.75,2.68,2.68,0,0,1-1.6,1,2.43,2.43,0,0,0,1.31-1.17,5.15,5.15,0,0,0,.48-1.68l.05-.88c0-.3,0-.59-.06-.89a13.46,13.46,0,0,0-.25-1.77,15.77,15.77,0,0,0-.43-1.74l-.24-.87-.3-.86-.59-1.71-.7-1.68c-.44-1.13-1-2.23-1.48-3.33s-1.06-2.19-1.62-3.27c-1-2-2.12-4-3.2-6l.44.2-.67-.63.23.43c-1.7-.78-3.34-1.6-5-2.46s-3.53-1.9-5.25-2.94-3.42-2.12-5.08-3.26-3.25-2.39-4.81-3.69C677.7,486.64,677.56,486.53,677.43,486.4Z"/><path class="cls-5" d="M706.84,521.27l-.05.88a5.15,5.15,0,0,1-.48,1.68A2.43,2.43,0,0,1,705,525a148.91,148.91,0,0,1-26,12.33c-4.5,1.65-9.08,3-13.69,4.25s-9.42,2.15-14.06,3.55S642,548,637.44,549.69s-9.05,3.46-13.53,5.28c-8.93,3.73-17.72,7.74-26.35,12.12l-.1,0-.05,0c-.52.39-1,.78-1.55,1.18l-66-20.07a14.84,14.84,0,0,1-8.58-19.14L545,466.61l3.43-9a16,16,0,0,1,20.24-9.4l16.11,5.66,92.62,32.57c.13.13.27.24.41.36,1.56,1.3,3.16,2.52,4.81,3.69s3.36,2.22,5.08,3.26,3.47,2,5.25,2.94,3.29,1.68,5,2.46c1.08,2,2.23,4,3.2,6,.56,1.08,1.13,2.16,1.62,3.27s1,2.2,1.48,3.33l.7,1.68.59,1.71.3.86.24.87a15.77,15.77,0,0,1,.43,1.74,13.46,13.46,0,0,1,.25,1.77C706.8,520.68,706.83,521,706.84,521.27Z"/><path d="M701,600.65l-.22,0,.07,0Z"/><path d="M698.41,499.31l-.44-.2-.23-.43Z"/><path d="M595.86,568.35c.51-.4,1-.79,1.55-1.18l.05,0,.1,0c8.63-4.38,17.42-8.39,26.35-12.12,4.48-1.82,9-3.63,13.53-5.28s9.16-3.17,13.81-4.56,9.47-2.42,14.06-3.55,9.19-2.6,13.69-4.25A148.91,148.91,0,0,0,705,525a117.46,117.46,0,0,1-25.25,14.25A141.93,141.93,0,0,1,666,544.08c-4.75,1.27-9.33,2.39-13.91,3.82s-9.12,2.94-13.62,4.61-9,3.36-13.46,5.13c-8.88,3.57-17.73,7.29-26.45,11.22h0l-.11.06.09,0c-3.89,2.59-7.7,5.27-11.4,8.11-1.86,1.43-3.68,2.9-5.4,4.48a22.43,22.43,0,0,0-4.55,5.31,21.31,21.31,0,0,1,4.07-5.78,68.06,68.06,0,0,1,5.11-4.94C589.4,573.33,592.61,570.81,595.86,568.35Z"/><path d="M684.06,463.85l.44-.12-.06.38-.33,0Z"/><path d="M683.42,470.33l-.09.59-.29,0c0-.24.05-.49.09-.73Z"/><path d="M675.68,192a5.28,5.28,0,0,1-.55,2.65,5.64,5.64,0,0,1-1.79,2,9.33,9.33,0,0,1-1.3.73h0c-1.13-.25-2.26-.47-3.4-.65l-.07,1.59v0l-.19,0-5.7-1,5.77-.6a9,9,0,0,0,4-1.36,3.7,3.7,0,0,0,1.7-3.32,9.26,9.26,0,0,0-1.37-4.06,24.85,24.85,0,0,0-2.62-3.73,29.77,29.77,0,0,0-6.74-6.14,63.07,63.07,0,0,0-8.35-4A62.94,62.94,0,0,1,639.3,163.7c-1.22-1-2.33-2.12-3.49-3.18s-2.27-2.17-3.36-3.29a68.76,68.76,0,0,0-6.8-6.35,29.75,29.75,0,0,0-17.08-6.22,22.54,22.54,0,0,0-16.74,6.55,18.14,18.14,0,0,0-4.48,8,20.22,20.22,0,0,0,0,9.22c1.42,6.1,5,11.46,9.19,16.08-4.23-4.56-7.92-9.87-9.44-16a20.5,20.5,0,0,1-.09-9.38,18.6,18.6,0,0,1,4.48-8.25,23.21,23.21,0,0,1,17.13-7,30.49,30.49,0,0,1,17.69,6.18,68.28,68.28,0,0,1,7,6.4c1.1,1.1,2.2,2.2,3.36,3.24s2.27,2.14,3.48,3.11a61.68,61.68,0,0,0,15.53,10.07,63.94,63.94,0,0,1,8.56,4,31,31,0,0,1,7.13,6.38,27.45,27.45,0,0,1,2.8,3.91A11,11,0,0,1,675.68,192Z"/><path class="cls-4" d="M673.6,395l.47,1.18a107.53,107.53,0,0,1-9.11,9.61L662.55,408l-2.49,2.17c-1.64,1.47-3.35,2.85-5.06,4.23a205.14,205.14,0,0,1-21.63,15c-3.81,2.19-7.57,4.48-11.52,6.43-2,1-3.86,2.11-5.86,3s-4,1.86-6,2.81c-1,.47-2,1-3,1.41l-3,1.27-6.1,2.61c-4.09,1.66-8.26,3.14-12.37,4.85l-.69,2-16.11-5.66a16,16,0,0,0-20.24,9.4l-3.43,9c-9-15.39-15-18.61-15-18.61-.39.13-.78.27-1.18.43l3.31-2.26c8.49-5.7,17.28-11,26.22-16s18.09-9.64,27.38-14q13.17-6.29,26.79-11.62,3.83.19,7.64.49l3.22.26c1.08.1,2.14.25,3.21.38l3.21.38a32.87,32.87,0,0,0,3.29.24,53.39,53.39,0,0,0,13-1.51,142.22,142.22,0,0,0,24.56-8.54Q672.12,395.64,673.6,395Z"/><path d="M668.63,196.71c1.14.18,2.27.4,3.4.65a11.16,11.16,0,0,1-3.47.94Z"/><path d="M674.07,396.14A74,74,0,0,1,666,406.77l-2.26,2.47-2.36,2.37c-1.55,1.62-3.23,3.08-4.89,4.58s-3.38,2.92-5.12,4.32c-.87.7-1.72,1.42-2.62,2.09l-2.7,2c-1.8,1.33-3.61,2.64-5.51,3.82s-3.73,2.45-5.64,3.62c-3.89,2.18-7.72,4.49-11.77,6.39-2,.95-4,2-6,2.87s-4.1,1.74-6.16,2.59c-1,.42-2.05.87-3.1,1.26l-3.15,1.1-6.32,2.16c-4.26,1.29-8.57,2.4-12.87,3.47,4.11-1.71,8.28-3.19,12.37-4.85l6.1-2.61,3-1.27c1-.44,2-.94,3-1.41,2-1,4-1.9,6-2.81s3.91-2,5.86-3c3.95-1.95,7.71-4.24,11.52-6.43a205.14,205.14,0,0,0,21.63-15c1.71-1.38,3.42-2.76,5.06-4.23l2.49-2.17,2.41-2.26A107.53,107.53,0,0,0,674.07,396.14Z"/><path d="M681.5,565.5c-8.72,3-17.51,5.78-26.33,8.42-4.41,1.35-8.84,2.59-13.26,3.88l-13.3,3.72q-9.55,2.58-19.14,5.06,0-.54,0-1.08a12.14,12.14,0,0,0-.36,1.17c-2.42.61-4.84,1.22-7.26,1.81-4.49,1.1-8.9,2.21-13.5,3.19a16.1,16.1,0,0,1-7.08-.35,10.25,10.25,0,0,1-3.26-1.41,2.87,2.87,0,0,1-1.1-1.42,2.33,2.33,0,0,1,.24-1.72,2.17,2.17,0,0,0,0,1.64,2.54,2.54,0,0,0,1.14,1.13,9.58,9.58,0,0,0,3.18,1,15.54,15.54,0,0,0,6.62-.26l13.17-4c8.82-2.66,17.68-5.15,26.56-7.61l13.34-3.57c4.46-1.13,8.91-2.32,13.39-3.4C663.49,569.44,672.45,567.33,681.5,565.5Z"/><path d="M643.29,183a51.42,51.42,0,0,1,6.21,6.49,65.68,65.68,0,0,0-6.81-5.72,31.37,31.37,0,0,0-3.7-2.33,12.33,12.33,0,0,0-4-1.34,3.93,3.93,0,0,0-1.83.2,2.94,2.94,0,0,0-.74.4c-.21.23-.36.33-.68.71a6.58,6.58,0,0,1-4.61,2.09,6,6,0,0,1-1.33-.12,7,7,0,0,1-1.22-.42l-2.06-.89c-1.38-.58-2.73-1.23-4.1-1.86a79,79,0,0,1-7.91-4.35,33.13,33.13,0,0,1-7.08-5.79,11.1,11.1,0,0,1-2.34-4.13,6.12,6.12,0,0,1-.16-2.45,5.78,5.78,0,0,1,.89-2.27,10,10,0,0,1,3.46-3,16.87,16.87,0,0,1,4.17-1.68,20.65,20.65,0,0,0-3.89,2.13,9.11,9.11,0,0,0-2.9,3.1,4.91,4.91,0,0,0-.6,1.9,5,5,0,0,0,.28,2,10.28,10.28,0,0,0,2.25,3.45,29.7,29.7,0,0,0,4,3.36c-.19.36-.36.73-.52,1.12l1.91.57q.09-.3.21-.63c.43.28.86.55,1.3.81a86.28,86.28,0,0,0,7.78,4.15c1.34.63,2.66,1.29,4,1.87l2,.9a4.72,4.72,0,0,0,.89.33,5.16,5.16,0,0,0,.89.1,4.74,4.74,0,0,0,3.35-1.41,11.62,11.62,0,0,1,.91-.86,4.19,4.19,0,0,1,1.23-.62,5.43,5.43,0,0,1,2.58-.16C638.51,179.18,641,181.1,643.29,183Z"/><path d="M612.53,113.16A170.22,170.22,0,0,1,656,140c-14-9.6-28.86-18-44.62-23.94q-5.91-2.22-12-4l-6.09-1.64c-2-.53-4.09-.9-6.14-1.36a141.13,141.13,0,0,0-50-1.28c-2.08.26-4.13.73-6.2,1.08s-4.1.89-6.15,1.35c-4.06,1.06-8.12,2.15-12.1,3.5a163.07,163.07,0,0,0-23.27,9.84A143.43,143.43,0,0,0,468,137a118,118,0,0,1,20.57-15.18c3.69-2.16,7.46-4.19,11.33-6s7.81-3.53,11.85-5a134.88,134.88,0,0,1,50.62-8.58A138.3,138.3,0,0,1,603,109.53l-1,.47,1.2-.41Q607.94,111.21,612.53,113.16Z"/><path d="M628.5,165.5l-2.87-.28c-1,0-1.91,0-2.86.05a18.12,18.12,0,0,0-5.48,1.23,13.64,13.64,0,0,0-4.52,3.08,12,12,0,0,0-2.51,3.88c-.54-.34-1.07-.7-1.6-1.06a13.33,13.33,0,0,1,3.07-3.9,14.83,14.83,0,0,1,5.21-2.94,19.28,19.28,0,0,1,5.82-.79c1,0,1.94.14,2.9.2Z"/><path d="M612.28,404.57h.24q-13.6,5.34-26.79,11.62-13.93,6.56-27.38,14c-8.94,5-17.73,10.26-26.22,16l-3.31,2.26C510.93,455.28,487,484,487,484c-.05.32-.09.64-.12,1-.32.36-.63.73-.94,1.09a121.88,121.88,0,0,0-16.77,25.38,87,87,0,0,0-8.47,29.12,82.08,82.08,0,0,0-.22,15.28A105.62,105.62,0,0,0,463,571a89.7,89.7,0,0,1-3.3-15.08,81.75,81.75,0,0,1-.45-15.49,85.38,85.38,0,0,1,7.81-30c.56-1.17,1.08-2.36,1.68-3.51l1.8-3.46,2-3.37c.65-1.12,1.38-2.2,2.06-3.3a141.75,141.75,0,0,1,9.2-12.55,181.23,181.23,0,0,1,21.93-22c5.82-4.92,11.88-9.54,18.11-13.89-.59.87-1.19,1.73-1.8,2.6q1.89-1.89,3.67-3.89h0c1.61-1.12,3.24-2.21,4.88-3.29,8.66-5.62,17.54-10.88,26.67-15.66A363.35,363.35,0,0,1,612.28,404.57Z"/><path d="M610.26,173.46q-.12.33-.21.63l-1.91-.57c.16-.39.33-.76.52-1.12C609.19,172.76,609.72,173.12,610.26,173.46Z"/><path d="M609.5,585.5q0,.54,0,1.08l-.33.09A12.14,12.14,0,0,1,609.5,585.5Z"/><path d="M603,109.53a1.06,1.06,0,0,1,.19.06L602,110Z"/><path d="M601.19,273.84v0a1.67,1.67,0,0,1-.05.18Z"/><path d="M598.55,568.85h0l-.09,0Z"/><path class="cls-4" d="M594.3,404.09c6,0,12,.18,18,.48a363.35,363.35,0,0,0-55,23.58c-9.13,4.78-18,10-26.67,15.66-1.64,1.08-3.27,2.17-4.88,3.29a90,90,0,0,0,9.62-12.87,67.2,67.2,0,0,0,8.31-20,48.18,48.18,0,0,0,1.14-8.89C561.25,404.5,577.78,404,594.3,404.09Z"/><path d="M590.18,185.05A19.72,19.72,0,0,1,592,187a21.63,21.63,0,0,0-8.68-5.91A22.45,22.45,0,0,0,573,179.83a31.18,31.18,0,0,0-10,3,49.45,49.45,0,0,0-8.91,5.61c-5.41,4.46-11,9.2-17.6,12.22a22.75,22.75,0,0,1-5.25,1.72,11.48,11.48,0,0,1-5.72-.22,7.41,7.41,0,0,1-1.42-.61c-.4-1.21-.81-2.41-1.21-3.61a6.65,6.65,0,0,0,3.22,2.47,9.89,9.89,0,0,0,4.82.23,22.42,22.42,0,0,0,4.88-1.53,52.38,52.38,0,0,0,9-5.26c1.43-1,2.85-2.07,4.24-3.16s2.79-2.21,4.22-3.28a50.72,50.72,0,0,1,9.26-5.48,31.78,31.78,0,0,1,10.38-2.78,22.53,22.53,0,0,1,10.56,1.59A22.23,22.23,0,0,1,590.18,185.05Z"/><path class="cls-2" d="M545,466.61l-23.76,62.53a14.83,14.83,0,0,0-.14,10.17l-21.67,2.08c-8.62-21.76-14.26-42.1-12.58-56.42a183.41,183.41,0,0,1,20.75-20.4,256.07,256.07,0,0,1,21.19-16.14c.4-.16.79-.3,1.18-.43C530,448,536.06,451.22,545,466.61Z"/><path d="M543.29,392.58a42,42,0,0,1,1.46,12.77l-2.25.15,2.25-.12a48.18,48.18,0,0,1-1.14,8.89,67.2,67.2,0,0,1-8.31,20,90,90,0,0,1-9.62,12.87h0c-.63.42-1.25.85-1.87,1.29a163.89,163.89,0,0,0,9.47-15.33l1.16-2.36c.38-.78.83-1.54,1.16-2.35.69-1.6,1.46-3.17,2-4.81a61.42,61.42,0,0,0,3.06-9.92A48.55,48.55,0,0,0,542,403.39a44.81,44.81,0,0,0-.93-10.26,42.47,42.47,0,0,0-1.94-6.56,20.85,20.85,0,0,0,3.64,4.17C542.92,391.35,543.12,392,543.29,392.58Z"/><path d="M544.75,405.35v0l-2.25.12Z"/><path d="M525.86,387.25l.34-.81c1.19-2.88,2.29-5.8,3.33-8.74a180.26,180.26,0,0,0,8.27-36.45,248.89,248.89,0,0,0,1.63-37.43,332.43,332.43,0,0,0-3.12-37.4c-1.72-12.41-4.08-24.73-7-36.93-2.53-10.52-5.3-21-8.66-31.31.07.11.12.23.19.34a8.83,8.83,0,0,0,3.17,3c1,3,1.93,6,2.85,9.09,1.81,6,3.48,12.12,5,18.26,3,12.25,5.43,24.64,7.23,37.13a328.42,328.42,0,0,1,3.35,37.72,252.15,252.15,0,0,1-1.86,37.86c-.31,2.3-.66,4.59-1,6.87A54,54,0,0,0,534.69,370c-.53,1.81-1.08,3.61-1.67,5.4-.35-.3-.7-.6-1.06-.88.33.38.66.77,1,1.16q-.48,1.46-1,2.91L530.29,383c-.61,1.47-1.18,2.95-1.82,4.4l-1,2.17-.24.54-.12.28,0,.06c1.9-.05-2.62.17-2.17.11l-.07-.13-.57-1.05q-1.11-2.1-2.18-4.21c-2.86-5.63-5.53-11.34-8.08-17.1-1.23-2.79-2.42-5.59-3.59-8.4.05-.68.09-1.35.13-2-.11.51-.23,1-.34,1.52-3.57-8.68-6.82-17.48-9.59-26.43A241.9,241.9,0,0,1,492,296a261.78,261.78,0,0,0,9.78,36.36c4.12,11.85,8.78,23.52,14.05,34.9q3.95,8.53,8.32,16.86C524.71,385.17,525.28,386.21,525.86,387.25Zm0,0-.57,1.32-.22.54-.12.27,0,.07c-1.92.11,2.59-.07,2.11-.09l-.07-.12-.57-1C526.21,387.92,526,387.6,525.86,387.27Z"/><path d="M541.49,387.42c.46,1.09.86,2.2,1.23,3.32a20.85,20.85,0,0,1-3.64-4.17c-.42-1.1-.87-2.19-1.4-3.26s-1-1.9-1.48-2.82a25,25,0,0,1-.7-2.61A37.45,37.45,0,0,1,539,382.6,43.25,43.25,0,0,1,541.49,387.42Z"/><path d="M545,782c-3-.23-6.14-.36-9.19-.78l-4.57-.76c-.76-.14-1.53-.23-2.28-.42l-2.25-.56c-1.5-.39-3-.78-4.5-1.19l-4.4-1.56c-.73-.28-1.48-.5-2.19-.82l-2.12-1-2.12-1a18.77,18.77,0,0,1-2.1-1.06l-4.06-2.37a18,18,0,0,1-2-1.32l-1.91-1.38c-.63-.47-1.28-.91-1.89-1.4l-1.78-1.56a42,42,0,0,1-3.48-3.19A66.48,66.48,0,0,1,483,746.54a84.51,84.51,0,0,1-7-17.39,100.81,100.81,0,0,1-3.31-18.35,120.84,120.84,0,0,1-.23-18.54A107.73,107.73,0,0,1,475,674a155.83,155.83,0,0,0-.68,18.31,148.27,148.27,0,0,0,1.37,18.14,122.6,122.6,0,0,0,2.54,13.07L478,724l.25-.39c.39,1.51.81,3,1.28,4.49a84.65,84.65,0,0,0,6.92,16.51,67.35,67.35,0,0,0,24.38,25.55C521.14,776.3,532.93,779.89,545,782Z"/><path d="M534.69,370a54,54,0,0,1,4.84-21.49A185.41,185.41,0,0,1,534.69,370Z"/><path d="M535.5,377.88a25,25,0,0,0,.7,2.61,37.45,37.45,0,0,0-3.27-4.85l.09-.27A26.72,26.72,0,0,1,535.5,377.88Z"/><path d="M533,375.36h0l-.09.27c-.31-.39-.64-.78-1-1.16C532.32,374.76,532.67,375.06,533,375.36Z"/><path d="M527,389.38c.48,0-4,.2-2.11.09l0-.07.12-.27.22-.54.57-1.32c.17.33.35.65.53,1l.57,1Z"/><path d="M523.8,448.4c.62-.44,1.24-.87,1.87-1.29q-1.78,2-3.67,3.89C522.61,450.13,523.21,449.27,523.8,448.4Z"/><path d="M522.83,197.93c.4,1.2.81,2.4,1.21,3.61a8.83,8.83,0,0,1-3.17-3c-.07-.11-.12-.23-.19-.34q-.79-2.42-1.62-4.83l2-.42a10.83,10.83,0,0,0,1.5,4.56c.09.15.21.28.31.43Z"/><path d="M522.82,197.92c-.1-.15-.22-.28-.31-.43a10.83,10.83,0,0,1-1.5-4.56l-2,.42q.83,2.42,1.62,4.83a13,13,0,0,1-1.69-5.11l-1-8.24,2.9,7.82C521.59,194.4,522.21,196.16,522.82,197.92Z"/><path d="M515.3,574.57l-.06,2.39-.23-.48C515.11,575.84,515.2,575.21,515.3,574.57Z"/><path d="M515,576.48l.23.48c-.35,12.15-1.48,24.26-3,36.31q-2.48,19.28-6.67,38.3A312.3,312.3,0,0,1,494.86,689c-4.33,12.06-9.62,23.9-16.61,34.62a.29.29,0,0,0,0-.09A254.14,254.14,0,0,0,491.9,688c1.88-6.14,3.66-12.32,5.23-18.55s3.14-12.47,4.51-18.75,2.73-12.58,4-18.9,2.39-12.65,3.54-19Q512.31,594.71,515,576.48Z"/><path d="M528.82,448.43a256.07,256.07,0,0,0-21.19,16.14A183.41,183.41,0,0,0,486.88,485c0-.33.07-.65.12-1C487,484,510.93,455.28,528.82,448.43Z"/><path d="M501.14,143.3a49.9,49.9,0,0,1-.11,11.46A106.77,106.77,0,0,1,499.1,166c-3.44,14.84-8.78,29.11-14.59,43.1-11.7,28-25.68,54.9-40.2,81.45l-11.05,19.78a213.71,213.71,0,0,0-9.71,20.25A199.92,199.92,0,0,0,416,351.76a212.43,212.43,0,0,0-5.13,21.88A201.51,201.51,0,0,0,408.24,396a180,180,0,0,0-.1,22.52A149.17,149.17,0,0,0,411,440.85c.75,3.69,1.71,7.34,2.78,10.95s2.33,7.17,3.7,10.7c-1.55-3.45-3-6.93-4.27-10.51s-2.34-7.22-3.24-10.9a149.53,149.53,0,0,1-3.8-22.45,187.55,187.55,0,0,1,1.63-45.52,197.55,197.55,0,0,1,12.23-44,207.51,207.51,0,0,1,9.77-20.68l11-19.84q11-19.8,21.29-40c6.88-13.42,13.46-27,19.56-40.78s11.7-27.81,15.55-42.34a106.3,106.3,0,0,0,2.33-11,48.52,48.52,0,0,0,.55-11.15A21.16,21.16,0,0,0,499,138a13.12,13.12,0,0,0-1.18-2.48,11,11,0,0,0-1.75-2.1,9.44,9.44,0,0,0-5-2.29,13.52,13.52,0,0,0-5.58.37,13.54,13.54,0,0,1,5.62-.67,10,10,0,0,1,5.31,2.13,11.82,11.82,0,0,1,2,2.16,14.08,14.08,0,0,1,1.35,2.58A22.32,22.32,0,0,1,501.14,143.3Z"/><path d="M484.5,555.5a92.85,92.85,0,0,1-2.26,14.15c-1,4.68-2.41,9.26-3.88,13.82a164.52,164.52,0,0,1-11.65,26.25c-2.21,4.27-4.86,8.27-7.41,12.33l-4.15,5.88c-.71,1-1.35,2-2.12,2.91l-2.24,2.82c-1.51,1.86-3,3.78-4.51,5.6l-4.8,5.36-2.4,2.68-2.3,2.67-1.15,1.33c-.36.47-.68,1-1,1.43l-2,2.88-1.75,3c-.28.51-.59,1-.86,1.53l-.71,1.6c-.45,1.08-1,2.13-1.37,3.23l-1.08,3.34a52.42,52.42,0,0,0-1.93,13.88,68.39,68.39,0,0,0,1.58,14,101.33,101.33,0,0,0,4.16,13.55,129,129,0,0,0,6,12.91Q440,729,444,734.94A177.53,177.53,0,0,0,461.5,757.5c-3.41-3.35-6.59-6.93-9.65-10.6s-6-7.49-8.71-11.41-5.28-8-7.64-12.17a131.2,131.2,0,0,1-6.31-13,89.92,89.92,0,0,1-4.42-13.75,72,72,0,0,1-1.23-7.14c-.28-2.4-.44-4.82-.48-7.24A54.43,54.43,0,0,1,425,667.83l1.11-3.48c.38-1.16.94-2.25,1.4-3.37l.73-1.68c.28-.54.59-1.06.88-1.59.61-1.06,1.19-2.13,1.81-3.18l2.12-3c.35-.49.69-1,1.07-1.47l1.19-1.38,2.4-2.74,2.39-2.64,4.79-5.28c1.56-1.79,3-3.68,4.51-5.52l2.23-2.77c.77-.92,1.41-1.92,2.12-2.87l4.15-5.8,3.84-6c1.33-2,2.48-4.05,3.66-6.12a164.38,164.38,0,0,0,12.07-25.82c.8-2.24,1.58-4.49,2.31-6.76s1.39-4.55,2-6.86A104.82,104.82,0,0,0,484.5,555.5Z"/><path d="M478.23,723.52a.29.29,0,0,1,0,.09L478,724Z"/><path d="M485,136a54.33,54.33,0,0,0-7.86,2q-3.87,1.28-7.59,2.9a112.08,112.08,0,0,0-14.38,7.49c-1.16.69-2.27,1.46-3.41,2.19l-1.69,1.11-1.65,1.18c-1.1.79-2.21,1.55-3.29,2.36l-3.19,2.5c-1.08.81-2.1,1.7-3.12,2.58L435.74,163c-1.95,1.86-4,3.66-5.87,5.57-15.34,15.21-27.7,33.24-37.45,52.47-2.54,4.76-4.71,9.71-7,14.6-1.08,2.48-2.09,5-3.15,7.47l-1.56,3.73c-.51,1.25-1,2.52-1.44,3.79l-2.84,7.58c-.91,2.54-1.72,5.12-2.59,7.68l-1.28,3.84-.64,1.92-.57,1.95-2.28,7.77a447,447,0,0,0-13.34,63.4,408.78,408.78,0,0,0-3.51,64.66c.17,10.8,1,21.59,2,32.34.67,5.36,1.2,10.75,2.07,16.08.4,2.67.74,5.36,1.2,8l1.42,8c2,10.61,4.34,21.19,7.25,31.62s6.17,20.75,9.89,30.92,7.81,20.21,12.42,30c2.29,4.91,4.74,9.75,7.3,14.53,2.35,4.41,4.8,8.79,7.49,13a.07.07,0,0,0,0,0,233.71,233.71,0,0,1-15.73-27.13q-7.35-14.57-13.31-29.79A388.23,388.23,0,0,1,356,474.43c-8.77-42.74-9.84-87-4.16-130.21.84-5.39,1.61-10.79,2.52-16.16s2-10.73,3.14-16.06l1.82-8c.62-2.65,1.15-5.33,1.89-7.95l2.08-7.91,1-3.95,1.18-3.92,2.37-7.83.6-2,.66-1.93,1.32-3.87c.9-2.58,1.74-5.17,2.69-7.73l2.94-7.64c.49-1.27,1-2.55,1.48-3.82l1.61-3.76c1.09-2.5,2.13-5,3.27-7.51,2.38-4.91,4.65-9.87,7.31-14.65A223.76,223.76,0,0,1,407,191.81a183.48,183.48,0,0,1,21.51-24.66c2-1.89,4.06-3.65,6.09-5.47l3.18-2.58c1.06-.86,2.12-1.72,3.23-2.52l3.29-2.43c1.11-.79,2.26-1.53,3.38-2.3l1.7-1.14,1.74-1.07c1.17-.71,2.31-1.45,3.5-2.12a111.78,111.78,0,0,1,14.69-7.13c2.54-1,5.11-1.88,7.73-2.63A54.26,54.26,0,0,1,485,136Z"/><path d="M403.32,593.94,404,595l-.69-1A.07.07,0,0,1,403.32,593.94Z"/><line class="cls-9" x1="906.91" y1="301.54" x2="940.93" y2="323.31"/><line class="cls-9" x1="892.25" y1="292.16" x2="906.7" y2="301.41"/><path class="cls-10" d="M596.33,568.49l-.47-.14-66-20.07a14.84,14.84,0,0,1-8.58-19.14L545,466.61l3.43-9a16,16,0,0,1,20.24-9.4l16.11,5.66,92.62,32.57,3.89,1.37"/><polyline class="cls-10" points="723 607 706.69 602.04 704.12 601.26"/><path class="cls-10" d="M723,607a10,10,0,0,0,12.51-6.21l3.72-11.44L740,587"/><path class="cls-11" d="M528.82,448.43c.4-.16.79-.3,1.18-.43,0,0,6.06,3.22,15,18.61"/><path class="cls-11" d="M515,576.48c-5.59-11.64-11-23.57-15.55-35.09-8.62-21.76-14.26-42.1-12.58-56.42"/><path class="cls-11" d="M758.84,578.41s-.39.73-1.17,2.12c-6.24,11.1-37.1,64.53-89.5,129.55a34.66,34.66,0,0,1-7,6.59c-3.56,2.5-9.17,6.56-15.13,11.33-10,8-83-56-103-96-7.48-15-17.91-34.55-27.76-55"/><path class="cls-11" d="M629.22,596.94a5.87,5.87,0,0,1,.77.32,21,21,0,0,1,5,3.73,52.58,52.58,0,0,1,9,12"/><polyline class="cls-11" points="635 601 635.02 600.99 638.97 597.59 639.04 597.53"/></g></svg>