<svg id="Layer_1" data-name="Layer 1" xmlns="http://www.w3.org/2000/svg" width="522.5" height="1055" viewBox="0 0 522.5 1055"><defs><style>.cls-1{fill:#4d4d4d;}.cls-2{fill:#fff;stroke:#000;stroke-miterlimit:10;stroke-width:3px;}.cls-3{fill:#333;}.cls-4,.cls-5{fill:none;stroke:#333;stroke-linejoin:round;}.cls-4{stroke-linecap:round;stroke-width:6px;}.cls-5{stroke-linecap:square;stroke-width:4px;}</style></defs><title>Mobil</title><rect x="6" y="4.5" width="511" height="1046" rx="40.58"/><path class="cls-1" d="M476.42,9A36.08,36.08,0,0,1,512.5,45.08v964.84A36.08,36.08,0,0,1,476.42,1046H46.58a36.08,36.08,0,0,1-36.08-36.08V45.08A36.08,36.08,0,0,1,46.58,9H476.42m0-9H46.58A45.13,45.13,0,0,0,1.5,45.08v964.84A45.13,45.13,0,0,0,46.58,1055H476.42a45.13,45.13,0,0,0,45.08-45.08V45.08A45.13,45.13,0,0,0,476.42,0Z"/><rect class="cls-2" x="27" y="112.5" width="470" height="836"/><circle cx="261.5" cy="996" r="37.5"/><path class="cls-3" d="M261.5,960a36,36,0,1,1-36,36,36,36,0,0,1,36-36m0-3a39,39,0,1,0,39,39,39.05,39.05,0,0,0-39-39Z"/><line class="cls-4" x1="223" y1="55.5" x2="299" y2="55.5"/><circle class="cls-1" cx="186.5" cy="56" r="7"/><line class="cls-5" x1="2" y1="112.5" x2="2" y2="136.5"/><line class="cls-5" x1="2.5" y1="172" x2="2.5" y2="219"/><line class="cls-5" x1="2.5" y1="232" x2="2.5" y2="279"/><line class="cls-5" x1="520.5" y1="177" x2="520.5" y2="224"/></svg>