<svg id="Layer_1" data-name="Layer 1" xmlns="http://www.w3.org/2000/svg" width="273" height="64" viewBox="0 0 273 64"><defs><style>.cls-1{fill:#3fa7f3;}.cls-2{fill:#fff;}</style></defs><title>svar 2 besked 2</title><rect class="cls-1" width="273" height="64" rx="19.58"/><path class="cls-2" d="M14.61,24.69H12.86V9.7h8.36v1.55H14.61v5.48h6.21v1.55H14.61Z"/><path class="cls-2" d="M25,13.45v7.29a2.91,2.91,0,0,0,.63,2.05,2.52,2.52,0,0,0,2,.68,3.22,3.22,0,0,0,2.58-1A4.88,4.88,0,0,0,31,19.36V13.45h1.7V24.69h-1.4l-.25-1.51H31a3.41,3.41,0,0,1-1.45,1.28,4.93,4.93,0,0,1-2.12.44,4.3,4.3,0,0,1-3.07-1,4.14,4.14,0,0,1-1-3.11V13.45Z"/><path class="cls-2" d="M40.83,24.9a4.8,4.8,0,0,1-3.78-1.5,6.17,6.17,0,0,1-1.34-4.26,6.32,6.32,0,0,1,1.36-4.35,4.86,4.86,0,0,1,3.87-1.54,8.1,8.1,0,0,1,1.62.17,5.92,5.92,0,0,1,1.27.41l-.52,1.45a8.44,8.44,0,0,0-1.23-.38,6.14,6.14,0,0,0-1.18-.14q-3.43,0-3.43,4.36a5.19,5.19,0,0,0,.84,3.18,2.89,2.89,0,0,0,2.47,1.11,7.68,7.68,0,0,0,2.89-.6v1.5A6.16,6.16,0,0,1,40.83,24.9Z"/><path class="cls-2" d="M48,18.94a19.91,19.91,0,0,1,1.35-1.64L53,13.45h2l-4.56,4.79,4.87,6.45H53.26l-4-5.31L48,20.49v4.2H46.33V8.74H48V17.2c0,.37,0,.95-.08,1.74Z"/><path class="cls-2" d="M61.45,29.74a4.1,4.1,0,0,1-1.58-.26V28.1a5.19,5.19,0,0,0,1.39.2,1.48,1.48,0,0,0,1.18-.43,2.09,2.09,0,0,0,.37-1.33V13.45h1.7v13Q64.51,29.74,61.45,29.74Zm1.22-19.33A1.14,1.14,0,0,1,63,9.55a1.07,1.07,0,0,1,1.43,0,1.1,1.1,0,0,1,.3.85,1.1,1.1,0,0,1-.3.85,1,1,0,0,1-.71.29,1,1,0,0,1-.72-.29A1.13,1.13,0,0,1,62.67,10.41Z"/><path class="cls-2" d="M75,24.69l-.34-1.6h-.08a4.71,4.71,0,0,1-1.67,1.43,5.14,5.14,0,0,1-2.09.38A3.76,3.76,0,0,1,68.23,24a3.18,3.18,0,0,1-1-2.46q0-3.39,5.45-3.56l1.9-.06v-.7a2.89,2.89,0,0,0-.57-2,2.33,2.33,0,0,0-1.82-.63,7.41,7.41,0,0,0-3.18.87l-.52-1.31a8.09,8.09,0,0,1,1.82-.7,7.5,7.5,0,0,1,2-.26,4.27,4.27,0,0,1,3,.89,3.72,3.72,0,0,1,1,2.86v7.67Zm-3.84-1.2a3.43,3.43,0,0,0,2.49-.87,3.2,3.2,0,0,0,.91-2.44v-1l-1.7.07a6.16,6.16,0,0,0-2.93.63,1.9,1.9,0,0,0-.9,1.74,1.76,1.76,0,0,0,.56,1.4A2.36,2.36,0,0,0,71.19,23.49Z"/><path class="cls-2" d="M79.55,23.6c0-.92.41-1.39,1.23-1.39a1.16,1.16,0,0,1,.92.36,1.47,1.47,0,0,1,.33,1,1.5,1.5,0,0,1-.33,1,1.19,1.19,0,0,1-.92.36,1.29,1.29,0,0,1-.88-.32A1.42,1.42,0,0,1,79.55,23.6Zm1.79-3H80.26L79.74,9.7h2.12Z"/><path class="cls-2" d="M102.5,24.69h-1.74v-7h-7.9v7.05H91.12V9.7h1.74v6.38h7.9V9.7h1.74Z"/><path class="cls-2" d="M108,13.45v7.29a3,3,0,0,0,.62,2.05,2.52,2.52,0,0,0,2,.68,3.19,3.19,0,0,0,2.58-1,4.88,4.88,0,0,0,.82-3.15V13.45h1.7V24.69h-1.41L114,23.18h-.1a3.35,3.35,0,0,1-1.45,1.28,4.91,4.91,0,0,1-2.11.44,4.29,4.29,0,0,1-3.07-1,4.11,4.11,0,0,1-1-3.11V13.45Z"/><path class="cls-2" d="M126.94,24.69V17.42a2.93,2.93,0,0,0-.63-2.05,2.56,2.56,0,0,0-2-.68,3.22,3.22,0,0,0-2.58,1A4.78,4.78,0,0,0,121,18.8v5.89h-1.7V13.45h1.38l.28,1.54H121a3.56,3.56,0,0,1,1.47-1.29,4.79,4.79,0,0,1,2.1-.45,4.27,4.27,0,0,1,3,1,4.13,4.13,0,0,1,1,3.13v7.33Z"/><path class="cls-2" d="M142.34,24.9a5.17,5.17,0,0,1-3.93-1.52A5.88,5.88,0,0,1,137,19.17a6.51,6.51,0,0,1,1.33-4.32,4.45,4.45,0,0,1,3.6-1.6,4.22,4.22,0,0,1,3.34,1.39,5.31,5.31,0,0,1,1.23,3.66v1.08h-7.74a4.43,4.43,0,0,0,1,3,3.43,3.43,0,0,0,2.67,1,9,9,0,0,0,3.59-.76v1.52a9.44,9.44,0,0,1-1.71.56A9.7,9.7,0,0,1,142.34,24.9Zm-.46-10.23a2.79,2.79,0,0,0-2.16.89,4,4,0,0,0-.95,2.44h5.88a3.73,3.73,0,0,0-.72-2.47A2.53,2.53,0,0,0,141.88,14.67Z"/><path class="cls-2" d="M154.5,13.25a6.74,6.74,0,0,1,1.34.12L155.61,15a6,6,0,0,0-1.23-.15A3,3,0,0,0,152,15.9a4.07,4.07,0,0,0-1,2.76v6h-1.71V13.45h1.41l.19,2.09h.08a4.94,4.94,0,0,1,1.51-1.7A3.46,3.46,0,0,1,154.5,13.25Z"/><path class="cls-2" d="M177.72,24.69V17.38a3,3,0,0,0-.57-2,2.21,2.21,0,0,0-1.78-.68,2.87,2.87,0,0,0-2.35.92,4.31,4.31,0,0,0-.76,2.81v6.27h-1.7V17.38a3,3,0,0,0-.58-2,2.22,2.22,0,0,0-1.79-.68,2.76,2.76,0,0,0-2.34,1,5.17,5.17,0,0,0-.75,3.15v5.89h-1.7V13.45h1.39l.27,1.54h.08a3.36,3.36,0,0,1,1.36-1.28,4.15,4.15,0,0,1,2-.46c1.75,0,2.9.63,3.44,1.91H172a3.59,3.59,0,0,1,1.46-1.4,4.52,4.52,0,0,1,2.17-.51,3.83,3.83,0,0,1,2.86,1,4.37,4.37,0,0,1,1,3.13v7.33Z"/><path class="cls-2" d="M187.68,24.9a5.17,5.17,0,0,1-3.93-1.52,5.88,5.88,0,0,1-1.44-4.21,6.46,6.46,0,0,1,1.34-4.32,4.43,4.43,0,0,1,3.59-1.6,4.22,4.22,0,0,1,3.34,1.39,5.31,5.31,0,0,1,1.23,3.66v1.08h-7.74a4.48,4.48,0,0,0,1,3,3.43,3.43,0,0,0,2.67,1,9,9,0,0,0,3.59-.76v1.52a9.44,9.44,0,0,1-1.71.56A9.7,9.7,0,0,1,187.68,24.9Zm-.46-10.23a2.79,2.79,0,0,0-2.16.89,4,4,0,0,0-.95,2.44H190a3.73,3.73,0,0,0-.72-2.47A2.53,2.53,0,0,0,187.22,14.67Z"/><path class="cls-2" d="M203.91,13.45v1.08l-2.08.25a3.66,3.66,0,0,1,.74,2.24,3.35,3.35,0,0,1-1.13,2.64,4.57,4.57,0,0,1-3.1,1,5.67,5.67,0,0,1-.94-.08A1.68,1.68,0,0,0,196.31,22a.75.75,0,0,0,.38.68,2.91,2.91,0,0,0,1.31.22h2a4.4,4.4,0,0,1,2.8.77,2.66,2.66,0,0,1,1,2.23,3.2,3.2,0,0,1-1.5,2.85,8,8,0,0,1-4.37,1,6,6,0,0,1-3.4-.82,2.66,2.66,0,0,1-1.19-2.32,2.57,2.57,0,0,1,.66-1.77,3.32,3.32,0,0,1,1.84-1,1.8,1.8,0,0,1-.72-.6,1.6,1.6,0,0,1-.29-1,1.88,1.88,0,0,1,.32-1.08,3.67,3.67,0,0,1,1-.89,3,3,0,0,1-1.42-1.22,3.62,3.62,0,0,1-.55-2,3.61,3.61,0,0,1,1.11-2.84,4.5,4.5,0,0,1,3.14-1,6.07,6.07,0,0,1,1.59.2Zm-9,13.13a1.52,1.52,0,0,0,.77,1.38,4.18,4.18,0,0,0,2.2.47,6.16,6.16,0,0,0,3.18-.64,1.94,1.94,0,0,0,1-1.73,1.37,1.37,0,0,0-.57-1.27,4.31,4.31,0,0,0-2.12-.35h-2a2.67,2.67,0,0,0-1.8.55A2,2,0,0,0,195,26.58Zm.92-9.53a2.32,2.32,0,0,0,.67,1.79,2.67,2.67,0,0,0,1.86.6A2.17,2.17,0,0,0,200.89,17a2.23,2.23,0,0,0-2.52-2.53,2.47,2.47,0,0,0-1.85.65A2.6,2.6,0,0,0,195.87,17.05Z"/><path class="cls-2" d="M213.13,24.69l-.34-1.6h-.08A4.65,4.65,0,0,1,211,24.52a5.05,5.05,0,0,1-2.08.38,3.76,3.76,0,0,1-2.62-.86,3.18,3.18,0,0,1-1-2.46q0-3.39,5.44-3.56l1.91-.06v-.7a2.89,2.89,0,0,0-.57-2,2.33,2.33,0,0,0-1.82-.63,7.41,7.41,0,0,0-3.18.87l-.52-1.31a7.91,7.91,0,0,1,1.82-.7,7.48,7.48,0,0,1,2-.26,4.3,4.3,0,0,1,3,.89,3.72,3.72,0,0,1,1,2.86v7.67Zm-3.84-1.2a3.45,3.45,0,0,0,2.49-.87,3.2,3.2,0,0,0,.91-2.44v-1l-1.7.07a6.13,6.13,0,0,0-2.93.63,1.9,1.9,0,0,0-.9,1.74,1.76,1.76,0,0,0,.56,1.4A2.34,2.34,0,0,0,209.29,23.49Z"/><path class="cls-2" d="M228.42,14.78h-2.86v9.91h-1.7V14.78h-2V14l2-.62v-.62c0-2.77,1.2-4.15,3.62-4.15a7.44,7.44,0,0,1,2.09.36l-.44,1.37a5.43,5.43,0,0,0-1.68-.32,1.63,1.63,0,0,0-1.43.64,3.57,3.57,0,0,0-.46,2.06v.72h2.86Z"/><path class="cls-2" d="M235.6,13.25a6.81,6.81,0,0,1,1.34.12L236.7,15a5.86,5.86,0,0,0-1.23-.15,3,3,0,0,0-2.33,1.1,4.08,4.08,0,0,0-1,2.76v6h-1.7V13.45h1.4l.2,2.09h.08a4.94,4.94,0,0,1,1.51-1.7A3.44,3.44,0,0,1,235.6,13.25Z"/><path class="cls-2" d="M238.2,21.58A3,3,0,0,1,239.47,19a6.94,6.94,0,0,1,3.88-1l1.89-.06v-.7a2.79,2.79,0,0,0-.6-2,2.38,2.38,0,0,0-1.81-.63,6.83,6.83,0,0,0-3.15.87l-.54-1.31a8.35,8.35,0,0,1,3.81-1,4.64,4.64,0,0,1,2.18.45,2.76,2.76,0,0,1,1.26,1.42,3.89,3.89,0,0,1,1.42-1.4,4,4,0,0,1,2-.49A4,4,0,0,1,253,14.62a5.37,5.37,0,0,1,1.19,3.64v1.1H247q.08,4,3.3,4.05a7.54,7.54,0,0,0,3.4-.76v1.52a9.11,9.11,0,0,1-1.64.56,8.6,8.6,0,0,1-1.8.17A4.46,4.46,0,0,1,246,22.51a5,5,0,0,1-1.84,1.84,4.84,4.84,0,0,1-2.38.55,3.73,3.73,0,0,1-2.62-.87A3.19,3.19,0,0,1,238.2,21.58Zm1.79,0a1.79,1.79,0,0,0,.54,1.43,2.23,2.23,0,0,0,1.46.45,3.16,3.16,0,0,0,2.34-.86,3.31,3.31,0,0,0,.86-2.45v-1l-1.62.07a5.52,5.52,0,0,0-2.74.64A1.93,1.93,0,0,0,240,21.61Zm9.81-6.94a2.45,2.45,0,0,0-2,.85A4.27,4.27,0,0,0,247,18h5.32a4,4,0,0,0-.66-2.46A2.2,2.2,0,0,0,249.8,14.67Z"/><path class="cls-2" d="M258.74,18.94a19.41,19.41,0,0,1,1.34-1.64l3.63-3.85h2l-4.55,4.79,4.87,6.45H264l-4-5.31-1.28,1.11v4.2h-1.68V8.74h1.68V17.2c0,.37,0,.95-.08,1.74Z"/><path class="cls-2" d="M14.29,44.14a19.41,19.41,0,0,1,1.34-1.64l3.63-3.85h2l-4.55,4.79,4.87,6.45H19.54l-4-5.31-1.28,1.11v4.2H12.61v-16h1.68V42.4c0,.37,0,1-.08,1.74Z"/><path class="cls-2" d="M33.33,44.26A6.21,6.21,0,0,1,32,48.55a4.89,4.89,0,0,1-3.83,1.55,5.11,5.11,0,0,1-2.68-.71,4.69,4.69,0,0,1-1.8-2,7.15,7.15,0,0,1-.64-3.1A6.17,6.17,0,0,1,24.38,40a4.86,4.86,0,0,1,3.81-1.53A4.75,4.75,0,0,1,31.94,40,6.14,6.14,0,0,1,33.33,44.26Zm-8.56,0a5.28,5.28,0,0,0,.86,3.28,3,3,0,0,0,2.53,1.13,3,3,0,0,0,2.54-1.12,5.31,5.31,0,0,0,.87-3.29A5.18,5.18,0,0,0,30.7,41a3.06,3.06,0,0,0-2.56-1.12A3,3,0,0,0,25.62,41,5.26,5.26,0,0,0,24.77,44.26Z"/><path class="cls-2" d="M50.64,49.89V42.58a3,3,0,0,0-.58-2,2.2,2.2,0,0,0-1.78-.68,2.89,2.89,0,0,0-2.35.92,4.37,4.37,0,0,0-.76,2.81v6.27h-1.7V42.58a3,3,0,0,0-.57-2,2.24,2.24,0,0,0-1.8-.68,2.77,2.77,0,0,0-2.34,1A5.18,5.18,0,0,0,38,44v5.89H36.31V38.65H37.7L38,40.19h.09a3.3,3.3,0,0,1,1.36-1.28,4.08,4.08,0,0,1,2-.46c1.76,0,2.9.63,3.44,1.91h.09A3.56,3.56,0,0,1,46.36,39a4.56,4.56,0,0,1,2.18-.51,3.76,3.76,0,0,1,2.85,1,4.37,4.37,0,0,1,1,3.13v7.33Z"/><path class="cls-2" d="M75.63,49.89V42.58a3,3,0,0,0-.58-2,2.2,2.2,0,0,0-1.78-.68,2.89,2.89,0,0,0-2.35.92,4.31,4.31,0,0,0-.76,2.81v6.27h-1.7V42.58a3,3,0,0,0-.57-2,2.26,2.26,0,0,0-1.8-.68,2.76,2.76,0,0,0-2.34,1A5.17,5.17,0,0,0,63,44v5.89H61.3V38.65h1.39L63,40.19h.09a3.33,3.33,0,0,1,1.35-1.28,4.15,4.15,0,0,1,2-.46c1.75,0,2.9.63,3.44,1.91h.09A3.56,3.56,0,0,1,71.35,39a4.54,4.54,0,0,1,2.17-.51,3.77,3.77,0,0,1,2.86,1,4.37,4.37,0,0,1,1,3.13v7.33Z"/><path class="cls-2" d="M85.58,50.1a5.17,5.17,0,0,1-3.93-1.52,5.88,5.88,0,0,1-1.44-4.22,6.5,6.5,0,0,1,1.34-4.31,4.43,4.43,0,0,1,3.59-1.6,4.24,4.24,0,0,1,3.35,1.39,5.31,5.31,0,0,1,1.23,3.66v1.08H82a4.48,4.48,0,0,0,1,3,3.47,3.47,0,0,0,2.68,1,9,9,0,0,0,3.58-.76v1.52a9.61,9.61,0,0,1-1.7.56A9.88,9.88,0,0,1,85.58,50.1Zm-.46-10.23a2.79,2.79,0,0,0-2.16.89A4,4,0,0,0,82,43.2h5.87a3.73,3.73,0,0,0-.72-2.47A2.53,2.53,0,0,0,85.12,39.87Z"/><path class="cls-2" d="M100.27,48.38h-.1a4,4,0,0,1-3.52,1.72,4.18,4.18,0,0,1-3.43-1.51A6.62,6.62,0,0,1,92,44.3,6.72,6.72,0,0,1,93.22,40a4.13,4.13,0,0,1,3.43-1.54,4.07,4.07,0,0,1,3.5,1.66h.14l-.07-.81,0-.79V33.94h1.71v16h-1.39Zm-3.41.29a3.08,3.08,0,0,0,2.53-1,4.8,4.8,0,0,0,.78-3.06V44.3a5.65,5.65,0,0,0-.79-3.41,3,3,0,0,0-2.54-1A2.6,2.6,0,0,0,94.55,41a5.76,5.76,0,0,0-.79,3.28,5.51,5.51,0,0,0,.79,3.25A2.63,2.63,0,0,0,96.86,48.67Z"/><path class="cls-2" d="M118.59,48.38h-.09A4,4,0,0,1,115,50.1a4.19,4.19,0,0,1-3.43-1.51,6.62,6.62,0,0,1-1.22-4.29A6.72,6.72,0,0,1,111.55,40a4.55,4.55,0,0,1,6.93.12h.13l-.07-.81,0-.79V33.94h1.7v16h-1.38Zm-3.4.29a3.06,3.06,0,0,0,2.52-1,4.74,4.74,0,0,0,.79-3.06V44.3a5.64,5.64,0,0,0-.8-3.41,3,3,0,0,0-2.53-1,2.61,2.61,0,0,0-2.3,1.17,5.76,5.76,0,0,0-.79,3.28,5.51,5.51,0,0,0,.79,3.25A2.66,2.66,0,0,0,115.19,48.67Z"/><path class="cls-2" d="M128.56,50.1a5.17,5.17,0,0,1-3.93-1.52,5.88,5.88,0,0,1-1.44-4.22,6.5,6.5,0,0,1,1.33-4.31,4.45,4.45,0,0,1,3.6-1.6,4.22,4.22,0,0,1,3.34,1.39,5.31,5.31,0,0,1,1.23,3.66v1.08H125a4.43,4.43,0,0,0,1,3,3.43,3.43,0,0,0,2.67,1,9,9,0,0,0,3.59-.76v1.52a9.44,9.44,0,0,1-1.71.56A9.78,9.78,0,0,1,128.56,50.1Zm-.46-10.23a2.76,2.76,0,0,0-2.16.89,4,4,0,0,0-1,2.44h5.88a3.73,3.73,0,0,0-.72-2.47A2.53,2.53,0,0,0,128.1,39.87Z"/><path class="cls-2" d="M149.92,49.89V42.58a3,3,0,0,0-.58-2,2.21,2.21,0,0,0-1.78-.68,2.89,2.89,0,0,0-2.35.92,4.31,4.31,0,0,0-.76,2.81v6.27h-1.7V42.58a3,3,0,0,0-.58-2,2.22,2.22,0,0,0-1.79-.68,2.76,2.76,0,0,0-2.34,1,5.17,5.17,0,0,0-.75,3.15v5.89h-1.7V38.65H137l.27,1.54h.08a3.42,3.42,0,0,1,1.36-1.28,4.15,4.15,0,0,1,2-.46c1.75,0,2.9.63,3.44,1.91h.08a3.59,3.59,0,0,1,1.46-1.4,4.54,4.54,0,0,1,2.17-.51,3.77,3.77,0,0,1,2.86,1,4.37,4.37,0,0,1,1,3.13v7.33Z"/><path class="cls-2" d="M154.88,48.8c0-.92.41-1.39,1.23-1.39a1.18,1.18,0,0,1,.92.36,1.79,1.79,0,0,1,0,2.06,1.17,1.17,0,0,1-.91.36,1.25,1.25,0,0,1-.88-.32A1.42,1.42,0,0,1,154.88,48.8Zm1.78-3h-1.07l-.53-10.86h2.13Z"/></svg>