<svg id="Layer_1" data-name="Layer 1" xmlns="http://www.w3.org/2000/svg" width="273" height="64" viewBox="0 0 273 64"><defs><style>.cls-1{fill:#3fa7f3;}.cls-2{fill:#fff;}</style></defs><title>svar 2 besked 6</title><rect class="cls-1" width="273" height="64" rx="19.58"/><path class="cls-2" d="M24.83,17.05a7.55,7.55,0,0,1-2,5.68,7.94,7.94,0,0,1-5.79,2H12.86V9.7h4.6a7.34,7.34,0,0,1,5.43,1.94A7.33,7.33,0,0,1,24.83,17.05ZM23,17.11a6,6,0,0,0-1.47-4.41,5.86,5.86,0,0,0-4.37-1.49H14.61v12h2.12a6.43,6.43,0,0,0,4.68-1.53A6,6,0,0,0,23,17.11Z"/><path class="cls-2" d="M34.83,24.69l-.34-1.6h-.08a4.65,4.65,0,0,1-1.68,1.43,5.1,5.1,0,0,1-2.09.38A3.79,3.79,0,0,1,28,24a3.18,3.18,0,0,1-.95-2.46q0-3.39,5.45-3.56L34.43,18v-.7a2.87,2.87,0,0,0-.57-2A2.35,2.35,0,0,0,32,14.67a7.34,7.34,0,0,0-3.18.87l-.52-1.31a7.91,7.91,0,0,1,1.82-.7,7.48,7.48,0,0,1,2-.26,4.31,4.31,0,0,1,3,.89,3.72,3.72,0,0,1,1,2.86v7.67ZM31,23.49a3.47,3.47,0,0,0,2.5-.87,3.24,3.24,0,0,0,.91-2.44v-1l-1.71.07a6.2,6.2,0,0,0-2.92.63,1.9,1.9,0,0,0-.9,1.74,1.73,1.73,0,0,0,.56,1.4A2.31,2.31,0,0,0,31,23.49Z"/><path class="cls-2" d="M53.92,24.69V17.38a3,3,0,0,0-.57-2,2.24,2.24,0,0,0-1.79-.68,2.89,2.89,0,0,0-2.35.92,4.35,4.35,0,0,0-.76,2.81v6.27h-1.7V17.38a3,3,0,0,0-.57-2,2.24,2.24,0,0,0-1.8-.68,2.79,2.79,0,0,0-2.34,1,5.18,5.18,0,0,0-.74,3.15v5.89H39.59V13.45H41L41.26,15h.08a3.36,3.36,0,0,1,1.36-1.28,4.11,4.11,0,0,1,2-.46c1.76,0,2.91.63,3.45,1.91h.08a3.56,3.56,0,0,1,1.45-1.4,4.56,4.56,0,0,1,2.18-.51,3.8,3.8,0,0,1,2.85,1,4.33,4.33,0,0,1,.95,3.13v7.33Z"/><path class="cls-2" d="M66.82,24.69V17.42a2.93,2.93,0,0,0-.63-2.05,2.54,2.54,0,0,0-2-.68,3.22,3.22,0,0,0-2.58,1,4.78,4.78,0,0,0-.82,3.15v5.89h-1.7V13.45h1.38L60.79,15h.08a3.47,3.47,0,0,1,1.47-1.28,4.69,4.69,0,0,1,2.1-.46,4.31,4.31,0,0,1,3.06,1,4.16,4.16,0,0,1,1,3.13v7.33Z"/><path class="cls-2" d="M82.7,13.27a4.16,4.16,0,0,1,3.44,1.51,6.63,6.63,0,0,1,1.23,4.28,6.63,6.63,0,0,1-1.24,4.3A4.13,4.13,0,0,1,82.7,24.9a4.83,4.83,0,0,1-2-.41,3.75,3.75,0,0,1-1.53-1.24h-.12l-.36,1.44H77.47V8.74h1.7v3.87c0,.87,0,1.65-.08,2.34h.08A4.05,4.05,0,0,1,82.7,13.27Zm-.24,1.42a3,3,0,0,0-2.52,1,5.67,5.67,0,0,0-.77,3.37A5.67,5.67,0,0,0,80,22.45a3,3,0,0,0,2.54,1,2.62,2.62,0,0,0,2.33-1.14A5.82,5.82,0,0,0,85.6,19a5.6,5.6,0,0,0-.77-3.27A2.71,2.71,0,0,0,82.46,14.69Z"/><path class="cls-2" d="M95.47,13.25a6.74,6.74,0,0,1,1.34.12L96.58,15a6,6,0,0,0-1.23-.15A3,3,0,0,0,93,15.9a4.08,4.08,0,0,0-1,2.76v6h-1.7V13.45h1.41l.19,2.09H92a4.94,4.94,0,0,1,1.51-1.7A3.44,3.44,0,0,1,95.47,13.25Z"/><path class="cls-2" d="M108.61,19.06a6.2,6.2,0,0,1-1.38,4.29,4.88,4.88,0,0,1-3.83,1.55,5.07,5.07,0,0,1-2.67-.71,4.71,4.71,0,0,1-1.81-2,7.12,7.12,0,0,1-.63-3.1,6.22,6.22,0,0,1,1.37-4.28,4.88,4.88,0,0,1,3.82-1.53,4.72,4.72,0,0,1,3.74,1.57A6.14,6.14,0,0,1,108.61,19.06Zm-8.56,0a5.35,5.35,0,0,0,.86,3.28,3.42,3.42,0,0,0,5.07,0,5.31,5.31,0,0,0,.87-3.29,5.18,5.18,0,0,0-.87-3.25,3.46,3.46,0,0,0-5.08,0A5.32,5.32,0,0,0,100.05,19.06Z"/><path class="cls-2" d="M113.38,22.25l.16.24c-.18.68-.44,1.48-.77,2.38s-.69,1.75-1,2.53h-1.28c.18-.71.39-1.59.61-2.64s.38-1.88.47-2.51Z"/><path class="cls-2" d="M129.89,24.69V17.42a2.93,2.93,0,0,0-.63-2.05,2.52,2.52,0,0,0-1.95-.68,3.23,3.23,0,0,0-2.59,1,4.84,4.84,0,0,0-.82,3.15v5.89h-1.7V13.45h1.38l.28,1.54h.08a3.47,3.47,0,0,1,1.47-1.28,4.69,4.69,0,0,1,2.1-.46,4.29,4.29,0,0,1,3.06,1,4.16,4.16,0,0,1,1,3.13v7.33Z"/><path class="cls-2" d="M135,10.41a1.14,1.14,0,0,1,.28-.86,1.07,1.07,0,0,1,1.43,0,1.1,1.1,0,0,1,.3.85,1.1,1.1,0,0,1-.3.85,1,1,0,0,1-.71.29,1,1,0,0,1-.72-.29A1.13,1.13,0,0,1,135,10.41Zm1.84,14.28h-1.7V13.45h1.7Z"/><path class="cls-2" d="M144.89,24.9a4.8,4.8,0,0,1-3.78-1.51,6.17,6.17,0,0,1-1.33-4.25,6.37,6.37,0,0,1,1.35-4.35A4.89,4.89,0,0,1,145,13.25a8.28,8.28,0,0,1,1.63.17,5.92,5.92,0,0,1,1.27.41l-.53,1.45a7.74,7.74,0,0,0-1.23-.38,6,6,0,0,0-1.18-.14q-3.42,0-3.42,4.36a5.19,5.19,0,0,0,.84,3.18,2.89,2.89,0,0,0,2.47,1.11,7.42,7.42,0,0,0,2.88-.61v1.51A6.13,6.13,0,0,1,144.89,24.9Z"/><path class="cls-2" d="M155.15,24.9a5.17,5.17,0,0,1-3.94-1.52,5.88,5.88,0,0,1-1.44-4.21,6.51,6.51,0,0,1,1.34-4.32,4.44,4.44,0,0,1,3.6-1.6,4.23,4.23,0,0,1,3.34,1.39,5.31,5.31,0,0,1,1.23,3.66v1.08h-7.74a4.38,4.38,0,0,0,1,3,3.43,3.43,0,0,0,2.67,1,9,9,0,0,0,3.59-.76v1.52a8.94,8.94,0,0,1-1.71.56A9.85,9.85,0,0,1,155.15,24.9Zm-.47-10.23a2.75,2.75,0,0,0-2.15.89,4,4,0,0,0-.95,2.44h5.87a3.79,3.79,0,0,0-.71-2.47A2.55,2.55,0,0,0,154.68,14.67Z"/><path class="cls-2" d="M161.93,23.61c0-.93.41-1.4,1.23-1.4a1.16,1.16,0,0,1,.92.36,1.47,1.47,0,0,1,.32,1,1.49,1.49,0,0,1-.32,1,1.16,1.16,0,0,1-.92.37,1.27,1.27,0,0,1-.88-.32A1.41,1.41,0,0,1,161.93,23.61Zm1.79-3.05h-1.08L162.12,9.7h2.12Z"/><path class="cls-2" d="M184.88,24.69h-1.74v-7h-7.9v7.05H173.5V9.7h1.74v6.38h7.9V9.7h1.74Z"/><path class="cls-2" d="M190.34,13.45v7.29a3,3,0,0,0,.62,2.05,2.52,2.52,0,0,0,2,.68,3.19,3.19,0,0,0,2.58-1,4.88,4.88,0,0,0,.82-3.15V13.45H198V24.69h-1.41l-.24-1.51h-.09a3.43,3.43,0,0,1-1.46,1.28,4.88,4.88,0,0,1-2.11.44,4.29,4.29,0,0,1-3.07-1,4.14,4.14,0,0,1-1-3.11V13.45Z"/><path class="cls-2" d="M209.32,24.69V17.42a2.93,2.93,0,0,0-.63-2.05,2.56,2.56,0,0,0-2-.68,3.22,3.22,0,0,0-2.58,1,4.78,4.78,0,0,0-.82,3.15v5.89h-1.7V13.45H203l.28,1.54h.08a3.47,3.47,0,0,1,1.47-1.28,4.66,4.66,0,0,1,2.1-.46,4.27,4.27,0,0,1,3.05,1,4.13,4.13,0,0,1,1,3.13v7.33Z"/><path class="cls-2" d="M227.22,21.63a2.82,2.82,0,0,1-1.17,2.42,5.54,5.54,0,0,1-3.28.85,7.18,7.18,0,0,1-3.49-.71V22.61a8.8,8.8,0,0,0,1.74.65,7.64,7.64,0,0,0,1.79.23,4.1,4.1,0,0,0,2.05-.42,1.42,1.42,0,0,0,.72-1.3,1.4,1.4,0,0,0-.57-1.12,9.19,9.19,0,0,0-2.22-1.11,11.94,11.94,0,0,1-2.23-1,3,3,0,0,1-1-1,2.57,2.57,0,0,1-.33-1.33A2.52,2.52,0,0,1,220.37,14a5.23,5.23,0,0,1,3.07-.79A8.78,8.78,0,0,1,227,14l-.6,1.38a8.26,8.26,0,0,0-3.07-.7,3.55,3.55,0,0,0-1.82.38,1.19,1.19,0,0,0-.62,1.05,1.3,1.3,0,0,0,.23.77,2.29,2.29,0,0,0,.75.6,15.73,15.73,0,0,0,2,.83,7.48,7.48,0,0,1,2.7,1.47A2.57,2.57,0,0,1,227.22,21.63Z"/><path class="cls-2" d="M231.67,18.94A19.41,19.41,0,0,1,233,17.3l3.63-3.85h2l-4.55,4.79L239,24.69h-2.06l-4-5.31-1.28,1.11v4.2H230V8.74h1.68V17.2c0,.37,0,.95-.08,1.74Z"/><path class="cls-2" d="M247.92,24.69l-.34-1.6h-.08a4.71,4.71,0,0,1-1.67,1.43,5.14,5.14,0,0,1-2.09.38,3.76,3.76,0,0,1-2.62-.86,3.18,3.18,0,0,1-1-2.46q0-3.39,5.45-3.56l1.9-.06v-.7a2.87,2.87,0,0,0-.57-2,2.33,2.33,0,0,0-1.82-.63,7.34,7.34,0,0,0-3.17.87l-.53-1.31a8.09,8.09,0,0,1,1.82-.7,7.5,7.5,0,0,1,2-.26,4.27,4.27,0,0,1,3,.89,3.72,3.72,0,0,1,1,2.86v7.67Zm-3.84-1.2a3.43,3.43,0,0,0,2.49-.87,3.2,3.2,0,0,0,.91-2.44v-1l-1.7.07a6.28,6.28,0,0,0-2.93.63,1.89,1.89,0,0,0-.89,1.74,1.75,1.75,0,0,0,.55,1.4A2.36,2.36,0,0,0,244.08,23.49Z"/><path class="cls-2" d="M254.39,24.69h-1.7V8.74h1.7Z"/><path class="cls-2" d="M20.26,48.38h-.1a4,4,0,0,1-3.52,1.72,4.18,4.18,0,0,1-3.43-1.51A6.62,6.62,0,0,1,12,44.3,6.72,6.72,0,0,1,13.21,40a4.13,4.13,0,0,1,3.43-1.54,4.07,4.07,0,0,1,3.5,1.66h.14l-.08-.81,0-.79V33.94h1.71v16H20.48Zm-3.41.29a3.08,3.08,0,0,0,2.53-1,4.8,4.8,0,0,0,.78-3.06V44.3a5.65,5.65,0,0,0-.79-3.41,3,3,0,0,0-2.54-1A2.6,2.6,0,0,0,14.54,41a5.76,5.76,0,0,0-.8,3.28,5.58,5.58,0,0,0,.79,3.25A2.66,2.66,0,0,0,16.85,48.67Z"/><path class="cls-2" d="M32.39,49.89l-.34-1.6H32a4.65,4.65,0,0,1-1.68,1.43,5.1,5.1,0,0,1-2.09.38,3.78,3.78,0,0,1-2.62-.86,3.17,3.17,0,0,1-.95-2.45q0-3.4,5.45-3.57L32,43.15v-.69a2.87,2.87,0,0,0-.57-2,2.35,2.35,0,0,0-1.82-.63,7.46,7.46,0,0,0-3.18.86l-.52-1.3a8.41,8.41,0,0,1,1.82-.71,7.9,7.9,0,0,1,2-.25,4.31,4.31,0,0,1,3,.89,3.76,3.76,0,0,1,1,2.86v7.67Zm-3.85-1.2a3.47,3.47,0,0,0,2.5-.87A3.24,3.24,0,0,0,32,45.38v-1l-1.71.07a6.08,6.08,0,0,0-2.92.63,1.89,1.89,0,0,0-.9,1.73A1.73,1.73,0,0,0,27,48.21,2.31,2.31,0,0,0,28.54,48.69Z"/><path class="cls-2" d="M44.31,49.89h-1.7v-16h1.7Z"/><path class="cls-2" d="M47.78,35.61a1.14,1.14,0,0,1,.28-.86,1,1,0,0,1,.72-.27,1,1,0,0,1,.71.28,1.08,1.08,0,0,1,.3.85,1.1,1.1,0,0,1-.3.85,1,1,0,0,1-.71.29,1,1,0,0,1-.72-.29A1.13,1.13,0,0,1,47.78,35.61Zm1.84,14.28h-1.7V38.65h1.7Z"/><path class="cls-2" d="M62.43,38.65v1.08L60.35,40a3.5,3.5,0,0,1,.51.93,3.64,3.64,0,0,1,.23,1.31A3.35,3.35,0,0,1,60,44.86a4.59,4.59,0,0,1-3.1,1,5.58,5.58,0,0,1-.94-.08,1.66,1.66,0,0,0-1.09,1.45.75.75,0,0,0,.38.68,2.86,2.86,0,0,0,1.3.22h2a4.43,4.43,0,0,1,2.81.77,2.66,2.66,0,0,1,1,2.23A3.2,3.2,0,0,1,60.79,54a8,8,0,0,1-4.37,1,6,6,0,0,1-3.4-.82,2.66,2.66,0,0,1-1.19-2.32A2.61,2.61,0,0,1,52.48,50a3.39,3.39,0,0,1,1.85-1,1.69,1.69,0,0,1-.72-.61,1.56,1.56,0,0,1-.3-.95,1.77,1.77,0,0,1,.33-1.07,3.53,3.53,0,0,1,1-.9,3,3,0,0,1-1.42-1.22,3.54,3.54,0,0,1-.55-2,3.61,3.61,0,0,1,1.11-2.84,4.49,4.49,0,0,1,3.13-1,6,6,0,0,1,1.59.2Zm-9,13.13a1.5,1.5,0,0,0,.77,1.38,4.16,4.16,0,0,0,2.2.47A6.16,6.16,0,0,0,59.62,53a2,2,0,0,0,1-1.73A1.37,1.37,0,0,0,60.08,50,4.28,4.28,0,0,0,58,49.63h-2a2.7,2.7,0,0,0-1.81.56A2,2,0,0,0,53.47,51.78Zm.92-9.53A2.29,2.29,0,0,0,55.06,44a2.66,2.66,0,0,0,1.85.6,2.18,2.18,0,0,0,2.5-2.42,2.24,2.24,0,0,0-2.53-2.53,2.48,2.48,0,0,0-1.84.64A2.62,2.62,0,0,0,54.39,42.25Z"/><path class="cls-2" d="M69.48,50.1a5.17,5.17,0,0,1-3.93-1.52,5.88,5.88,0,0,1-1.44-4.21,6.51,6.51,0,0,1,1.34-4.32A4.43,4.43,0,0,1,69,38.45a4.24,4.24,0,0,1,3.35,1.39,5.31,5.31,0,0,1,1.23,3.66v1.08H65.88a4.38,4.38,0,0,0,1,3,3.43,3.43,0,0,0,2.67,1,9,9,0,0,0,3.59-.76v1.52a8.2,8.2,0,0,1-3.66.73ZM69,39.87a2.75,2.75,0,0,0-2.15.89,4,4,0,0,0-1,2.44h5.87a3.73,3.73,0,0,0-.72-2.47A2.52,2.52,0,0,0,69,39.87Z"/><path class="cls-2" d="M84.44,49.89,80.17,38.65H82l2.42,6.67c.55,1.56.87,2.57,1,3h.08c.08-.36.31-1.11.71-2.25s1.3-3.62,2.69-7.45h1.83L86.42,49.89Z"/><path class="cls-2" d="M92.35,35.61a1.14,1.14,0,0,1,.29-.86,1,1,0,0,1,.72-.27,1,1,0,0,1,.7.28,1.08,1.08,0,0,1,.3.85,1.1,1.1,0,0,1-.3.85,1,1,0,0,1-.7.29,1,1,0,0,1-.72-.29A1.13,1.13,0,0,1,92.35,35.61ZM94.2,49.89H92.49V38.65H94.2Z"/><path class="cls-2" d="M105.06,46.83a2.82,2.82,0,0,1-1.17,2.42,5.56,5.56,0,0,1-3.28.85,7.16,7.16,0,0,1-3.49-.71V47.81a8.8,8.8,0,0,0,1.74.65,7.58,7.58,0,0,0,1.79.23,4.1,4.1,0,0,0,2-.42,1.42,1.42,0,0,0,.72-1.3,1.4,1.4,0,0,0-.57-1.12,9.19,9.19,0,0,0-2.22-1.11,11.94,11.94,0,0,1-2.23-1,3,3,0,0,1-1-1,2.61,2.61,0,0,1-.32-1.32,2.52,2.52,0,0,1,1.12-2.17,5.17,5.17,0,0,1,3.06-.79,8.86,8.86,0,0,1,3.55.74l-.61,1.38a8.21,8.21,0,0,0-3.06-.7,3.57,3.57,0,0,0-1.83.38,1.18,1.18,0,0,0-.61,1,1.3,1.3,0,0,0,.23.77,2.24,2.24,0,0,0,.74.6,16.45,16.45,0,0,0,2,.83,7.48,7.48,0,0,1,2.7,1.47A2.58,2.58,0,0,1,105.06,46.83Z"/><path class="cls-2" d="M112.57,50.1a5.17,5.17,0,0,1-3.93-1.52,5.88,5.88,0,0,1-1.44-4.21,6.46,6.46,0,0,1,1.34-4.32,4.43,4.43,0,0,1,3.59-1.6,4.22,4.22,0,0,1,3.34,1.39,5.31,5.31,0,0,1,1.23,3.66v1.08H109a4.48,4.48,0,0,0,1,3,3.43,3.43,0,0,0,2.67,1,9,9,0,0,0,3.59-.76v1.52a9.44,9.44,0,0,1-1.71.56A9.7,9.7,0,0,1,112.57,50.1Zm-.46-10.23a2.79,2.79,0,0,0-2.16.89,4.11,4.11,0,0,0-1,2.44h5.88a3.73,3.73,0,0,0-.72-2.47A2.53,2.53,0,0,0,112.11,39.87Z"/><path class="cls-2" d="M126.86,46.83a2.85,2.85,0,0,1-1.17,2.42,5.57,5.57,0,0,1-3.29.85,7.11,7.11,0,0,1-3.48-.71V47.81a8.8,8.8,0,0,0,1.74.65,7.58,7.58,0,0,0,1.79.23,4.13,4.13,0,0,0,2-.42,1.48,1.48,0,0,0,.15-2.42,9.19,9.19,0,0,0-2.22-1.11,11.94,11.94,0,0,1-2.23-1,3,3,0,0,1-1-1,2.61,2.61,0,0,1-.32-1.32A2.52,2.52,0,0,1,120,39.24a5.17,5.17,0,0,1,3.06-.79,8.86,8.86,0,0,1,3.55.74L126,40.57a8.21,8.21,0,0,0-3.06-.7,3.57,3.57,0,0,0-1.83.38,1.18,1.18,0,0,0-.61,1,1.23,1.23,0,0,0,.23.77,2.24,2.24,0,0,0,.74.6,16.45,16.45,0,0,0,2,.83,7.48,7.48,0,0,1,2.7,1.47A2.58,2.58,0,0,1,126.86,46.83Z"/><path class="cls-2" d="M138.71,48.69a7,7,0,0,0,1.54-.2v1.3a3.24,3.24,0,0,1-.82.22,5.93,5.93,0,0,1-1,.09q-3.26,0-3.26-3.44V40h-1.61v-.82l1.61-.71.72-2.4h1v2.6h3.26V40H136.9v6.61a2.28,2.28,0,0,0,.48,1.56A1.71,1.71,0,0,0,138.71,48.69Z"/><path class="cls-2" d="M142.35,35.61a1.11,1.11,0,0,1,.29-.86,1,1,0,0,1,.71-.27,1,1,0,0,1,.71.28,1.08,1.08,0,0,1,.3.85,1.1,1.1,0,0,1-.3.85,1,1,0,0,1-.71.29,1,1,0,0,1-.71-.29A1.1,1.1,0,0,1,142.35,35.61Zm1.84,14.28h-1.7V38.65h1.7Z"/><path class="cls-2" d="M149.51,49.89H147.8v-16h1.71Z"/><path class="cls-2" d="M166.22,48.38h-.09a4,4,0,0,1-3.53,1.72,4.19,4.19,0,0,1-3.43-1.51A6.62,6.62,0,0,1,158,44.3,6.72,6.72,0,0,1,159.18,40a4.55,4.55,0,0,1,6.93.12h.13l-.07-.81,0-.79V33.94h1.7v16h-1.38Zm-3.4.29a3.06,3.06,0,0,0,2.52-1,4.74,4.74,0,0,0,.79-3.06V44.3a5.64,5.64,0,0,0-.8-3.41,3,3,0,0,0-2.54-1A2.61,2.61,0,0,0,160.5,41a5.76,5.76,0,0,0-.79,3.28,5.51,5.51,0,0,0,.79,3.25A2.65,2.65,0,0,0,162.82,48.67Z"/><path class="cls-2" d="M176.57,38.45a6.81,6.81,0,0,1,1.34.12l-.24,1.58a5.86,5.86,0,0,0-1.23-.15,3,3,0,0,0-2.33,1.1,4,4,0,0,0-1,2.76v6h-1.7V38.65h1.4l.2,2.08h.08A5,5,0,0,1,174.63,39,3.44,3.44,0,0,1,176.57,38.45Z"/><path class="cls-2" d="M184.76,50.1a5.17,5.17,0,0,1-3.93-1.52,5.88,5.88,0,0,1-1.44-4.21,6.51,6.51,0,0,1,1.33-4.32,4.45,4.45,0,0,1,3.6-1.6,4.22,4.22,0,0,1,3.34,1.39,5.31,5.31,0,0,1,1.23,3.66v1.08h-7.74a4.43,4.43,0,0,0,1,3,3.43,3.43,0,0,0,2.67,1,9,9,0,0,0,3.59-.76v1.52a9.44,9.44,0,0,1-1.71.56A9.7,9.7,0,0,1,184.76,50.1Zm-.46-10.23a2.79,2.79,0,0,0-2.16.89,4,4,0,0,0-.95,2.44h5.88a3.73,3.73,0,0,0-.72-2.47A2.53,2.53,0,0,0,184.3,39.87Z"/><path class="cls-2" d="M199.48,49.89V42.62a3,3,0,0,0-.62-2,2.56,2.56,0,0,0-2-.68,3.19,3.19,0,0,0-2.58,1A4.78,4.78,0,0,0,193.5,44v5.89h-1.71V38.65h1.39l.27,1.54h.09A3.47,3.47,0,0,1,195,38.9a4.82,4.82,0,0,1,2.1-.45,4.28,4.28,0,0,1,3.06,1,4.17,4.17,0,0,1,1,3.13v7.33Z"/><path class="cls-2" d="M213.88,38.65v1.08L211.8,40a3.5,3.5,0,0,1,.51.93,3.64,3.64,0,0,1,.23,1.31,3.35,3.35,0,0,1-1.13,2.64,4.59,4.59,0,0,1-3.1,1,5.58,5.58,0,0,1-.94-.08,1.66,1.66,0,0,0-1.09,1.45.75.75,0,0,0,.38.68,2.86,2.86,0,0,0,1.3.22h2a4.43,4.43,0,0,1,2.81.77,2.66,2.66,0,0,1,1,2.23,3.2,3.2,0,0,1-1.5,2.85,8.06,8.06,0,0,1-4.37,1,6,6,0,0,1-3.4-.82,2.64,2.64,0,0,1-1.19-2.32,2.61,2.61,0,0,1,.65-1.77,3.39,3.39,0,0,1,1.85-1,1.69,1.69,0,0,1-.72-.61,1.56,1.56,0,0,1-.3-.95,1.77,1.77,0,0,1,.33-1.07,3.53,3.53,0,0,1,1-.9,3,3,0,0,1-1.42-1.22,3.54,3.54,0,0,1-.55-2,3.61,3.61,0,0,1,1.11-2.84,4.48,4.48,0,0,1,3.13-1,6,6,0,0,1,1.59.2Zm-9,13.13a1.5,1.5,0,0,0,.77,1.38,4.16,4.16,0,0,0,2.2.47,6.09,6.09,0,0,0,3.17-.64,2,2,0,0,0,1-1.73,1.37,1.37,0,0,0-.57-1.27,4.28,4.28,0,0,0-2.12-.36h-2a2.7,2.7,0,0,0-1.81.56A2,2,0,0,0,204.92,51.78Zm.92-9.53a2.29,2.29,0,0,0,.67,1.79,2.66,2.66,0,0,0,1.85.6,2.17,2.17,0,0,0,2.49-2.42,2.23,2.23,0,0,0-2.52-2.53,2.48,2.48,0,0,0-1.84.64A2.62,2.62,0,0,0,205.84,42.25Z"/><path class="cls-2" d="M220.93,50.1A5.17,5.17,0,0,1,217,48.58a5.88,5.88,0,0,1-1.44-4.21,6.51,6.51,0,0,1,1.34-4.32,4.43,4.43,0,0,1,3.59-1.6,4.24,4.24,0,0,1,3.35,1.39,5.31,5.31,0,0,1,1.23,3.66v1.08h-7.74a4.42,4.42,0,0,0,1,3,3.47,3.47,0,0,0,2.68,1,8.93,8.93,0,0,0,3.58-.76v1.52a9.61,9.61,0,0,1-1.7.56A9.88,9.88,0,0,1,220.93,50.1Zm-.46-10.23a2.79,2.79,0,0,0-2.16.89,4,4,0,0,0-.94,2.44h5.87a3.73,3.73,0,0,0-.72-2.47A2.53,2.53,0,0,0,220.47,39.87Z"/><path class="cls-2" d="M235.66,49.89V42.62a2.93,2.93,0,0,0-.63-2,2.54,2.54,0,0,0-1.95-.68,3.23,3.23,0,0,0-2.59,1,4.78,4.78,0,0,0-.82,3.15v5.89H228V38.65h1.38l.28,1.54h.08a3.56,3.56,0,0,1,1.47-1.29,4.82,4.82,0,0,1,2.1-.45,4.31,4.31,0,0,1,3.06,1,4.16,4.16,0,0,1,1,3.13v7.33Z"/><path class="cls-2" d="M245.61,50.1a5.17,5.17,0,0,1-3.94-1.52,5.88,5.88,0,0,1-1.44-4.21,6.51,6.51,0,0,1,1.34-4.32,4.43,4.43,0,0,1,3.59-1.6,4.24,4.24,0,0,1,3.35,1.39,5.31,5.31,0,0,1,1.23,3.66v1.08H242a4.38,4.38,0,0,0,1,3,3.43,3.43,0,0,0,2.67,1,9,9,0,0,0,3.59-.76v1.52a10,10,0,0,1-1.71.56A9.85,9.85,0,0,1,245.61,50.1Zm-.47-10.23a2.75,2.75,0,0,0-2.15.89,4,4,0,0,0-1,2.44h5.87a3.73,3.73,0,0,0-.72-2.47A2.52,2.52,0,0,0,245.14,39.87Z"/><path class="cls-2" d="M252.39,48.8a1.54,1.54,0,0,1,.32-1,1.12,1.12,0,0,1,.89-.35,1.23,1.23,0,0,1,.93.35,1.49,1.49,0,0,1,.33,1,1.47,1.47,0,0,1-.33,1,1.23,1.23,0,0,1-.93.36,1.2,1.2,0,0,1-.86-.32A1.42,1.42,0,0,1,252.39,48.8Z"/></svg>