<svg id="Layer_1" data-name="Layer 1" xmlns="http://www.w3.org/2000/svg" width="248" height="39.16" viewBox="0 0 248 39.16"><defs><style>.cls-1{fill:#3fa7f3;}.cls-2{fill:#fff;}</style></defs><title>svar 3 besked 2</title><rect class="cls-1" width="248" height="39.16" rx="19.58"/><path class="cls-2" d="M12.86,24.69V9.7h1.75V23.11h6.61v1.58Z"/><path class="cls-2" d="M30.42,24.69l-.34-1.6H30a4.65,4.65,0,0,1-1.68,1.43,5.1,5.1,0,0,1-2.09.38A3.79,3.79,0,0,1,23.61,24a3.17,3.17,0,0,1-.94-2.46q0-3.39,5.44-3.56L30,18v-.7a2.89,2.89,0,0,0-.57-2,2.35,2.35,0,0,0-1.82-.63,7.34,7.34,0,0,0-3.18.87l-.52-1.31a7.91,7.91,0,0,1,1.82-.7,7.48,7.48,0,0,1,2-.26,4.31,4.31,0,0,1,3,.89,3.72,3.72,0,0,1,1,2.86v7.67Zm-3.85-1.2a3.47,3.47,0,0,0,2.5-.87A3.24,3.24,0,0,0,30,20.18v-1l-1.71.07a6.08,6.08,0,0,0-2.92.63,1.9,1.9,0,0,0-.9,1.74A1.76,1.76,0,0,0,25,23,2.31,2.31,0,0,0,26.57,23.49Z"/><path class="cls-2" d="M42.83,23.18h-.09a4,4,0,0,1-3.52,1.72,4.18,4.18,0,0,1-3.43-1.51,6.62,6.62,0,0,1-1.23-4.29,6.72,6.72,0,0,1,1.23-4.31,4.13,4.13,0,0,1,3.43-1.54,4.07,4.07,0,0,1,3.5,1.66h.14l-.08-.81,0-.79V8.74h1.7v16H43.06Zm-3.4.29A3.08,3.08,0,0,0,42,22.52a4.8,4.8,0,0,0,.78-3.06V19.1A5.65,5.65,0,0,0,42,15.69a3,3,0,0,0-2.54-1,2.6,2.6,0,0,0-2.29,1.17,5.76,5.76,0,0,0-.8,3.28,5.58,5.58,0,0,0,.79,3.25A2.66,2.66,0,0,0,39.43,23.47Z"/><path class="cls-2" d="M56,24.69,51.7,13.45h1.83L56,20.12a29.22,29.22,0,0,1,1,3H57a21.55,21.55,0,0,1,.71-2.25c.4-1.13,1.3-3.62,2.69-7.45h1.83L58,24.69Z"/><path class="cls-2" d="M63.19,21.58A3,3,0,0,1,64.46,19a6.94,6.94,0,0,1,3.88-1L70.22,18v-.7a2.83,2.83,0,0,0-.59-2,2.39,2.39,0,0,0-1.82-.63,6.82,6.82,0,0,0-3.14.87l-.54-1.31a8.35,8.35,0,0,1,3.81-1,4.64,4.64,0,0,1,2.18.45,2.76,2.76,0,0,1,1.26,1.42,3.81,3.81,0,0,1,1.42-1.4,4,4,0,0,1,2-.49A3.94,3.94,0,0,1,78,14.62a5.32,5.32,0,0,1,1.19,3.64v1.1H72q.07,4,3.3,4.05a7.54,7.54,0,0,0,3.4-.76v1.52a9.38,9.38,0,0,1-1.64.56,8.6,8.6,0,0,1-1.8.17A4.46,4.46,0,0,1,71,22.51a5.12,5.12,0,0,1-1.84,1.84,4.87,4.87,0,0,1-2.38.55A3.72,3.72,0,0,1,64.14,24,3.15,3.15,0,0,1,63.19,21.58Zm1.78,0A1.8,1.8,0,0,0,65.52,23a2.22,2.22,0,0,0,1.45.45,3.19,3.19,0,0,0,2.35-.86,3.31,3.31,0,0,0,.86-2.45v-1l-1.62.07a5.56,5.56,0,0,0-2.75.64A1.93,1.93,0,0,0,65,21.61Zm9.82-6.94a2.45,2.45,0,0,0-2,.85A4.27,4.27,0,0,0,72,18h5.32a4,4,0,0,0-.66-2.46A2.2,2.2,0,0,0,74.79,14.67Z"/><path class="cls-2" d="M87.17,13.25a6.91,6.91,0,0,1,1.35.12L88.28,15a5.86,5.86,0,0,0-1.23-.15,3,3,0,0,0-2.33,1.1,4,4,0,0,0-1,2.76v6h-1.7V13.45h1.4l.2,2.09h.08a4.92,4.92,0,0,1,1.5-1.7A3.46,3.46,0,0,1,87.17,13.25Z"/><path class="cls-2" d="M95.37,24.9a5.17,5.17,0,0,1-3.94-1.52A5.88,5.88,0,0,1,90,19.17a6.51,6.51,0,0,1,1.34-4.32,4.43,4.43,0,0,1,3.59-1.6,4.24,4.24,0,0,1,3.35,1.39A5.31,5.31,0,0,1,99.5,18.3v1.08H91.76a4.38,4.38,0,0,0,1,3,3.43,3.43,0,0,0,2.67,1A9,9,0,0,0,99,22.65v1.52a9.7,9.7,0,0,1-1.71.56A9.85,9.85,0,0,1,95.37,24.9ZM94.9,14.67a2.75,2.75,0,0,0-2.15.89,4,4,0,0,0-1,2.44h5.87A3.79,3.79,0,0,0,97,15.53,2.55,2.55,0,0,0,94.9,14.67Z"/><path class="cls-2" d="M122.18,24.69V17.38a3,3,0,0,0-.57-2,2.24,2.24,0,0,0-1.79-.68,2.89,2.89,0,0,0-2.35.92,4.37,4.37,0,0,0-.76,2.81v6.27H115V17.38a3,3,0,0,0-.57-2,2.23,2.23,0,0,0-1.8-.68,2.79,2.79,0,0,0-2.34,1,5.18,5.18,0,0,0-.74,3.15v5.89h-1.71V13.45h1.39l.28,1.54h.08A3.3,3.3,0,0,1,111,13.71a4.11,4.11,0,0,1,2-.46c1.76,0,2.91.63,3.45,1.91h.08a3.56,3.56,0,0,1,1.45-1.4,4.56,4.56,0,0,1,2.18-.51,3.8,3.8,0,0,1,2.85,1,4.33,4.33,0,0,1,.95,3.13v7.33Z"/><path class="cls-2" d="M132.14,24.9a5.17,5.17,0,0,1-3.94-1.52,5.88,5.88,0,0,1-1.44-4.21,6.51,6.51,0,0,1,1.34-4.32,4.44,4.44,0,0,1,3.6-1.6A4.23,4.23,0,0,1,135,14.64a5.31,5.31,0,0,1,1.23,3.66v1.08h-7.74a4.38,4.38,0,0,0,1,3,3.43,3.43,0,0,0,2.67,1,9,9,0,0,0,3.59-.76v1.52a9.7,9.7,0,0,1-1.71.56A9.85,9.85,0,0,1,132.14,24.9Zm-.47-10.23a2.75,2.75,0,0,0-2.15.89,4,4,0,0,0-1,2.44h5.87a3.79,3.79,0,0,0-.71-2.47A2.55,2.55,0,0,0,131.67,14.67Z"/><path class="cls-2" d="M146.82,23.18h-.09a4,4,0,0,1-3.53,1.72,4.19,4.19,0,0,1-3.43-1.51,6.62,6.62,0,0,1-1.23-4.29,6.72,6.72,0,0,1,1.24-4.31,4.55,4.55,0,0,1,6.93.12h.13l-.07-.81,0-.79V8.74h1.7v16H147Zm-3.4.29a3.06,3.06,0,0,0,2.52-.95,4.74,4.74,0,0,0,.79-3.06V19.1a5.64,5.64,0,0,0-.8-3.41,3,3,0,0,0-2.54-1,2.61,2.61,0,0,0-2.29,1.17,5.76,5.76,0,0,0-.79,3.28,5.51,5.51,0,0,0,.79,3.25A2.65,2.65,0,0,0,143.42,23.47Z"/><path class="cls-2" d="M164.41,24.69l-.34-1.6H164a4.63,4.63,0,0,1-1.67,1.43,5.1,5.1,0,0,1-2.09.38A3.78,3.78,0,0,1,157.6,24a3.18,3.18,0,0,1-.95-2.46q0-3.39,5.45-3.56L164,18v-.7a2.89,2.89,0,0,0-.57-2,2.35,2.35,0,0,0-1.82-.63,7.34,7.34,0,0,0-3.18.87l-.53-1.31a8.28,8.28,0,0,1,1.82-.7,7.55,7.55,0,0,1,2-.26,4.31,4.31,0,0,1,3,.89,3.76,3.76,0,0,1,1,2.86v7.67Zm-3.85-1.2a3.47,3.47,0,0,0,2.5-.87,3.23,3.23,0,0,0,.9-2.44v-1l-1.7.07a6.16,6.16,0,0,0-2.93.63,1.91,1.91,0,0,0-.89,1.74A1.73,1.73,0,0,0,159,23,2.31,2.31,0,0,0,160.56,23.49Z"/><path class="cls-2" d="M172.8,23.49a6.4,6.4,0,0,0,.88-.06l.66-.14v1.3a3,3,0,0,1-.81.22,6,6,0,0,1-1,.09c-2.18,0-3.26-1.15-3.26-3.44V14.78h-1.61V14l1.61-.71.71-2.4h1v2.6h3.26v1.33H171v6.61a2.28,2.28,0,0,0,.48,1.56A1.68,1.68,0,0,0,172.8,23.49Z"/><path class="cls-2" d="M189.29,21.63a2.82,2.82,0,0,1-1.17,2.42,5.54,5.54,0,0,1-3.28.85,7.11,7.11,0,0,1-3.48-.71V22.61a9,9,0,0,0,1.73.65,7.64,7.64,0,0,0,1.79.23,4.07,4.07,0,0,0,2.05-.42,1.42,1.42,0,0,0,.72-1.3,1.4,1.4,0,0,0-.57-1.12,9.19,9.19,0,0,0-2.22-1.11,12.26,12.26,0,0,1-2.23-1,3,3,0,0,1-1-1,2.51,2.51,0,0,1-.32-1.32A2.54,2.54,0,0,1,182.44,14a5.23,5.23,0,0,1,3.07-.79,8.86,8.86,0,0,1,3.55.74l-.61,1.38a8.25,8.25,0,0,0-3.06-.7,3.57,3.57,0,0,0-1.83.38A1.18,1.18,0,0,0,183,16.1a1.23,1.23,0,0,0,.23.77,2.24,2.24,0,0,0,.74.6,16.45,16.45,0,0,0,2,.83,7.48,7.48,0,0,1,2.7,1.47A2.57,2.57,0,0,1,189.29,21.63Z"/><path class="cls-2" d="M194.52,24.69l-4.26-11.24h1.82l2.42,6.67a29.22,29.22,0,0,1,1,3h.09a21.55,21.55,0,0,1,.71-2.25c.4-1.13,1.3-3.62,2.69-7.45h1.83l-4.27,11.24Z"/><path class="cls-2" d="M209.49,24.69l-.34-1.6h-.08a4.71,4.71,0,0,1-1.67,1.43,5.14,5.14,0,0,1-2.09.38,3.76,3.76,0,0,1-2.62-.86,3.18,3.18,0,0,1-.95-2.46c0-2.26,1.82-3.45,5.44-3.56l1.91-.06v-.7a2.89,2.89,0,0,0-.57-2,2.33,2.33,0,0,0-1.82-.63,7.41,7.41,0,0,0-3.18.87L203,14.23a8.09,8.09,0,0,1,1.82-.7,7.5,7.5,0,0,1,2-.26,4.27,4.27,0,0,1,3,.89,3.72,3.72,0,0,1,1,2.86v7.67Zm-3.84-1.2a3.43,3.43,0,0,0,2.49-.87,3.2,3.2,0,0,0,.91-2.44v-1l-1.7.07a6.16,6.16,0,0,0-2.93.63,1.9,1.9,0,0,0-.9,1.74,1.76,1.76,0,0,0,.56,1.4A2.36,2.36,0,0,0,205.65,23.49Z"/><path class="cls-2" d="M219.39,13.25a6.81,6.81,0,0,1,1.34.12L220.49,15a5.86,5.86,0,0,0-1.23-.15,3,3,0,0,0-2.33,1.1,4.08,4.08,0,0,0-1,2.76v6h-1.7V13.45h1.4l.2,2.09h.08a4.94,4.94,0,0,1,1.51-1.7A3.44,3.44,0,0,1,219.39,13.25Z"/><path class="cls-2" d="M227.58,24.9a5.17,5.17,0,0,1-3.93-1.52,5.88,5.88,0,0,1-1.44-4.21,6.51,6.51,0,0,1,1.33-4.32,4.45,4.45,0,0,1,3.6-1.6,4.22,4.22,0,0,1,3.34,1.39,5.31,5.31,0,0,1,1.23,3.66v1.08H224a4.43,4.43,0,0,0,1,3,3.43,3.43,0,0,0,2.67,1,9,9,0,0,0,3.59-.76v1.52a9.44,9.44,0,0,1-1.71.56A9.7,9.7,0,0,1,227.58,24.9Zm-.46-10.23a2.79,2.79,0,0,0-2.16.89A4,4,0,0,0,224,18h5.88a3.73,3.73,0,0,0-.72-2.47A2.53,2.53,0,0,0,227.12,14.67Z"/><path class="cls-2" d="M234.37,23.6a1.54,1.54,0,0,1,.31-1,1.16,1.16,0,0,1,.9-.35,1.22,1.22,0,0,1,.92.35,1.45,1.45,0,0,1,.34,1,1.42,1.42,0,0,1-.34,1,1.21,1.21,0,0,1-.92.36,1.24,1.24,0,0,1-.87-.32A1.42,1.42,0,0,1,234.37,23.6Z"/></svg>