<svg id="Layer_1" data-name="Layer 1" xmlns="http://www.w3.org/2000/svg" width="287" height="63" viewBox="0 0 287 63"><defs><style>.cls-1{fill:#3fa7f3;}.cls-2{fill:#fff;}</style></defs><title>svar 3 besked 6</title><rect class="cls-1" width="287" height="63" rx="19.58"/><path class="cls-2" d="M24.83,17.05a7.55,7.55,0,0,1-2,5.68,7.94,7.94,0,0,1-5.79,2H12.86V9.7h4.6a7.34,7.34,0,0,1,5.43,1.94A7.33,7.33,0,0,1,24.83,17.05ZM23,17.11a6,6,0,0,0-1.47-4.41,5.86,5.86,0,0,0-4.37-1.49H14.61v12h2.12a6.43,6.43,0,0,0,4.68-1.53A6,6,0,0,0,23,17.11Z"/><path class="cls-2" d="M32.66,24.9a5.17,5.17,0,0,1-3.93-1.52,5.88,5.88,0,0,1-1.44-4.21,6.51,6.51,0,0,1,1.34-4.32,4.43,4.43,0,0,1,3.59-1.6,4.22,4.22,0,0,1,3.34,1.39A5.27,5.27,0,0,1,36.8,18.3v1.08H29.05a4.48,4.48,0,0,0,1,3,3.46,3.46,0,0,0,2.67,1,9,9,0,0,0,3.59-.76v1.52a8.86,8.86,0,0,1-1.7.56A9.88,9.88,0,0,1,32.66,24.9ZM32.2,14.67a2.79,2.79,0,0,0-2.16.89A4.11,4.11,0,0,0,29.09,18H35a3.73,3.73,0,0,0-.72-2.47A2.53,2.53,0,0,0,32.2,14.67Z"/><path class="cls-2" d="M43.33,23.49a6.15,6.15,0,0,0,.87-.06l.67-.14v1.3a3.24,3.24,0,0,1-.82.22,5.93,5.93,0,0,1-1,.09q-3.26,0-3.26-3.44V14.78H38.21V14l1.61-.71.72-2.4h1v2.6h3.26v1.33H41.52v6.61A2.28,2.28,0,0,0,42,23,1.71,1.71,0,0,0,43.33,23.49Z"/><path class="cls-2" d="M57.31,24.9a5.17,5.17,0,0,1-3.93-1.52,5.88,5.88,0,0,1-1.44-4.21,6.51,6.51,0,0,1,1.34-4.32,4.43,4.43,0,0,1,3.59-1.6,4.24,4.24,0,0,1,3.35,1.39,5.31,5.31,0,0,1,1.23,3.66v1.08H53.7a4.48,4.48,0,0,0,1,3,3.46,3.46,0,0,0,2.67,1A9,9,0,0,0,61,22.65v1.52a8.86,8.86,0,0,1-1.7.56A9.88,9.88,0,0,1,57.31,24.9Zm-.46-10.23a2.79,2.79,0,0,0-2.16.89A4,4,0,0,0,53.75,18h5.87a3.73,3.73,0,0,0-.72-2.47A2.53,2.53,0,0,0,56.85,14.67Z"/><path class="cls-2" d="M69.47,13.25a6.91,6.91,0,0,1,1.35.12L70.58,15a5.86,5.86,0,0,0-1.23-.15A3,3,0,0,0,67,15.9a4,4,0,0,0-1,2.76v6h-1.7V13.45h1.4l.2,2.09H66a4.94,4.94,0,0,1,1.51-1.7A3.4,3.4,0,0,1,69.47,13.25Z"/><path class="cls-2" d="M83.5,13.25a6.91,6.91,0,0,1,1.35.12L84.61,15a6,6,0,0,0-1.23-.15,3,3,0,0,0-2.33,1.1,4,4,0,0,0-1,2.76v6H78.37V13.45h1.41L80,15.54h.09a4.92,4.92,0,0,1,1.5-1.7A3.46,3.46,0,0,1,83.5,13.25Z"/><path class="cls-2" d="M91.69,24.9a5.17,5.17,0,0,1-3.93-1.52,5.88,5.88,0,0,1-1.44-4.21,6.51,6.51,0,0,1,1.34-4.32,4.43,4.43,0,0,1,3.59-1.6,4.24,4.24,0,0,1,3.35,1.39,5.31,5.31,0,0,1,1.23,3.66v1.08H88.09a4.42,4.42,0,0,0,1,3,3.47,3.47,0,0,0,2.68,1,9,9,0,0,0,3.59-.76v1.52a9.17,9.17,0,0,1-1.71.56A9.88,9.88,0,0,1,91.69,24.9Zm-.46-10.23a2.75,2.75,0,0,0-2.15.89,4,4,0,0,0-1,2.44H94a3.73,3.73,0,0,0-.72-2.47A2.52,2.52,0,0,0,91.23,14.67Z"/><path class="cls-2" d="M102.36,23.49a6.15,6.15,0,0,0,.87-.06l.67-.14v1.3a3.24,3.24,0,0,1-.82.22,5.93,5.93,0,0,1-1,.09q-3.26,0-3.26-3.44V14.78H97.24V14l1.61-.71.72-2.4h1v2.6h3.26v1.33h-3.26v6.61A2.23,2.23,0,0,0,101,23,1.68,1.68,0,0,0,102.36,23.49Z"/><path class="cls-2" d="M119.25,23.18h-.1a4,4,0,0,1-3.52,1.72,4.18,4.18,0,0,1-3.43-1.51A6.62,6.62,0,0,1,111,19.1a6.72,6.72,0,0,1,1.23-4.31,4.13,4.13,0,0,1,3.43-1.54,4.07,4.07,0,0,1,3.5,1.66h.14l-.07-.81,0-.79V8.74h1.71v16h-1.39Zm-3.41.29a3.08,3.08,0,0,0,2.53-.95,4.8,4.8,0,0,0,.78-3.06V19.1a5.65,5.65,0,0,0-.79-3.41,3,3,0,0,0-2.54-1,2.6,2.6,0,0,0-2.29,1.17,5.76,5.76,0,0,0-.79,3.28,5.51,5.51,0,0,0,.79,3.25A2.63,2.63,0,0,0,115.84,23.47Z"/><path class="cls-2" d="M131.38,24.69l-.34-1.6H131a4.65,4.65,0,0,1-1.68,1.43,5.1,5.1,0,0,1-2.09.38,3.79,3.79,0,0,1-2.62-.86,3.17,3.17,0,0,1-.94-2.46q0-3.39,5.44-3.56L131,18v-.7a2.87,2.87,0,0,0-.57-2,2.35,2.35,0,0,0-1.82-.63,7.34,7.34,0,0,0-3.18.87l-.52-1.31a7.91,7.91,0,0,1,1.82-.7,7.48,7.48,0,0,1,2-.26,4.31,4.31,0,0,1,3,.89,3.72,3.72,0,0,1,1,2.86v7.67Zm-3.85-1.2a3.47,3.47,0,0,0,2.5-.87,3.24,3.24,0,0,0,.91-2.44v-1l-1.71.07a6.23,6.23,0,0,0-2.92.63,1.9,1.9,0,0,0-.9,1.74A1.76,1.76,0,0,0,126,23,2.31,2.31,0,0,0,127.53,23.49Zm3.38-13.75a2.16,2.16,0,0,1-.63,1.62,2.34,2.34,0,0,1-1.68.61,2.26,2.26,0,0,1-1.65-.6,2.15,2.15,0,0,1-.62-1.61A2.09,2.09,0,0,1,127,8.17a2.33,2.33,0,0,1,1.65-.59,2.29,2.29,0,0,1,1.67.61A2.07,2.07,0,0,1,130.91,9.74Zm-1.11,0a1.15,1.15,0,0,0-.34-.89,1.26,1.26,0,0,0-.86-.31,1.24,1.24,0,0,0-.86.31,1.15,1.15,0,0,0-.34.89,1.21,1.21,0,0,0,.31.89,1.18,1.18,0,0,0,.89.31,1.24,1.24,0,0,0,.87-.31A1.18,1.18,0,0,0,129.8,9.76Z"/><path class="cls-2" d="M141.27,13.25a6.91,6.91,0,0,1,1.35.12L142.38,15a5.86,5.86,0,0,0-1.23-.15,3,3,0,0,0-2.33,1.1,4,4,0,0,0-1,2.76v6h-1.7V13.45h1.4l.2,2.09h.08a4.94,4.94,0,0,1,1.51-1.7A3.4,3.4,0,0,1,141.27,13.25Z"/><path class="cls-2" d="M146.42,24.69h-1.7V8.74h1.7Z"/><path class="cls-2" d="M149.89,10.41a1.14,1.14,0,0,1,.28-.86,1,1,0,0,1,.72-.27,1,1,0,0,1,.71.28,1.1,1.1,0,0,1,.3.85,1.1,1.1,0,0,1-.3.85,1,1,0,0,1-1.43,0A1.13,1.13,0,0,1,149.89,10.41Zm1.84,14.28H150V13.45h1.7Z"/><path class="cls-2" d="M164.54,13.45v1.08l-2.08.25A3.66,3.66,0,0,1,163.2,17a3.35,3.35,0,0,1-1.13,2.64,4.59,4.59,0,0,1-3.1,1,5.58,5.58,0,0,1-.94-.08A1.66,1.66,0,0,0,156.94,22a.75.75,0,0,0,.38.68,2.86,2.86,0,0,0,1.3.22h2a4.43,4.43,0,0,1,2.81.77,2.66,2.66,0,0,1,1,2.23,3.2,3.2,0,0,1-1.5,2.85,8.06,8.06,0,0,1-4.37,1,6,6,0,0,1-3.4-.82,2.64,2.64,0,0,1-1.19-2.32,2.61,2.61,0,0,1,.65-1.77,3.39,3.39,0,0,1,1.85-1,1.74,1.74,0,0,1-.72-.6,1.61,1.61,0,0,1-.3-1,1.82,1.82,0,0,1,.33-1.08,3.67,3.67,0,0,1,1-.89,3,3,0,0,1-1.42-1.22,3.54,3.54,0,0,1-.55-2,3.61,3.61,0,0,1,1.11-2.84,4.48,4.48,0,0,1,3.13-1,6,6,0,0,1,1.59.2Zm-9,13.13a1.5,1.5,0,0,0,.77,1.38,4.16,4.16,0,0,0,2.2.47,6.09,6.09,0,0,0,3.17-.64,2,2,0,0,0,1-1.73,1.38,1.38,0,0,0-.57-1.27,4.31,4.31,0,0,0-2.12-.35h-2a2.7,2.7,0,0,0-1.81.55A2,2,0,0,0,155.58,26.58Zm.92-9.53a2.29,2.29,0,0,0,.67,1.79,2.66,2.66,0,0,0,1.85.6A2.17,2.17,0,0,0,161.51,17,2.23,2.23,0,0,0,159,14.49a2.52,2.52,0,0,0-1.84.64A2.64,2.64,0,0,0,156.5,17.05Z"/><path class="cls-2" d="M179.55,21.63a2.82,2.82,0,0,1-1.17,2.42,5.54,5.54,0,0,1-3.28.85,7.18,7.18,0,0,1-3.49-.71V22.61a8.8,8.8,0,0,0,1.74.65,7.64,7.64,0,0,0,1.79.23,4.1,4.1,0,0,0,2.05-.42,1.42,1.42,0,0,0,.72-1.3,1.4,1.4,0,0,0-.57-1.12,9.19,9.19,0,0,0-2.22-1.11,12.26,12.26,0,0,1-2.23-1,3,3,0,0,1-1-1,2.57,2.57,0,0,1-.33-1.33A2.55,2.55,0,0,1,172.7,14a5.23,5.23,0,0,1,3.07-.79,8.86,8.86,0,0,1,3.55.74l-.61,1.38a8.26,8.26,0,0,0-3.07-.7,3.55,3.55,0,0,0-1.82.38,1.19,1.19,0,0,0-.62,1.05,1.3,1.3,0,0,0,.23.77,2.4,2.4,0,0,0,.75.6,16.45,16.45,0,0,0,2,.83,7.48,7.48,0,0,1,2.7,1.47A2.57,2.57,0,0,1,179.55,21.63Z"/><path class="cls-2" d="M186,23.49a6.15,6.15,0,0,0,.87-.06l.67-.14v1.3a3.24,3.24,0,0,1-.82.22,5.93,5.93,0,0,1-1,.09q-3.25,0-3.26-3.44V14.78h-1.61V14l1.61-.71.72-2.4h1v2.6h3.26v1.33h-3.26v6.61a2.28,2.28,0,0,0,.48,1.56A1.68,1.68,0,0,0,186,23.49Z"/><path class="cls-2" d="M189.59,10.41a1.14,1.14,0,0,1,.29-.86,1,1,0,0,1,.72-.27,1,1,0,0,1,.7.28,1.1,1.1,0,0,1,.3.85,1.1,1.1,0,0,1-.3.85,1,1,0,0,1-1.42,0A1.13,1.13,0,0,1,189.59,10.41Zm1.85,14.28h-1.71V13.45h1.71Z"/><path class="cls-2" d="M196.75,24.69h-1.7V8.74h1.7Z"/><path class="cls-2" d="M212.72,24.69l-.34-1.6h-.08a4.71,4.71,0,0,1-1.67,1.43,5.14,5.14,0,0,1-2.09.38,3.78,3.78,0,0,1-2.62-.86,3.18,3.18,0,0,1-.95-2.46q0-3.39,5.45-3.56l1.9-.06v-.7a2.87,2.87,0,0,0-.57-2,2.33,2.33,0,0,0-1.82-.63,7.34,7.34,0,0,0-3.17.87l-.53-1.31a8.09,8.09,0,0,1,1.82-.7,7.5,7.5,0,0,1,2-.26,4.31,4.31,0,0,1,3,.89A3.75,3.75,0,0,1,214,17v7.67Zm-3.84-1.2a3.43,3.43,0,0,0,2.49-.87,3.2,3.2,0,0,0,.91-2.44v-1l-1.7.07a6.28,6.28,0,0,0-2.93.63,1.89,1.89,0,0,0-.89,1.74,1.75,1.75,0,0,0,.55,1.4A2.36,2.36,0,0,0,208.88,23.49Z"/><path class="cls-2" d="M222.56,14.78H219.7v9.91H218V14.78h-2V14l2-.62v-.62q0-4.15,3.62-4.15a7.45,7.45,0,0,1,2.1.36l-.44,1.37a5.43,5.43,0,0,0-1.69-.32,1.63,1.63,0,0,0-1.42.64,3.57,3.57,0,0,0-.46,2.06v.72h2.86Z"/><path class="cls-2" d="M237.71,23.18h-.09a4,4,0,0,1-3.53,1.72,4.19,4.19,0,0,1-3.43-1.51,6.68,6.68,0,0,1-1.22-4.29,6.72,6.72,0,0,1,1.23-4.31,4.12,4.12,0,0,1,3.42-1.54,4.07,4.07,0,0,1,3.51,1.66h.13l-.07-.81,0-.79V8.74h1.7v16h-1.38Zm-3.4.29a3.09,3.09,0,0,0,2.53-.95,4.8,4.8,0,0,0,.78-3.06V19.1a5.65,5.65,0,0,0-.79-3.41,3,3,0,0,0-2.54-1A2.6,2.6,0,0,0,232,15.84a5.76,5.76,0,0,0-.8,3.28,5.51,5.51,0,0,0,.79,3.25A2.66,2.66,0,0,0,234.31,23.47Z"/><path class="cls-2" d="M242.79,10.41a1.11,1.11,0,0,1,.29-.86,1,1,0,0,1,.71-.27,1,1,0,0,1,.71.28,1.1,1.1,0,0,1,.3.85,1.1,1.1,0,0,1-.3.85,1,1,0,0,1-.71.29,1,1,0,0,1-.71-.29A1.1,1.1,0,0,1,242.79,10.41Zm1.84,14.28h-1.7V13.45h1.7Z"/><path class="cls-2" d="M257.44,13.45v1.08l-2.08.25A3.66,3.66,0,0,1,256.1,17,3.35,3.35,0,0,1,255,19.66a4.57,4.57,0,0,1-3.1,1,5.58,5.58,0,0,1-.94-.08A1.68,1.68,0,0,0,249.84,22a.75.75,0,0,0,.38.68,2.86,2.86,0,0,0,1.3.22h2a4.42,4.42,0,0,1,2.81.77,2.66,2.66,0,0,1,1,2.23,3.2,3.2,0,0,1-1.5,2.85,8,8,0,0,1-4.37,1,6,6,0,0,1-3.4-.82,2.66,2.66,0,0,1-1.19-2.32,2.57,2.57,0,0,1,.66-1.77,3.32,3.32,0,0,1,1.84-1,1.74,1.74,0,0,1-.72-.6,1.6,1.6,0,0,1-.29-1,1.81,1.81,0,0,1,.32-1.08,3.67,3.67,0,0,1,1-.89,3,3,0,0,1-1.42-1.22,3.54,3.54,0,0,1-.55-2,3.61,3.61,0,0,1,1.11-2.84,4.5,4.5,0,0,1,3.14-1,5.94,5.94,0,0,1,1.58.2Zm-9,13.13a1.52,1.52,0,0,0,.77,1.38,4.18,4.18,0,0,0,2.2.47,6.16,6.16,0,0,0,3.18-.64,2,2,0,0,0,1-1.73,1.38,1.38,0,0,0-.57-1.27,4.31,4.31,0,0,0-2.12-.35h-2a2.72,2.72,0,0,0-1.81.55A2,2,0,0,0,248.48,26.58Zm.92-9.53a2.29,2.29,0,0,0,.67,1.79,2.66,2.66,0,0,0,1.85.6,2.18,2.18,0,0,0,2.5-2.42,2.23,2.23,0,0,0-2.53-2.53,2.52,2.52,0,0,0-1.84.64A2.64,2.64,0,0,0,249.4,17.05Z"/><path class="cls-2" d="M272.11,24.69l-.33-1.6h-.09A4.71,4.71,0,0,1,270,24.52a5.14,5.14,0,0,1-2.09.38,3.78,3.78,0,0,1-2.62-.86,3.18,3.18,0,0,1-.95-2.46q0-3.39,5.45-3.56l1.9-.06v-.7a2.92,2.92,0,0,0-.56-2,2.35,2.35,0,0,0-1.82-.63,7.34,7.34,0,0,0-3.18.87l-.53-1.31a8.09,8.09,0,0,1,1.82-.7,7.5,7.5,0,0,1,2-.26,4.31,4.31,0,0,1,3,.89,3.75,3.75,0,0,1,1,2.86v7.67Zm-3.84-1.2a3.47,3.47,0,0,0,2.5-.87,3.23,3.23,0,0,0,.9-2.44v-1l-1.7.07a6.28,6.28,0,0,0-2.93.63,1.91,1.91,0,0,0-.89,1.74,1.73,1.73,0,0,0,.56,1.4A2.31,2.31,0,0,0,268.27,23.49Z"/><path class="cls-2" d="M280.51,23.49a6.15,6.15,0,0,0,.87-.06l.67-.14v1.3a3.15,3.15,0,0,1-.81.22,6,6,0,0,1-1,.09c-2.18,0-3.26-1.15-3.26-3.44V14.78H275.4V14l1.61-.71.71-2.4h1v2.6H282v1.33h-3.26v6.61a2.28,2.28,0,0,0,.48,1.56A1.68,1.68,0,0,0,280.51,23.49Z"/><path class="cls-2" d="M20.26,48.38h-.1a4,4,0,0,1-3.52,1.72,4.18,4.18,0,0,1-3.43-1.51A6.62,6.62,0,0,1,12,44.3,6.72,6.72,0,0,1,13.21,40a4.13,4.13,0,0,1,3.43-1.54,4.07,4.07,0,0,1,3.5,1.66h.14l-.08-.81,0-.79V33.94h1.71v16H20.48Zm-3.41.29a3.08,3.08,0,0,0,2.53-1,4.8,4.8,0,0,0,.78-3.06V44.3a5.65,5.65,0,0,0-.79-3.41,3,3,0,0,0-2.54-1A2.6,2.6,0,0,0,14.54,41a5.76,5.76,0,0,0-.8,3.28,5.58,5.58,0,0,0,.79,3.25A2.66,2.66,0,0,0,16.85,48.67Z"/><path class="cls-2" d="M30.22,50.1a5.17,5.17,0,0,1-3.93-1.52,5.88,5.88,0,0,1-1.44-4.21,6.51,6.51,0,0,1,1.34-4.32,4.43,4.43,0,0,1,3.59-1.6,4.22,4.22,0,0,1,3.34,1.39,5.31,5.31,0,0,1,1.23,3.66v1.08H26.61a4.48,4.48,0,0,0,1,3,3.46,3.46,0,0,0,2.67,1,9,9,0,0,0,3.59-.76v1.52a9.61,9.61,0,0,1-1.7.56A9.88,9.88,0,0,1,30.22,50.1Zm-.46-10.23a2.79,2.79,0,0,0-2.16.89,4.11,4.11,0,0,0-1,2.44h5.88a3.73,3.73,0,0,0-.72-2.47A2.53,2.53,0,0,0,29.76,39.87Z"/><path class="cls-2" d="M39,49.89h-1.7v-16H39Z"/><path class="cls-2" d="M47.32,50.1a5.17,5.17,0,0,1-3.94-1.52,5.88,5.88,0,0,1-1.44-4.21,6.51,6.51,0,0,1,1.34-4.32,4.43,4.43,0,0,1,3.59-1.6,4.24,4.24,0,0,1,3.35,1.39,5.31,5.31,0,0,1,1.23,3.66v1.08H43.71a4.38,4.38,0,0,0,1,3,3.43,3.43,0,0,0,2.67,1A9,9,0,0,0,51,47.85v1.52a9.7,9.7,0,0,1-1.71.56A9.85,9.85,0,0,1,47.32,50.1Zm-.47-10.23a2.75,2.75,0,0,0-2.15.89,4,4,0,0,0-1,2.44h5.87a3.79,3.79,0,0,0-.71-2.47A2.55,2.55,0,0,0,46.85,39.87Z"/><path class="cls-2" d="M67.45,48.38h-.09a4,4,0,0,1-3.53,1.72,4.21,4.21,0,0,1-3.43-1.51,6.68,6.68,0,0,1-1.22-4.29A6.72,6.72,0,0,1,60.41,40a4.12,4.12,0,0,1,3.42-1.54,4.07,4.07,0,0,1,3.51,1.66h.14l-.08-.81,0-.79V33.94h1.7v16H67.68Zm-3.4.29a3.08,3.08,0,0,0,2.53-1,4.8,4.8,0,0,0,.78-3.06V44.3a5.65,5.65,0,0,0-.79-3.41,3,3,0,0,0-2.54-1A2.6,2.6,0,0,0,61.74,41a5.76,5.76,0,0,0-.8,3.28,5.58,5.58,0,0,0,.79,3.25A2.66,2.66,0,0,0,64.05,48.67Z"/><path class="cls-2" d="M77.42,50.1a5.17,5.17,0,0,1-3.93-1.52,5.88,5.88,0,0,1-1.44-4.21,6.46,6.46,0,0,1,1.34-4.32A4.43,4.43,0,0,1,77,38.45a4.22,4.22,0,0,1,3.34,1.39,5.31,5.31,0,0,1,1.23,3.66v1.08H73.81a4.48,4.48,0,0,0,1,3,3.43,3.43,0,0,0,2.67,1,9,9,0,0,0,3.59-.76v1.52a9.44,9.44,0,0,1-1.71.56A9.7,9.7,0,0,1,77.42,50.1ZM77,39.87a2.79,2.79,0,0,0-2.16.89,4,4,0,0,0-1,2.44h5.88A3.73,3.73,0,0,0,79,40.73,2.53,2.53,0,0,0,77,39.87Z"/><path class="cls-2" d="M88.09,48.69a4.94,4.94,0,0,0,.87-.07,4.5,4.5,0,0,0,.66-.13v1.3a3,3,0,0,1-.81.22,5.93,5.93,0,0,1-1,.09q-3.25,0-3.26-3.44V40H83v-.82l1.61-.71.72-2.4h1v2.6h3.26V40H86.28v6.61a2.28,2.28,0,0,0,.48,1.56A1.68,1.68,0,0,0,88.09,48.69Z"/><path class="cls-2" d="M105,48.38h-.09a4,4,0,0,1-3.53,1.72,4.19,4.19,0,0,1-3.43-1.51A6.68,6.68,0,0,1,96.7,44.3,6.72,6.72,0,0,1,97.93,40a4.12,4.12,0,0,1,3.42-1.54,4.07,4.07,0,0,1,3.51,1.66H105l-.07-.81,0-.79V33.94h1.7v16H105.2Zm-3.4.29a3.09,3.09,0,0,0,2.53-1,4.8,4.8,0,0,0,.78-3.06V44.3a5.65,5.65,0,0,0-.79-3.41,3,3,0,0,0-2.54-1A2.6,2.6,0,0,0,99.26,41a5.76,5.76,0,0,0-.8,3.28,5.58,5.58,0,0,0,.79,3.25A2.66,2.66,0,0,0,101.57,48.67Z"/><path class="cls-2" d="M111.79,38.65v7.29a2.91,2.91,0,0,0,.63,2.05,2.51,2.51,0,0,0,2,.68,3.22,3.22,0,0,0,2.58-1,4.9,4.9,0,0,0,.81-3.15V38.65h1.7V49.89h-1.4l-.25-1.51h-.09a3.41,3.41,0,0,1-1.45,1.28,5,5,0,0,1-2.12.44,4.29,4.29,0,0,1-3.07-1,4.14,4.14,0,0,1-1-3.11V38.65Z"/><path class="cls-2" d="M130.73,48.38h-.09a4,4,0,0,1-3.53,1.72,4.19,4.19,0,0,1-3.43-1.51,6.68,6.68,0,0,1-1.22-4.29A6.72,6.72,0,0,1,123.69,40a4.55,4.55,0,0,1,6.93.12h.13l-.07-.81,0-.79V33.94h1.7v16H131Zm-3.4.29a3.06,3.06,0,0,0,2.52-1,4.74,4.74,0,0,0,.79-3.06V44.3a5.64,5.64,0,0,0-.8-3.41,3,3,0,0,0-2.53-1A2.61,2.61,0,0,0,125,41a5.84,5.84,0,0,0-.79,3.28,5.51,5.51,0,0,0,.79,3.25A2.66,2.66,0,0,0,127.33,48.67Z"/><path class="cls-2" d="M140.7,50.1a5.17,5.17,0,0,1-3.93-1.52,5.88,5.88,0,0,1-1.44-4.21,6.51,6.51,0,0,1,1.33-4.32,4.45,4.45,0,0,1,3.6-1.6,4.22,4.22,0,0,1,3.34,1.39,5.31,5.31,0,0,1,1.23,3.66v1.08h-7.74a4.43,4.43,0,0,0,1,3,3.43,3.43,0,0,0,2.67,1,9,9,0,0,0,3.59-.76v1.52a9.44,9.44,0,0,1-1.71.56A9.7,9.7,0,0,1,140.7,50.1Zm-.46-10.23a2.78,2.78,0,0,0-2.16.89,4,4,0,0,0-1,2.44H143a3.73,3.73,0,0,0-.72-2.47A2.53,2.53,0,0,0,140.24,39.87Z"/><path class="cls-2" d="M147.49,48.8a1.54,1.54,0,0,1,.31-1,1.16,1.16,0,0,1,.9-.35,1.22,1.22,0,0,1,.92.35,1.45,1.45,0,0,1,.34,1,1.47,1.47,0,0,1-.34,1,1.21,1.21,0,0,1-.92.36,1.24,1.24,0,0,1-.87-.32A1.42,1.42,0,0,1,147.49,48.8Z"/><path class="cls-2" d="M153.07,48.8a1.54,1.54,0,0,1,.32-1,1.14,1.14,0,0,1,.89-.35,1.23,1.23,0,0,1,.93.35,1.49,1.49,0,0,1,.33,1,1.47,1.47,0,0,1-.33,1,1.35,1.35,0,0,1-1.79,0A1.42,1.42,0,0,1,153.07,48.8Z"/><path class="cls-2" d="M158.66,48.8a1.59,1.59,0,0,1,.31-1,1.16,1.16,0,0,1,.9-.35,1.23,1.23,0,0,1,.93.35,1.49,1.49,0,0,1,.33,1,1.42,1.42,0,0,1-.34,1,1.19,1.19,0,0,1-.92.36,1.2,1.2,0,0,1-.86-.32A1.42,1.42,0,0,1,158.66,48.8Z"/><path class="cls-2" d="M178.67,45.9A3.68,3.68,0,0,1,177.23,49a6.21,6.21,0,0,1-3.9,1.11,9.75,9.75,0,0,1-4.1-.69V47.73a11,11,0,0,0,2,.61,10.72,10.72,0,0,0,2.16.23,4.34,4.34,0,0,0,2.62-.66,2.17,2.17,0,0,0,.88-1.84,2.36,2.36,0,0,0-.31-1.28,2.94,2.94,0,0,0-1.05-.92,13.73,13.73,0,0,0-2.23-.95,7,7,0,0,1-3-1.78,3.89,3.89,0,0,1-.9-2.67,3.31,3.31,0,0,1,1.3-2.76,5.45,5.45,0,0,1,3.45-1,10.09,10.09,0,0,1,4.11.82L177.74,37a9.26,9.26,0,0,0-3.61-.78,3.47,3.47,0,0,0-2.16.6,2,2,0,0,0-.78,1.65,2.58,2.58,0,0,0,.29,1.28,2.69,2.69,0,0,0,1,.91,11.93,11.93,0,0,0,2.09.92,8.27,8.27,0,0,1,3.24,1.8A3.56,3.56,0,0,1,178.67,45.9Z"/><path class="cls-2" d="M183.18,49.89h-1.7v-16h1.7Z"/><path class="cls-2" d="M191.54,50.1a5.17,5.17,0,0,1-3.94-1.52,5.88,5.88,0,0,1-1.44-4.21,6.51,6.51,0,0,1,1.34-4.32,4.43,4.43,0,0,1,3.59-1.6,4.24,4.24,0,0,1,3.35,1.39,5.31,5.31,0,0,1,1.23,3.66v1.08h-7.74a4.38,4.38,0,0,0,1,3,3.43,3.43,0,0,0,2.67,1,9,9,0,0,0,3.59-.76v1.52a9.7,9.7,0,0,1-1.71.56A9.85,9.85,0,0,1,191.54,50.1Zm-.47-10.23a2.75,2.75,0,0,0-2.15.89A4,4,0,0,0,188,43.2h5.87a3.73,3.73,0,0,0-.72-2.47A2.52,2.52,0,0,0,191.07,39.87Z"/><path class="cls-2" d="M202.2,48.69a7,7,0,0,0,1.54-.2v1.3a3.24,3.24,0,0,1-.82.22,5.93,5.93,0,0,1-1,.09q-3.25,0-3.26-3.44V40h-1.61v-.82l1.61-.71.72-2.4h1v2.6h3.26V40H200.4v6.61a2.28,2.28,0,0,0,.48,1.56A1.68,1.68,0,0,0,202.2,48.69Z"/><path class="cls-2" d="M219.09,48.38H219a4,4,0,0,1-3.53,1.72A4.19,4.19,0,0,1,212,48.59a6.62,6.62,0,0,1-1.23-4.29A6.72,6.72,0,0,1,212,40a4.16,4.16,0,0,1,3.43-1.54A4.1,4.1,0,0,1,219,40.11h.13L219,39.3l0-.79V33.94h1.7v16h-1.39Zm-3.41.29a3.07,3.07,0,0,0,2.53-1,4.74,4.74,0,0,0,.79-3.06V44.3a5.64,5.64,0,0,0-.8-3.41,3,3,0,0,0-2.54-1A2.61,2.61,0,0,0,213.37,41a5.76,5.76,0,0,0-.79,3.28,5.51,5.51,0,0,0,.79,3.25A2.64,2.64,0,0,0,215.68,48.67Z"/><path class="cls-2" d="M229.06,50.1a5.17,5.17,0,0,1-3.94-1.52,5.88,5.88,0,0,1-1.44-4.21A6.51,6.51,0,0,1,225,40.05a4.44,4.44,0,0,1,3.6-1.6A4.23,4.23,0,0,1,232,39.84a5.31,5.31,0,0,1,1.23,3.66v1.08h-7.74a4.38,4.38,0,0,0,1,3,3.43,3.43,0,0,0,2.67,1,9,9,0,0,0,3.59-.76v1.52a9.7,9.7,0,0,1-1.71.56A9.85,9.85,0,0,1,229.06,50.1Zm-.47-10.23a2.75,2.75,0,0,0-2.15.89,4,4,0,0,0-.95,2.44h5.87a3.79,3.79,0,0,0-.71-2.47A2.55,2.55,0,0,0,228.59,39.87Z"/><path class="cls-2" d="M239.72,48.69a7,7,0,0,0,1.54-.2v1.3a3.24,3.24,0,0,1-.82.22,5.93,5.93,0,0,1-1,.09q-3.25,0-3.26-3.44V40H234.6v-.82l1.61-.71.72-2.4h1v2.6h3.26V40h-3.26v6.61a2.28,2.28,0,0,0,.48,1.56A1.68,1.68,0,0,0,239.72,48.69Z"/><path class="cls-2" d="M243.26,48.8a1.54,1.54,0,0,1,.31-1,1.16,1.16,0,0,1,.9-.35,1.26,1.26,0,0,1,.93.35,1.49,1.49,0,0,1,.33,1,1.42,1.42,0,0,1-.34,1,1.19,1.19,0,0,1-.92.36,1.24,1.24,0,0,1-.87-.32A1.42,1.42,0,0,1,243.26,48.8Z"/></svg>