<svg id="Layer_1" data-name="Layer 1" xmlns="http://www.w3.org/2000/svg" width="256" height="39.16" viewBox="0 0 256 39.16"><defs><style>.cls-1{fill:#3fa7f3;}.cls-2{fill:#fff;}</style></defs><title>svar 2 besked 5</title><rect class="cls-1" width="256" height="39.16" rx="19.58"/><path class="cls-2" d="M13.61,24.69H11.86V9.7h8.36v1.55H13.61v5.48h6.21v1.55H13.61Z"/><path class="cls-2" d="M24,13.45v7.29a2.91,2.91,0,0,0,.63,2.05,2.52,2.52,0,0,0,2,.68,3.22,3.22,0,0,0,2.58-1A4.88,4.88,0,0,0,30,19.36V13.45h1.7V24.69h-1.4l-.25-1.51H30a3.41,3.41,0,0,1-1.45,1.28,4.93,4.93,0,0,1-2.12.44,4.3,4.3,0,0,1-3.07-1,4.15,4.15,0,0,1-1-3.12V13.45Z"/><path class="cls-2" d="M39.83,24.9a4.77,4.77,0,0,1-3.78-1.51,6.12,6.12,0,0,1-1.34-4.25,6.32,6.32,0,0,1,1.36-4.35,4.86,4.86,0,0,1,3.87-1.54,8.1,8.1,0,0,1,1.62.17,5.92,5.92,0,0,1,1.27.41l-.52,1.45a8.44,8.44,0,0,0-1.23-.38,5.44,5.44,0,0,0-1.18-.14q-3.43,0-3.43,4.36a5.19,5.19,0,0,0,.84,3.18,2.89,2.89,0,0,0,2.47,1.11,7.51,7.51,0,0,0,2.89-.61v1.51A6.16,6.16,0,0,1,39.83,24.9Z"/><path class="cls-2" d="M47,18.94a18.36,18.36,0,0,1,1.35-1.64L52,13.45h2l-4.56,4.79,4.87,6.45H52.26l-4-5.31L47,20.49v4.2H45.33V8.74H47V17.2c0,.37,0,.95-.08,1.74Z"/><path class="cls-2" d="M69.5,24.69V17.42a2.93,2.93,0,0,0-.63-2.05,2.54,2.54,0,0,0-2-.68,3.21,3.21,0,0,0-2.59,1,4.83,4.83,0,0,0-.82,3.16v5.87h-1.7V8.74h1.7v4.83A11.26,11.26,0,0,1,63.43,15h.1A3.47,3.47,0,0,1,65,13.74a4.56,4.56,0,0,1,2.12-.47,4.36,4.36,0,0,1,3.09,1,4.11,4.11,0,0,1,1,3.11v7.33Z"/><path class="cls-2" d="M77.16,24.69,72.89,13.45h1.83l2.42,6.67a29.22,29.22,0,0,1,1,3h.09a21.55,21.55,0,0,1,.71-2.25c.4-1.14,1.29-3.62,2.69-7.45h1.82L79.15,24.69Z"/><path class="cls-2" d="M94.92,19.06a6.21,6.21,0,0,1-1.38,4.29,4.89,4.89,0,0,1-3.83,1.55A5.11,5.11,0,0,1,87,24.19a4.63,4.63,0,0,1-1.8-2,7.15,7.15,0,0,1-.64-3.1A6.17,6.17,0,0,1,86,14.78a4.86,4.86,0,0,1,3.81-1.53,4.75,4.75,0,0,1,3.75,1.57A6.14,6.14,0,0,1,94.92,19.06Zm-8.56,0a5.28,5.28,0,0,0,.86,3.28,3,3,0,0,0,2.53,1.13,3,3,0,0,0,2.54-1.12,5.31,5.31,0,0,0,.87-3.29,5.18,5.18,0,0,0-.87-3.25,3.46,3.46,0,0,0-5.08,0A5.26,5.26,0,0,0,86.36,19.06Z"/><path class="cls-2" d="M103,13.25a6.74,6.74,0,0,1,1.34.12L104.14,15a6,6,0,0,0-1.23-.15,3,3,0,0,0-2.34,1.1,4.07,4.07,0,0,0-1,2.76v6H97.9V13.45h1.41l.19,2.09h.08a4.94,4.94,0,0,1,1.51-1.7A3.46,3.46,0,0,1,103,13.25Z"/><path class="cls-2" d="M116.68,24.9a5.17,5.17,0,0,1-3.93-1.52,5.88,5.88,0,0,1-1.44-4.22,6.5,6.5,0,0,1,1.33-4.31,4.45,4.45,0,0,1,3.6-1.6,4.22,4.22,0,0,1,3.34,1.39,5.31,5.31,0,0,1,1.23,3.66v1.08h-7.74a4.43,4.43,0,0,0,1,3,3.43,3.43,0,0,0,2.67,1,9,9,0,0,0,3.59-.76v1.52a9.44,9.44,0,0,1-1.71.56A9.78,9.78,0,0,1,116.68,24.9Zm-.46-10.23a2.79,2.79,0,0,0-2.16.88,4.1,4.1,0,0,0-1,2.45H119a3.73,3.73,0,0,0-.72-2.47A2.53,2.53,0,0,0,116.22,14.67Z"/><path class="cls-2" d="M128.84,13.25a6.74,6.74,0,0,1,1.34.12L130,15a6,6,0,0,0-1.23-.15,3,3,0,0,0-2.34,1.1,4.07,4.07,0,0,0-1,2.76v6h-1.71V13.45h1.41l.19,2.09h.08a4.94,4.94,0,0,1,1.51-1.7A3.46,3.46,0,0,1,128.84,13.25Z"/><path class="cls-2" d="M145.43,24.69V17.42a2.93,2.93,0,0,0-.63-2.05,2.52,2.52,0,0,0-2-.68,3.21,3.21,0,0,0-2.59,1,4.83,4.83,0,0,0-.82,3.16v5.87h-1.7V8.74h1.7v4.83a9.68,9.68,0,0,1-.08,1.44h.1a3.47,3.47,0,0,1,1.43-1.27,4.56,4.56,0,0,1,2.12-.47,4.34,4.34,0,0,1,3.09,1,4.11,4.11,0,0,1,1,3.11v7.33Z"/><path class="cls-2" d="M152.23,13.45v7.29a3,3,0,0,0,.62,2.05,2.52,2.52,0,0,0,2,.68,3.19,3.19,0,0,0,2.58-1,4.88,4.88,0,0,0,.82-3.15V13.45h1.7V24.69H158.5l-.24-1.51h-.09a3.43,3.43,0,0,1-1.46,1.28,4.88,4.88,0,0,1-2.11.44,4.29,4.29,0,0,1-3.07-1,4.15,4.15,0,0,1-1-3.12V13.45Z"/><path class="cls-2" d="M171.21,24.69V17.42a2.93,2.93,0,0,0-.63-2.05,2.54,2.54,0,0,0-2-.68,3.22,3.22,0,0,0-2.58,1,4.77,4.77,0,0,0-.82,3.14v5.9h-1.7V13.45h1.38l.28,1.54h.08a3.56,3.56,0,0,1,1.47-1.29,4.82,4.82,0,0,1,2.1-.45,4.22,4.22,0,0,1,3,1,4.13,4.13,0,0,1,1,3.13v7.33Z"/><path class="cls-2" d="M189.51,23.18h-.09a4,4,0,0,1-3.53,1.72,4.19,4.19,0,0,1-3.43-1.51,6.62,6.62,0,0,1-1.22-4.29,6.72,6.72,0,0,1,1.23-4.31,4.55,4.55,0,0,1,6.93.12h.13l-.07-.81,0-.79V8.74h1.7v16h-1.38Zm-3.4.29a3.06,3.06,0,0,0,2.52-.95,4.74,4.74,0,0,0,.79-3.06V19.1a5.64,5.64,0,0,0-.8-3.41,3,3,0,0,0-2.53-1,2.61,2.61,0,0,0-2.3,1.17,5.76,5.76,0,0,0-.79,3.28,5.51,5.51,0,0,0,.79,3.25A2.66,2.66,0,0,0,186.11,23.47Z"/><path class="cls-2" d="M199.48,24.9a5.17,5.17,0,0,1-3.93-1.52,5.84,5.84,0,0,1-1.44-4.22,6.5,6.5,0,0,1,1.33-4.31,4.44,4.44,0,0,1,3.6-1.6,4.22,4.22,0,0,1,3.34,1.39,5.31,5.31,0,0,1,1.23,3.66v1.08h-7.74a4.43,4.43,0,0,0,1,3,3.43,3.43,0,0,0,2.67,1,9,9,0,0,0,3.59-.76v1.52a9.44,9.44,0,0,1-1.71.56A9.78,9.78,0,0,1,199.48,24.9ZM199,14.67a2.79,2.79,0,0,0-2.16.88,4,4,0,0,0-1,2.45h5.88a3.73,3.73,0,0,0-.72-2.47A2.53,2.53,0,0,0,199,14.67Z"/><path class="cls-2" d="M205.15,29.74a4.1,4.1,0,0,1-1.58-.26V28.1a5.25,5.25,0,0,0,1.39.2,1.47,1.47,0,0,0,1.18-.43,2,2,0,0,0,.37-1.33V13.45h1.7v13Q208.21,29.74,205.15,29.74Zm1.22-19.33a1.11,1.11,0,0,1,.29-.86,1,1,0,0,1,.71-.27,1,1,0,0,1,.71.28,1.1,1.1,0,0,1,.3.85,1.1,1.1,0,0,1-.3.85,1,1,0,0,1-.71.29,1,1,0,0,1-.71-.29A1.1,1.1,0,0,1,206.37,10.41Z"/><path class="cls-2" d="M213.53,24.69h-1.71V8.74h1.71Z"/><path class="cls-2" d="M217,10.41a1.14,1.14,0,0,1,.29-.86,1,1,0,0,1,.72-.27,1,1,0,0,1,.7.28,1.1,1.1,0,0,1,.3.85,1.1,1.1,0,0,1-.3.85,1,1,0,0,1-1.42,0A1.13,1.13,0,0,1,217,10.41Zm1.85,14.28h-1.71V13.45h1.71Z"/><path class="cls-2" d="M231.64,13.45v1.08l-2.08.25a4,4,0,0,1,.52.93A3.64,3.64,0,0,1,230.3,17a3.35,3.35,0,0,1-1.13,2.64,4.56,4.56,0,0,1-3.09,1,5.7,5.7,0,0,1-1-.08A1.67,1.67,0,0,0,224.05,22a.75.75,0,0,0,.37.69,2.91,2.91,0,0,0,1.31.22h2a4.4,4.4,0,0,1,2.8.77,2.66,2.66,0,0,1,1,2.23,3.2,3.2,0,0,1-1.5,2.85,8,8,0,0,1-4.36,1,6,6,0,0,1-3.4-.82A2.65,2.65,0,0,1,221,26.6a2.62,2.62,0,0,1,.66-1.78,3.37,3.37,0,0,1,1.84-1,1.87,1.87,0,0,1-.72-.6,1.67,1.67,0,0,1-.29-1,1.82,1.82,0,0,1,.33-1.08,3.61,3.61,0,0,1,1-.89,3,3,0,0,1-1.42-1.22,3.62,3.62,0,0,1-.55-2A3.61,3.61,0,0,1,223,14.25a4.52,4.52,0,0,1,3.14-1,6,6,0,0,1,1.59.2Zm-9,13.13a1.52,1.52,0,0,0,.77,1.38,4.2,4.2,0,0,0,2.21.47,6.14,6.14,0,0,0,3.17-.64,1.94,1.94,0,0,0,1-1.74,1.38,1.38,0,0,0-.56-1.26,4.38,4.38,0,0,0-2.13-.35h-2a2.67,2.67,0,0,0-1.8.55A2,2,0,0,0,222.68,26.58Zm.92-9.53a2.32,2.32,0,0,0,.67,1.79,2.68,2.68,0,0,0,1.86.6A2.17,2.17,0,0,0,228.62,17a2.23,2.23,0,0,0-2.52-2.53,2.51,2.51,0,0,0-1.85.64A2.64,2.64,0,0,0,223.6,17.05Z"/><path class="cls-2" d="M233.71,23.6c0-.93.41-1.39,1.23-1.39a1.15,1.15,0,0,1,.91.36,1.76,1.76,0,0,1,0,2.05,1.14,1.14,0,0,1-.91.37,1.3,1.3,0,0,1-.89-.32A1.42,1.42,0,0,1,233.71,23.6Zm1.78-3h-1.08L233.89,9.7H236Z"/></svg>