<svg id="Layer_1" data-name="Layer 1" xmlns="http://www.w3.org/2000/svg" width="287" height="63" viewBox="0 0 287 63"><defs><style>.cls-1{fill:#3fa7f3;}.cls-2{fill:#fff;}</style></defs><title>svar 3 besked 1</title><rect class="cls-1" width="287" height="63" rx="19.58"/><path class="cls-2" d="M14.61,24.69H12.86V9.7h8.36v1.55H14.61v5.48h6.21v1.55H14.61Z"/><path class="cls-2" d="M25,13.45v7.29a2.91,2.91,0,0,0,.63,2.05,2.52,2.52,0,0,0,2,.68,3.22,3.22,0,0,0,2.58-1A4.88,4.88,0,0,0,31,19.36V13.45h1.7V24.69h-1.4l-.25-1.51H31a3.41,3.41,0,0,1-1.45,1.28,4.93,4.93,0,0,1-2.12.44,4.3,4.3,0,0,1-3.07-1,4.14,4.14,0,0,1-1-3.11V13.45Z"/><path class="cls-2" d="M40.83,24.9a4.8,4.8,0,0,1-3.78-1.5,6.17,6.17,0,0,1-1.34-4.26,6.32,6.32,0,0,1,1.36-4.35,4.86,4.86,0,0,1,3.87-1.54,8.1,8.1,0,0,1,1.62.17,5.92,5.92,0,0,1,1.27.41l-.52,1.45a8.44,8.44,0,0,0-1.23-.38,6.14,6.14,0,0,0-1.18-.14q-3.43,0-3.43,4.36a5.19,5.19,0,0,0,.84,3.18,2.9,2.9,0,0,0,2.47,1.11,7.68,7.68,0,0,0,2.89-.6v1.5A6.16,6.16,0,0,1,40.83,24.9Z"/><path class="cls-2" d="M48,18.94a19.91,19.91,0,0,1,1.35-1.64L53,13.45h2l-4.56,4.79,4.87,6.45H53.26l-4-5.31L48,20.49v4.2H46.33V8.74H48V17.2c0,.37,0,.95-.08,1.74Z"/><path class="cls-2" d="M70.5,24.69V17.42a2.93,2.93,0,0,0-.63-2.05,2.54,2.54,0,0,0-2-.68,3.21,3.21,0,0,0-2.59,1,4.83,4.83,0,0,0-.82,3.16v5.87h-1.7V8.74h1.7v4.83A11.26,11.26,0,0,1,64.43,15h.1A3.47,3.47,0,0,1,66,13.74a4.56,4.56,0,0,1,2.12-.47,4.36,4.36,0,0,1,3.09,1,4.11,4.11,0,0,1,1,3.11v7.33Z"/><path class="cls-2" d="M78.16,24.69,73.89,13.45h1.83l2.42,6.67a29.22,29.22,0,0,1,1,3h.09a21.55,21.55,0,0,1,.71-2.25c.4-1.13,1.3-3.62,2.69-7.45h1.82L80.15,24.69Z"/><path class="cls-2" d="M95.92,19.06a6.2,6.2,0,0,1-1.38,4.29,4.89,4.89,0,0,1-3.83,1.55A5.11,5.11,0,0,1,88,24.19a4.63,4.63,0,0,1-1.8-2,7.12,7.12,0,0,1-.64-3.1A6.17,6.17,0,0,1,87,14.78a4.86,4.86,0,0,1,3.81-1.53,4.75,4.75,0,0,1,3.75,1.57A6.14,6.14,0,0,1,95.92,19.06Zm-8.56,0a5.28,5.28,0,0,0,.86,3.28,3,3,0,0,0,2.53,1.13,3,3,0,0,0,2.54-1.12,5.31,5.31,0,0,0,.87-3.29,5.18,5.18,0,0,0-.87-3.25,3.06,3.06,0,0,0-2.56-1.12,3,3,0,0,0-2.52,1.1A5.26,5.26,0,0,0,87.36,19.06Z"/><path class="cls-2" d="M104,13.25a6.74,6.74,0,0,1,1.34.12L105.14,15a6,6,0,0,0-1.23-.15,3,3,0,0,0-2.34,1.1,4.07,4.07,0,0,0-1,2.76v6H98.9V13.45h1.41l.19,2.09h.08a4.94,4.94,0,0,1,1.51-1.7A3.46,3.46,0,0,1,104,13.25Z"/><path class="cls-2" d="M117.68,24.9a5.17,5.17,0,0,1-3.93-1.52,5.88,5.88,0,0,1-1.45-4.21,6.51,6.51,0,0,1,1.34-4.32,4.45,4.45,0,0,1,3.6-1.6,4.22,4.22,0,0,1,3.34,1.39,5.31,5.31,0,0,1,1.23,3.66v1.08h-7.74a4.43,4.43,0,0,0,1,3,3.43,3.43,0,0,0,2.67,1,9,9,0,0,0,3.59-.76v1.52a9.44,9.44,0,0,1-1.71.56A9.78,9.78,0,0,1,117.68,24.9Zm-.46-10.23a2.76,2.76,0,0,0-2.16.89,4,4,0,0,0-1,2.44H120a3.73,3.73,0,0,0-.72-2.47A2.53,2.53,0,0,0,117.22,14.67Z"/><path class="cls-2" d="M129.84,13.25a6.74,6.74,0,0,1,1.34.12L131,15a6,6,0,0,0-1.23-.15,3,3,0,0,0-2.34,1.1,4.07,4.07,0,0,0-1,2.76v6h-1.71V13.45h1.41l.19,2.09h.08a4.94,4.94,0,0,1,1.51-1.7A3.46,3.46,0,0,1,129.84,13.25Z"/><path class="cls-2" d="M144.05,10.41a1.14,1.14,0,0,1,.29-.86,1,1,0,0,1,.72-.27,1,1,0,0,1,.7.28,1.1,1.1,0,0,1,.3.85,1.1,1.1,0,0,1-.3.85,1,1,0,0,1-.7.29,1,1,0,0,1-.72-.29A1.13,1.13,0,0,1,144.05,10.41Zm1.85,14.28h-1.7V13.45h1.7Z"/><path class="cls-2" d="M162.65,24.69V17.42a3,3,0,0,0-.62-2.05,2.56,2.56,0,0,0-2-.68,3.23,3.23,0,0,0-2.59,1,4.84,4.84,0,0,0-.82,3.15v5.89H155V13.45h1.39l.27,1.54h.09a3.47,3.47,0,0,1,1.46-1.29,4.82,4.82,0,0,1,2.1-.45,4.28,4.28,0,0,1,3.06,1,4.16,4.16,0,0,1,1,3.13v7.33Z"/><path class="cls-2" d="M172.6,24.9a5.17,5.17,0,0,1-3.93-1.52,5.88,5.88,0,0,1-1.44-4.21,6.51,6.51,0,0,1,1.33-4.32,4.45,4.45,0,0,1,3.6-1.6,4.22,4.22,0,0,1,3.34,1.39,5.31,5.31,0,0,1,1.23,3.66v1.08H169a4.43,4.43,0,0,0,1,3,3.43,3.43,0,0,0,2.67,1,9,9,0,0,0,3.59-.76v1.52a9.44,9.44,0,0,1-1.71.56A9.7,9.7,0,0,1,172.6,24.9Zm-.46-10.23a2.79,2.79,0,0,0-2.16.89A4,4,0,0,0,169,18h5.88a3.73,3.73,0,0,0-.72-2.47A2.53,2.53,0,0,0,172.14,14.67Z"/><path class="cls-2" d="M187.28,23.18h-.09a4,4,0,0,1-3.53,1.72,4.19,4.19,0,0,1-3.43-1.51A6.68,6.68,0,0,1,179,19.1a6.72,6.72,0,0,1,1.23-4.31,4.12,4.12,0,0,1,3.42-1.54,4.07,4.07,0,0,1,3.51,1.66h.13l-.07-.81,0-.79V8.74h1.7v16h-1.38Zm-3.4.29a3.09,3.09,0,0,0,2.53-.95,4.8,4.8,0,0,0,.78-3.06V19.1a5.72,5.72,0,0,0-.79-3.41,3,3,0,0,0-2.54-1,2.6,2.6,0,0,0-2.29,1.17,5.76,5.76,0,0,0-.8,3.28,5.51,5.51,0,0,0,.79,3.25A2.66,2.66,0,0,0,183.88,23.47Z"/><path class="cls-2" d="M197.25,24.9a5.17,5.17,0,0,1-3.93-1.52,5.88,5.88,0,0,1-1.44-4.21,6.51,6.51,0,0,1,1.33-4.32,4.45,4.45,0,0,1,3.6-1.6,4.22,4.22,0,0,1,3.34,1.39,5.31,5.31,0,0,1,1.23,3.66v1.08h-7.74a4.43,4.43,0,0,0,1,3,3.43,3.43,0,0,0,2.67,1,9,9,0,0,0,3.59-.76v1.52a9.44,9.44,0,0,1-1.71.56A9.7,9.7,0,0,1,197.25,24.9Zm-.46-10.23a2.79,2.79,0,0,0-2.16.89,4,4,0,0,0-.95,2.44h5.88a3.73,3.73,0,0,0-.72-2.47A2.53,2.53,0,0,0,196.79,14.67Z"/><path class="cls-2" d="M209.41,13.25a6.74,6.74,0,0,1,1.34.12L210.52,15a6,6,0,0,0-1.23-.15A3,3,0,0,0,207,15.9a4.07,4.07,0,0,0-1,2.76v6h-1.71V13.45h1.41l.19,2.09H206a4.94,4.94,0,0,1,1.51-1.7A3.46,3.46,0,0,1,209.41,13.25Z"/><path class="cls-2" d="M220.55,24.69V17.42a2.93,2.93,0,0,0-.63-2.05,2.56,2.56,0,0,0-2-.68,3.21,3.21,0,0,0-2.58,1,4.78,4.78,0,0,0-.82,3.15v5.89h-1.7V13.45h1.38l.28,1.54h.08a3.59,3.59,0,0,1,1.46-1.29,4.84,4.84,0,0,1,2.11-.45,4.27,4.27,0,0,1,3.05,1,4.13,4.13,0,0,1,1,3.13v7.33Z"/><path class="cls-2" d="M225.5,23.6a1.54,1.54,0,0,1,.31-1,1.16,1.16,0,0,1,.9-.35,1.26,1.26,0,0,1,.93.35,1.49,1.49,0,0,1,.33,1,1.42,1.42,0,0,1-.34,1,1.19,1.19,0,0,1-.92.36,1.24,1.24,0,0,1-.87-.32A1.42,1.42,0,0,1,225.5,23.6Z"/><path class="cls-2" d="M231.09,23.6a1.54,1.54,0,0,1,.31-1,1.16,1.16,0,0,1,.9-.35,1.22,1.22,0,0,1,.92.35,1.45,1.45,0,0,1,.34,1,1.47,1.47,0,0,1-.34,1,1.21,1.21,0,0,1-.92.36,1.24,1.24,0,0,1-.87-.32A1.42,1.42,0,0,1,231.09,23.6Z"/><path class="cls-2" d="M236.67,23.6a1.54,1.54,0,0,1,.32-1,1.14,1.14,0,0,1,.89-.35,1.23,1.23,0,0,1,.93.35,1.49,1.49,0,0,1,.33,1,1.47,1.47,0,0,1-.33,1,1.35,1.35,0,0,1-1.79,0A1.42,1.42,0,0,1,236.67,23.6Z"/><path class="cls-2" d="M256.68,20.7a3.68,3.68,0,0,1-1.44,3.09,6.18,6.18,0,0,1-3.89,1.11,9.68,9.68,0,0,1-4.1-.69V22.53a11.24,11.24,0,0,0,4.16.84,4.32,4.32,0,0,0,2.62-.66,2.18,2.18,0,0,0,.89-1.84,2.36,2.36,0,0,0-.32-1.28,3,3,0,0,0-1-.92,14.57,14.57,0,0,0-2.23-1,7.15,7.15,0,0,1-3-1.77,3.93,3.93,0,0,1-.9-2.68,3.31,3.31,0,0,1,1.3-2.76,5.45,5.45,0,0,1,3.45-1,10.09,10.09,0,0,1,4.11.82l-.54,1.51a9.29,9.29,0,0,0-3.61-.78,3.48,3.48,0,0,0-2.17.6,2,2,0,0,0-.78,1.65,2.58,2.58,0,0,0,.29,1.28,2.69,2.69,0,0,0,1,.91,11.93,11.93,0,0,0,2.09.92,8.27,8.27,0,0,1,3.24,1.8A3.56,3.56,0,0,1,256.68,20.7Z"/><path class="cls-2" d="M261.19,24.69h-1.7V8.74h1.7Z"/><path class="cls-2" d="M269.55,24.9a5.17,5.17,0,0,1-3.93-1.52,5.84,5.84,0,0,1-1.45-4.21,6.51,6.51,0,0,1,1.34-4.32,4.44,4.44,0,0,1,3.6-1.6,4.23,4.23,0,0,1,3.34,1.39,5.31,5.31,0,0,1,1.23,3.66v1.08h-7.74a4.43,4.43,0,0,0,1,3,3.43,3.43,0,0,0,2.67,1,9,9,0,0,0,3.59-.76v1.52a9.44,9.44,0,0,1-1.71.56A9.78,9.78,0,0,1,269.55,24.9Zm-.46-10.23a2.76,2.76,0,0,0-2.16.89A4,4,0,0,0,266,18h5.87a3.73,3.73,0,0,0-.71-2.47A2.54,2.54,0,0,0,269.09,14.67Z"/><path class="cls-2" d="M280.21,23.49a6.15,6.15,0,0,0,.87-.06l.67-.14v1.3a3.12,3.12,0,0,1-.82.22,5.81,5.81,0,0,1-1,.09c-2.18,0-3.26-1.15-3.26-3.44V14.78H275.1V14l1.61-.71.71-2.4h1v2.6h3.26v1.33h-3.26v6.61a2.28,2.28,0,0,0,.48,1.56A1.68,1.68,0,0,0,280.21,23.49Z"/><path class="cls-2" d="M20.26,48.38h-.1a4,4,0,0,1-3.52,1.72,4.18,4.18,0,0,1-3.43-1.51A6.62,6.62,0,0,1,12,44.3,6.72,6.72,0,0,1,13.21,40a4.13,4.13,0,0,1,3.43-1.54,4.07,4.07,0,0,1,3.5,1.66h.14l-.07-.81-.05-.79V33.94h1.71v16H20.48Zm-3.41.29a3.08,3.08,0,0,0,2.53-1,4.8,4.8,0,0,0,.78-3.06V44.3a5.65,5.65,0,0,0-.79-3.41,3,3,0,0,0-2.54-1A2.6,2.6,0,0,0,14.54,41a5.76,5.76,0,0,0-.8,3.28,5.58,5.58,0,0,0,.79,3.25A2.66,2.66,0,0,0,16.85,48.67Z"/><path class="cls-2" d="M30.22,50.1a5.17,5.17,0,0,1-3.93-1.52,5.88,5.88,0,0,1-1.44-4.22,6.45,6.45,0,0,1,1.34-4.31,4.43,4.43,0,0,1,3.59-1.6,4.22,4.22,0,0,1,3.34,1.39,5.27,5.27,0,0,1,1.24,3.66v1.08H26.61a4.48,4.48,0,0,0,1,3,3.46,3.46,0,0,0,2.67,1,9,9,0,0,0,3.59-.76v1.52a9.61,9.61,0,0,1-1.7.56A9.88,9.88,0,0,1,30.22,50.1Zm-.46-10.23a2.79,2.79,0,0,0-2.16.89,4.11,4.11,0,0,0-1,2.44h5.88a3.73,3.73,0,0,0-.72-2.47A2.53,2.53,0,0,0,29.76,39.87Z"/><path class="cls-2" d="M40.89,48.69a4.94,4.94,0,0,0,.87-.07,6.4,6.4,0,0,0,.66-.13v1.3a3,3,0,0,1-.81.22,5.93,5.93,0,0,1-1,.09q-3.26,0-3.26-3.44V40H35.77v-.82l1.61-.71.72-2.4h1v2.6h3.26V40H39.08v6.61a2.28,2.28,0,0,0,.48,1.56A1.7,1.7,0,0,0,40.89,48.69Z"/><path class="cls-2" d="M51.83,49.89H50.12v-16h1.71Z"/><path class="cls-2" d="M65.14,44.26a6.17,6.17,0,0,1-1.39,4.29,4.87,4.87,0,0,1-3.82,1.55,5.08,5.08,0,0,1-2.68-.71,4.63,4.63,0,0,1-1.8-2,7,7,0,0,1-.64-3.1A6.17,6.17,0,0,1,56.19,40,4.84,4.84,0,0,1,60,38.45,4.75,4.75,0,0,1,63.75,40,6.19,6.19,0,0,1,65.14,44.26Zm-8.56,0a5.28,5.28,0,0,0,.86,3.28A3,3,0,0,0,60,48.67a3,3,0,0,0,2.54-1.12,5.38,5.38,0,0,0,.86-3.29A5.25,5.25,0,0,0,62.51,41,3.06,3.06,0,0,0,60,39.89,3,3,0,0,0,57.43,41,5.26,5.26,0,0,0,56.58,44.26Z"/><path class="cls-2" d="M73.25,38.45a6.74,6.74,0,0,1,1.34.12l-.23,1.58A6,6,0,0,0,73.12,40a3,3,0,0,0-2.33,1.1,4.08,4.08,0,0,0-1,2.76v6h-1.7V38.65h1.41l.19,2.08h.08A5,5,0,0,1,71.31,39,3.44,3.44,0,0,1,73.25,38.45Z"/><path class="cls-2" d="M80.32,48.69a5.14,5.14,0,0,0,.88-.07c.27,0,.5-.09.66-.13v1.3a3,3,0,0,1-.81.22,6,6,0,0,1-1,.09c-2.18,0-3.26-1.15-3.26-3.44V40H75.21v-.82l1.61-.71.71-2.4h1v2.6h3.26V40H78.52v6.61A2.28,2.28,0,0,0,79,48.15,1.68,1.68,0,0,0,80.32,48.69Z"/><path class="cls-2" d="M83.86,48.8a1.54,1.54,0,0,1,.31-1,1.16,1.16,0,0,1,.9-.35,1.23,1.23,0,0,1,.93.35,1.49,1.49,0,0,1,.33,1,1.42,1.42,0,0,1-.34,1,1.19,1.19,0,0,1-.92.36,1.2,1.2,0,0,1-.86-.32A1.38,1.38,0,0,1,83.86,48.8Z"/></svg>