<svg id="Layer_1" data-name="Layer 1" xmlns="http://www.w3.org/2000/svg" width="273" height="64" viewBox="0 0 273 64"><defs><style>.cls-1{fill:#3fa7f3;}.cls-2{fill:#fff;}</style></defs><title>svar 1 besked 3</title><rect class="cls-1" width="273" height="64" rx="19.58"/><path class="cls-2" d="M24.24,24.69H22.5v-7H14.61v7.05H12.86V9.7h1.75v6.38H22.5V9.7h1.74Z"/><path class="cls-2" d="M35,24.69l-.34-1.6h-.08a4.65,4.65,0,0,1-1.68,1.43,5.05,5.05,0,0,1-2.08.38A3.76,3.76,0,0,1,28.21,24a3.18,3.18,0,0,1-.95-2.46q0-3.39,5.44-3.56L34.61,18v-.7a2.89,2.89,0,0,0-.57-2,2.33,2.33,0,0,0-1.82-.63,7.41,7.41,0,0,0-3.18.87l-.52-1.31a7.91,7.91,0,0,1,1.82-.7,7.48,7.48,0,0,1,2-.26,4.3,4.3,0,0,1,3,.89,3.72,3.72,0,0,1,1,2.86v7.67Zm-3.84-1.2a3.43,3.43,0,0,0,2.49-.87,3.2,3.2,0,0,0,.91-2.44v-1l-1.7.07a6.13,6.13,0,0,0-2.93.63,1.9,1.9,0,0,0-.9,1.74A1.76,1.76,0,0,0,29.6,23,2.34,2.34,0,0,0,31.17,23.49Z"/><path class="cls-2" d="M47.47,24.69V17.42a2.93,2.93,0,0,0-.63-2.05,2.54,2.54,0,0,0-2-.68,3.21,3.21,0,0,0-2.59,1,4.83,4.83,0,0,0-.82,3.16v5.87h-1.7V8.74h1.7v4.83A11.26,11.26,0,0,1,41.4,15h.1a3.47,3.47,0,0,1,1.43-1.27,4.56,4.56,0,0,1,2.12-.47,4.36,4.36,0,0,1,3.09,1,4.11,4.11,0,0,1,1,3.11v7.33Z"/><path class="cls-2" d="M59.58,24.69l-.34-1.6h-.08a4.65,4.65,0,0,1-1.68,1.43,5.05,5.05,0,0,1-2.08.38A3.76,3.76,0,0,1,52.78,24a3.14,3.14,0,0,1-1-2.46q0-3.39,5.44-3.56L59.18,18v-.7a2.89,2.89,0,0,0-.57-2,2.35,2.35,0,0,0-1.82-.63,7.34,7.34,0,0,0-3.18.87l-.52-1.31a7.91,7.91,0,0,1,1.82-.7,7.48,7.48,0,0,1,2-.26,4.3,4.3,0,0,1,3,.89,3.72,3.72,0,0,1,1,2.86v7.67Zm-3.85-1.2a3.46,3.46,0,0,0,2.5-.87,3.2,3.2,0,0,0,.91-2.44v-1l-1.7.07a6.13,6.13,0,0,0-2.93.63,1.9,1.9,0,0,0-.9,1.74,1.76,1.76,0,0,0,.56,1.4A2.31,2.31,0,0,0,55.73,23.49Z"/><path class="cls-2" d="M77.49,24.69V17.42a3,3,0,0,0-.62-2.05,2.56,2.56,0,0,0-2-.68,3.19,3.19,0,0,0-2.58,1,4.78,4.78,0,0,0-.83,3.15v5.89H69.8V13.45h1.39L71.46,15h.09A3.47,3.47,0,0,1,73,13.7a4.82,4.82,0,0,1,2.1-.45,4.28,4.28,0,0,1,3.06,1,4.17,4.17,0,0,1,1,3.13v7.33Z"/><path class="cls-2" d="M87.44,24.9a5.17,5.17,0,0,1-3.93-1.52,5.88,5.88,0,0,1-1.44-4.21,6.51,6.51,0,0,1,1.33-4.32,4.45,4.45,0,0,1,3.6-1.6,4.22,4.22,0,0,1,3.34,1.39,5.31,5.31,0,0,1,1.23,3.66v1.08H83.83a4.43,4.43,0,0,0,1,3,3.43,3.43,0,0,0,2.67,1,9,9,0,0,0,3.59-.76v1.52a9.44,9.44,0,0,1-1.71.56A9.7,9.7,0,0,1,87.44,24.9ZM87,14.67a2.79,2.79,0,0,0-2.16.89A4,4,0,0,0,83.87,18h5.88A3.73,3.73,0,0,0,89,15.53,2.53,2.53,0,0,0,87,14.67Z"/><path class="cls-2" d="M93.11,29.74a4.1,4.1,0,0,1-1.58-.26V28.1a5.26,5.26,0,0,0,1.4.2,1.46,1.46,0,0,0,1.17-.43,2,2,0,0,0,.37-1.33V13.45h1.71v13C96.18,28.63,95.15,29.74,93.11,29.74Zm1.22-19.33a1.14,1.14,0,0,1,.29-.86,1,1,0,0,1,.71-.27,1,1,0,0,1,.71.28,1.1,1.1,0,0,1,.3.85,1.1,1.1,0,0,1-.3.85,1,1,0,0,1-.71.29,1,1,0,0,1-.71-.29A1.13,1.13,0,0,1,94.33,10.41Z"/><path class="cls-2" d="M101.57,22.25l.15.24a22.06,22.06,0,0,1-.77,2.38c-.33.91-.68,1.75-1,2.53H98.63c.18-.71.38-1.59.61-2.64s.37-1.88.46-2.51Z"/><path class="cls-2" d="M118,23.18h-.1a4,4,0,0,1-3.52,1.72A4.18,4.18,0,0,1,111,23.39a6.62,6.62,0,0,1-1.23-4.29A6.72,6.72,0,0,1,111,14.79a4.13,4.13,0,0,1,3.43-1.54,4.07,4.07,0,0,1,3.5,1.66h.14L118,14.1l0-.79V8.74h1.71v16h-1.39Zm-3.41.29a3.08,3.08,0,0,0,2.53-.95,4.8,4.8,0,0,0,.78-3.06V19.1a5.65,5.65,0,0,0-.79-3.41,3,3,0,0,0-2.54-1,2.6,2.6,0,0,0-2.29,1.17,5.76,5.76,0,0,0-.79,3.28,5.51,5.51,0,0,0,.79,3.25A2.63,2.63,0,0,0,114.63,23.47Z"/><path class="cls-2" d="M124.86,13.45v7.29a2.91,2.91,0,0,0,.62,2.05,2.52,2.52,0,0,0,2,.68,3.21,3.21,0,0,0,2.58-1,4.88,4.88,0,0,0,.81-3.15V13.45h1.71V24.69h-1.41l-.25-1.51h-.09a3.41,3.41,0,0,1-1.45,1.28,4.93,4.93,0,0,1-2.12.44,4.3,4.3,0,0,1-3.07-1,4.14,4.14,0,0,1-1-3.11V13.45Z"/><path class="cls-2" d="M146.35,24.9a5.17,5.17,0,0,1-3.93-1.52A5.84,5.84,0,0,1,141,19.17a6.51,6.51,0,0,1,1.34-4.32,4.44,4.44,0,0,1,3.6-1.6,4.23,4.23,0,0,1,3.34,1.39,5.31,5.31,0,0,1,1.23,3.66v1.08h-7.74a4.43,4.43,0,0,0,1,3,3.43,3.43,0,0,0,2.67,1,9,9,0,0,0,3.59-.76v1.52a9.44,9.44,0,0,1-1.71.56A9.78,9.78,0,0,1,146.35,24.9Zm-.46-10.23a2.76,2.76,0,0,0-2.16.89,4,4,0,0,0-.95,2.44h5.87a3.73,3.73,0,0,0-.71-2.47A2.54,2.54,0,0,0,145.89,14.67Z"/><path class="cls-2" d="M158.51,13.25a6.81,6.81,0,0,1,1.34.12L159.62,15a6,6,0,0,0-1.24-.15,3,3,0,0,0-2.33,1.1,4.08,4.08,0,0,0-1,2.76v6h-1.7V13.45h1.41l.19,2.09h.08a4.94,4.94,0,0,1,1.51-1.7A3.44,3.44,0,0,1,158.51,13.25Z"/><path class="cls-2" d="M172.64,13.27a4.18,4.18,0,0,1,3.44,1.51,6.69,6.69,0,0,1,1.22,4.28,6.69,6.69,0,0,1-1.23,4.3,4.16,4.16,0,0,1-3.43,1.54,4.91,4.91,0,0,1-2-.41,3.78,3.78,0,0,1-1.52-1.24H169l-.36,1.44h-1.22V8.74h1.7v3.87c0,.87,0,1.65-.08,2.34h.08A4,4,0,0,1,172.64,13.27Zm-.25,1.42a3,3,0,0,0-2.51,1,5.67,5.67,0,0,0-.77,3.37,5.6,5.6,0,0,0,.79,3.39,3,3,0,0,0,2.53,1,2.62,2.62,0,0,0,2.34-1.14,5.9,5.9,0,0,0,.77-3.29,5.68,5.68,0,0,0-.77-3.27A2.72,2.72,0,0,0,172.39,14.69Z"/><path class="cls-2" d="M187.19,24.69l-.34-1.6h-.08a4.65,4.65,0,0,1-1.68,1.43,5.1,5.1,0,0,1-2.09.38,3.79,3.79,0,0,1-2.62-.86,3.17,3.17,0,0,1-.94-2.46q0-3.39,5.44-3.56l1.91-.06v-.7a2.89,2.89,0,0,0-.57-2,2.35,2.35,0,0,0-1.82-.63,7.34,7.34,0,0,0-3.18.87l-.52-1.31a7.91,7.91,0,0,1,1.82-.7,7.48,7.48,0,0,1,2-.26,4.31,4.31,0,0,1,3,.89,3.72,3.72,0,0,1,1,2.86v7.67Zm-3.85-1.2a3.46,3.46,0,0,0,2.5-.87,3.2,3.2,0,0,0,.91-2.44v-1l-1.71.07a6.11,6.11,0,0,0-2.92.63,1.9,1.9,0,0,0-.9,1.74,1.76,1.76,0,0,0,.56,1.4A2.31,2.31,0,0,0,183.34,23.49Z"/><path class="cls-2" d="M197.08,13.25a6.91,6.91,0,0,1,1.35.12L198.19,15A5.86,5.86,0,0,0,197,14.8a3,3,0,0,0-2.33,1.1,4,4,0,0,0-1,2.76v6H192V13.45h1.4l.2,2.09h.08a4.94,4.94,0,0,1,1.51-1.7A3.4,3.4,0,0,1,197.08,13.25Z"/><path class="cls-2" d="M205.28,24.9a5.19,5.19,0,0,1-3.94-1.52,5.88,5.88,0,0,1-1.44-4.21,6.51,6.51,0,0,1,1.34-4.32,4.44,4.44,0,0,1,3.6-1.6,4.23,4.23,0,0,1,3.34,1.39,5.31,5.31,0,0,1,1.23,3.66v1.08h-7.74a4.43,4.43,0,0,0,1,3,3.43,3.43,0,0,0,2.67,1,9,9,0,0,0,3.59-.76v1.52a9.44,9.44,0,0,1-1.71.56A9.78,9.78,0,0,1,205.28,24.9Zm-.46-10.23a2.76,2.76,0,0,0-2.16.89,4,4,0,0,0-.95,2.44h5.87a3.79,3.79,0,0,0-.71-2.47A2.54,2.54,0,0,0,204.82,14.67Z"/><path class="cls-2" d="M225.42,23.18h-.1a4,4,0,0,1-3.53,1.72,4.17,4.17,0,0,1-3.42-1.51,6.62,6.62,0,0,1-1.23-4.29,6.72,6.72,0,0,1,1.23-4.31,4.12,4.12,0,0,1,3.42-1.54,4.07,4.07,0,0,1,3.51,1.66h.14l-.08-.81,0-.79V8.74H227v16h-1.39Zm-3.41.29a3.08,3.08,0,0,0,2.53-.95,4.8,4.8,0,0,0,.78-3.06V19.1a5.65,5.65,0,0,0-.79-3.41,3,3,0,0,0-2.54-1,2.6,2.6,0,0,0-2.29,1.17,5.76,5.76,0,0,0-.8,3.28,5.58,5.58,0,0,0,.79,3.25A2.66,2.66,0,0,0,222,23.47Z"/><path class="cls-2" d="M232.23,13.45v7.29a2.91,2.91,0,0,0,.63,2.05,2.52,2.52,0,0,0,2,.68,3.22,3.22,0,0,0,2.58-1,4.88,4.88,0,0,0,.81-3.15V13.45h1.7V24.69h-1.4l-.25-1.51h-.09a3.41,3.41,0,0,1-1.45,1.28,4.93,4.93,0,0,1-2.12.44,4.3,4.3,0,0,1-3.07-1,4.14,4.14,0,0,1-1-3.11V13.45Z"/><path class="cls-2" d="M257.85,24.69V17.38a3,3,0,0,0-.58-2,2.2,2.2,0,0,0-1.78-.68,2.89,2.89,0,0,0-2.35.92,4.37,4.37,0,0,0-.76,2.81v6.27h-1.7V17.38a3,3,0,0,0-.57-2,2.26,2.26,0,0,0-1.8-.68,2.77,2.77,0,0,0-2.34,1,5.18,5.18,0,0,0-.74,3.15v5.89h-1.71V13.45h1.39l.27,1.54h.09a3.33,3.33,0,0,1,1.35-1.28,4.15,4.15,0,0,1,2-.46c1.76,0,2.9.63,3.44,1.91h.09a3.56,3.56,0,0,1,1.45-1.4,4.56,4.56,0,0,1,2.18-.51,3.8,3.8,0,0,1,2.85,1,4.37,4.37,0,0,1,.95,3.13v7.33Z"/><path class="cls-2" d="M19.86,46.83a2.82,2.82,0,0,1-1.17,2.42,5.56,5.56,0,0,1-3.28.85,7.16,7.16,0,0,1-3.49-.71V47.81a8.8,8.8,0,0,0,1.74.65,7.58,7.58,0,0,0,1.79.23,4.1,4.1,0,0,0,2.05-.42,1.42,1.42,0,0,0,.72-1.3,1.4,1.4,0,0,0-.57-1.12,9.19,9.19,0,0,0-2.22-1.11,11.94,11.94,0,0,1-2.23-1,3,3,0,0,1-1-1,2.61,2.61,0,0,1-.32-1.32A2.52,2.52,0,0,1,13,39.24a5.17,5.17,0,0,1,3.06-.79,8.86,8.86,0,0,1,3.55.74L19,40.57a8.26,8.26,0,0,0-3.07-.7,3.57,3.57,0,0,0-1.83.38,1.18,1.18,0,0,0-.61,1,1.3,1.3,0,0,0,.23.77,2.24,2.24,0,0,0,.74.6,16.45,16.45,0,0,0,2,.83A7.39,7.39,0,0,1,19.15,45,2.58,2.58,0,0,1,19.86,46.83Z"/><path class="cls-2" d="M29.54,49.89l-.34-1.6h-.08a4.73,4.73,0,0,1-1.68,1.43,5.1,5.1,0,0,1-2.09.38,3.78,3.78,0,0,1-2.62-.86,3.18,3.18,0,0,1-.95-2.46q0-3.39,5.45-3.56l1.91-.07v-.69a2.87,2.87,0,0,0-.57-2,2.35,2.35,0,0,0-1.82-.63,7.46,7.46,0,0,0-3.18.86L23,39.43a8.28,8.28,0,0,1,1.82-.7,7.55,7.55,0,0,1,2-.26,4.31,4.31,0,0,1,3,.89,3.76,3.76,0,0,1,1,2.86v7.67Zm-3.85-1.2a3.47,3.47,0,0,0,2.5-.87,3.23,3.23,0,0,0,.9-2.44v-1l-1.7.08a6,6,0,0,0-2.92.63,1.9,1.9,0,0,0-.9,1.74,1.73,1.73,0,0,0,.56,1.4A2.31,2.31,0,0,0,25.69,48.69Zm3.37-13.75a2.16,2.16,0,0,1-.63,1.62,2.33,2.33,0,0,1-1.67.61,2.26,2.26,0,0,1-1.65-.6A2.15,2.15,0,0,1,24.49,35a2.09,2.09,0,0,1,.62-1.59,2.26,2.26,0,0,1,1.65-.59,2.31,2.31,0,0,1,1.67.61A2,2,0,0,1,29.06,34.94ZM28,35a1.14,1.14,0,0,0-.34-.88,1.22,1.22,0,0,0-.86-.32,1.2,1.2,0,0,0-.86.32,1.11,1.11,0,0,0-.34.88,1.24,1.24,0,0,0,.3.89,1.22,1.22,0,0,0,.9.31,1.2,1.2,0,0,0,.86-.31A1.15,1.15,0,0,0,28,35Z"/><path class="cls-2" d="M47.41,48.38h-.09a4,4,0,0,1-3.53,1.72,4.19,4.19,0,0,1-3.43-1.51,6.62,6.62,0,0,1-1.23-4.29A6.72,6.72,0,0,1,40.36,40a4.14,4.14,0,0,1,3.43-1.54,4.1,4.1,0,0,1,3.51,1.66h.13l-.07-.81,0-.79V33.94H49v16H47.63ZM44,48.67a3.07,3.07,0,0,0,2.53-1,4.8,4.8,0,0,0,.79-3.06V44.3a5.64,5.64,0,0,0-.8-3.41,3,3,0,0,0-2.54-1A2.61,2.61,0,0,0,41.69,41a5.76,5.76,0,0,0-.79,3.28,5.51,5.51,0,0,0,.79,3.25A2.64,2.64,0,0,0,44,48.67Z"/><path class="cls-2" d="M57.38,50.1a5.17,5.17,0,0,1-3.94-1.52A5.88,5.88,0,0,1,52,44.36a6.5,6.5,0,0,1,1.34-4.31,4.43,4.43,0,0,1,3.59-1.6,4.24,4.24,0,0,1,3.35,1.39,5.31,5.31,0,0,1,1.23,3.66v1.08H53.77a4.38,4.38,0,0,0,1,3,3.43,3.43,0,0,0,2.67,1A9,9,0,0,0,61,47.85v1.52a10,10,0,0,1-1.71.56A9.85,9.85,0,0,1,57.38,50.1Zm-.47-10.23a2.75,2.75,0,0,0-2.15.89,4,4,0,0,0-.95,2.44h5.87A3.73,3.73,0,0,0,59,40.73,2.52,2.52,0,0,0,56.91,39.87Z"/><path class="cls-2" d="M68,48.69a4.94,4.94,0,0,0,.87-.07c.28,0,.5-.09.67-.13v1.3a3.24,3.24,0,0,1-.82.22,5.93,5.93,0,0,1-1,.09q-3.26,0-3.26-3.44V40H62.92v-.82l1.61-.71.72-2.4h1v2.6H69.5V40H66.23v6.61a2.28,2.28,0,0,0,.49,1.56A1.68,1.68,0,0,0,68,48.69Z"/><path class="cls-2" d="M86.48,38.65v1.08L84.39,40a3.39,3.39,0,0,1,.52.93,3.64,3.64,0,0,1,.22,1.31A3.31,3.31,0,0,1,84,44.86a4.56,4.56,0,0,1-3.09,1,5.7,5.7,0,0,1-1-.08,1.67,1.67,0,0,0-1.08,1.45.73.73,0,0,0,.38.68,2.83,2.83,0,0,0,1.3.22h2a4.38,4.38,0,0,1,2.8.77,2.64,2.64,0,0,1,1,2.23A3.2,3.2,0,0,1,84.83,54a8,8,0,0,1-4.36,1,6,6,0,0,1-3.4-.82,2.65,2.65,0,0,1-1.2-2.32A2.62,2.62,0,0,1,76.53,50a3.4,3.4,0,0,1,1.85-1,1.78,1.78,0,0,1-.73-.61,1.62,1.62,0,0,1-.29-.95,1.82,1.82,0,0,1,.33-1.08,3.61,3.61,0,0,1,1-.89,3,3,0,0,1-1.42-1.22,4,4,0,0,1,.56-4.81,4.52,4.52,0,0,1,3.14-1,6,6,0,0,1,1.59.2Zm-9,13.13a1.52,1.52,0,0,0,.77,1.38,4.22,4.22,0,0,0,2.21.47A6.11,6.11,0,0,0,83.66,53a1.94,1.94,0,0,0,1-1.73A1.38,1.38,0,0,0,84.13,50,4.38,4.38,0,0,0,82,49.64H80a2.67,2.67,0,0,0-1.8.55A2,2,0,0,0,77.51,51.78Zm.93-9.53A2.32,2.32,0,0,0,79.1,44a2.7,2.7,0,0,0,1.86.6,2.17,2.17,0,0,0,2.49-2.42,2.23,2.23,0,0,0-2.52-2.53,2.51,2.51,0,0,0-1.85.64A2.62,2.62,0,0,0,78.44,42.25Z"/><path class="cls-2" d="M88.64,35.61a1.11,1.11,0,0,1,.29-.86,1,1,0,0,1,.71-.27,1,1,0,0,1,.71.28,1.35,1.35,0,0,1,0,1.7,1,1,0,0,1-.71.29,1,1,0,0,1-.71-.29A1.1,1.1,0,0,1,88.64,35.61Zm1.84,14.28h-1.7V38.65h1.7Z"/><path class="cls-2" d="M101.74,48.38h-.09a4,4,0,0,1-3.53,1.72,4.19,4.19,0,0,1-3.43-1.51,6.68,6.68,0,0,1-1.22-4.29A6.72,6.72,0,0,1,94.7,40a4.12,4.12,0,0,1,3.42-1.54,4.07,4.07,0,0,1,3.51,1.66h.13l-.07-.81,0-.79V33.94h1.7v16H102Zm-3.4.29a3.09,3.09,0,0,0,2.53-1,4.8,4.8,0,0,0,.78-3.06V44.3a5.65,5.65,0,0,0-.79-3.41,3,3,0,0,0-2.54-1A2.6,2.6,0,0,0,96,41a5.76,5.76,0,0,0-.8,3.28A5.58,5.58,0,0,0,96,47.57,2.66,2.66,0,0,0,98.34,48.67Z"/><path class="cls-2" d="M111.71,50.1a5.17,5.17,0,0,1-3.93-1.52,5.88,5.88,0,0,1-1.44-4.22,6.45,6.45,0,0,1,1.34-4.31,4.43,4.43,0,0,1,3.59-1.6,4.22,4.22,0,0,1,3.34,1.39,5.31,5.31,0,0,1,1.23,3.66v1.08H108.1a4.48,4.48,0,0,0,1,3,3.43,3.43,0,0,0,2.67,1,9,9,0,0,0,3.59-.76v1.52a9.44,9.44,0,0,1-1.71.56A9.7,9.7,0,0,1,111.71,50.1Zm-.46-10.23a2.79,2.79,0,0,0-2.16.89,4,4,0,0,0-1,2.44H114a3.73,3.73,0,0,0-.72-2.47A2.53,2.53,0,0,0,111.25,39.87Z"/><path class="cls-2" d="M123.87,38.45a6.74,6.74,0,0,1,1.34.12L125,40.15a6,6,0,0,0-1.23-.15,3,3,0,0,0-2.33,1.1,4,4,0,0,0-1,2.76v6h-1.71V38.65h1.41l.19,2.08h.09a4.87,4.87,0,0,1,1.5-1.69A3.46,3.46,0,0,1,123.87,38.45Z"/><path class="cls-2" d="M131.41,54.94a4.1,4.1,0,0,1-1.58-.26V53.3a5.25,5.25,0,0,0,1.39.2,1.47,1.47,0,0,0,1.18-.43,2,2,0,0,0,.37-1.33V38.65h1.7v13Q134.47,54.94,131.41,54.94Zm1.22-19.33a1.11,1.11,0,0,1,.29-.86,1,1,0,0,1,.71-.27,1,1,0,0,1,.71.28,1.35,1.35,0,0,1,0,1.7,1,1,0,0,1-.71.29,1,1,0,0,1-.71-.29A1.1,1.1,0,0,1,132.63,35.61Z"/><path class="cls-2" d="M142.83,50.1a5.17,5.17,0,0,1-3.93-1.52,5.88,5.88,0,0,1-1.44-4.22,6.45,6.45,0,0,1,1.34-4.31,4.43,4.43,0,0,1,3.59-1.6,4.22,4.22,0,0,1,3.34,1.39A5.31,5.31,0,0,1,147,43.5v1.08h-7.74a4.43,4.43,0,0,0,1,3,3.43,3.43,0,0,0,2.67,1,9,9,0,0,0,3.59-.76v1.52a9.44,9.44,0,0,1-1.71.56A9.7,9.7,0,0,1,142.83,50.1Zm-.46-10.23a2.79,2.79,0,0,0-2.16.89,4,4,0,0,0-1,2.44h5.88a3.73,3.73,0,0,0-.72-2.47A2.53,2.53,0,0,0,142.37,39.87Z"/><path class="cls-2" d="M159.06,38.65v1.08L157,40a3.66,3.66,0,0,1,.74,2.24,3.35,3.35,0,0,1-1.13,2.64,4.56,4.56,0,0,1-3.09,1,5.7,5.7,0,0,1-.95-.08,1.68,1.68,0,0,0-1.09,1.45.75.75,0,0,0,.38.68,2.91,2.91,0,0,0,1.31.22h2a4.4,4.4,0,0,1,2.8.77,2.66,2.66,0,0,1,1,2.23,3.2,3.2,0,0,1-1.5,2.85,8,8,0,0,1-4.37,1,6,6,0,0,1-3.39-.82,2.65,2.65,0,0,1-1.2-2.32,2.62,2.62,0,0,1,.66-1.78A3.37,3.37,0,0,1,151,49a1.75,1.75,0,0,1-.72-.61,1.55,1.55,0,0,1-.29-.95,1.82,1.82,0,0,1,.33-1.08,3.47,3.47,0,0,1,1-.89,3,3,0,0,1-1.42-1.22,4,4,0,0,1,.56-4.81,4.5,4.5,0,0,1,3.14-1,6,6,0,0,1,1.59.2Zm-9,13.13a1.52,1.52,0,0,0,.77,1.38,4.18,4.18,0,0,0,2.2.47,6.16,6.16,0,0,0,3.18-.64,1.94,1.94,0,0,0,1-1.73,1.37,1.37,0,0,0-.57-1.27,4.31,4.31,0,0,0-2.12-.35h-2a2.67,2.67,0,0,0-1.8.55A2,2,0,0,0,150.1,51.78Zm.92-9.53a2.32,2.32,0,0,0,.67,1.79,2.67,2.67,0,0,0,1.86.6A2.17,2.17,0,0,0,156,42.22a2.23,2.23,0,0,0-2.52-2.53,2.51,2.51,0,0,0-1.85.64A2.62,2.62,0,0,0,151,42.25Z"/><path class="cls-2" d="M166.68,35.61a1.14,1.14,0,0,1,.29-.86,1,1,0,0,1,.72-.27,1,1,0,0,1,.7.28,1.35,1.35,0,0,1,0,1.7,1,1,0,0,1-.7.29,1,1,0,0,1-.72-.29A1.13,1.13,0,0,1,166.68,35.61Zm1.85,14.28h-1.7V38.65h1.7Z"/><path class="cls-2" d="M173.82,44.14a19.41,19.41,0,0,1,1.34-1.64l3.63-3.85h2l-4.55,4.79,4.87,6.45h-2.06l-4-5.31-1.28,1.11v4.2h-1.68v-16h1.68V42.4c0,.37,0,1-.08,1.74Z"/><path class="cls-2" d="M184.84,44.14a19.91,19.91,0,0,1,1.35-1.64l3.62-3.85h2l-4.55,4.79,4.87,6.45h-2.06l-4-5.31-1.28,1.11v4.2h-1.68v-16h1.68V42.4c0,.37,0,1-.08,1.74Z"/><path class="cls-2" d="M198.93,50.1A5.17,5.17,0,0,1,195,48.58a5.88,5.88,0,0,1-1.44-4.22,6.45,6.45,0,0,1,1.34-4.31,4.43,4.43,0,0,1,3.59-1.6,4.22,4.22,0,0,1,3.34,1.39,5.31,5.31,0,0,1,1.23,3.66v1.08h-7.74a4.48,4.48,0,0,0,1,3,3.43,3.43,0,0,0,2.67,1,9,9,0,0,0,3.59-.76v1.52a9.44,9.44,0,0,1-1.71.56A9.7,9.7,0,0,1,198.93,50.1Zm-.46-10.23a2.79,2.79,0,0,0-2.16.89,4,4,0,0,0-.95,2.44h5.88a3.73,3.73,0,0,0-.72-2.47A2.53,2.53,0,0,0,198.47,39.87Z"/><path class="cls-2" d="M205.72,48.8a1.54,1.54,0,0,1,.31-1,1.16,1.16,0,0,1,.9-.35,1.24,1.24,0,0,1,.93.35,1.49,1.49,0,0,1,.33,1,1.42,1.42,0,0,1-.34,1,1.19,1.19,0,0,1-.92.36,1.24,1.24,0,0,1-.87-.32A1.42,1.42,0,0,1,205.72,48.8Z"/></svg>