<svg id="Layer_1" data-name="Layer 1" xmlns="http://www.w3.org/2000/svg" width="256" height="88" viewBox="0 0 256 88"><defs><style>.cls-1{fill:#3fa7f3;}.cls-2{fill:#fff;}</style></defs><title>svar 3 besked 5</title><rect class="cls-1" width="256" height="88" rx="19.58"/><path class="cls-2" d="M20.22,22.69H11.86V7.7h8.36V9.25H13.61v4.83h6.21v1.54H13.61v5.51h6.61Z"/><path class="cls-2" d="M21.92,27.74a4.13,4.13,0,0,1-1.58-.26V26.1a5.26,5.26,0,0,0,1.4.2,1.46,1.46,0,0,0,1.17-.43,2,2,0,0,0,.38-1.33V11.45H25v13Q25,27.74,21.92,27.74ZM23.14,8.41a1.14,1.14,0,0,1,.29-.86,1,1,0,0,1,.72-.27,1,1,0,0,1,.7.28,1.1,1.1,0,0,1,.3.85,1.1,1.1,0,0,1-.3.85,1,1,0,0,1-.7.29,1,1,0,0,1-.72-.29A1.13,1.13,0,0,1,23.14,8.41Z"/><path class="cls-2" d="M38.8,22.9a5.17,5.17,0,0,1-3.93-1.52,5.88,5.88,0,0,1-1.44-4.22,6.45,6.45,0,0,1,1.34-4.31,4.42,4.42,0,0,1,3.59-1.6,4.22,4.22,0,0,1,3.34,1.39,5.31,5.31,0,0,1,1.23,3.66v1.08H35.19a4.43,4.43,0,0,0,1,3,3.43,3.43,0,0,0,2.67,1,9,9,0,0,0,3.59-.76v1.52a9.44,9.44,0,0,1-1.71.56A9.7,9.7,0,0,1,38.8,22.9Zm-.46-10.23a2.82,2.82,0,0,0-2.16.88,4.1,4.1,0,0,0-1,2.45h5.88a3.73,3.73,0,0,0-.72-2.47A2.53,2.53,0,0,0,38.34,12.67Z"/><path class="cls-2" d="M44.47,27.74a4.1,4.1,0,0,1-1.58-.26V26.1a5.26,5.26,0,0,0,1.4.2,1.46,1.46,0,0,0,1.17-.43,2,2,0,0,0,.37-1.33V11.45h1.71v13C47.54,26.63,46.51,27.74,44.47,27.74ZM45.69,8.41A1.14,1.14,0,0,1,46,7.55a1,1,0,0,1,.72-.27,1,1,0,0,1,.7.28,1.1,1.1,0,0,1,.3.85,1.1,1.1,0,0,1-.3.85,1,1,0,0,1-1.42,0A1.13,1.13,0,0,1,45.69,8.41Z"/><path class="cls-2" d="M61.35,22.9a5.17,5.17,0,0,1-3.93-1.52A5.88,5.88,0,0,1,56,17.16a6.5,6.5,0,0,1,1.33-4.31,4.45,4.45,0,0,1,3.6-1.6,4.22,4.22,0,0,1,3.34,1.39,5.31,5.31,0,0,1,1.23,3.66v1.08H57.74a4.43,4.43,0,0,0,1,3,3.43,3.43,0,0,0,2.67,1A9,9,0,0,0,65,20.65v1.52a9.44,9.44,0,0,1-1.71.56A9.78,9.78,0,0,1,61.35,22.9Zm-.46-10.23a2.79,2.79,0,0,0-2.16.88A4.1,4.1,0,0,0,57.78,16h5.88a3.73,3.73,0,0,0-.72-2.47A2.53,2.53,0,0,0,60.89,12.67Z"/><path class="cls-2" d="M67,27.74a4.1,4.1,0,0,1-1.58-.26V26.1a5.25,5.25,0,0,0,1.39.2A1.47,1.47,0,0,0,68,25.87a2,2,0,0,0,.37-1.33V11.45h1.7v13Q70.08,27.74,67,27.74ZM68.24,8.41a1.11,1.11,0,0,1,.29-.86,1,1,0,0,1,.71-.27,1,1,0,0,1,.71.28,1.1,1.1,0,0,1,.3.85,1.1,1.1,0,0,1-.3.85,1,1,0,0,1-.71.29,1,1,0,0,1-.71-.29A1.1,1.1,0,0,1,68.24,8.41Z"/><path class="cls-2" d="M75.48,20.25l.15.24c-.18.68-.43,1.47-.77,2.38s-.68,1.75-1,2.53H72.54c.18-.71.38-1.59.61-2.64s.37-1.88.46-2.51Z"/><path class="cls-2" d="M92,21.18h-.1a4,4,0,0,1-3.52,1.72,4.18,4.18,0,0,1-3.43-1.51,6.62,6.62,0,0,1-1.23-4.29,6.72,6.72,0,0,1,1.23-4.31,4.13,4.13,0,0,1,3.43-1.54,4.07,4.07,0,0,1,3.5,1.66H92l-.08-.81,0-.79V6.74h1.71v16H92.17Zm-3.41.29a3.08,3.08,0,0,0,2.53-.95,4.8,4.8,0,0,0,.78-3.06V17.1a5.65,5.65,0,0,0-.79-3.41,3,3,0,0,0-2.54-1,2.6,2.6,0,0,0-2.29,1.17,5.76,5.76,0,0,0-.8,3.28,5.58,5.58,0,0,0,.79,3.25A2.66,2.66,0,0,0,88.54,21.47Z"/><path class="cls-2" d="M101.91,22.9A5.17,5.17,0,0,1,98,21.38a5.88,5.88,0,0,1-1.44-4.22,6.5,6.5,0,0,1,1.34-4.31,4.43,4.43,0,0,1,3.59-1.6,4.22,4.22,0,0,1,3.34,1.39A5.31,5.31,0,0,1,106,16.3v1.08H98.3a4.48,4.48,0,0,0,1,3,3.46,3.46,0,0,0,2.67,1,9,9,0,0,0,3.59-.76v1.52a9.61,9.61,0,0,1-1.7.56A9.88,9.88,0,0,1,101.91,22.9Zm-.46-10.23a2.82,2.82,0,0,0-2.16.88,4.17,4.17,0,0,0-1,2.45h5.88a3.73,3.73,0,0,0-.72-2.47A2.53,2.53,0,0,0,101.45,12.67Z"/><path class="cls-2" d="M112.58,21.49a4.94,4.94,0,0,0,.87-.07c.28,0,.5-.09.67-.13v1.3a3.24,3.24,0,0,1-.82.22,5.93,5.93,0,0,1-1,.09q-3.26,0-3.26-3.44V12.78h-1.61V12l1.61-.71.72-2.4h1v2.6H114v1.33h-3.26v6.61a2.28,2.28,0,0,0,.48,1.56A1.71,1.71,0,0,0,112.58,21.49Z"/><path class="cls-2" d="M129.07,19.62A2.82,2.82,0,0,1,127.9,22a5.5,5.5,0,0,1-3.29.86,7.11,7.11,0,0,1-3.48-.71V20.61a8.8,8.8,0,0,0,1.74.65,7.58,7.58,0,0,0,1.79.23,4.13,4.13,0,0,0,2-.42,1.48,1.48,0,0,0,.15-2.42,9.19,9.19,0,0,0-2.22-1.11,11.94,11.94,0,0,1-2.23-1,3,3,0,0,1-1-1,2.61,2.61,0,0,1-.32-1.32A2.51,2.51,0,0,1,122.22,12a5.17,5.17,0,0,1,3.06-.79,8.86,8.86,0,0,1,3.55.74l-.61,1.38a8.21,8.21,0,0,0-3.06-.7,3.57,3.57,0,0,0-1.83.38,1.18,1.18,0,0,0-.61,1,1.23,1.23,0,0,0,.23.77,2.24,2.24,0,0,0,.74.6,16.45,16.45,0,0,0,2,.83,7.48,7.48,0,0,1,2.7,1.47A2.57,2.57,0,0,1,129.07,19.62Z"/><path class="cls-2" d="M133.52,16.94a17.93,17.93,0,0,1,1.34-1.64l3.63-3.85h2L136,16.24l4.87,6.45h-2.06l-4-5.31-1.28,1.11v4.2h-1.69V6.74h1.69V15.2q0,.56-.09,1.74Z"/><path class="cls-2" d="M149.77,22.69l-.34-1.6h-.08a4.65,4.65,0,0,1-1.68,1.43,5.1,5.1,0,0,1-2.09.38A3.79,3.79,0,0,1,143,22a3.17,3.17,0,0,1-.94-2.46q0-3.41,5.44-3.56l1.91-.06v-.7a2.87,2.87,0,0,0-.57-2,2.35,2.35,0,0,0-1.82-.63,7.34,7.34,0,0,0-3.18.87l-.52-1.31a7.91,7.91,0,0,1,1.82-.7,7.48,7.48,0,0,1,2-.26,4.3,4.3,0,0,1,3,.89A3.72,3.72,0,0,1,151,15v7.67Zm-3.85-1.2a3.46,3.46,0,0,0,2.5-.87,3.2,3.2,0,0,0,.91-2.44v-1l-1.71.08a6,6,0,0,0-2.92.63,1.9,1.9,0,0,0-.9,1.74,1.76,1.76,0,0,0,.56,1.4A2.31,2.31,0,0,0,145.92,21.49Z"/><path class="cls-2" d="M156.24,22.69h-1.7V6.74h1.7Z"/><path class="cls-2" d="M179.63,22.69V15.38a3,3,0,0,0-.58-2,2.2,2.2,0,0,0-1.78-.68,2.89,2.89,0,0,0-2.35.92,4.35,4.35,0,0,0-.76,2.81v6.27h-1.7V15.38a3,3,0,0,0-.57-2,2.24,2.24,0,0,0-1.8-.68,2.79,2.79,0,0,0-2.34,1,5.16,5.16,0,0,0-.74,3.14v5.9H165.3V11.45h1.39L167,13h.09a3.3,3.3,0,0,1,1.36-1.28,4.08,4.08,0,0,1,2-.46c1.76,0,2.9.63,3.44,1.91h.09a3.56,3.56,0,0,1,1.45-1.4,4.56,4.56,0,0,1,2.18-.51,3.76,3.76,0,0,1,2.85,1,4.37,4.37,0,0,1,1,3.13v7.33Z"/><path class="cls-2" d="M184.69,8.41a1.14,1.14,0,0,1,.29-.86,1.07,1.07,0,0,1,1.43,0,1.13,1.13,0,0,1,.29.85,1.13,1.13,0,0,1-.29.85,1,1,0,0,1-.71.29,1,1,0,0,1-.72-.29A1.13,1.13,0,0,1,184.69,8.41Zm1.85,14.28h-1.7V11.45h1.7Z"/><path class="cls-2" d="M197.84,22.69V15.42a2.93,2.93,0,0,0-.63-2.05,2.54,2.54,0,0,0-2-.68,3.23,3.23,0,0,0-2.59,1,4.77,4.77,0,0,0-.82,3.14v5.9h-1.7V11.45h1.38l.28,1.54h.08a3.56,3.56,0,0,1,1.47-1.29,4.82,4.82,0,0,1,2.1-.45,4.26,4.26,0,0,1,3.06,1,4.16,4.16,0,0,1,1,3.13v7.33Z"/><path class="cls-2" d="M211,22.69l-4.27-11.24h1.82l2.42,6.67c.55,1.56.87,2.57,1,3H212c.08-.36.31-1.11.71-2.25s1.3-3.62,2.69-7.45h1.83l-4.27,11.24Z"/><path class="cls-2" d="M223.76,22.9a5.17,5.17,0,0,1-3.93-1.52,5.88,5.88,0,0,1-1.44-4.22,6.45,6.45,0,0,1,1.34-4.31,4.43,4.43,0,0,1,3.59-1.6,4.22,4.22,0,0,1,3.34,1.39,5.31,5.31,0,0,1,1.23,3.66v1.08h-7.74a4.48,4.48,0,0,0,1,3,3.44,3.44,0,0,0,2.67,1,9,9,0,0,0,3.59-.76v1.52a9.61,9.61,0,0,1-1.7.56A9.88,9.88,0,0,1,223.76,22.9Zm-.46-10.23a2.82,2.82,0,0,0-2.16.88,4.17,4.17,0,0,0-.95,2.45h5.88a3.73,3.73,0,0,0-.72-2.47A2.53,2.53,0,0,0,223.3,12.67Z"/><path class="cls-2" d="M238.49,22.69V15.42a2.93,2.93,0,0,0-.63-2.05,2.56,2.56,0,0,0-2-.68,3.22,3.22,0,0,0-2.58,1,4.77,4.77,0,0,0-.82,3.14v5.9h-1.7V11.45h1.38l.28,1.54h.08A3.56,3.56,0,0,1,234,11.7a4.79,4.79,0,0,1,2.1-.45,4.22,4.22,0,0,1,3,1,4.13,4.13,0,0,1,1,3.13v7.33Z"/><path class="cls-2" d="M13.31,47.89h-1.7V31.94h1.7Z"/><path class="cls-2" d="M16.77,33.61a1.14,1.14,0,0,1,.29-.86,1.07,1.07,0,0,1,1.43,0,1.08,1.08,0,0,1,.29.85,1.1,1.1,0,0,1-.29.85,1,1,0,0,1-.71.29,1,1,0,0,1-.72-.29A1.13,1.13,0,0,1,16.77,33.61Zm1.85,14.28h-1.7V36.65h1.7Z"/><path class="cls-2" d="M31.43,36.65v1.08L29.35,38a3.5,3.5,0,0,1,.51.93,3.64,3.64,0,0,1,.22,1.31A3.34,3.34,0,0,1,29,42.86a4.61,4.61,0,0,1-3.1,1,5.49,5.49,0,0,1-.94-.08,1.66,1.66,0,0,0-1.09,1.45.75.75,0,0,0,.38.68,2.86,2.86,0,0,0,1.3.22h2a4.38,4.38,0,0,1,2.8.77,2.64,2.64,0,0,1,1,2.23A3.21,3.21,0,0,1,29.79,52a8.06,8.06,0,0,1-4.37,1,6,6,0,0,1-3.4-.82,2.65,2.65,0,0,1-1.2-2.32A2.62,2.62,0,0,1,21.48,48a3.4,3.4,0,0,1,1.85-1,1.78,1.78,0,0,1-.73-.61,1.62,1.62,0,0,1-.29-.95,1.82,1.82,0,0,1,.33-1.08,3.53,3.53,0,0,1,1-.89,3,3,0,0,1-1.43-1.22,4.07,4.07,0,0,1,.56-4.81,4.52,4.52,0,0,1,3.14-1,6,6,0,0,1,1.59.2Zm-9,13.13a1.51,1.51,0,0,0,.76,1.38,4.22,4.22,0,0,0,2.21.47A6.09,6.09,0,0,0,28.61,51a1.94,1.94,0,0,0,1-1.74A1.36,1.36,0,0,0,29.08,48,4.31,4.31,0,0,0,27,47.63h-2a2.69,2.69,0,0,0-1.81.56A2,2,0,0,0,22.47,49.78Zm.92-9.53A2.32,2.32,0,0,0,24.05,42a2.7,2.7,0,0,0,1.86.6,2.17,2.17,0,0,0,2.49-2.42,2.23,2.23,0,0,0-2.52-2.53,2.51,2.51,0,0,0-1.85.64A2.62,2.62,0,0,0,23.39,40.25Z"/><path class="cls-2" d="M38.48,48.1a5.17,5.17,0,0,1-3.93-1.52,5.88,5.88,0,0,1-1.44-4.22,6.45,6.45,0,0,1,1.34-4.31A4.43,4.43,0,0,1,38,36.45a4.22,4.22,0,0,1,3.34,1.39,5.31,5.31,0,0,1,1.23,3.66v1.08H34.87a4.48,4.48,0,0,0,1,3,3.44,3.44,0,0,0,2.67,1,9,9,0,0,0,3.59-.76v1.52a9.44,9.44,0,0,1-1.71.56A9.7,9.7,0,0,1,38.48,48.1ZM38,37.87a2.82,2.82,0,0,0-2.16.88,4.17,4.17,0,0,0-1,2.45h5.88a3.73,3.73,0,0,0-.72-2.47A2.53,2.53,0,0,0,38,37.87Z"/><path class="cls-2" d="M58.22,44.83a2.82,2.82,0,0,1-1.17,2.42,5.54,5.54,0,0,1-3.28.85,7.18,7.18,0,0,1-3.49-.71V45.81a8.8,8.8,0,0,0,1.74.65,7.64,7.64,0,0,0,1.79.23,4.1,4.1,0,0,0,2-.42,1.42,1.42,0,0,0,.72-1.3A1.4,1.4,0,0,0,56,43.85a9.19,9.19,0,0,0-2.22-1.11,12.26,12.26,0,0,1-2.23-1,3,3,0,0,1-1-1,2.51,2.51,0,0,1-.33-1.32,2.55,2.55,0,0,1,1.12-2.17,5.23,5.23,0,0,1,3.07-.79,8.78,8.78,0,0,1,3.54.74l-.6,1.38a8.26,8.26,0,0,0-3.07-.7,3.55,3.55,0,0,0-1.82.38,1.19,1.19,0,0,0-.62,1,1.3,1.3,0,0,0,.23.77,2.4,2.4,0,0,0,.75.6,16.45,16.45,0,0,0,2,.83A7.48,7.48,0,0,1,57.52,43,2.57,2.57,0,0,1,58.22,44.83Z"/><path class="cls-2" d="M65.74,48.1a5.19,5.19,0,0,1-3.94-1.52,5.88,5.88,0,0,1-1.44-4.22,6.5,6.5,0,0,1,1.34-4.31,4.44,4.44,0,0,1,3.6-1.6,4.23,4.23,0,0,1,3.34,1.39,5.31,5.31,0,0,1,1.23,3.66v1.08H62.13a4.38,4.38,0,0,0,1,3,3.43,3.43,0,0,0,2.67,1,9,9,0,0,0,3.59-.76v1.52a9.44,9.44,0,0,1-1.71.56A9.78,9.78,0,0,1,65.74,48.1Zm-.46-10.23a2.79,2.79,0,0,0-2.16.88,4,4,0,0,0-.95,2.45H68a3.79,3.79,0,0,0-.71-2.47A2.54,2.54,0,0,0,65.28,37.87Z"/><path class="cls-2" d="M74.56,45.45l.15.24c-.18.68-.44,1.48-.77,2.38s-.68,1.75-1,2.53H71.61c.19-.71.39-1.59.61-2.64s.38-1.88.47-2.51Z"/><path class="cls-2" d="M91.06,47.89V40.62a2.92,2.92,0,0,0-.62-2,2.56,2.56,0,0,0-2-.68,3.19,3.19,0,0,0-2.59,1A4.89,4.89,0,0,0,85.08,42v5.87H83.37V31.94h1.71v4.83A9.5,9.5,0,0,1,85,38.21h.11a3.41,3.41,0,0,1,1.43-1.27,4.52,4.52,0,0,1,2.11-.47,4.32,4.32,0,0,1,3.1,1,4.15,4.15,0,0,1,1,3.11v7.33Z"/><path class="cls-2" d="M103.17,47.89l-.33-1.6h-.09a4.71,4.71,0,0,1-1.67,1.43A5.14,5.14,0,0,1,99,48.1a3.73,3.73,0,0,1-2.62-.87,3.14,3.14,0,0,1-1-2.45c0-2.27,1.82-3.45,5.45-3.56l1.9-.07v-.69a2.92,2.92,0,0,0-.56-2,2.36,2.36,0,0,0-1.83-.63,7.45,7.45,0,0,0-3.17.86l-.53-1.3a8.61,8.61,0,0,1,1.82-.71,7.92,7.92,0,0,1,2-.25,4.31,4.31,0,0,1,3,.89,3.76,3.76,0,0,1,1,2.86v7.67Zm-3.84-1.2a3.47,3.47,0,0,0,2.5-.87,3.23,3.23,0,0,0,.9-2.44v-1l-1.7.08a6,6,0,0,0-2.93.63,1.88,1.88,0,0,0-.89,1.73,1.76,1.76,0,0,0,.55,1.41A2.36,2.36,0,0,0,99.33,46.69Z"/><path class="cls-2" d="M115.63,47.89V40.62a3,3,0,0,0-.62-2,2.56,2.56,0,0,0-2-.68,3.23,3.23,0,0,0-2.59,1,4.84,4.84,0,0,0-.82,3.15v5.89h-1.7V36.65h1.39l.27,1.54h.09a3.47,3.47,0,0,1,1.46-1.29,4.82,4.82,0,0,1,2.1-.45,4.25,4.25,0,0,1,3.06,1,4.16,4.16,0,0,1,1,3.13v7.33Z"/><path class="cls-2" d="M133.54,44.83a2.82,2.82,0,0,1-1.17,2.42,5.57,5.57,0,0,1-3.29.85,7.11,7.11,0,0,1-3.48-.71V45.81a8.8,8.8,0,0,0,1.74.65,7.58,7.58,0,0,0,1.79.23,4.13,4.13,0,0,0,2.05-.42,1.42,1.42,0,0,0,.72-1.3,1.4,1.4,0,0,0-.57-1.12,9.19,9.19,0,0,0-2.22-1.11,11.94,11.94,0,0,1-2.23-1,3,3,0,0,1-1-1,2.61,2.61,0,0,1-.32-1.32,2.52,2.52,0,0,1,1.12-2.17,5.17,5.17,0,0,1,3.06-.79,8.86,8.86,0,0,1,3.55.74l-.61,1.38a8.21,8.21,0,0,0-3.06-.7,3.57,3.57,0,0,0-1.83.38,1.18,1.18,0,0,0-.61,1,1.3,1.3,0,0,0,.23.77,2.24,2.24,0,0,0,.74.6,16.45,16.45,0,0,0,2,.83,7.39,7.39,0,0,1,2.7,1.47A2.58,2.58,0,0,1,133.54,44.83Z"/><path class="cls-2" d="M134.52,36.65h1.83l2.46,6.41a24,24,0,0,1,1,3.17h.08c.09-.35.28-.94.56-1.79s1.21-3.44,2.79-7.79h1.82l-4.83,12.8a6.51,6.51,0,0,1-1.67,2.69,3.59,3.59,0,0,1-2.36.8,6.68,6.68,0,0,1-1.54-.18V51.4a6.16,6.16,0,0,0,1.27.12,2.6,2.6,0,0,0,2.5-2l.62-1.6Z"/><path class="cls-2" d="M154.58,47.89V40.62a2.93,2.93,0,0,0-.63-2,2.56,2.56,0,0,0-2-.68,3.22,3.22,0,0,0-2.58,1,4.78,4.78,0,0,0-.82,3.15v5.89h-1.7V36.65h1.38l.28,1.54h.08a3.56,3.56,0,0,1,1.47-1.29,4.79,4.79,0,0,1,2.1-.45,4.22,4.22,0,0,1,3.05,1,4.13,4.13,0,0,1,1,3.13v7.33Z"/><path class="cls-2" d="M164.52,48.1a5.17,5.17,0,0,1-3.93-1.52,5.88,5.88,0,0,1-1.44-4.22,6.5,6.5,0,0,1,1.34-4.31,4.43,4.43,0,0,1,3.59-1.6,4.22,4.22,0,0,1,3.34,1.39,5.27,5.27,0,0,1,1.24,3.66v1.08h-7.75a4.48,4.48,0,0,0,1,3,3.46,3.46,0,0,0,2.67,1,9,9,0,0,0,3.59-.76v1.52a9.61,9.61,0,0,1-1.7.56A9.88,9.88,0,0,1,164.52,48.1Zm-.46-10.23a2.82,2.82,0,0,0-2.16.88A4.1,4.1,0,0,0,161,41.2h5.87a3.73,3.73,0,0,0-.72-2.47A2.53,2.53,0,0,0,164.06,37.87Z"/><path class="cls-2" d="M178.81,44.83a2.82,2.82,0,0,1-1.17,2.42,5.56,5.56,0,0,1-3.28.85,7.16,7.16,0,0,1-3.49-.71V45.81a8.8,8.8,0,0,0,1.74.65,7.58,7.58,0,0,0,1.79.23,4.1,4.1,0,0,0,2-.42,1.42,1.42,0,0,0,.72-1.3,1.4,1.4,0,0,0-.57-1.12,9.19,9.19,0,0,0-2.22-1.11,11.94,11.94,0,0,1-2.23-1,3.11,3.11,0,0,1-1-1,2.61,2.61,0,0,1-.32-1.32A2.52,2.52,0,0,1,172,37.24a5.17,5.17,0,0,1,3.06-.79,8.83,8.83,0,0,1,3.55.74L178,38.57a8.17,8.17,0,0,0-3.06-.7,3.57,3.57,0,0,0-1.83.38,1.18,1.18,0,0,0-.61,1,1.3,1.3,0,0,0,.23.77,2.24,2.24,0,0,0,.74.6,16.45,16.45,0,0,0,2,.83A7.39,7.39,0,0,1,178.1,43,2.58,2.58,0,0,1,178.81,44.83Z"/><path class="cls-2" d="M194.72,47.89V40.62a2.93,2.93,0,0,0-.63-2,2.54,2.54,0,0,0-2-.68,3.17,3.17,0,0,0-2.59,1,4.83,4.83,0,0,0-.82,3.16v5.87H187V31.94h1.7v4.83a11.26,11.26,0,0,1-.08,1.44h.1a3.47,3.47,0,0,1,1.43-1.27,4.56,4.56,0,0,1,2.12-.47,4.31,4.31,0,0,1,3.09,1,4.11,4.11,0,0,1,1,3.11v7.33Z"/><path class="cls-2" d="M201.52,36.65v7.29a3,3,0,0,0,.62,2.05,2.52,2.52,0,0,0,2,.68,3.19,3.19,0,0,0,2.58-1,4.89,4.89,0,0,0,.82-3.15V36.65h1.7V47.89h-1.41l-.24-1.51h-.09A3.43,3.43,0,0,1,206,47.66a4.91,4.91,0,0,1-2.11.44,4.29,4.29,0,0,1-3.07-1,4.12,4.12,0,0,1-1-3.12V36.65Z"/><path class="cls-2" d="M220.5,47.89V40.62a2.93,2.93,0,0,0-.63-2,2.56,2.56,0,0,0-2-.68,3.22,3.22,0,0,0-2.58,1,4.78,4.78,0,0,0-.82,3.15v5.89h-1.7V36.65h1.38l.28,1.54h.08A3.56,3.56,0,0,1,216,36.9a4.79,4.79,0,0,1,2.1-.45,4.22,4.22,0,0,1,3,1,4.13,4.13,0,0,1,1,3.13v7.33Z"/><path class="cls-2" d="M16.35,73.3a5.17,5.17,0,0,1-3.93-1.52A5.88,5.88,0,0,1,11,67.56a6.5,6.5,0,0,1,1.34-4.31,4.43,4.43,0,0,1,3.59-1.6A4.24,4.24,0,0,1,19.26,63a5.31,5.31,0,0,1,1.23,3.66v1.08H12.74a4.48,4.48,0,0,0,1,3,3.47,3.47,0,0,0,2.68,1A8.93,8.93,0,0,0,20,71.05v1.52a9.61,9.61,0,0,1-1.7.56A9.88,9.88,0,0,1,16.35,73.3Zm-.46-10.23a2.79,2.79,0,0,0-2.16.89,4,4,0,0,0-.94,2.44h5.87a3.73,3.73,0,0,0-.72-2.47A2.53,2.53,0,0,0,15.89,63.07Z"/><path class="cls-2" d="M28.52,61.65a6.88,6.88,0,0,1,1.34.12l-.24,1.58a5.86,5.86,0,0,0-1.23-.15,3,3,0,0,0-2.33,1.1,4,4,0,0,0-1,2.76v6h-1.7V61.85h1.4l.2,2.08h.08a5,5,0,0,1,1.51-1.69A3.44,3.44,0,0,1,28.52,61.65Z"/><path class="cls-2" d="M51.74,73.09V65.78a3,3,0,0,0-.57-2,2.24,2.24,0,0,0-1.79-.68A2.89,2.89,0,0,0,47,64a4.37,4.37,0,0,0-.76,2.81v6.27h-1.7V65.78a3,3,0,0,0-.57-2,2.23,2.23,0,0,0-1.8-.68,2.79,2.79,0,0,0-2.34,1,5.25,5.25,0,0,0-.74,3.15v5.89h-1.7V61.85H38.8l.28,1.54h.08a3.3,3.3,0,0,1,1.36-1.28,4.11,4.11,0,0,1,2-.46c1.76,0,2.91.63,3.45,1.9H46a3.6,3.6,0,0,1,1.45-1.39,4.56,4.56,0,0,1,2.18-.51,3.76,3.76,0,0,1,2.85,1,4.33,4.33,0,0,1,.95,3.13v7.33Z"/><path class="cls-2" d="M61.7,73.3a5.19,5.19,0,0,1-3.94-1.52,5.88,5.88,0,0,1-1.44-4.22,6.5,6.5,0,0,1,1.34-4.31,4.44,4.44,0,0,1,3.6-1.6A4.23,4.23,0,0,1,64.6,63a5.31,5.31,0,0,1,1.23,3.66v1.08H58.09a4.38,4.38,0,0,0,1,3,3.43,3.43,0,0,0,2.67,1,9,9,0,0,0,3.59-.76v1.52a9.44,9.44,0,0,1-1.71.56A9.78,9.78,0,0,1,61.7,73.3Zm-.46-10.23a2.76,2.76,0,0,0-2.16.89,4,4,0,0,0-.95,2.44H64a3.79,3.79,0,0,0-.71-2.47A2.54,2.54,0,0,0,61.24,63.07Z"/><path class="cls-2" d="M77.93,61.85v1.08l-2.08.25a3.66,3.66,0,0,1,.74,2.24,3.35,3.35,0,0,1-1.13,2.64,4.59,4.59,0,0,1-3.1,1,5.58,5.58,0,0,1-.94-.08,1.66,1.66,0,0,0-1.09,1.44.75.75,0,0,0,.38.69,2.86,2.86,0,0,0,1.3.22h2a4.43,4.43,0,0,1,2.81.77,2.66,2.66,0,0,1,1,2.23,3.2,3.2,0,0,1-1.5,2.85,8.06,8.06,0,0,1-4.37,1,6,6,0,0,1-3.4-.82A2.64,2.64,0,0,1,67.33,75,2.59,2.59,0,0,1,68,73.22a3.44,3.44,0,0,1,1.85-1,1.78,1.78,0,0,1-.73-.61,1.62,1.62,0,0,1-.29-.95,1.82,1.82,0,0,1,.33-1.08,3.67,3.67,0,0,1,1-.89,3,3,0,0,1-1.42-1.22,3.54,3.54,0,0,1-.55-2,3.61,3.61,0,0,1,1.11-2.84,4.48,4.48,0,0,1,3.13-1,6,6,0,0,1,1.59.2ZM69,75a1.5,1.5,0,0,0,.77,1.38,4.16,4.16,0,0,0,2.2.47,6.09,6.09,0,0,0,3.17-.64,1.94,1.94,0,0,0,1-1.73,1.36,1.36,0,0,0-.56-1.27,4.31,4.31,0,0,0-2.12-.36h-2a2.7,2.7,0,0,0-1.81.56A2,2,0,0,0,69,75Zm.92-9.53a2.29,2.29,0,0,0,.67,1.79,2.66,2.66,0,0,0,1.85.6,2.17,2.17,0,0,0,2.49-2.42,2.23,2.23,0,0,0-2.52-2.53,2.45,2.45,0,0,0-1.84.65A2.53,2.53,0,0,0,69.89,65.45Z"/><path class="cls-2" d="M87.15,73.09l-.34-1.6h-.08a4.65,4.65,0,0,1-1.68,1.43A5.1,5.1,0,0,1,83,73.3a3.79,3.79,0,0,1-2.62-.86A3.17,3.17,0,0,1,79.4,70c0-2.27,1.81-3.45,5.44-3.56l1.91-.07v-.69a2.87,2.87,0,0,0-.57-2,2.35,2.35,0,0,0-1.82-.63,7.46,7.46,0,0,0-3.18.86l-.52-1.3a8.41,8.41,0,0,1,1.82-.71,7.9,7.9,0,0,1,2-.25,4.31,4.31,0,0,1,3,.89,3.72,3.72,0,0,1,1,2.86v7.67Zm-3.85-1.2A3.47,3.47,0,0,0,85.8,71a3.25,3.25,0,0,0,.91-2.44v-1L85,67.64a6,6,0,0,0-2.92.63,1.89,1.89,0,0,0-.9,1.73,1.77,1.77,0,0,0,.56,1.41A2.31,2.31,0,0,0,83.3,71.89Z"/><path class="cls-2" d="M105,71.58h-.09a4,4,0,0,1-3.53,1.72A4.19,4.19,0,0,1,98,71.79a6.62,6.62,0,0,1-1.23-4.29A6.66,6.66,0,0,1,98,63.19a4.55,4.55,0,0,1,6.93.12H105L105,62.5l0-.79V57.14h1.7v16h-1.38Zm-3.4.29a3.09,3.09,0,0,0,2.52-1,4.74,4.74,0,0,0,.79-3.06V67.5a5.64,5.64,0,0,0-.8-3.41,3,3,0,0,0-2.54-1,2.61,2.61,0,0,0-2.29,1.17,5.76,5.76,0,0,0-.79,3.28,5.51,5.51,0,0,0,.79,3.25A2.65,2.65,0,0,0,101.62,71.87Z"/><path class="cls-2" d="M115,73.3a5.19,5.19,0,0,1-3.94-1.52,5.88,5.88,0,0,1-1.44-4.22A6.5,6.5,0,0,1,111,63.25a4.43,4.43,0,0,1,3.59-1.6A4.24,4.24,0,0,1,117.89,63a5.31,5.31,0,0,1,1.23,3.66v1.08h-7.74a4.38,4.38,0,0,0,1,3,3.43,3.43,0,0,0,2.67,1,9,9,0,0,0,3.59-.76v1.52a9.44,9.44,0,0,1-1.71.56A9.85,9.85,0,0,1,115,73.3Zm-.46-10.23a2.76,2.76,0,0,0-2.16.89,4,4,0,0,0-1,2.44h5.87a3.79,3.79,0,0,0-.71-2.47A2.54,2.54,0,0,0,114.53,63.07Z"/><path class="cls-2" d="M120.66,78.14a4.1,4.1,0,0,1-1.58-.26V76.5a5.19,5.19,0,0,0,1.39.2,1.52,1.52,0,0,0,1.18-.43,2,2,0,0,0,.37-1.33V61.85h1.7v13Q123.72,78.14,120.66,78.14Zm1.22-19.33a1.14,1.14,0,0,1,.28-.86,1,1,0,0,1,.72-.27,1,1,0,0,1,.71.28,1.08,1.08,0,0,1,.3.85,1.1,1.1,0,0,1-.3.85,1,1,0,0,1-1.43,0A1.13,1.13,0,0,1,121.88,58.81Z"/><path class="cls-2" d="M129,73.09h-1.7v-16H129Z"/><path class="cls-2" d="M132.5,58.81a1.14,1.14,0,0,1,.29-.86,1,1,0,0,1,.71-.27,1,1,0,0,1,.71.28,1.08,1.08,0,0,1,.3.85,1.1,1.1,0,0,1-.3.85,1,1,0,0,1-.71.29,1,1,0,0,1-.71-.29A1.13,1.13,0,0,1,132.5,58.81Zm1.85,14.28h-1.71V61.85h1.71Z"/><path class="cls-2" d="M147.15,61.85v1.08l-2.08.25a3.66,3.66,0,0,1,.74,2.24,3.35,3.35,0,0,1-1.13,2.64,4.57,4.57,0,0,1-3.1,1,5.67,5.67,0,0,1-.94-.08,1.68,1.68,0,0,0-1.09,1.44.75.75,0,0,0,.38.69,2.91,2.91,0,0,0,1.31.22h2a4.4,4.4,0,0,1,2.8.77,2.66,2.66,0,0,1,1,2.23,3.2,3.2,0,0,1-1.5,2.85,8,8,0,0,1-4.37,1,6,6,0,0,1-3.39-.82,2.65,2.65,0,0,1-1.2-2.32,2.6,2.6,0,0,1,.66-1.78,3.37,3.37,0,0,1,1.84-1,1.75,1.75,0,0,1-.72-.61,1.55,1.55,0,0,1-.29-.95,1.82,1.82,0,0,1,.33-1.08,3.47,3.47,0,0,1,1-.89A3,3,0,0,1,138,67.46a4,4,0,0,1,.56-4.81,4.5,4.5,0,0,1,3.14-1,6.07,6.07,0,0,1,1.59.2Zm-9,13.13a1.52,1.52,0,0,0,.77,1.38,4.18,4.18,0,0,0,2.2.47,6.16,6.16,0,0,0,3.18-.64,1.94,1.94,0,0,0,1-1.73,1.37,1.37,0,0,0-.57-1.27,4.28,4.28,0,0,0-2.12-.36h-2a2.67,2.67,0,0,0-1.8.56A2,2,0,0,0,138.19,75Zm.92-9.53a2.32,2.32,0,0,0,.67,1.79,2.67,2.67,0,0,0,1.86.6,2.17,2.17,0,0,0,2.49-2.42,2.23,2.23,0,0,0-2.52-2.53,2.47,2.47,0,0,0-1.85.65A2.57,2.57,0,0,0,139.11,65.45Z"/><path class="cls-2" d="M149.21,72c0-.93.41-1.39,1.23-1.39a1.16,1.16,0,0,1,.92.36,1.46,1.46,0,0,1,.32,1,1.5,1.5,0,0,1-.32,1,1.19,1.19,0,0,1-.92.36,1.27,1.27,0,0,1-.88-.32A1.42,1.42,0,0,1,149.21,72ZM151,69h-1.08L149.4,58.1h2.12Z"/></svg>