<svg id="Layer_1" data-name="Layer 1" xmlns="http://www.w3.org/2000/svg" width="248" height="39.16" viewBox="0 0 248 39.16"><defs><style>.cls-1{fill:#3fa7f3;}.cls-2{fill:#fff;}</style></defs><title>svar 3 besked 3</title><rect class="cls-1" width="248" height="39.16" rx="19.58"/><path class="cls-2" d="M10.68,28.64a3.38,3.38,0,0,1-1.52-.28V26.88a5.87,5.87,0,0,0,1.52.2,1.91,1.91,0,0,0,1.54-.61,2.68,2.68,0,0,0,.53-1.78V9.7h1.74V24.55a4.29,4.29,0,0,1-1,3A3.67,3.67,0,0,1,10.68,28.64Z"/><path class="cls-2" d="M27.92,19.06a6.2,6.2,0,0,1-1.39,4.29,4.87,4.87,0,0,1-3.82,1.55A5.08,5.08,0,0,1,20,24.19a4.63,4.63,0,0,1-1.8-2,7,7,0,0,1-.64-3.1A6.22,6.22,0,0,1,19,14.78a4.88,4.88,0,0,1,3.82-1.53,4.75,4.75,0,0,1,3.75,1.57A6.19,6.19,0,0,1,27.92,19.06Zm-8.57,0a5.35,5.35,0,0,0,.86,3.28,3,3,0,0,0,2.54,1.13,3,3,0,0,0,2.54-1.12,5.38,5.38,0,0,0,.86-3.29,5.25,5.25,0,0,0-.86-3.25,3.07,3.07,0,0,0-2.56-1.12,3,3,0,0,0-2.53,1.1A5.32,5.32,0,0,0,19.35,19.06Z"/><path class="cls-2" d="M43.6,21.63a2.84,2.84,0,0,1-1.16,2.42,5.57,5.57,0,0,1-3.29.85,7.11,7.11,0,0,1-3.48-.71V22.61a8.8,8.8,0,0,0,1.74.65,7.5,7.5,0,0,0,1.78.23,4.14,4.14,0,0,0,2.06-.42,1.43,1.43,0,0,0,.71-1.3,1.4,1.4,0,0,0-.57-1.12,9.19,9.19,0,0,0-2.22-1.11,12.26,12.26,0,0,1-2.23-1,3,3,0,0,1-1-1,2.51,2.51,0,0,1-.32-1.32A2.54,2.54,0,0,1,36.75,14a5.23,5.23,0,0,1,3.07-.79,8.86,8.86,0,0,1,3.55.74l-.61,1.38a8.21,8.21,0,0,0-3.06-.7,3.57,3.57,0,0,0-1.83.38,1.18,1.18,0,0,0-.61,1.05,1.23,1.23,0,0,0,.23.77,2.24,2.24,0,0,0,.74.6,16.45,16.45,0,0,0,2,.83,7.48,7.48,0,0,1,2.7,1.47A2.57,2.57,0,0,1,43.6,21.63Z"/><path class="cls-2" d="M51.12,24.9a5.17,5.17,0,0,1-3.93-1.52,5.88,5.88,0,0,1-1.44-4.21,6.46,6.46,0,0,1,1.34-4.32,4.43,4.43,0,0,1,3.59-1.6A4.22,4.22,0,0,1,54,14.64a5.31,5.31,0,0,1,1.23,3.66v1.08H47.51a4.43,4.43,0,0,0,1,3,3.43,3.43,0,0,0,2.67,1,9,9,0,0,0,3.59-.76v1.52a9.44,9.44,0,0,1-1.71.56A9.7,9.7,0,0,1,51.12,24.9Zm-.46-10.23a2.79,2.79,0,0,0-2.16.89,4,4,0,0,0-1,2.44h5.88a3.73,3.73,0,0,0-.72-2.47A2.53,2.53,0,0,0,50.66,14.67Z"/><path class="cls-2" d="M59.86,24.69H58.15V8.74h1.71Z"/><path class="cls-2" d="M65.93,24.69,61.66,13.45h1.83l2.42,6.67q.81,2.34,1,3H67a22.57,22.57,0,0,1,.72-2.25c.39-1.13,1.29-3.62,2.69-7.45h1.82L67.92,24.69Z"/><path class="cls-2" d="M79.05,14.78H76.19v9.91h-1.7V14.78h-2V14l2-.62v-.62q0-4.15,3.62-4.15A7.44,7.44,0,0,1,80.2,9l-.44,1.37A5.43,5.43,0,0,0,78.08,10a1.65,1.65,0,0,0-1.43.64,3.57,3.57,0,0,0-.46,2.06v.72h2.86Z"/><path class="cls-2" d="M90.8,19.06a6.2,6.2,0,0,1-1.38,4.29,4.88,4.88,0,0,1-3.83,1.55,5.08,5.08,0,0,1-2.72-.71L82,25.39l-1.16-.8,1-1.34a6.28,6.28,0,0,1-1.32-4.19,6.22,6.22,0,0,1,1.37-4.28A5.43,5.43,0,0,1,88.43,14l.87-1.22,1.2.78L89.5,15A6.19,6.19,0,0,1,90.8,19.06Zm-8.56,0a6.14,6.14,0,0,0,.54,2.8l4.77-6.62a3.29,3.29,0,0,0-1.94-.55,3,3,0,0,0-2.52,1.1A5.26,5.26,0,0,0,82.24,19.06Zm6.8,0a6.06,6.06,0,0,0-.52-2.7L83.75,23a3.12,3.12,0,0,0,1.88.52,3,3,0,0,0,2.54-1.12A5.31,5.31,0,0,0,89,19.06Z"/><path class="cls-2" d="M95.49,24.69h-1.7V8.74h1.7Z"/><path class="cls-2" d="M108.3,13.45v1.08l-2.09.25a3.39,3.39,0,0,1,.52.93A3.64,3.64,0,0,1,107,17a3.31,3.31,0,0,1-1.13,2.64,4.56,4.56,0,0,1-3.09,1,5.7,5.7,0,0,1-1-.08A1.67,1.67,0,0,0,100.7,22a.73.73,0,0,0,.38.68,2.83,2.83,0,0,0,1.3.22h2a4.38,4.38,0,0,1,2.8.77,2.64,2.64,0,0,1,1,2.23,3.21,3.21,0,0,1-1.49,2.85,8.06,8.06,0,0,1-4.37,1,6,6,0,0,1-3.4-.82,2.65,2.65,0,0,1-1.2-2.32,2.57,2.57,0,0,1,.66-1.77,3.35,3.35,0,0,1,1.85-1,1.83,1.83,0,0,1-.73-.6,1.67,1.67,0,0,1-.29-1,1.82,1.82,0,0,1,.33-1.08,3.61,3.61,0,0,1,1-.89,3,3,0,0,1-1.42-1.22,3.62,3.62,0,0,1-.54-2,3.61,3.61,0,0,1,1.1-2.84,4.52,4.52,0,0,1,3.14-1,6,6,0,0,1,1.59.2Zm-9,13.13A1.52,1.52,0,0,0,100.1,28a4.22,4.22,0,0,0,2.21.47,6.11,6.11,0,0,0,3.17-.64,1.94,1.94,0,0,0,1-1.73,1.38,1.38,0,0,0-.56-1.27,4.36,4.36,0,0,0-2.12-.35h-2A2.67,2.67,0,0,0,100,25,2,2,0,0,0,99.33,26.58Zm.93-9.53a2.32,2.32,0,0,0,.66,1.79,2.7,2.7,0,0,0,1.86.6A2.17,2.17,0,0,0,105.27,17a2.23,2.23,0,0,0-2.52-2.53,2.47,2.47,0,0,0-1.85.65A2.59,2.59,0,0,0,100.26,17.05Z"/><path class="cls-2" d="M115.35,24.9a5.17,5.17,0,0,1-3.93-1.52A5.88,5.88,0,0,1,110,19.17a6.46,6.46,0,0,1,1.34-4.32,4.43,4.43,0,0,1,3.59-1.6,4.22,4.22,0,0,1,3.34,1.39,5.31,5.31,0,0,1,1.23,3.66v1.08h-7.74a4.48,4.48,0,0,0,1,3,3.43,3.43,0,0,0,2.67,1,9,9,0,0,0,3.59-.76v1.52a9.44,9.44,0,0,1-1.71.56A9.7,9.7,0,0,1,115.35,24.9Zm-.46-10.23a2.79,2.79,0,0,0-2.16.89,4,4,0,0,0-1,2.44h5.88a3.73,3.73,0,0,0-.72-2.47A2.53,2.53,0,0,0,114.89,14.67Z"/><path class="cls-2" d="M124.09,24.69h-1.71V8.74h1.71Z"/><path class="cls-2" d="M127.55,10.41a1.14,1.14,0,0,1,.29-.86,1,1,0,0,1,.72-.27,1,1,0,0,1,.7.28,1.1,1.1,0,0,1,.3.85,1.1,1.1,0,0,1-.3.85,1,1,0,0,1-.7.29,1,1,0,0,1-.72-.29A1.13,1.13,0,0,1,127.55,10.41Zm1.85,14.28h-1.7V13.45h1.7Z"/><path class="cls-2" d="M142.21,13.45v1.08l-2.09.25a3.39,3.39,0,0,1,.52.93,3.64,3.64,0,0,1,.22,1.31,3.31,3.31,0,0,1-1.13,2.64,4.56,4.56,0,0,1-3.09,1,5.7,5.7,0,0,1-.95-.08A1.67,1.67,0,0,0,134.61,22a.73.73,0,0,0,.38.68,2.83,2.83,0,0,0,1.3.22h2a4.38,4.38,0,0,1,2.8.77,2.64,2.64,0,0,1,1,2.23,3.2,3.2,0,0,1-1.5,2.85,8,8,0,0,1-4.36,1,6,6,0,0,1-3.4-.82,2.65,2.65,0,0,1-1.2-2.32,2.57,2.57,0,0,1,.66-1.77,3.35,3.35,0,0,1,1.85-1,1.83,1.83,0,0,1-.73-.6,1.67,1.67,0,0,1-.29-1,1.82,1.82,0,0,1,.33-1.08,3.61,3.61,0,0,1,1-.89A3,3,0,0,1,133,19.06a3.62,3.62,0,0,1-.55-2,3.61,3.61,0,0,1,1.11-2.84,4.52,4.52,0,0,1,3.14-1,6,6,0,0,1,1.59.2Zm-9,13.13A1.52,1.52,0,0,0,134,28a4.22,4.22,0,0,0,2.21.47,6.11,6.11,0,0,0,3.17-.64,1.94,1.94,0,0,0,1-1.73,1.38,1.38,0,0,0-.56-1.27,4.38,4.38,0,0,0-2.13-.35h-2a2.67,2.67,0,0,0-1.8.55A2,2,0,0,0,133.24,26.58Zm.93-9.53a2.32,2.32,0,0,0,.66,1.79,2.7,2.7,0,0,0,1.86.6A2.17,2.17,0,0,0,139.18,17a2.23,2.23,0,0,0-2.52-2.53,2.47,2.47,0,0,0-1.85.65A2.59,2.59,0,0,0,134.17,17.05Z"/><path class="cls-2" d="M146.3,22.25l.15.24a24.55,24.55,0,0,1-.77,2.38c-.33.91-.68,1.75-1,2.53h-1.29c.19-.71.39-1.59.61-2.64s.38-1.88.47-2.51Z"/><path class="cls-2" d="M164.31,13.45v1.08l-2.08.25A3.66,3.66,0,0,1,163,17a3.35,3.35,0,0,1-1.13,2.64,4.56,4.56,0,0,1-3.09,1,5.7,5.7,0,0,1-.95-.08A1.68,1.68,0,0,0,156.71,22a.75.75,0,0,0,.38.68,2.91,2.91,0,0,0,1.31.22h2a4.4,4.4,0,0,1,2.8.77,2.66,2.66,0,0,1,1,2.23,3.2,3.2,0,0,1-1.5,2.85,8,8,0,0,1-4.37,1,6,6,0,0,1-3.39-.82,2.65,2.65,0,0,1-1.2-2.32,2.57,2.57,0,0,1,.66-1.77,3.32,3.32,0,0,1,1.84-1,1.8,1.8,0,0,1-.72-.6,1.6,1.6,0,0,1-.29-1,1.82,1.82,0,0,1,.33-1.08,3.47,3.47,0,0,1,1-.89,3,3,0,0,1-1.42-1.22,3.62,3.62,0,0,1-.55-2,3.61,3.61,0,0,1,1.11-2.84,4.5,4.5,0,0,1,3.14-1,6,6,0,0,1,1.59.2Zm-9,13.13a1.52,1.52,0,0,0,.77,1.38,4.18,4.18,0,0,0,2.2.47,6.16,6.16,0,0,0,3.18-.64,1.94,1.94,0,0,0,1-1.73,1.37,1.37,0,0,0-.57-1.27,4.31,4.31,0,0,0-2.12-.35h-2A2.67,2.67,0,0,0,156,25,2,2,0,0,0,155.35,26.58Zm.92-9.53a2.32,2.32,0,0,0,.67,1.79,2.67,2.67,0,0,0,1.86.6A2.17,2.17,0,0,0,161.29,17a2.23,2.23,0,0,0-2.52-2.53,2.47,2.47,0,0,0-1.85.65A2.6,2.6,0,0,0,156.27,17.05Z"/><path class="cls-2" d="M176.32,19.06a6.2,6.2,0,0,1-1.38,4.29,4.89,4.89,0,0,1-3.83,1.55,5.14,5.14,0,0,1-2.73-.71l-.86,1.2-1.17-.8,1-1.34A6.28,6.28,0,0,1,166,19.06a6.17,6.17,0,0,1,1.37-4.28,4.86,4.86,0,0,1,3.81-1.53A4.91,4.91,0,0,1,174,14l.86-1.22,1.2.78L175,15A6.19,6.19,0,0,1,176.32,19.06Zm-8.56,0a6.14,6.14,0,0,0,.54,2.8l4.77-6.62a3.29,3.29,0,0,0-1.94-.55,3,3,0,0,0-2.52,1.1A5.26,5.26,0,0,0,167.76,19.06Zm6.8,0a5.92,5.92,0,0,0-.53-2.7L169.27,23a3.12,3.12,0,0,0,1.88.52,3,3,0,0,0,2.54-1.12A5.31,5.31,0,0,0,174.56,19.06Z"/><path class="cls-2" d="M184.43,13.25a6.91,6.91,0,0,1,1.35.12L185.54,15a6,6,0,0,0-1.23-.15A3,3,0,0,0,182,15.9a4,4,0,0,0-1,2.76v6H179.3V13.45h1.41l.19,2.09H181a4.92,4.92,0,0,1,1.5-1.7A3.46,3.46,0,0,1,184.43,13.25Z"/><path class="cls-2" d="M192,29.74a4.1,4.1,0,0,1-1.58-.26V28.1a5.25,5.25,0,0,0,1.39.2,1.47,1.47,0,0,0,1.18-.43,2,2,0,0,0,.37-1.33V13.45H195v13Q195,29.74,192,29.74Zm1.22-19.33a1.11,1.11,0,0,1,.29-.86,1,1,0,0,1,.71-.27,1,1,0,0,1,.71.28,1.1,1.1,0,0,1,.3.85,1.1,1.1,0,0,1-.3.85,1,1,0,0,1-.71.29,1,1,0,0,1-.71-.29A1.1,1.1,0,0,1,193.19,10.41Z"/><path class="cls-2" d="M203.39,24.9a5.17,5.17,0,0,1-3.93-1.52A5.88,5.88,0,0,1,198,19.17a6.46,6.46,0,0,1,1.34-4.32,4.43,4.43,0,0,1,3.59-1.6,4.22,4.22,0,0,1,3.34,1.39,5.31,5.31,0,0,1,1.23,3.66v1.08h-7.74a4.48,4.48,0,0,0,1,3,3.43,3.43,0,0,0,2.67,1,9,9,0,0,0,3.59-.76v1.52a9.44,9.44,0,0,1-1.71.56A9.7,9.7,0,0,1,203.39,24.9Zm-.46-10.23a2.79,2.79,0,0,0-2.16.89,4,4,0,0,0-1,2.44h5.88a3.73,3.73,0,0,0-.72-2.47A2.53,2.53,0,0,0,202.93,14.67Z"/><path class="cls-2" d="M219.62,13.45v1.08l-2.08.25a3.66,3.66,0,0,1,.51.93,3.43,3.43,0,0,1,.23,1.31,3.35,3.35,0,0,1-1.13,2.64,4.56,4.56,0,0,1-3.09,1,5.7,5.7,0,0,1-.95-.08A1.67,1.67,0,0,0,212,22a.74.74,0,0,0,.37.68,2.91,2.91,0,0,0,1.31.22h2a4.4,4.4,0,0,1,2.8.77,2.66,2.66,0,0,1,1,2.23,3.2,3.2,0,0,1-1.5,2.85,8,8,0,0,1-4.36,1,6,6,0,0,1-3.4-.82A2.65,2.65,0,0,1,209,26.6a2.57,2.57,0,0,1,.66-1.77,3.32,3.32,0,0,1,1.84-1,1.87,1.87,0,0,1-.72-.6,1.67,1.67,0,0,1-.29-1,1.82,1.82,0,0,1,.33-1.08,3.47,3.47,0,0,1,1-.89,3,3,0,0,1-1.42-1.22,3.62,3.62,0,0,1-.55-2A3.61,3.61,0,0,1,211,14.25a4.5,4.5,0,0,1,3.14-1,6,6,0,0,1,1.59.2Zm-9,13.13a1.52,1.52,0,0,0,.77,1.38,4.18,4.18,0,0,0,2.2.47,6.16,6.16,0,0,0,3.18-.64,1.94,1.94,0,0,0,1-1.73,1.38,1.38,0,0,0-.56-1.27,4.38,4.38,0,0,0-2.13-.35h-2a2.67,2.67,0,0,0-1.8.55A2,2,0,0,0,210.66,26.58Zm.92-9.53a2.32,2.32,0,0,0,.67,1.79,2.68,2.68,0,0,0,1.86.6A2.17,2.17,0,0,0,216.6,17a2.23,2.23,0,0,0-2.52-2.53,2.47,2.47,0,0,0-1.85.65A2.6,2.6,0,0,0,211.58,17.05Z"/><path class="cls-2" d="M221.68,23.6a1.54,1.54,0,0,1,.32-1,1.14,1.14,0,0,1,.89-.35,1.23,1.23,0,0,1,.93.35,1.49,1.49,0,0,1,.34,1,1.47,1.47,0,0,1-.34,1,1.35,1.35,0,0,1-1.79,0A1.42,1.42,0,0,1,221.68,23.6Z"/></svg>