<svg id="Layer_1" data-name="Layer 1" xmlns="http://www.w3.org/2000/svg" width="273" height="64" viewBox="0 0 273 64"><defs><style>.cls-1{fill:#3fa7f3;}.cls-2{fill:#fff;}</style></defs><title>svar 1 besked 2</title><rect class="cls-1" width="273" height="64" rx="19.58"/><path class="cls-2" d="M24.57,24.69h-2L14.39,12.11h-.08c.11,1.48.16,2.83.16,4.06v8.52H12.86V9.7h2L23,22.23h.09c0-.18-.05-.78-.1-1.78s-.06-1.72,0-2.15V9.7h1.63Z"/><path class="cls-2" d="M33.19,24.9a5.17,5.17,0,0,1-3.94-1.52,5.88,5.88,0,0,1-1.44-4.21,6.51,6.51,0,0,1,1.34-4.32,4.44,4.44,0,0,1,3.6-1.6,4.23,4.23,0,0,1,3.34,1.39,5.31,5.31,0,0,1,1.23,3.66v1.08H29.58a4.38,4.38,0,0,0,1,3,3.43,3.43,0,0,0,2.67,1,9,9,0,0,0,3.59-.76v1.52a9.7,9.7,0,0,1-1.71.56A9.85,9.85,0,0,1,33.19,24.9Zm-.47-10.23a2.75,2.75,0,0,0-2.15.89A4,4,0,0,0,29.62,18h5.87a3.79,3.79,0,0,0-.71-2.47A2.55,2.55,0,0,0,32.72,14.67Z"/><path class="cls-2" d="M38.86,29.74a4.1,4.1,0,0,1-1.58-.26V28.1a5.19,5.19,0,0,0,1.39.2,1.47,1.47,0,0,0,1.18-.43,2,2,0,0,0,.37-1.33V13.45h1.7v13Q41.92,29.74,38.86,29.74Zm1.22-19.33a1.14,1.14,0,0,1,.28-.86,1,1,0,0,1,.72-.27,1,1,0,0,1,.71.28,1.1,1.1,0,0,1,.3.85,1.1,1.1,0,0,1-.3.85,1,1,0,0,1-.71.29,1,1,0,0,1-.72-.29A1.13,1.13,0,0,1,40.08,10.41Z"/><path class="cls-2" d="M58.64,23.18h-.1A4,4,0,0,1,55,24.9a4.18,4.18,0,0,1-3.43-1.51,6.62,6.62,0,0,1-1.23-4.29,6.72,6.72,0,0,1,1.23-4.31A4.13,4.13,0,0,1,55,13.25a4.07,4.07,0,0,1,3.5,1.66h.14l-.08-.81,0-.79V8.74h1.71v16H58.86Zm-3.41.29a3.08,3.08,0,0,0,2.53-.95,4.8,4.8,0,0,0,.78-3.06V19.1a5.65,5.65,0,0,0-.79-3.41,3,3,0,0,0-2.54-1,2.6,2.6,0,0,0-2.29,1.17,5.76,5.76,0,0,0-.8,3.28,5.58,5.58,0,0,0,.79,3.25A2.66,2.66,0,0,0,55.23,23.47Z"/><path class="cls-2" d="M65.46,13.45v7.29a2.91,2.91,0,0,0,.62,2.05,2.52,2.52,0,0,0,2,.68,3.22,3.22,0,0,0,2.58-1,4.88,4.88,0,0,0,.81-3.15V13.45h1.71V24.69H71.73l-.25-1.51h-.09a3.41,3.41,0,0,1-1.45,1.28,4.93,4.93,0,0,1-2.12.44,4.3,4.3,0,0,1-3.07-1,4.14,4.14,0,0,1-1-3.11V13.45Z"/><path class="cls-2" d="M84.39,23.18H84.3a4,4,0,0,1-3.53,1.72,4.19,4.19,0,0,1-3.43-1.51,6.68,6.68,0,0,1-1.22-4.29,6.72,6.72,0,0,1,1.23-4.31,4.12,4.12,0,0,1,3.42-1.54,4.07,4.07,0,0,1,3.51,1.66h.13l-.07-.81,0-.79V8.74H86v16H84.62Zm-3.4.29a3.09,3.09,0,0,0,2.53-.95,4.8,4.8,0,0,0,.78-3.06V19.1a5.65,5.65,0,0,0-.79-3.41,3,3,0,0,0-2.54-1,2.6,2.6,0,0,0-2.29,1.17,5.76,5.76,0,0,0-.8,3.28,5.58,5.58,0,0,0,.79,3.25A2.66,2.66,0,0,0,81,23.47Z"/><path class="cls-2" d="M94.36,24.9a5.17,5.17,0,0,1-3.93-1.52A5.88,5.88,0,0,1,89,19.17a6.46,6.46,0,0,1,1.34-4.32,4.43,4.43,0,0,1,3.59-1.6,4.22,4.22,0,0,1,3.34,1.39,5.31,5.31,0,0,1,1.23,3.66v1.08H90.75a4.48,4.48,0,0,0,1,3,3.43,3.43,0,0,0,2.67,1A9,9,0,0,0,98,22.65v1.52a9.44,9.44,0,0,1-1.71.56A9.7,9.7,0,0,1,94.36,24.9ZM93.9,14.67a2.79,2.79,0,0,0-2.16.89A4,4,0,0,0,90.79,18h5.88A3.73,3.73,0,0,0,96,15.53,2.53,2.53,0,0,0,93.9,14.67Z"/><path class="cls-2" d="M103.18,22.25l.15.24a22.06,22.06,0,0,1-.77,2.38c-.33.91-.68,1.75-1,2.53h-1.28c.18-.71.38-1.59.61-2.64s.37-1.88.46-2.51Z"/><path class="cls-2" d="M119.65,23.18h-.1A4,4,0,0,1,116,24.9a4.18,4.18,0,0,1-3.43-1.51,6.62,6.62,0,0,1-1.23-4.29,6.72,6.72,0,0,1,1.23-4.31,4.56,4.56,0,0,1,6.94.12h.13l-.07-.81,0-.79V8.74h1.71v16h-1.39Zm-3.41.29a3.08,3.08,0,0,0,2.53-.95,4.8,4.8,0,0,0,.78-3.06V19.1a5.65,5.65,0,0,0-.79-3.41,3,3,0,0,0-2.54-1,2.6,2.6,0,0,0-2.29,1.17,5.76,5.76,0,0,0-.79,3.28,5.51,5.51,0,0,0,.79,3.25A2.63,2.63,0,0,0,116.24,23.47Z"/><path class="cls-2" d="M129.61,24.9a5.17,5.17,0,0,1-3.93-1.52,5.88,5.88,0,0,1-1.44-4.21,6.51,6.51,0,0,1,1.34-4.32,4.43,4.43,0,0,1,3.59-1.6,4.24,4.24,0,0,1,3.35,1.39,5.31,5.31,0,0,1,1.23,3.66v1.08H126a4.48,4.48,0,0,0,1,3,3.46,3.46,0,0,0,2.67,1,8.94,8.94,0,0,0,3.59-.76v1.52a9.61,9.61,0,0,1-1.7.56A9.88,9.88,0,0,1,129.61,24.9Zm-.46-10.23a2.79,2.79,0,0,0-2.16.89,4,4,0,0,0-.94,2.44h5.87a3.73,3.73,0,0,0-.72-2.47A2.53,2.53,0,0,0,129.15,14.67Z"/><path class="cls-2" d="M140.28,23.49a6.15,6.15,0,0,0,.87-.06l.67-.14v1.3a3.24,3.24,0,0,1-.82.22,5.93,5.93,0,0,1-1,.09q-3.25,0-3.26-3.44V14.78h-1.61V14l1.61-.71.72-2.4h1v2.6h3.26v1.33h-3.26v6.61A2.23,2.23,0,0,0,139,23,1.68,1.68,0,0,0,140.28,23.49Z"/><path class="cls-2" d="M154.27,24.9a5.17,5.17,0,0,1-3.94-1.52,5.88,5.88,0,0,1-1.44-4.21,6.51,6.51,0,0,1,1.34-4.32,4.43,4.43,0,0,1,3.59-1.6,4.24,4.24,0,0,1,3.35,1.39,5.31,5.31,0,0,1,1.23,3.66v1.08h-7.74a4.38,4.38,0,0,0,1,3,3.43,3.43,0,0,0,2.67,1,9,9,0,0,0,3.59-.76v1.52a9.7,9.7,0,0,1-1.71.56A9.85,9.85,0,0,1,154.27,24.9Zm-.47-10.23a2.75,2.75,0,0,0-2.15.89,4,4,0,0,0-1,2.44h5.87a3.73,3.73,0,0,0-.72-2.47A2.52,2.52,0,0,0,153.8,14.67Z"/><path class="cls-2" d="M166.43,13.25a6.88,6.88,0,0,1,1.34.12L167.53,15a5.86,5.86,0,0,0-1.23-.15A3,3,0,0,0,164,15.9a4,4,0,0,0-1,2.76v6h-1.7V13.45h1.4l.2,2.09H163a4.94,4.94,0,0,1,1.51-1.7A3.44,3.44,0,0,1,166.43,13.25Z"/><path class="cls-2" d="M175.18,10.41a1.14,1.14,0,0,1,.29-.86,1,1,0,0,1,.72-.27,1,1,0,0,1,.7.28,1.1,1.1,0,0,1,.3.85,1.1,1.1,0,0,1-.3.85,1,1,0,0,1-.7.29,1,1,0,0,1-.72-.29A1.13,1.13,0,0,1,175.18,10.41ZM177,24.69h-1.7V13.45H177Z"/><path class="cls-2" d="M182.32,18.94a19.41,19.41,0,0,1,1.34-1.64l3.63-3.85h2l-4.55,4.79,4.87,6.45h-2.06l-4-5.31-1.28,1.11v4.2h-1.68V8.74h1.68V17.2c0,.37,0,.95-.08,1.74Z"/><path class="cls-2" d="M193.34,18.94a19.91,19.91,0,0,1,1.35-1.64l3.62-3.85h2l-4.55,4.79,4.87,6.45h-2.06l-4-5.31-1.28,1.11v4.2h-1.68V8.74h1.68V17.2c0,.37,0,.95-.08,1.74Z"/><path class="cls-2" d="M207.43,24.9a5.17,5.17,0,0,1-3.93-1.52,5.88,5.88,0,0,1-1.44-4.21,6.46,6.46,0,0,1,1.34-4.32,4.43,4.43,0,0,1,3.59-1.6,4.22,4.22,0,0,1,3.34,1.39,5.31,5.31,0,0,1,1.23,3.66v1.08h-7.74a4.48,4.48,0,0,0,1,3,3.43,3.43,0,0,0,2.67,1,9,9,0,0,0,3.59-.76v1.52a9.44,9.44,0,0,1-1.71.56A9.7,9.7,0,0,1,207.43,24.9ZM207,14.67a2.79,2.79,0,0,0-2.16.89,4,4,0,0,0-.95,2.44h5.88a3.73,3.73,0,0,0-.72-2.47A2.53,2.53,0,0,0,207,14.67Z"/><path class="cls-2" d="M227.61,24.69V17.42a2.93,2.93,0,0,0-.63-2.05,2.52,2.52,0,0,0-1.95-.68,3.23,3.23,0,0,0-2.59,1,4.84,4.84,0,0,0-.82,3.15v5.89h-1.7V13.45h1.38l.28,1.54h.08a3.56,3.56,0,0,1,1.47-1.29,4.82,4.82,0,0,1,2.1-.45,4.31,4.31,0,0,1,3.06,1,4.16,4.16,0,0,1,1,3.13v7.33Z"/><path class="cls-2" d="M232.67,10.41a1.14,1.14,0,0,1,.28-.86,1.07,1.07,0,0,1,1.43,0,1.1,1.1,0,0,1,.29.85,1.1,1.1,0,0,1-.29.85,1,1,0,0,1-.71.29,1,1,0,0,1-.72-.29A1.13,1.13,0,0,1,232.67,10.41Zm1.84,14.28h-1.7V13.45h1.7Z"/><path class="cls-2" d="M242.61,24.9a4.8,4.8,0,0,1-3.78-1.5,6.21,6.21,0,0,1-1.33-4.26,6.37,6.37,0,0,1,1.35-4.35,4.89,4.89,0,0,1,3.87-1.54,8.1,8.1,0,0,1,1.62.17,6,6,0,0,1,1.28.41l-.53,1.45a7.74,7.74,0,0,0-1.23-.38,6.05,6.05,0,0,0-1.18-.14q-3.42,0-3.42,4.36a5.26,5.26,0,0,0,.83,3.18,2.92,2.92,0,0,0,2.48,1.11,7.59,7.59,0,0,0,2.88-.6v1.5A6.13,6.13,0,0,1,242.61,24.9Z"/><path class="cls-2" d="M252.87,24.9a5.17,5.17,0,0,1-3.94-1.52,5.88,5.88,0,0,1-1.44-4.21,6.51,6.51,0,0,1,1.34-4.32,4.43,4.43,0,0,1,3.59-1.6,4.24,4.24,0,0,1,3.35,1.39A5.31,5.31,0,0,1,257,18.3v1.08h-7.74a4.42,4.42,0,0,0,1,3,3.47,3.47,0,0,0,2.68,1,9,9,0,0,0,3.59-.76v1.52a10,10,0,0,1-1.71.56A9.85,9.85,0,0,1,252.87,24.9Zm-.47-10.23a2.75,2.75,0,0,0-2.15.89A4,4,0,0,0,249.3,18h5.87a3.73,3.73,0,0,0-.72-2.47A2.52,2.52,0,0,0,252.4,14.67Z"/><path class="cls-2" d="M21.8,38.65v1.08L19.72,40a4,4,0,0,1,.52.93,3.64,3.64,0,0,1,.22,1.31,3.35,3.35,0,0,1-1.13,2.64,4.56,4.56,0,0,1-3.09,1,5.7,5.7,0,0,1-.95-.08,1.67,1.67,0,0,0-1.08,1.45.73.73,0,0,0,.38.68,2.83,2.83,0,0,0,1.3.22h2a4.4,4.4,0,0,1,2.8.77,2.66,2.66,0,0,1,1,2.23A3.2,3.2,0,0,1,20.16,54a8,8,0,0,1-4.36,1,6,6,0,0,1-3.4-.82,2.65,2.65,0,0,1-1.2-2.32A2.62,2.62,0,0,1,11.86,50a3.41,3.41,0,0,1,1.84-1A1.82,1.82,0,0,1,13,48.4a1.62,1.62,0,0,1-.29-.95A1.82,1.82,0,0,1,13,46.37a3.61,3.61,0,0,1,1-.89,3,3,0,0,1-1.42-1.22,4,4,0,0,1,.56-4.81,4.52,4.52,0,0,1,3.14-1,6,6,0,0,1,1.59.2Zm-9,13.13a1.52,1.52,0,0,0,.77,1.38,4.2,4.2,0,0,0,2.21.47A6.14,6.14,0,0,0,19,53a1.94,1.94,0,0,0,1-1.73A1.38,1.38,0,0,0,19.46,50a4.38,4.38,0,0,0-2.13-.35h-2a2.67,2.67,0,0,0-1.8.55A2,2,0,0,0,12.84,51.78Zm.93-9.53A2.32,2.32,0,0,0,14.43,44a2.68,2.68,0,0,0,1.86.6,2.17,2.17,0,0,0,2.49-2.42,2.23,2.23,0,0,0-2.52-2.53,2.51,2.51,0,0,0-1.85.64A2.62,2.62,0,0,0,13.77,42.25Z"/><path class="cls-2" d="M22.75,54.94a4.1,4.1,0,0,1-1.58-.26V53.3a5.19,5.19,0,0,0,1.39.2,1.47,1.47,0,0,0,1.18-.43,2,2,0,0,0,.37-1.33V38.65h1.7v13Q25.81,54.94,22.75,54.94ZM24,35.61a1.14,1.14,0,0,1,.28-.86,1,1,0,0,1,.72-.27,1,1,0,0,1,.71.28,1.35,1.35,0,0,1,0,1.7,1,1,0,0,1-.71.29,1,1,0,0,1-.72-.29A1.13,1.13,0,0,1,24,35.61Z"/><path class="cls-2" d="M39.12,44.26a6.21,6.21,0,0,1-1.38,4.29,4.88,4.88,0,0,1-3.83,1.55,5.07,5.07,0,0,1-2.67-.71,4.71,4.71,0,0,1-1.81-2,7.15,7.15,0,0,1-.63-3.1A6.22,6.22,0,0,1,30.17,40,4.88,4.88,0,0,1,34,38.45,4.72,4.72,0,0,1,37.73,40,6.14,6.14,0,0,1,39.12,44.26Zm-8.56,0a5.35,5.35,0,0,0,.86,3.28A3,3,0,0,0,34,48.67a3,3,0,0,0,2.53-1.12,5.31,5.31,0,0,0,.87-3.29A5.18,5.18,0,0,0,36.49,41a3,3,0,0,0-2.56-1.12A3,3,0,0,0,31.41,41,5.26,5.26,0,0,0,30.56,44.26Z"/><path class="cls-2" d="M47.23,38.45a6.91,6.91,0,0,1,1.35.12l-.24,1.58A5.86,5.86,0,0,0,47.11,40a3,3,0,0,0-2.33,1.1,4,4,0,0,0-1,2.76v6h-1.7V38.65h1.4l.2,2.08h.08A5,5,0,0,1,45.3,39,3.4,3.4,0,0,1,47.23,38.45Z"/><path class="cls-2" d="M54.31,48.69a4.94,4.94,0,0,0,.87-.07c.28,0,.5-.09.67-.13v1.3A3.24,3.24,0,0,1,55,50a5.93,5.93,0,0,1-1,.09q-3.26,0-3.26-3.44V40H49.19v-.82l1.61-.71.72-2.4h1v2.6h3.27V40H52.5v6.61A2.28,2.28,0,0,0,53,48.15,1.68,1.68,0,0,0,54.31,48.69Z"/><path class="cls-2" d="M70.46,49.89l-.34-1.6H70a4.65,4.65,0,0,1-1.68,1.43,5.09,5.09,0,0,1-2.08.38,3.76,3.76,0,0,1-2.62-.86,3.14,3.14,0,0,1-.95-2.46q0-3.39,5.44-3.56l1.91-.07v-.69a2.87,2.87,0,0,0-.57-2,2.35,2.35,0,0,0-1.82-.63,7.46,7.46,0,0,0-3.18.86L64,39.43a7.91,7.91,0,0,1,1.82-.7,7.48,7.48,0,0,1,2-.26,4.3,4.3,0,0,1,3,.89,3.72,3.72,0,0,1,1,2.86v7.67Zm-3.85-1.2a3.46,3.46,0,0,0,2.5-.87A3.2,3.2,0,0,0,70,45.38v-1l-1.7.08a6,6,0,0,0-2.93.63,1.9,1.9,0,0,0-.9,1.74,1.76,1.76,0,0,0,.56,1.4A2.31,2.31,0,0,0,66.61,48.69Z"/><path class="cls-2" d="M80.29,40H77.43v9.91h-1.7V40h-2v-.77l2-.62V38q0-4.15,3.62-4.15a7.44,7.44,0,0,1,2.09.36L81,35.55a5.43,5.43,0,0,0-1.68-.32,1.65,1.65,0,0,0-1.43.64,3.65,3.65,0,0,0-.46,2.06v.72h2.86Z"/><path class="cls-2" d="M95.45,48.38h-.09a4,4,0,0,1-3.53,1.72,4.18,4.18,0,0,1-3.43-1.51,6.62,6.62,0,0,1-1.23-4.29A6.72,6.72,0,0,1,88.4,40a4.14,4.14,0,0,1,3.43-1.54,4.07,4.07,0,0,1,3.5,1.66h.14l-.07-.81,0-.79V33.94h1.7v16H95.67ZM92,48.67a3.07,3.07,0,0,0,2.53-1,4.8,4.8,0,0,0,.79-3.06V44.3a5.64,5.64,0,0,0-.8-3.41,3,3,0,0,0-2.54-1A2.6,2.6,0,0,0,89.73,41a5.76,5.76,0,0,0-.79,3.28,5.51,5.51,0,0,0,.79,3.25A2.63,2.63,0,0,0,92,48.67Z"/><path class="cls-2" d="M100.52,35.61a1.14,1.14,0,0,1,.29-.86,1.07,1.07,0,0,1,1.43,0,1.39,1.39,0,0,1,0,1.7,1,1,0,0,1-.71.29,1,1,0,0,1-.72-.29A1.13,1.13,0,0,1,100.52,35.61Zm1.85,14.28h-1.7V38.65h1.7Z"/><path class="cls-2" d="M115.18,38.65v1.08l-2.09.25a3.39,3.39,0,0,1,.52.93,3.64,3.64,0,0,1,.22,1.31,3.34,3.34,0,0,1-1.12,2.64,4.61,4.61,0,0,1-3.1,1,5.49,5.49,0,0,1-.94-.08,1.66,1.66,0,0,0-1.09,1.45.73.73,0,0,0,.38.68,2.83,2.83,0,0,0,1.3.22h2a4.38,4.38,0,0,1,2.8.77,2.64,2.64,0,0,1,1,2.23A3.21,3.21,0,0,1,113.54,54a8.06,8.06,0,0,1-4.37,1,6,6,0,0,1-3.4-.82,2.65,2.65,0,0,1-1.2-2.32,2.62,2.62,0,0,1,.66-1.78,3.4,3.4,0,0,1,1.85-1,1.78,1.78,0,0,1-.73-.61,1.62,1.62,0,0,1-.29-.95,1.82,1.82,0,0,1,.33-1.08,3.61,3.61,0,0,1,1-.89A3,3,0,0,1,106,44.26a4.07,4.07,0,0,1,.56-4.81,4.52,4.52,0,0,1,3.14-1,6,6,0,0,1,1.59.2Zm-9,13.13a1.52,1.52,0,0,0,.77,1.38,4.22,4.22,0,0,0,2.21.47,6.11,6.11,0,0,0,3.17-.64,1.94,1.94,0,0,0,1-1.73,1.38,1.38,0,0,0-.56-1.27,4.36,4.36,0,0,0-2.12-.35h-2a2.68,2.68,0,0,0-1.81.55A2,2,0,0,0,106.21,51.78Zm.93-9.53A2.32,2.32,0,0,0,107.8,44a2.7,2.7,0,0,0,1.86.6,2.17,2.17,0,0,0,2.49-2.42,2.23,2.23,0,0,0-2.52-2.53,2.51,2.51,0,0,0-1.85.64A2.62,2.62,0,0,0,107.14,42.25Z"/><path class="cls-2" d="M117.24,48.8a1.54,1.54,0,0,1,.31-1,1.16,1.16,0,0,1,.9-.35,1.26,1.26,0,0,1,.93.35,1.49,1.49,0,0,1,.33,1,1.42,1.42,0,0,1-.34,1,1.21,1.21,0,0,1-.92.36,1.24,1.24,0,0,1-.87-.32A1.42,1.42,0,0,1,117.24,48.8Z"/><path class="cls-2" d="M122.83,48.8a1.54,1.54,0,0,1,.31-1,1.16,1.16,0,0,1,.9-.35,1.22,1.22,0,0,1,.92.35,1.45,1.45,0,0,1,.34,1,1.47,1.47,0,0,1-.34,1,1.21,1.21,0,0,1-.92.36,1.24,1.24,0,0,1-.87-.32A1.42,1.42,0,0,1,122.83,48.8Z"/><path class="cls-2" d="M128.41,48.8a1.54,1.54,0,0,1,.32-1,1.14,1.14,0,0,1,.89-.35,1.23,1.23,0,0,1,.93.35,1.49,1.49,0,0,1,.33,1,1.47,1.47,0,0,1-.33,1,1.35,1.35,0,0,1-1.79,0A1.42,1.42,0,0,1,128.41,48.8Z"/></svg>