<svg id="Layer_1" data-name="Layer 1" xmlns="http://www.w3.org/2000/svg" width="273" height="64" viewBox="0 0 273 64"><defs><style>.cls-1{fill:#3fa7f3;}.cls-2{fill:#fff;}</style></defs><title>svar 1 besked 6</title><rect class="cls-1" width="273" height="64" rx="19.58"/><path class="cls-2" d="M21.32,20.7a3.7,3.7,0,0,1-1.43,3.09A6.23,6.23,0,0,1,16,24.9a9.71,9.71,0,0,1-4.1-.69V22.53a11.35,11.35,0,0,0,4.16.84,4.38,4.38,0,0,0,2.63-.66,2.19,2.19,0,0,0,.88-1.84,2.45,2.45,0,0,0-.31-1.28,2.94,2.94,0,0,0-1.05-.92,14.14,14.14,0,0,0-2.23-1A7.21,7.21,0,0,1,13,16a3.93,3.93,0,0,1-.9-2.68,3.32,3.32,0,0,1,1.31-2.76,5.4,5.4,0,0,1,3.44-1,10.09,10.09,0,0,1,4.11.82l-.54,1.51A9.29,9.29,0,0,0,16.79,11a3.47,3.47,0,0,0-2.16.6,2,2,0,0,0-.78,1.65,2.58,2.58,0,0,0,.28,1.28,2.86,2.86,0,0,0,1,.91,12.29,12.29,0,0,0,2.09.92,8.4,8.4,0,0,1,3.25,1.8A3.55,3.55,0,0,1,21.32,20.7Z"/><path class="cls-2" d="M31.82,24.69V17.42a3,3,0,0,0-.62-2.05,2.56,2.56,0,0,0-2-.68,3.22,3.22,0,0,0-2.59,1,4.89,4.89,0,0,0-.82,3.16v5.87h-1.7V8.74h1.7v4.83A9.68,9.68,0,0,1,25.75,15h.1a3.5,3.5,0,0,1,1.44-1.27,4.49,4.49,0,0,1,2.11-.47,4.32,4.32,0,0,1,3.09,1,4.11,4.11,0,0,1,1,3.11v7.33Z"/><path class="cls-2" d="M36.88,10.41a1.14,1.14,0,0,1,.28-.86,1,1,0,0,1,.72-.27,1,1,0,0,1,.71.28,1.1,1.1,0,0,1,.3.85,1.1,1.1,0,0,1-.3.85,1,1,0,0,1-.71.29,1,1,0,0,1-.72-.29A1.13,1.13,0,0,1,36.88,10.41Zm1.84,14.28H37V13.45h1.7Z"/><path class="cls-2" d="M46,23.49a6.15,6.15,0,0,0,.87-.06l.67-.14v1.3a3.15,3.15,0,0,1-.81.22,6,6,0,0,1-1,.09c-2.18,0-3.26-1.15-3.26-3.44V14.78H40.85V14l1.61-.71.71-2.4h1v2.6h3.26v1.33H44.16v6.61A2.28,2.28,0,0,0,44.64,23,1.68,1.68,0,0,0,46,23.49Z"/><path class="cls-2" d="M62.85,23.18h-.09a4,4,0,0,1-3.53,1.72,4.19,4.19,0,0,1-3.43-1.51,6.62,6.62,0,0,1-1.22-4.29,6.72,6.72,0,0,1,1.23-4.31,4.55,4.55,0,0,1,6.93.12h.13l-.07-.81,0-.79V8.74h1.7v16H63.08Zm-3.4.29A3.06,3.06,0,0,0,62,22.52a4.74,4.74,0,0,0,.79-3.06V19.1a5.66,5.66,0,0,0-.8-3.41,3,3,0,0,0-2.53-1,2.61,2.61,0,0,0-2.3,1.17,5.76,5.76,0,0,0-.79,3.28,5.56,5.56,0,0,0,.79,3.26A2.68,2.68,0,0,0,59.45,23.47Z"/><path class="cls-2" d="M69.67,13.45v7.29a3,3,0,0,0,.62,2.05,2.52,2.52,0,0,0,2,.68,3.19,3.19,0,0,0,2.58-1,4.82,4.82,0,0,0,.82-3.15V13.45h1.7V24.69H75.94l-.24-1.51h-.09a3.47,3.47,0,0,1-1.45,1.28A5,5,0,0,1,72,24.9a4.29,4.29,0,0,1-3.07-1,4.14,4.14,0,0,1-1-3.11V13.45Z"/><path class="cls-2" d="M88.61,23.18h-.09A4,4,0,0,1,85,24.9a4.19,4.19,0,0,1-3.43-1.51,6.62,6.62,0,0,1-1.23-4.29,6.72,6.72,0,0,1,1.23-4.31A4.14,4.14,0,0,1,85,13.25a4.1,4.1,0,0,1,3.51,1.66h.13l-.07-.81,0-.79V8.74h1.7v16H88.83Zm-3.41.29a3.07,3.07,0,0,0,2.53-.95,4.8,4.8,0,0,0,.79-3.06V19.1a5.66,5.66,0,0,0-.8-3.41,3,3,0,0,0-2.54-1,2.61,2.61,0,0,0-2.29,1.17,5.76,5.76,0,0,0-.79,3.28,5.56,5.56,0,0,0,.79,3.26A2.66,2.66,0,0,0,85.2,23.47Z"/><path class="cls-2" d="M98.58,24.9a5.17,5.17,0,0,1-3.94-1.52,5.88,5.88,0,0,1-1.44-4.21,6.51,6.51,0,0,1,1.34-4.32,4.43,4.43,0,0,1,3.59-1.6,4.24,4.24,0,0,1,3.35,1.39,5.31,5.31,0,0,1,1.23,3.66v1.08H95a4.38,4.38,0,0,0,1,3,3.43,3.43,0,0,0,2.67,1,9,9,0,0,0,3.59-.76v1.52a9.17,9.17,0,0,1-1.71.56A9.85,9.85,0,0,1,98.58,24.9Zm-.47-10.23a2.75,2.75,0,0,0-2.15.89A4,4,0,0,0,95,18h5.87a3.73,3.73,0,0,0-.72-2.47A2.52,2.52,0,0,0,98.11,14.67Z"/><path class="cls-2" d="M107.39,22.25l.16.24c-.18.68-.44,1.48-.77,2.38s-.69,1.75-1,2.53h-1.28c.19-.71.39-1.59.61-2.64s.38-1.88.47-2.51Z"/><path class="cls-2" d="M123.86,23.18h-.09a4,4,0,0,1-3.53,1.72,4.19,4.19,0,0,1-3.43-1.51,6.68,6.68,0,0,1-1.22-4.29,6.72,6.72,0,0,1,1.23-4.31,4.55,4.55,0,0,1,6.93.12h.13l-.07-.81,0-.79V8.74h1.7v16h-1.38Zm-3.4.29a3.06,3.06,0,0,0,2.52-.95,4.74,4.74,0,0,0,.79-3.06V19.1a5.66,5.66,0,0,0-.8-3.41,3,3,0,0,0-2.53-1,2.61,2.61,0,0,0-2.3,1.17,5.84,5.84,0,0,0-.79,3.28,5.56,5.56,0,0,0,.79,3.26A2.68,2.68,0,0,0,120.46,23.47Z"/><path class="cls-2" d="M130.68,13.45v7.29a3,3,0,0,0,.62,2.05,2.54,2.54,0,0,0,2,.68,3.19,3.19,0,0,0,2.58-1,4.82,4.82,0,0,0,.82-3.15V13.45h1.7V24.69H137l-.25-1.51h-.09a3.47,3.47,0,0,1-1.45,1.28,5,5,0,0,1-2.12.44,4.29,4.29,0,0,1-3.07-1,4.14,4.14,0,0,1-1-3.11V13.45Z"/><path class="cls-2" d="M155.11,24.69V17.42a2.92,2.92,0,0,0-.62-2.05,2.56,2.56,0,0,0-2-.68,3.22,3.22,0,0,0-2.59,1,4.89,4.89,0,0,0-.81,3.16v5.87h-1.71V8.74h1.71v4.83A9.5,9.5,0,0,1,149,15h.11a3.41,3.41,0,0,1,1.43-1.27,4.52,4.52,0,0,1,2.11-.47,4.37,4.37,0,0,1,3.1,1,4.15,4.15,0,0,1,1,3.11v7.33Z"/><path class="cls-2" d="M167.22,24.69l-.34-1.6h-.08a4.71,4.71,0,0,1-1.67,1.43,5.14,5.14,0,0,1-2.09.38,3.78,3.78,0,0,1-2.62-.86,3.18,3.18,0,0,1-.95-2.46q0-3.39,5.45-3.56l1.9-.06v-.7a2.87,2.87,0,0,0-.57-2,2.32,2.32,0,0,0-1.82-.63,7.34,7.34,0,0,0-3.17.87l-.53-1.31a8.09,8.09,0,0,1,1.82-.7,7.5,7.5,0,0,1,2-.26,4.31,4.31,0,0,1,3,.89,3.75,3.75,0,0,1,1,2.86v7.67Zm-3.84-1.2a3.47,3.47,0,0,0,2.5-.87,3.23,3.23,0,0,0,.9-2.44v-1l-1.7.07a6.28,6.28,0,0,0-2.93.63,1.89,1.89,0,0,0-.89,1.74,1.75,1.75,0,0,0,.55,1.4A2.36,2.36,0,0,0,163.38,23.49Z"/><path class="cls-2" d="M177.12,13.25a6.74,6.74,0,0,1,1.34.12L178.23,15A6,6,0,0,0,177,14.8a3,3,0,0,0-2.34,1.1,4.08,4.08,0,0,0-1,2.76v6H172V13.45h1.41l.19,2.09h.08a4.94,4.94,0,0,1,1.51-1.7A3.46,3.46,0,0,1,177.12,13.25Z"/><path class="cls-2" d="M195.22,13.45v1.08l-2.08.25a3.58,3.58,0,0,1,.73,2.24,3.34,3.34,0,0,1-1.12,2.64,4.61,4.61,0,0,1-3.1,1,5.49,5.49,0,0,1-.94-.08A1.66,1.66,0,0,0,187.62,22a.75.75,0,0,0,.38.68,2.86,2.86,0,0,0,1.3.22h2a4.38,4.38,0,0,1,2.8.77,2.64,2.64,0,0,1,1,2.23,3.21,3.21,0,0,1-1.49,2.85,8.06,8.06,0,0,1-4.37,1,6,6,0,0,1-3.4-.82,2.64,2.64,0,0,1-1.19-2.32,2.57,2.57,0,0,1,.65-1.77,3.35,3.35,0,0,1,1.85-1,1.83,1.83,0,0,1-.73-.6,1.67,1.67,0,0,1-.29-1,1.82,1.82,0,0,1,.33-1.08,3.61,3.61,0,0,1,1-.89A3,3,0,0,1,186,19.06a3.62,3.62,0,0,1-.54-2,3.64,3.64,0,0,1,1.1-2.84,4.52,4.52,0,0,1,3.14-1,6,6,0,0,1,1.59.2Zm-9,13.13A1.51,1.51,0,0,0,187,28a4.22,4.22,0,0,0,2.21.47,6.09,6.09,0,0,0,3.17-.64,1.94,1.94,0,0,0,1-1.73,1.37,1.37,0,0,0-.56-1.27,4.34,4.34,0,0,0-2.12-.35h-2a2.68,2.68,0,0,0-1.81.55A2,2,0,0,0,186.26,26.58Zm.92-9.53a2.32,2.32,0,0,0,.66,1.79,2.7,2.7,0,0,0,1.86.6A2.17,2.17,0,0,0,192.19,17a2.23,2.23,0,0,0-2.52-2.53,2.55,2.55,0,0,0-1.85.64A2.64,2.64,0,0,0,187.18,17.05Z"/><path class="cls-2" d="M207.22,19.06a6.2,6.2,0,0,1-1.38,4.29A4.87,4.87,0,0,1,202,24.9a5.08,5.08,0,0,1-2.68-.71,4.71,4.71,0,0,1-1.81-2,7.12,7.12,0,0,1-.63-3.1,6.22,6.22,0,0,1,1.37-4.28,4.88,4.88,0,0,1,3.82-1.53,4.72,4.72,0,0,1,3.74,1.57A6.14,6.14,0,0,1,207.22,19.06Zm-8.56,0a5.35,5.35,0,0,0,.86,3.28,3.42,3.42,0,0,0,5.07,0,5.31,5.31,0,0,0,.87-3.29,5.18,5.18,0,0,0-.87-3.25,3.46,3.46,0,0,0-5.08,0A5.32,5.32,0,0,0,198.66,19.06Z"/><path class="cls-2" d="M217.86,23.18h-.09a4,4,0,0,1-3.53,1.72,4.19,4.19,0,0,1-3.43-1.51,6.62,6.62,0,0,1-1.23-4.29,6.72,6.72,0,0,1,1.23-4.31,4.14,4.14,0,0,1,3.43-1.54,4.1,4.1,0,0,1,3.51,1.66h.13l-.07-.81,0-.79V8.74h1.7v16h-1.39Zm-3.41.29a3.07,3.07,0,0,0,2.53-.95,4.8,4.8,0,0,0,.79-3.06V19.1a5.66,5.66,0,0,0-.8-3.41,3,3,0,0,0-2.54-1,2.61,2.61,0,0,0-2.29,1.17,5.76,5.76,0,0,0-.79,3.28,5.56,5.56,0,0,0,.79,3.26A2.66,2.66,0,0,0,214.45,23.47Z"/><path class="cls-2" d="M226.71,23.49a6.15,6.15,0,0,0,.87-.06l.67-.14v1.3a3.24,3.24,0,0,1-.82.22,5.93,5.93,0,0,1-1,.09q-3.26,0-3.26-3.44V14.78h-1.61V14l1.61-.71.72-2.4h1v2.6h3.26v1.33H224.9v6.61a2.28,2.28,0,0,0,.48,1.56A1.71,1.71,0,0,0,226.71,23.49Z"/><path class="cls-2" d="M243.64,24.69V17.42a2.93,2.93,0,0,0-.63-2.05,2.56,2.56,0,0,0-2-.68,3.22,3.22,0,0,0-2.58,1,4.78,4.78,0,0,0-.82,3.15v5.89H236V13.45h1.38l.28,1.54h.08a3.47,3.47,0,0,1,1.47-1.28,4.69,4.69,0,0,1,2.1-.46,4.27,4.27,0,0,1,3.05,1,4.13,4.13,0,0,1,1,3.13v7.33Z"/><path class="cls-2" d="M258.54,19.06a6.2,6.2,0,0,1-1.39,4.29,4.87,4.87,0,0,1-3.82,1.55,5.08,5.08,0,0,1-2.68-.71,4.63,4.63,0,0,1-1.8-2,7,7,0,0,1-.64-3.1,6.22,6.22,0,0,1,1.37-4.28,4.88,4.88,0,0,1,3.82-1.53,4.75,4.75,0,0,1,3.75,1.57A6.19,6.19,0,0,1,258.54,19.06Zm-8.57,0a5.28,5.28,0,0,0,.87,3.28,3,3,0,0,0,2.53,1.13,3,3,0,0,0,2.54-1.12,5.38,5.38,0,0,0,.86-3.29,5.25,5.25,0,0,0-.86-3.25,3.06,3.06,0,0,0-2.56-1.12,3,3,0,0,0-2.52,1.1A5.25,5.25,0,0,0,250,19.06Z"/><path class="cls-2" d="M263.2,18.94c.3-.42.74-1,1.34-1.64l3.63-3.85h2l-4.55,4.79,4.87,6.45h-2.06l-4-5.31-1.28,1.11v4.2h-1.68V8.74h1.68V17.2c0,.37,0,.95-.08,1.74Z"/><path class="cls-2" d="M22.31,44.26a6.15,6.15,0,0,1-1.39,4.29A4.87,4.87,0,0,1,17.1,50.1a5.08,5.08,0,0,1-2.68-.71,4.63,4.63,0,0,1-1.8-2,7,7,0,0,1-.64-3.1A6.22,6.22,0,0,1,13.35,40a4.88,4.88,0,0,1,3.82-1.53A4.75,4.75,0,0,1,20.92,40,6.19,6.19,0,0,1,22.31,44.26Zm-8.57,0a5.28,5.28,0,0,0,.87,3.28,3,3,0,0,0,2.53,1.13,3,3,0,0,0,2.54-1.12,5.36,5.36,0,0,0,.86-3.29A5.25,5.25,0,0,0,19.68,41a3.06,3.06,0,0,0-2.56-1.12A3,3,0,0,0,14.6,41,5.25,5.25,0,0,0,13.74,44.26Z"/><path class="cls-2" d="M27.75,49.89,23.49,38.65h1.82l2.42,6.67a29.22,29.22,0,0,1,1,3h.09a21.55,21.55,0,0,1,.71-2.25q.6-1.71,2.69-7.45H34L29.74,49.89Z"/><path class="cls-2" d="M40.56,50.1a5.17,5.17,0,0,1-3.93-1.52,5.88,5.88,0,0,1-1.44-4.21,6.51,6.51,0,0,1,1.33-4.32,4.45,4.45,0,0,1,3.6-1.6,4.22,4.22,0,0,1,3.34,1.39,5.31,5.31,0,0,1,1.23,3.66v1.08H37a4.43,4.43,0,0,0,1,3,3.43,3.43,0,0,0,2.67,1,9,9,0,0,0,3.59-.76v1.52a9.44,9.44,0,0,1-1.71.56A9.78,9.78,0,0,1,40.56,50.1ZM40.1,39.87a2.78,2.78,0,0,0-2.16.89A4,4,0,0,0,37,43.2h5.88a3.73,3.73,0,0,0-.72-2.47A2.53,2.53,0,0,0,40.1,39.87Z"/><path class="cls-2" d="M52.72,38.45a6.74,6.74,0,0,1,1.34.12l-.23,1.58A6,6,0,0,0,52.6,40a3,3,0,0,0-2.34,1.1,4.08,4.08,0,0,0-1,2.76v6h-1.7V38.65H49l.19,2.08h.08A5,5,0,0,1,50.78,39,3.46,3.46,0,0,1,52.72,38.45Z"/><path class="cls-2" d="M63.41,46.83a2.84,2.84,0,0,1-1.16,2.42A5.57,5.57,0,0,1,59,50.1a7.11,7.11,0,0,1-3.48-.71V47.81a8.8,8.8,0,0,0,1.74.65,7.51,7.51,0,0,0,1.79.23,4.13,4.13,0,0,0,2.05-.42,1.48,1.48,0,0,0,.15-2.42A9.11,9.11,0,0,0,59,44.74a12.6,12.6,0,0,1-2.23-1,3.07,3.07,0,0,1-1-1,2.51,2.51,0,0,1-.32-1.32,2.54,2.54,0,0,1,1.11-2.17,5.23,5.23,0,0,1,3.07-.79,8.86,8.86,0,0,1,3.55.74l-.61,1.38a8.21,8.21,0,0,0-3.06-.7,3.57,3.57,0,0,0-1.83.38,1.18,1.18,0,0,0-.61,1,1.23,1.23,0,0,0,.23.77,2.24,2.24,0,0,0,.74.6,16.45,16.45,0,0,0,2,.83A7.48,7.48,0,0,1,62.71,45,2.57,2.57,0,0,1,63.41,46.83Z"/><path class="cls-2" d="M70.67,50.1a4.76,4.76,0,0,1-3.77-1.51,6.12,6.12,0,0,1-1.34-4.25A6.32,6.32,0,0,1,66.92,40a4.86,4.86,0,0,1,3.87-1.54,8.1,8.1,0,0,1,1.62.17,5.92,5.92,0,0,1,1.27.41l-.52,1.45a8.44,8.44,0,0,0-1.23-.38A6.14,6.14,0,0,0,70.75,40q-3.44,0-3.43,4.36a5.17,5.17,0,0,0,.84,3.18,2.89,2.89,0,0,0,2.47,1.11A7.42,7.42,0,0,0,73.51,48v1.51A6.1,6.1,0,0,1,70.67,50.1Z"/><path class="cls-2" d="M85.88,44.26a6.2,6.2,0,0,1-1.38,4.29,4.89,4.89,0,0,1-3.83,1.55A5,5,0,0,1,78,49.39a4.65,4.65,0,0,1-1.81-2,7.12,7.12,0,0,1-.63-3.1A6.17,6.17,0,0,1,76.93,40a4.87,4.87,0,0,1,3.81-1.53A4.74,4.74,0,0,1,84.49,40,6.14,6.14,0,0,1,85.88,44.26Zm-8.56,0a5.35,5.35,0,0,0,.86,3.28,3.42,3.42,0,0,0,5.07,0,5.29,5.29,0,0,0,.87-3.29A5.18,5.18,0,0,0,83.25,41a3.06,3.06,0,0,0-2.56-1.12A3,3,0,0,0,78.17,41,5.26,5.26,0,0,0,77.32,44.26Z"/><path class="cls-2" d="M94,38.45a6.74,6.74,0,0,1,1.34.12l-.23,1.58A6,6,0,0,0,93.87,40a3,3,0,0,0-2.33,1.1,4,4,0,0,0-1,2.76v6H88.86V38.65h1.41l.19,2.08h.09A5,5,0,0,1,92.05,39,3.46,3.46,0,0,1,94,38.45Z"/><path class="cls-2" d="M102.18,50.1a5.17,5.17,0,0,1-3.93-1.52,5.88,5.88,0,0,1-1.44-4.21,6.51,6.51,0,0,1,1.34-4.32,4.43,4.43,0,0,1,3.59-1.6,4.24,4.24,0,0,1,3.35,1.39,5.31,5.31,0,0,1,1.23,3.66v1.08H98.58a4.42,4.42,0,0,0,1,3,3.47,3.47,0,0,0,2.68,1,8.93,8.93,0,0,0,3.58-.76v1.52a9.61,9.61,0,0,1-1.7.56A9.88,9.88,0,0,1,102.18,50.1Zm-.46-10.23a2.79,2.79,0,0,0-2.16.89,4,4,0,0,0-.94,2.44h5.87a3.73,3.73,0,0,0-.72-2.47A2.52,2.52,0,0,0,101.72,39.87Z"/><path class="cls-2" d="M112.85,48.69a7,7,0,0,0,1.54-.2v1.3a3.24,3.24,0,0,1-.82.22,5.93,5.93,0,0,1-1,.09q-3.25,0-3.26-3.44V40h-1.61v-.82l1.61-.71.72-2.4h1v2.6h3.26V40H111v6.61a2.23,2.23,0,0,0,.49,1.56A1.68,1.68,0,0,0,112.85,48.69Z"/><path class="cls-2" d="M129.78,49.89V42.62a2.93,2.93,0,0,0-.63-2,2.54,2.54,0,0,0-2-.68,3.17,3.17,0,0,0-2.58,1,4.83,4.83,0,0,0-.82,3.16v5.87h-1.7v-16h1.7v4.83a11.26,11.26,0,0,1-.08,1.44h.1a3.47,3.47,0,0,1,1.43-1.27,4.56,4.56,0,0,1,2.12-.47,4.31,4.31,0,0,1,3.09,1,4.11,4.11,0,0,1,1,3.11v7.33Z"/><path class="cls-2" d="M141.89,49.89l-.34-1.6h-.08a4.65,4.65,0,0,1-1.68,1.43,5.1,5.1,0,0,1-2.09.38,3.79,3.79,0,0,1-2.62-.86,3.17,3.17,0,0,1-.94-2.45q0-3.4,5.44-3.57l1.91-.07v-.69a2.87,2.87,0,0,0-.57-2,2.35,2.35,0,0,0-1.82-.63,7.46,7.46,0,0,0-3.18.86l-.52-1.3a8.41,8.41,0,0,1,1.82-.71,7.9,7.9,0,0,1,2-.25,4.31,4.31,0,0,1,3,.89,3.72,3.72,0,0,1,1,2.86v7.67ZM138,48.69a3.47,3.47,0,0,0,2.5-.87,3.24,3.24,0,0,0,.91-2.44v-1l-1.71.07a6.11,6.11,0,0,0-2.92.63,1.89,1.89,0,0,0-.9,1.73,1.77,1.77,0,0,0,.56,1.41A2.31,2.31,0,0,0,138,48.69Z"/><path class="cls-2" d="M154.35,49.89V42.62a2.93,2.93,0,0,0-.63-2,2.56,2.56,0,0,0-2-.68,3.2,3.2,0,0,0-2.59,1,4.89,4.89,0,0,0-.81,3.16v5.87h-1.7v-16h1.7v4.83a11.26,11.26,0,0,1-.08,1.44h.1a3.41,3.41,0,0,1,1.43-1.27,4.53,4.53,0,0,1,2.12-.47,4.31,4.31,0,0,1,3.09,1,4.11,4.11,0,0,1,1,3.11v7.33Z"/><path class="cls-2" d="M166.46,49.89l-.34-1.6H166a4.73,4.73,0,0,1-1.68,1.43,5.1,5.1,0,0,1-2.09.38,3.79,3.79,0,0,1-2.62-.86,3.17,3.17,0,0,1-1-2.45q0-3.4,5.45-3.57l1.91-.07v-.69a2.87,2.87,0,0,0-.57-2,2.35,2.35,0,0,0-1.82-.63,7.46,7.46,0,0,0-3.18.86l-.53-1.3a8.7,8.7,0,0,1,1.83-.71,7.9,7.9,0,0,1,2-.25,4.31,4.31,0,0,1,3,.89,3.76,3.76,0,0,1,1,2.86v7.67Zm-3.85-1.2a3.47,3.47,0,0,0,2.5-.87,3.24,3.24,0,0,0,.91-2.44v-1l-1.71.07a6.08,6.08,0,0,0-2.92.63,1.89,1.89,0,0,0-.9,1.73,1.73,1.73,0,0,0,.56,1.41A2.31,2.31,0,0,0,162.61,48.69Z"/><path class="cls-2" d="M171,48.8c0-.92.41-1.39,1.23-1.39a1.18,1.18,0,0,1,.92.36,1.79,1.79,0,0,1,0,2.06,1.17,1.17,0,0,1-.91.36,1.25,1.25,0,0,1-.88-.32A1.38,1.38,0,0,1,171,48.8Zm1.78-3h-1.07l-.53-10.86h2.13Z"/></svg>