<svg id="Layer_1" data-name="Layer 1" xmlns="http://www.w3.org/2000/svg" width="273" height="64" viewBox="0 0 273 64"><defs><style>.cls-1{fill:#3fa7f3;}.cls-2{fill:#fff;}</style></defs><title>svar 2 besked 3</title><rect class="cls-1" width="273" height="64" rx="19.58"/><path class="cls-2" d="M17.48,24.69H15.73V11.25H11V9.7H22.22v1.55H17.48Z"/><path class="cls-2" d="M31.47,21.63a2.82,2.82,0,0,1-1.17,2.42A5.52,5.52,0,0,1,27,24.9a7.11,7.11,0,0,1-3.48-.71V22.61a9,9,0,0,0,1.73.65,7.64,7.64,0,0,0,1.79.23,4.14,4.14,0,0,0,2.06-.42,1.43,1.43,0,0,0,.71-1.3,1.4,1.4,0,0,0-.57-1.12A9.19,9.19,0,0,0,27,19.54a12.26,12.26,0,0,1-2.23-1,3,3,0,0,1-1-1,2.51,2.51,0,0,1-.32-1.32A2.54,2.54,0,0,1,24.62,14a5.23,5.23,0,0,1,3.07-.79,8.86,8.86,0,0,1,3.55.74l-.61,1.38a8.25,8.25,0,0,0-3.06-.7,3.57,3.57,0,0,0-1.83.38,1.18,1.18,0,0,0-.61,1.05,1.23,1.23,0,0,0,.23.77,2.24,2.24,0,0,0,.74.6,16.45,16.45,0,0,0,2,.83,7.48,7.48,0,0,1,2.7,1.47A2.57,2.57,0,0,1,31.47,21.63Z"/><path class="cls-2" d="M35.92,18.94c.3-.42.75-1,1.35-1.64l3.63-3.85h2l-4.56,4.79,4.87,6.45H41.17l-4-5.31-1.29,1.11v4.2H34.24V8.74h1.68V17.2c0,.37,0,.95-.08,1.74Z"/><path class="cls-2" d="M45,23.6a1.54,1.54,0,0,1,.31-1,1.16,1.16,0,0,1,.9-.35,1.24,1.24,0,0,1,.93.35,1.49,1.49,0,0,1,.33,1,1.42,1.42,0,0,1-.34,1,1.19,1.19,0,0,1-.92.36,1.24,1.24,0,0,1-.87-.32A1.42,1.42,0,0,1,45,23.6Z"/><path class="cls-2" d="M50.61,23.6a1.54,1.54,0,0,1,.31-1,1.16,1.16,0,0,1,.9-.35,1.26,1.26,0,0,1,.93.35,1.49,1.49,0,0,1,.33,1,1.42,1.42,0,0,1-.34,1,1.21,1.21,0,0,1-.92.36,1.24,1.24,0,0,1-.87-.32A1.42,1.42,0,0,1,50.61,23.6Z"/><path class="cls-2" d="M73.54,24.69H71.79v-7H63.9v7.05H62.15V9.7H63.9v6.38h7.89V9.7h1.75Z"/><path class="cls-2" d="M84.3,24.69,84,23.09h-.08a4.71,4.71,0,0,1-1.67,1.43,5.14,5.14,0,0,1-2.09.38A3.76,3.76,0,0,1,77.5,24a3.18,3.18,0,0,1-1-2.46q0-3.39,5.44-3.56L83.9,18v-.7a2.89,2.89,0,0,0-.57-2,2.33,2.33,0,0,0-1.82-.63,7.41,7.41,0,0,0-3.18.87l-.52-1.31a7.91,7.91,0,0,1,1.82-.7,7.5,7.5,0,0,1,2-.26,4.27,4.27,0,0,1,3,.89,3.72,3.72,0,0,1,1,2.86v7.67Zm-3.84-1.2A3.43,3.43,0,0,0,83,22.62a3.2,3.2,0,0,0,.91-2.44v-1l-1.7.07a6.16,6.16,0,0,0-2.93.63,1.9,1.9,0,0,0-.9,1.74,1.76,1.76,0,0,0,.56,1.4A2.36,2.36,0,0,0,80.46,23.49Z"/><path class="cls-2" d="M94.2,13.25a6.81,6.81,0,0,1,1.34.12L95.3,15a5.86,5.86,0,0,0-1.23-.15,3,3,0,0,0-2.33,1.1,4.08,4.08,0,0,0-1,2.76v6h-1.7V13.45h1.4l.2,2.09h.08a4.94,4.94,0,0,1,1.51-1.7A3.44,3.44,0,0,1,94.2,13.25Z"/><path class="cls-2" d="M110,24.69l-.34-1.6h-.08a4.65,4.65,0,0,1-1.68,1.43,5.1,5.1,0,0,1-2.09.38A3.79,3.79,0,0,1,103.2,24a3.17,3.17,0,0,1-.94-2.46q0-3.39,5.44-3.56l1.91-.06v-.7a2.89,2.89,0,0,0-.57-2,2.35,2.35,0,0,0-1.82-.63,7.34,7.34,0,0,0-3.18.87l-.52-1.31a7.91,7.91,0,0,1,1.82-.7,7.48,7.48,0,0,1,2-.26,4.31,4.31,0,0,1,3,.89,3.72,3.72,0,0,1,1,2.86v7.67Zm-3.85-1.2a3.46,3.46,0,0,0,2.5-.87,3.2,3.2,0,0,0,.91-2.44v-1l-1.7.07a6.13,6.13,0,0,0-2.93.63,1.9,1.9,0,0,0-.9,1.74,1.76,1.76,0,0,0,.56,1.4A2.31,2.31,0,0,0,106.16,23.49Z"/><path class="cls-2" d="M116.48,24.69h-1.7V8.74h1.7Z"/><path class="cls-2" d="M121.79,24.69h-1.7V8.74h1.7Z"/><path class="cls-2" d="M130.15,24.9a5.19,5.19,0,0,1-3.94-1.52,5.88,5.88,0,0,1-1.44-4.21,6.51,6.51,0,0,1,1.34-4.32,4.44,4.44,0,0,1,3.6-1.6,4.23,4.23,0,0,1,3.34,1.39,5.31,5.31,0,0,1,1.23,3.66v1.08h-7.74a4.43,4.43,0,0,0,1,3,3.43,3.43,0,0,0,2.67,1,9,9,0,0,0,3.59-.76v1.52a9.44,9.44,0,0,1-1.71.56A9.78,9.78,0,0,1,130.15,24.9Zm-.46-10.23a2.76,2.76,0,0,0-2.16.89,4,4,0,0,0-1,2.44h5.87a3.79,3.79,0,0,0-.71-2.47A2.54,2.54,0,0,0,129.69,14.67Z"/><path class="cls-2" d="M142.31,13.25a6.81,6.81,0,0,1,1.34.12L143.42,15a6,6,0,0,0-1.23-.15,3,3,0,0,0-2.34,1.1,4.08,4.08,0,0,0-1,2.76v6h-1.7V13.45h1.41l.19,2.09h.08a4.94,4.94,0,0,1,1.51-1.7A3.44,3.44,0,0,1,142.31,13.25Z"/><path class="cls-2" d="M150.5,24.9a5.17,5.17,0,0,1-3.93-1.52,5.88,5.88,0,0,1-1.44-4.21,6.46,6.46,0,0,1,1.34-4.32,4.43,4.43,0,0,1,3.59-1.6,4.22,4.22,0,0,1,3.34,1.39,5.31,5.31,0,0,1,1.23,3.66v1.08h-7.74a4.48,4.48,0,0,0,1,3,3.43,3.43,0,0,0,2.67,1,9,9,0,0,0,3.59-.76v1.52a9.44,9.44,0,0,1-1.71.56A9.7,9.7,0,0,1,150.5,24.9ZM150,14.67a2.79,2.79,0,0,0-2.16.89,4,4,0,0,0-.95,2.44h5.88a3.73,3.73,0,0,0-.72-2.47A2.53,2.53,0,0,0,150,14.67Z"/><path class="cls-2" d="M165.18,23.18h-.09a4,4,0,0,1-3.53,1.72,4.19,4.19,0,0,1-3.43-1.51,6.68,6.68,0,0,1-1.22-4.29,6.72,6.72,0,0,1,1.23-4.31,4.12,4.12,0,0,1,3.42-1.54,4.07,4.07,0,0,1,3.51,1.66h.14l-.08-.81,0-.79V8.74h1.7v16h-1.38Zm-3.4.29a3.08,3.08,0,0,0,2.53-.95,4.8,4.8,0,0,0,.78-3.06V19.1a5.65,5.65,0,0,0-.79-3.41,3,3,0,0,0-2.54-1,2.6,2.6,0,0,0-2.29,1.17,5.76,5.76,0,0,0-.8,3.28,5.58,5.58,0,0,0,.79,3.25A2.66,2.66,0,0,0,161.78,23.47Z"/><path class="cls-2" d="M175.15,24.9a5.17,5.17,0,0,1-3.93-1.52,5.88,5.88,0,0,1-1.44-4.21,6.46,6.46,0,0,1,1.34-4.32,4.43,4.43,0,0,1,3.59-1.6,4.22,4.22,0,0,1,3.34,1.39,5.31,5.31,0,0,1,1.23,3.66v1.08h-7.74a4.48,4.48,0,0,0,1,3,3.43,3.43,0,0,0,2.67,1,9,9,0,0,0,3.59-.76v1.52a9.44,9.44,0,0,1-1.71.56A9.7,9.7,0,0,1,175.15,24.9Zm-.46-10.23a2.79,2.79,0,0,0-2.16.89,4.11,4.11,0,0,0-.95,2.44h5.88a3.73,3.73,0,0,0-.72-2.47A2.53,2.53,0,0,0,174.69,14.67Z"/><path class="cls-2" d="M195.29,23.18h-.09a4,4,0,0,1-3.53,1.72,4.19,4.19,0,0,1-3.43-1.51A6.62,6.62,0,0,1,187,19.1a6.72,6.72,0,0,1,1.23-4.31,4.55,4.55,0,0,1,6.93.12h.13l-.07-.81,0-.79V8.74h1.7v16h-1.38Zm-3.4.29a3.06,3.06,0,0,0,2.52-.95,4.74,4.74,0,0,0,.79-3.06V19.1a5.64,5.64,0,0,0-.8-3.41,3,3,0,0,0-2.53-1,2.61,2.61,0,0,0-2.3,1.17,5.76,5.76,0,0,0-.79,3.28,5.51,5.51,0,0,0,.79,3.25A2.65,2.65,0,0,0,191.89,23.47Z"/><path class="cls-2" d="M205.26,24.9a5.17,5.17,0,0,1-3.93-1.52,5.84,5.84,0,0,1-1.45-4.21,6.51,6.51,0,0,1,1.34-4.32,4.44,4.44,0,0,1,3.6-1.6,4.23,4.23,0,0,1,3.34,1.39,5.31,5.31,0,0,1,1.23,3.66v1.08h-7.74a4.43,4.43,0,0,0,1,3,3.43,3.43,0,0,0,2.67,1,9,9,0,0,0,3.59-.76v1.52a9.44,9.44,0,0,1-1.71.56A9.78,9.78,0,0,1,205.26,24.9Zm-.46-10.23a2.76,2.76,0,0,0-2.16.89,4,4,0,0,0-.95,2.44h5.87a3.73,3.73,0,0,0-.71-2.47A2.54,2.54,0,0,0,204.8,14.67Z"/><path class="cls-2" d="M214,24.69h-1.7V8.74H214Z"/><path class="cls-2" d="M221.23,23.49a6.15,6.15,0,0,0,.87-.06l.67-.14v1.3a3.15,3.15,0,0,1-.81.22,6,6,0,0,1-1,.09c-2.18,0-3.26-1.15-3.26-3.44V14.78h-1.61V14l1.61-.71.71-2.4h1v2.6h3.26v1.33h-3.26v6.61a2.28,2.28,0,0,0,.48,1.56A1.68,1.68,0,0,0,221.23,23.49Z"/><path class="cls-2" d="M238.12,23.18H238a4,4,0,0,1-3.53,1.72,4.19,4.19,0,0,1-3.43-1.51,6.62,6.62,0,0,1-1.22-4.29,6.72,6.72,0,0,1,1.23-4.31,4.55,4.55,0,0,1,6.93.12h.13l-.07-.81,0-.79V8.74h1.7v16h-1.38Zm-3.4.29a3.06,3.06,0,0,0,2.52-.95,4.74,4.74,0,0,0,.79-3.06V19.1a5.64,5.64,0,0,0-.8-3.41,3,3,0,0,0-2.53-1,2.61,2.61,0,0,0-2.3,1.17,5.76,5.76,0,0,0-.79,3.28,5.51,5.51,0,0,0,.79,3.25A2.65,2.65,0,0,0,234.72,23.47Z"/><path class="cls-2" d="M248.09,24.9a5.17,5.17,0,0,1-3.93-1.52,5.84,5.84,0,0,1-1.45-4.21,6.51,6.51,0,0,1,1.34-4.32,4.44,4.44,0,0,1,3.6-1.6A4.23,4.23,0,0,1,251,14.64a5.31,5.31,0,0,1,1.23,3.66v1.08h-7.74a4.43,4.43,0,0,0,1,3,3.43,3.43,0,0,0,2.67,1,9,9,0,0,0,3.59-.76v1.52a9.44,9.44,0,0,1-1.71.56A9.78,9.78,0,0,1,248.09,24.9Zm-.46-10.23a2.76,2.76,0,0,0-2.16.89,4,4,0,0,0-.95,2.44h5.87a3.73,3.73,0,0,0-.71-2.47A2.54,2.54,0,0,0,247.63,14.67Z"/><path class="cls-2" d="M269.45,24.69V17.38a3,3,0,0,0-.58-2,2.21,2.21,0,0,0-1.78-.68,2.89,2.89,0,0,0-2.35.92,4.31,4.31,0,0,0-.76,2.81v6.27h-1.7V17.38a3,3,0,0,0-.58-2,2.22,2.22,0,0,0-1.79-.68,2.76,2.76,0,0,0-2.34,1,5.17,5.17,0,0,0-.75,3.15v5.89h-1.7V13.45h1.39l.27,1.54h.08a3.42,3.42,0,0,1,1.36-1.28,4.15,4.15,0,0,1,2-.46c1.75,0,2.9.63,3.44,1.91h.08a3.59,3.59,0,0,1,1.46-1.4,4.54,4.54,0,0,1,2.17-.51,3.81,3.81,0,0,1,2.86,1,4.37,4.37,0,0,1,.95,3.13v7.33Z"/><path class="cls-2" d="M26.93,49.89V42.58a3,3,0,0,0-.57-2,2.24,2.24,0,0,0-1.79-.68,2.89,2.89,0,0,0-2.35.92,4.37,4.37,0,0,0-.75,2.81v6.27H19.76V42.58a3,3,0,0,0-.57-2,2.22,2.22,0,0,0-1.79-.68,2.79,2.79,0,0,0-2.35,1A5.25,5.25,0,0,0,14.31,44v5.89h-1.7V38.65H14l.28,1.54h.08a3.3,3.3,0,0,1,1.36-1.28,4.11,4.11,0,0,1,2-.46c1.76,0,2.91.63,3.45,1.91h.08A3.53,3.53,0,0,1,22.66,39a4.52,4.52,0,0,1,2.17-.51,3.76,3.76,0,0,1,2.85,1,4.33,4.33,0,0,1,.95,3.13v7.33Z"/><path class="cls-2" d="M36.89,50.1A5.17,5.17,0,0,1,33,48.58a5.85,5.85,0,0,1-1.45-4.22,6.5,6.5,0,0,1,1.34-4.31,4.44,4.44,0,0,1,3.6-1.6,4.23,4.23,0,0,1,3.34,1.39A5.31,5.31,0,0,1,41,43.5v1.08H33.28a4.43,4.43,0,0,0,1,3,3.43,3.43,0,0,0,2.67,1,9,9,0,0,0,3.59-.76v1.52a9.44,9.44,0,0,1-1.71.56A9.78,9.78,0,0,1,36.89,50.1Zm-.46-10.23a2.76,2.76,0,0,0-2.16.89,4,4,0,0,0-1,2.44h5.87a3.73,3.73,0,0,0-.71-2.47A2.54,2.54,0,0,0,36.43,39.87Z"/><path class="cls-2" d="M51.57,48.38h-.09A4,4,0,0,1,48,50.1a4.19,4.19,0,0,1-3.43-1.51A6.62,6.62,0,0,1,43.3,44.3,6.72,6.72,0,0,1,44.53,40,4.12,4.12,0,0,1,48,38.45a4.07,4.07,0,0,1,3.51,1.66h.13l-.07-.81,0-.79V33.94h1.7v16H51.8Zm-3.4.29a3.06,3.06,0,0,0,2.52-1,4.74,4.74,0,0,0,.79-3.06V44.3a5.64,5.64,0,0,0-.8-3.41,3,3,0,0,0-2.53-1A2.61,2.61,0,0,0,45.85,41a5.76,5.76,0,0,0-.79,3.28,5.51,5.51,0,0,0,.79,3.25A2.66,2.66,0,0,0,48.17,48.67Z"/><path class="cls-2" d="M69.9,48.38h-.1a4,4,0,0,1-3.52,1.72,4.18,4.18,0,0,1-3.43-1.51,6.62,6.62,0,0,1-1.23-4.29A6.72,6.72,0,0,1,62.85,40a4.13,4.13,0,0,1,3.43-1.54,4.07,4.07,0,0,1,3.5,1.66h.14l-.08-.81,0-.79V33.94h1.7v16H70.12Zm-3.41.29a3.08,3.08,0,0,0,2.53-1,4.8,4.8,0,0,0,.78-3.06V44.3A5.65,5.65,0,0,0,69,40.89a3,3,0,0,0-2.54-1A2.6,2.6,0,0,0,64.18,41a5.76,5.76,0,0,0-.8,3.28,5.58,5.58,0,0,0,.79,3.25A2.66,2.66,0,0,0,66.49,48.67Z"/><path class="cls-2" d="M80.24,38.45a6.74,6.74,0,0,1,1.34.12l-.23,1.58A6,6,0,0,0,80.12,40a3,3,0,0,0-2.33,1.1,4,4,0,0,0-1,2.76v6H75.11V38.65h1.41l.19,2.08h.09A5,5,0,0,1,78.3,39,3.46,3.46,0,0,1,80.24,38.45Z"/><path class="cls-2" d="M88.43,50.1a5.17,5.17,0,0,1-3.93-1.52,5.88,5.88,0,0,1-1.44-4.22,6.5,6.5,0,0,1,1.34-4.31A4.43,4.43,0,0,1,88,38.45a4.24,4.24,0,0,1,3.35,1.39,5.31,5.31,0,0,1,1.23,3.66v1.08H84.82a4.48,4.48,0,0,0,1,3,3.47,3.47,0,0,0,2.68,1,8.93,8.93,0,0,0,3.58-.76v1.52a9.61,9.61,0,0,1-1.7.56A9.88,9.88,0,0,1,88.43,50.1ZM88,39.87a2.79,2.79,0,0,0-2.16.89,4,4,0,0,0-.94,2.44h5.87A3.73,3.73,0,0,0,90,40.73,2.53,2.53,0,0,0,88,39.87Z"/><path class="cls-2" d="M103.16,49.89V42.62a2.93,2.93,0,0,0-.63-2,2.54,2.54,0,0,0-2-.68,3.22,3.22,0,0,0-2.58,1A4.78,4.78,0,0,0,97.17,44v5.89h-1.7V38.65h1.38l.28,1.54h.08a3.56,3.56,0,0,1,1.47-1.29,4.82,4.82,0,0,1,2.1-.45,4.26,4.26,0,0,1,3.06,1,4.16,4.16,0,0,1,1,3.13v7.33Z"/><path class="cls-2" d="M117.55,38.65v1.08l-2.08.25a3.39,3.39,0,0,1,.52.93,3.64,3.64,0,0,1,.22,1.31,3.31,3.31,0,0,1-1.13,2.64,4.56,4.56,0,0,1-3.09,1,5.7,5.7,0,0,1-.95-.08A1.67,1.67,0,0,0,110,47.21a.73.73,0,0,0,.38.68,2.83,2.83,0,0,0,1.3.22h2a4.4,4.4,0,0,1,2.8.77,2.66,2.66,0,0,1,1,2.23,3.2,3.2,0,0,1-1.5,2.85,8,8,0,0,1-4.36,1,6,6,0,0,1-3.4-.82A2.65,2.65,0,0,1,107,51.8a2.62,2.62,0,0,1,.66-1.78,3.41,3.41,0,0,1,1.84-1,1.82,1.82,0,0,1-.72-.61,1.62,1.62,0,0,1-.29-.95,1.82,1.82,0,0,1,.33-1.08,3.61,3.61,0,0,1,1-.89,3,3,0,0,1-1.42-1.22,4,4,0,0,1,.56-4.81,4.52,4.52,0,0,1,3.14-1,6,6,0,0,1,1.59.2Zm-9,13.13a1.52,1.52,0,0,0,.77,1.38,4.22,4.22,0,0,0,2.21.47,6.11,6.11,0,0,0,3.17-.64,1.94,1.94,0,0,0,1-1.73,1.38,1.38,0,0,0-.56-1.27,4.38,4.38,0,0,0-2.13-.35h-2a2.67,2.67,0,0,0-1.8.55A2,2,0,0,0,108.59,51.78Zm.93-9.53a2.32,2.32,0,0,0,.66,1.79,2.7,2.7,0,0,0,1.86.6,2.17,2.17,0,0,0,2.49-2.42A2.23,2.23,0,0,0,112,39.69a2.51,2.51,0,0,0-1.85.64A2.62,2.62,0,0,0,109.52,42.25Z"/><path class="cls-2" d="M124.61,50.1a5.17,5.17,0,0,1-3.93-1.52,5.88,5.88,0,0,1-1.44-4.22,6.45,6.45,0,0,1,1.34-4.31,4.43,4.43,0,0,1,3.59-1.6,4.22,4.22,0,0,1,3.34,1.39,5.31,5.31,0,0,1,1.23,3.66v1.08H121a4.43,4.43,0,0,0,1,3,3.43,3.43,0,0,0,2.67,1,9,9,0,0,0,3.59-.76v1.52a9.44,9.44,0,0,1-1.71.56A9.7,9.7,0,0,1,124.61,50.1Zm-.46-10.23a2.79,2.79,0,0,0-2.16.89A4,4,0,0,0,121,43.2h5.88a3.73,3.73,0,0,0-.72-2.47A2.53,2.53,0,0,0,124.15,39.87Z"/><path class="cls-2" d="M139.33,49.89V42.62a2.92,2.92,0,0,0-.62-2,2.56,2.56,0,0,0-2-.68,3.21,3.21,0,0,0-2.58,1,4.78,4.78,0,0,0-.82,3.15v5.89h-1.71V38.65H133l.28,1.54h.08a3.53,3.53,0,0,1,1.46-1.29,4.84,4.84,0,0,1,2.11-.45,4.22,4.22,0,0,1,3,1,4.13,4.13,0,0,1,1,3.13v7.33Z"/><path class="cls-2" d="M149.28,50.1a5.17,5.17,0,0,1-3.93-1.52,5.88,5.88,0,0,1-1.44-4.22,6.45,6.45,0,0,1,1.34-4.31,4.43,4.43,0,0,1,3.59-1.6,4.22,4.22,0,0,1,3.34,1.39,5.31,5.31,0,0,1,1.23,3.66v1.08h-7.74a4.48,4.48,0,0,0,1,3,3.43,3.43,0,0,0,2.67,1,9,9,0,0,0,3.59-.76v1.52a9.44,9.44,0,0,1-1.71.56A9.7,9.7,0,0,1,149.28,50.1Zm-.46-10.23a2.79,2.79,0,0,0-2.16.89,4,4,0,0,0-.95,2.44h5.88a3.73,3.73,0,0,0-.72-2.47A2.53,2.53,0,0,0,148.82,39.87Z"/><path class="cls-2" d="M156.07,48.8a1.54,1.54,0,0,1,.31-1,1.16,1.16,0,0,1,.9-.35,1.26,1.26,0,0,1,.93.35,1.49,1.49,0,0,1,.33,1,1.42,1.42,0,0,1-.34,1,1.19,1.19,0,0,1-.92.36,1.24,1.24,0,0,1-.87-.32A1.42,1.42,0,0,1,156.07,48.8Z"/></svg>