<svg id="Layer_1" data-name="Layer 1" xmlns="http://www.w3.org/2000/svg" width="273" height="64" viewBox="0 0 273 64"><defs><style>.cls-1{fill:#3fa7f3;}.cls-2{fill:#fff;}</style></defs><title>svar 1 besked 1</title><rect class="cls-1" width="273" height="64" rx="19.58"/><path class="cls-2" d="M12.86,24.69V9.7h1.75V23.11h6.61v1.58Z"/><path class="cls-2" d="M33.21,19.06a6.15,6.15,0,0,1-1.39,4.29A4.87,4.87,0,0,1,28,24.9a5.08,5.08,0,0,1-2.68-.71,4.63,4.63,0,0,1-1.8-2,7,7,0,0,1-.64-3.1,6.22,6.22,0,0,1,1.37-4.28,4.88,4.88,0,0,1,3.82-1.53,4.75,4.75,0,0,1,3.75,1.57A6.19,6.19,0,0,1,33.21,19.06Zm-8.57,0a5.28,5.28,0,0,0,.87,3.28A3,3,0,0,0,28,23.47a3,3,0,0,0,2.54-1.12,5.38,5.38,0,0,0,.86-3.29,5.25,5.25,0,0,0-.86-3.25A3.06,3.06,0,0,0,28,14.69a3,3,0,0,0-2.52,1.1A5.25,5.25,0,0,0,24.64,19.06Z"/><path class="cls-2" d="M45.89,19.06a6.2,6.2,0,0,1-1.38,4.29,4.89,4.89,0,0,1-3.83,1.55A5.07,5.07,0,0,1,38,24.19a4.65,4.65,0,0,1-1.81-2,7.12,7.12,0,0,1-.64-3.1,6.17,6.17,0,0,1,1.38-4.28,4.87,4.87,0,0,1,3.81-1.53,4.74,4.74,0,0,1,3.75,1.57A6.14,6.14,0,0,1,45.89,19.06Zm-8.56,0a5.35,5.35,0,0,0,.86,3.28,3,3,0,0,0,2.53,1.13,3,3,0,0,0,2.54-1.12,5.31,5.31,0,0,0,.87-3.29,5.18,5.18,0,0,0-.87-3.25,3.06,3.06,0,0,0-2.56-1.12,3,3,0,0,0-2.52,1.1A5.26,5.26,0,0,0,37.33,19.06Z"/><path class="cls-2" d="M58.57,19.06a6.2,6.2,0,0,1-1.38,4.29,4.87,4.87,0,0,1-3.82,1.55,5.08,5.08,0,0,1-2.68-.71,4.71,4.71,0,0,1-1.81-2,7.12,7.12,0,0,1-.63-3.1,6.22,6.22,0,0,1,1.37-4.28,4.88,4.88,0,0,1,3.82-1.53,4.75,4.75,0,0,1,3.75,1.57A6.18,6.18,0,0,1,58.57,19.06Zm-8.56,0a5.35,5.35,0,0,0,.86,3.28,3,3,0,0,0,2.54,1.13A3,3,0,0,0,56,22.35a5.38,5.38,0,0,0,.86-3.29A5.25,5.25,0,0,0,56,15.81a3.07,3.07,0,0,0-2.56-1.12,3,3,0,0,0-2.53,1.1A5.32,5.32,0,0,0,50,19.06Z"/><path class="cls-2" d="M63.26,24.69h-1.7V8.74h1.7Z"/><path class="cls-2" d="M68.65,22.25l.16.24c-.18.68-.44,1.48-.77,2.38S67.36,26.62,67,27.4H65.71c.19-.71.39-1.59.61-2.64s.38-1.88.47-2.51Z"/><path class="cls-2" d="M82.22,24.9a5.17,5.17,0,0,1-3.93-1.52,5.88,5.88,0,0,1-1.44-4.21,6.46,6.46,0,0,1,1.34-4.32,4.43,4.43,0,0,1,3.59-1.6,4.22,4.22,0,0,1,3.34,1.39,5.31,5.31,0,0,1,1.23,3.66v1.08H78.61a4.43,4.43,0,0,0,1,3,3.43,3.43,0,0,0,2.67,1,9,9,0,0,0,3.59-.76v1.52a9.44,9.44,0,0,1-1.71.56A9.7,9.7,0,0,1,82.22,24.9Zm-.46-10.23a2.79,2.79,0,0,0-2.16.89A4,4,0,0,0,78.65,18h5.88a3.73,3.73,0,0,0-.72-2.47A2.53,2.53,0,0,0,81.76,14.67Z"/><path class="cls-2" d="M87.89,29.74a4.1,4.1,0,0,1-1.58-.26V28.1a5.26,5.26,0,0,0,1.4.2,1.46,1.46,0,0,0,1.17-.43,2,2,0,0,0,.37-1.33V13.45H91v13C91,28.63,89.93,29.74,87.89,29.74Zm1.22-19.33a1.14,1.14,0,0,1,.29-.86,1,1,0,0,1,.72-.27,1,1,0,0,1,.7.28,1.1,1.1,0,0,1,.3.85,1.1,1.1,0,0,1-.3.85,1,1,0,0,1-1.42,0A1.13,1.13,0,0,1,89.11,10.41Z"/><path class="cls-2" d="M107.71,24.69V17.42a3,3,0,0,0-.62-2.05,2.56,2.56,0,0,0-2-.68,3.22,3.22,0,0,0-2.59,1,4.83,4.83,0,0,0-.82,3.16v5.87H100V8.74h1.7v4.83a9.68,9.68,0,0,1-.08,1.44h.1a3.47,3.47,0,0,1,1.43-1.27,4.56,4.56,0,0,1,2.12-.47,4.32,4.32,0,0,1,3.09,1,4.11,4.11,0,0,1,1,3.11v7.33Z"/><path class="cls-2" d="M119.82,24.69l-.34-1.6h-.08a4.65,4.65,0,0,1-1.68,1.43,5.05,5.05,0,0,1-2.08.38A3.76,3.76,0,0,1,113,24a3.14,3.14,0,0,1-1-2.46q0-3.39,5.44-3.56l1.91-.06v-.7a2.89,2.89,0,0,0-.57-2,2.33,2.33,0,0,0-1.82-.63,7.41,7.41,0,0,0-3.18.87l-.52-1.31a7.91,7.91,0,0,1,1.82-.7,7.48,7.48,0,0,1,2-.26,4.3,4.3,0,0,1,3,.89,3.72,3.72,0,0,1,1,2.86v7.67ZM116,23.49a3.43,3.43,0,0,0,2.49-.87,3.2,3.2,0,0,0,.91-2.44v-1l-1.7.07a6.13,6.13,0,0,0-2.93.63,1.9,1.9,0,0,0-.9,1.74,1.76,1.76,0,0,0,.56,1.4A2.36,2.36,0,0,0,116,23.49Z"/><path class="cls-2" d="M132.28,24.69V17.42a2.93,2.93,0,0,0-.63-2.05,2.54,2.54,0,0,0-2-.68,3.23,3.23,0,0,0-2.59,1,4.84,4.84,0,0,0-.82,3.15v5.89h-1.7V13.45H126l.28,1.54h.08a3.56,3.56,0,0,1,1.47-1.29,4.82,4.82,0,0,1,2.1-.45,4.31,4.31,0,0,1,3.06,1,4.16,4.16,0,0,1,1,3.13v7.33Z"/><path class="cls-2" d="M147.68,24.9a5.17,5.17,0,0,1-3.93-1.52,5.88,5.88,0,0,1-1.44-4.21,6.46,6.46,0,0,1,1.34-4.32,4.43,4.43,0,0,1,3.59-1.6,4.22,4.22,0,0,1,3.34,1.39,5.31,5.31,0,0,1,1.23,3.66v1.08h-7.74a4.48,4.48,0,0,0,1,3,3.43,3.43,0,0,0,2.67,1,9,9,0,0,0,3.59-.76v1.52a9.44,9.44,0,0,1-1.71.56A9.7,9.7,0,0,1,147.68,24.9Zm-.46-10.23a2.79,2.79,0,0,0-2.16.89,4,4,0,0,0-.95,2.44H150a3.73,3.73,0,0,0-.72-2.47A2.53,2.53,0,0,0,147.22,14.67Z"/><path class="cls-2" d="M159.84,13.25a6.91,6.91,0,0,1,1.35.12L161,15a6,6,0,0,0-1.23-.15,3,3,0,0,0-2.33,1.1,4,4,0,0,0-1,2.76v6h-1.71V13.45h1.41l.19,2.09h.09a4.92,4.92,0,0,1,1.5-1.7A3.46,3.46,0,0,1,159.84,13.25Z"/><path class="cls-2" d="M176,21.63a2.82,2.82,0,0,1-1.17,2.42,5.54,5.54,0,0,1-3.28.85,7.18,7.18,0,0,1-3.49-.71V22.61a8.8,8.8,0,0,0,1.74.65,7.64,7.64,0,0,0,1.79.23,4.1,4.1,0,0,0,2-.42,1.42,1.42,0,0,0,.72-1.3,1.4,1.4,0,0,0-.57-1.12,9.19,9.19,0,0,0-2.22-1.11,12.26,12.26,0,0,1-2.23-1,3,3,0,0,1-1-1,2.51,2.51,0,0,1-.33-1.32A2.55,2.55,0,0,1,169.14,14a5.23,5.23,0,0,1,3.07-.79,8.86,8.86,0,0,1,3.55.74l-.61,1.38a8.26,8.26,0,0,0-3.07-.7,3.55,3.55,0,0,0-1.82.38,1.19,1.19,0,0,0-.62,1.05,1.24,1.24,0,0,0,.24.77,2.24,2.24,0,0,0,.74.6,16.45,16.45,0,0,0,2,.83,7.48,7.48,0,0,1,2.7,1.47A2.57,2.57,0,0,1,176,21.63Z"/><path class="cls-2" d="M185.67,24.69l-.34-1.6h-.08a4.65,4.65,0,0,1-1.68,1.43,5.05,5.05,0,0,1-2.08.38,3.76,3.76,0,0,1-2.62-.86,3.18,3.18,0,0,1-1-2.46q0-3.39,5.44-3.56l1.91-.06v-.7a2.89,2.89,0,0,0-.57-2,2.33,2.33,0,0,0-1.82-.63,7.41,7.41,0,0,0-3.18.87l-.52-1.31a7.91,7.91,0,0,1,1.82-.7,7.48,7.48,0,0,1,2-.26,4.3,4.3,0,0,1,3,.89,3.72,3.72,0,0,1,1,2.86v7.67Zm-3.84-1.2a3.45,3.45,0,0,0,2.49-.87,3.2,3.2,0,0,0,.91-2.44v-1l-1.7.07a6.13,6.13,0,0,0-2.93.63,1.9,1.9,0,0,0-.9,1.74,1.76,1.76,0,0,0,.56,1.4A2.34,2.34,0,0,0,181.83,23.49ZM185.2,9.74a2.16,2.16,0,0,1-.63,1.62,2.34,2.34,0,0,1-1.68.61,2.26,2.26,0,0,1-1.65-.6,2.15,2.15,0,0,1-.61-1.61,2.06,2.06,0,0,1,.62-1.59,2.25,2.25,0,0,1,1.64-.59,2.29,2.29,0,0,1,1.67.61A2,2,0,0,1,185.2,9.74Zm-1.11,0a1.11,1.11,0,0,0-.34-.88,1.2,1.2,0,0,0-.86-.32,1.22,1.22,0,0,0-.86.32,1.11,1.11,0,0,0-.34.88,1.08,1.08,0,0,0,1.2,1.2,1.2,1.2,0,0,0,.87-.31A1.16,1.16,0,0,0,184.09,9.76Z"/><path class="cls-2" d="M197.49,13.45v7.29a2.91,2.91,0,0,0,.63,2.05,2.52,2.52,0,0,0,2,.68,3.22,3.22,0,0,0,2.58-1,4.88,4.88,0,0,0,.81-3.15V13.45h1.7V24.69h-1.4l-.25-1.51h-.09A3.41,3.41,0,0,1,202,24.46a4.93,4.93,0,0,1-2.12.44,4.3,4.3,0,0,1-3.07-1,4.14,4.14,0,0,1-1-3.11V13.45Z"/><path class="cls-2" d="M210.49,24.69h-1.71V8.74h1.71Z"/><path class="cls-2" d="M213.25,21.58A3,3,0,0,1,214.53,19a6.9,6.9,0,0,1,3.87-1l1.89-.06v-.7a2.79,2.79,0,0,0-.6-2,2.37,2.37,0,0,0-1.81-.63,6.83,6.83,0,0,0-3.15.87l-.53-1.31a7.68,7.68,0,0,1,1.78-.69,7.85,7.85,0,0,1,2-.27,4.61,4.61,0,0,1,2.18.45,2.78,2.78,0,0,1,1.27,1.42,3.74,3.74,0,0,1,1.42-1.4,4.33,4.33,0,0,1,5.16.88,5.37,5.37,0,0,1,1.19,3.64v1.1H222q.09,4,3.3,4.05a8,8,0,0,0,1.74-.18,8.12,8.12,0,0,0,1.67-.58v1.52a9.47,9.47,0,0,1-1.65.56,8.6,8.6,0,0,1-1.8.17,4.44,4.44,0,0,1-4.24-2.39,5.2,5.2,0,0,1-1.84,1.84,4.91,4.91,0,0,1-2.39.55A3.73,3.73,0,0,1,214.2,24,3.19,3.19,0,0,1,213.25,21.58Zm1.79,0a1.76,1.76,0,0,0,.55,1.43,2.21,2.21,0,0,0,1.45.45,3.2,3.2,0,0,0,2.35-.86,3.35,3.35,0,0,0,.86-2.45v-1l-1.62.07a5.56,5.56,0,0,0-2.75.64A1.93,1.93,0,0,0,215,21.61Zm9.81-6.94a2.42,2.42,0,0,0-1.95.85,4.27,4.27,0,0,0-.83,2.48h5.32a4,4,0,0,0-.65-2.46A2.23,2.23,0,0,0,224.85,14.67Z"/><path class="cls-2" d="M233.79,18.94a19.91,19.91,0,0,1,1.35-1.64l3.63-3.85h2l-4.56,4.79,4.87,6.45H239l-4-5.31-1.28,1.11v4.2h-1.68V8.74h1.68V17.2c0,.37,0,.95-.08,1.74Z"/><path class="cls-2" d="M244.82,18.94a19.41,19.41,0,0,1,1.34-1.64l3.63-3.85h2l-4.55,4.79,4.87,6.45h-2.06l-4-5.31-1.28,1.11v4.2h-1.69V8.74h1.69V17.2q0,.56-.09,1.74Z"/><path class="cls-2" d="M258.91,24.9A5.17,5.17,0,0,1,255,23.38a5.88,5.88,0,0,1-1.44-4.21,6.51,6.51,0,0,1,1.34-4.32,4.43,4.43,0,0,1,3.59-1.6,4.24,4.24,0,0,1,3.35,1.39A5.31,5.31,0,0,1,263,18.3v1.08H255.3a4.38,4.38,0,0,0,1,3,3.43,3.43,0,0,0,2.67,1,9,9,0,0,0,3.59-.76v1.52a9.7,9.7,0,0,1-1.71.56A9.85,9.85,0,0,1,258.91,24.9Zm-.47-10.23a2.75,2.75,0,0,0-2.15.89,4,4,0,0,0-1,2.44h5.87a3.79,3.79,0,0,0-.71-2.47A2.55,2.55,0,0,0,258.44,14.67Z"/><path class="cls-2" d="M271.07,13.25a6.81,6.81,0,0,1,1.34.12L272.17,15a5.86,5.86,0,0,0-1.23-.15,3,3,0,0,0-2.33,1.1,4,4,0,0,0-1,2.76v6h-1.7V13.45h1.4l.2,2.09h.08a4.94,4.94,0,0,1,1.51-1.7A3.44,3.44,0,0,1,271.07,13.25Z"/><path class="cls-2" d="M19.52,49.89l-.34-1.6H19.1a4.65,4.65,0,0,1-1.68,1.43,5.1,5.1,0,0,1-2.09.38,3.79,3.79,0,0,1-2.62-.86,3.17,3.17,0,0,1-.94-2.46q0-3.39,5.44-3.56l1.91-.07v-.69a2.87,2.87,0,0,0-.57-2,2.35,2.35,0,0,0-1.82-.63,7.46,7.46,0,0,0-3.18.86L13,39.43a7.91,7.91,0,0,1,1.82-.7,7.48,7.48,0,0,1,2-.26,4.31,4.31,0,0,1,3,.89,3.72,3.72,0,0,1,1,2.86v7.67Zm-3.85-1.2a3.47,3.47,0,0,0,2.5-.87,3.24,3.24,0,0,0,.91-2.44v-1l-1.7.08a6,6,0,0,0-2.93.63,1.9,1.9,0,0,0-.9,1.74,1.76,1.76,0,0,0,.56,1.4A2.31,2.31,0,0,0,15.67,48.69Z"/><path class="cls-2" d="M27.92,48.69a4.94,4.94,0,0,0,.87-.07,6.4,6.4,0,0,0,.66-.13v1.3a3,3,0,0,1-.81.22,5.93,5.93,0,0,1-1,.09q-3.26,0-3.26-3.44V40H22.8v-.82l1.61-.71.72-2.4h1v2.6h3.26V40H26.11v6.61a2.28,2.28,0,0,0,.48,1.56A1.7,1.7,0,0,0,27.92,48.69Z"/><path class="cls-2" d="M44.4,46.83a2.82,2.82,0,0,1-1.17,2.42A5.52,5.52,0,0,1,40,50.1a7.11,7.11,0,0,1-3.48-.71V47.81a8.8,8.8,0,0,0,1.74.65,7.5,7.5,0,0,0,1.78.23,4.07,4.07,0,0,0,2-.42,1.42,1.42,0,0,0,.72-1.3,1.4,1.4,0,0,0-.57-1.12A9.19,9.19,0,0,0,40,44.74a12.26,12.26,0,0,1-2.23-1,3,3,0,0,1-1-1,2.51,2.51,0,0,1-.32-1.32,2.54,2.54,0,0,1,1.11-2.17,5.23,5.23,0,0,1,3.07-.79,8.86,8.86,0,0,1,3.55.74l-.61,1.38a8.21,8.21,0,0,0-3.06-.7,3.57,3.57,0,0,0-1.83.38,1.18,1.18,0,0,0-.61,1,1.23,1.23,0,0,0,.23.77,2.24,2.24,0,0,0,.74.6,16.45,16.45,0,0,0,2,.83A7.48,7.48,0,0,1,43.7,45,2.57,2.57,0,0,1,44.4,46.83Z"/><path class="cls-2" d="M51.92,50.1A5.17,5.17,0,0,1,48,48.58a5.88,5.88,0,0,1-1.44-4.22,6.5,6.5,0,0,1,1.33-4.31,4.45,4.45,0,0,1,3.6-1.6,4.22,4.22,0,0,1,3.34,1.39,5.31,5.31,0,0,1,1.23,3.66v1.08H48.31a4.43,4.43,0,0,0,1,3,3.43,3.43,0,0,0,2.67,1,9,9,0,0,0,3.59-.76v1.52a9.44,9.44,0,0,1-1.71.56A9.7,9.7,0,0,1,51.92,50.1Zm-.46-10.23a2.79,2.79,0,0,0-2.16.89,4,4,0,0,0-.95,2.44h5.88a3.73,3.73,0,0,0-.72-2.47A2.53,2.53,0,0,0,51.46,39.87Z"/><path class="cls-2" d="M69.64,50.1a4.91,4.91,0,0,1-2-.41,3.78,3.78,0,0,1-1.52-1.24H66a15.25,15.25,0,0,1,.12,1.86v4.63h-1.7V38.65h1.38L66,40.19h.08a4,4,0,0,1,1.53-1.33,4.56,4.56,0,0,1,2-.41A4.15,4.15,0,0,1,73.09,40a6.69,6.69,0,0,1,1.21,4.28,6.69,6.69,0,0,1-1.23,4.3A4.16,4.16,0,0,1,69.64,50.1Zm-.25-10.21a3,3,0,0,0-2.49,1,4.89,4.89,0,0,0-.79,3v.38a5.67,5.67,0,0,0,.79,3.39,3,3,0,0,0,2.53,1,2.62,2.62,0,0,0,2.28-1.18,5.51,5.51,0,0,0,.83-3.25A5.3,5.3,0,0,0,71.71,41,2.71,2.71,0,0,0,69.39,39.89Z"/><path class="cls-2" d="M84.19,49.89l-.34-1.6h-.08a4.65,4.65,0,0,1-1.68,1.43A5.05,5.05,0,0,1,80,50.1a3.8,3.8,0,0,1-2.63-.86,3.17,3.17,0,0,1-.94-2.46q0-3.39,5.44-3.56l1.91-.07v-.69a2.87,2.87,0,0,0-.57-2,2.35,2.35,0,0,0-1.82-.63,7.46,7.46,0,0,0-3.18.86l-.52-1.3a7.91,7.91,0,0,1,1.82-.7,7.48,7.48,0,0,1,2-.26,4.3,4.3,0,0,1,3,.89,3.72,3.72,0,0,1,1,2.86v7.67Zm-3.85-1.2a3.46,3.46,0,0,0,2.5-.87,3.2,3.2,0,0,0,.91-2.44v-1l-1.7.08a6,6,0,0,0-2.93.63,1.9,1.9,0,0,0-.9,1.74,1.76,1.76,0,0,0,.56,1.4A2.31,2.31,0,0,0,80.34,48.69Zm3.38-13.75a2.16,2.16,0,0,1-.63,1.62,2.34,2.34,0,0,1-1.68.61,2.26,2.26,0,0,1-1.65-.6A2.15,2.15,0,0,1,79.14,35a2.09,2.09,0,0,1,.62-1.59,2.6,2.6,0,0,1,3.32,0A2,2,0,0,1,83.72,34.94Zm-1.11,0a1.11,1.11,0,0,0-.34-.88,1.32,1.32,0,0,0-1.72,0,1.11,1.11,0,0,0-.34.88,1.21,1.21,0,0,0,.31.89,1.18,1.18,0,0,0,.89.31,1.22,1.22,0,0,0,.87-.31A1.18,1.18,0,0,0,82.61,35Z"/><path class="cls-2" d="M88.71,48.8c0-.92.41-1.39,1.23-1.39a1.18,1.18,0,0,1,.92.36,1.79,1.79,0,0,1,0,2.06,1.17,1.17,0,0,1-.91.36,1.27,1.27,0,0,1-.88-.32A1.42,1.42,0,0,1,88.71,48.8Zm1.79-3H89.42L88.9,34.9H91Z"/></svg>