<svg xmlns="http://www.w3.org/2000/svg" width="473" height="33" viewBox="0 0 473 33"><defs><style>.cls-1{fill:#333;stroke:#000;stroke-miterlimit:10;stroke-width:3px;opacity:0.49;}.cls-2{fill:#fff;}</style></defs><title>svar 2 besked 4</title><g id="Layer_7" data-name="Layer 7"><rect class="cls-1" x="1.5" y="1.5" width="470" height="30"/><path class="cls-2" d="M140.35,18.69a3.86,3.86,0,0,1-1.51,3.23,6.47,6.47,0,0,1-4.08,1.16,10.27,10.27,0,0,1-4.3-.72V20.6a11.84,11.84,0,0,0,2.11.65,11.61,11.61,0,0,0,2.25.23,4.55,4.55,0,0,0,2.75-.69,2.27,2.27,0,0,0,.93-1.93,2.49,2.49,0,0,0-.33-1.34,3.18,3.18,0,0,0-1.09-1,17.37,17.37,0,0,0-2.34-1,7.45,7.45,0,0,1-3.13-1.85,4.12,4.12,0,0,1-.94-2.81A3.49,3.49,0,0,1,132,8a5.7,5.7,0,0,1,3.61-1.07A10.53,10.53,0,0,1,140,7.8l-.57,1.59a9.66,9.66,0,0,0-3.78-.82,3.71,3.71,0,0,0-2.27.62,2.08,2.08,0,0,0-.81,1.73,2.66,2.66,0,0,0,.3,1.34,2.76,2.76,0,0,0,1,1,12.8,12.8,0,0,0,2.19,1,8.66,8.66,0,0,1,3.4,1.89A3.72,3.72,0,0,1,140.35,18.69Z"/><path class="cls-2" d="M148,23.08a5,5,0,0,1-4-1.57,6.44,6.44,0,0,1-1.41-4.45,6.69,6.69,0,0,1,1.43-4.57,5.13,5.13,0,0,1,4.05-1.61,8.19,8.19,0,0,1,1.7.18,5.6,5.6,0,0,1,1.33.43L150.59,13a8.74,8.74,0,0,0-1.28-.4,6,6,0,0,0-1.24-.15c-2.39,0-3.59,1.52-3.59,4.58a5.43,5.43,0,0,0,.88,3.33A3,3,0,0,0,148,21.53a8,8,0,0,0,3-.64v1.58A6.43,6.43,0,0,1,148,23.08Z"/><path class="cls-2" d="M159.13,10.88a6.64,6.64,0,0,1,1.41.13l-.25,1.65A6.46,6.46,0,0,0,159,12.5a3.15,3.15,0,0,0-2.45,1.16,4.23,4.23,0,0,0-1,2.89v6.32h-1.79V11.09h1.47l.21,2.19h.08a5.31,5.31,0,0,1,1.58-1.78A3.62,3.62,0,0,1,159.13,10.88Z"/><path class="cls-2" d="M167.72,23.08a5.4,5.4,0,0,1-4.12-1.59,6.13,6.13,0,0,1-1.51-4.41,6.83,6.83,0,0,1,1.4-4.52,4.65,4.65,0,0,1,3.77-1.68,4.47,4.47,0,0,1,3.5,1.45,5.62,5.62,0,0,1,1.29,3.85V17.3h-8.11a4.63,4.63,0,0,0,1,3.15,3.63,3.63,0,0,0,2.8,1.08,9.49,9.49,0,0,0,3.76-.8v1.59a9.83,9.83,0,0,1-1.79.59A10.69,10.69,0,0,1,167.72,23.08Zm-.49-10.71a2.9,2.9,0,0,0-2.26.93,4.23,4.23,0,0,0-1,2.55h6.15a3.93,3.93,0,0,0-.75-2.58A2.65,2.65,0,0,0,167.23,12.37Z"/><path class="cls-2" d="M180.06,23.08a5.42,5.42,0,0,1-4.12-1.59,6.13,6.13,0,0,1-1.51-4.41,6.83,6.83,0,0,1,1.4-4.52,4.66,4.66,0,0,1,3.77-1.68,4.47,4.47,0,0,1,3.5,1.45,5.62,5.62,0,0,1,1.29,3.85V17.3h-8.11a4.58,4.58,0,0,0,1.05,3.15,3.59,3.59,0,0,0,2.79,1.08,9.45,9.45,0,0,0,3.76-.8v1.59a9.74,9.74,0,0,1-1.78.59A10.88,10.88,0,0,1,180.06,23.08Zm-.48-10.71a2.89,2.89,0,0,0-2.26.93,4.17,4.17,0,0,0-1,2.55h6.16a3.93,3.93,0,0,0-.75-2.58A2.66,2.66,0,0,0,179.58,12.37Z"/><path class="cls-2" d="M195.49,22.87V15.25a3.07,3.07,0,0,0-.66-2.15,2.68,2.68,0,0,0-2.05-.71,3.41,3.41,0,0,0-2.71,1,5.08,5.08,0,0,0-.86,3.3v6.18h-1.78V11.09h1.45l.29,1.62h.09a3.6,3.6,0,0,1,1.53-1.35,5,5,0,0,1,2.2-.48,4.43,4.43,0,0,1,3.2,1,4.33,4.33,0,0,1,1.08,3.28v7.68Z"/><path class="cls-2" d="M208.53,19.66a2.94,2.94,0,0,1-1.23,2.53,5.7,5.7,0,0,1-3.44.89,7.42,7.42,0,0,1-3.65-.74V20.69a9,9,0,0,0,1.82.67,7.43,7.43,0,0,0,1.88.25,4.37,4.37,0,0,0,2.15-.44,1.54,1.54,0,0,0,.15-2.54,9.16,9.16,0,0,0-2.32-1.15,12.87,12.87,0,0,1-2.34-1.07,3.18,3.18,0,0,1-1-1,2.68,2.68,0,0,1-.34-1.39,2.64,2.64,0,0,1,1.17-2.27,5.49,5.49,0,0,1,3.21-.83,9.5,9.5,0,0,1,3.72.77l-.63,1.45a8.74,8.74,0,0,0-3.22-.73,3.75,3.75,0,0,0-1.91.4,1.23,1.23,0,0,0-.64,1.1,1.33,1.33,0,0,0,.24.8,2.38,2.38,0,0,0,.78.64,17.4,17.4,0,0,0,2.06.87,7.63,7.63,0,0,1,2.83,1.53A2.74,2.74,0,0,1,208.53,19.66Z"/><path class="cls-2" d="M219.48,22.87V15.25a3.07,3.07,0,0,0-.65-2.15,2.68,2.68,0,0,0-2.05-.71,3.39,3.39,0,0,0-2.72,1,5.2,5.2,0,0,0-.85,3.31v6.16h-1.78V6.15h1.78v5.06a10.59,10.59,0,0,1-.09,1.52h.11a3.63,3.63,0,0,1,1.5-1.34A4.83,4.83,0,0,1,217,10.9a4.52,4.52,0,0,1,3.24,1,4.31,4.31,0,0,1,1.08,3.26v7.68Z"/><path class="cls-2" d="M235.09,17a6.49,6.49,0,0,1-1.45,4.5,5.11,5.11,0,0,1-4,1.61,5.27,5.27,0,0,1-2.81-.74,4.86,4.86,0,0,1-1.89-2.13,7.44,7.44,0,0,1-.67-3.24,6.47,6.47,0,0,1,1.44-4.48,5.11,5.11,0,0,1,4-1.61,5,5,0,0,1,3.93,1.64A6.48,6.48,0,0,1,235.09,17Zm-9,0a5.62,5.62,0,0,0,.9,3.44,3.59,3.59,0,0,0,5.32,0,5.58,5.58,0,0,0,.9-3.44,5.5,5.5,0,0,0-.9-3.41,3.64,3.64,0,0,0-5.33,0A5.58,5.58,0,0,0,226.12,17Z"/><path class="cls-2" d="M242,21.61a5.33,5.33,0,0,0,.91-.07,4.74,4.74,0,0,0,.7-.14v1.36a3.35,3.35,0,0,1-.85.23,6.61,6.61,0,0,1-1,.09q-3.4,0-3.41-3.6v-7h-1.69v-.86l1.69-.74.75-2.51h1v2.72h3.42v1.39h-3.42v6.93a2.36,2.36,0,0,0,.51,1.63A1.73,1.73,0,0,0,242,21.61Z"/><path class="cls-2" d="M261.86,17a6.49,6.49,0,0,1-1.45,4.5,5.13,5.13,0,0,1-4,1.61,5.26,5.26,0,0,1-2.8-.74,4.8,4.8,0,0,1-1.89-2.13A7.44,7.44,0,0,1,251,17a6.47,6.47,0,0,1,1.44-4.48,5.11,5.11,0,0,1,4-1.61,5,5,0,0,1,3.93,1.64A6.48,6.48,0,0,1,261.86,17Zm-9,0a5.62,5.62,0,0,0,.9,3.44,3.59,3.59,0,0,0,5.32,0A5.58,5.58,0,0,0,260,17a5.5,5.5,0,0,0-.9-3.41,3.64,3.64,0,0,0-5.33,0A5.58,5.58,0,0,0,252.89,17Z"/><path class="cls-2" d="M274.62,11.09v1.13l-2.18.26a3.88,3.88,0,0,1,.54,1,3.72,3.72,0,0,1,.24,1.37A3.46,3.46,0,0,1,272,17.59a4.72,4.72,0,0,1-3.24,1,5.23,5.23,0,0,1-1-.08,1.76,1.76,0,0,0-1.14,1.51.79.79,0,0,0,.4.72,3,3,0,0,0,1.37.23h2.08a4.74,4.74,0,0,1,2.94.8,2.82,2.82,0,0,1,1,2.35,3.34,3.34,0,0,1-1.57,3,8.41,8.41,0,0,1-4.57,1,6.18,6.18,0,0,1-3.56-.86A2.93,2.93,0,0,1,264.2,23a3.58,3.58,0,0,1,1.94-1.07,1.77,1.77,0,0,1-.76-.63,1.72,1.72,0,0,1-.31-1,1.92,1.92,0,0,1,.35-1.13,3.66,3.66,0,0,1,1.08-.93A3.22,3.22,0,0,1,265,17a3.78,3.78,0,0,1-.57-2.06,3.82,3.82,0,0,1,1.16-3,4.73,4.73,0,0,1,3.29-1,6.08,6.08,0,0,1,1.66.21Zm-9.39,13.75a1.58,1.58,0,0,0,.81,1.45,4.45,4.45,0,0,0,2.31.5,6.37,6.37,0,0,0,3.32-.67,2.06,2.06,0,0,0,1.08-1.82,1.43,1.43,0,0,0-.59-1.33,4.52,4.52,0,0,0-2.22-.37H267.8a2.79,2.79,0,0,0-1.89.58A2.08,2.08,0,0,0,265.23,24.84Zm1-10a2.36,2.36,0,0,0,.7,1.86,2.75,2.75,0,0,0,1.94.64,2.28,2.28,0,0,0,2.61-2.54,2.34,2.34,0,0,0-2.64-2.65,2.61,2.61,0,0,0-1.93.68A2.73,2.73,0,0,0,266.2,14.87Z"/><path class="cls-2" d="M290.77,21.29h-.1A4.16,4.16,0,0,1,287,23.08a4.37,4.37,0,0,1-3.6-1.58A7,7,0,0,1,282.1,17a7.07,7.07,0,0,1,1.29-4.52A4.34,4.34,0,0,1,287,10.88a4.28,4.28,0,0,1,3.67,1.74h.14l-.07-.85-.05-.83V6.15h1.79V22.87H291Zm-3.57.3a3.26,3.26,0,0,0,2.65-1,5,5,0,0,0,.82-3.21V17a5.93,5.93,0,0,0-.83-3.57,3.18,3.18,0,0,0-2.66-1.07,2.74,2.74,0,0,0-2.4,1.22A6.13,6.13,0,0,0,284,17a5.82,5.82,0,0,0,.82,3.4A2.82,2.82,0,0,0,287.2,21.59Z"/><path class="cls-2" d="M301.21,23.08a5.42,5.42,0,0,1-4.12-1.59,6.13,6.13,0,0,1-1.51-4.41,6.83,6.83,0,0,1,1.4-4.52,4.66,4.66,0,0,1,3.77-1.68,4.47,4.47,0,0,1,3.5,1.45,5.62,5.62,0,0,1,1.29,3.85V17.3h-8.11a4.58,4.58,0,0,0,1.05,3.15,3.59,3.59,0,0,0,2.79,1.08,9.45,9.45,0,0,0,3.76-.8v1.59a9.74,9.74,0,0,1-1.78.59A10.81,10.81,0,0,1,301.21,23.08Zm-.48-10.71a2.89,2.89,0,0,0-2.26.93,4.17,4.17,0,0,0-1,2.55h6.16a3.93,3.93,0,0,0-.75-2.58A2.66,2.66,0,0,0,300.73,12.37Z"/><path class="cls-2" d="M310.36,22.87h-1.78V6.15h1.78Z"/></g></svg>