<svg xmlns="http://www.w3.org/2000/svg" width="473" height="33" viewBox="0 0 473 33"><defs><style>.cls-1{fill:#333;stroke:#000;stroke-miterlimit:10;stroke-width:3px;opacity:0.49;}.cls-2{fill:#fff;}</style></defs><title>svar 3 besked 4</title><g id="Layer_7" data-name="Layer 7"><rect class="cls-1" x="1.5" y="1.5" width="470" height="30"/><path class="cls-2" d="M75.48,22.87V7.16h1.83V21.21h6.93v1.66Z"/><path class="cls-2" d="M93.87,22.87l-.35-1.68h-.09a4.88,4.88,0,0,1-1.75,1.5,5.4,5.4,0,0,1-2.19.39,3.92,3.92,0,0,1-2.74-.9,3.27,3.27,0,0,1-1-2.57c0-2.37,1.9-3.62,5.71-3.73l2-.07v-.73a3,3,0,0,0-.6-2.05A2.46,2.46,0,0,0,91,12.37a7.68,7.68,0,0,0-3.33.91l-.55-1.37A8.72,8.72,0,0,1,89,11.17a8.25,8.25,0,0,1,2.08-.27,4.46,4.46,0,0,1,3.12.94,3.88,3.88,0,0,1,1,3v8Zm-4-1.26a3.59,3.59,0,0,0,2.61-.91,3.36,3.36,0,0,0,1-2.56V17.08l-1.78.07a6.51,6.51,0,0,0-3.07.66,2,2,0,0,0-.94,1.82,1.86,1.86,0,0,0,.59,1.48A2.45,2.45,0,0,0,89.85,21.61Z"/><path class="cls-2" d="M106.88,21.29h-.09a4.19,4.19,0,0,1-3.7,1.79A4.34,4.34,0,0,1,99.5,21.5,6.92,6.92,0,0,1,98.21,17a7.07,7.07,0,0,1,1.29-4.52,4.36,4.36,0,0,1,3.59-1.61,4.3,4.3,0,0,1,3.68,1.74h.13l-.07-.85,0-.83V6.15h1.78V22.87h-1.45Zm-3.56.3a3.23,3.23,0,0,0,2.64-1,5,5,0,0,0,.83-3.21V17a5.85,5.85,0,0,0-.84-3.57,3.15,3.15,0,0,0-2.65-1.07,2.75,2.75,0,0,0-2.41,1.22,6.13,6.13,0,0,0-.83,3.45,5.82,5.82,0,0,0,.83,3.4A2.79,2.79,0,0,0,103.32,21.59Z"/><path class="cls-2" d="M120.64,22.87l-4.46-11.78h1.91l2.53,7a30.51,30.51,0,0,1,1,3.18h.09c.08-.38.33-1.17.74-2.36s1.36-3.79,2.82-7.81h1.92l-4.47,11.78Z"/><path class="cls-2" d="M128.21,19.61a3.12,3.12,0,0,1,1.33-2.69,7.32,7.32,0,0,1,4.06-1l2-.07v-.73A2.89,2.89,0,0,0,135,13a2.49,2.49,0,0,0-1.9-.66,7.17,7.17,0,0,0-3.3.91l-.56-1.37a8.48,8.48,0,0,1,1.87-.72,8.2,8.2,0,0,1,2.12-.29,4.89,4.89,0,0,1,2.28.47,2.91,2.91,0,0,1,1.33,1.49,4,4,0,0,1,1.49-1.46,4.14,4.14,0,0,1,2.1-.52,4.21,4.21,0,0,1,3.31,1.43,5.63,5.63,0,0,1,1.24,3.82v1.15H137.4q.09,4.24,3.46,4.25a8.69,8.69,0,0,0,1.82-.19,8.92,8.92,0,0,0,1.75-.61v1.59a9.59,9.59,0,0,1-1.73.59,9.35,9.35,0,0,1-1.88.17,4.66,4.66,0,0,1-4.45-2.5,5.38,5.38,0,0,1-1.93,1.93,5.19,5.19,0,0,1-2.5.57,3.89,3.89,0,0,1-2.74-.91A3.31,3.31,0,0,1,128.21,19.61Zm1.87,0a1.84,1.84,0,0,0,.57,1.5,2.29,2.29,0,0,0,1.52.48,3.29,3.29,0,0,0,2.46-.91,3.47,3.47,0,0,0,.9-2.56V17.08l-1.69.07a5.71,5.71,0,0,0-2.88.68A2,2,0,0,0,130.08,19.63Zm10.28-7.26a2.54,2.54,0,0,0-2.05.89,4.45,4.45,0,0,0-.87,2.59H143a4.16,4.16,0,0,0-.69-2.57A2.31,2.31,0,0,0,140.36,12.37Z"/><path class="cls-2" d="M153.33,10.88a6.77,6.77,0,0,1,1.41.13l-.25,1.65a6.47,6.47,0,0,0-1.29-.16,3.15,3.15,0,0,0-2.44,1.16,4.24,4.24,0,0,0-1,2.89v6.32H148V11.09h1.47l.21,2.19h.08a5.31,5.31,0,0,1,1.58-1.78A3.6,3.6,0,0,1,153.33,10.88Z"/><path class="cls-2" d="M177.66,22.87V15.21a3.18,3.18,0,0,0-.6-2.11,2.32,2.32,0,0,0-1.87-.71,3,3,0,0,0-2.46,1,4.55,4.55,0,0,0-.79,2.94v6.58h-1.79V15.21a3.18,3.18,0,0,0-.6-2.11,2.33,2.33,0,0,0-1.88-.71,2.91,2.91,0,0,0-2.45,1,5.43,5.43,0,0,0-.78,3.29v6.18h-1.78V11.09h1.45l.29,1.62h.08a3.52,3.52,0,0,1,1.43-1.35,4.34,4.34,0,0,1,2.05-.48c1.84,0,3,.67,3.61,2h.09a3.76,3.76,0,0,1,1.52-1.46,4.74,4.74,0,0,1,2.28-.54,4,4,0,0,1,3,1,4.53,4.53,0,0,1,1,3.28v7.68Z"/><path class="cls-2" d="M188.09,23.08A5.42,5.42,0,0,1,184,21.49a6.17,6.17,0,0,1-1.5-4.41,6.77,6.77,0,0,1,1.4-4.52,4.64,4.64,0,0,1,3.76-1.68,4.46,4.46,0,0,1,3.5,1.45,5.62,5.62,0,0,1,1.29,3.85V17.3h-8.11a4.68,4.68,0,0,0,1.05,3.15,3.62,3.62,0,0,0,2.8,1.08,9.49,9.49,0,0,0,3.76-.8v1.59a9.83,9.83,0,0,1-1.79.59A10.73,10.73,0,0,1,188.09,23.08Zm-.48-10.71a2.9,2.9,0,0,0-2.26.93,4.23,4.23,0,0,0-1,2.55h6.15a3.93,3.93,0,0,0-.75-2.58A2.65,2.65,0,0,0,187.61,12.37Z"/><path class="cls-2" d="M203.48,21.29h-.1a4.18,4.18,0,0,1-3.69,1.79,4.37,4.37,0,0,1-3.6-1.58A7,7,0,0,1,194.81,17a7.07,7.07,0,0,1,1.29-4.52,4.34,4.34,0,0,1,3.59-1.61,4.28,4.28,0,0,1,3.67,1.74h.14l-.08-.85,0-.83V6.15h1.78V22.87h-1.45Zm-3.57.3a3.26,3.26,0,0,0,2.65-1,5,5,0,0,0,.82-3.21V17a5.93,5.93,0,0,0-.83-3.57,3.18,3.18,0,0,0-2.66-1.07,2.72,2.72,0,0,0-2.4,1.22,6,6,0,0,0-.83,3.45,5.82,5.82,0,0,0,.82,3.4A2.79,2.79,0,0,0,199.91,21.59Z"/><path class="cls-2" d="M221.9,22.87l-.35-1.68h-.09a4.9,4.9,0,0,1-1.76,1.5,5.35,5.35,0,0,1-2.18.39,3.94,3.94,0,0,1-2.75-.9,3.3,3.3,0,0,1-1-2.57c0-2.37,1.9-3.62,5.7-3.73l2-.07v-.73a3,3,0,0,0-.6-2.05,2.43,2.43,0,0,0-1.9-.66,7.68,7.68,0,0,0-3.33.91l-.55-1.37a8.72,8.72,0,0,1,1.91-.74,8.19,8.19,0,0,1,2.08-.27,4.46,4.46,0,0,1,3.12.94,3.91,3.91,0,0,1,1,3v8Zm-4-1.26a3.63,3.63,0,0,0,2.62-.91,3.4,3.4,0,0,0,.95-2.56V17.08l-1.79.07a6.46,6.46,0,0,0-3.06.66,2,2,0,0,0-.94,1.82,1.85,1.85,0,0,0,.58,1.48A2.47,2.47,0,0,0,217.87,21.61Z"/><path class="cls-2" d="M230.7,21.61a5.41,5.41,0,0,0,.91-.07,5,5,0,0,0,.7-.14v1.36a3.35,3.35,0,0,1-.85.23,6.61,6.61,0,0,1-1,.09q-3.42,0-3.42-3.6v-7h-1.68v-.86l1.68-.74.76-2.51h1v2.72h3.41v1.39h-3.41v6.93a2.41,2.41,0,0,0,.5,1.63A1.77,1.77,0,0,0,230.7,21.61Z"/><path class="cls-2" d="M248,19.66a3,3,0,0,1-1.22,2.53,5.74,5.74,0,0,1-3.44.89,7.39,7.39,0,0,1-3.65-.74V20.69a8.75,8.75,0,0,0,1.82.67,7.35,7.35,0,0,0,1.87.25,4.34,4.34,0,0,0,2.15-.44,1.48,1.48,0,0,0,.75-1.36,1.5,1.5,0,0,0-.59-1.18,9.28,9.28,0,0,0-2.33-1.15A13.22,13.22,0,0,1,241,16.41a3.28,3.28,0,0,1-1-1,2.78,2.78,0,0,1-.34-1.39,2.63,2.63,0,0,1,1.18-2.27,5.49,5.49,0,0,1,3.21-.83,9.49,9.49,0,0,1,3.71.77l-.63,1.45a8.65,8.65,0,0,0-3.21-.73,3.72,3.72,0,0,0-1.91.4,1.24,1.24,0,0,0-.65,1.1,1.33,1.33,0,0,0,.24.8,2.38,2.38,0,0,0,.78.64,18.2,18.2,0,0,0,2.06.87,7.78,7.78,0,0,1,2.84,1.53A2.73,2.73,0,0,1,248,19.66Z"/><path class="cls-2" d="M255.58,23.08a5,5,0,0,1-4-1.57,6.44,6.44,0,0,1-1.4-4.45,6.69,6.69,0,0,1,1.42-4.57,5.13,5.13,0,0,1,4.05-1.61,8.11,8.11,0,0,1,1.7.18,5.6,5.6,0,0,1,1.33.43L258.18,13a9.29,9.29,0,0,0-1.29-.4,6,6,0,0,0-1.24-.15c-2.39,0-3.59,1.52-3.59,4.58a5.5,5.5,0,0,0,.88,3.33,3,3,0,0,0,2.59,1.16,8,8,0,0,0,3-.64v1.58A6.41,6.41,0,0,1,255.58,23.08Z"/><path class="cls-2" d="M266.72,10.88a6.6,6.6,0,0,1,1.4.13l-.24,1.65a6.65,6.65,0,0,0-1.29-.16,3.15,3.15,0,0,0-2.45,1.16,4.28,4.28,0,0,0-1,2.89v6.32h-1.78V11.09h1.47l.2,2.19h.09a5.1,5.1,0,0,1,1.58-1.78A3.57,3.57,0,0,1,266.72,10.88Z"/><path class="cls-2" d="M275.3,23.08a5.42,5.42,0,0,1-4.12-1.59,6.13,6.13,0,0,1-1.51-4.41,6.83,6.83,0,0,1,1.4-4.52,4.66,4.66,0,0,1,3.77-1.68,4.47,4.47,0,0,1,3.5,1.45,5.62,5.62,0,0,1,1.29,3.85V17.3h-8.11a4.58,4.58,0,0,0,1.05,3.15,3.59,3.59,0,0,0,2.79,1.08,9.49,9.49,0,0,0,3.76-.8v1.59a9.58,9.58,0,0,1-1.79.59A10.69,10.69,0,0,1,275.3,23.08Zm-.48-10.71a2.93,2.93,0,0,0-2.27.93,4.23,4.23,0,0,0-1,2.55h6.16a3.87,3.87,0,0,0-.76-2.58A2.62,2.62,0,0,0,274.82,12.37Z"/><path class="cls-2" d="M287.64,23.08a5.42,5.42,0,0,1-4.12-1.59A6.18,6.18,0,0,1,282,17.08a6.78,6.78,0,0,1,1.41-4.52,4.63,4.63,0,0,1,3.76-1.68,4.46,4.46,0,0,1,3.5,1.45A5.62,5.62,0,0,1,292,16.18V17.3h-8.11a4.68,4.68,0,0,0,1.05,3.15,3.6,3.6,0,0,0,2.8,1.08,9.52,9.52,0,0,0,3.76-.8v1.59a9.83,9.83,0,0,1-1.79.59A10.73,10.73,0,0,1,287.64,23.08Zm-.48-10.71a2.89,2.89,0,0,0-2.26.93,4.17,4.17,0,0,0-1,2.55h6.16a3.93,3.93,0,0,0-.75-2.58A2.65,2.65,0,0,0,287.16,12.37Z"/><path class="cls-2" d="M303.07,22.87V15.25a3.07,3.07,0,0,0-.66-2.15,2.67,2.67,0,0,0-2.05-.71,3.42,3.42,0,0,0-2.71,1,5.08,5.08,0,0,0-.86,3.3v6.18H295V11.09h1.45l.29,1.62h.09a3.6,3.6,0,0,1,1.53-1.35,5,5,0,0,1,2.21-.48,4.46,4.46,0,0,1,3.2,1,4.37,4.37,0,0,1,1.07,3.28v7.68Z"/><path class="cls-2" d="M316.11,19.66a2.94,2.94,0,0,1-1.23,2.53,5.69,5.69,0,0,1-3.43.89,7.46,7.46,0,0,1-3.66-.74V20.69a9.05,9.05,0,0,0,1.83.67,7.3,7.3,0,0,0,1.87.25,4.34,4.34,0,0,0,2.15-.44,1.54,1.54,0,0,0,.15-2.54,9,9,0,0,0-2.32-1.15,12.87,12.87,0,0,1-2.34-1.07,3.28,3.28,0,0,1-1-1,2.78,2.78,0,0,1-.34-1.39,2.64,2.64,0,0,1,1.17-2.27,5.5,5.5,0,0,1,3.22-.83,9.49,9.49,0,0,1,3.71.77l-.63,1.45a8.65,8.65,0,0,0-3.21-.73,3.76,3.76,0,0,0-1.92.4,1.23,1.23,0,0,0-.64,1.1,1.33,1.33,0,0,0,.24.8,2.38,2.38,0,0,0,.78.64,18.2,18.2,0,0,0,2.06.87,7.63,7.63,0,0,1,2.83,1.53A2.74,2.74,0,0,1,316.11,19.66Z"/><path class="cls-2" d="M327.07,22.87V15.25a3.07,3.07,0,0,0-.66-2.15,2.68,2.68,0,0,0-2.05-.71,3.37,3.37,0,0,0-2.71,1,5.13,5.13,0,0,0-.86,3.31v6.16H319V6.15h1.78v5.06a12.55,12.55,0,0,1-.08,1.52h.1a3.63,3.63,0,0,1,1.5-1.34,4.83,4.83,0,0,1,2.22-.49,4.52,4.52,0,0,1,3.24,1,4.31,4.31,0,0,1,1.08,3.26v7.68Z"/><path class="cls-2" d="M342.67,17a6.49,6.49,0,0,1-1.45,4.5,5.11,5.11,0,0,1-4,1.61,5.27,5.27,0,0,1-2.81-.74,4.92,4.92,0,0,1-1.89-2.13,7.44,7.44,0,0,1-.66-3.24,6.47,6.47,0,0,1,1.44-4.48,5.09,5.09,0,0,1,4-1.61,5,5,0,0,1,3.93,1.64A6.48,6.48,0,0,1,342.67,17Zm-9,0a5.62,5.62,0,0,0,.91,3.44,3.11,3.11,0,0,0,2.65,1.18,3.15,3.15,0,0,0,2.66-1.18,5.58,5.58,0,0,0,.91-3.44,5.5,5.5,0,0,0-.91-3.41,3.19,3.19,0,0,0-2.68-1.17,3.14,3.14,0,0,0-2.64,1.15A5.51,5.51,0,0,0,333.7,17Z"/><path class="cls-2" d="M349.6,21.61a5.53,5.53,0,0,0,.92-.07,4.84,4.84,0,0,0,.69-.14v1.36a3.23,3.23,0,0,1-.85.23,6.49,6.49,0,0,1-1,.09q-3.42,0-3.42-3.6v-7h-1.69v-.86l1.69-.74.75-2.51h1v2.72h3.42v1.39h-3.42v6.93a2.36,2.36,0,0,0,.51,1.63A1.74,1.74,0,0,0,349.6,21.61Z"/><path class="cls-2" d="M357.37,21.61a5.41,5.41,0,0,0,.91-.07,4.74,4.74,0,0,0,.7-.14v1.36a3.35,3.35,0,0,1-.85.23,6.61,6.61,0,0,1-1,.09c-2.28,0-3.41-1.2-3.41-3.6v-7H352v-.86l1.69-.74.75-2.51h1v2.72h3.42v1.39h-3.42v6.93A2.41,2.41,0,0,0,356,21,1.77,1.77,0,0,0,357.37,21.61Z"/><path class="cls-2" d="M366.31,23.08a5.4,5.4,0,0,1-4.12-1.59,6.13,6.13,0,0,1-1.51-4.41,6.83,6.83,0,0,1,1.4-4.52,4.65,4.65,0,0,1,3.77-1.68,4.47,4.47,0,0,1,3.5,1.45,5.62,5.62,0,0,1,1.29,3.85V17.3h-8.11a4.63,4.63,0,0,0,1,3.15,3.63,3.63,0,0,0,2.8,1.08,9.49,9.49,0,0,0,3.76-.8v1.59a9.83,9.83,0,0,1-1.79.59A10.69,10.69,0,0,1,366.31,23.08Zm-.49-10.71a2.9,2.9,0,0,0-2.26.93,4.23,4.23,0,0,0-1,2.55h6.15a3.93,3.93,0,0,0-.75-2.58A2.65,2.65,0,0,0,365.82,12.37Z"/></g></svg>