<svg id="Layer_1" data-name="Layer 1" xmlns="http://www.w3.org/2000/svg" width="256" height="59" viewBox="0 0 256 59"><defs><style>.cls-1{fill:#3fa7f3;}.cls-2{fill:#fff;}</style></defs><title>svar 1 besked 5</title><rect class="cls-1" width="256" height="59" rx="19.58"/><path class="cls-2" d="M23.83,15.05a7.55,7.55,0,0,1-2,5.68,7.94,7.94,0,0,1-5.79,2H11.86V7.7h4.6a7.34,7.34,0,0,1,5.43,1.94A7.31,7.31,0,0,1,23.83,15.05ZM22,15.11a6.06,6.06,0,0,0-1.47-4.42,5.9,5.9,0,0,0-4.37-1.48H13.61v12h2.12a6.43,6.43,0,0,0,4.68-1.53A6,6,0,0,0,22,15.11Z"/><path class="cls-2" d="M28.52,11.45v7.29a2.91,2.91,0,0,0,.62,2.05,2.52,2.52,0,0,0,2,.68,3.22,3.22,0,0,0,2.58-1,4.88,4.88,0,0,0,.81-3.15V11.45H36.2V22.69H34.79l-.25-1.51h-.09A3.41,3.41,0,0,1,33,22.46a4.93,4.93,0,0,1-2.12.44,4.3,4.3,0,0,1-3.07-1,4.15,4.15,0,0,1-1-3.12V11.45Z"/><path class="cls-2" d="M47.45,21.18h-.09a4,4,0,0,1-3.53,1.72,4.19,4.19,0,0,1-3.43-1.51,6.68,6.68,0,0,1-1.22-4.29,6.72,6.72,0,0,1,1.23-4.31,4.12,4.12,0,0,1,3.42-1.54,4.07,4.07,0,0,1,3.51,1.66h.13l-.07-.81,0-.79V6.74h1.7v16H47.68Zm-3.4.29a3.09,3.09,0,0,0,2.53-.95,4.8,4.8,0,0,0,.78-3.06V17.1a5.65,5.65,0,0,0-.79-3.41,3,3,0,0,0-2.54-1,2.6,2.6,0,0,0-2.29,1.17,5.76,5.76,0,0,0-.8,3.28,5.58,5.58,0,0,0,.79,3.25A2.66,2.66,0,0,0,44.05,21.47Z"/><path class="cls-2" d="M57.42,22.9a5.17,5.17,0,0,1-3.93-1.52,5.88,5.88,0,0,1-1.44-4.22,6.45,6.45,0,0,1,1.34-4.31A4.43,4.43,0,0,1,57,11.25a4.22,4.22,0,0,1,3.34,1.39,5.31,5.31,0,0,1,1.23,3.66v1.08H53.81a4.48,4.48,0,0,0,1,3,3.43,3.43,0,0,0,2.67,1,9,9,0,0,0,3.59-.76v1.52a9.44,9.44,0,0,1-1.71.56A9.7,9.7,0,0,1,57.42,22.9ZM57,12.67a2.82,2.82,0,0,0-2.16.88A4.1,4.1,0,0,0,53.85,16h5.88A3.73,3.73,0,0,0,59,13.53,2.53,2.53,0,0,0,57,12.67Z"/><path class="cls-2" d="M64.21,21.6c0-.93.41-1.39,1.23-1.39a1.18,1.18,0,0,1,.92.36,1.51,1.51,0,0,1,.32,1,1.46,1.46,0,0,1-.33,1,1.14,1.14,0,0,1-.91.37,1.25,1.25,0,0,1-.88-.32A1.42,1.42,0,0,1,64.21,21.6Zm1.78-3H64.92L64.39,7.7h2.13Z"/><path class="cls-2" d="M84.23,18.7a3.67,3.67,0,0,1-1.43,3.09,6.23,6.23,0,0,1-3.9,1.11,9.75,9.75,0,0,1-4.1-.69V20.53a11,11,0,0,0,2,.61,10.63,10.63,0,0,0,2.15.23,4.36,4.36,0,0,0,2.63-.66,2.17,2.17,0,0,0,.88-1.84,2.36,2.36,0,0,0-.31-1.28,2.94,2.94,0,0,0-1-.92,14.14,14.14,0,0,0-2.23-1,7.21,7.21,0,0,1-3-1.77A3.93,3.93,0,0,1,75,11.27a3.31,3.31,0,0,1,1.3-2.76,5.42,5.42,0,0,1,3.44-1,10.34,10.34,0,0,1,4.12.82l-.55,1.52A9.29,9.29,0,0,0,79.7,9a3.47,3.47,0,0,0-2.16.6,2,2,0,0,0-.78,1.65,2.58,2.58,0,0,0,.29,1.28,2.69,2.69,0,0,0,1,.91,13,13,0,0,0,2.08.92,8.32,8.32,0,0,1,3.25,1.8A3.55,3.55,0,0,1,84.23,18.7Z"/><path class="cls-2" d="M88.75,22.69H87V6.74h1.71Z"/><path class="cls-2" d="M97.1,22.9a5.17,5.17,0,0,1-3.93-1.52,5.88,5.88,0,0,1-1.44-4.22,6.5,6.5,0,0,1,1.34-4.31,4.43,4.43,0,0,1,3.59-1.6A4.24,4.24,0,0,1,100,12.64a5.31,5.31,0,0,1,1.23,3.66v1.08H93.49a4.48,4.48,0,0,0,1,3,3.47,3.47,0,0,0,2.68,1,8.93,8.93,0,0,0,3.58-.76v1.52a9.61,9.61,0,0,1-1.7.56A9.88,9.88,0,0,1,97.1,22.9Zm-.46-10.23a2.82,2.82,0,0,0-2.16.88A4.1,4.1,0,0,0,93.54,16h5.87a3.73,3.73,0,0,0-.72-2.47A2.53,2.53,0,0,0,96.64,12.67Z"/><path class="cls-2" d="M107.77,21.49a4.94,4.94,0,0,0,.87-.07c.28,0,.5-.09.67-.13v1.3a3.24,3.24,0,0,1-.82.22,5.93,5.93,0,0,1-1,.09q-3.26,0-3.26-3.44V12.78h-1.61V12l1.61-.71.72-2.4h1v2.6h3.26v1.33H106v6.61a2.28,2.28,0,0,0,.48,1.56A1.71,1.71,0,0,0,107.77,21.49Z"/><path class="cls-2" d="M124.66,21.18h-.1A4,4,0,0,1,121,22.9a4.18,4.18,0,0,1-3.43-1.51,6.62,6.62,0,0,1-1.23-4.29,6.72,6.72,0,0,1,1.23-4.31A4.13,4.13,0,0,1,121,11.25a4.07,4.07,0,0,1,3.5,1.66h.14l-.08-.81,0-.79V6.74h1.71v16h-1.39Zm-3.41.29a3.08,3.08,0,0,0,2.53-.95,4.8,4.8,0,0,0,.78-3.06V17.1a5.65,5.65,0,0,0-.79-3.41,3,3,0,0,0-2.54-1,2.6,2.6,0,0,0-2.29,1.17,5.76,5.76,0,0,0-.8,3.28,5.58,5.58,0,0,0,.79,3.25A2.66,2.66,0,0,0,121.25,21.47Z"/><path class="cls-2" d="M134.62,22.9a5.17,5.17,0,0,1-3.93-1.52,5.88,5.88,0,0,1-1.44-4.22,6.5,6.5,0,0,1,1.34-4.31,4.43,4.43,0,0,1,3.59-1.6,4.22,4.22,0,0,1,3.34,1.39,5.31,5.31,0,0,1,1.23,3.66v1.08H131a4.48,4.48,0,0,0,1,3,3.46,3.46,0,0,0,2.67,1,9,9,0,0,0,3.59-.76v1.52a9.61,9.61,0,0,1-1.7.56A9.88,9.88,0,0,1,134.62,22.9Zm-.46-10.23a2.82,2.82,0,0,0-2.16.88,4.17,4.17,0,0,0-.95,2.45h5.88a3.73,3.73,0,0,0-.72-2.47A2.53,2.53,0,0,0,134.16,12.67Z"/><path class="cls-2" d="M145.29,21.49a4.94,4.94,0,0,0,.87-.07,6.4,6.4,0,0,0,.66-.13v1.3a3,3,0,0,1-.81.22,5.93,5.93,0,0,1-1,.09q-3.25,0-3.26-3.44V12.78h-1.61V12l1.61-.71.72-2.4h1v2.6h3.26v1.33h-3.26v6.61A2.28,2.28,0,0,0,144,21,1.7,1.7,0,0,0,145.29,21.49Z"/><path class="cls-2" d="M156.23,22.69h-1.7V6.74h1.7Z"/><path class="cls-2" d="M169.54,17.06a6.17,6.17,0,0,1-1.39,4.29,4.86,4.86,0,0,1-3.82,1.55,5.08,5.08,0,0,1-2.68-.71,4.63,4.63,0,0,1-1.8-2,7,7,0,0,1-.64-3.1,6.22,6.22,0,0,1,1.37-4.28,4.88,4.88,0,0,1,3.82-1.53,4.75,4.75,0,0,1,3.75,1.57A6.19,6.19,0,0,1,169.54,17.06Zm-8.56,0a5.28,5.28,0,0,0,.86,3.28,3,3,0,0,0,2.53,1.13,3,3,0,0,0,2.54-1.12,5.38,5.38,0,0,0,.86-3.29,5.25,5.25,0,0,0-.86-3.25,3,3,0,0,0-2.56-1.12,3,3,0,0,0-2.52,1.1A5.26,5.26,0,0,0,161,17.06Z"/><path class="cls-2" d="M177.65,11.25a6.81,6.81,0,0,1,1.34.12L178.76,13a6,6,0,0,0-1.23-.15,3,3,0,0,0-2.34,1.1,4.08,4.08,0,0,0-1,2.76v6h-1.7V11.45h1.41l.19,2.09h.08a4.94,4.94,0,0,1,1.51-1.7A3.44,3.44,0,0,1,177.65,11.25Z"/><path class="cls-2" d="M184.72,21.49a5.14,5.14,0,0,0,.88-.07,6.4,6.4,0,0,0,.66-.13v1.3a3,3,0,0,1-.81.22,6,6,0,0,1-1,.09c-2.18,0-3.26-1.15-3.26-3.44V12.78h-1.61V12l1.61-.71.71-2.4h1v2.6h3.26v1.33h-3.26v6.61A2.28,2.28,0,0,0,183.4,21,1.68,1.68,0,0,0,184.72,21.49Z"/><path class="cls-2" d="M188.26,21.6a1.59,1.59,0,0,1,.31-1,1.16,1.16,0,0,1,.9-.35,1.23,1.23,0,0,1,.93.35,1.49,1.49,0,0,1,.33,1,1.42,1.42,0,0,1-.34,1,1.19,1.19,0,0,1-.92.36,1.2,1.2,0,0,1-.86-.32A1.42,1.42,0,0,1,188.26,21.6Z"/><path class="cls-2" d="M193.85,21.6a1.54,1.54,0,0,1,.31-1,1.16,1.16,0,0,1,.9-.35,1.23,1.23,0,0,1,.93.35,1.49,1.49,0,0,1,.33,1,1.42,1.42,0,0,1-.34,1,1.19,1.19,0,0,1-.92.36,1.24,1.24,0,0,1-.87-.32A1.42,1.42,0,0,1,193.85,21.6Z"/><path class="cls-2" d="M199.44,21.6a1.54,1.54,0,0,1,.31-1,1.16,1.16,0,0,1,.9-.35,1.26,1.26,0,0,1,.93.35,1.49,1.49,0,0,1,.33,1,1.42,1.42,0,0,1-.34,1,1.21,1.21,0,0,1-.92.36,1.24,1.24,0,0,1-.87-.32A1.42,1.42,0,0,1,199.44,21.6Z"/><path class="cls-2" d="M218.42,22.69V15.42a2.93,2.93,0,0,0-.63-2.05,2.56,2.56,0,0,0-2-.68,3.22,3.22,0,0,0-2.58,1,4.77,4.77,0,0,0-.82,3.14v5.9h-1.7V11.45h1.38l.28,1.54h.08a3.56,3.56,0,0,1,1.47-1.29,4.79,4.79,0,0,1,2.1-.45,4.22,4.22,0,0,1,3.05,1,4.13,4.13,0,0,1,1,3.13v7.33Z"/><path class="cls-2" d="M233.32,17.06a6.22,6.22,0,0,1-1.39,4.29,4.87,4.87,0,0,1-3.82,1.55,5.08,5.08,0,0,1-2.68-.71,4.71,4.71,0,0,1-1.81-2,7.15,7.15,0,0,1-.63-3.1,6.22,6.22,0,0,1,1.37-4.28,4.88,4.88,0,0,1,3.82-1.53,4.75,4.75,0,0,1,3.75,1.57A6.19,6.19,0,0,1,233.32,17.06Zm-8.57,0a5.28,5.28,0,0,0,.87,3.28,3,3,0,0,0,2.53,1.13,3,3,0,0,0,2.54-1.12,5.38,5.38,0,0,0,.86-3.29,5.25,5.25,0,0,0-.86-3.25,3,3,0,0,0-2.56-1.12,3,3,0,0,0-2.53,1.1A5.32,5.32,0,0,0,224.75,17.06Z"/><path class="cls-2" d="M239.93,21.49a4.94,4.94,0,0,0,.87-.07c.28,0,.5-.09.67-.13v1.3a3.24,3.24,0,0,1-.82.22,5.93,5.93,0,0,1-1,.09q-3.26,0-3.26-3.44V12.78h-1.61V12l1.61-.71.72-2.4h1v2.6h3.26v1.33h-3.26v6.61a2.23,2.23,0,0,0,.49,1.56A1.68,1.68,0,0,0,239.93,21.49Z"/><path class="cls-2" d="M16.1,48.1a4.77,4.77,0,0,1-3.78-1.51A6.17,6.17,0,0,1,11,42.34,6.32,6.32,0,0,1,12.34,38a4.89,4.89,0,0,1,3.87-1.54,8.1,8.1,0,0,1,1.62.17A5.92,5.92,0,0,1,19.1,37l-.52,1.45a8.44,8.44,0,0,0-1.23-.38A5.44,5.44,0,0,0,16.17,38c-2.28,0-3.43,1.45-3.43,4.36a5.19,5.19,0,0,0,.84,3.18,2.91,2.91,0,0,0,2.48,1.11A7.5,7.5,0,0,0,18.94,46v1.51A6.13,6.13,0,0,1,16.1,48.1Z"/><path class="cls-2" d="M31.3,42.26a6.21,6.21,0,0,1-1.38,4.29A4.87,4.87,0,0,1,26.1,48.1a5.08,5.08,0,0,1-2.68-.71,4.71,4.71,0,0,1-1.81-2,7.15,7.15,0,0,1-.63-3.1A6.22,6.22,0,0,1,22.35,38a4.88,4.88,0,0,1,3.82-1.53A4.72,4.72,0,0,1,29.91,38,6.14,6.14,0,0,1,31.3,42.26Zm-8.56,0a5.35,5.35,0,0,0,.86,3.28,3,3,0,0,0,2.54,1.13,3,3,0,0,0,2.53-1.12,5.31,5.31,0,0,0,.87-3.29A5.18,5.18,0,0,0,28.67,39a3,3,0,0,0-2.55-1.12A3,3,0,0,0,23.59,39,5.32,5.32,0,0,0,22.74,42.26Z"/><path class="cls-2" d="M44,42.26a6.17,6.17,0,0,1-1.39,4.29,4.86,4.86,0,0,1-3.82,1.55,5.08,5.08,0,0,1-2.68-.71,4.63,4.63,0,0,1-1.8-2,7,7,0,0,1-.64-3.1A6.17,6.17,0,0,1,35,38a4.84,4.84,0,0,1,3.81-1.53A4.75,4.75,0,0,1,42.6,38,6.19,6.19,0,0,1,44,42.26Zm-8.56,0a5.28,5.28,0,0,0,.86,3.28,3.42,3.42,0,0,0,5.07,0,5.31,5.31,0,0,0,.86-3.29A5.18,5.18,0,0,0,41.36,39a3,3,0,0,0-2.56-1.12A3,3,0,0,0,36.28,39,5.26,5.26,0,0,0,35.43,42.26Z"/><path class="cls-2" d="M48.67,47.89H47V31.94h1.7Z"/><path class="cls-2" d="M52,46.8c0-.92.41-1.39,1.23-1.39a1.19,1.19,0,0,1,.92.36,1.51,1.51,0,0,1,.32,1,1.46,1.46,0,0,1-.33,1,1.14,1.14,0,0,1-.91.37,1.25,1.25,0,0,1-.88-.32A1.38,1.38,0,0,1,52,46.8Zm1.78-3H52.75L52.22,32.9h2.12Z"/></svg>