<svg id="Layer_1" data-name="Layer 1" xmlns="http://www.w3.org/2000/svg" width="273" height="64" viewBox="0 0 273 64"><defs><style>.cls-1{fill:#3fa7f3;}.cls-2{fill:#fff;}</style></defs><title>svar 2 besked 1</title><rect class="cls-1" width="273" height="64" rx="19.58"/><path class="cls-2" d="M24.24,24.69H22.5v-7H14.61v7.05H12.86V9.7h1.75v6.38H22.5V9.7h1.74Z"/><path class="cls-2" d="M35,24.69l-.34-1.6h-.08a4.65,4.65,0,0,1-1.68,1.43,5.05,5.05,0,0,1-2.08.38A3.76,3.76,0,0,1,28.21,24a3.18,3.18,0,0,1-.95-2.46q0-3.39,5.44-3.56L34.61,18v-.7a2.89,2.89,0,0,0-.57-2,2.33,2.33,0,0,0-1.82-.63,7.41,7.41,0,0,0-3.18.87l-.52-1.31a7.91,7.91,0,0,1,1.82-.7,7.48,7.48,0,0,1,2-.26,4.3,4.3,0,0,1,3,.89,3.72,3.72,0,0,1,1,2.86v7.67Zm-3.84-1.2a3.43,3.43,0,0,0,2.49-.87,3.2,3.2,0,0,0,.91-2.44v-1l-1.7.07a6.13,6.13,0,0,0-2.93.63,1.9,1.9,0,0,0-.9,1.74A1.76,1.76,0,0,0,29.6,23,2.34,2.34,0,0,0,31.17,23.49Z"/><path class="cls-2" d="M47.47,24.69V17.42a2.93,2.93,0,0,0-.63-2.05,2.54,2.54,0,0,0-2-.68,3.21,3.21,0,0,0-2.59,1,4.83,4.83,0,0,0-.82,3.16v5.87h-1.7V8.74h1.7v4.83A11.26,11.26,0,0,1,41.4,15h.1a3.47,3.47,0,0,1,1.43-1.27,4.56,4.56,0,0,1,2.12-.47,4.36,4.36,0,0,1,3.09,1,4.11,4.11,0,0,1,1,3.11v7.33Z"/><path class="cls-2" d="M59.58,24.69l-.34-1.6h-.08a4.65,4.65,0,0,1-1.68,1.43,5.05,5.05,0,0,1-2.08.38A3.76,3.76,0,0,1,52.78,24a3.14,3.14,0,0,1-1-2.46q0-3.39,5.44-3.56L59.18,18v-.7a2.89,2.89,0,0,0-.57-2,2.35,2.35,0,0,0-1.82-.63,7.34,7.34,0,0,0-3.18.87l-.52-1.31a7.91,7.91,0,0,1,1.82-.7,7.48,7.48,0,0,1,2-.26,4.3,4.3,0,0,1,3,.89,3.72,3.72,0,0,1,1,2.86v7.67Zm-3.85-1.2a3.46,3.46,0,0,0,2.5-.87,3.2,3.2,0,0,0,.91-2.44v-1l-1.7.07a6.13,6.13,0,0,0-2.93.63,1.9,1.9,0,0,0-.9,1.74,1.76,1.76,0,0,0,.56,1.4A2.31,2.31,0,0,0,55.73,23.49Z"/><path class="cls-2" d="M72,24.69V17.42a2.93,2.93,0,0,0-.63-2.05,2.54,2.54,0,0,0-2-.68,3.2,3.2,0,0,0-2.58,1,4.83,4.83,0,0,0-.82,3.16v5.87h-1.7V8.74h1.7v4.83A11.26,11.26,0,0,1,66,15h.1a3.47,3.47,0,0,1,1.43-1.27,4.56,4.56,0,0,1,2.12-.47,4.36,4.36,0,0,1,3.09,1,4.11,4.11,0,0,1,1,3.11v7.33Z"/><path class="cls-2" d="M84.15,24.69l-.34-1.6h-.08a4.65,4.65,0,0,1-1.68,1.43A5.1,5.1,0,0,1,80,24.9,3.79,3.79,0,0,1,77.34,24a3.17,3.17,0,0,1-.94-2.46q0-3.39,5.44-3.56L83.75,18v-.7a2.89,2.89,0,0,0-.57-2,2.35,2.35,0,0,0-1.82-.63,7.34,7.34,0,0,0-3.18.87l-.52-1.31a7.91,7.91,0,0,1,1.82-.7,7.48,7.48,0,0,1,2-.26,4.31,4.31,0,0,1,3,.89,3.72,3.72,0,0,1,1,2.86v7.67Zm-3.85-1.2a3.46,3.46,0,0,0,2.5-.87,3.24,3.24,0,0,0,.91-2.44v-1L82,19.24a6.11,6.11,0,0,0-2.92.63,1.9,1.9,0,0,0-.9,1.74,1.76,1.76,0,0,0,.56,1.4A2.31,2.31,0,0,0,80.3,23.49Z"/><path class="cls-2" d="M102,23.18h-.09A4,4,0,0,1,98.4,24.9,4.19,4.19,0,0,1,95,23.39a6.62,6.62,0,0,1-1.22-4.29A6.72,6.72,0,0,1,95,14.79a4.55,4.55,0,0,1,6.93.12H102L102,14.1l0-.79V8.74h1.7v16h-1.38Zm-3.4.29a3.06,3.06,0,0,0,2.52-.95,4.74,4.74,0,0,0,.79-3.06V19.1a5.64,5.64,0,0,0-.8-3.41,3,3,0,0,0-2.53-1,2.61,2.61,0,0,0-2.3,1.17,5.76,5.76,0,0,0-.79,3.28,5.51,5.51,0,0,0,.79,3.25A2.66,2.66,0,0,0,98.62,23.47Z"/><path class="cls-2" d="M112,24.9a5.2,5.2,0,0,1-3.94-1.52,5.88,5.88,0,0,1-1.44-4.21A6.51,6.51,0,0,1,108,14.85a4.44,4.44,0,0,1,3.6-1.6,4.22,4.22,0,0,1,3.34,1.39,5.31,5.31,0,0,1,1.23,3.66v1.08h-7.74a4.43,4.43,0,0,0,1,3,3.43,3.43,0,0,0,2.67,1,9,9,0,0,0,3.59-.76v1.52a9.44,9.44,0,0,1-1.71.56A9.78,9.78,0,0,1,112,24.9Zm-.46-10.23a2.76,2.76,0,0,0-2.16.89,4,4,0,0,0-1,2.44h5.87a3.79,3.79,0,0,0-.71-2.47A2.54,2.54,0,0,0,111.53,14.67Z"/><path class="cls-2" d="M122.65,23.49a6.15,6.15,0,0,0,.87-.06l.67-.14v1.3a3.24,3.24,0,0,1-.82.22,5.81,5.81,0,0,1-1,.09q-3.27,0-3.27-3.44V14.78h-1.6V14l1.6-.71.72-2.4h1v2.6h3.26v1.33h-3.26v6.61a2.28,2.28,0,0,0,.48,1.56A1.68,1.68,0,0,0,122.65,23.49Z"/><path class="cls-2" d="M139.14,21.63A2.82,2.82,0,0,1,138,24.05a5.54,5.54,0,0,1-3.28.85,7.18,7.18,0,0,1-3.49-.71V22.61a8.8,8.8,0,0,0,1.74.65,7.64,7.64,0,0,0,1.79.23,4.1,4.1,0,0,0,2.05-.42,1.42,1.42,0,0,0,.72-1.3,1.4,1.4,0,0,0-.57-1.12,9.19,9.19,0,0,0-2.22-1.11,11.94,11.94,0,0,1-2.23-1,3,3,0,0,1-1-1,2.71,2.71,0,0,1,.79-3.49,5.23,5.23,0,0,1,3.07-.79,8.78,8.78,0,0,1,3.54.74l-.6,1.38a8.26,8.26,0,0,0-3.07-.7,3.55,3.55,0,0,0-1.82.38,1.19,1.19,0,0,0-.62,1.05,1.3,1.3,0,0,0,.23.77,2.29,2.29,0,0,0,.75.6,15.73,15.73,0,0,0,2,.83,7.48,7.48,0,0,1,2.7,1.47A2.57,2.57,0,0,1,139.14,21.63Z"/><path class="cls-2" d="M143.59,18.94a19.41,19.41,0,0,1,1.34-1.64l3.63-3.85h2L146,18.24l4.87,6.45h-2.06l-4-5.31-1.28,1.11v4.2h-1.68V8.74h1.68V17.2c0,.37,0,.95-.08,1.74Z"/><path class="cls-2" d="M159.84,24.69l-.34-1.6h-.08a4.71,4.71,0,0,1-1.67,1.43,5.14,5.14,0,0,1-2.09.38A3.76,3.76,0,0,1,153,24a3.18,3.18,0,0,1-.95-2.46q0-3.39,5.45-3.56l1.9-.06v-.7a2.89,2.89,0,0,0-.57-2,2.33,2.33,0,0,0-1.82-.63,7.34,7.34,0,0,0-3.17.87l-.53-1.31a8.09,8.09,0,0,1,1.82-.7,7.5,7.5,0,0,1,2-.26,4.27,4.27,0,0,1,3,.89,3.72,3.72,0,0,1,1,2.86v7.67ZM156,23.49a3.43,3.43,0,0,0,2.49-.87,3.2,3.2,0,0,0,.91-2.44v-1l-1.7.07a6.16,6.16,0,0,0-2.93.63,1.89,1.89,0,0,0-.89,1.74,1.75,1.75,0,0,0,.55,1.4A2.36,2.36,0,0,0,156,23.49Z"/><path class="cls-2" d="M166.31,24.69h-1.7V8.74h1.7Z"/><path class="cls-2" d="M189.7,24.69V17.38a3,3,0,0,0-.57-2,2.22,2.22,0,0,0-1.79-.68,2.85,2.85,0,0,0-2.34.92,4.31,4.31,0,0,0-.76,2.81v6.27h-1.7V17.38a3,3,0,0,0-.58-2,2.22,2.22,0,0,0-1.79-.68,2.79,2.79,0,0,0-2.35,1,5.25,5.25,0,0,0-.74,3.15v5.89h-1.7V13.45h1.38L177,15h.08a3.36,3.36,0,0,1,1.36-1.28,4.11,4.11,0,0,1,2-.46c1.76,0,2.91.63,3.45,1.91H184a3.59,3.59,0,0,1,1.46-1.4,4.52,4.52,0,0,1,2.17-.51,3.84,3.84,0,0,1,2.86,1,4.37,4.37,0,0,1,.95,3.13v7.33Z"/><path class="cls-2" d="M194.77,10.41a1.11,1.11,0,0,1,.29-.86,1,1,0,0,1,.71-.27,1,1,0,0,1,.71.28,1.1,1.1,0,0,1,.3.85,1.1,1.1,0,0,1-.3.85,1,1,0,0,1-.71.29,1,1,0,0,1-.71-.29A1.1,1.1,0,0,1,194.77,10.41Zm1.84,14.28h-1.7V13.45h1.7Z"/><path class="cls-2" d="M207.91,24.69V17.42a2.92,2.92,0,0,0-.62-2.05,2.56,2.56,0,0,0-2-.68,3.19,3.19,0,0,0-2.58,1,4.78,4.78,0,0,0-.82,3.15v5.89h-1.71V13.45h1.39l.27,1.54H202a3.53,3.53,0,0,1,1.46-1.29,4.84,4.84,0,0,1,2.11-.45,4.27,4.27,0,0,1,3.05,1,4.17,4.17,0,0,1,1,3.13v7.33Z"/><path class="cls-2" d="M15.07,49.89,10.8,38.65h1.83l2.42,6.67c.54,1.56.87,2.57,1,3h.08q.12-.54.72-2.25c.4-1.14,1.29-3.62,2.69-7.45h1.82L17.06,49.89Z"/><path class="cls-2" d="M27.88,50.1a5.17,5.17,0,0,1-3.94-1.52,5.88,5.88,0,0,1-1.44-4.22,6.5,6.5,0,0,1,1.34-4.31,4.43,4.43,0,0,1,3.59-1.6,4.24,4.24,0,0,1,3.35,1.39A5.31,5.31,0,0,1,32,43.5v1.08H24.27a4.42,4.42,0,0,0,1,3,3.47,3.47,0,0,0,2.68,1,9,9,0,0,0,3.59-.76v1.52a10,10,0,0,1-1.71.56A9.85,9.85,0,0,1,27.88,50.1Zm-.47-10.23a2.79,2.79,0,0,0-2.16.89,4,4,0,0,0-.94,2.44h5.87a3.73,3.73,0,0,0-.72-2.47A2.52,2.52,0,0,0,27.41,39.87Z"/><path class="cls-2" d="M42.6,49.89V42.62a2.93,2.93,0,0,0-.63-2A2.54,2.54,0,0,0,40,39.89a3.23,3.23,0,0,0-2.59,1A4.78,4.78,0,0,0,36.61,44v5.89h-1.7V38.65h1.38l.28,1.54h.08a3.56,3.56,0,0,1,1.47-1.29,4.82,4.82,0,0,1,2.1-.45,4.26,4.26,0,0,1,3.06,1,4.16,4.16,0,0,1,1,3.13v7.33Z"/><path class="cls-2" d="M47.65,35.61a1.14,1.14,0,0,1,.29-.86,1.07,1.07,0,0,1,1.43,0,1.39,1.39,0,0,1,0,1.7,1,1,0,0,1-.71.29,1,1,0,0,1-.72-.29A1.13,1.13,0,0,1,47.65,35.61ZM49.5,49.89H47.8V38.65h1.7Z"/><path class="cls-2" d="M60.8,49.89V42.62a2.93,2.93,0,0,0-.63-2,2.54,2.54,0,0,0-2-.68,3.23,3.23,0,0,0-2.59,1A4.78,4.78,0,0,0,54.81,44v5.89h-1.7V38.65h1.38l.28,1.54h.08a3.56,3.56,0,0,1,1.47-1.29,4.82,4.82,0,0,1,2.1-.45,4.26,4.26,0,0,1,3.06,1,4.16,4.16,0,0,1,1,3.13v7.33Z"/><path class="cls-2" d="M73.65,48.38h-.09A4,4,0,0,1,70,50.1a4.19,4.19,0,0,1-3.43-1.51,6.62,6.62,0,0,1-1.23-4.29A6.72,6.72,0,0,1,66.6,40,4.14,4.14,0,0,1,70,38.45a4.1,4.1,0,0,1,3.51,1.66h.13l-.07-.81,0-.79V33.94h1.7v16H73.87Zm-3.41.29a3.07,3.07,0,0,0,2.53-1,4.8,4.8,0,0,0,.79-3.06V44.3a5.64,5.64,0,0,0-.8-3.41,3,3,0,0,0-2.54-1A2.6,2.6,0,0,0,67.93,41a5.76,5.76,0,0,0-.79,3.28,5.51,5.51,0,0,0,.79,3.25A2.63,2.63,0,0,0,70.24,48.67Z"/><path class="cls-2" d="M83.62,50.1a5.17,5.17,0,0,1-3.94-1.52,5.88,5.88,0,0,1-1.44-4.22,6.5,6.5,0,0,1,1.34-4.31,4.43,4.43,0,0,1,3.59-1.6,4.24,4.24,0,0,1,3.35,1.39,5.31,5.31,0,0,1,1.23,3.66v1.08H80a4.42,4.42,0,0,0,1,3,3.47,3.47,0,0,0,2.68,1,9,9,0,0,0,3.59-.76v1.52a10,10,0,0,1-1.71.56A9.85,9.85,0,0,1,83.62,50.1Zm-.47-10.23a2.75,2.75,0,0,0-2.15.89,4,4,0,0,0-1,2.44h5.87a3.73,3.73,0,0,0-.72-2.47A2.52,2.52,0,0,0,83.15,39.87Z"/><path class="cls-2" d="M97.81,49.89H96.1v-16h1.71Z"/><path class="cls-2" d="M101.27,35.61a1.14,1.14,0,0,1,.29-.86,1,1,0,0,1,.72-.27,1,1,0,0,1,.7.28,1.35,1.35,0,0,1,0,1.7,1,1,0,0,1-.7.29,1,1,0,0,1-.72-.29A1.13,1.13,0,0,1,101.27,35.61Zm1.85,14.28h-1.7V38.65h1.7Z"/><path class="cls-2" d="M115.92,38.65v1.08l-2.08.25a3.39,3.39,0,0,1,.52.93,3.64,3.64,0,0,1,.22,1.31,3.31,3.31,0,0,1-1.13,2.64,4.56,4.56,0,0,1-3.09,1,5.7,5.7,0,0,1-1-.08,1.67,1.67,0,0,0-1.08,1.45.73.73,0,0,0,.38.68,2.83,2.83,0,0,0,1.3.22h2a4.4,4.4,0,0,1,2.8.77,2.64,2.64,0,0,1,1,2.23,3.2,3.2,0,0,1-1.5,2.85,8,8,0,0,1-4.36,1,6,6,0,0,1-3.4-.82,2.65,2.65,0,0,1-1.2-2.32A2.62,2.62,0,0,1,106,50a3.41,3.41,0,0,1,1.84-1,1.82,1.82,0,0,1-.72-.61,1.62,1.62,0,0,1-.29-.95,1.82,1.82,0,0,1,.33-1.08,3.61,3.61,0,0,1,1-.89,3,3,0,0,1-1.42-1.22,4,4,0,0,1,.56-4.81,4.52,4.52,0,0,1,3.14-1,6,6,0,0,1,1.59.2Zm-9,13.13a1.52,1.52,0,0,0,.77,1.38,4.2,4.2,0,0,0,2.21.47,6.11,6.11,0,0,0,3.17-.64,1.94,1.94,0,0,0,1-1.73,1.38,1.38,0,0,0-.56-1.27,4.38,4.38,0,0,0-2.13-.35h-2a2.67,2.67,0,0,0-1.8.55A2,2,0,0,0,107,51.78Zm.93-9.53a2.32,2.32,0,0,0,.66,1.79,2.7,2.7,0,0,0,1.86.6,2.17,2.17,0,0,0,2.49-2.42,2.23,2.23,0,0,0-2.52-2.53,2.51,2.51,0,0,0-1.85.64A2.62,2.62,0,0,0,107.89,42.25Z"/><path class="cls-2" d="M123,50.1a5.17,5.17,0,0,1-3.93-1.52,5.88,5.88,0,0,1-1.44-4.22A6.45,6.45,0,0,1,119,40.05a4.43,4.43,0,0,1,3.59-1.6,4.22,4.22,0,0,1,3.34,1.39,5.31,5.31,0,0,1,1.23,3.66v1.08h-7.74a4.43,4.43,0,0,0,1,3,3.43,3.43,0,0,0,2.67,1,9,9,0,0,0,3.59-.76v1.52a9.44,9.44,0,0,1-1.71.56A9.7,9.7,0,0,1,123,50.1Zm-.46-10.23a2.79,2.79,0,0,0-2.16.89,4,4,0,0,0-1,2.44h5.88a3.73,3.73,0,0,0-.72-2.47A2.53,2.53,0,0,0,122.52,39.87Z"/><path class="cls-2" d="M142.72,46.83a2.82,2.82,0,0,1-1.17,2.42,5.54,5.54,0,0,1-3.28.85,7.18,7.18,0,0,1-3.49-.71V47.81a8.8,8.8,0,0,0,1.74.65,7.58,7.58,0,0,0,1.79.23,4.1,4.1,0,0,0,2.05-.42,1.42,1.42,0,0,0,.72-1.3,1.4,1.4,0,0,0-.57-1.12,9.19,9.19,0,0,0-2.22-1.11,11.94,11.94,0,0,1-2.23-1,3.11,3.11,0,0,1-1-1,2.61,2.61,0,0,1-.32-1.32,2.52,2.52,0,0,1,1.12-2.17,5.19,5.19,0,0,1,3.06-.79,8.83,8.83,0,0,1,3.55.74l-.6,1.38a8.26,8.26,0,0,0-3.07-.7,3.53,3.53,0,0,0-1.82.38,1.19,1.19,0,0,0-.62,1,1.3,1.3,0,0,0,.23.77,2.29,2.29,0,0,0,.75.6,16.08,16.08,0,0,0,2,.83A7.46,7.46,0,0,1,142,45,2.62,2.62,0,0,1,142.72,46.83Z"/><path class="cls-2" d="M150.23,50.1a5.17,5.17,0,0,1-3.93-1.52,5.88,5.88,0,0,1-1.44-4.22,6.5,6.5,0,0,1,1.34-4.31,4.43,4.43,0,0,1,3.59-1.6,4.24,4.24,0,0,1,3.35,1.39,5.31,5.31,0,0,1,1.23,3.66v1.08h-7.75a4.48,4.48,0,0,0,1,3,3.46,3.46,0,0,0,2.67,1,8.94,8.94,0,0,0,3.59-.76v1.52a9.61,9.61,0,0,1-1.7.56A9.88,9.88,0,0,1,150.23,50.1Zm-.46-10.23a2.79,2.79,0,0,0-2.16.89,4,4,0,0,0-.94,2.44h5.87a3.73,3.73,0,0,0-.72-2.47A2.53,2.53,0,0,0,149.77,39.87Z"/><path class="cls-2" d="M157,48.8c0-.92.41-1.39,1.23-1.39a1.18,1.18,0,0,1,.92.36,1.79,1.79,0,0,1,0,2.06,1.15,1.15,0,0,1-.91.36,1.27,1.27,0,0,1-.88-.32A1.42,1.42,0,0,1,157,48.8Zm1.79-3h-1.08l-.52-10.86h2.12Z"/></svg>